<svg id="レイヤー_1" data-name="レイヤー 1" xmlns="http://www.w3.org/2000/svg" viewBox="0 0 48 48"><defs><style>.cls-1{fill:#fff;}.cls-2{fill:#2b2727;}.cls-3{fill:#f8f09b;}</style></defs><title>round_bottomflask</title><path class="cls-1" d="M29.94,20.5A2,2,0,0,1,29,18.81V10.39a2,2,0,0,0,0-4H19a2,2,0,1,0,0,4v8.42a2,2,0,0,1-.93,1.69,11.36,11.36,0,0,0-5.47,9.69,11.53,11.53,0,0,0,11,11.42A11.39,11.39,0,0,0,29.94,20.5Z"/><path class="cls-2" d="M24,42.62h-.5A12.51,12.51,0,0,1,11.6,30.19a12.31,12.31,0,0,1,6-10.55,1,1,0,0,0,.45-.83V10.39a1,1,0,0,1,2,0v8.42a3,3,0,0,1-1.41,2.54,10.34,10.34,0,0,0-5,8.84,10.5,10.5,0,0,0,10,10.42,10.39,10.39,0,0,0,5.83-19.25A3,3,0,0,1,28,18.81V10.39a1,1,0,0,1,2,0v8.42a1,1,0,0,0,.47.84,12.4,12.4,0,0,1-6.46,23Z"/><path class="cls-2" d="M29,11.39H25a1,1,0,0,1,0-2h4a1,1,0,0,0,0-2H19a1,1,0,1,0,0,2,1,1,0,0,1,0,2,3,3,0,1,1,0-6H29a3,3,0,0,1,0,6Z"/><path class="cls-2" d="M21,14.39H19a1,1,0,0,1,0-2h2a1,1,0,0,1,0,2Z"/><path class="cls-2" d="M21,17.39H19a1,1,0,0,1,0-2h2a1,1,0,0,1,0,2Z"/><path class="cls-3" d="M28.67,29.83c-6.44,0-6.91-2.31-12.49-2.65a8.39,8.39,0,1,0,16.22,3c0-.25,0-.48,0-.72A18.45,18.45,0,0,1,28.67,29.83Z"/><circle class="cls-1" cx="22.75" cy="32.49" r="1"/><circle class="cls-1" cx="25.75" cy="33.99" r="0.5"/><circle class="cls-1" cx="25" cy="29.49" r="1"/><circle class="cls-3" cx="25" cy="24.49" r="1"/><circle class="cls-3" cx="22.5" cy="26.99" r="0.5"/></svg>