
<svg xmlns="http://www.w3.org/2000/svg" height="281.0893108756286" version="1.1" width="249.40445986817497" style="overflow:hidden;" viewBox="0 0 269 301">
  <g transform="translate(-525, -203)">
    <defs></defs>
    <circle cx="627.9340008883521" cy="232.52598520129231" r="19.200000000000003" fill="none" stroke="#00cc00" stroke-width="0.96" transform="matrix(1,0,0,1,40,40)" style="display:none;"></circle>
    <circle cx="605.7043001014644" cy="266.52552756540297" r="24" fill="none" stroke="#00cc00" stroke-width="0.96" transform="matrix(1,0,0,1,40,40)" style="display:none;"></circle>
    <circle cx="672.3954024352076" cy="207.94231609896008" r="24" fill="none" stroke="#00cc00" stroke-width="0.96" transform="matrix(1,0,0,1,40,40)" style="display:none;"></circle>
    <circle cx="605.7043001014644" cy="232.52598520129231" r="24" fill="none" stroke="#00cc00" stroke-width="0.96" transform="matrix(1,0,0,1,40,40)" style="display:none;"></circle>
    <circle cx="495.08857152738364" cy="423.7241022156286" r="24" fill="none" stroke="#00cc00" stroke-width="0.96" transform="matrix(1,0,0,1,40,40)" style="display:none;"></circle>
    <circle cx="533.7256045789463" cy="413.37134041152774" r="24" fill="none" stroke="#00cc00" stroke-width="0.96" transform="matrix(1,0,0,1,40,40)" style="display:none;"></circle>
    <circle cx="714.4930313955587" cy="391.1161821800087" r="24" fill="none" stroke="#00cc00" stroke-width="0.96" transform="matrix(1,0,0,1,40,40)" style="display:none;"></circle>
    <path fill="#000000" stroke="#000000" d="M604.14438588,236.03940763L607.26421432,229.01256277L648.60396804,229.01254552L651.72343531,236.03942489Z" stroke-width="1.6" stroke-linecap="round" stroke-linejoin="round" transform="matrix(1,0,0,1,40,40)" style="stroke-linecap:round;stroke-linejoin:round;"></path>
    <path fill="none" stroke="#000000" d="M610.14417105,222.5259852L645.72436652,222.5259852" stroke-width="1.6" stroke-linecap="round" stroke-linejoin="round" transform="matrix(1,0,0,1,40,40)" style="stroke-linecap:round;stroke-linejoin:round;"></path>
    <path fill="#000000" stroke="#000000" d="M672.39540244,207.9423161L651.72343531,236.03942489L648.60396804,229.01254552Z" stroke-width="1.6" stroke-linecap="round" stroke-linejoin="round" transform="matrix(1,0,0,1,40,40)" style="stroke-linecap:round;stroke-linejoin:round;"></path>
    <path fill="none" stroke="#000000" d="M672.39540244,207.9423161L650.16370168,187.80258718M662.98305333,208.41110494L647.59302188,194.46925385" stroke-width="1.6" stroke-linecap="round" stroke-linejoin="round" transform="matrix(1,0,0,1,40,40)" style="stroke-linecap:round;stroke-linejoin:round;"></path>
    <path fill="none" stroke="#000000" d="M605.7043001,266.52552757L585.04457818,287.44924593M608.49054905,273.19219423L594.12563773,287.74066492" stroke-width="1.6" stroke-linecap="round" stroke-linejoin="round" transform="matrix(1,0,0,1,40,40)" style="stroke-linecap:round;stroke-linejoin:round;"></path>
    <path fill="#000000" stroke="#000000" d="M585.04457818,287.44924593L607.30512947,307.73945863L604.10347073,314.75839254Z" stroke-width="1.6" stroke-linecap="round" stroke-linejoin="round" transform="matrix(1,0,0,1,40,40)" style="stroke-linecap:round;stroke-linejoin:round;"></path>
    <path fill="none" stroke="#000000" d="M650.16370168,266.52552757L605.7043001,266.52552757" stroke-width="1.6" stroke-linecap="round" stroke-linejoin="round" transform="matrix(1,0,0,1,40,40)" style="stroke-linecap:round;stroke-linejoin:round;"></path>
    <text x="714.4930313955587" y="391.1161821800087" text-anchor="middle" stroke="none" fill="#000000" style="font-style:normal;font-variant:normal;font-weight:normal;font-size:24px;line-height:normal;font-family:Arial;" font-size="24px" transform="matrix(1,0,0,1,40,40)">
      <tspan dy="8.506807180008707">N</tspan>
    </text>
    <text x="679.8524451246469" y="411.11593398840597" text-anchor="middle" stroke="none" fill="#000000" style="font-style:normal;font-variant:normal;font-weight:normal;font-size:24px;line-height:normal;font-family:Arial;" font-size="24px" transform="matrix(1,0,0,1,40,40)">
      <tspan dy="8.50655898840597">N</tspan>
    </text>
    <text x="650.1267400219685" y="384.34919569493667" text-anchor="middle" stroke="none" fill="#000000" style="font-style:normal;font-variant:normal;font-weight:normal;font-size:24px;line-height:normal;font-family:Arial;" font-size="24px" transform="matrix(1,0,0,1,40,40)">
      <tspan dy="8.505445694936668">N</tspan>
    </text>
    <text x="495.08857152738364" y="423.7241022156286" text-anchor="middle" stroke="none" fill="#000000" style="font-style:normal;font-variant:normal;font-weight:normal;font-size:24px;line-height:normal;font-family:Arial;" font-size="24px" transform="matrix(1,0,0,1,40,40)">
      <tspan dy="8.50535221562859">F</tspan>
    </text>
    <path fill="none" stroke="#000000" d="M605.7043001,187.80258718L583.47659929,207.9423161M608.27532272,194.46925385L592.88810662,208.41106293" stroke-width="1.6" stroke-linecap="round" stroke-linejoin="round" transform="matrix(1,0,0,1,40,40)" style="stroke-linecap:round;stroke-linejoin:round;"></path>
    <path fill="#000000" stroke="#000000" d="M583.47659929,207.9423161L607.26421432,229.01256277L604.14438588,236.03940763Z" stroke-width="1.6" stroke-linecap="round" stroke-linejoin="round" transform="matrix(1,0,0,1,40,40)" style="stroke-linecap:round;stroke-linejoin:round;"></path>
    <path fill="none" stroke="#000000" d="M650.16370168,187.80258718L605.7043001,187.80258718" stroke-width="1.6" stroke-linecap="round" stroke-linejoin="round" transform="matrix(1,0,0,1,40,40)" style="stroke-linecap:round;stroke-linejoin:round;"></path>
    <path fill="#000000" stroke="#000000" d="M604.10347073,314.75839254L607.30512947,307.73945863L648.60380476,307.7355015L651.72359859,314.76234967Z" stroke-width="1.6" stroke-linecap="round" stroke-linejoin="round" transform="matrix(1,0,0,1,40,40)" style="stroke-linecap:round;stroke-linejoin:round;"></path>
    <path fill="none" stroke="#000000" d="M610.26576025,301.24892559L645.72388207,301.24892559" stroke-width="1.6" stroke-linecap="round" stroke-linejoin="round" transform="matrix(1,0,0,1,40,40)" style="stroke-linecap:round;stroke-linejoin:round;"></path>
    <path fill="#000000" stroke="#000000" d="M672.39540244,286.66125654L651.72359859,314.76234967L648.60380476,307.7355015Z" stroke-width="1.6" stroke-linecap="round" stroke-linejoin="round" transform="matrix(1,0,0,1,40,40)" style="stroke-linecap:round;stroke-linejoin:round;"></path>
    <path fill="none" stroke="#000000" d="M672.39540244,286.66125654L650.16370168,266.52552757M662.98301136,287.13089559L647.59340029,273.19219423" stroke-width="1.6" stroke-linecap="round" stroke-linejoin="round" transform="matrix(1,0,0,1,40,40)" style="stroke-linecap:round;stroke-linejoin:round;"></path>
    <path fill="#000000" stroke="#000000" d="M605.7043001,232.5259852L574.84071553,270.9734677" stroke-width="7" stroke-linecap="round" stroke-linejoin="round" transform="matrix(1,0,0,1,40,40)" style="stroke-linecap:round;stroke-linejoin:round;"></path>
    <path fill="#000000" stroke="#000000" d="M605.7043001,311.24892559L574.84071553,334.26461579" stroke-width="7" stroke-linecap="round" stroke-linejoin="round" transform="matrix(1,0,0,1,40,40)" style="stroke-linecap:round;stroke-linejoin:round;"></path>
    <path fill="none" stroke="#000000" d="M650.16370168,187.80258718L680.76728975,172.63479134" stroke-width="1.6" stroke-linecap="round" stroke-linejoin="round" transform="matrix(1,0,0,1,40,40)" style="stroke-linecap:round;stroke-linejoin:round;"></path>
    <path fill="none" stroke="#000000" d="M650.16370168,266.52552757L680.76728975,235.92593944" stroke-width="1.6" stroke-linecap="round" stroke-linejoin="round" transform="matrix(1,0,0,1,40,40)" style="stroke-linecap:round;stroke-linejoin:round;"></path>
    <path fill="none" stroke="#000000" d="M680.76728975,235.92593944L680.76728975,172.63479134" stroke-width="1.6" stroke-linecap="round" stroke-linejoin="round" transform="matrix(1,0,0,1,40,40)" style="stroke-linecap:round;stroke-linejoin:round;"></path>
    <path fill="#000000" stroke="#000000" d="M574.84071553,334.26461579L574.84071553,270.9734677" stroke-width="7" stroke-linecap="round" stroke-linejoin="round" transform="matrix(1,0,0,1,40,40)" style="stroke-linecap:round;stroke-linejoin:round;"></path>
    <path fill="none" stroke="#000000" d="M650.16370168,311.24892559L666.3951202,347.80765987" stroke-width="1.6" stroke-linecap="round" stroke-linejoin="round" transform="matrix(1,0,0,1,40,40)" style="stroke-linecap:round;stroke-linejoin:round;"></path>
    <path fill="none" stroke="#000000" d="M670.51541241,354.94421533L700.66139588,358.11335397M666.3951202,347.80765987L706.17520861,351.98959727" stroke-width="1.6" stroke-linecap="round" stroke-linejoin="round" transform="matrix(1,0,0,1,40,40)" style="stroke-linecap:round;stroke-linejoin:round;"></path>
    <path fill="none" stroke="#000000" d="M706.17520861,351.98959727L710.956243,374.47932237" stroke-width="1.6" stroke-linecap="round" stroke-linejoin="round" transform="matrix(1,0,0,1,40,40)" style="stroke-linecap:round;stroke-linejoin:round;"></path>
    <path fill="none" stroke="#000000" d="M699.70788537,391.95438663L687.93794796,398.74976316M703.04121871,397.72788932L691.27128129,404.52326585" stroke-width="1.6" stroke-linecap="round" stroke-linejoin="round" transform="matrix(1,0,0,1,40,40)" style="stroke-linecap:round;stroke-linejoin:round;"></path>
    <path fill="none" stroke="#000000" d="M668.79387494,401.15815996L661.15925006,394.28350366" stroke-width="1.6" stroke-linecap="round" stroke-linejoin="round" transform="matrix(1,0,0,1,40,40)" style="stroke-linecap:round;stroke-linejoin:round;"></path>
    <path fill="none" stroke="#000000" d="M657.44089031,367.92037601L666.3951202,347.80765987" stroke-width="1.6" stroke-linecap="round" stroke-linejoin="round" transform="matrix(1,0,0,1,40,40)" style="stroke-linecap:round;stroke-linejoin:round;"></path>
    <path fill="none" stroke="#000000" d="M638.32305012,386.85810007L611.00080406,392.66551311" stroke-width="1.6" stroke-linecap="round" stroke-linejoin="round" transform="matrix(1,0,0,1,40,40)" style="stroke-linecap:round;stroke-linejoin:round;"></path>
    <path fill="none" stroke="#000000" d="M611.00080406,392.66551311L600.64762741,431.30213132" stroke-width="1.6" stroke-linecap="round" stroke-linejoin="round" transform="matrix(1,0,0,1,40,40)" style="stroke-linecap:round;stroke-linejoin:round;"></path>
    <path fill="none" stroke="#000000" d="M595.2043714,425.85880616L564.00236308,434.2193591M600.64762741,431.30213132L562.01002767,441.65504496" stroke-width="1.6" stroke-linecap="round" stroke-linejoin="round" transform="matrix(1,0,0,1,40,40)" style="stroke-linecap:round;stroke-linejoin:round;"></path>
    <path fill="none" stroke="#000000" d="M562.01002767,441.65504496L533.72560458,413.37134041" stroke-width="1.6" stroke-linecap="round" stroke-linejoin="round" transform="matrix(1,0,0,1,40,40)" style="stroke-linecap:round;stroke-linejoin:round;"></path>
    <path fill="none" stroke="#000000" d="M541.16135959,411.37893586L549.52203724,380.17804736M533.72560458,413.37134041L544.07878123,374.73472221" stroke-width="1.6" stroke-linecap="round" stroke-linejoin="round" transform="matrix(1,0,0,1,40,40)" style="stroke-linecap:round;stroke-linejoin:round;"></path>
    <path fill="none" stroke="#000000" d="M544.07878123,374.73472221L582.71638097,364.38180856" stroke-width="1.6" stroke-linecap="round" stroke-linejoin="round" transform="matrix(1,0,0,1,40,40)" style="stroke-linecap:round;stroke-linejoin:round;"></path>
    <path fill="none" stroke="#000000" d="M580.72404557,371.81749443L603.56504905,394.65791766M582.71638097,364.38180856L611.00080406,392.66551311" stroke-width="1.6" stroke-linecap="round" stroke-linejoin="round" transform="matrix(1,0,0,1,40,40)" style="stroke-linecap:round;stroke-linejoin:round;"></path>
    <path fill="none" stroke="#000000" d="M533.72560458,413.37134041L505.49721264,420.93511523" stroke-width="1.6" stroke-linecap="round" stroke-linejoin="round" transform="matrix(1,0,0,1,40,40)" style="stroke-linecap:round;stroke-linejoin:round;"></path>
  </g>
</svg>
