<?xml version="1.0"?>
<svg xmlns="http://www.w3.org/2000/svg" height="260.00183338" version="1.1" width="277.1293994" style="overflow: hidden; position: relative;" viewBox="0 0 297 280">
  <g transform="translate(-614, -84)">
    <defs/>
    <circle cx="704" cy="133.99941331827512" r="24" fill="none" stroke="#00cc00" style="display: none;" stroke-width="0.96" transform="matrix(1,0,0,1,59,40)"/>
    <path style="stroke-linecap: round; stroke-linejoin: round;" fill="none" stroke="#000000" d="M704,173.99941332L738.64050807,193.99970666" stroke-width="1.6" stroke-linecap="round" stroke-linejoin="round" transform="matrix(1,0,0,1,59,40)"/>
    <path style="stroke-linecap: round; stroke-linejoin: round;" fill="none" stroke="#000000" d="M731.9738414,197.848652L731.9738414,230.151348M738.64050807,193.99970666L738.64050807,234.00029334" stroke-width="1.6" stroke-linecap="round" stroke-linejoin="round" transform="matrix(1,0,0,1,59,40)"/>
    <path style="stroke-linecap: round; stroke-linejoin: round;" fill="none" stroke="#000000" d="M738.64050807,234.00029334L704,254.00058668" stroke-width="1.6" stroke-linecap="round" stroke-linejoin="round" transform="matrix(1,0,0,1,59,40)"/>
    <path style="stroke-linecap: round; stroke-linejoin: round;" fill="none" stroke="#000000" d="M704,246.30252664L676.0261586,230.151348M704,254.00058668L669.35949193,234.00029334" stroke-width="1.6" stroke-linecap="round" stroke-linejoin="round" transform="matrix(1,0,0,1,59,40)"/>
    <path style="stroke-linecap: round; stroke-linejoin: round;" fill="none" stroke="#000000" d="M669.35949193,234.00029334L669.35949193,193.99970666" stroke-width="1.6" stroke-linecap="round" stroke-linejoin="round" transform="matrix(1,0,0,1,59,40)"/>
    <path style="stroke-linecap: round; stroke-linejoin: round;" fill="none" stroke="#000000" d="M676.0261586,197.848652L704,181.69747336M669.35949193,193.99970666L704,173.99941332" stroke-width="1.6" stroke-linecap="round" stroke-linejoin="round" transform="matrix(1,0,0,1,59,40)"/>
    <path style="stroke-linecap: round; stroke-linejoin: round;" fill="none" stroke="#000000" d="M669.35949193,234.00029334L634.71834876,254.00007333" stroke-width="1.6" stroke-linecap="round" stroke-linejoin="round" transform="matrix(1,0,0,1,59,40)"/>
    <path style="stroke-linecap: round; stroke-linejoin: round;" fill="none" stroke="#000000" d="M738.64050807,234.00029334L773.28165124,254.00007333" stroke-width="1.6" stroke-linecap="round" stroke-linejoin="round" transform="matrix(1,0,0,1,59,40)"/>
    <path style="stroke-linecap: round; stroke-linejoin: round;" fill="none" stroke="#000000" d="M704,173.99941332L704,133.99941332" stroke-width="1.6" stroke-linecap="round" stroke-linejoin="round" transform="matrix(1,0,0,1,59,40)"/>
    <path style="stroke-linecap: round; stroke-linejoin: round;" fill="none" stroke="#000000" d="M634.71834876,254.00007333L634.71784068,293.99977999" stroke-width="1.6" stroke-linecap="round" stroke-linejoin="round" transform="matrix(1,0,0,1,59,40)"/>
    <path style="stroke-linecap: round; stroke-linejoin: round;" fill="none" stroke="#000000" d="M628.0512229,290.15074997L600.07626755,306.30209797M634.71784068,293.99977999L600.07631645,314.00007333" stroke-width="1.6" stroke-linecap="round" stroke-linejoin="round" transform="matrix(1,0,0,1,59,40)"/>
    <path style="stroke-linecap: round; stroke-linejoin: round;" fill="none" stroke="#000000" d="M600.07631645,314.00007333L565.4353003,294.00066001" stroke-width="1.6" stroke-linecap="round" stroke-linejoin="round" transform="matrix(1,0,0,1,59,40)"/>
    <path style="stroke-linecap: round; stroke-linejoin: round;" fill="none" stroke="#000000" d="M572.10201585,290.15162999L572.10242616,257.84998338M565.4353003,294.00066001L565.43580838,254.00095336" stroke-width="1.6" stroke-linecap="round" stroke-linejoin="round" transform="matrix(1,0,0,1,59,40)"/>
    <path style="stroke-linecap: round; stroke-linejoin: round;" fill="none" stroke="#000000" d="M565.43580838,254.00095336L600.07733261,234.00066002" stroke-width="1.6" stroke-linecap="round" stroke-linejoin="round" transform="matrix(1,0,0,1,59,40)"/>
    <path style="stroke-linecap: round; stroke-linejoin: round;" fill="none" stroke="#000000" d="M600.0773815,241.69863538L628.0516332,257.84910335M600.07733261,234.00066002L634.71834876,254.00007333" stroke-width="1.6" stroke-linecap="round" stroke-linejoin="round" transform="matrix(1,0,0,1,59,40)"/>
    <path style="stroke-linecap: round; stroke-linejoin: round;" fill="none" stroke="#000000" d="M773.28165124,254.00007333L807.92266739,234.00066002" stroke-width="1.6" stroke-linecap="round" stroke-linejoin="round" transform="matrix(1,0,0,1,59,40)"/>
    <path style="stroke-linecap: round; stroke-linejoin: round;" fill="none" stroke="#000000" d="M807.9226185,241.69863538L835.89757384,257.84998338M807.92266739,234.00066002L842.56419162,254.00095336" stroke-width="1.6" stroke-linecap="round" stroke-linejoin="round" transform="matrix(1,0,0,1,59,40)"/>
    <path style="stroke-linecap: round; stroke-linejoin: round;" fill="none" stroke="#000000" d="M842.56419162,254.00095336L842.5646997,294.00066001" stroke-width="1.6" stroke-linecap="round" stroke-linejoin="round" transform="matrix(1,0,0,1,59,40)"/>
    <path style="stroke-linecap: round; stroke-linejoin: round;" fill="none" stroke="#000000" d="M835.89798415,290.15162999L807.92373245,306.30209797M842.5646997,294.00066001L807.92368355,314.00007333" stroke-width="1.6" stroke-linecap="round" stroke-linejoin="round" transform="matrix(1,0,0,1,59,40)"/>
    <path style="stroke-linecap: round; stroke-linejoin: round;" fill="none" stroke="#000000" d="M807.92368355,314.00007333L773.28215932,293.99977999" stroke-width="1.6" stroke-linecap="round" stroke-linejoin="round" transform="matrix(1,0,0,1,59,40)"/>
    <path style="stroke-linecap: round; stroke-linejoin: round;" fill="none" stroke="#000000" d="M779.9487771,290.15074997L779.9483668,257.84910335M773.28215932,293.99977999L773.28165124,254.00007333" stroke-width="1.6" stroke-linecap="round" stroke-linejoin="round" transform="matrix(1,0,0,1,59,40)"/>
    <path style="stroke-linecap: round; stroke-linejoin: round;" fill="none" stroke="#000000" d="M704,133.99941332L669.35949193,113.99911998" stroke-width="1.6" stroke-linecap="round" stroke-linejoin="round" transform="matrix(1,0,0,1,59,40)"/>
    <path style="stroke-linecap: round; stroke-linejoin: round;" fill="none" stroke="#000000" d="M676.0261586,110.15017464L676.0261586,77.84747864M669.35949193,113.99911998L669.35949193,73.9985333" stroke-width="1.6" stroke-linecap="round" stroke-linejoin="round" transform="matrix(1,0,0,1,59,40)"/>
    <path style="stroke-linecap: round; stroke-linejoin: round;" fill="none" stroke="#000000" d="M669.35949193,73.9985333L704,53.99823995" stroke-width="1.6" stroke-linecap="round" stroke-linejoin="round" transform="matrix(1,0,0,1,59,40)"/>
    <path style="stroke-linecap: round; stroke-linejoin: round;" fill="none" stroke="#000000" d="M704,61.6963L731.9738414,77.84747864M704,53.99823995L738.64050807,73.9985333" stroke-width="1.6" stroke-linecap="round" stroke-linejoin="round" transform="matrix(1,0,0,1,59,40)"/>
    <path style="stroke-linecap: round; stroke-linejoin: round;" fill="none" stroke="#000000" d="M738.64050807,73.9985333L738.64050807,113.99911998" stroke-width="1.6" stroke-linecap="round" stroke-linejoin="round" transform="matrix(1,0,0,1,59,40)"/>
    <path style="stroke-linecap: round; stroke-linejoin: round;" fill="none" stroke="#000000" d="M731.9738414,110.15017464L704,126.30135327M738.64050807,113.99911998L704,133.99941332" stroke-width="1.6" stroke-linecap="round" stroke-linejoin="round" transform="matrix(1,0,0,1,59,40)"/>
  </g>
</svg>
