<?xml version="1.0"?>
<svg xmlns="http://www.w3.org/2000/svg" height="143.0007040054412" version="1.1" width="306.43721934000007" style="overflow: hidden; position: relative;" viewBox="0 0 326 163">
  <g transform="translate(-261, -195)">
    <defs style="-webkit-tap-highlight-color: rgba(0, 0, 0, 0);"/>
    <text x="69.28121933742415" y="20.000352002720593" text-anchor="middle" font="30px &quot;Arial&quot;" stroke="none" fill="#000000" style="-webkit-tap-highlight-color: rgba(0, 0, 0, 0); text-anchor: middle; font: 24px Arial;" font-size="24px" transform="matrix(1,0,0,1,340.4578,277.5)">
      <tspan dy="8.492539502720593" style="-webkit-tap-highlight-color: rgba(0, 0, 0, 0);">C</tspan>
    </text>
    <text x="69.28121933742415" y="20.000352002720593" text-anchor="middle" font="30px &quot;Arial&quot;" stroke="none" fill="#000000" style="-webkit-tap-highlight-color: rgba(0, 0, 0, 0); text-anchor: middle; font: 24px Arial;" font-size="24px" transform="matrix(1,0,0,1,358.6015,277.5)">
      <tspan dy="8.492539502720593" style="-webkit-tap-highlight-color: rgba(0, 0, 0, 0);">H</tspan>
    </text>
    <text x="69.28121933742415" y="20.000352002720593" text-anchor="middle" font="30px &quot;Arial&quot;" stroke="none" fill="#000000" style="-webkit-tap-highlight-color: rgba(0, 0, 0, 0); text-anchor: middle; font: 17px Arial;" font-size="17px" transform="matrix(1,0,0,1,372.8078,282.9031)">
      <tspan dy="5.492539502720593" style="-webkit-tap-highlight-color: rgba(0, 0, 0, 0);">3</tspan>
    </text>
    <text x="34.64303395380331" y="40.000704005441186" text-anchor="middle" font="30px &quot;Arial&quot;" stroke="none" fill="#000000" style="-webkit-tap-highlight-color: rgba(0, 0, 0, 0); text-anchor: middle; font: 24px Arial;" font-size="24px" transform="matrix(1,0,0,1,340.4578,277.5)">
      <tspan dy="8.492891505441186" style="-webkit-tap-highlight-color: rgba(0, 0, 0, 0);">N</tspan>
    </text>
    <text x="34.64303395380331" y="40.000704005441186" text-anchor="middle" font="30px &quot;Arial&quot;" stroke="none" fill="#000000" style="-webkit-tap-highlight-color: rgba(0, 0, 0, 0); text-anchor: middle; font: 24px Arial;" font-size="24px" transform="matrix(1,0,0,1,358.6015,277.5)">
      <tspan dy="8.492891505441186" style="-webkit-tap-highlight-color: rgba(0, 0, 0, 0);">H</tspan>
    </text>
    <text x="34.64303395380331" y="-40.000704005441186" text-anchor="middle" font="30px &quot;Arial&quot;" stroke="none" fill="#000000" style="-webkit-tap-highlight-color: rgba(0, 0, 0, 0); text-anchor: middle; font: 24px Arial;" font-size="24px" transform="matrix(1,0,0,1,340.4578,277.5)">
      <tspan dy="8.507108494558814" style="-webkit-tap-highlight-color: rgba(0, 0, 0, 0);">N</tspan>
    </text>
    <text x="34.64303395380331" y="-40.000704005441186" text-anchor="middle" font="30px &quot;Arial&quot;" stroke="none" fill="#000000" style="-webkit-tap-highlight-color: rgba(0, 0, 0, 0); text-anchor: middle; font: 24px Arial;" font-size="24px" transform="matrix(1,0,0,1,358.6015,277.5)">
      <tspan dy="8.507108494558814" style="-webkit-tap-highlight-color: rgba(0, 0, 0, 0);">H</tspan>
    </text>
    <text x="69.28121933742415" y="-20.000352002720593" text-anchor="middle" font="30px &quot;Arial&quot;" stroke="none" fill="#000000" style="-webkit-tap-highlight-color: rgba(0, 0, 0, 0); text-anchor: middle; font: 24px Arial;" font-size="24px" transform="matrix(1,0,0,1,340.4578,277.5)">
      <tspan dy="8.507460497279407" style="-webkit-tap-highlight-color: rgba(0, 0, 0, 0);">C</tspan>
    </text>
    <text x="69.28121933742415" y="-20.000352002720593" text-anchor="middle" font="30px &quot;Arial&quot;" stroke="none" fill="#000000" style="-webkit-tap-highlight-color: rgba(0, 0, 0, 0); text-anchor: middle; font: 24px Arial;" font-size="24px" transform="matrix(1,0,0,1,358.6015,277.5)">
      <tspan dy="8.507460497279407" style="-webkit-tap-highlight-color: rgba(0, 0, 0, 0);">H</tspan>
    </text>
    <text x="69.28121933742415" y="-20.000352002720593" text-anchor="middle" font="30px &quot;Arial&quot;" stroke="none" fill="#000000" style="-webkit-tap-highlight-color: rgba(0, 0, 0, 0); text-anchor: middle; font: 17px Arial;" font-size="17px" transform="matrix(1,0,0,1,372.8078,282.9031)">
      <tspan dy="5.507460497279407" style="-webkit-tap-highlight-color: rgba(0, 0, 0, 0);">3</tspan>
    </text>
    <path fill="none" stroke="#000000" d="M57.83816252,26.60766014L60.82288992,24.88425581" stroke-width="1.6" stroke-linecap="round" stroke-linejoin="round" style="-webkit-tap-highlight-color: rgba(0, 0, 0, 0); stroke-linecap: round; stroke-linejoin: round;" transform="matrix(1,0,0,1,340.4578,277.5)"/>
    <path fill="#000000" stroke="#000000" d="M0,20.000352L20.86417835,37.43434912L25.53070275,29.35136322Z" stroke-width="1.6" stroke-linecap="round" stroke-linejoin="round" style="-webkit-tap-highlight-color: rgba(0, 0, 0, 0); stroke-linecap: round; stroke-linejoin: round;" transform="matrix(1,0,0,1,340.4578,277.5)"/>
    <path fill="none" stroke="#000000" d="M0,20.000352L0,-20.000352" stroke-width="1.6" stroke-linecap="round" stroke-linejoin="round" style="-webkit-tap-highlight-color: rgba(0, 0, 0, 0); stroke-linecap: round; stroke-linejoin: round;" transform="matrix(1,0,0,1,340.4578,277.5)"/>
    <path fill="none" stroke="#000000" d="M0.13725072,-19.76261712L-0.13725072,-20.23808688M3.33308308,-20.97371L2.50957877,-22.40011928M6.52891544,-22.18480288L5.15640826,-24.56215168M9.72474779,-23.39589576L7.80323775,-26.72418408M12.92058015,-24.60698865L10.45006723,-28.88621648M16.11641251,-25.81808153L13.09689672,-31.04824888M19.31224487,-27.02917441L15.74372621,-33.21028127M22.50807723,-28.24026729L18.3905557,-35.37231367M25.70390959,-29.45136017L21.03738519,-37.53434607" stroke-width="1.6" stroke-linecap="round" stroke-linejoin="round" style="-webkit-tap-highlight-color: rgba(0, 0, 0, 0); stroke-linecap: round; stroke-linejoin: round;" transform="matrix(1,0,0,1,340.4578,277.5)"/>
    <path fill="none" stroke="#000000" d="M60.82288992,-24.88425581L57.83816252,-26.60766014" stroke-width="1.6" stroke-linecap="round" stroke-linejoin="round" style="-webkit-tap-highlight-color: rgba(0, 0, 0, 0); stroke-linecap: round; stroke-linejoin: round;" transform="matrix(1,0,0,1,340.4578,277.5)"/>
    <path fill="none" stroke="#000000" d="M0,-20.000352L-34.64303395,-40.00070401" stroke-width="1.6" stroke-linecap="round" stroke-linejoin="round" style="-webkit-tap-highlight-color: rgba(0, 0, 0, 0); stroke-linecap: round; stroke-linejoin: round;" transform="matrix(1,0,0,1,340.4578,277.5)"/>
    <path fill="none" stroke="#000000" d="M-34.64303395,-40.00070401L-69.28121934,-20.000352" stroke-width="1.6" stroke-linecap="round" stroke-linejoin="round" style="-webkit-tap-highlight-color: rgba(0, 0, 0, 0); stroke-linecap: round; stroke-linejoin: round;" transform="matrix(1,0,0,1,340.4578,277.5)"/>
    <path fill="none" stroke="#000000" d="M-69.28121934,-20.000352L-69.28121934,20.000352" stroke-width="1.6" stroke-linecap="round" stroke-linejoin="round" style="-webkit-tap-highlight-color: rgba(0, 0, 0, 0); stroke-linecap: round; stroke-linejoin: round;" transform="matrix(1,0,0,1,340.4578,277.5)"/>
    <path fill="none" stroke="#000000" d="M-69.28121934,20.000352L-34.64303395,40.00070401" stroke-width="1.6" stroke-linecap="round" stroke-linejoin="round" style="-webkit-tap-highlight-color: rgba(0, 0, 0, 0); stroke-linecap: round; stroke-linejoin: round;" transform="matrix(1,0,0,1,340.4578,277.5)"/>
    <path fill="none" stroke="#000000" d="M0,20.000352L-34.64303395,40.00070401" stroke-width="1.6" stroke-linecap="round" stroke-linejoin="round" style="-webkit-tap-highlight-color: rgba(0, 0, 0, 0); stroke-linecap: round; stroke-linejoin: round;" transform="matrix(1,0,0,1,340.4578,277.5)"/>
    <text x="57.156000000000006" y="-73" text-anchor="middle" font="30px &quot;Arial&quot;" stroke="none" fill="#000000" style="-webkit-tap-highlight-color: rgba(0, 0, 0, 0); text-anchor: middle; font: 24px Arial;" font-size="24px" transform="matrix(1,0,0,1,340.4578,277.5)">
      <tspan dy="8.5078125" style="-webkit-tap-highlight-color: rgba(0, 0, 0, 0);">Chiral</tspan>
    </text>
  </g>
</svg>
