
<svg xmlns="http://www.w3.org/2000/svg" height="160.45329891817553" version="1.1" width="292.8846028300492" style="overflow:hidden;" viewBox="0 0 312 180">
  <g transform="translate(-657, -208)">
    <defs></defs>
    <text style='font:24px "Arial";' x="-39.508411027931295" y="6.256065085317864" text-anchor="middle" stroke="none" fill="#000000" font-size="24px" transform="matrix(1,0,0,1,762.3576,284.9998)">
      <tspan dy="8.00002641954638">S</tspan>
    </text>
    <text style='font:24px "Arial";' x="6.256065085317864" y="-39.508411027931295" text-anchor="middle" stroke="none" fill="#000000" font-size="24px" transform="matrix(1,0,0,1,762.3576,284.9998)">
      <tspan dy="8.000028036094584">S</tspan>
    </text>
    <text style='font:24px "Arial";' x="-66.92069621315082" y="57.93260270502469" text-anchor="middle" stroke="none" fill="#000000" font-size="24px" transform="matrix(1,0,0,1,762.3576,284.9998)">
      <tspan dy="8.00002843286893">C</tspan>
    </text>
    <text style='font:24px "Arial";' x="-66.92069621315082" y="57.93260270502469" text-anchor="middle" stroke="none" fill="#000000" font-size="24px" transform="matrix(1,0,0,1,733.9492,284.9998)">
      <tspan dy="8.00002843286893">H</tspan>
    </text>
    <text style='font:17px "Arial";' x="-66.92069621315082" y="57.93260270502469" text-anchor="middle" stroke="none" fill="#000000" font-size="17px" transform="matrix(1,0,0,1,748.1409,290.5998)">
      <tspan dy="6.0000217571487156">3</tspan>
    </text>
    <text style='font:24px "Arial";' x="106.92111235968447" y="-17.93218655849104" text-anchor="middle" stroke="none" fill="#000000" font-size="24px" transform="matrix(1,0,0,1,762.3576,284.9998)">
      <tspan dy="8.00002722477312">O</tspan>
    </text>
    <text style='font:24px "Arial";' x="57.93260270502469" y="-66.92069621315082" text-anchor="middle" stroke="none" fill="#000000" font-size="24px" transform="matrix(1,0,0,1,762.3576,284.9998)">
      <tspan dy="8.000020072554747">O</tspan>
    </text>
    <text style='font:24px "Arial";' x="135.20540661689841" y="-46.21648081570499" text-anchor="middle" stroke="none" fill="#000000" font-size="24px" transform="matrix(1,0,0,1,762.3576,284.9998)">
      <tspan dy="8.000027095977138">C</tspan>
    </text>
    <text style='font:24px "Arial";' x="135.20540661689841" y="-46.21648081570499" text-anchor="middle" stroke="none" fill="#000000" font-size="24px" transform="matrix(1,0,0,1,780.516,284.9998)">
      <tspan dy="8.000027095977138">H</tspan>
    </text>
    <text style='font:17px "Arial";' x="135.20540661689841" y="-46.21648081570499" text-anchor="middle" stroke="none" fill="#000000" font-size="17px" transform="matrix(1,0,0,1,794.7077,290.5998)">
      <tspan dy="6.000020420256924">3</tspan>
    </text>
    <path style="stroke-linecap:round;stroke-linejoin:round;" fill="none" stroke="#000000" d="M0,40.00041615L0,0" stroke-width="1.6" stroke-linecap="round" stroke-linejoin="round" transform="matrix(1,0,0,1,762.3576,284.9998)"></path>
    <path style="stroke-linecap:round;stroke-linejoin:round;" fill="none" stroke="#000000" d="M0,40.00041615L40.00041615,40.00041615" stroke-width="1.6" stroke-linecap="round" stroke-linejoin="round" transform="matrix(1,0,0,1,762.3576,284.9998)"></path>
    <path style="stroke-linecap:round;stroke-linejoin:round;" fill="none" stroke="#000000" d="M0,40.00041615L-28.28429426,68.2847104" stroke-width="1.6" stroke-linecap="round" stroke-linejoin="round" transform="matrix(1,0,0,1,762.3576,284.9998)"></path>
    <path style="stroke-linecap:round;stroke-linejoin:round;" fill="none" stroke="#000000" d="M0,0L-28.34776597,4.48880287" stroke-width="1.6" stroke-linecap="round" stroke-linejoin="round" transform="matrix(1,0,0,1,762.3576,284.9998)"></path>
    <path style="stroke-linecap:round;stroke-linejoin:round;" fill="none" stroke="#000000" d="M0,0L3.53871319,-22.34774308" stroke-width="1.6" stroke-linecap="round" stroke-linejoin="round" transform="matrix(1,0,0,1,762.3576,284.9998)"></path>
    <path style="stroke-linecap:round;stroke-linejoin:round;" fill="none" stroke="#000000" d="M40.00041615,40.00041615L40.00041615,0" stroke-width="1.6" stroke-linecap="round" stroke-linejoin="round" transform="matrix(1,0,0,1,762.3576,284.9998)"></path>
    <path style="stroke-linecap:round;stroke-linejoin:round;" fill="none" stroke="#000000" d="M40.00041615,0L0,0" stroke-width="1.6" stroke-linecap="round" stroke-linejoin="round" transform="matrix(1,0,0,1,762.3576,284.9998)"></path>
    <path style="stroke-linecap:round;stroke-linejoin:round;" fill="none" stroke="#000000" d="M-48.0947937,-10.59518373L-57.66859996,-29.3843057" stroke-width="1.6" stroke-linecap="round" stroke-linejoin="round" transform="matrix(1,0,0,1,762.3576,284.9998)"></path>
    <path style="stroke-linecap:round;stroke-linejoin:round;" fill="none" stroke="#000000" d="M-4.59516513,-45.03754517L-29.3843057,-57.66859996" stroke-width="1.6" stroke-linecap="round" stroke-linejoin="round" transform="matrix(1,0,0,1,762.3576,284.9998)"></path>
    <path style="stroke-linecap:round;stroke-linejoin:round;" fill="none" stroke="#000000" d="M-29.3843057,-57.66859996L-57.66859996,-29.3843057" stroke-width="1.6" stroke-linecap="round" stroke-linejoin="round" transform="matrix(1,0,0,1,762.3576,284.9998)"></path>
    <path style="stroke-linecap:round;stroke-linejoin:round;" fill="none" stroke="#000000" d="M-28.28429426,68.2847104L-55.11302622,61.09631012" stroke-width="1.6" stroke-linecap="round" stroke-linejoin="round" transform="matrix(1,0,0,1,762.3576,284.9998)"></path>
    <path style="stroke-linecap:round;stroke-linejoin:round;" fill="none" stroke="#000000" d="M40.00041615,0L68.2847104,-28.28429426" stroke-width="1.6" stroke-linecap="round" stroke-linejoin="round" transform="matrix(1,0,0,1,762.3576,284.9998)"></path>
    <path style="stroke-linecap:round;stroke-linejoin:round;" fill="none" stroke="#000000" d="M68.2847104,-28.28429426L94.49677332,-21.26112221" stroke-width="1.6" stroke-linecap="round" stroke-linejoin="round" transform="matrix(1,0,0,1,762.3576,284.9998)"></path>
    <path style="stroke-linecap:round;stroke-linejoin:round;" fill="none" stroke="#000000" d="M71.50447326,-29.1469867L65.73167398,-50.6923763M65.06494755,-27.42160182L59.29214826,-48.96699142" stroke-width="1.6" stroke-linecap="round" stroke-linejoin="round" transform="matrix(1,0,0,1,762.3576,284.9998)"></path>
    <path style="stroke-linecap:round;stroke-linejoin:round;" fill="none" stroke="#000000" d="M118.51721443,-29.52828863L124.27597748,-35.28705168" stroke-width="1.6" stroke-linecap="round" stroke-linejoin="round" transform="matrix(1,0,0,1,762.3576,284.9998)"></path>
  </g>
</svg>
