<?xml version="1.0"?>
<svg xmlns="http://www.w3.org/2000/svg" height="206.68739871025517" version="1.1" width="466.41688655999997" style="overflow: hidden; position: relative;" viewBox="0 0 486 226">
  <g transform="translate(-190, -163)">
    <defs style="-webkit-tap-highlight-color: rgba(0, 0, 0, 0);"/>
    <text x="41.60492284583157" y="-80.2425676609384" text-anchor="middle" font="30px &quot;Arial&quot;" stroke="none" fill="#000000" style="-webkit-tap-highlight-color: rgba(0, 0, 0, 0); text-anchor: middle; font: 24px Arial;" font-size="24px" transform="matrix(1,0,0,1,357.0642,278.8672)">
      <tspan dy="8.499619839061594" style="-webkit-tap-highlight-color: rgba(0, 0, 0, 0);">C</tspan>
    </text>
    <text x="41.60492284583157" y="-80.2425676609384" text-anchor="middle" font="30px &quot;Arial&quot;" stroke="none" fill="#000000" style="-webkit-tap-highlight-color: rgba(0, 0, 0, 0); text-anchor: middle; font: 24px Arial;" font-size="24px" transform="matrix(1,0,0,1,328.6829,278.8672)">
      <tspan dy="8.499619839061594" style="-webkit-tap-highlight-color: rgba(0, 0, 0, 0);">H</tspan>
    </text>
    <text x="41.60492284583157" y="-80.2425676609384" text-anchor="middle" font="30px &quot;Arial&quot;" stroke="none" fill="#000000" style="-webkit-tap-highlight-color: rgba(0, 0, 0, 0); text-anchor: middle; font: 17px Arial;" font-size="17px" transform="matrix(1,0,0,1,342.8736,284.2703)">
      <tspan dy="5.4996198390615945" style="-webkit-tap-highlight-color: rgba(0, 0, 0, 0);">3</tspan>
    </text>
    <text x="12.800022877636097" y="55.29222003657652" text-anchor="middle" font="30px &quot;Arial&quot;" stroke="none" fill="#000000" style="-webkit-tap-highlight-color: rgba(0, 0, 0, 0); text-anchor: middle; font: 24px Arial;" font-size="24px" transform="matrix(1,0,0,1,357.0642,278.8672)">
      <tspan dy="8.503157536576524" style="-webkit-tap-highlight-color: rgba(0, 0, 0, 0);">N</tspan>
    </text>
    <text x="-58.69101399007005" y="70.48739871025514" text-anchor="middle" font="30px &quot;Arial&quot;" stroke="none" fill="#000000" style="-webkit-tap-highlight-color: rgba(0, 0, 0, 0); text-anchor: middle; font: 24px Arial;" font-size="24px" transform="matrix(1,0,0,1,357.0642,278.8672)">
      <tspan dy="8.495211210255135" style="-webkit-tap-highlight-color: rgba(0, 0, 0, 0);">S</tspan>
    </text>
    <text x="-38.69097824376365" y="8.935773546773987" text-anchor="middle" font="30px &quot;Arial&quot;" stroke="none" fill="#000000" style="-webkit-tap-highlight-color: rgba(0, 0, 0, 0); text-anchor: middle; font: 24px Arial;" font-size="24px" transform="matrix(1,0,0,1,357.0642,278.8672)">
      <tspan dy="8.506086046773987" style="-webkit-tap-highlight-color: rgba(0, 0, 0, 0);">N</tspan>
    </text>
    <text x="93.09592396723131" y="-33.886121171135855" text-anchor="middle" font="30px &quot;Arial&quot;" stroke="none" fill="#000000" style="-webkit-tap-highlight-color: rgba(0, 0, 0, 0); text-anchor: middle; font: 24px Arial;" font-size="24px" transform="matrix(1,0,0,1,357.0642,278.8672)">
      <tspan dy="8.496691328864145" style="-webkit-tap-highlight-color: rgba(0, 0, 0, 0);">C</tspan>
    </text>
    <text x="93.09592396723131" y="-33.886121171135855" text-anchor="middle" font="30px &quot;Arial&quot;" stroke="none" fill="#000000" style="-webkit-tap-highlight-color: rgba(0, 0, 0, 0); text-anchor: middle; font: 24px Arial;" font-size="24px" transform="matrix(1,0,0,1,375.2079,278.8672)">
      <tspan dy="8.496691328864145" style="-webkit-tap-highlight-color: rgba(0, 0, 0, 0);">H</tspan>
    </text>
    <text x="93.09592396723131" y="-33.886121171135855" text-anchor="middle" font="30px &quot;Arial&quot;" stroke="none" fill="#000000" style="-webkit-tap-highlight-color: rgba(0, 0, 0, 0); text-anchor: middle; font: 17px Arial;" font-size="17px" transform="matrix(1,0,0,1,389.4142,284.2703)">
      <tspan dy="5.496691328864145" style="-webkit-tap-highlight-color: rgba(0, 0, 0, 0);">3</tspan>
    </text>
    <path fill="none" stroke="#000000" d="M46.98426452,-63.69107168L53.96858131,-42.20128755" stroke-width="1.6" stroke-linecap="round" stroke-linejoin="round" style="-webkit-tap-highlight-color: rgba(0, 0, 0, 0); stroke-linecap: round; stroke-linejoin: round;" transform="matrix(1,0,0,1,357.0642,278.8672)"/>
    <path fill="#000000" stroke="#000000" d="M27.20004861,-12.47517381L57.43641532,-39.07848351L50.5007473,-45.32409159Z" stroke-width="1.6" stroke-linecap="round" stroke-linejoin="round" style="-webkit-tap-highlight-color: rgba(0, 0, 0, 0); stroke-linecap: round; stroke-linejoin: round;" transform="matrix(1,0,0,1,357.0642,278.8672)"/>
    <path fill="none" stroke="#000000" d="M27.20004861,-12.47517381L39.56370708,25.5661063" stroke-width="1.6" stroke-linecap="round" stroke-linejoin="round" style="-webkit-tap-highlight-color: rgba(0, 0, 0, 0); stroke-linecap: round; stroke-linejoin: round;" transform="matrix(1,0,0,1,357.0642,278.8672)"/>
    <path fill="#000000" stroke="#000000" d="M39.56370708,25.5661063L77.72043338,38.45073306L79.66166609,29.32150929Z" stroke-width="1.6" stroke-linecap="round" stroke-linejoin="round" style="-webkit-tap-highlight-color: rgba(0, 0, 0, 0); stroke-linecap: round; stroke-linejoin: round;" transform="matrix(1,0,0,1,357.0642,278.8672)"/>
    <path fill="none" stroke="#000000" d="M86.22067713,35.48660431L107.83381244,11.48114551M78.69104974,33.88612117L105.45473394,4.16000744" stroke-width="1.6" stroke-linecap="round" stroke-linejoin="round" style="-webkit-tap-highlight-color: rgba(0, 0, 0, 0); stroke-linecap: round; stroke-linejoin: round;" transform="matrix(1,0,0,1,357.0642,278.8672)"/>
    <path fill="none" stroke="#000000" d="M105.45473394,4.16000744L144.5820766,12.47517381" stroke-width="1.6" stroke-linecap="round" stroke-linejoin="round" style="-webkit-tap-highlight-color: rgba(0, 0, 0, 0); stroke-linecap: round; stroke-linejoin: round;" transform="matrix(1,0,0,1,357.0642,278.8672)"/>
    <path fill="none" stroke="#000000" d="M139.43100041,18.19603738L149.41125917,48.91597078M144.5820766,12.47517381L156.94088656,50.51645393" stroke-width="1.6" stroke-linecap="round" stroke-linejoin="round" style="-webkit-tap-highlight-color: rgba(0, 0, 0, 0); stroke-linecap: round; stroke-linejoin: round;" transform="matrix(1,0,0,1,357.0642,278.8672)"/>
    <path fill="none" stroke="#000000" d="M156.94088656,50.51645393L130.17720236,80.24256766" stroke-width="1.6" stroke-linecap="round" stroke-linejoin="round" style="-webkit-tap-highlight-color: rgba(0, 0, 0, 0); stroke-linecap: round; stroke-linejoin: round;" transform="matrix(1,0,0,1,357.0642,278.8672)"/>
    <path fill="none" stroke="#000000" d="M127.79812386,72.92142959L96.20093589,66.20653772M130.17720236,80.24256766L91.0498597,71.92740128" stroke-width="1.6" stroke-linecap="round" stroke-linejoin="round" style="-webkit-tap-highlight-color: rgba(0, 0, 0, 0); stroke-linecap: round; stroke-linejoin: round;" transform="matrix(1,0,0,1,357.0642,278.8672)"/>
    <path fill="none" stroke="#000000" d="M78.69104974,33.88612117L91.0498597,71.92740128" stroke-width="1.6" stroke-linecap="round" stroke-linejoin="round" style="-webkit-tap-highlight-color: rgba(0, 0, 0, 0); stroke-linecap: round; stroke-linejoin: round;" transform="matrix(1,0,0,1,357.0642,278.8672)"/>
    <path fill="none" stroke="#000000" d="M39.56370708,25.5661063L23.60988714,43.28582913" stroke-width="1.6" stroke-linecap="round" stroke-linejoin="round" style="-webkit-tap-highlight-color: rgba(0, 0, 0, 0); stroke-linecap: round; stroke-linejoin: round;" transform="matrix(1,0,0,1,357.0642,278.8672)"/>
    <path fill="none" stroke="#000000" d="M2.38072322,46.26241043L-21.17674477,41.25608359M0.99490154,52.7834489L-26.32731978,46.97705366" stroke-width="1.6" stroke-linecap="round" stroke-linejoin="round" style="-webkit-tap-highlight-color: rgba(0, 0, 0, 0); stroke-linecap: round; stroke-linejoin: round;" transform="matrix(1,0,0,1,357.0642,278.8672)"/>
    <path fill="none" stroke="#000000" d="M-26.32731978,46.97705366L-48.0985218,62.79256805" stroke-width="1.6" stroke-linecap="round" stroke-linejoin="round" style="-webkit-tap-highlight-color: rgba(0, 0, 0, 0); stroke-linecap: round; stroke-linejoin: round;" transform="matrix(1,0,0,1,357.0642,278.8672)"/>
    <path fill="none" stroke="#000000" d="M-69.29196921,62.78526628L-91.0498597,46.97705366" stroke-width="1.6" stroke-linecap="round" stroke-linejoin="round" style="-webkit-tap-highlight-color: rgba(0, 0, 0, 0); stroke-linecap: round; stroke-linejoin: round;" transform="matrix(1,0,0,1,357.0642,278.8672)"/>
    <path fill="none" stroke="#000000" d="M-96.20093589,41.2561901L-127.79812386,47.97108196M-91.0498597,46.97705366L-130.17720236,55.29222004" stroke-width="1.6" stroke-linecap="round" stroke-linejoin="round" style="-webkit-tap-highlight-color: rgba(0, 0, 0, 0); stroke-linecap: round; stroke-linejoin: round;" transform="matrix(1,0,0,1,357.0642,278.8672)"/>
    <path fill="none" stroke="#000000" d="M-130.17720236,55.29222004L-156.94088656,25.5661063" stroke-width="1.6" stroke-linecap="round" stroke-linejoin="round" style="-webkit-tap-highlight-color: rgba(0, 0, 0, 0); stroke-linecap: round; stroke-linejoin: round;" transform="matrix(1,0,0,1,357.0642,278.8672)"/>
    <path fill="none" stroke="#000000" d="M-149.41125917,23.96562316L-139.43100041,-6.75431025M-156.94088656,25.5661063L-144.5820766,-12.47517381" stroke-width="1.6" stroke-linecap="round" stroke-linejoin="round" style="-webkit-tap-highlight-color: rgba(0, 0, 0, 0); stroke-linecap: round; stroke-linejoin: round;" transform="matrix(1,0,0,1,357.0642,278.8672)"/>
    <path fill="none" stroke="#000000" d="M-144.5820766,-12.47517381L-105.45473394,-20.79034019" stroke-width="1.6" stroke-linecap="round" stroke-linejoin="round" style="-webkit-tap-highlight-color: rgba(0, 0, 0, 0); stroke-linecap: round; stroke-linejoin: round;" transform="matrix(1,0,0,1,357.0642,278.8672)"/>
    <path fill="none" stroke="#000000" d="M-107.83381244,-13.46920211L-86.22067713,10.53625669M-105.45473394,-20.79034019L-78.69104974,8.93577355" stroke-width="1.6" stroke-linecap="round" stroke-linejoin="round" style="-webkit-tap-highlight-color: rgba(0, 0, 0, 0); stroke-linecap: round; stroke-linejoin: round;" transform="matrix(1,0,0,1,357.0642,278.8672)"/>
    <path fill="none" stroke="#000000" d="M-91.0498597,46.97705366L-78.69104974,8.93577355" stroke-width="1.6" stroke-linecap="round" stroke-linejoin="round" style="-webkit-tap-highlight-color: rgba(0, 0, 0, 0); stroke-linecap: round; stroke-linejoin: round;" transform="matrix(1,0,0,1,357.0642,278.8672)"/>
    <path fill="none" stroke="#000000" d="M-78.69104974,8.93577355L-50.559375,8.93577355" stroke-width="1.6" stroke-linecap="round" stroke-linejoin="round" style="-webkit-tap-highlight-color: rgba(0, 0, 0, 0); stroke-linecap: round; stroke-linejoin: round;" transform="matrix(1,0,0,1,357.0642,278.8672)"/>
    <path fill="none" stroke="#000000" d="M-26.32731978,46.97705366L-33.30865991,25.49642832" stroke-width="1.6" stroke-linecap="round" stroke-linejoin="round" style="-webkit-tap-highlight-color: rgba(0, 0, 0, 0); stroke-linecap: round; stroke-linejoin: round;" transform="matrix(1,0,0,1,357.0642,278.8672)"/>
    <path fill="none" stroke="#000000" d="M-27.87427366,-3.07603877L-11.92244555,-20.79034019" stroke-width="1.6" stroke-linecap="round" stroke-linejoin="round" style="-webkit-tap-highlight-color: rgba(0, 0, 0, 0); stroke-linecap: round; stroke-linejoin: round;" transform="matrix(1,0,0,1,357.0642,278.8672)"/>
    <path fill="none" stroke="#000000" d="M27.20004861,-12.47517381L-11.92244555,-20.79034019" stroke-width="1.6" stroke-linecap="round" stroke-linejoin="round" style="-webkit-tap-highlight-color: rgba(0, 0, 0, 0); stroke-linecap: round; stroke-linejoin: round;" transform="matrix(1,0,0,1,357.0642,278.8672)"/>
    <path fill="none" stroke="#000000" d="M53.96858131,-42.20128755L81.29177654,-36.39468534" stroke-width="1.6" stroke-linecap="round" stroke-linejoin="round" style="-webkit-tap-highlight-color: rgba(0, 0, 0, 0); stroke-linecap: round; stroke-linejoin: round;" transform="matrix(1,0,0,1,357.0642,278.8672)"/>
    <text x="129.476" y="-106.20000000000002" text-anchor="middle" font="30px &quot;Arial&quot;" stroke="none" fill="#000000" style="-webkit-tap-highlight-color: rgba(0, 0, 0, 0); text-anchor: middle; font: 24px Arial;" font-size="24px" transform="matrix(1,0,0,1,357.0642,278.8672)">
      <tspan dy="8.495312499999983" style="-webkit-tap-highlight-color: rgba(0, 0, 0, 0);">Chiral</tspan>
    </text>
  </g>
</svg>
