<?xml version="1.0"?>
<svg xmlns="http://www.w3.org/2000/svg" height="186.9222273117249" version="1.1" width="274.76791824" style="overflow: hidden; position: relative;" viewBox="0 0 294 206">
  <g transform="translate(-545, -147)">
    <defs style="-webkit-tap-highlight-color: rgba(0, 0, 0, 0);"/>
    <circle cx="761.9185324432937" cy="226.64787822195592" r="24" fill="none" stroke="#00cc00" stroke-width="0.96" transform="matrix(1,0,0,1,40,40)" style="-webkit-tap-highlight-color: rgba(0, 0, 0, 0); display: none;"/>
    <circle cx="654" cy="116.99941331827512" r="24" fill="none" stroke="#00cc00" stroke-width="0.96" transform="matrix(1,0,0,1,40,40)" style="-webkit-tap-highlight-color: rgba(0, 0, 0, 0); display: none;"/>
    <circle cx="619.3594919336263" cy="176.99970665913756" r="24" fill="none" stroke="#00cc00" stroke-width="0.96" transform="matrix(1,0,0,1,40,40)" style="-webkit-tap-highlight-color: rgba(0, 0, 0, 0); display: none;"/>
    <circle cx="688.6405080663737" cy="176.99970665913756" r="24" fill="none" stroke="#00cc00" stroke-width="0.96" transform="matrix(1,0,0,1,40,40)" style="-webkit-tap-highlight-color: rgba(0, 0, 0, 0); display: none;"/>
    <circle cx="654" cy="237.00058668172494" r="24" fill="none" stroke="#00cc00" stroke-width="0.96" transform="matrix(1,0,0,1,40,40)" style="-webkit-tap-highlight-color: rgba(0, 0, 0, 0); display: none;"/>
    <text x="654" y="116.99941331827512" text-anchor="middle" font="30px &quot;Arial&quot;" stroke="none" fill="#000000" style="-webkit-tap-highlight-color: rgba(0, 0, 0, 0); text-anchor: middle; font-style: normal; font-variant: normal; font-weight: normal; font-stretch: normal; font-size: 24px; line-height: normal; font-family: Arial;" font-size="24px" transform="matrix(1,0,0,1,40,40)">
      <tspan dy="8.515038318275117" style="-webkit-tap-highlight-color: rgba(0, 0, 0, 0);">Cl</tspan>
    </text>
    <text x="619.3594919336263" y="176.99970665913756" text-anchor="middle" font="30px &quot;Arial&quot;" stroke="none" fill="#000000" style="-webkit-tap-highlight-color: rgba(0, 0, 0, 0); text-anchor: middle; font-style: normal; font-variant: normal; font-weight: normal; font-stretch: normal; font-size: 24px; line-height: normal; font-family: Arial;" font-size="24px" transform="matrix(1,0,0,1,40,40)">
      <tspan dy="8.515331659137559" style="-webkit-tap-highlight-color: rgba(0, 0, 0, 0);">N</tspan>
    </text>
    <text x="688.6405080663737" y="176.99970665913756" text-anchor="middle" font="30px &quot;Arial&quot;" stroke="none" fill="#000000" style="-webkit-tap-highlight-color: rgba(0, 0, 0, 0); text-anchor: middle; font-style: normal; font-variant: normal; font-weight: normal; font-stretch: normal; font-size: 24px; line-height: normal; font-family: Arial;" font-size="24px" transform="matrix(1,0,0,1,40,40)">
      <tspan dy="8.515331659137559" style="-webkit-tap-highlight-color: rgba(0, 0, 0, 0);">N</tspan>
    </text>
    <text x="654" y="237.00058668172494" text-anchor="middle" font="30px &quot;Arial&quot;" stroke="none" fill="#000000" style="-webkit-tap-highlight-color: rgba(0, 0, 0, 0); text-anchor: middle; font-style: normal; font-variant: normal; font-weight: normal; font-stretch: normal; font-size: 24px; line-height: normal; font-family: Arial;" font-size="24px" transform="matrix(1,0,0,1,40,40)">
      <tspan dy="8.50058668172494" style="-webkit-tap-highlight-color: rgba(0, 0, 0, 0);">N</tspan>
    </text>
    <path fill="none" stroke="#000000" d="M654,156.99941332L677.19748903,170.39288274" stroke-width="1.6" stroke-linecap="round" stroke-linejoin="round" transform="matrix(1,0,0,1,40,40)" style="-webkit-tap-highlight-color: rgba(0, 0, 0, 0); stroke-linecap: round; stroke-linejoin: round;"/>
    <path fill="none" stroke="#000000" d="M681.9738414,193.7L681.9738414,213.151348M688.64050807,193.7L688.64050807,217.00029334" stroke-width="1.6" stroke-linecap="round" stroke-linejoin="round" transform="matrix(1,0,0,1,40,40)" style="-webkit-tap-highlight-color: rgba(0, 0, 0, 0); stroke-linecap: round; stroke-linejoin: round;"/>
    <path fill="none" stroke="#000000" d="M688.64050807,217.00029334L665.42751097,230.40271661" stroke-width="1.6" stroke-linecap="round" stroke-linejoin="round" transform="matrix(1,0,0,1,40,40)" style="-webkit-tap-highlight-color: rgba(0, 0, 0, 0); stroke-linecap: round; stroke-linejoin: round;"/>
    <path fill="none" stroke="#000000" d="M645.8902707,224.62023489L626.0261586,213.151348M642.55686403,230.39369524L619.35949193,217.00029334" stroke-width="1.6" stroke-linecap="round" stroke-linejoin="round" transform="matrix(1,0,0,1,40,40)" style="-webkit-tap-highlight-color: rgba(0, 0, 0, 0); stroke-linecap: round; stroke-linejoin: round;"/>
    <path fill="none" stroke="#000000" d="M619.35949193,217.00029334L619.35949193,193.7" stroke-width="1.6" stroke-linecap="round" stroke-linejoin="round" transform="matrix(1,0,0,1,40,40)" style="-webkit-tap-highlight-color: rgba(0, 0, 0, 0); stroke-linecap: round; stroke-linejoin: round;"/>
    <path fill="none" stroke="#000000" d="M634.12029264,176.17536445L654,164.69747336M630.78688597,170.4019041L654,156.99941332" stroke-width="1.6" stroke-linecap="round" stroke-linejoin="round" transform="matrix(1,0,0,1,40,40)" style="-webkit-tap-highlight-color: rgba(0, 0, 0, 0); stroke-linecap: round; stroke-linejoin: round;"/>
    <path fill="none" stroke="#000000" d="M654,156.99941332L654,133.7" stroke-width="1.6" stroke-linecap="round" stroke-linejoin="round" transform="matrix(1,0,0,1,40,40)" style="-webkit-tap-highlight-color: rgba(0, 0, 0, 0); stroke-linecap: round; stroke-linejoin: round;"/>
    <path fill="none" stroke="#000000" d="M619.35949193,217.00029334L584.71834876,237.00007333" stroke-width="1.6" stroke-linecap="round" stroke-linejoin="round" transform="matrix(1,0,0,1,40,40)" style="-webkit-tap-highlight-color: rgba(0, 0, 0, 0); stroke-linecap: round; stroke-linejoin: round;"/>
    <path fill="none" stroke="#000000" d="M688.64050807,217.00029334L723.28165124,237.00007333" stroke-width="1.6" stroke-linecap="round" stroke-linejoin="round" transform="matrix(1,0,0,1,40,40)" style="-webkit-tap-highlight-color: rgba(0, 0, 0, 0); stroke-linecap: round; stroke-linejoin: round;"/>
    <path fill="none" stroke="#000000" d="M584.71834876,237.00007333L584.71784068,276.99977999" stroke-width="1.6" stroke-linecap="round" stroke-linejoin="round" transform="matrix(1,0,0,1,40,40)" style="-webkit-tap-highlight-color: rgba(0, 0, 0, 0); stroke-linecap: round; stroke-linejoin: round;"/>
    <path fill="none" stroke="#000000" d="M578.0512229,273.15074997L550.07626755,289.30209797M584.71784068,276.99977999L550.07631645,297.00007333" stroke-width="1.6" stroke-linecap="round" stroke-linejoin="round" transform="matrix(1,0,0,1,40,40)" style="-webkit-tap-highlight-color: rgba(0, 0, 0, 0); stroke-linecap: round; stroke-linejoin: round;"/>
    <path fill="none" stroke="#000000" d="M550.07631645,297.00007333L515.4353003,277.00066001" stroke-width="1.6" stroke-linecap="round" stroke-linejoin="round" transform="matrix(1,0,0,1,40,40)" style="-webkit-tap-highlight-color: rgba(0, 0, 0, 0); stroke-linecap: round; stroke-linejoin: round;"/>
    <path fill="none" stroke="#000000" d="M522.10201585,273.15162999L522.10242616,240.84998338M515.4353003,277.00066001L515.43580838,237.00095336" stroke-width="1.6" stroke-linecap="round" stroke-linejoin="round" transform="matrix(1,0,0,1,40,40)" style="-webkit-tap-highlight-color: rgba(0, 0, 0, 0); stroke-linecap: round; stroke-linejoin: round;"/>
    <path fill="none" stroke="#000000" d="M515.43580838,237.00095336L550.07733261,217.00066002" stroke-width="1.6" stroke-linecap="round" stroke-linejoin="round" transform="matrix(1,0,0,1,40,40)" style="-webkit-tap-highlight-color: rgba(0, 0, 0, 0); stroke-linecap: round; stroke-linejoin: round;"/>
    <path fill="none" stroke="#000000" d="M550.0773815,224.69863538L578.0516332,240.84910335M550.07733261,217.00066002L584.71834876,237.00007333" stroke-width="1.6" stroke-linecap="round" stroke-linejoin="round" transform="matrix(1,0,0,1,40,40)" style="-webkit-tap-highlight-color: rgba(0, 0, 0, 0); stroke-linecap: round; stroke-linejoin: round;"/>
    <path fill="none" stroke="#000000" d="M723.28165124,237.00007333L761.91853244,226.64787822" stroke-width="1.6" stroke-linecap="round" stroke-linejoin="round" transform="matrix(1,0,0,1,40,40)" style="-webkit-tap-highlight-color: rgba(0, 0, 0, 0); stroke-linecap: round; stroke-linejoin: round;"/>
    <path fill="none" stroke="#000000" d="M759.92610259,234.08353878L782.76755798,256.92499417M761.91853244,226.64787822L790.20321854,254.93256432" stroke-width="1.6" stroke-linecap="round" stroke-linejoin="round" transform="matrix(1,0,0,1,40,40)" style="-webkit-tap-highlight-color: rgba(0, 0, 0, 0); stroke-linecap: round; stroke-linejoin: round;"/>
    <path fill="none" stroke="#000000" d="M790.20321854,254.93256432L779.85102343,293.56944552" stroke-width="1.6" stroke-linecap="round" stroke-linejoin="round" transform="matrix(1,0,0,1,40,40)" style="-webkit-tap-highlight-color: rgba(0, 0, 0, 0); stroke-linecap: round; stroke-linejoin: round;"/>
    <path fill="none" stroke="#000000" d="M774.40767297,288.12609506L743.20657208,296.48598007M779.85102343,293.56944552L741.21414222,303.92164063" stroke-width="1.6" stroke-linecap="round" stroke-linejoin="round" transform="matrix(1,0,0,1,40,40)" style="-webkit-tap-highlight-color: rgba(0, 0, 0, 0); stroke-linecap: round; stroke-linejoin: round;"/>
    <path fill="none" stroke="#000000" d="M741.21414222,303.92164063L712.92945613,275.63695454" stroke-width="1.6" stroke-linecap="round" stroke-linejoin="round" transform="matrix(1,0,0,1,40,40)" style="-webkit-tap-highlight-color: rgba(0, 0, 0, 0); stroke-linecap: round; stroke-linejoin: round;"/>
    <path fill="none" stroke="#000000" d="M720.36511669,273.64452468L728.7250017,242.44342379M712.92945613,275.63695454L723.28165124,237.00007333" stroke-width="1.6" stroke-linecap="round" stroke-linejoin="round" transform="matrix(1,0,0,1,40,40)" style="-webkit-tap-highlight-color: rgba(0, 0, 0, 0); stroke-linecap: round; stroke-linejoin: round;"/>
  </g>
</svg>
