
<svg xmlns="http://www.w3.org/2000/svg" height="270.001177335124" version="1.1" width="201.59128174901684" style="overflow:hidden;" viewBox="0 0 221 290">
  <g transform="translate(-588, -142)">
    <defs></defs>
    <text style='font:24px "Arial";' x="205.6410087830362" y="149.0007309311048" text-anchor="middle" stroke="none" fill="#000000" font-size="24px" transform="matrix(1,0,0,1,524.1903,63.124)">
      <tspan dy="8.250091015638503">S</tspan>
    </text>
    <text style='font:24px "Arial";' x="136.36066892460033" y="149.0007309311048" text-anchor="middle" stroke="none" fill="#000000" font-size="24px" transform="matrix(1,0,0,1,524.1903,63.124)">
      <tspan dy="8.250091015638503">S</tspan>
    </text>
    <text style='font:24px "Arial";' x="240.2851787318764" y="329.001613935124" text-anchor="middle" stroke="none" fill="#000000" font-size="24px" transform="matrix(1,0,0,1,524.1903,63.124)">
      <tspan dy="8.250089009892065">O</tspan>
    </text>
    <text style='font:24px "Arial";' x="101.71766691098327" y="209.00856340568626" text-anchor="middle" stroke="none" fill="#000000" font-size="24px" transform="matrix(1,0,0,1,524.1903,63.124)">
      <tspan dy="8.25009573143089">C</tspan>
    </text>
    <text style='font:24px "Arial";' x="101.71766691098327" y="209.00856340568626" text-anchor="middle" stroke="none" fill="#000000" font-size="24px" transform="matrix(1,0,0,1,495.8067,63.124)">
      <tspan dy="8.25009573143089">H</tspan>
    </text>
    <text style='font:17px "Arial";' x="101.71766691098327" y="209.00856340568626" text-anchor="middle" stroke="none" fill="#000000" font-size="17px" transform="matrix(1,0,0,1,509.9985,68.624)">
      <tspan dy="5.958408719712139">3</tspan>
    </text>
    <path style="stroke-linecap:round;stroke-linejoin:round;" fill="none" stroke="#000000" d="M171.00083885,89.0004366L205.64100878,109.00053471" stroke-width="1.6" stroke-linecap="round" stroke-linejoin="round" transform="matrix(1,0,0,1,524.1903,63.124)"></path>
    <path style="stroke-linecap:round;stroke-linejoin:round;" fill="none" stroke="#000000" d="M205.64100878,109.00053471L205.64100878,132.05057983" stroke-width="1.6" stroke-linecap="round" stroke-linejoin="round" transform="matrix(1,0,0,1,524.1903,63.124)"></path>
    <path style="stroke-linecap:round;stroke-linejoin:round;" fill="none" stroke="#000000" d="M136.36066892,132.05057983L136.36066892,109.00053471" stroke-width="1.6" stroke-linecap="round" stroke-linejoin="round" transform="matrix(1,0,0,1,524.1903,63.124)"></path>
    <path style="stroke-linecap:round;stroke-linejoin:round;" fill="none" stroke="#000000" d="M136.36066892,109.00053471L171.00083885,89.0004366" stroke-width="1.6" stroke-linecap="round" stroke-linejoin="round" transform="matrix(1,0,0,1,524.1903,63.124)"></path>
    <path style="stroke-linecap:round;stroke-linejoin:round;" fill="none" stroke="#000000" d="M171.00083885,209.00102527L136.36066892,229.0051234" stroke-width="1.6" stroke-linecap="round" stroke-linejoin="round" transform="matrix(1,0,0,1,524.1903,63.124)"></path>
    <path style="stroke-linecap:round;stroke-linejoin:round;" fill="none" stroke="#000000" d="M147.1320188,155.21975511L171.00083885,169.00082904" stroke-width="1.6" stroke-linecap="round" stroke-linejoin="round" transform="matrix(1,0,0,1,524.1903,63.124)"></path>
    <path style="stroke-linecap:round;stroke-linejoin:round;" fill="none" stroke="#000000" d="M194.86965395,155.21975797L171.00083885,169.00082904" stroke-width="1.6" stroke-linecap="round" stroke-linejoin="round" transform="matrix(1,0,0,1,524.1903,63.124)"></path>
    <path style="stroke-linecap:round;stroke-linejoin:round;" fill="none" stroke="#000000" d="M167.66750552,169.00082904L167.66750552,209.00102527M174.33417219,169.00082904L174.33417219,209.00102527" stroke-width="1.6" stroke-linecap="round" stroke-linejoin="round" transform="matrix(1,0,0,1,524.1903,63.124)"></path>
    <path style="stroke-linecap:round;stroke-linejoin:round;" fill="none" stroke="#000000" d="M171.00083885,209.00102527L205.6450088,229.00112338" stroke-width="1.6" stroke-linecap="round" stroke-linejoin="round" transform="matrix(1,0,0,1,524.1903,63.124)"></path>
    <path style="stroke-linecap:round;stroke-linejoin:round;" fill="none" stroke="#000000" d="M205.6450088,229.00112338L240.28517873,209.00102527" stroke-width="1.6" stroke-linecap="round" stroke-linejoin="round" transform="matrix(1,0,0,1,524.1903,63.124)"></path>
    <path style="stroke-linecap:round;stroke-linejoin:round;" fill="none" stroke="#000000" d="M240.28517873,209.00102527L274.92534866,229.00112338" stroke-width="1.6" stroke-linecap="round" stroke-linejoin="round" transform="matrix(1,0,0,1,524.1903,63.124)"></path>
    <path style="stroke-linecap:round;stroke-linejoin:round;" fill="none" stroke="#000000" d="M274.92534866,229.00112338L274.92534866,269.0013196" stroke-width="1.6" stroke-linecap="round" stroke-linejoin="round" transform="matrix(1,0,0,1,524.1903,63.124)"></path>
    <path style="stroke-linecap:round;stroke-linejoin:round;" fill="none" stroke="#000000" d="M274.92534866,269.0013196L240.28517873,289.00141771" stroke-width="1.6" stroke-linecap="round" stroke-linejoin="round" transform="matrix(1,0,0,1,524.1903,63.124)"></path>
    <path style="stroke-linecap:round;stroke-linejoin:round;" fill="none" stroke="#000000" d="M240.28517873,289.00141771L205.6450088,269.0013196" stroke-width="1.6" stroke-linecap="round" stroke-linejoin="round" transform="matrix(1,0,0,1,524.1903,63.124)"></path>
    <path style="stroke-linecap:round;stroke-linejoin:round;" fill="none" stroke="#000000" d="M205.6450088,269.0013196L205.6450088,229.00112338" stroke-width="1.6" stroke-linecap="round" stroke-linejoin="round" transform="matrix(1,0,0,1,524.1903,63.124)"></path>
    <path style="stroke-linecap:round;stroke-linejoin:round;" fill="none" stroke="#000000" d="M236.9518454,289.00141771L236.9518454,312.05146484M243.61851207,289.00141771L243.61851207,312.05146484" stroke-width="1.6" stroke-linecap="round" stroke-linejoin="round" transform="matrix(1,0,0,1,524.1903,63.124)"></path>
    <path style="stroke-linecap:round;stroke-linejoin:round;" fill="none" stroke="#000000" d="M136.36066892,229.0051234L113.15586819,215.61089763" stroke-width="1.6" stroke-linecap="round" stroke-linejoin="round" transform="matrix(1,0,0,1,524.1903,63.124)"></path>
  </g>
</svg>
