
<svg xmlns="http://www.w3.org/2000/svg" height="77.27376240000001" version="1.1" width="77.27376240000001" style="overflow:hidden;" viewBox="0 0 97 97">
  <g transform="translate(-139, -112)">
    <defs></defs>
    <circle cx="123.50546184251982" cy="145.4945381574802" r="19.200000000000003" fill="none" stroke="#00cc00" stroke-width="0.96" transform="matrix(1,0,0,1,40,40)" style="display:none;"></circle>
    <path fill="none" stroke="#000000" d="M176.28468609,149.28468609L137.64780489,159.6368812" stroke-width="1.6" stroke-linecap="round" stroke-linejoin="round" transform="matrix(1,0,0,1,40,40)" style="stroke-linecap:round;stroke-linejoin:round;"></path>
    <path fill="none" stroke="#000000" d="M139.64023475,152.20122065L116.79877935,129.35976525M137.64780489,159.6368812L109.3631188,131.35219511" stroke-width="1.6" stroke-linecap="round" stroke-linejoin="round" transform="matrix(1,0,0,1,40,40)" style="stroke-linecap:round;stroke-linejoin:round;"></path>
    <path fill="none" stroke="#000000" d="M109.3631188,131.35219511L119.71531391,92.71531391" stroke-width="1.6" stroke-linecap="round" stroke-linejoin="round" transform="matrix(1,0,0,1,40,40)" style="stroke-linecap:round;stroke-linejoin:round;"></path>
    <path fill="none" stroke="#000000" d="M125.15866437,98.15866437L156.35976525,89.79877935M119.71531391,92.71531391L158.35219511,82.3631188" stroke-width="1.6" stroke-linecap="round" stroke-linejoin="round" transform="matrix(1,0,0,1,40,40)" style="stroke-linecap:round;stroke-linejoin:round;"></path>
    <path fill="none" stroke="#000000" d="M158.35219511,82.3631188L186.6368812,110.64780489" stroke-width="1.6" stroke-linecap="round" stroke-linejoin="round" transform="matrix(1,0,0,1,40,40)" style="stroke-linecap:round;stroke-linejoin:round;"></path>
    <path fill="none" stroke="#000000" d="M179.20122065,112.64023475L170.84133563,143.84133563M186.6368812,110.64780489L176.28468609,149.28468609" stroke-width="1.6" stroke-linecap="round" stroke-linejoin="round" transform="matrix(1,0,0,1,40,40)" style="stroke-linecap:round;stroke-linejoin:round;"></path>
  </g>
</svg>
