
<svg xmlns="http://www.w3.org/2000/svg" height="257.15281674180574" version="1.1" width="298.6070662254624" style="overflow:hidden;" viewBox="0 0 318 277">
  <g transform="translate(-654, -176)">
    <defs></defs>
    <text style='font:24px "Arial";' x="-97.79236050729577" y="-122.3884511797173" text-anchor="middle" stroke="none" fill="#000000" font-size="24px" transform="matrix(1,0,0,1,827.2921,346.8522)">
      <tspan dy="8.000007072235832">S</tspan>
    </text>
    <text style='font:24px "Arial";' x="-33.072121918943125" y="-122.3884511797173" text-anchor="middle" stroke="none" fill="#000000" font-size="24px" transform="matrix(1,0,0,1,827.2921,346.8522)">
      <tspan dy="8.000007072235832">S</tspan>
    </text>
    <text style='font:24px "Arial";' x="-134.7164966265222" y="-58.87621704462069" text-anchor="middle" stroke="none" fill="#000000" font-size="24px" transform="matrix(1,0,0,1,827.2921,346.8522)">
      <tspan dy="8.000003658504312">C</tspan>
    </text>
    <text style='font:24px "Arial";' x="-134.7164966265222" y="-58.87621704462069" text-anchor="middle" stroke="none" fill="#000000" font-size="24px" transform="matrix(1,0,0,1,798.8838,346.8522)">
      <tspan dy="8.000003658504312">H</tspan>
    </text>
    <text style='font:17px "Arial";' x="-134.7164966265222" y="-58.87621704462069" text-anchor="middle" stroke="none" fill="#000000" font-size="17px" transform="matrix(1,0,0,1,813.0754,352.4522)">
      <tspan dy="6.000003658504312">3</tspan>
    </text>
    <text style='font:24px "Arial";' x="38.49214189961172" y="1.1240041435925276" text-anchor="middle" stroke="none" fill="#000000" font-size="24px" transform="matrix(1,0,0,1,827.2921,346.8522)">
      <tspan dy="7.9999997795788556">O</tspan>
    </text>
    <text style='font:24px "Arial";' x="73.13226959894014" y="-58.87621704462069" text-anchor="middle" stroke="none" fill="#000000" font-size="24px" transform="matrix(1,0,0,1,827.2921,346.8522)">
      <tspan dy="8.000003658504312">O</tspan>
    </text>
    <text style='font:24px "Arial";' x="73.13226959894014" y="21.12407787299693" text-anchor="middle" stroke="none" fill="#000000" font-size="24px" transform="matrix(1,0,0,1,827.2921,346.8522)">
      <tspan dy="7.99999912238658">C</tspan>
    </text>
    <text style='font:24px "Arial";' x="73.13226959894014" y="21.12407787299693" text-anchor="middle" stroke="none" fill="#000000" font-size="24px" transform="matrix(1,0,0,1,845.4504,346.8522)">
      <tspan dy="7.99999912238658">H</tspan>
    </text>
    <text style='font:17px "Arial";' x="73.13226959894014" y="21.12407787299693" text-anchor="middle" stroke="none" fill="#000000" font-size="17px" transform="matrix(1,0,0,1,859.6421,352.4522)">
      <tspan dy="5.99999912238658">3</tspan>
    </text>
    <text style='font:24px "Arial";' x="-65.43224121311945" y="21.12407787299693" text-anchor="middle" stroke="none" fill="#000000" font-size="24px" transform="matrix(1,0,0,1,827.2921,346.8522)">
      <tspan dy="7.99999912238658">O</tspan>
    </text>
    <text style='font:24px "Arial";' x="3.8520142002832882" y="21.12407787299693" text-anchor="middle" stroke="none" fill="#000000" font-size="24px" transform="matrix(1,0,0,1,827.2921,346.8522)">
      <tspan dy="7.99999912238658">O</tspan>
    </text>
    <text style='font:24px "Arial";' x="-65.43224121311945" y="61.12422533180574" text-anchor="middle" stroke="none" fill="#000000" font-size="24px" transform="matrix(1,0,0,1,827.2921,346.8522)">
      <tspan dy="7.999999715350661">C</tspan>
    </text>
    <text style='font:24px "Arial";' x="-65.43224121311945" y="61.12422533180574" text-anchor="middle" stroke="none" fill="#000000" font-size="24px" transform="matrix(1,0,0,1,845.4504,346.8522)">
      <tspan dy="7.999999715350661">H</tspan>
    </text>
    <text style='font:17px "Arial";' x="-65.43224121311945" y="61.12422533180574" text-anchor="middle" stroke="none" fill="#000000" font-size="17px" transform="matrix(1,0,0,1,859.6421,352.4522)">
      <tspan dy="5.999999715350661">3</tspan>
    </text>
    <path style="stroke-linecap:round;stroke-linejoin:round;" fill="none" stroke="#000000" d="M-65.43224121,-98.8763645L-87.20354525,-114.69487193" stroke-width="1.6" stroke-linecap="round" stroke-linejoin="round" transform="matrix(1,0,0,1,827.2921,346.8522)"></path>
    <path style="stroke-linecap:round;stroke-linejoin:round;" fill="none" stroke="#000000" d="M-92.25460892,-139.43182256L-85.43231494,-160.42859141" stroke-width="1.6" stroke-linecap="round" stroke-linejoin="round" transform="matrix(1,0,0,1,827.2921,346.8522)"></path>
    <path style="stroke-linecap:round;stroke-linejoin:round;" fill="none" stroke="#000000" d="M-85.43231494,-160.42859141L-45.43216748,-160.42859141" stroke-width="1.6" stroke-linecap="round" stroke-linejoin="round" transform="matrix(1,0,0,1,827.2921,346.8522)"></path>
    <path style="stroke-linecap:round;stroke-linejoin:round;" fill="none" stroke="#000000" d="M-45.43216748,-160.42859141L-38.6098735,-139.43182256" stroke-width="1.6" stroke-linecap="round" stroke-linejoin="round" transform="matrix(1,0,0,1,827.2921,346.8522)"></path>
    <path style="stroke-linecap:round;stroke-linejoin:round;" fill="none" stroke="#000000" d="M-43.66093382,-114.69487438L-65.43224121,-98.8763645" stroke-width="1.6" stroke-linecap="round" stroke-linejoin="round" transform="matrix(1,0,0,1,827.2921,346.8522)"></path>
    <path style="stroke-linecap:round;stroke-linejoin:round;" fill="none" stroke="#000000" d="M-68.76557455,-98.8763645L-68.76557455,-58.87621704M-62.09890788,-98.8763645L-62.09890788,-58.87621704" stroke-width="1.6" stroke-linecap="round" stroke-linejoin="round" transform="matrix(1,0,0,1,827.2921,346.8522)"></path>
    <path style="stroke-linecap:round;stroke-linejoin:round;" fill="none" stroke="#000000" d="M-65.43224121,-58.87621704L-100.07236891,-38.87614332" stroke-width="1.6" stroke-linecap="round" stroke-linejoin="round" transform="matrix(1,0,0,1,827.2921,346.8522)"></path>
    <path style="stroke-linecap:round;stroke-linejoin:round;" fill="none" stroke="#000000" d="M-100.07236891,-38.87614332L-123.22848928,-52.24418417" stroke-width="1.6" stroke-linecap="round" stroke-linejoin="round" transform="matrix(1,0,0,1,827.2921,346.8522)"></path>
    <path style="stroke-linecap:round;stroke-linejoin:round;" fill="none" stroke="#000000" d="M-65.43224121,-58.87621704L-30.79211351,-38.87614332" stroke-width="1.6" stroke-linecap="round" stroke-linejoin="round" transform="matrix(1,0,0,1,827.2921,346.8522)"></path>
    <path style="stroke-linecap:round;stroke-linejoin:round;" fill="none" stroke="#000000" d="M-30.79211351,-38.87614332L-30.79211351,1.12400414" stroke-width="1.6" stroke-linecap="round" stroke-linejoin="round" transform="matrix(1,0,0,1,827.2921,346.8522)"></path>
    <path style="stroke-linecap:round;stroke-linejoin:round;" fill="none" stroke="#000000" d="M38.4921419,-38.87614332L38.4921419,-16.07599564" stroke-width="1.6" stroke-linecap="round" stroke-linejoin="round" transform="matrix(1,0,0,1,827.2921,346.8522)"></path>
    <path style="stroke-linecap:round;stroke-linejoin:round;" fill="none" stroke="#000000" d="M40.15884523,-35.98941314L62.69438112,-49.00069252M36.82543857,-41.76287349L59.36097445,-54.77415287" stroke-width="1.6" stroke-linecap="round" stroke-linejoin="round" transform="matrix(1,0,0,1,827.2921,346.8522)"></path>
    <path style="stroke-linecap:round;stroke-linejoin:round;" fill="none" stroke="#000000" d="M50.59673475,8.11279909L61.69434572,14.52019573" stroke-width="1.6" stroke-linecap="round" stroke-linejoin="round" transform="matrix(1,0,0,1,827.2921,346.8522)"></path>
    <path style="stroke-linecap:round;stroke-linejoin:round;" fill="none" stroke="#000000" d="M-30.79211351,1.12400414L-53.32765222,14.13528515" stroke-width="1.6" stroke-linecap="round" stroke-linejoin="round" transform="matrix(1,0,0,1,827.2921,346.8522)"></path>
    <path style="stroke-linecap:round;stroke-linejoin:round;" fill="none" stroke="#000000" d="M-32.45867252,4.01081765L-9.91921892,17.02285644M-29.12555451,-1.76280936L-6.58610091,11.24922943" stroke-width="1.6" stroke-linecap="round" stroke-linejoin="round" transform="matrix(1,0,0,1,827.2921,346.8522)"></path>
    <path style="stroke-linecap:round;stroke-linejoin:round;" fill="none" stroke="#000000" d="M-65.43224121,38.3240778L-65.43224121,43.92422562" stroke-width="1.6" stroke-linecap="round" stroke-linejoin="round" transform="matrix(1,0,0,1,827.2921,346.8522)"></path>
    <path style="stroke-linecap:round;stroke-linejoin:round;" fill="none" stroke="#000000" d="M-30.79211351,-38.87614332L3.8520142,-58.87621704" stroke-width="1.6" stroke-linecap="round" stroke-linejoin="round" transform="matrix(1,0,0,1,827.2921,346.8522)"></path>
    <path style="stroke-linecap:round;stroke-linejoin:round;" fill="none" stroke="#000000" d="M3.8520142,-58.87621704L38.4921419,-38.87614332" stroke-width="1.6" stroke-linecap="round" stroke-linejoin="round" transform="matrix(1,0,0,1,827.2921,346.8522)"></path>
  </g>
</svg>
