
<svg xmlns="http://www.w3.org/2000/svg" height="109.99985703268578" version="1.1" width="420.05985370195947" style="overflow:hidden;" viewBox="0 0 440 129">
  <g transform="translate(-301, -267)">
    <defs></defs>
    <text x="60.82389130195101" y="4.775991464851343" text-anchor="middle" stroke="none" fill="#000000" style="font:24px Arial;" font-size="24px" transform="matrix(1,0,0,1,520.3781,316.5)">
      <tspan dy="8.502553964851343">C</tspan>
    </text>
    <text x="60.82389130195101" y="4.775991464851343" text-anchor="middle" stroke="none" fill="#000000" style="font:24px Arial;" font-size="24px" transform="matrix(1,0,0,1,538.5219,316.5)">
      <tspan dy="8.502553964851343">H</tspan>
    </text>
    <text x="60.82389130195101" y="4.775991464851343" text-anchor="middle" stroke="none" fill="#000000" style="font:17px Arial;" font-size="17px" transform="matrix(1,0,0,1,552.7281,321.9031)">
      <tspan dy="5.502553964851343">3</tspan>
    </text>
    <text x="21.047962385299634" y="0.591998942041875" text-anchor="middle" stroke="none" fill="#000000" style="font:24px Arial;" font-size="24px" transform="matrix(1,0,0,1,520.3781,316.5)">
      <tspan dy="8.506061442041876">N</tspan>
    </text>
    <text x="21.047962385299634" y="0.591998942041875" text-anchor="middle" stroke="none" fill="#000000" style="font:17px Arial;" font-size="17px" transform="matrix(1,0,0,1,534.8578,308.3953)">
      <tspan dy="5.506061442041875">+</tspan>
    </text>
    <text x="-42.263924470367904" y="14.05197488779126" text-anchor="middle" stroke="none" fill="#000000" style="font:24px Arial;" font-size="24px" transform="matrix(1,0,0,1,520.3781,316.5)">
      <tspan dy="8.49728738779126">N</tspan>
    </text>
    <text x="-180.82367685097972" y="14.05197488779126" text-anchor="middle" stroke="none" fill="#000000" style="font:24px Arial;" font-size="24px" transform="matrix(1,0,0,1,520.3781,316.5)">
      <tspan dy="8.49728738779126">C</tspan>
    </text>
    <text x="-180.82367685097972" y="14.05197488779126" text-anchor="middle" stroke="none" fill="#000000" style="font:24px Arial;" font-size="24px" transform="matrix(1,0,0,1,491.9656,316.5)">
      <tspan dy="8.49728738779126">H</tspan>
    </text>
    <text x="-180.82367685097972" y="14.05197488779126" text-anchor="middle" stroke="none" fill="#000000" style="font:17px Arial;" font-size="17px" transform="matrix(1,0,0,1,506.1719,321.9031)">
      <tspan dy="5.4972873877912605">3</tspan>
    </text>
    <text x="100.82381981829391" y="0" text-anchor="middle" stroke="none" fill="#000000" style="font:24px Arial;" font-size="24px" transform="matrix(1,0,0,1,520.3781,316.5)">
      <tspan dy="8.5">F</tspan>
    </text>
    <text x="140.82374833463683" y="0" text-anchor="middle" stroke="none" fill="#000000" style="font:24px Arial;" font-size="24px" transform="matrix(1,0,0,1,520.3781,316.5)">
      <tspan dy="8.5">B</tspan>
    </text>
    <text x="140.82374833463683" y="0" text-anchor="middle" stroke="none" fill="#000000" style="font:17px Arial;" font-size="17px" transform="matrix(1,0,0,1,534.1938,308.4)">
      <tspan dy="5.5">–</tspan>
    </text>
    <text x="140.82374833463683" y="39.9999285163429" text-anchor="middle" stroke="none" fill="#000000" style="font:24px Arial;" font-size="24px" transform="matrix(1,0,0,1,520.3781,316.5)">
      <tspan dy="8.507741016342898">F</tspan>
    </text>
    <text x="180.82367685097972" y="0" text-anchor="middle" stroke="none" fill="#000000" style="font:24px Arial;" font-size="24px" transform="matrix(1,0,0,1,520.3781,316.5)">
      <tspan dy="8.5">F</tspan>
    </text>
    <text x="140.82374833463683" y="-39.9999285163429" text-anchor="middle" stroke="none" fill="#000000" style="font:24px Arial;" font-size="24px" transform="matrix(1,0,0,1,520.3781,316.5)">
      <tspan dy="8.492258983657102">F</tspan>
    </text>
    <path fill="none" stroke="#000000" d="M48.97380801,3.52949236L37.66039962,2.33944558" stroke-width="1.6" stroke-linecap="round" stroke-linejoin="round" transform="matrix(1,0,0,1,520.3781,316.5)" style="stroke-linecap:round;stroke-linejoin:round;"></path>
    <path fill="none" stroke="#000000" d="M5.27965313,8.13933374L-7.43339785,22.25629157M10.23358811,12.60060852L-5.71998978,30.31594582" stroke-width="1.6" stroke-linecap="round" stroke-linejoin="round" transform="matrix(1,0,0,1,520.3781,316.5)" style="stroke-linecap:round;stroke-linejoin:round;"></path>
    <path fill="none" stroke="#000000" d="M-5.71998978,30.31594582L-30.67021322,19.21178552" stroke-width="1.6" stroke-linecap="round" stroke-linejoin="round" transform="matrix(1,0,0,1,520.3781,316.5)" style="stroke-linecap:round;stroke-linejoin:round;"></path>
    <path fill="none" stroke="#000000" d="M-53.70868095,20.66056507L-76.89986257,34.05193915" stroke-width="1.6" stroke-linecap="round" stroke-linejoin="round" transform="matrix(1,0,0,1,520.3781,316.5)" style="stroke-linecap:round;stroke-linejoin:round;"></path>
    <path fill="none" stroke="#000000" d="M-76.89986257,34.05193915L-111.54380066,14.05197489" stroke-width="1.6" stroke-linecap="round" stroke-linejoin="round" transform="matrix(1,0,0,1,520.3781,316.5)" style="stroke-linecap:round;stroke-linejoin:round;"></path>
    <path fill="none" stroke="#000000" d="M-111.54380066,14.05197489L-146.18773875,34.05193915" stroke-width="1.6" stroke-linecap="round" stroke-linejoin="round" transform="matrix(1,0,0,1,520.3781,316.5)" style="stroke-linecap:round;stroke-linejoin:round;"></path>
    <path fill="none" stroke="#000000" d="M-146.18773875,34.05193915L-169.38506905,20.65701462" stroke-width="1.6" stroke-linecap="round" stroke-linejoin="round" transform="matrix(1,0,0,1,520.3781,316.5)" style="stroke-linecap:round;stroke-linejoin:round;"></path>
    <path fill="none" stroke="#000000" d="M-40.50892989,-2.63557399L-38.07993195,-25.73195401" stroke-width="1.6" stroke-linecap="round" stroke-linejoin="round" transform="matrix(1,0,0,1,520.3781,316.5)" style="stroke-linecap:round;stroke-linejoin:round;"></path>
    <path fill="none" stroke="#000000" d="M-31.95635531,-20.21833017L-2.30368973,-26.52353815M-38.07993195,-25.73195401L1.04799813,-34.05193915" stroke-width="1.6" stroke-linecap="round" stroke-linejoin="round" transform="matrix(1,0,0,1,520.3781,316.5)" style="stroke-linecap:round;stroke-linejoin:round;"></path>
    <path fill="none" stroke="#000000" d="M11.6555193,-15.67759096L1.04799813,-34.05193915" stroke-width="1.6" stroke-linecap="round" stroke-linejoin="round" transform="matrix(1,0,0,1,520.3781,316.5)" style="stroke-linecap:round;stroke-linejoin:round;"></path>
    <path fill="none" stroke="#000000" d="M111.35625,0L129.6125,0" stroke-width="1.6" stroke-linecap="round" stroke-linejoin="round" transform="matrix(1,0,0,1,520.3781,316.5)" style="stroke-linecap:round;stroke-linejoin:round;"></path>
    <path fill="none" stroke="#000000" d="M140.82374833,16.7L140.82374833,23.3" stroke-width="1.6" stroke-linecap="round" stroke-linejoin="round" transform="matrix(1,0,0,1,520.3781,316.5)" style="stroke-linecap:round;stroke-linejoin:round;"></path>
    <path fill="none" stroke="#000000" d="M163.125,0L170.284375,0" stroke-width="1.6" stroke-linecap="round" stroke-linejoin="round" transform="matrix(1,0,0,1,520.3781,316.5)" style="stroke-linecap:round;stroke-linejoin:round;"></path>
    <path fill="none" stroke="#000000" d="M140.82374833,-16.7L140.82374833,-23.3" stroke-width="1.6" stroke-linecap="round" stroke-linejoin="round" transform="matrix(1,0,0,1,520.3781,316.5)" style="stroke-linecap:round;stroke-linejoin:round;"></path>
  </g>
</svg>
