
<svg xmlns="http://www.w3.org/2000/svg" height="179.91803267200805" version="1.1" width="341.5065905030957" style="overflow:hidden;" viewBox="0 0 361 199">
  <g transform="translate(-626, -267)">
    <defs></defs>
    <circle cx="481.8563206515318" cy="456.6604978600031" r="24" fill="none" stroke="#00cc00" stroke-width="0.96" transform="matrix(1,0,0,1,189.2318,0)" style="display:none;"></circle>
    <circle cx="516.5313398250537" cy="436.6116156286165" r="24" fill="none" stroke="#00cc00" stroke-width="0.96" transform="matrix(1,0,0,1,189.2318,0)" style="display:none;"></circle>
    <circle cx="672.214623107739" cy="386.6676223366514" r="19.200000000000003" fill="none" stroke="#00cc00" stroke-width="0.96" transform="matrix(1,0,0,1,189.2318,0)" style="display:none;"></circle>
    <circle cx="654.8749919461387" cy="396.6793340033088" r="24" fill="none" stroke="#00cc00" stroke-width="0.96" transform="matrix(1,0,0,1,189.2318,0)" style="display:none;"></circle>
    <text x="724.1189515512176" y="276.74246518799197" text-anchor="middle" stroke="none" fill="#000000" style="font:24px Arial;" font-size="24px" transform="matrix(1,0,0,1,189.2318,0)">
      <tspan dy="8.500277687991968">O</tspan>
    </text>
    <text x="758.6836488330957" y="336.61330715304257" text-anchor="middle" stroke="none" fill="#000000" style="font:24px Arial;" font-size="24px" transform="matrix(1,0,0,1,189.2318,0)">
      <tspan dy="8.49611965304257">H</tspan>
    </text>
    <text x="585.6352754907386" y="396.5944710097369" text-anchor="middle" stroke="none" fill="#000000" style="font:24px Arial;" font-size="24px" transform="matrix(1,0,0,1,189.2318,0)">
      <tspan dy="8.492908509736878">N</tspan>
    </text>
    <text x="585.6352754907386" y="396.5944710097369" text-anchor="middle" stroke="none" fill="#000000" style="font:24px Arial;" font-size="24px" transform="matrix(1,0,0,1,171.088,0)">
      <tspan dy="8.492908509736878">H</tspan>
    </text>
    <path fill="none" stroke="#000000" d="M620.19997277,336.61330715L620.19997277,376.65591067M626.86663944,340.46235235L626.86663944,372.80727335" stroke-width="1.6" stroke-linecap="round" stroke-linejoin="round" transform="matrix(1,0,0,1,189.2318,0)" style="stroke-linecap:round;stroke-linejoin:round;"></path>
    <path fill="none" stroke="#000000" d="M620.19997277,376.65591067L654.87499195,396.679334" stroke-width="1.6" stroke-linecap="round" stroke-linejoin="round" transform="matrix(1,0,0,1,189.2318,0)" style="stroke-linecap:round;stroke-linejoin:round;"></path>
    <path fill="none" stroke="#000000" d="M654.87499195,396.679334L689.55425427,376.65591067M654.8751959,388.98108367L682.8875876,372.80703785" stroke-width="1.6" stroke-linecap="round" stroke-linejoin="round" transform="matrix(1,0,0,1,189.2318,0)" style="stroke-linecap:round;stroke-linejoin:round;"></path>
    <path fill="none" stroke="#000000" d="M689.55425427,376.65591067L689.55425427,336.61330715" stroke-width="1.6" stroke-linecap="round" stroke-linejoin="round" transform="matrix(1,0,0,1,189.2318,0)" style="stroke-linecap:round;stroke-linejoin:round;"></path>
    <path fill="none" stroke="#000000" d="M689.55425427,336.61330715L654.87499195,316.59412697M682.8875876,340.46258783L654.87519587,324.29196943" stroke-width="1.6" stroke-linecap="round" stroke-linejoin="round" transform="matrix(1,0,0,1,189.2318,0)" style="stroke-linecap:round;stroke-linejoin:round;"></path>
    <path fill="none" stroke="#000000" d="M654.87499195,316.59412697L620.19997277,336.61330715" stroke-width="1.6" stroke-linecap="round" stroke-linejoin="round" transform="matrix(1,0,0,1,189.2318,0)" style="stroke-linecap:round;stroke-linejoin:round;"></path>
    <path fill="none" stroke="#000000" d="M689.55425427,336.61330715L724.11895155,316.67474681" stroke-width="1.6" stroke-linecap="round" stroke-linejoin="round" transform="matrix(1,0,0,1,189.2318,0)" style="stroke-linecap:round;stroke-linejoin:round;"></path>
    <path fill="none" stroke="#000000" d="M727.45228488,316.67474681L727.45228488,293.45M720.78561822,316.67474681L720.78561822,293.45" stroke-width="1.6" stroke-linecap="round" stroke-linejoin="round" transform="matrix(1,0,0,1,189.2318,0)" style="stroke-linecap:round;stroke-linejoin:round;"></path>
    <path fill="none" stroke="#000000" d="M724.11895155,316.67474681L747.24374049,330.01422425" stroke-width="1.6" stroke-linecap="round" stroke-linejoin="round" transform="matrix(1,0,0,1,189.2318,0)" style="stroke-linecap:round;stroke-linejoin:round;"></path>
    <path fill="none" stroke="#000000" d="M620.19997277,376.65591067L597.08438451,389.99008072" stroke-width="1.6" stroke-linecap="round" stroke-linejoin="round" transform="matrix(1,0,0,1,189.2318,0)" style="stroke-linecap:round;stroke-linejoin:round;"></path>
    <path fill="none" stroke="#000000" d="M559.48050172,381.47675472L551.09603711,376.63045177" stroke-width="1.6" stroke-linecap="round" stroke-linejoin="round" transform="matrix(1,0,0,1,189.2318,0)" style="stroke-linecap:round;stroke-linejoin:round;"></path>
    <path fill="none" stroke="#000000" d="M551.09603711,376.63045177L516.53133983,396.56901211" stroke-width="1.6" stroke-linecap="round" stroke-linejoin="round" transform="matrix(1,0,0,1,189.2318,0)" style="stroke-linecap:round;stroke-linejoin:round;"></path>
    <path fill="none" stroke="#000000" d="M516.53133983,396.56901211L481.85632065,376.52012988" stroke-width="1.6" stroke-linecap="round" stroke-linejoin="round" transform="matrix(1,0,0,1,189.2318,0)" style="stroke-linecap:round;stroke-linejoin:round;"></path>
    <path fill="none" stroke="#000000" d="M481.85632065,376.52012988L447.17705833,396.56901211M481.8561165,384.22082885L453.84372499,400.41543914" stroke-width="1.6" stroke-linecap="round" stroke-linejoin="round" transform="matrix(1,0,0,1,189.2318,0)" style="stroke-linecap:round;stroke-linejoin:round;"></path>
    <path fill="none" stroke="#000000" d="M447.17705833,396.56901211L447.17705833,436.61161563" stroke-width="1.6" stroke-linecap="round" stroke-linejoin="round" transform="matrix(1,0,0,1,189.2318,0)" style="stroke-linecap:round;stroke-linejoin:round;"></path>
    <path fill="none" stroke="#000000" d="M447.17705833,436.61161563L481.85632065,456.66049786M453.84372499,432.7651886L481.8561165,448.95979889" stroke-width="1.6" stroke-linecap="round" stroke-linejoin="round" transform="matrix(1,0,0,1,189.2318,0)" style="stroke-linecap:round;stroke-linejoin:round;"></path>
    <path fill="none" stroke="#000000" d="M481.85632065,456.66049786L516.53133983,436.61161563" stroke-width="1.6" stroke-linecap="round" stroke-linejoin="round" transform="matrix(1,0,0,1,189.2318,0)" style="stroke-linecap:round;stroke-linejoin:round;"></path>
    <path fill="none" stroke="#000000" d="M516.53133983,436.61161563L516.53133983,396.56901211M509.86467316,432.76542417L509.86467316,400.41520357" stroke-width="1.6" stroke-linecap="round" stroke-linejoin="round" transform="matrix(1,0,0,1,189.2318,0)" style="stroke-linecap:round;stroke-linejoin:round;"></path>
  </g>
</svg>
