
<svg xmlns="http://www.w3.org/2000/svg" height="180.00161395000003" version="1.1" width="317.39484586000003" style="overflow:hidden;" viewBox="0 0 337 200">
  <g transform="translate(-657, -215)">
    <defs></defs>
    <circle cx="-89.41280170251562" cy="108.38897184865863" r="24" fill="none" stroke="#00cc00" style="display:none;" stroke-width="0.96" transform="matrix(1,0,0,1,826.1796,117.1143)"></circle>
    <circle cx="-158.6934228937459" cy="148.3853304682378" r="24" fill="none" stroke="#00cc00" style="display:none;" stroke-width="0.96" transform="matrix(1,0,0,1,826.1796,117.1143)"></circle>
    <text style='font:normal normal normal normal 24px "Arial";' x="60.000537983167106" y="180.00161394950135" text-anchor="middle" stroke="none" fill="#000000" font-size="24px" transform="matrix(1,0,0,1,826.1796,117.1143)">
      <tspan dy="7.999996517860723">B</tspan>
    </text>
    <text style='font:normal normal normal normal 17px "Arial";' x="60.000537983167106" y="180.00161394950135" text-anchor="middle" stroke="none" fill="#000000" font-size="17px" transform="matrix(1,0,0,1,839.7046,108.7143)">
      <tspan dy="5.999996517860723">–</tspan>
    </text>
    <text style='font:normal normal normal normal 24px "Arial";' x="20.00017932772237" y="180.00161394950135" text-anchor="middle" stroke="none" fill="#000000" font-size="24px" transform="matrix(1,0,0,1,826.1796,117.1143)">
      <tspan dy="7.999996517860723">F</tspan>
    </text>
    <text style='font:normal normal normal normal 24px "Arial";' x="60.000537983167106" y="220.00197260494605" text-anchor="middle" stroke="none" fill="#000000" font-size="24px" transform="matrix(1,0,0,1,826.1796,117.1143)">
      <tspan dy="8.000004221156985">F</tspan>
    </text>
    <text style='font:normal normal normal normal 24px "Arial";' x="100.00089663861186" y="180.00161394950135" text-anchor="middle" stroke="none" fill="#000000" font-size="24px" transform="matrix(1,0,0,1,826.1796,117.1143)">
      <tspan dy="7.999996517860723">F</tspan>
    </text>
    <text style='font:normal normal normal normal 24px "Arial";' x="60.000537983167106" y="140.0012552940566" text-anchor="middle" stroke="none" fill="#000000" font-size="24px" transform="matrix(1,0,0,1,826.1796,117.1143)">
      <tspan dy="8.000004073353466">F</tspan>
    </text>
    <path style="stroke-linecap:round;stroke-linejoin:round;" fill="none" stroke="#000000" d="M48.80053787,180.00161395L30.53351326,180.00161395" stroke-width="1.6" stroke-linecap="round" stroke-linejoin="round" transform="matrix(1,0,0,1,826.1796,117.1143)"></path>
    <path style="stroke-linecap:round;stroke-linejoin:round;" fill="none" stroke="#000000" d="M60.00053798,197.20161743L60.00053798,202.80196838" stroke-width="1.6" stroke-linecap="round" stroke-linejoin="round" transform="matrix(1,0,0,1,826.1796,117.1143)"></path>
    <path style="stroke-linecap:round;stroke-linejoin:round;" fill="none" stroke="#000000" d="M81.45053911,180.00161395L89.46756439,180.00161395" stroke-width="1.6" stroke-linecap="round" stroke-linejoin="round" transform="matrix(1,0,0,1,826.1796,117.1143)"></path>
    <path style="stroke-linecap:round;stroke-linejoin:round;" fill="none" stroke="#000000" d="M60.00053798,162.80161743L60.00053798,157.20125122" stroke-width="1.6" stroke-linecap="round" stroke-linejoin="round" transform="matrix(1,0,0,1,826.1796,117.1143)"></path>
    <text style='font:normal normal normal normal 24px "Arial";' x="-89.41280170251562" y="148.3853304682378" text-anchor="middle" stroke="none" fill="#000000" font-size="24px" transform="matrix(1,0,0,1,826.1796,117.1143)">
      <tspan dy="7.999991684973651">S</tspan>
    </text>
    <text style='font:normal normal normal normal 17px "Arial";' x="-89.41280170251562" y="148.3853304682378" text-anchor="middle" stroke="none" fill="#000000" font-size="17px" transform="matrix(1,0,0,1,839.9462,108.7143)">
      <tspan dy="5.999985009253436">+</tspan>
    </text>
    <text style='font:normal normal normal normal 24px "Arial";' x="-158.6934228937459" y="148.3853304682378" text-anchor="middle" stroke="none" fill="#000000" font-size="24px" transform="matrix(1,0,0,1,826.1796,117.1143)">
      <tspan dy="7.999991684973651">S</tspan>
    </text>
    <path style="stroke-linecap:round;stroke-linejoin:round;" fill="none" stroke="#000000" d="M-89.4128017,108.38897185L-89.4128017,131.18536072" stroke-width="1.6" stroke-linecap="round" stroke-linejoin="round" transform="matrix(1,0,0,1,826.1796,117.1143)"></path>
    <path style="stroke-linecap:round;stroke-linejoin:round;" fill="none" stroke="#000000" d="M-103.51745603,148.83083528L-124.0531123,160.68744975M-100.18404936,154.60429563L-124.0531123,168.3855098" stroke-width="1.6" stroke-linecap="round" stroke-linejoin="round" transform="matrix(1,0,0,1,826.1796,117.1143)"></path>
    <path style="stroke-linecap:round;stroke-linejoin:round;" fill="none" stroke="#000000" d="M-124.0531123,168.3855098L-147.92216898,154.60429924" stroke-width="1.6" stroke-linecap="round" stroke-linejoin="round" transform="matrix(1,0,0,1,826.1796,117.1143)"></path>
    <path style="stroke-linecap:round;stroke-linejoin:round;" fill="none" stroke="#000000" d="M-124.0531123,168.3855098L-124.0531123,208.38586845" stroke-width="1.6" stroke-linecap="round" stroke-linejoin="round" transform="matrix(1,0,0,1,826.1796,117.1143)"></path>
    <path style="stroke-linecap:round;stroke-linejoin:round;" fill="none" stroke="#000000" d="M-158.69514289,131.18536073L-158.69742293,108.38497181" stroke-width="1.6" stroke-linecap="round" stroke-linejoin="round" transform="matrix(1,0,0,1,826.1796,117.1143)"></path>
    <path style="stroke-linecap:round;stroke-linejoin:round;" fill="none" stroke="#000000" d="M-124.0531123,208.38586845L-89.4128017,228.38604778" stroke-width="1.6" stroke-linecap="round" stroke-linejoin="round" transform="matrix(1,0,0,1,826.1796,117.1143)"></path>
    <path style="stroke-linecap:round;stroke-linejoin:round;" fill="none" stroke="#000000" d="M-89.4128017,228.38604778L-54.77249111,208.38586845" stroke-width="1.6" stroke-linecap="round" stroke-linejoin="round" transform="matrix(1,0,0,1,826.1796,117.1143)"></path>
    <path style="stroke-linecap:round;stroke-linejoin:round;" fill="none" stroke="#000000" d="M-54.77249111,216.0839285L-26.79884718,232.23499312M-54.77249111,208.38586845L-20.13218051,228.38604778" stroke-width="1.6" stroke-linecap="round" stroke-linejoin="round" transform="matrix(1,0,0,1,826.1796,117.1143)"></path>
    <path style="stroke-linecap:round;stroke-linejoin:round;" fill="none" stroke="#000000" d="M-20.13218051,228.38604778L-20.13218051,268.38640643" stroke-width="1.6" stroke-linecap="round" stroke-linejoin="round" transform="matrix(1,0,0,1,826.1796,117.1143)"></path>
    <path style="stroke-linecap:round;stroke-linejoin:round;" fill="none" stroke="#000000" d="M-26.79884718,264.53746109L-54.77249111,280.68852572M-20.13218051,268.38640643L-54.77249111,288.38658576" stroke-width="1.6" stroke-linecap="round" stroke-linejoin="round" transform="matrix(1,0,0,1,826.1796,117.1143)"></path>
    <path style="stroke-linecap:round;stroke-linejoin:round;" fill="none" stroke="#000000" d="M-54.77249111,288.38658576L-89.4128017,268.38640643" stroke-width="1.6" stroke-linecap="round" stroke-linejoin="round" transform="matrix(1,0,0,1,826.1796,117.1143)"></path>
    <path style="stroke-linecap:round;stroke-linejoin:round;" fill="none" stroke="#000000" d="M-82.74613504,264.53746109L-82.74613504,232.23499312M-89.4128017,268.38640643L-89.4128017,228.38604778" stroke-width="1.6" stroke-linecap="round" stroke-linejoin="round" transform="matrix(1,0,0,1,826.1796,117.1143)"></path>
    <path style="stroke-linecap:round;stroke-linejoin:round;" fill="none" stroke="#000000" d="M-158.69742293,108.38497181L-89.4128017,108.38897185" stroke-width="1.6" stroke-linecap="round" stroke-linejoin="round" transform="matrix(1,0,0,1,826.1796,117.1143)"></path>
  </g>
</svg>
