<?xml version="1.0"?>
<svg xmlns="http://www.w3.org/2000/svg" height="184.42908172513725" version="1.1" width="451.10100571" style="overflow: hidden; position: relative;" viewBox="0 0 471 204">
  <g transform="translate(-198, -174)">
    <defs style="-webkit-tap-highlight-color: rgba(0, 0, 0, 0);"/>
    <text x="22.06077341860304" y="39.19060033902602" text-anchor="middle" font="30px &quot;Arial&quot;" stroke="none" fill="#000000" style="-webkit-tap-highlight-color: rgba(0, 0, 0, 0); text-anchor: middle; font: 24px Arial;" font-size="24px" transform="matrix(1,0,0,1,356.337,275.5078)">
      <tspan dy="8.49528783902602" style="-webkit-tap-highlight-color: rgba(0, 0, 0, 0);">N</tspan>
    </text>
    <text x="-30.29841166875833" y="1.149099626419543" text-anchor="middle" font="30px &quot;Arial&quot;" stroke="none" fill="#000000" style="-webkit-tap-highlight-color: rgba(0, 0, 0, 0); text-anchor: middle; font: 24px Arial;" font-size="24px" transform="matrix(1,0,0,1,356.337,275.5078)">
      <tspan dy="8.500662126419543" style="-webkit-tap-highlight-color: rgba(0, 0, 0, 0);">N</tspan>
    </text>
    <text x="-50.29856339441494" y="62.70108172513726" text-anchor="middle" font="30px &quot;Arial&quot;" stroke="none" fill="#000000" style="-webkit-tap-highlight-color: rgba(0, 0, 0, 0); text-anchor: middle; font: 24px Arial;" font-size="24px" transform="matrix(1,0,0,1,356.337,275.5078)">
      <tspan dy="8.505769225137257" style="-webkit-tap-highlight-color: rgba(0, 0, 0, 0);">S</tspan>
    </text>
    <path fill="none" stroke="#000000" d="M-17.93953003,39.19060034L10.190625,39.19060034M-13.09572533,32.52393367L10.190625,32.52393367" stroke-width="1.6" stroke-linecap="round" stroke-linejoin="round" style="-webkit-tap-highlight-color: rgba(0, 0, 0, 0); stroke-linecap: round; stroke-linejoin: round;" transform="matrix(1,0,0,1,356.337,275.5078)"/>
    <path fill="none" stroke="#000000" d="M27.44353828,22.62857168L34.42450358,1.14909963" stroke-width="1.6" stroke-linecap="round" stroke-linejoin="round" style="-webkit-tap-highlight-color: rgba(0, 0, 0, 0); stroke-linecap: round; stroke-linejoin: round;" transform="matrix(1,0,0,1,356.337,275.5078)"/>
    <path fill="none" stroke="#000000" d="M34.4872178,1.3420627L34.36178935,0.95613655M38.088256,0.59839353L37.71197063,-0.55938491M41.6892942,-0.14527564L41.06215192,-2.07490637M45.2903324,-0.88894481L44.41233321,-3.59042783M48.8913706,-1.63261398L47.76251449,-5.10594929M52.4924088,-2.37628315L51.11269578,-6.62147075M56.093447,-3.11995232L54.46287706,-8.13699221M59.6944852,-3.86362149L57.81305835,-9.65251367M63.2955234,-4.60729066L61.16323964,-11.16803513M66.8965616,-5.35095983L64.51342092,-12.68355659M70.4975998,-6.094629L67.86360221,-14.19907805M74.098638,-6.83829817L71.21378349,-15.71459952" stroke-width="1.6" stroke-linecap="round" stroke-linejoin="round" style="-webkit-tap-highlight-color: rgba(0, 0, 0, 0); stroke-linecap: round; stroke-linejoin: round;" transform="matrix(1,0,0,1,356.337,275.5078)"/>
    <path fill="none" stroke="#000000" d="M79.78714236,-13.59370904L86.50208245,-45.1911239M72.46600429,-11.21463053L80.78121889,-50.34220009" stroke-width="1.6" stroke-linecap="round" stroke-linejoin="round" style="-webkit-tap-highlight-color: rgba(0, 0, 0, 0); stroke-linecap: round; stroke-linejoin: round;" transform="matrix(1,0,0,1,356.337,275.5078)"/>
    <path fill="none" stroke="#000000" d="M80.78121889,-50.34220009L118.8227196,-62.70108173" stroke-width="1.6" stroke-linecap="round" stroke-linejoin="round" style="-webkit-tap-highlight-color: rgba(0, 0, 0, 0); stroke-linecap: round; stroke-linejoin: round;" transform="matrix(1,0,0,1,356.337,275.5078)"/>
    <path fill="none" stroke="#000000" d="M117.22223645,-55.17145433L141.22786764,-33.55816382M118.8227196,-62.70108173L148.54900571,-35.93724232" stroke-width="1.6" stroke-linecap="round" stroke-linejoin="round" style="-webkit-tap-highlight-color: rgba(0, 0, 0, 0); stroke-linecap: round; stroke-linejoin: round;" transform="matrix(1,0,0,1,356.337,275.5078)"/>
    <path fill="none" stroke="#000000" d="M148.54900571,-35.93724232L140.23379112,3.19032723" stroke-width="1.6" stroke-linecap="round" stroke-linejoin="round" style="-webkit-tap-highlight-color: rgba(0, 0, 0, 0); stroke-linecap: round; stroke-linejoin: round;" transform="matrix(1,0,0,1,356.337,275.5078)"/>
    <path fill="none" stroke="#000000" d="M134.51292755,-1.96074896L103.79277355,8.01958147M140.23379112,3.19032723L102.19229041,15.54920887" stroke-width="1.6" stroke-linecap="round" stroke-linejoin="round" style="-webkit-tap-highlight-color: rgba(0, 0, 0, 0); stroke-linecap: round; stroke-linejoin: round;" transform="matrix(1,0,0,1,356.337,275.5078)"/>
    <path fill="none" stroke="#000000" d="M72.46600429,-11.21463053L102.19229041,15.54920887" stroke-width="1.6" stroke-linecap="round" stroke-linejoin="round" style="-webkit-tap-highlight-color: rgba(0, 0, 0, 0); stroke-linecap: round; stroke-linejoin: round;" transform="matrix(1,0,0,1,356.337,275.5078)"/>
    <path fill="none" stroke="#000000" d="M34.42450358,1.14909963L2.06062169,-22.36623028" stroke-width="1.6" stroke-linecap="round" stroke-linejoin="round" style="-webkit-tap-highlight-color: rgba(0, 0, 0, 0); stroke-linecap: round; stroke-linejoin: round;" transform="matrix(1,0,0,1,356.337,275.5078)"/>
    <path fill="none" stroke="#000000" d="M2.06062169,-22.36623028L-19.03634025,-7.03505476" stroke-width="1.6" stroke-linecap="round" stroke-linejoin="round" style="-webkit-tap-highlight-color: rgba(0, 0, 0, 0); stroke-linecap: round; stroke-linejoin: round;" transform="matrix(1,0,0,1,356.337,275.5078)"/>
    <path fill="none" stroke="#000000" d="M-17.93953003,39.19060034L-24.92148112,17.69966732" stroke-width="1.6" stroke-linecap="round" stroke-linejoin="round" style="-webkit-tap-highlight-color: rgba(0, 0, 0, 0); stroke-linecap: round; stroke-linejoin: round;" transform="matrix(1,0,0,1,356.337,275.5078)"/>
    <path fill="none" stroke="#000000" d="M-42.16875,1.14909963L-70.29871512,1.14909963" stroke-width="1.6" stroke-linecap="round" stroke-linejoin="round" style="-webkit-tap-highlight-color: rgba(0, 0, 0, 0); stroke-linecap: round; stroke-linejoin: round;" transform="matrix(1,0,0,1,356.337,275.5078)"/>
    <path fill="none" stroke="#000000" d="M-70.29871512,1.14909963L-97.06255452,-28.57718649M-77.82834252,2.74958277L-99.44163303,-21.25604841" stroke-width="1.6" stroke-linecap="round" stroke-linejoin="round" style="-webkit-tap-highlight-color: rgba(0, 0, 0, 0); stroke-linecap: round; stroke-linejoin: round;" transform="matrix(1,0,0,1,356.337,275.5078)"/>
    <path fill="none" stroke="#000000" d="M-97.06255452,-28.57718649L-136.19012408,-20.26197189" stroke-width="1.6" stroke-linecap="round" stroke-linejoin="round" style="-webkit-tap-highlight-color: rgba(0, 0, 0, 0); stroke-linecap: round; stroke-linejoin: round;" transform="matrix(1,0,0,1,356.337,275.5078)"/>
    <path fill="none" stroke="#000000" d="M-136.19012408,-20.26197189L-148.54900571,17.77952882M-131.03904789,-14.54110833L-141.01937832,16.17904568" stroke-width="1.6" stroke-linecap="round" stroke-linejoin="round" style="-webkit-tap-highlight-color: rgba(0, 0, 0, 0); stroke-linecap: round; stroke-linejoin: round;" transform="matrix(1,0,0,1,356.337,275.5078)"/>
    <path fill="none" stroke="#000000" d="M-148.54900571,17.77952882L-121.78516631,47.50581494" stroke-width="1.6" stroke-linecap="round" stroke-linejoin="round" style="-webkit-tap-highlight-color: rgba(0, 0, 0, 0); stroke-linecap: round; stroke-linejoin: round;" transform="matrix(1,0,0,1,356.337,275.5078)"/>
    <path fill="none" stroke="#000000" d="M-121.78516631,47.50581494L-82.65759676,39.19060034M-119.40608781,40.18467686L-87.80867295,33.46973677" stroke-width="1.6" stroke-linecap="round" stroke-linejoin="round" style="-webkit-tap-highlight-color: rgba(0, 0, 0, 0); stroke-linecap: round; stroke-linejoin: round;" transform="matrix(1,0,0,1,356.337,275.5078)"/>
    <path fill="none" stroke="#000000" d="M-70.29871512,1.14909963L-82.65759676,39.19060034" stroke-width="1.6" stroke-linecap="round" stroke-linejoin="round" style="-webkit-tap-highlight-color: rgba(0, 0, 0, 0); stroke-linecap: round; stroke-linejoin: round;" transform="matrix(1,0,0,1,356.337,275.5078)"/>
    <path fill="none" stroke="#000000" d="M-82.65759676,39.19060034L-60.90134421,54.99762291" stroke-width="1.6" stroke-linecap="round" stroke-linejoin="round" style="-webkit-tap-highlight-color: rgba(0, 0, 0, 0); stroke-linecap: round; stroke-linejoin: round;" transform="matrix(1,0,0,1,356.337,275.5078)"/>
    <path fill="none" stroke="#000000" d="M-17.93953003,39.19060034L-39.70803079,55.00652185" stroke-width="1.6" stroke-linecap="round" stroke-linejoin="round" style="-webkit-tap-highlight-color: rgba(0, 0, 0, 0); stroke-linecap: round; stroke-linejoin: round;" transform="matrix(1,0,0,1,356.337,275.5078)"/>
    <text x="122.552" y="-91.72799999999998" text-anchor="middle" font="30px &quot;Arial&quot;" stroke="none" fill="#000000" style="-webkit-tap-highlight-color: rgba(0, 0, 0, 0); text-anchor: middle; font: 24px Arial;" font-size="24px" transform="matrix(1,0,0,1,356.337,275.5078)">
      <tspan dy="8.49856250000002" style="-webkit-tap-highlight-color: rgba(0, 0, 0, 0);">Chiral</tspan>
    </text>
  </g>
</svg>
