<?xml version="1.0"?>
<svg xmlns="http://www.w3.org/2000/svg" height="328.114382759234" version="1.1" width="453.0508751419874" style="overflow: hidden; position: relative;" viewBox="0 0 473 348">
  <g transform="translate(-554, -160)">
    <defs style="-webkit-tap-highlight-color: rgba(0, 0, 0, 0);"/>
    <circle cx="243.81672252459447" cy="369.25134151257623" r="24" fill="none" stroke="#00cc00" stroke-width="0.96" transform="matrix(1,0,0,1,377.1217,64.8)" style="-webkit-tap-highlight-color: rgba(0, 0, 0, 0); display: none;"/>
    <circle cx="229.6745869008635" cy="383.3934771363072" r="19.200000000000003" fill="none" stroke="#00cc00" stroke-width="0.96" transform="matrix(1,0,0,1,377.1217,64.8)" style="-webkit-tap-highlight-color: rgba(0, 0, 0, 0); display: none;"/>
    <circle cx="215.53245127713254" cy="397.53561276003813" r="24" fill="none" stroke="#00cc00" stroke-width="0.96" transform="matrix(1,0,0,1,377.1217,64.8)" style="-webkit-tap-highlight-color: rgba(0, 0, 0, 0); display: none;"/>
    <text x="323.2441696583239" y="246.9985362394808" text-anchor="middle" font="30px &quot;Arial&quot;" stroke="none" fill="#000000" style="-webkit-tap-highlight-color: rgba(0, 0, 0, 0); text-anchor: middle; font-style: normal; font-variant: normal; font-weight: normal; font-stretch: normal; font-size: 24px; line-height: normal; font-family: Arial;" font-size="24px" transform="matrix(1,0,0,1,377.1217,64.8)">
      <tspan dy="8.514161239480813" style="-webkit-tap-highlight-color: rgba(0, 0, 0, 0);">N</tspan>
    </text>
    <text x="402.6368422972065" y="104.82123000080414" text-anchor="middle" font="30px &quot;Arial&quot;" stroke="none" fill="#000000" style="-webkit-tap-highlight-color: rgba(0, 0, 0, 0); text-anchor: middle; font-style: normal; font-variant: normal; font-weight: normal; font-stretch: normal; font-size: 24px; line-height: normal; font-family: Arial;" font-size="24px" transform="matrix(1,0,0,1,377.1217,64.8)">
      <tspan dy="8.508730000804135" style="-webkit-tap-highlight-color: rgba(0, 0, 0, 0);">O</tspan>
    </text>
    <text x="409.9078642101729" y="173.99203097459684" text-anchor="middle" font="30px &quot;Arial&quot;" stroke="none" fill="#000000" style="-webkit-tap-highlight-color: rgba(0, 0, 0, 0); text-anchor: middle; font-style: normal; font-variant: normal; font-weight: normal; font-stretch: normal; font-size: 24px; line-height: normal; font-family: Arial;" font-size="24px" transform="matrix(1,0,0,1,377.1217,64.8)">
      <tspan dy="8.507655974596844" style="-webkit-tap-highlight-color: rgba(0, 0, 0, 0);">N</tspan>
    </text>
    <text x="393.57609197284364" y="210.67145374149393" text-anchor="middle" font="30px &quot;Arial&quot;" stroke="none" fill="#000000" style="-webkit-tap-highlight-color: rgba(0, 0, 0, 0); text-anchor: middle; font-style: normal; font-variant: normal; font-weight: normal; font-stretch: normal; font-size: 24px; line-height: normal; font-family: Arial;" font-size="24px" transform="matrix(1,0,0,1,377.1217,64.8)">
      <tspan dy="8.515203741493934" style="-webkit-tap-highlight-color: rgba(0, 0, 0, 0);">H</tspan>
    </text>
    <text x="590.2139929583093" y="204.46546036864265" text-anchor="middle" font="30px &quot;Arial&quot;" stroke="none" fill="#000000" style="-webkit-tap-highlight-color: rgba(0, 0, 0, 0); text-anchor: middle; font-style: normal; font-variant: normal; font-weight: normal; font-stretch: normal; font-size: 24px; line-height: normal; font-family: Arial;" font-size="24px" transform="matrix(1,0,0,1,377.1217,64.8)">
      <tspan dy="8.512335368642653" style="-webkit-tap-highlight-color: rgba(0, 0, 0, 0);">F</tspan>
    </text>
    <text x="590.2139929583093" y="135.11048152701053" text-anchor="middle" font="30px &quot;Arial&quot;" stroke="none" fill="#000000" style="-webkit-tap-highlight-color: rgba(0, 0, 0, 0); text-anchor: middle; font-style: normal; font-variant: normal; font-weight: normal; font-stretch: normal; font-size: 24px; line-height: normal; font-family: Arial;" font-size="24px" transform="matrix(1,0,0,1,377.1217,64.8)">
      <tspan dy="8.501106527010535" style="-webkit-tap-highlight-color: rgba(0, 0, 0, 0);">F</tspan>
    </text>
    <text x="610.23332641912" y="169.79197481451877" text-anchor="middle" font="30px &quot;Arial&quot;" stroke="none" fill="#000000" style="-webkit-tap-highlight-color: rgba(0, 0, 0, 0); text-anchor: middle; font-style: normal; font-variant: normal; font-weight: normal; font-stretch: normal; font-size: 24px; line-height: normal; font-family: Arial;" font-size="24px" transform="matrix(1,0,0,1,377.1217,64.8)">
      <tspan dy="8.510724814518767" style="-webkit-tap-highlight-color: rgba(0, 0, 0, 0);">F</tspan>
    </text>
    <path fill="none" stroke="#000000" d="M284.09413252,194.58515125L284.09413252,227.03764312M290.76079918,190.73620148L290.76079918,230.88697667" stroke-width="1.6" stroke-linecap="round" stroke-linejoin="round" transform="matrix(1,0,0,1,377.1217,64.8)" style="-webkit-tap-highlight-color: rgba(0, 0, 0, 0); stroke-linecap: round; stroke-linejoin: round;"/>
    <text x="215.53245127713254" y="397.53561276003813" text-anchor="middle" font="30px &quot;Arial&quot;" stroke="none" fill="#000000" style="-webkit-tap-highlight-color: rgba(0, 0, 0, 0); text-anchor: middle; font-style: normal; font-variant: normal; font-weight: normal; font-stretch: normal; font-size: 24px; line-height: normal; font-family: Arial;" font-size="24px" transform="matrix(1,0,0,1,377.1217,64.8)">
      <tspan dy="8.504362760038134" style="-webkit-tap-highlight-color: rgba(0, 0, 0, 0);">C</tspan>
    </text>
    <text x="215.53245127713254" y="397.53561276003813" text-anchor="middle" font="30px &quot;Arial&quot;" stroke="none" fill="#000000" style="-webkit-tap-highlight-color: rgba(0, 0, 0, 0); text-anchor: middle; font-style: normal; font-variant: normal; font-weight: normal; font-stretch: normal; font-size: 24px; line-height: normal; font-family: Arial;" font-size="24px" transform="matrix(1,0,0,1,348.7717,64.8)">
      <tspan dy="8.504362760038134" style="-webkit-tap-highlight-color: rgba(0, 0, 0, 0);">H</tspan>
    </text>
    <text x="215.53245127713254" y="397.53561276003813" text-anchor="middle" font="30px &quot;Arial&quot;" stroke="none" fill="#000000" style="-webkit-tap-highlight-color: rgba(0, 0, 0, 0); text-anchor: middle; font-style: normal; font-variant: normal; font-weight: normal; font-stretch: normal; font-size: 17px; line-height: normal; font-family: Arial;" font-size="17px" transform="matrix(1,0,0,1,362.9467,70.2)">
      <tspan dy="5.504362760038134" style="-webkit-tap-highlight-color: rgba(0, 0, 0, 0);">3</tspan>
    </text>
    <path fill="none" stroke="#000000" d="M255.9832131,170.65681002L290.76079918,190.73620148" stroke-width="1.6" stroke-linecap="round" stroke-linejoin="round" transform="matrix(1,0,0,1,377.1217,64.8)" style="-webkit-tap-highlight-color: rgba(0, 0, 0, 0); stroke-linecap: round; stroke-linejoin: round;"/>
    <path fill="none" stroke="#000000" d="M290.76079918,230.88697667L255.9832131,250.96236426" stroke-width="1.6" stroke-linecap="round" stroke-linejoin="round" transform="matrix(1,0,0,1,377.1217,64.8)" style="-webkit-tap-highlight-color: rgba(0, 0, 0, 0); stroke-linecap: round; stroke-linejoin: round;"/>
    <path fill="none" stroke="#000000" d="M255.98340497,243.26458163L227.87629754,227.03786469M255.9832131,250.96236426L221.20963088,230.88697667" stroke-width="1.6" stroke-linecap="round" stroke-linejoin="round" transform="matrix(1,0,0,1,377.1217,64.8)" style="-webkit-tap-highlight-color: rgba(0, 0, 0, 0); stroke-linecap: round; stroke-linejoin: round;"/>
    <path fill="none" stroke="#000000" d="M221.20963088,230.88697667L221.20963088,190.73620148" stroke-width="1.6" stroke-linecap="round" stroke-linejoin="round" transform="matrix(1,0,0,1,377.1217,64.8)" style="-webkit-tap-highlight-color: rgba(0, 0, 0, 0); stroke-linecap: round; stroke-linejoin: round;"/>
    <path fill="none" stroke="#000000" d="M227.87629754,194.58492967L255.983405,178.35497643M221.20963088,190.73620148L255.9832131,170.65681002" stroke-width="1.6" stroke-linecap="round" stroke-linejoin="round" transform="matrix(1,0,0,1,377.1217,64.8)" style="-webkit-tap-highlight-color: rgba(0, 0, 0, 0); stroke-linecap: round; stroke-linejoin: round;"/>
    <path fill="none" stroke="#000000" d="M290.76079918,190.73620148L330.03873143,182.38413556" stroke-width="1.6" stroke-linecap="round" stroke-linejoin="round" transform="matrix(1,0,0,1,377.1217,64.8)" style="-webkit-tap-highlight-color: rgba(0, 0, 0, 0); stroke-linecap: round; stroke-linejoin: round;"/>
    <path fill="none" stroke="#000000" d="M326.68711735,189.91254319L341.91883793,216.29616771M330.03873143,182.38413556L350.11411903,217.15771778" stroke-width="1.6" stroke-linecap="round" stroke-linejoin="round" transform="matrix(1,0,0,1,377.1217,64.8)" style="-webkit-tap-highlight-color: rgba(0, 0, 0, 0); stroke-linecap: round; stroke-linejoin: round;"/>
    <path fill="none" stroke="#000000" d="M350.11411903,217.15771778L334.0318938,235.01807013" stroke-width="1.6" stroke-linecap="round" stroke-linejoin="round" transform="matrix(1,0,0,1,377.1217,64.8)" style="-webkit-tap-highlight-color: rgba(0, 0, 0, 0); stroke-linecap: round; stroke-linejoin: round;"/>
    <path fill="none" stroke="#000000" d="M311.71137916,241.27834038L290.76079918,230.88697667" stroke-width="1.6" stroke-linecap="round" stroke-linejoin="round" transform="matrix(1,0,0,1,377.1217,64.8)" style="-webkit-tap-highlight-color: rgba(0, 0, 0, 0); stroke-linecap: round; stroke-linejoin: round;"/>
    <path fill="none" stroke="#000000" d="M389.35431685,142.85623629L398.36815896,122.60714172M383.26383101,140.14506925L392.27767313,119.89597468" stroke-width="1.6" stroke-linecap="round" stroke-linejoin="round" transform="matrix(1,0,0,1,377.1217,64.8)" style="-webkit-tap-highlight-color: rgba(0, 0, 0, 0); stroke-linecap: round; stroke-linejoin: round;"/>
    <path fill="none" stroke="#000000" d="M386.30907393,141.50065277L399.35385744,159.46102233" stroke-width="1.6" stroke-linecap="round" stroke-linejoin="round" transform="matrix(1,0,0,1,377.1217,64.8)" style="-webkit-tap-highlight-color: rgba(0, 0, 0, 0); stroke-linecap: round; stroke-linejoin: round;"/>
    <path fill="none" stroke="#000000" d="M402.59867617,190.40768963L400.88850133,194.24856037" stroke-width="1.6" stroke-linecap="round" stroke-linejoin="round" transform="matrix(1,0,0,1,377.1217,64.8)" style="-webkit-tap-highlight-color: rgba(0, 0, 0, 0); stroke-linecap: round; stroke-linejoin: round;"/>
    <path fill="none" stroke="#000000" d="M421.72932216,172.74872745L449.8424306,169.79197481" stroke-width="1.6" stroke-linecap="round" stroke-linejoin="round" transform="matrix(1,0,0,1,377.1217,64.8)" style="-webkit-tap-highlight-color: rgba(0, 0, 0, 0); stroke-linecap: round; stroke-linejoin: round;"/>
    <path fill="none" stroke="#000000" d="M326.42206821,263.64322341L330.77544291,286.44463089" stroke-width="1.6" stroke-linecap="round" stroke-linejoin="round" transform="matrix(1,0,0,1,377.1217,64.8)" style="-webkit-tap-highlight-color: rgba(0, 0, 0, 0); stroke-linecap: round; stroke-linejoin: round;"/>
    <path fill="none" stroke="#000000" d="M330.77544291,286.44463089L300.38609471,312.68196932" stroke-width="1.6" stroke-linecap="round" stroke-linejoin="round" transform="matrix(1,0,0,1,377.1217,64.8)" style="-webkit-tap-highlight-color: rgba(0, 0, 0, 0); stroke-linecap: round; stroke-linejoin: round;"/>
    <path fill="none" stroke="#000000" d="M449.8424306,169.79197481L469.91781819,135.01438873" stroke-width="1.6" stroke-linecap="round" stroke-linejoin="round" transform="matrix(1,0,0,1,377.1217,64.8)" style="-webkit-tap-highlight-color: rgba(0, 0, 0, 0); stroke-linecap: round; stroke-linejoin: round;"/>
    <path fill="none" stroke="#000000" d="M473.76715174,141.68105539L506.22726756,141.68105539M469.91781819,135.01438873L510.07660111,135.01438873" stroke-width="1.6" stroke-linecap="round" stroke-linejoin="round" transform="matrix(1,0,0,1,377.1217,64.8)" style="-webkit-tap-highlight-color: rgba(0, 0, 0, 0); stroke-linecap: round; stroke-linejoin: round;"/>
    <path fill="none" stroke="#000000" d="M510.07660111,135.01438873L530.15198871,169.79197481" stroke-width="1.6" stroke-linecap="round" stroke-linejoin="round" transform="matrix(1,0,0,1,377.1217,64.8)" style="-webkit-tap-highlight-color: rgba(0, 0, 0, 0); stroke-linecap: round; stroke-linejoin: round;"/>
    <path fill="none" stroke="#000000" d="M522.45409529,169.79159103L506.22771073,197.8948865M530.15198871,169.79197481L510.07660111,204.56155317" stroke-width="1.6" stroke-linecap="round" stroke-linejoin="round" transform="matrix(1,0,0,1,377.1217,64.8)" style="-webkit-tap-highlight-color: rgba(0, 0, 0, 0); stroke-linecap: round; stroke-linejoin: round;"/>
    <path fill="none" stroke="#000000" d="M510.07660111,204.56155317L469.91781819,204.56155317" stroke-width="1.6" stroke-linecap="round" stroke-linejoin="round" transform="matrix(1,0,0,1,377.1217,64.8)" style="-webkit-tap-highlight-color: rgba(0, 0, 0, 0); stroke-linecap: round; stroke-linejoin: round;"/>
    <path fill="none" stroke="#000000" d="M473.76670857,197.8948865L457.54032401,169.79159103M469.91781819,204.56155317L449.8424306,169.79197481" stroke-width="1.6" stroke-linecap="round" stroke-linejoin="round" transform="matrix(1,0,0,1,377.1217,64.8)" style="-webkit-tap-highlight-color: rgba(0, 0, 0, 0); stroke-linecap: round; stroke-linejoin: round;"/>
    <path fill="none" stroke="#000000" d="M530.15198871,169.79197481L570.19065563,169.79197481" stroke-width="1.6" stroke-linecap="round" stroke-linejoin="round" transform="matrix(1,0,0,1,377.1217,64.8)" style="-webkit-tap-highlight-color: rgba(0, 0, 0, 0); stroke-linecap: round; stroke-linejoin: round;"/>
    <path fill="none" stroke="#000000" d="M570.19065563,169.79197481L581.27472482,188.98574389" stroke-width="1.6" stroke-linecap="round" stroke-linejoin="round" transform="matrix(1,0,0,1,377.1217,64.8)" style="-webkit-tap-highlight-color: rgba(0, 0, 0, 0); stroke-linecap: round; stroke-linejoin: round;"/>
    <path fill="none" stroke="#000000" d="M570.19065563,169.79197481L581.27500193,150.59329303" stroke-width="1.6" stroke-linecap="round" stroke-linejoin="round" transform="matrix(1,0,0,1,377.1217,64.8)" style="-webkit-tap-highlight-color: rgba(0, 0, 0, 0); stroke-linecap: round; stroke-linejoin: round;"/>
    <path fill="none" stroke="#000000" d="M570.19065563,169.79197481L599.70625,169.79197481" stroke-width="1.6" stroke-linecap="round" stroke-linejoin="round" transform="matrix(1,0,0,1,377.1217,64.8)" style="-webkit-tap-highlight-color: rgba(0, 0, 0, 0); stroke-linecap: round; stroke-linejoin: round;"/>
    <path fill="none" stroke="#000000" d="M330.03873143,182.38413556L346.32245727,145.8008056" stroke-width="1.6" stroke-linecap="round" stroke-linejoin="round" transform="matrix(1,0,0,1,377.1217,64.8)" style="-webkit-tap-highlight-color: rgba(0, 0, 0, 0); stroke-linecap: round; stroke-linejoin: round;"/>
    <path fill="none" stroke="#000000" d="M346.32245727,145.8008056L386.30907393,141.50065277" stroke-width="1.6" stroke-linecap="round" stroke-linejoin="round" transform="matrix(1,0,0,1,377.1217,64.8)" style="-webkit-tap-highlight-color: rgba(0, 0, 0, 0); stroke-linecap: round; stroke-linejoin: round;"/>
    <path fill="none" stroke="#000000" d="M300.38609471,312.68196932L310.73828982,351.31885053" stroke-width="1.6" stroke-linecap="round" stroke-linejoin="round" transform="matrix(1,0,0,1,377.1217,64.8)" style="-webkit-tap-highlight-color: rgba(0, 0, 0, 0); stroke-linecap: round; stroke-linejoin: round;"/>
    <path fill="none" stroke="#000000" d="M303.30262926,349.32642067L280.46117387,372.16787606M310.73828982,351.31885053L282.45360373,379.60353662" stroke-width="1.6" stroke-linecap="round" stroke-linejoin="round" transform="matrix(1,0,0,1,377.1217,64.8)" style="-webkit-tap-highlight-color: rgba(0, 0, 0, 0); stroke-linecap: round; stroke-linejoin: round;"/>
    <path fill="none" stroke="#000000" d="M282.45360373,379.60353662L243.81672252,369.25134151" stroke-width="1.6" stroke-linecap="round" stroke-linejoin="round" transform="matrix(1,0,0,1,377.1217,64.8)" style="-webkit-tap-highlight-color: rgba(0, 0, 0, 0); stroke-linecap: round; stroke-linejoin: round;"/>
    <path fill="none" stroke="#000000" d="M249.26007298,363.80799105L240.90018797,332.60689017M243.81672252,369.25134151L233.46452741,330.61446031" stroke-width="1.6" stroke-linecap="round" stroke-linejoin="round" transform="matrix(1,0,0,1,377.1217,64.8)" style="-webkit-tap-highlight-color: rgba(0, 0, 0, 0); stroke-linecap: round; stroke-linejoin: round;"/>
    <path fill="none" stroke="#000000" d="M233.46452741,330.61446031L261.74921351,302.32977421" stroke-width="1.6" stroke-linecap="round" stroke-linejoin="round" transform="matrix(1,0,0,1,377.1217,64.8)" style="-webkit-tap-highlight-color: rgba(0, 0, 0, 0); stroke-linecap: round; stroke-linejoin: round;"/>
    <path fill="none" stroke="#000000" d="M263.74164337,309.76543477L294.94274425,318.12531978M261.74921351,302.32977421L300.38609471,312.68196932" stroke-width="1.6" stroke-linecap="round" stroke-linejoin="round" transform="matrix(1,0,0,1,377.1217,64.8)" style="-webkit-tap-highlight-color: rgba(0, 0, 0, 0); stroke-linecap: round; stroke-linejoin: round;"/>
    <path fill="none" stroke="#000000" d="M243.81672252,369.25134151L226.4346167,386.63344734" stroke-width="1.6" stroke-linecap="round" stroke-linejoin="round" transform="matrix(1,0,0,1,377.1217,64.8)" style="-webkit-tap-highlight-color: rgba(0, 0, 0, 0); stroke-linecap: round; stroke-linejoin: round;"/>
  </g>
</svg>
