
<svg xmlns="http://www.w3.org/2000/svg" height="210.92448036913837" version="1.1" width="236.76268711061743" style="overflow:hidden;" viewBox="0 0 256 230">
  <g transform="translate(-305, -151)">
    <defs></defs>
    <circle cx="310" cy="267.00058668172494" r="24" fill="none" stroke="#00cc00" stroke-width="0.96" transform="matrix(1,0,0,1,40,40)" style="display:none;"></circle>
    <circle cx="456.08701495896804" cy="121.41577097306597" r="24" fill="none" stroke="#00cc00" stroke-width="0.96" transform="matrix(1,0,0,1,40,40)" style="display:none;"></circle>
    <circle cx="463.32997904061745" cy="190.3181618699858" r="24" fill="none" stroke="#00cc00" stroke-width="0.96" transform="matrix(1,0,0,1,40,40)" style="display:none;"></circle>
    <circle cx="275.3594919336262" cy="206.99970665913756" r="24" fill="none" stroke="#00cc00" stroke-width="0.96" transform="matrix(1,0,0,1,40,40)" style="display:none;"></circle>
    <circle cx="384.50277287822644" cy="302.34025134220434" r="24" fill="none" stroke="#00cc00" stroke-width="0.96" transform="matrix(1,0,0,1,40,40)" style="display:none;"></circle>
    <text x="456.08701495896804" y="121.41577097306597" text-anchor="middle" stroke="none" fill="#000000" style="font-style:normal;font-variant:normal;font-weight:normal;font-size:24px;line-height:normal;font-family:Arial;" font-size="24px" transform="matrix(1,0,0,1,40,40)">
      <tspan dy="8.509520973065975">O</tspan>
    </text>
    <text x="463.32997904061745" y="190.3181618699858" text-anchor="middle" stroke="none" fill="#000000" style="font-style:normal;font-variant:normal;font-weight:normal;font-size:24px;line-height:normal;font-family:Arial;" font-size="24px" transform="matrix(1,0,0,1,40,40)">
      <tspan dy="8.5056618699858">O</tspan>
    </text>
    <text x="463.32997904061745" y="190.3181618699858" text-anchor="middle" stroke="none" fill="#000000" style="font-style:normal;font-variant:normal;font-weight:normal;font-size:24px;line-height:normal;font-family:Arial;" font-size="24px" transform="matrix(1,0,0,1,58.7922,40)">
      <tspan dy="8.5056618699858">H</tspan>
    </text>
    <path fill="none" stroke="#000000" d="M337.9738414,210.848652L337.9738414,243.151348M344.64050807,206.99970666L344.64050807,247.00029334" stroke-width="1.6" stroke-linecap="round" stroke-linejoin="round" transform="matrix(1,0,0,1,40,40)" style="stroke-linecap:round;stroke-linejoin:round;"></path>
    <text x="377.00114708435297" y="263.0499776036734" text-anchor="middle" stroke="none" fill="#000000" style="font-style:normal;font-variant:normal;font-weight:normal;font-size:24px;line-height:normal;font-family:Arial;" font-size="24px" transform="matrix(1,0,0,1,40,40)">
      <tspan dy="8.503102603673426">N</tspan>
    </text>
    <text x="384.50277287822644" y="302.34025134220434" text-anchor="middle" stroke="none" fill="#000000" style="font-style:normal;font-variant:normal;font-weight:normal;font-size:24px;line-height:normal;font-family:Arial;" font-size="24px" transform="matrix(1,0,0,1,40,40)">
      <tspan dy="8.51212634220434">H</tspan>
    </text>
    <path fill="none" stroke="#000000" d="M310,186.99941332L344.64050807,206.99970666" stroke-width="1.6" stroke-linecap="round" stroke-linejoin="round" transform="matrix(1,0,0,1,40,40)" style="stroke-linecap:round;stroke-linejoin:round;"></path>
    <path fill="none" stroke="#000000" d="M344.64050807,247.00029334L310,267.00058668" stroke-width="1.6" stroke-linecap="round" stroke-linejoin="round" transform="matrix(1,0,0,1,40,40)" style="stroke-linecap:round;stroke-linejoin:round;"></path>
    <path fill="none" stroke="#000000" d="M310,259.30252664L282.0261586,243.151348M310,267.00058668L275.35949193,247.00029334" stroke-width="1.6" stroke-linecap="round" stroke-linejoin="round" transform="matrix(1,0,0,1,40,40)" style="stroke-linecap:round;stroke-linejoin:round;"></path>
    <path fill="none" stroke="#000000" d="M275.35949193,247.00029334L275.35949193,206.99970666" stroke-width="1.6" stroke-linecap="round" stroke-linejoin="round" transform="matrix(1,0,0,1,40,40)" style="stroke-linecap:round;stroke-linejoin:round;"></path>
    <path fill="none" stroke="#000000" d="M282.0261586,210.848652L310,194.69747336M275.35949193,206.99970666L310,186.99941332" stroke-width="1.6" stroke-linecap="round" stroke-linejoin="round" transform="matrix(1,0,0,1,40,40)" style="stroke-linecap:round;stroke-linejoin:round;"></path>
    <path fill="none" stroke="#000000" d="M344.64050807,206.99970666L383.76835118,198.68161639" stroke-width="1.6" stroke-linecap="round" stroke-linejoin="round" transform="matrix(1,0,0,1,40,40)" style="stroke-linecap:round;stroke-linejoin:round;"></path>
    <path fill="none" stroke="#000000" d="M380.41673228,206.20977552L395.57335963,232.46182415M383.76835118,198.68161639L403.76874612,233.32331661" stroke-width="1.6" stroke-linecap="round" stroke-linejoin="round" transform="matrix(1,0,0,1,40,40)" style="stroke-linecap:round;stroke-linejoin:round;"></path>
    <path fill="none" stroke="#000000" d="M403.76874612,233.32331661L387.79753833,251.06008407" stroke-width="1.6" stroke-linecap="round" stroke-linejoin="round" transform="matrix(1,0,0,1,40,40)" style="stroke-linecap:round;stroke-linejoin:round;"></path>
    <path fill="none" stroke="#000000" d="M365.46134385,257.32666051L344.64050807,247.00029334" stroke-width="1.6" stroke-linecap="round" stroke-linejoin="round" transform="matrix(1,0,0,1,40,40)" style="stroke-linecap:round;stroke-linejoin:round;"></path>
    <path fill="none" stroke="#000000" d="M383.76835118,198.68161639L400.0372761,162.13955731" stroke-width="1.6" stroke-linecap="round" stroke-linejoin="round" transform="matrix(1,0,0,1,40,40)" style="stroke-linecap:round;stroke-linejoin:round;"></path>
    <path fill="none" stroke="#000000" d="M400.0372761,162.13955731L439.81809003,157.95783005" stroke-width="1.6" stroke-linecap="round" stroke-linejoin="round" transform="matrix(1,0,0,1,40,40)" style="stroke-linecap:round;stroke-linejoin:round;"></path>
    <path fill="none" stroke="#000000" d="M442.86326162,159.3135738L451.81760712,139.20098347M436.77291844,156.60208631L445.72726394,136.48949598" stroke-width="1.6" stroke-linecap="round" stroke-linejoin="round" transform="matrix(1,0,0,1,40,40)" style="stroke-linecap:round;stroke-linejoin:round;"></path>
    <path fill="none" stroke="#000000" d="M439.81809003,157.95783005L452.10342388,174.8666152" stroke-width="1.6" stroke-linecap="round" stroke-linejoin="round" transform="matrix(1,0,0,1,40,40)" style="stroke-linecap:round;stroke-linejoin:round;"></path>
    <path fill="none" stroke="#000000" d="M380.17821704,279.6900969L381.32577854,285.7005281" stroke-width="1.6" stroke-linecap="round" stroke-linejoin="round" transform="matrix(1,0,0,1,40,40)" style="stroke-linecap:round;stroke-linejoin:round;"></path>
  </g>
</svg>
