
<svg xmlns="http://www.w3.org/2000/svg" height="110.05281696035718" version="1.1" width="456.159913455642" style="overflow:hidden;" viewBox="0 0 476 130">
  <g transform="translate(-1572, -267)">
    <defs></defs>
    <circle cx="1855.545067066406" cy="351.3653524003572" r="19.200000000000003" fill="none" stroke="#00cc00" stroke-width="0.96" transform="matrix(1,0,0,1,0,0.7516)" style="display:none;"></circle>
    <circle cx="1825.5414682389805" cy="334.0435996898151" r="19.200000000000003" fill="none" stroke="#00cc00" stroke-width="0.96" transform="matrix(1,0,0,1,0,0.7516)" style="display:none;"></circle>
    <circle cx="1763.9190998100917" cy="332.9053494199227" r="19.200000000000003" fill="none" stroke="#00cc00" stroke-width="0.96" transform="matrix(1,0,0,1,0,0.7516)" style="display:none;"></circle>
    <circle cx="1679.4596579960607" cy="356.72805851363074" r="24" fill="none" stroke="#00cc00" stroke-width="0.96" transform="matrix(1,0,0,1,0,0.7516)" style="display:none;"></circle>
    <text x="1955.5648351956706" y="351.3653524003572" text-anchor="middle" stroke="none" fill="#000000" style="font:24px Arial;" font-size="24px" transform="matrix(1,0,0,1,0,0.7516)">
      <tspan dy="8.49816490035721">C</tspan>
    </text>
    <text x="1955.5648351956706" y="351.3653524003572" text-anchor="middle" stroke="none" fill="#000000" style="font:24px Arial;" font-size="24px" transform="matrix(1,0,0,1,18.1438,0.7516)">
      <tspan dy="8.49816490035721">H</tspan>
    </text>
    <text x="1955.5648351956706" y="351.3653524003572" text-anchor="middle" stroke="none" fill="#000000" style="font:17px Arial;" font-size="17px" transform="matrix(1,0,0,1,32.35,6.1547)">
      <tspan dy="5.49816490035721">3</tspan>
    </text>
    <text x="1955.5648351956706" y="282.07834155818887" text-anchor="middle" stroke="none" fill="#000000" style="font:24px Arial;" font-size="24px" transform="matrix(1,0,0,1,0,0.7516)">
      <tspan dy="8.492404058188868">C</tspan>
    </text>
    <text x="1955.5648351956706" y="282.07834155818887" text-anchor="middle" stroke="none" fill="#000000" style="font:24px Arial;" font-size="24px" transform="matrix(1,0,0,1,18.1438,0.7516)">
      <tspan dy="8.492404058188868">H</tspan>
    </text>
    <text x="1955.5648351956706" y="282.07834155818887" text-anchor="middle" stroke="none" fill="#000000" style="font:17px Arial;" font-size="17px" transform="matrix(1,0,0,1,32.35,6.1547)">
      <tspan dy="5.492404058188868">3</tspan>
    </text>
    <text x="1975.5658213161644" y="316.72184697927304" text-anchor="middle" stroke="none" fill="#000000" style="font:24px Arial;" font-size="24px" transform="matrix(1,0,0,1,0,0.7516)">
      <tspan dy="8.495284479273039">C</tspan>
    </text>
    <text x="1975.5658213161644" y="316.72184697927304" text-anchor="middle" stroke="none" fill="#000000" style="font:24px Arial;" font-size="24px" transform="matrix(1,0,0,1,18.1438,0.7516)">
      <tspan dy="8.495284479273039">H</tspan>
    </text>
    <text x="1975.5658213161644" y="316.72184697927304" text-anchor="middle" stroke="none" fill="#000000" style="font:17px Arial;" font-size="17px" transform="matrix(1,0,0,1,32.35,6.1547)">
      <tspan dy="5.495284479273039">3</tspan>
    </text>
    <text x="1610.1684078605222" y="276.7156354449153" text-anchor="middle" stroke="none" fill="#000000" style="font:24px Arial;" font-size="24px" transform="matrix(1,0,0,1,0,0.7516)">
      <tspan dy="8.504697944915279">C</tspan>
    </text>
    <text x="1610.1684078605222" y="276.7156354449153" text-anchor="middle" stroke="none" fill="#000000" style="font:24px Arial;" font-size="24px" transform="matrix(1,0,0,1,-28.4125,0.7516)">
      <tspan dy="8.504697944915279">H</tspan>
    </text>
    <text x="1610.1684078605222" y="276.7156354449153" text-anchor="middle" stroke="none" fill="#000000" style="font:17px Arial;" font-size="17px" transform="matrix(1,0,0,1,-14.2063,6.1547)">
      <tspan dy="5.504697944915279">3</tspan>
    </text>
    <text x="1752.1677785879617" y="349.08885186057233" text-anchor="middle" stroke="none" fill="#000000" style="font:24px Arial;" font-size="24px" transform="matrix(1,0,0,1,0,0.7516)">
      <tspan dy="8.502914360572333">N</tspan>
    </text>
    <text x="1752.1677785879617" y="284.35484209797374" text-anchor="middle" stroke="none" fill="#000000" style="font:24px Arial;" font-size="24px" transform="matrix(1,0,0,1,0,0.7516)">
      <tspan dy="8.503279597973744">S</tspan>
    </text>
    <path fill="none" stroke="#000000" d="M1714.10740271,336.72707239L1714.10740271,296.71662157M1707.44073604,332.87779172L1707.44073604,300.56590224" stroke-width="1.6" stroke-linecap="round" stroke-linejoin="round" transform="matrix(1,0,0,1,0,0.7516)" style="stroke-linecap:round;stroke-linejoin:round;"></path>
    <path fill="none" stroke="#000000" d="M1644.81615257,296.71662157L1644.81615257,336.72707239" stroke-width="1.6" stroke-linecap="round" stroke-linejoin="round" transform="matrix(1,0,0,1,0,0.7516)" style="stroke-linecap:round;stroke-linejoin:round;"></path>
    <path fill="none" stroke="#000000" d="M1644.81615257,336.72707239L1679.459658,356.72805851M1651.48281924,332.8780272L1679.45986192,349.03021606" stroke-width="1.6" stroke-linecap="round" stroke-linejoin="round" transform="matrix(1,0,0,1,0,0.7516)" style="stroke-linecap:round;stroke-linejoin:round;"></path>
    <path fill="none" stroke="#000000" d="M1679.459658,356.72805851L1714.10740271,336.72707239" stroke-width="1.6" stroke-linecap="round" stroke-linejoin="round" transform="matrix(1,0,0,1,0,0.7516)" style="stroke-linecap:round;stroke-linejoin:round;"></path>
    <path fill="none" stroke="#000000" d="M1714.10740271,296.71662157L1679.459658,276.71563544" stroke-width="1.6" stroke-linecap="round" stroke-linejoin="round" transform="matrix(1,0,0,1,0,0.7516)" style="stroke-linecap:round;stroke-linejoin:round;"></path>
    <path fill="none" stroke="#000000" d="M1679.459658,276.71563544L1644.81615257,296.71662157M1679.45986192,284.4134779L1651.48281924,300.56566676" stroke-width="1.6" stroke-linecap="round" stroke-linejoin="round" transform="matrix(1,0,0,1,0,0.7516)" style="stroke-linecap:round;stroke-linejoin:round;"></path>
    <path fill="none" stroke="#000000" d="M1714.10740271,336.72707239L1740.45650668,345.28510171" stroke-width="1.6" stroke-linecap="round" stroke-linejoin="round" transform="matrix(1,0,0,1,0,0.7516)" style="stroke-linecap:round;stroke-linejoin:round;"></path>
    <path fill="none" stroke="#000000" d="M1762.72396304,334.55124936L1775.67042103,316.72184698M1757.32945751,330.63413887L1767.43158538,316.72184698" stroke-width="1.6" stroke-linecap="round" stroke-linejoin="round" transform="matrix(1,0,0,1,0,0.7516)" style="stroke-linecap:round;stroke-linejoin:round;"></path>
    <path fill="none" stroke="#000000" d="M1775.67042103,316.72184698L1762.05208804,297.9671622" stroke-width="1.6" stroke-linecap="round" stroke-linejoin="round" transform="matrix(1,0,0,1,0,0.7516)" style="stroke-linecap:round;stroke-linejoin:round;"></path>
    <path fill="none" stroke="#000000" d="M1741.11275668,287.94544623L1714.10740271,296.71662157" stroke-width="1.6" stroke-linecap="round" stroke-linejoin="round" transform="matrix(1,0,0,1,0,0.7516)" style="stroke-linecap:round;stroke-linejoin:round;"></path>
    <path fill="none" stroke="#000000" d="M1775.67042103,316.72184698L1815.54097518,316.72184698" stroke-width="1.6" stroke-linecap="round" stroke-linejoin="round" transform="matrix(1,0,0,1,0,0.7516)" style="stroke-linecap:round;stroke-linejoin:round;"></path>
    <path fill="none" stroke="#000000" d="M1815.54097518,316.72184698L1835.5419613,351.3653524" stroke-width="1.6" stroke-linecap="round" stroke-linejoin="round" transform="matrix(1,0,0,1,0,0.7516)" style="stroke-linecap:round;stroke-linejoin:round;"></path>
    <path fill="none" stroke="#000000" d="M1835.5419613,351.3653524L1875.54817283,351.3653524M1839.39100649,344.69868573L1871.69953551,344.69868573" stroke-width="1.6" stroke-linecap="round" stroke-linejoin="round" transform="matrix(1,0,0,1,0,0.7516)" style="stroke-linecap:round;stroke-linejoin:round;"></path>
    <path fill="none" stroke="#000000" d="M1875.54817283,351.3653524L1895.55339825,316.72184698" stroke-width="1.6" stroke-linecap="round" stroke-linejoin="round" transform="matrix(1,0,0,1,0,0.7516)" style="stroke-linecap:round;stroke-linejoin:round;"></path>
    <path fill="none" stroke="#000000" d="M1895.55339825,316.72184698L1875.54817283,282.07834156M1887.85503014,316.72184698L1871.69953551,288.74500822" stroke-width="1.6" stroke-linecap="round" stroke-linejoin="round" transform="matrix(1,0,0,1,0,0.7516)" style="stroke-linecap:round;stroke-linejoin:round;"></path>
    <path fill="none" stroke="#000000" d="M1875.54817283,282.07834156L1835.5419613,282.07834156" stroke-width="1.6" stroke-linecap="round" stroke-linejoin="round" transform="matrix(1,0,0,1,0,0.7516)" style="stroke-linecap:round;stroke-linejoin:round;"></path>
    <path fill="none" stroke="#000000" d="M1835.5419613,282.07834156L1815.54097518,316.72184698M1839.39100649,288.74500822L1823.23893537,316.72184698" stroke-width="1.6" stroke-linecap="round" stroke-linejoin="round" transform="matrix(1,0,0,1,0,0.7516)" style="stroke-linecap:round;stroke-linejoin:round;"></path>
    <path fill="none" stroke="#000000" d="M1895.55339825,316.72184698L1935.55960978,316.72184698" stroke-width="1.6" stroke-linecap="round" stroke-linejoin="round" transform="matrix(1,0,0,1,0,0.7516)" style="stroke-linecap:round;stroke-linejoin:round;"></path>
    <path fill="none" stroke="#000000" d="M1935.55960978,316.72184698L1946.16545138,335.08822493" stroke-width="1.6" stroke-linecap="round" stroke-linejoin="round" transform="matrix(1,0,0,1,0,0.7516)" style="stroke-linecap:round;stroke-linejoin:round;"></path>
    <path fill="none" stroke="#000000" d="M1644.81615257,296.71662157L1621.61513168,283.3234469" stroke-width="1.6" stroke-linecap="round" stroke-linejoin="round" transform="matrix(1,0,0,1,0,0.7516)" style="stroke-linecap:round;stroke-linejoin:round;"></path>
    <path fill="none" stroke="#000000" d="M1935.55960978,316.72184698L1946.16902814,298.34927507" stroke-width="1.6" stroke-linecap="round" stroke-linejoin="round" transform="matrix(1,0,0,1,0,0.7516)" style="stroke-linecap:round;stroke-linejoin:round;"></path>
    <path fill="none" stroke="#000000" d="M1935.55960978,316.72184698L1963.690625,316.72184698" stroke-width="1.6" stroke-linecap="round" stroke-linejoin="round" transform="matrix(1,0,0,1,0,0.7516)" style="stroke-linecap:round;stroke-linejoin:round;"></path>
  </g>
</svg>
