
<svg xmlns="http://www.w3.org/2000/svg" height="115.3917966489351" version="1.1" width="166.24833835758818" style="overflow:hidden;" viewBox="0 0 186 135">
  <g transform="translate(-1104, -309)">
    <defs></defs>
    <circle cx="1183.603625877488" cy="358.6509890219414" r="19.200000000000003" fill="none" stroke="#00cc00" stroke-width="0.96" transform="matrix(1,0,0,1,0,0)" style="display:none;"></circle>
    <circle cx="1131.5993067096772" cy="388.6780372798657" r="19.200000000000003" fill="none" stroke="#00cc00" stroke-width="0.96" transform="matrix(1,0,0,1,0,0)" style="display:none;"></circle>
    <circle cx="1114.2631195514396" cy="378.6683141427404" r="24" fill="none" stroke="#00cc00" stroke-width="0.96" transform="matrix(1,0,0,1,0,0)" style="display:none;"></circle>
    <text x="1218.1614579075883" y="318.6990637649477" text-anchor="middle" stroke="none" fill="#000000" style="font:24px Arial;" font-size="24px" transform="matrix(1,0,0,1,0,0)">
      <tspan dy="8.50375126494771">S</tspan>
    </text>
    <text x="1218.1614579075883" y="318.6990637649477" text-anchor="middle" stroke="none" fill="#000000" style="font:24px Arial;" font-size="24px" transform="matrix(1,0,0,1,17.4797,0)">
      <tspan dy="8.50375126494771">H</tspan>
    </text>
    <text x="1218.1614579075883" y="398.6029142789351" text-anchor="middle" stroke="none" fill="#000000" style="font:24px Arial;" font-size="24px" transform="matrix(1,0,0,1,0,0)">
      <tspan dy="8.501351778935089">N</tspan>
    </text>
    <text x="1218.1614579075883" y="398.6029142789351" text-anchor="middle" stroke="none" fill="#000000" style="font:24px Arial;" font-size="24px" transform="matrix(1,0,0,1,18.1438,0)">
      <tspan dy="8.501351778935089">H</tspan>
    </text>
    <text x="1218.1614579075883" y="398.6029142789351" text-anchor="middle" stroke="none" fill="#000000" style="font:17px Arial;" font-size="17px" transform="matrix(1,0,0,1,32.35,5.4031)">
      <tspan dy="5.5013517789350885">2</tspan>
    </text>
    <path fill="none" stroke="#000000" d="M1114.26311955,338.6336639L1114.26311955,378.66831414" stroke-width="1.6" stroke-linecap="round" stroke-linejoin="round" transform="matrix(1,0,0,1,0,0)" style="stroke-linecap:round;stroke-linejoin:round;"></path>
    <path fill="none" stroke="#000000" d="M1114.26311955,378.66831414L1148.93549387,398.68776042M1120.92978622,374.81944133L1148.93528991,390.98951008" stroke-width="1.6" stroke-linecap="round" stroke-linejoin="round" transform="matrix(1,0,0,1,0,0)" style="stroke-linecap:round;stroke-linejoin:round;"></path>
    <path fill="none" stroke="#000000" d="M1148.93549387,398.68776042L1183.60362588,378.66831414" stroke-width="1.6" stroke-linecap="round" stroke-linejoin="round" transform="matrix(1,0,0,1,0,0)" style="stroke-linecap:round;stroke-linejoin:round;"></path>
    <path fill="none" stroke="#000000" d="M1183.60362588,378.66831414L1183.60362588,338.6336639M1176.93695921,374.81967682L1176.93695921,342.48230122" stroke-width="1.6" stroke-linecap="round" stroke-linejoin="round" transform="matrix(1,0,0,1,0,0)" style="stroke-linecap:round;stroke-linejoin:round;"></path>
    <path fill="none" stroke="#000000" d="M1183.60362588,338.6336639L1148.93549387,318.61421763" stroke-width="1.6" stroke-linecap="round" stroke-linejoin="round" transform="matrix(1,0,0,1,0,0)" style="stroke-linecap:round;stroke-linejoin:round;"></path>
    <path fill="none" stroke="#000000" d="M1148.93549387,318.61421763L1114.26311955,338.6336639M1148.93528991,326.31246796L1120.92978622,342.48253672" stroke-width="1.6" stroke-linecap="round" stroke-linejoin="round" transform="matrix(1,0,0,1,0,0)" style="stroke-linecap:round;stroke-linejoin:round;"></path>
    <path fill="none" stroke="#000000" d="M1183.60362588,338.6336639L1207.38436549,324.91580293" stroke-width="1.6" stroke-linecap="round" stroke-linejoin="round" transform="matrix(1,0,0,1,0,0)" style="stroke-linecap:round;stroke-linejoin:round;"></path>
    <path fill="none" stroke="#000000" d="M1183.60362588,378.66831414L1206.71249049,391.99860567" stroke-width="1.6" stroke-linecap="round" stroke-linejoin="round" transform="matrix(1,0,0,1,0,0)" style="stroke-linecap:round;stroke-linejoin:round;"></path>
  </g>
</svg>
