
<svg xmlns="http://www.w3.org/2000/svg" height="429.05906695782556" version="1.1" width="289.7480134241828" style="overflow:hidden;" viewBox="0 0 309 449">
  <g transform="translate(-645, -60)">
    <defs></defs>
    <circle cx="458.976021265301" cy="61.104002831073856" r="24" fill="none" stroke="#00cc00" stroke-width="0.96" transform="matrix(1,0,0,1,342.4264,84.1641)" style="display:none;"></circle>
    <circle cx="392.0920181664279" cy="118.6360054966496" r="24" fill="none" stroke="#00cc00" stroke-width="0.96" transform="matrix(1,0,0,1,342.4264,84.1641)" style="display:none;"></circle>
    <circle cx="562.6160260671552" cy="54.79200253862592" r="19.200000000000003" fill="none" stroke="#00cc00" stroke-width="0.96" transform="matrix(1,0,0,1,342.4264,84.1641)" style="display:none;"></circle>
    <circle cx="562.6160260671552" cy="124.07200574851066" r="19.200000000000003" fill="none" stroke="#00cc00" stroke-width="0.96" transform="matrix(1,0,0,1,342.4264,84.1641)" style="display:none;"></circle>
    <circle cx="451.78002093189554" cy="247.73401147802517" r="19.200000000000003" fill="none" stroke="#00cc00" stroke-width="0.96" transform="matrix(1,0,0,1,342.4264,84.1641)" style="display:none;"></circle>
    <circle cx="436.5600202267217" cy="260.8720120867357" r="24" fill="none" stroke="#00cc00" stroke-width="0.96" transform="matrix(1,0,0,1,342.4264,84.1641)" style="display:none;"></circle>
    <circle cx="417.2100193301964" cy="255.68601184645763" r="19.200000000000003" fill="none" stroke="#00cc00" stroke-width="0.96" transform="matrix(1,0,0,1,342.4264,84.1641)" style="display:none;"></circle>
    <circle cx="397.86001843367114" cy="250.50001160617964" r="24" fill="none" stroke="#00cc00" stroke-width="0.96" transform="matrix(1,0,0,1,342.4264,84.1641)" style="display:none;"></circle>
    <text x="459.4600212877257" y="195.09200903901316" text-anchor="middle" stroke="none" fill="#000000" style="font-style:normal;font-variant:normal;font-weight:normal;font-size:24px;line-height:normal;font-family:Arial;" font-size="24px" transform="matrix(1,0,0,1,342.4264,84.1641)">
      <tspan dy="8.513884039013163">N</tspan>
    </text>
    <text x="458.976021265301" y="61.104002831073856" text-anchor="middle" stroke="none" fill="#000000" style="font-style:normal;font-variant:normal;font-weight:normal;font-size:24px;line-height:normal;font-family:Arial;" font-size="24px" transform="matrix(1,0,0,1,342.4264,84.1641)">
      <tspan dy="8.510252831073856">O</tspan>
    </text>
    <text x="312.8680144958172" y="335.4920155440336" text-anchor="middle" stroke="none" fill="#000000" style="font-style:normal;font-variant:normal;font-weight:normal;font-size:24px;line-height:normal;font-family:Arial;" font-size="24px" transform="matrix(1,0,0,1,342.4264,84.1641)">
      <tspan dy="8.50764054403362">F</tspan>
    </text>
    <text x="361.93601676923845" y="384.56801781782553" text-anchor="middle" stroke="none" fill="#000000" style="font-style:normal;font-variant:normal;font-weight:normal;font-size:24px;line-height:normal;font-family:Arial;" font-size="24px" transform="matrix(1,0,0,1,342.4264,84.1641)">
      <tspan dy="8.505517817825535">F</tspan>
    </text>
    <text x="341.20001580849697" y="307.16001423135384" text-anchor="middle" stroke="none" fill="#000000" style="font-style:normal;font-variant:normal;font-weight:normal;font-size:24px;line-height:normal;font-family:Arial;" font-size="24px" transform="matrix(1,0,0,1,342.4264,84.1641)">
      <tspan dy="8.503764231353841">F</tspan>
    </text>
    <path fill="none" stroke="#000000" d="M420.25335311,142.59300393L420.25335311,175.10701079M426.92001978,138.74400643L426.92001978,178.95600829" stroke-width="1.6" stroke-linecap="round" stroke-linejoin="round" transform="matrix(1,0,0,1,342.4264,84.1641)" style="stroke-linecap:round;stroke-linejoin:round;"></path>
    <path fill="none" stroke="#000000" d="M392.09201817,118.6360055L426.92001978,138.74400643" stroke-width="1.6" stroke-linecap="round" stroke-linejoin="round" transform="matrix(1,0,0,1,342.4264,84.1641)" style="stroke-linecap:round;stroke-linejoin:round;"></path>
    <path fill="none" stroke="#000000" d="M426.92001978,178.95600829L392.09201817,199.06400922" stroke-width="1.6" stroke-linecap="round" stroke-linejoin="round" transform="matrix(1,0,0,1,342.4264,84.1641)" style="stroke-linecap:round;stroke-linejoin:round;"></path>
    <path fill="none" stroke="#000000" d="M392.09240108,191.36578027L363.93868322,175.10745291M392.09201817,199.06400922L357.27201655,178.95600829" stroke-width="1.6" stroke-linecap="round" stroke-linejoin="round" transform="matrix(1,0,0,1,342.4264,84.1641)" style="stroke-linecap:round;stroke-linejoin:round;"></path>
    <path fill="none" stroke="#000000" d="M357.27201655,178.95600829L357.27201655,138.74400643" stroke-width="1.6" stroke-linecap="round" stroke-linejoin="round" transform="matrix(1,0,0,1,342.4264,84.1641)" style="stroke-linecap:round;stroke-linejoin:round;"></path>
    <path fill="none" stroke="#000000" d="M363.93868322,142.59256181L392.09240108,126.33423445M357.27201655,138.74400643L392.09201817,118.6360055" stroke-width="1.6" stroke-linecap="round" stroke-linejoin="round" transform="matrix(1,0,0,1,342.4264,84.1641)" style="stroke-linecap:round;stroke-linejoin:round;"></path>
    <path fill="none" stroke="#000000" d="M426.92001978,138.74400643L466.2600216,130.37600604" stroke-width="1.6" stroke-linecap="round" stroke-linejoin="round" transform="matrix(1,0,0,1,342.4264,84.1641)" style="stroke-linecap:round;stroke-linejoin:round;"></path>
    <path fill="none" stroke="#000000" d="M462.90913438,137.90458861L478.17638052,164.3429164M466.2600216,130.37600604L486.37202253,165.20400765" stroke-width="1.6" stroke-linecap="round" stroke-linejoin="round" transform="matrix(1,0,0,1,342.4264,84.1641)" style="stroke-linecap:round;stroke-linejoin:round;"></path>
    <path fill="none" stroke="#000000" d="M486.37202253,165.20400765L470.25062475,183.10815216" stroke-width="1.6" stroke-linecap="round" stroke-linejoin="round" transform="matrix(1,0,0,1,342.4264,84.1641)" style="stroke-linecap:round;stroke-linejoin:round;"></path>
    <path fill="none" stroke="#000000" d="M447.91437625,189.36673158L426.92001978,178.95600829" stroke-width="1.6" stroke-linecap="round" stroke-linejoin="round" transform="matrix(1,0,0,1,342.4264,84.1641)" style="stroke-linecap:round;stroke-linejoin:round;"></path>
    <path fill="none" stroke="#000000" d="M462.63699802,211.73700754L467.00002164,234.59601087" stroke-width="1.6" stroke-linecap="round" stroke-linejoin="round" transform="matrix(1,0,0,1,342.4264,84.1641)" style="stroke-linecap:round;stroke-linejoin:round;"></path>
    <path fill="none" stroke="#000000" d="M467.00002164,234.59601087L436.56002023,260.87201209" stroke-width="1.6" stroke-linecap="round" stroke-linejoin="round" transform="matrix(1,0,0,1,342.4264,84.1641)" style="stroke-linecap:round;stroke-linejoin:round;"></path>
    <path fill="none" stroke="#000000" d="M466.2600216,130.37600604L482.62002236,93.64000434" stroke-width="1.6" stroke-linecap="round" stroke-linejoin="round" transform="matrix(1,0,0,1,342.4264,84.1641)" style="stroke-linecap:round;stroke-linejoin:round;"></path>
    <path fill="none" stroke="#000000" d="M482.62002236,93.64000434L522.61602421,89.43200414" stroke-width="1.6" stroke-linecap="round" stroke-linejoin="round" transform="matrix(1,0,0,1,342.4264,84.1641)" style="stroke-linecap:round;stroke-linejoin:round;"></path>
    <path fill="none" stroke="#000000" d="M485.31654024,91.68043744L472.8745771,74.5593195M479.92350448,95.59957124L467.48154135,78.4784533" stroke-width="1.6" stroke-linecap="round" stroke-linejoin="round" transform="matrix(1,0,0,1,342.4264,84.1641)" style="stroke-linecap:round;stroke-linejoin:round;"></path>
    <path fill="none" stroke="#000000" d="M436.56002023,260.87201209L446.93202071,299.56801388" stroke-width="1.6" stroke-linecap="round" stroke-linejoin="round" transform="matrix(1,0,0,1,342.4264,84.1641)" style="stroke-linecap:round;stroke-linejoin:round;"></path>
    <path fill="none" stroke="#000000" d="M439.49614092,297.57618745L416.60328388,320.47227611M446.93202071,299.56801388L418.59601939,327.90801519" stroke-width="1.6" stroke-linecap="round" stroke-linejoin="round" transform="matrix(1,0,0,1,342.4264,84.1641)" style="stroke-linecap:round;stroke-linejoin:round;"></path>
    <path fill="none" stroke="#000000" d="M418.59601939,327.90801519L379.9000176,317.54001471" stroke-width="1.6" stroke-linecap="round" stroke-linejoin="round" transform="matrix(1,0,0,1,342.4264,84.1641)" style="stroke-linecap:round;stroke-linejoin:round;"></path>
    <path fill="none" stroke="#000000" d="M385.34381432,312.09678045L376.96735031,280.82077015M379.9000176,317.54001471L369.53201712,278.82801292" stroke-width="1.6" stroke-linecap="round" stroke-linejoin="round" transform="matrix(1,0,0,1,342.4264,84.1641)" style="stroke-linecap:round;stroke-linejoin:round;"></path>
    <path fill="none" stroke="#000000" d="M369.53201712,278.82801292L397.86001843,250.50001161" stroke-width="1.6" stroke-linecap="round" stroke-linejoin="round" transform="matrix(1,0,0,1,342.4264,84.1641)" style="stroke-linecap:round;stroke-linejoin:round;"></path>
    <path fill="none" stroke="#000000" d="M399.85222909,257.93589137L431.11699991,266.3151731M397.86001843,250.50001161L436.56002023,260.87201209" stroke-width="1.6" stroke-linecap="round" stroke-linejoin="round" transform="matrix(1,0,0,1,342.4264,84.1641)" style="stroke-linecap:round;stroke-linejoin:round;"></path>
    <path fill="none" stroke="#000000" d="M379.9000176,317.54001471L351.56801629,345.86801602" stroke-width="1.6" stroke-linecap="round" stroke-linejoin="round" transform="matrix(1,0,0,1,342.4264,84.1641)" style="stroke-linecap:round;stroke-linejoin:round;"></path>
    <path fill="none" stroke="#000000" d="M351.56801629,345.86801602L323.2783355,338.28316517" stroke-width="1.6" stroke-linecap="round" stroke-linejoin="round" transform="matrix(1,0,0,1,342.4264,84.1641)" style="stroke-linecap:round;stroke-linejoin:round;"></path>
    <path fill="none" stroke="#000000" d="M351.56801629,345.86801602L357.48969513,367.97150474" stroke-width="1.6" stroke-linecap="round" stroke-linejoin="round" transform="matrix(1,0,0,1,342.4264,84.1641)" style="stroke-linecap:round;stroke-linejoin:round;"></path>
    <path fill="none" stroke="#000000" d="M351.56801629,345.86801602L345.64294375,323.74728804" stroke-width="1.6" stroke-linecap="round" stroke-linejoin="round" transform="matrix(1,0,0,1,342.4264,84.1641)" style="stroke-linecap:round;stroke-linejoin:round;"></path>
    <path fill="none" stroke="#000000" d="M522.61602421,89.43200414L542.61602514,54.79200254" stroke-width="1.6" stroke-linecap="round" stroke-linejoin="round" transform="matrix(1,0,0,1,342.4264,84.1641)" style="stroke-linecap:round;stroke-linejoin:round;"></path>
    <path fill="none" stroke="#000000" d="M542.61602514,54.79200254L582.61602699,54.79200254" stroke-width="1.6" stroke-linecap="round" stroke-linejoin="round" transform="matrix(1,0,0,1,342.4264,84.1641)" style="stroke-linecap:round;stroke-linejoin:round;"></path>
    <path fill="none" stroke="#000000" d="M582.61602699,54.79200254L602.61602792,89.43200414" stroke-width="1.6" stroke-linecap="round" stroke-linejoin="round" transform="matrix(1,0,0,1,342.4264,84.1641)" style="stroke-linecap:round;stroke-linejoin:round;"></path>
    <path fill="none" stroke="#000000" d="M594.91796788,89.43200414L578.76708165,117.40533908M602.61602792,89.43200414L582.61602699,124.07200575" stroke-width="1.6" stroke-linecap="round" stroke-linejoin="round" transform="matrix(1,0,0,1,342.4264,84.1641)" style="stroke-linecap:round;stroke-linejoin:round;"></path>
    <path fill="none" stroke="#000000" d="M582.61602699,124.07200575L542.61602514,124.07200575" stroke-width="1.6" stroke-linecap="round" stroke-linejoin="round" transform="matrix(1,0,0,1,342.4264,84.1641)" style="stroke-linecap:round;stroke-linejoin:round;"></path>
    <path fill="none" stroke="#000000" d="M546.46497048,117.40533908L530.31408426,89.43200414M542.61602514,124.07200575L522.61602421,89.43200414" stroke-width="1.6" stroke-linecap="round" stroke-linejoin="round" transform="matrix(1,0,0,1,342.4264,84.1641)" style="stroke-linecap:round;stroke-linejoin:round;"></path>
    <path fill="none" stroke="#000000" d="M546.46502694,48.12533587L530.31355956,20.15017376M542.61602514,54.79200254L522.6155842,20.15022265" stroke-width="1.6" stroke-linecap="round" stroke-linejoin="round" transform="matrix(1,0,0,1,342.4264,84.1641)" style="stroke-linecap:round;stroke-linejoin:round;"></path>
    <path fill="none" stroke="#000000" d="M522.6155842,20.15022265L542.61514511,-14.49104914" stroke-width="1.6" stroke-linecap="round" stroke-linejoin="round" transform="matrix(1,0,0,1,342.4264,84.1641)" style="stroke-linecap:round;stroke-linejoin:round;"></path>
    <path fill="none" stroke="#000000" d="M546.46417513,-7.82433358L578.76611694,-7.82392328M542.61514511,-14.49104914L582.61514696,-14.49054106" stroke-width="1.6" stroke-linecap="round" stroke-linejoin="round" transform="matrix(1,0,0,1,342.4264,84.1641)" style="stroke-linecap:round;stroke-linejoin:round;"></path>
    <path fill="none" stroke="#000000" d="M582.61514696,-14.49054106L602.6155879,20.15123883" stroke-width="1.6" stroke-linecap="round" stroke-linejoin="round" transform="matrix(1,0,0,1,342.4264,84.1641)" style="stroke-linecap:round;stroke-linejoin:round;"></path>
    <path fill="none" stroke="#000000" d="M594.91759842,20.15126327L578.76699697,48.12533587M602.6155879,20.15123883L582.61602699,54.79200254" stroke-width="1.6" stroke-linecap="round" stroke-linejoin="round" transform="matrix(1,0,0,1,342.4264,84.1641)" style="stroke-linecap:round;stroke-linejoin:round;"></path>
  </g>
</svg>
