
<svg xmlns="http://www.w3.org/2000/svg" height="270.00436289780123" version="1.1" width="455.95268941999996" style="overflow:hidden;" viewBox="0 0 475 290">
  <g transform="translate(-683, -168)">
    <defs></defs>
    <text style='font:normal normal normal normal 24px "Arial";' x="-89.41213519506768" y="148.38422436345144" text-anchor="middle" stroke="none" fill="#000000" font-size="24px" transform="matrix(1,0,0,1,920.5542,90.1137)">
      <tspan dy="7.999992796068625">S</tspan>
    </text>
    <text style='font:normal normal normal normal 24px "Arial";' x="-158.69223994962286" y="148.38422436345144" text-anchor="middle" stroke="none" fill="#000000" font-size="24px" transform="matrix(1,0,0,1,920.5542,90.1137)">
      <tspan dy="7.999992796068625">S</tspan>
    </text>
    <text style='font:normal normal normal normal 24px "Arial";' x="-54.77208281779007" y="168.38425460437384" text-anchor="middle" stroke="none" fill="#000000" font-size="24px" transform="matrix(1,0,0,1,920.5542,90.1137)">
      <tspan dy="7.999992519412899">O</tspan>
    </text>
    <text style='font:normal normal normal normal 24px "Arial";' x="-54.77208281779007" y="168.38425460437384" text-anchor="middle" stroke="none" fill="#000000" font-size="24px" transform="matrix(1,0,0,1,939.3542,90.1137)">
      <tspan dy="7.999992519412899">H</tspan>
    </text>
    <text style='font:normal normal normal normal 24px "Arial";' x="-54.77208281779007" y="328.38849653780125" text-anchor="middle" stroke="none" fill="#000000" font-size="24px" transform="matrix(1,0,0,1,920.5542,90.1137)">
      <tspan dy="8.000007768269995">O</tspan>
    </text>
    <text style='font:normal normal normal normal 24px "Arial";' x="-54.77208281779007" y="328.38849653780125" text-anchor="middle" stroke="none" fill="#000000" font-size="24px" transform="matrix(1,0,0,1,939.3542,90.1137)">
      <tspan dy="8.000007768269995">H</tspan>
    </text>
    <path style="stroke-linecap:round;stroke-linejoin:round;" fill="none" stroke="#000000" d="M-124.05618758,88.38413364L-89.4121352,108.38816389" stroke-width="1.6" stroke-linecap="round" stroke-linejoin="round" transform="matrix(1,0,0,1,920.5542,90.1137)"></path>
    <path style="stroke-linecap:round;stroke-linejoin:round;" fill="none" stroke="#000000" d="M-89.4121352,108.38816389L-89.4121352,131.18423157" stroke-width="1.6" stroke-linecap="round" stroke-linejoin="round" transform="matrix(1,0,0,1,920.5542,90.1137)"></path>
    <path style="stroke-linecap:round;stroke-linejoin:round;" fill="none" stroke="#000000" d="M-124.05218757,168.3842546L-147.92098451,154.60319401" stroke-width="1.6" stroke-linecap="round" stroke-linejoin="round" transform="matrix(1,0,0,1,920.5542,90.1137)"></path>
    <path style="stroke-linecap:round;stroke-linejoin:round;" fill="none" stroke="#000000" d="M-127.38552091,168.3842546L-127.38552091,208.38431509M-120.71885424,168.3842546L-120.71885424,208.38431509" stroke-width="1.6" stroke-linecap="round" stroke-linejoin="round" transform="matrix(1,0,0,1,920.5542,90.1137)"></path>
    <path style="stroke-linecap:round;stroke-linejoin:round;" fill="none" stroke="#000000" d="M-158.69395995,131.18423158L-158.69623996,108.38416388" stroke-width="1.6" stroke-linecap="round" stroke-linejoin="round" transform="matrix(1,0,0,1,920.5542,90.1137)"></path>
    <path style="stroke-linecap:round;stroke-linejoin:round;" fill="none" stroke="#000000" d="M-158.69623996,108.38416388L-124.05618758,88.38413364" stroke-width="1.6" stroke-linecap="round" stroke-linejoin="round" transform="matrix(1,0,0,1,920.5542,90.1137)"></path>
    <path style="stroke-linecap:round;stroke-linejoin:round;" fill="none" stroke="#000000" d="M-124.05218757,208.38431509L-89.4121352,228.38834533" stroke-width="1.6" stroke-linecap="round" stroke-linejoin="round" transform="matrix(1,0,0,1,920.5542,90.1137)"></path>
    <path style="stroke-linecap:round;stroke-linejoin:round;" fill="none" stroke="#000000" d="M-89.4121352,228.38834533L-54.77208282,208.38431509" stroke-width="1.6" stroke-linecap="round" stroke-linejoin="round" transform="matrix(1,0,0,1,920.5542,90.1137)"></path>
    <path style="stroke-linecap:round;stroke-linejoin:round;" fill="none" stroke="#000000" d="M-54.77208282,216.08276008L-26.79869711,232.2369058M-54.77208282,208.38431509L-20.13203044,228.38834533" stroke-width="1.6" stroke-linecap="round" stroke-linejoin="round" transform="matrix(1,0,0,1,920.5542,90.1137)"></path>
    <path style="stroke-linecap:round;stroke-linejoin:round;" fill="none" stroke="#000000" d="M-20.13203044,228.38834533L-20.13203044,268.38840582" stroke-width="1.6" stroke-linecap="round" stroke-linejoin="round" transform="matrix(1,0,0,1,920.5542,90.1137)"></path>
    <path style="stroke-linecap:round;stroke-linejoin:round;" fill="none" stroke="#000000" d="M-26.79869711,264.53946047L-54.77208282,280.69037601M-20.13203044,268.38840582L-54.77208282,288.38843606" stroke-width="1.6" stroke-linecap="round" stroke-linejoin="round" transform="matrix(1,0,0,1,920.5542,90.1137)"></path>
    <path style="stroke-linecap:round;stroke-linejoin:round;" fill="none" stroke="#000000" d="M-54.77208282,288.38843606L-89.4121352,268.38840582" stroke-width="1.6" stroke-linecap="round" stroke-linejoin="round" transform="matrix(1,0,0,1,920.5542,90.1137)"></path>
    <path style="stroke-linecap:round;stroke-linejoin:round;" fill="none" stroke="#000000" d="M-82.74546853,264.53946047L-82.74546853,232.2369058M-89.4121352,268.38840582L-89.4121352,228.38834533" stroke-width="1.6" stroke-linecap="round" stroke-linejoin="round" transform="matrix(1,0,0,1,920.5542,90.1137)"></path>
    <path style="stroke-linecap:round;stroke-linejoin:round;" fill="none" stroke="#000000" d="M-100.18339323,154.60319552L-124.05218757,168.3842546" stroke-width="1.6" stroke-linecap="round" stroke-linejoin="round" transform="matrix(1,0,0,1,920.5542,90.1137)"></path>
    <path style="stroke-linecap:round;stroke-linejoin:round;" fill="none" stroke="#000000" d="M-124.05218757,208.38431509L-158.69623996,228.38434533" stroke-width="1.6" stroke-linecap="round" stroke-linejoin="round" transform="matrix(1,0,0,1,920.5542,90.1137)"></path>
    <path style="stroke-linecap:round;stroke-linejoin:round;" fill="none" stroke="#000000" d="M-158.69623996,228.38434533L-158.69623996,268.38440581" stroke-width="1.6" stroke-linecap="round" stroke-linejoin="round" transform="matrix(1,0,0,1,920.5542,90.1137)"></path>
    <path style="stroke-linecap:round;stroke-linejoin:round;" fill="none" stroke="#000000" d="M-165.36290662,264.53546047L-193.33629233,280.68637601M-158.69623996,268.38440581L-193.33629233,288.38443605" stroke-width="1.6" stroke-linecap="round" stroke-linejoin="round" transform="matrix(1,0,0,1,920.5542,90.1137)"></path>
    <path style="stroke-linecap:round;stroke-linejoin:round;" fill="none" stroke="#000000" d="M-193.33629233,288.38443605L-227.97634471,268.38440581" stroke-width="1.6" stroke-linecap="round" stroke-linejoin="round" transform="matrix(1,0,0,1,920.5542,90.1137)"></path>
    <path style="stroke-linecap:round;stroke-linejoin:round;" fill="none" stroke="#000000" d="M-221.30967804,264.53546047L-221.30967804,232.23329067M-227.97634471,268.38440581L-227.97634471,228.38434533" stroke-width="1.6" stroke-linecap="round" stroke-linejoin="round" transform="matrix(1,0,0,1,920.5542,90.1137)"></path>
    <path style="stroke-linecap:round;stroke-linejoin:round;" fill="none" stroke="#000000" d="M-227.97634471,228.38434533L-193.33629233,208.38431509" stroke-width="1.6" stroke-linecap="round" stroke-linejoin="round" transform="matrix(1,0,0,1,920.5542,90.1137)"></path>
    <path style="stroke-linecap:round;stroke-linejoin:round;" fill="none" stroke="#000000" d="M-193.33629233,216.08237513L-165.36290662,232.23329067M-193.33629233,208.38431509L-158.69623996,228.38434533" stroke-width="1.6" stroke-linecap="round" stroke-linejoin="round" transform="matrix(1,0,0,1,920.5542,90.1137)"></path>
    <path style="stroke-linecap:round;stroke-linejoin:round;" fill="none" stroke="#000000" d="M-54.77208282,208.38431509L-54.77208282,185.58424683" stroke-width="1.6" stroke-linecap="round" stroke-linejoin="round" transform="matrix(1,0,0,1,920.5542,90.1137)"></path>
    <path style="stroke-linecap:round;stroke-linejoin:round;" fill="none" stroke="#000000" d="M-54.77208282,288.38843606L-54.77208282,311.18848877" stroke-width="1.6" stroke-linecap="round" stroke-linejoin="round" transform="matrix(1,0,0,1,920.5542,90.1137)"></path>
  </g>
</svg>
