
<svg xmlns="http://www.w3.org/2000/svg" height="45.75276180410083" version="1.1" width="129.39953305156277" style="overflow:hidden;" viewBox="0 0 149 65">
  <g transform="translate(-225, -251)">
    <defs></defs>
    <text x="223" y="221" text-anchor="middle" stroke="none" fill="#000000" style="font:24px Arial;" font-size="24px" transform="matrix(1,0,0,1,40,40)">
      <tspan dy="8.5">C</tspan>
    </text>
    <text x="223" y="221" text-anchor="middle" stroke="none" fill="#000000" style="font:24px Arial;" font-size="24px" transform="matrix(1,0,0,1,11.5875,40)">
      <tspan dy="8.5">H</tspan>
    </text>
    <text x="223" y="221" text-anchor="middle" stroke="none" fill="#000000" style="font:17px Arial;" font-size="17px" transform="matrix(1,0,0,1,25.7937,45.4)">
      <tspan dy="5.5">3</tspan>
    </text>
    <text x="261.63703305156275" y="231.35276180410085" text-anchor="middle" stroke="none" fill="#000000" style="font:24px Arial;" font-size="24px" transform="matrix(1,0,0,1,40,40)">
      <tspan dy="8.499993859764913">C</tspan>
    </text>
    <text x="261.63703305156275" y="231.35276180410085" text-anchor="middle" stroke="none" fill="#000000" style="font:24px Arial;" font-size="24px" transform="matrix(1,0,0,1,58.1437,40)">
      <tspan dy="8.499993859764913">H</tspan>
    </text>
    <text x="261.63703305156275" y="231.35276180410085" text-anchor="middle" stroke="none" fill="#000000" style="font:17px Arial;" font-size="17px" transform="matrix(1,0,0,1,72.35,45.4)">
      <tspan dy="5.499993859764913">3</tspan>
    </text>
    <path fill="none" stroke="#000000" d="M234.76283764,224.15184285L249.87418628,228.20091651" stroke-width="1.6" stroke-linecap="round" stroke-linejoin="round" transform="matrix(1,0,0,1,40,40)" style="stroke-linecap:round;stroke-linejoin:round;"></path>
    <text x="223" y="221" text-anchor="middle" stroke="none" fill="#000000" style="font:24px Arial;" font-size="24px" transform="matrix(1,0,0,1,40,40)">
      <tspan dy="8.5">C</tspan>
    </text>
    <text x="223" y="221" text-anchor="middle" stroke="none" fill="#000000" style="font:24px Arial;" font-size="24px" transform="matrix(1,0,0,1,11.5875,40)">
      <tspan dy="8.5">H</tspan>
    </text>
    <text x="223" y="221" text-anchor="middle" stroke="none" fill="#000000" style="font:17px Arial;" font-size="17px" transform="matrix(1,0,0,1,25.7937,45.4)">
      <tspan dy="5.5">3</tspan>
    </text>
    <text x="261.63703305156275" y="231.35276180410085" text-anchor="middle" stroke="none" fill="#000000" style="font:24px Arial;" font-size="24px" transform="matrix(1,0,0,1,40,40)">
      <tspan dy="8.499993859764913">C</tspan>
    </text>
    <text x="261.63703305156275" y="231.35276180410085" text-anchor="middle" stroke="none" fill="#000000" style="font:24px Arial;" font-size="24px" transform="matrix(1,0,0,1,58.1437,40)">
      <tspan dy="8.499993859764913">H</tspan>
    </text>
    <text x="261.63703305156275" y="231.35276180410085" text-anchor="middle" stroke="none" fill="#000000" style="font:17px Arial;" font-size="17px" transform="matrix(1,0,0,1,72.35,45.4)">
      <tspan dy="5.499993859764913">3</tspan>
    </text>
    <path fill="none" stroke="#000000" d="M234.76283764,224.15184285L249.87418628,228.20091651" stroke-width="1.6" stroke-linecap="round" stroke-linejoin="round" transform="matrix(1,0,0,1,40,40)" style="stroke-linecap:round;stroke-linejoin:round;"></path>
  </g>
</svg>
