
<svg xmlns="http://www.w3.org/2000/svg" height="229.6710456924884" version="1.1" width="253.0845892788849" style="overflow:hidden;" viewBox="0 0 273 249">
  <g transform="translate(-590, -184)">
    <defs></defs>
    <circle cx="108.33567678367609" cy="196.71478152825392" r="24" fill="none" stroke="#00cc00" style="display:none;" stroke-width="0.96" transform="matrix(1,0,0,1,620.4136,54.404)"></circle>
    <text style='font:24px "Arial";' x="42.49419406191982" y="234.72729969796487" text-anchor="middle" stroke="none" fill="#000000" font-size="24px" transform="matrix(1,0,0,1,620.4136,54.404)">
      <tspan dy="8.250053413480003">O</tspan>
    </text>
    <text style='font:24px "Arial";' x="75.41683604870644" y="291.7460769525312" text-anchor="middle" stroke="none" fill="#000000" font-size="24px" transform="matrix(1,0,0,1,620.4136,54.404)">
      <tspan dy="8.250077616288536">O</tspan>
    </text>
    <text style='font:24px "Arial";' x="7.853177910542279" y="254.72729969796487" text-anchor="middle" stroke="none" fill="#000000" font-size="24px" transform="matrix(1,0,0,1,620.4136,54.404)">
      <tspan dy="8.250053413480003">C</tspan>
    </text>
    <text style='font:24px "Arial";' x="7.853177910542279" y="254.72729969796487" text-anchor="middle" stroke="none" fill="#000000" font-size="24px" transform="matrix(1,0,0,1,592.0301,54.404)">
      <tspan dy="8.250053413480003">H</tspan>
    </text>
    <text style='font:17px "Arial";' x="7.853177910542279" y="254.72729969796487" text-anchor="middle" stroke="none" fill="#000000" font-size="17px" transform="matrix(1,0,0,1,606.2219,59.904)">
      <tspan dy="5.95837784585305">3</tspan>
    </text>
    <text style='font:24px "Arial";' x="202.5542671894271" y="339.3670499624884" text-anchor="middle" stroke="none" fill="#000000" font-size="24px" transform="matrix(1,0,0,1,620.4136,54.404)">
      <tspan dy="8.250078946558233">O</tspan>
    </text>
    <text style='font:24px "Arial";' x="141.25451751864574" y="177.7085224433985" text-anchor="middle" stroke="none" fill="#000000" font-size="24px" transform="matrix(1,0,0,1,620.4136,54.404)">
      <tspan dy="8.250044469460505">S</tspan>
    </text>
    <text style='font:24px "Arial";' x="75.41683604870644" y="177.7085224433985" text-anchor="middle" stroke="none" fill="#000000" font-size="24px" transform="matrix(1,0,0,1,620.4136,54.404)">
      <tspan dy="8.250044469460505">S</tspan>
    </text>
    <path style="stroke-linecap:round;stroke-linejoin:round;" fill="none" stroke="#000000" d="M141.25451752,139.69600427L141.25451752,160.75843506" stroke-width="1.6" stroke-linecap="round" stroke-linejoin="round" transform="matrix(1,0,0,1,620.4136,54.404)"></path>
    <path style="stroke-linecap:round;stroke-linejoin:round;" fill="none" stroke="#000000" d="M108.33567678,196.71478153L86.18815016,183.92752597" stroke-width="1.6" stroke-linecap="round" stroke-linejoin="round" transform="matrix(1,0,0,1,620.4136,54.404)"></path>
    <path style="stroke-linecap:round;stroke-linejoin:round;" fill="none" stroke="#000000" d="M75.41683605,160.75843506L75.41683605,139.69600427" stroke-width="1.6" stroke-linecap="round" stroke-linejoin="round" transform="matrix(1,0,0,1,620.4136,54.404)"></path>
    <path style="stroke-linecap:round;stroke-linejoin:round;" fill="none" stroke="#000000" d="M105.00234345,196.71478153L105.00234345,234.7272997M111.66901012,196.71478153L111.66901012,234.7272997" stroke-width="1.6" stroke-linecap="round" stroke-linejoin="round" transform="matrix(1,0,0,1,620.4136,54.404)"></path>
    <path style="stroke-linecap:round;stroke-linejoin:round;" fill="none" stroke="#000000" d="M108.33567678,234.7272997L75.41683605,253.73355878" stroke-width="1.6" stroke-linecap="round" stroke-linejoin="round" transform="matrix(1,0,0,1,620.4136,54.404)"></path>
    <path style="stroke-linecap:round;stroke-linejoin:round;" fill="none" stroke="#000000" d="M75.41683605,253.73355878L54.59892809,241.71536922" stroke-width="1.6" stroke-linecap="round" stroke-linejoin="round" transform="matrix(1,0,0,1,620.4136,54.404)"></path>
    <path style="stroke-linecap:round;stroke-linejoin:round;" fill="none" stroke="#000000" d="M72.08350272,253.73355878L72.08350272,274.7960022M78.75016938,253.73355878L78.75016938,274.7960022" stroke-width="1.6" stroke-linecap="round" stroke-linejoin="round" transform="matrix(1,0,0,1,620.4136,54.404)"></path>
    <path style="stroke-linecap:round;stroke-linejoin:round;" fill="none" stroke="#000000" d="M75.41683605,139.69600427L141.25451752,139.69600427" stroke-width="1.6" stroke-linecap="round" stroke-linejoin="round" transform="matrix(1,0,0,1,620.4136,54.404)"></path>
    <path style="stroke-linecap:round;stroke-linejoin:round;" fill="none" stroke="#000000" d="M30.38951964,241.71593673L19.29118316,248.12356429" stroke-width="1.6" stroke-linecap="round" stroke-linejoin="round" transform="matrix(1,0,0,1,620.4136,54.404)"></path>
    <path style="stroke-linecap:round;stroke-linejoin:round;" fill="none" stroke="#000000" d="M108.33567678,234.7272997L142.97681996,254.72707969" stroke-width="1.6" stroke-linecap="round" stroke-linejoin="round" transform="matrix(1,0,0,1,620.4136,54.404)"></path>
    <path style="stroke-linecap:round;stroke-linejoin:round;" fill="none" stroke="#000000" d="M142.97681996,254.72707969L179.51835578,238.45869951" stroke-width="1.6" stroke-linecap="round" stroke-linejoin="round" transform="matrix(1,0,0,1,620.4136,54.404)"></path>
    <path style="stroke-linecap:round;stroke-linejoin:round;" fill="none" stroke="#000000" d="M179.51835578,238.45869951L206.28509407,268.18440461" stroke-width="1.6" stroke-linecap="round" stroke-linejoin="round" transform="matrix(1,0,0,1,620.4136,54.404)"></path>
    <path style="stroke-linecap:round;stroke-linejoin:round;" fill="none" stroke="#000000" d="M206.28509407,268.18440461L186.28534226,302.82499088" stroke-width="1.6" stroke-linecap="round" stroke-linejoin="round" transform="matrix(1,0,0,1,620.4136,54.404)"></path>
    <path style="stroke-linecap:round;stroke-linejoin:round;" fill="none" stroke="#000000" d="M186.28534226,302.82499088L147.15875735,294.5071681" stroke-width="1.6" stroke-linecap="round" stroke-linejoin="round" transform="matrix(1,0,0,1,620.4136,54.404)"></path>
    <path style="stroke-linecap:round;stroke-linejoin:round;" fill="none" stroke="#000000" d="M147.15875735,294.5071681L142.97681996,254.72707969" stroke-width="1.6" stroke-linecap="round" stroke-linejoin="round" transform="matrix(1,0,0,1,620.4136,54.404)"></path>
    <path style="stroke-linecap:round;stroke-linejoin:round;" fill="none" stroke="#000000" d="M183.24017067,304.18073463L192.08589714,324.04935289M189.33051385,301.46924714L198.17624032,321.33786541" stroke-width="1.6" stroke-linecap="round" stroke-linejoin="round" transform="matrix(1,0,0,1,620.4136,54.404)"></path>
    <path style="stroke-linecap:round;stroke-linejoin:round;" fill="none" stroke="#000000" d="M130.48320986,183.92752225L108.33567678,196.71478153" stroke-width="1.6" stroke-linecap="round" stroke-linejoin="round" transform="matrix(1,0,0,1,620.4136,54.404)"></path>
  </g>
</svg>
