
<svg xmlns="http://www.w3.org/2000/svg" height="89.99999999999997" version="1.1" width="99.28203230275506" style="overflow:hidden;" viewBox="0 0 119 109">
  <g transform="translate(-496, -194)">
    <defs></defs>
    <circle cx="500.3205080756888" cy="164.00000000000003" r="24" fill="none" stroke="#00cc00" stroke-width="0.96" transform="matrix(1,0,0,1,40,40)" style="display:none;"></circle>
    <circle cx="534.9615242270663" cy="224.00000000000003" r="24" fill="none" stroke="#00cc00" stroke-width="0.96" transform="matrix(1,0,0,1,40,40)" style="display:none;"></circle>
    <circle cx="465.67949192431126" cy="224.00000000000003" r="24" fill="none" stroke="#00cc00" stroke-width="0.96" transform="matrix(1,0,0,1,40,40)" style="display:none;"></circle>
    <text x="500.3205080756888" y="164.00000000000003" text-anchor="middle" stroke="none" fill="#000000" style="font:24px Arial;" font-size="24px" transform="matrix(1,0,0,1,40,40)">
      <tspan dy="8.500000000000028">O</tspan>
    </text>
    <text x="534.9615242270663" y="224.00000000000003" text-anchor="middle" stroke="none" fill="#000000" style="font:24px Arial;" font-size="24px" transform="matrix(1,0,0,1,40,40)">
      <tspan dy="8.500000000000028">H</tspan>
    </text>
    <text x="465.67949192431126" y="224.00000000000003" text-anchor="middle" stroke="none" fill="#000000" style="font:24px Arial;" font-size="24px" transform="matrix(1,0,0,1,40,40)">
      <tspan dy="8.500000000000028">H</tspan>
    </text>
    <path fill="none" stroke="#000000" d="M477.09940629,217.40670937L500.32050808,204" stroke-width="1.6" stroke-linecap="round" stroke-linejoin="round" transform="matrix(1,0,0,1,40,40)" style="stroke-linecap:round;stroke-linejoin:round;"></path>
    <path fill="none" stroke="#000000" d="M500.32050808,204L523.50996871,217.38844134" stroke-width="1.6" stroke-linecap="round" stroke-linejoin="round" transform="matrix(1,0,0,1,40,40)" style="stroke-linecap:round;stroke-linejoin:round;"></path>
    <path fill="none" stroke="#000000" d="M503.65384141,204L503.65384141,180.7M496.98717474,204L496.98717474,180.7" stroke-width="1.6" stroke-linecap="round" stroke-linejoin="round" transform="matrix(1,0,0,1,40,40)" style="stroke-linecap:round;stroke-linejoin:round;"></path>
  </g>
</svg>
