<?xml version="1.0"?>
<svg xmlns="http://www.w3.org/2000/svg" height="284.3703497142179" version="1.1" width="433.5398344504491" style="overflow: hidden; position: relative;" viewBox="0 0 453 304">
  <g transform="translate(-571, -126)">
    <defs style="-webkit-tap-highlight-color: rgba(0, 0, 0, 0);"/>
    <circle cx="217.30582296998068" cy="345.7297857682352" r="24" fill="none" stroke="#00cc00" stroke-width="0.96" transform="matrix(1,0,0,1,363.7188,39.8766)" style="-webkit-tap-highlight-color: rgba(0, 0, 0, 0); display: none;"/>
    <text x="316.67581565426445" y="155.99990918814578" text-anchor="middle" font="30px &quot;Arial&quot;" stroke="none" fill="#000000" style="-webkit-tap-highlight-color: rgba(0, 0, 0, 0); text-anchor: middle; font: 24px Arial;" font-size="24px" transform="matrix(1,0,0,1,363.7188,39.8766)">
      <tspan dy="8.507721688145779" style="-webkit-tap-highlight-color: rgba(0, 0, 0, 0);">C</tspan>
    </text>
    <text x="316.67581565426445" y="155.99990918814578" text-anchor="middle" font="30px &quot;Arial&quot;" stroke="none" fill="#000000" style="-webkit-tap-highlight-color: rgba(0, 0, 0, 0); text-anchor: middle; font: 24px Arial;" font-size="24px" transform="matrix(1,0,0,1,335.3062,39.8766)">
      <tspan dy="8.507721688145779" style="-webkit-tap-highlight-color: rgba(0, 0, 0, 0);">H</tspan>
    </text>
    <text x="316.67581565426445" y="155.99990918814578" text-anchor="middle" font="30px &quot;Arial&quot;" stroke="none" fill="#000000" style="-webkit-tap-highlight-color: rgba(0, 0, 0, 0); text-anchor: middle; font: 17px Arial;" font-size="17px" transform="matrix(1,0,0,1,349.5125,45.2797)">
      <tspan dy="5.507721688145779" style="-webkit-tap-highlight-color: rgba(0, 0, 0, 0);">3</tspan>
    </text>
    <text x="385.95577532448715" y="155.99990918814578" text-anchor="middle" font="30px &quot;Arial&quot;" stroke="none" fill="#000000" style="-webkit-tap-highlight-color: rgba(0, 0, 0, 0); text-anchor: middle; font: 24px Arial;" font-size="24px" transform="matrix(1,0,0,1,363.7188,39.8766)">
      <tspan dy="8.507721688145779" style="-webkit-tap-highlight-color: rgba(0, 0, 0, 0);">N</tspan>
    </text>
    <text x="351.3157954893758" y="95.99994411578201" text-anchor="middle" font="30px &quot;Arial&quot;" stroke="none" fill="#000000" style="-webkit-tap-highlight-color: rgba(0, 0, 0, 0); text-anchor: middle; font: 24px Arial;" font-size="24px" transform="matrix(1,0,0,1,363.7188,39.8766)">
      <tspan dy="8.507756615782014" style="-webkit-tap-highlight-color: rgba(0, 0, 0, 0);">C</tspan>
    </text>
    <text x="351.3157954893758" y="95.99994411578201" text-anchor="middle" font="30px &quot;Arial&quot;" stroke="none" fill="#000000" style="-webkit-tap-highlight-color: rgba(0, 0, 0, 0); text-anchor: middle; font: 24px Arial;" font-size="24px" transform="matrix(1,0,0,1,381.8625,39.8766)">
      <tspan dy="8.507756615782014" style="-webkit-tap-highlight-color: rgba(0, 0, 0, 0);">H</tspan>
    </text>
    <text x="351.3157954893758" y="95.99994411578201" text-anchor="middle" font="30px &quot;Arial&quot;" stroke="none" fill="#000000" style="-webkit-tap-highlight-color: rgba(0, 0, 0, 0); text-anchor: middle; font: 17px Arial;" font-size="17px" transform="matrix(1,0,0,1,396.0688,45.2797)">
      <tspan dy="5.507756615782014" style="-webkit-tap-highlight-color: rgba(0, 0, 0, 0);">3</tspan>
    </text>
    <text x="385.95577532448715" y="195.99988590305497" text-anchor="middle" font="30px &quot;Arial&quot;" stroke="none" fill="#000000" style="-webkit-tap-highlight-color: rgba(0, 0, 0, 0); text-anchor: middle; font: 24px Arial;" font-size="24px" transform="matrix(1,0,0,1,363.7188,39.8766)">
      <tspan dy="8.507698403054974" style="-webkit-tap-highlight-color: rgba(0, 0, 0, 0);">N</tspan>
    </text>
    <text x="455.23573499470984" y="155.99990918814578" text-anchor="middle" font="30px &quot;Arial&quot;" stroke="none" fill="#000000" style="-webkit-tap-highlight-color: rgba(0, 0, 0, 0); text-anchor: middle; font: 24px Arial;" font-size="24px" transform="matrix(1,0,0,1,363.7188,39.8766)">
      <tspan dy="8.507721688145779" style="-webkit-tap-highlight-color: rgba(0, 0, 0, 0);">C</tspan>
    </text>
    <text x="455.23573499470984" y="155.99990918814578" text-anchor="middle" font="30px &quot;Arial&quot;" stroke="none" fill="#000000" style="-webkit-tap-highlight-color: rgba(0, 0, 0, 0); text-anchor: middle; font: 24px Arial;" font-size="24px" transform="matrix(1,0,0,1,381.8625,39.8766)">
      <tspan dy="8.507721688145779" style="-webkit-tap-highlight-color: rgba(0, 0, 0, 0);">H</tspan>
    </text>
    <text x="455.23573499470984" y="155.99990918814578" text-anchor="middle" font="30px &quot;Arial&quot;" stroke="none" fill="#000000" style="-webkit-tap-highlight-color: rgba(0, 0, 0, 0); text-anchor: middle; font: 17px Arial;" font-size="17px" transform="matrix(1,0,0,1,396.0688,45.2797)">
      <tspan dy="5.507721688145779" style="-webkit-tap-highlight-color: rgba(0, 0, 0, 0);">3</tspan>
    </text>
    <text x="420.59975515727" y="95.99994411578201" text-anchor="middle" font="30px &quot;Arial&quot;" stroke="none" fill="#000000" style="-webkit-tap-highlight-color: rgba(0, 0, 0, 0); text-anchor: middle; font: 24px Arial;" font-size="24px" transform="matrix(1,0,0,1,363.7188,39.8766)">
      <tspan dy="8.507756615782014" style="-webkit-tap-highlight-color: rgba(0, 0, 0, 0);">C</tspan>
    </text>
    <text x="420.59975515727" y="95.99994411578201" text-anchor="middle" font="30px &quot;Arial&quot;" stroke="none" fill="#000000" style="-webkit-tap-highlight-color: rgba(0, 0, 0, 0); text-anchor: middle; font: 24px Arial;" font-size="24px" transform="matrix(1,0,0,1,381.8625,39.8766)">
      <tspan dy="8.507756615782014" style="-webkit-tap-highlight-color: rgba(0, 0, 0, 0);">H</tspan>
    </text>
    <text x="420.59975515727" y="95.99994411578201" text-anchor="middle" font="30px &quot;Arial&quot;" stroke="none" fill="#000000" style="-webkit-tap-highlight-color: rgba(0, 0, 0, 0); text-anchor: middle; font: 17px Arial;" font-size="17px" transform="matrix(1,0,0,1,396.0609,45.2797)">
      <tspan dy="5.507756615782014" style="-webkit-tap-highlight-color: rgba(0, 0, 0, 0);">3</tspan>
    </text>
    <text x="420.59975515727" y="215.9918742651666" text-anchor="middle" font="30px &quot;Arial&quot;" stroke="none" fill="#000000" style="-webkit-tap-highlight-color: rgba(0, 0, 0, 0); text-anchor: middle; font: 24px Arial;" font-size="24px" transform="matrix(1,0,0,1,363.7188,39.8766)">
      <tspan dy="8.499686765166587" style="-webkit-tap-highlight-color: rgba(0, 0, 0, 0);">N</tspan>
    </text>
    <text x="388.23977399490843" y="279.5038372930993" text-anchor="middle" font="30px &quot;Arial&quot;" stroke="none" fill="#000000" style="-webkit-tap-highlight-color: rgba(0, 0, 0, 0); text-anchor: middle; font: 24px Arial;" font-size="24px" transform="matrix(1,0,0,1,363.7188,39.8766)">
      <tspan dy="8.49602479309931" style="-webkit-tap-highlight-color: rgba(0, 0, 0, 0);">N</tspan>
    </text>
    <text x="520.7276968700306" y="293.90382891046664" text-anchor="middle" font="30px &quot;Arial&quot;" stroke="none" fill="#000000" style="-webkit-tap-highlight-color: rgba(0, 0, 0, 0); text-anchor: middle; font: 24px Arial;" font-size="24px" transform="matrix(1,0,0,1,363.7188,39.8766)">
      <tspan dy="8.505391410466643" style="-webkit-tap-highlight-color: rgba(0, 0, 0, 0);">O</tspan>
    </text>
    <text x="499.3117093368682" y="228.01586726566828" text-anchor="middle" font="30px &quot;Arial&quot;" stroke="none" fill="#000000" style="-webkit-tap-highlight-color: rgba(0, 0, 0, 0); text-anchor: middle; font: 24px Arial;" font-size="24px" transform="matrix(1,0,0,1,363.7188,39.8766)">
      <tspan dy="8.492429765668277" style="-webkit-tap-highlight-color: rgba(0, 0, 0, 0);">O</tspan>
    </text>
    <text x="588.4956574204298" y="308.303820527834" text-anchor="middle" font="30px &quot;Arial&quot;" stroke="none" fill="#000000" style="-webkit-tap-highlight-color: rgba(0, 0, 0, 0); text-anchor: middle; font: 24px Arial;" font-size="24px" transform="matrix(1,0,0,1,363.7188,39.8766)">
      <tspan dy="8.499133027833977" style="-webkit-tap-highlight-color: rgba(0, 0, 0, 0);">C</tspan>
    </text>
    <text x="588.4956574204298" y="308.303820527834" text-anchor="middle" font="30px &quot;Arial&quot;" stroke="none" fill="#000000" style="-webkit-tap-highlight-color: rgba(0, 0, 0, 0); text-anchor: middle; font: 24px Arial;" font-size="24px" transform="matrix(1,0,0,1,381.8625,39.8766)">
      <tspan dy="8.499133027833977" style="-webkit-tap-highlight-color: rgba(0, 0, 0, 0);">H</tspan>
    </text>
    <text x="588.4956574204298" y="308.303820527834" text-anchor="middle" font="30px &quot;Arial&quot;" stroke="none" fill="#000000" style="-webkit-tap-highlight-color: rgba(0, 0, 0, 0); text-anchor: middle; font: 17px Arial;" font-size="17px" transform="matrix(1,0,0,1,396.0688,45.2797)">
      <tspan dy="5.499133027833977" style="-webkit-tap-highlight-color: rgba(0, 0, 0, 0);">3</tspan>
    </text>
    <text x="400.59976679981537" y="317.5518151443209" text-anchor="middle" font="30px &quot;Arial&quot;" stroke="none" fill="#000000" style="-webkit-tap-highlight-color: rgba(0, 0, 0, 0); text-anchor: middle; font: 24px Arial;" font-size="24px" transform="matrix(1,0,0,1,363.7188,39.8766)">
      <tspan dy="8.497127644320926" style="-webkit-tap-highlight-color: rgba(0, 0, 0, 0);">N</tspan>
    </text>
    <text x="217.30582296998068" y="345.7297857682352" text-anchor="middle" font="30px &quot;Arial&quot;" stroke="none" fill="#000000" style="-webkit-tap-highlight-color: rgba(0, 0, 0, 0); text-anchor: middle; font: 24px Arial;" font-size="24px" transform="matrix(1,0,0,1,363.7188,39.8766)">
      <tspan dy="8.503223268235217" style="-webkit-tap-highlight-color: rgba(0, 0, 0, 0);">Br</tspan>
    </text>
    <path fill="none" stroke="#000000" d="M328.11501097,149.39529296L351.31579549,135.99992083" stroke-width="1.6" stroke-linecap="round" stroke-linejoin="round" transform="matrix(1,0,0,1,363.7188,39.8766)" style="-webkit-tap-highlight-color: rgba(0, 0, 0, 0); stroke-linecap: round; stroke-linejoin: round;"/>
    <path fill="none" stroke="#000000" d="M351.31579549,135.99992083L374.50998903,149.39148754" stroke-width="1.6" stroke-linecap="round" stroke-linejoin="round" transform="matrix(1,0,0,1,363.7188,39.8766)" style="-webkit-tap-highlight-color: rgba(0, 0, 0, 0); stroke-linecap: round; stroke-linejoin: round;"/>
    <path fill="none" stroke="#000000" d="M351.31579549,135.99992083L351.31579549,112.715625" stroke-width="1.6" stroke-linecap="round" stroke-linejoin="round" transform="matrix(1,0,0,1,363.7188,39.8766)" style="-webkit-tap-highlight-color: rgba(0, 0, 0, 0); stroke-linecap: round; stroke-linejoin: round;"/>
    <path fill="none" stroke="#000000" d="M385.95577532,172.715625L385.95577532,179.3" stroke-width="1.6" stroke-linecap="round" stroke-linejoin="round" transform="matrix(1,0,0,1,363.7188,39.8766)" style="-webkit-tap-highlight-color: rgba(0, 0, 0, 0); stroke-linecap: round; stroke-linejoin: round;"/>
    <path fill="none" stroke="#000000" d="M397.39634096,149.39526444L420.59975516,135.99992083" stroke-width="1.6" stroke-linecap="round" stroke-linejoin="round" transform="matrix(1,0,0,1,363.7188,39.8766)" style="-webkit-tap-highlight-color: rgba(0, 0, 0, 0); stroke-linecap: round; stroke-linejoin: round;"/>
    <path fill="none" stroke="#000000" d="M420.59975516,135.99992083L443.79131905,149.39151564" stroke-width="1.6" stroke-linecap="round" stroke-linejoin="round" transform="matrix(1,0,0,1,363.7188,39.8766)" style="-webkit-tap-highlight-color: rgba(0, 0, 0, 0); stroke-linecap: round; stroke-linejoin: round;"/>
    <path fill="none" stroke="#000000" d="M420.59975516,135.99992083L420.59975516,112.715625" stroke-width="1.6" stroke-linecap="round" stroke-linejoin="round" transform="matrix(1,0,0,1,363.7188,39.8766)" style="-webkit-tap-highlight-color: rgba(0, 0, 0, 0); stroke-linecap: round; stroke-linejoin: round;"/>
    <path fill="none" stroke="#000000" d="M394.06450017,208.37625296L405.81813908,215.15892092M397.39661805,202.60204869L409.15025695,209.38471666" stroke-width="1.6" stroke-linecap="round" stroke-linejoin="round" transform="matrix(1,0,0,1,363.7188,39.8766)" style="-webkit-tap-highlight-color: rgba(0, 0, 0, 0); stroke-linecap: round; stroke-linejoin: round;"/>
    <path fill="none" stroke="#000000" d="M420.59975516,232.7L420.59975516,255.99185098" stroke-width="1.6" stroke-linecap="round" stroke-linejoin="round" transform="matrix(1,0,0,1,363.7188,39.8766)" style="-webkit-tap-highlight-color: rgba(0, 0, 0, 0); stroke-linecap: round; stroke-linejoin: round;"/>
    <path fill="none" stroke="#000000" d="M420.59975516,255.99185098L452.95573632,279.50383729" stroke-width="1.6" stroke-linecap="round" stroke-linejoin="round" transform="matrix(1,0,0,1,363.7188,39.8766)" style="-webkit-tap-highlight-color: rgba(0, 0, 0, 0); stroke-linecap: round; stroke-linejoin: round;"/>
    <path fill="none" stroke="#000000" d="M445.11897585,282.05006757L435.75181857,310.88514848M452.95573632,279.50383729L440.59574352,317.55181514" stroke-width="1.6" stroke-linecap="round" stroke-linejoin="round" transform="matrix(1,0,0,1,363.7188,39.8766)" style="-webkit-tap-highlight-color: rgba(0, 0, 0, 0); stroke-linecap: round; stroke-linejoin: round;"/>
    <path fill="none" stroke="#000000" d="M440.59574352,317.55181514L412.465625,317.55181514" stroke-width="1.6" stroke-linecap="round" stroke-linejoin="round" transform="matrix(1,0,0,1,363.7188,39.8766)" style="-webkit-tap-highlight-color: rgba(0, 0, 0, 0); stroke-linecap: round; stroke-linejoin: round;"/>
    <path fill="none" stroke="#000000" d="M403.41374972,276.71937483L420.59951294,264.23261139M399.49506315,271.3260141L420.59975516,255.99185098" stroke-width="1.6" stroke-linecap="round" stroke-linejoin="round" transform="matrix(1,0,0,1,363.7188,39.8766)" style="-webkit-tap-highlight-color: rgba(0, 0, 0, 0); stroke-linecap: round; stroke-linejoin: round;"/>
    <path fill="none" stroke="#000000" d="M393.61271075,296.04344067L395.22397867,301.00343433" stroke-width="1.6" stroke-linecap="round" stroke-linejoin="round" transform="matrix(1,0,0,1,363.7188,39.8766)" style="-webkit-tap-highlight-color: rgba(0, 0, 0, 0); stroke-linecap: round; stroke-linejoin: round;"/>
    <path fill="none" stroke="#000000" d="M452.95573632,279.50383729L490.99971418,267.13984449" stroke-width="1.6" stroke-linecap="round" stroke-linejoin="round" transform="matrix(1,0,0,1,363.7188,39.8766)" style="-webkit-tap-highlight-color: rgba(0, 0, 0, 0); stroke-linecap: round; stroke-linejoin: round;"/>
    <path fill="none" stroke="#000000" d="M390.04090544,332.08417111L377.08778049,349.91179631" stroke-width="1.6" stroke-linecap="round" stroke-linejoin="round" transform="matrix(1,0,0,1,363.7188,39.8766)" style="-webkit-tap-highlight-color: rgba(0, 0, 0, 0); stroke-linecap: round; stroke-linejoin: round;"/>
    <path fill="none" stroke="#000000" d="M490.99971418,267.13984449L509.01243381,283.35662424" stroke-width="1.6" stroke-linecap="round" stroke-linejoin="round" transform="matrix(1,0,0,1,363.7188,39.8766)" style="-webkit-tap-highlight-color: rgba(0, 0, 0, 0); stroke-linecap: round; stroke-linejoin: round;"/>
    <path fill="none" stroke="#000000" d="M494.26027502,267.83255949L499.03920361,245.33847842M487.73915333,266.44712949L492.51808191,243.95304841" stroke-width="1.6" stroke-linecap="round" stroke-linejoin="round" transform="matrix(1,0,0,1,363.7188,39.8766)" style="-webkit-tap-highlight-color: rgba(0, 0, 0, 0); stroke-linecap: round; stroke-linejoin: round;"/>
    <path fill="none" stroke="#000000" d="M533.1057855,289.88062471L558.76767473,281.53983611" stroke-width="1.6" stroke-linecap="round" stroke-linejoin="round" transform="matrix(1,0,0,1,363.7188,39.8766)" style="-webkit-tap-highlight-color: rgba(0, 0, 0, 0); stroke-linecap: round; stroke-linejoin: round;"/>
    <path fill="none" stroke="#000000" d="M558.76767473,281.53983611L577.44993381,298.35939956" stroke-width="1.6" stroke-linecap="round" stroke-linejoin="round" transform="matrix(1,0,0,1,363.7188,39.8766)" style="-webkit-tap-highlight-color: rgba(0, 0, 0, 0); stroke-linecap: round; stroke-linejoin: round;"/>
    <path fill="none" stroke="#000000" d="M377.08778049,349.91179631L337.30699633,345.72978577" stroke-width="1.6" stroke-linecap="round" stroke-linejoin="round" transform="matrix(1,0,0,1,363.7188,39.8766)" style="-webkit-tap-highlight-color: rgba(0, 0, 0, 0); stroke-linecap: round; stroke-linejoin: round;"/>
    <path fill="none" stroke="#000000" d="M337.30699633,345.72978577L317.30670299,380.37029383" stroke-width="1.6" stroke-linecap="round" stroke-linejoin="round" transform="matrix(1,0,0,1,363.7188,39.8766)" style="-webkit-tap-highlight-color: rgba(0, 0, 0, 0); stroke-linecap: round; stroke-linejoin: round;"/>
    <path fill="none" stroke="#000000" d="M313.45775765,373.70362717L281.15506165,373.70362717M317.30670299,380.37029383L277.30611631,380.37029383" stroke-width="1.6" stroke-linecap="round" stroke-linejoin="round" transform="matrix(1,0,0,1,363.7188,39.8766)" style="-webkit-tap-highlight-color: rgba(0, 0, 0, 0); stroke-linecap: round; stroke-linejoin: round;"/>
    <path fill="none" stroke="#000000" d="M277.30611631,380.37029383L257.30582297,345.72978577" stroke-width="1.6" stroke-linecap="round" stroke-linejoin="round" transform="matrix(1,0,0,1,363.7188,39.8766)" style="-webkit-tap-highlight-color: rgba(0, 0, 0, 0); stroke-linecap: round; stroke-linejoin: round;"/>
    <path fill="none" stroke="#000000" d="M265.00388301,345.72978577L281.15506165,317.75594437M257.30582297,345.72978577L277.30611631,311.0892777" stroke-width="1.6" stroke-linecap="round" stroke-linejoin="round" transform="matrix(1,0,0,1,363.7188,39.8766)" style="-webkit-tap-highlight-color: rgba(0, 0, 0, 0); stroke-linecap: round; stroke-linejoin: round;"/>
    <path fill="none" stroke="#000000" d="M277.30611631,311.0892777L317.30670299,311.0892777" stroke-width="1.6" stroke-linecap="round" stroke-linejoin="round" transform="matrix(1,0,0,1,363.7188,39.8766)" style="-webkit-tap-highlight-color: rgba(0, 0, 0, 0); stroke-linecap: round; stroke-linejoin: round;"/>
    <path fill="none" stroke="#000000" d="M313.45775765,317.75594437L329.60893629,345.72978577M317.30670299,311.0892777L337.30699633,345.72978577" stroke-width="1.6" stroke-linecap="round" stroke-linejoin="round" transform="matrix(1,0,0,1,363.7188,39.8766)" style="-webkit-tap-highlight-color: rgba(0, 0, 0, 0); stroke-linecap: round; stroke-linejoin: round;"/>
    <path fill="none" stroke="#000000" d="M257.30582297,345.72978577L233.5125,345.72978577" stroke-width="1.6" stroke-linecap="round" stroke-linejoin="round" transform="matrix(1,0,0,1,363.7188,39.8766)" style="-webkit-tap-highlight-color: rgba(0, 0, 0, 0); stroke-linecap: round; stroke-linejoin: round;"/>
  </g>
</svg>
