
<svg xmlns="http://www.w3.org/2000/svg" height="139.2844028734027" version="1.1" width="250.83692469999994" style="overflow:hidden;" viewBox="0 0 270 159">
  <g transform="translate(-661, -247)">
    <defs></defs>
    <circle cx="-45.36016721828916" cy="-40.00014745880882" r="24" fill="#77ff77" stroke="none" transform="matrix(1,0,0,1,751.0818,297.0391)" style="display:none;"></circle>
    <circle cx="-10.71603950421487" cy="-20.00007372940441" r="24" fill="#77ff77" stroke="none" transform="matrix(1,0,0,1,751.0818,297.0391)" style="display:none;"></circle>
    <circle cx="-10.71603950421487" cy="20.00007372940441" r="24" fill="#77ff77" stroke="none" transform="matrix(1,0,0,1,751.0818,297.0391)" style="display:none;"></circle>
    <circle cx="-45.36016721828916" cy="40.000147458808826" r="24" fill="#77ff77" stroke="none" transform="matrix(1,0,0,1,751.0818,297.0391)" style="display:none;"></circle>
    <circle cx="-80.00029491761765" cy="20.00007372940441" r="24" fill="#77ff77" stroke="none" transform="matrix(1,0,0,1,751.0818,297.0391)" style="display:none;"></circle>
    <circle cx="-80.00029491761765" cy="-20.00007372940441" r="24" fill="#77ff77" stroke="none" transform="matrix(1,0,0,1,751.0818,297.0391)" style="display:none;"></circle>
    <circle cx="27.324100729112317" cy="-32.360119294176336" r="24" fill="#77ff77" stroke="none" transform="matrix(1,0,0,1,751.0818,297.0391)" style="display:none;"></circle>
    <circle cx="50.83618740540014" cy="0" r="24" fill="#77ff77" stroke="none" transform="matrix(1,0,0,1,751.0818,297.0391)" style="display:none;"></circle>
    <circle cx="27.324100729112317" cy="32.360119294176336" r="24" fill="#77ff77" stroke="none" transform="matrix(1,0,0,1,751.0818,297.0391)" style="display:none;"></circle>
    <circle cx="90.83633486420895" cy="0" r="24" fill="#77ff77" stroke="none" transform="matrix(1,0,0,1,751.0818,297.0391)" style="display:none;"></circle>
    <circle cx="110.83640859361337" cy="34.64012769932844" r="24" fill="#77ff77" stroke="none" transform="matrix(1,0,0,1,751.0818,297.0391)" style="display:none;"></circle>
    <circle cx="150.8365560524222" cy="34.64012769932844" r="24" fill="#77ff77" stroke="none" transform="matrix(1,0,0,1,751.0818,297.0391)" style="display:none;"></circle>
    <circle cx="170.8366297818266" cy="0" r="24" fill="#77ff77" stroke="none" transform="matrix(1,0,0,1,751.0818,297.0391)" style="display:none;"></circle>
    <circle cx="150.8365560524222" cy="-34.64012769932844" r="24" fill="#77ff77" stroke="none" transform="matrix(1,0,0,1,751.0818,297.0391)" style="display:none;"></circle>
    <circle cx="110.83640859361337" cy="-34.64012769932844" r="24" fill="#77ff77" stroke="none" transform="matrix(1,0,0,1,751.0818,297.0391)" style="display:none;"></circle>
    <circle cx="90.83633486420895" cy="69.28425541340275" r="24" fill="#77ff77" stroke="none" transform="matrix(1,0,0,1,751.0818,297.0391)" style="display:none;"></circle>
    <circle cx="-28.03810336125202" cy="-30.00011059410661" r="19.200000000000003" fill="#77ff77" stroke="none" transform="matrix(1,0,0,1,751.0818,297.0391)" style="display:none;"></circle>
    <circle cx="-10.71603950421487" cy="0" r="19.200000000000003" fill="#77ff77" stroke="none" transform="matrix(1,0,0,1,751.0818,297.0391)" style="display:none;"></circle>
    <circle cx="-28.03810336125202" cy="30.00011059410662" r="19.200000000000003" fill="#77ff77" stroke="none" transform="matrix(1,0,0,1,751.0818,297.0391)" style="display:none;"></circle>
    <circle cx="-62.68023106795341" cy="30.00011059410662" r="19.200000000000003" fill="#77ff77" stroke="none" transform="matrix(1,0,0,1,751.0818,297.0391)" style="display:none;"></circle>
    <circle cx="-80.00029491761765" cy="0" r="19.200000000000003" fill="#77ff77" stroke="none" transform="matrix(1,0,0,1,751.0818,297.0391)" style="display:none;"></circle>
    <circle cx="-62.68023106795341" cy="-30.00011059410661" r="19.200000000000003" fill="#77ff77" stroke="none" transform="matrix(1,0,0,1,751.0818,297.0391)" style="display:none;"></circle>
    <circle cx="8.304030612448724" cy="-26.18009651179037" r="19.200000000000003" fill="#77ff77" stroke="none" transform="matrix(1,0,0,1,751.0818,297.0391)" style="display:none;"></circle>
    <circle cx="39.08014406725623" cy="-16.180059647088168" r="19.200000000000003" fill="#77ff77" stroke="none" transform="matrix(1,0,0,1,751.0818,297.0391)" style="display:none;"></circle>
    <circle cx="39.08014406725623" cy="16.180059647088168" r="19.200000000000003" fill="#77ff77" stroke="none" transform="matrix(1,0,0,1,751.0818,297.0391)" style="display:none;"></circle>
    <circle cx="8.304030612448724" cy="26.18009651179037" r="19.200000000000003" fill="#77ff77" stroke="none" transform="matrix(1,0,0,1,751.0818,297.0391)" style="display:none;"></circle>
    <circle cx="70.83626113480454" cy="0" r="19.200000000000003" fill="#77ff77" stroke="none" transform="matrix(1,0,0,1,751.0818,297.0391)" style="display:none;"></circle>
    <circle cx="100.83637172891116" cy="17.32006384966422" r="19.200000000000003" fill="#77ff77" stroke="none" transform="matrix(1,0,0,1,751.0818,297.0391)" style="display:none;"></circle>
    <circle cx="130.83648232301778" cy="34.64012769932844" r="19.200000000000003" fill="#77ff77" stroke="none" transform="matrix(1,0,0,1,751.0818,297.0391)" style="display:none;"></circle>
    <circle cx="160.8365929171244" cy="17.32006384966422" r="19.200000000000003" fill="#77ff77" stroke="none" transform="matrix(1,0,0,1,751.0818,297.0391)" style="display:none;"></circle>
    <circle cx="160.8365929171244" cy="-17.32006384966422" r="19.200000000000003" fill="#77ff77" stroke="none" transform="matrix(1,0,0,1,751.0818,297.0391)" style="display:none;"></circle>
    <circle cx="130.83648232301778" cy="-34.64012769932844" r="19.200000000000003" fill="#77ff77" stroke="none" transform="matrix(1,0,0,1,751.0818,297.0391)" style="display:none;"></circle>
    <circle cx="100.83637172891116" cy="-17.32006384966422" r="19.200000000000003" fill="#77ff77" stroke="none" transform="matrix(1,0,0,1,751.0818,297.0391)" style="display:none;"></circle>
    <circle cx="100.83637172891116" cy="51.96219155636559" r="19.200000000000003" fill="#77ff77" stroke="none" transform="matrix(1,0,0,1,751.0818,297.0391)" style="display:none;"></circle>
    <text x="27.324100729112317" y="-32.360119294176336" text-anchor="middle" stroke="none" fill="#000000" style="font:24px Arial;" font-size="24px" transform="matrix(1,0,0,1,751.0818,297.0391)">
      <tspan dy="8.507068205823664">S</tspan>
    </text>
    <text x="27.324100729112317" y="32.360119294176336" text-anchor="middle" stroke="none" fill="#000000" style="font:24px Arial;" font-size="24px" transform="matrix(1,0,0,1,751.0818,297.0391)">
      <tspan dy="8.492931794176336">N</tspan>
    </text>
    <text x="90.83633486420895" y="69.28425541340275" text-anchor="middle" stroke="none" fill="#000000" style="font:24px Arial;" font-size="24px" transform="matrix(1,0,0,1,751.0818,297.0391)">
      <tspan dy="8.495192913402747">O</tspan>
    </text>
    <text x="90.83633486420895" y="69.28425541340275" text-anchor="middle" stroke="none" fill="#000000" style="font:24px Arial;" font-size="24px" transform="matrix(1,0,0,1,732.2818,297.0391)">
      <tspan dy="8.495192913402747">H</tspan>
    </text>
    <path fill="none" stroke="#000000" d="M-45.36016722,-40.00014746L-10.7160395,-20.00007373" stroke-width="1.6" stroke-linecap="round" stroke-linejoin="round" transform="matrix(1,0,0,1,751.0818,297.0391)" style="stroke-linecap:round;stroke-linejoin:round;"></path>
    <path fill="none" stroke="#000000" d="M-17.38270617,-16.15090617L-17.38270617,16.15090617M-10.7160395,-20.00007373L-10.7160395,20.00007373" stroke-width="1.6" stroke-linecap="round" stroke-linejoin="round" transform="matrix(1,0,0,1,751.0818,297.0391)" style="stroke-linecap:round;stroke-linejoin:round;"></path>
    <path fill="none" stroke="#000000" d="M-10.7160395,20.00007373L-45.36016722,40.00014746" stroke-width="1.6" stroke-linecap="round" stroke-linejoin="round" transform="matrix(1,0,0,1,751.0818,297.0391)" style="stroke-linecap:round;stroke-linejoin:round;"></path>
    <path fill="none" stroke="#000000" d="M-45.35997478,32.30219852L-73.33362825,16.15112839M-45.36016722,40.00014746L-80.00029492,20.00007373" stroke-width="1.6" stroke-linecap="round" stroke-linejoin="round" transform="matrix(1,0,0,1,751.0818,297.0391)" style="stroke-linecap:round;stroke-linejoin:round;"></path>
    <path fill="none" stroke="#000000" d="M-80.00029492,20.00007373L-80.00029492,-20.00007373" stroke-width="1.6" stroke-linecap="round" stroke-linejoin="round" transform="matrix(1,0,0,1,751.0818,297.0391)" style="stroke-linecap:round;stroke-linejoin:round;"></path>
    <path fill="none" stroke="#000000" d="M-73.33362825,-16.15112839L-45.35997478,-32.30219852M-80.00029492,-20.00007373L-45.36016722,-40.00014746" stroke-width="1.6" stroke-linecap="round" stroke-linejoin="round" transform="matrix(1,0,0,1,751.0818,297.0391)" style="stroke-linecap:round;stroke-linejoin:round;"></path>
    <path fill="none" stroke="#000000" d="M-10.7160395,-20.00007373L16.26912044,-28.76812254" stroke-width="1.6" stroke-linecap="round" stroke-linejoin="round" transform="matrix(1,0,0,1,751.0818,297.0391)" style="stroke-linecap:round;stroke-linejoin:round;"></path>
    <path fill="none" stroke="#000000" d="M37.20909456,-18.75521966L50.83618741,0" stroke-width="1.6" stroke-linecap="round" stroke-linejoin="round" transform="matrix(1,0,0,1,751.0818,297.0391)" style="stroke-linecap:round;stroke-linejoin:round;"></path>
    <path fill="none" stroke="#000000" d="M42.59560298,0L32.48760882,13.91181911M50.83618741,0L37.88096956,17.83050568" stroke-width="1.6" stroke-linecap="round" stroke-linejoin="round" transform="matrix(1,0,0,1,751.0818,297.0391)" style="stroke-linecap:round;stroke-linejoin:round;"></path>
    <path fill="none" stroke="#000000" d="M15.61287044,28.55489305L-10.7160395,20.00007373" stroke-width="1.6" stroke-linecap="round" stroke-linejoin="round" transform="matrix(1,0,0,1,751.0818,297.0391)" style="stroke-linecap:round;stroke-linejoin:round;"></path>
    <path fill="none" stroke="#000000" d="M50.83618741,0L90.83633486,0" stroke-width="1.6" stroke-linecap="round" stroke-linejoin="round" transform="matrix(1,0,0,1,751.0818,297.0391)" style="stroke-linecap:round;stroke-linejoin:round;"></path>
    <path fill="none" stroke="#000000" d="M90.83633486,0L110.83640859,34.6401277" stroke-width="1.6" stroke-linecap="round" stroke-linejoin="round" transform="matrix(1,0,0,1,751.0818,297.0391)" style="stroke-linecap:round;stroke-linejoin:round;"></path>
    <path fill="none" stroke="#000000" d="M110.83640859,34.6401277L150.83655605,34.6401277M114.68535393,27.97346103L146.98761071,27.97346103" stroke-width="1.6" stroke-linecap="round" stroke-linejoin="round" transform="matrix(1,0,0,1,751.0818,297.0391)" style="stroke-linecap:round;stroke-linejoin:round;"></path>
    <path fill="none" stroke="#000000" d="M150.83655605,34.6401277L170.83662978,0" stroke-width="1.6" stroke-linecap="round" stroke-linejoin="round" transform="matrix(1,0,0,1,751.0818,297.0391)" style="stroke-linecap:round;stroke-linejoin:round;"></path>
    <path fill="none" stroke="#000000" d="M170.83662978,0L150.83655605,-34.6401277M163.13856974,0L146.98761071,-27.97346103" stroke-width="1.6" stroke-linecap="round" stroke-linejoin="round" transform="matrix(1,0,0,1,751.0818,297.0391)" style="stroke-linecap:round;stroke-linejoin:round;"></path>
    <path fill="none" stroke="#000000" d="M150.83655605,-34.6401277L110.83640859,-34.6401277" stroke-width="1.6" stroke-linecap="round" stroke-linejoin="round" transform="matrix(1,0,0,1,751.0818,297.0391)" style="stroke-linecap:round;stroke-linejoin:round;"></path>
    <path fill="none" stroke="#000000" d="M110.83640859,-34.6401277L90.83633486,0M114.68535393,-27.97346103L98.53439491,0" stroke-width="1.6" stroke-linecap="round" stroke-linejoin="round" transform="matrix(1,0,0,1,751.0818,297.0391)" style="stroke-linecap:round;stroke-linejoin:round;"></path>
    <path fill="none" stroke="#000000" d="M110.83640859,34.6401277L100.24054418,52.99428404" stroke-width="1.6" stroke-linecap="round" stroke-linejoin="round" transform="matrix(1,0,0,1,751.0818,297.0391)" style="stroke-linecap:round;stroke-linejoin:round;"></path>
  </g>
</svg>
