
<svg xmlns="http://www.w3.org/2000/svg" height="144.6271025985116" version="1.1" width="442.4224246570798" style="overflow:hidden;" viewBox="0 0 462 164">
  <g transform="translate(-1775, -298)">
    <defs></defs>
    <circle cx="1923.7929389333221" cy="348.2132738940714" r="19.200000000000003" fill="none" stroke="#00cc00" stroke-width="0.96" transform="matrix(1,0,0,1,0,0)" style="display:none;"></circle>
    <circle cx="2165.191049066196" cy="313.65754442534063" r="24" fill="none" stroke="#00cc00" stroke-width="0.96" transform="matrix(1,0,0,1,0,0)" style="display:none;"></circle>
    <circle cx="2065.3278308793306" cy="382.8850024546638" r="19.200000000000003" fill="none" stroke="#00cc00" stroke-width="0.96" transform="matrix(1,0,0,1,0,0)" style="display:none;"></circle>
    <circle cx="2035.304065930576" cy="365.55113815871005" r="19.200000000000003" fill="none" stroke="#00cc00" stroke-width="0.96" transform="matrix(1,0,0,1,0,0)" style="display:none;"></circle>
    <circle cx="2005.3463004651214" cy="348.21727386275626" r="19.200000000000003" fill="none" stroke="#00cc00" stroke-width="0.96" transform="matrix(1,0,0,1,0,0)" style="display:none;"></circle>
    <circle cx="1973.6385487000298" cy="364.41114708351745" r="19.200000000000003" fill="none" stroke="#00cc00" stroke-width="0.96" transform="matrix(1,0,0,1,0,0)" style="display:none;"></circle>
    <circle cx="1906.4570746530258" cy="378.23903882716866" r="19.200000000000003" fill="none" stroke="#00cc00" stroke-width="0.96" transform="matrix(1,0,0,1,0,0)" style="display:none;"></circle>
    <circle cx="1889.1212103727296" cy="388.248960461096" r="24" fill="none" stroke="#00cc00" stroke-width="0.96" transform="matrix(1,0,0,1,0,0)" style="display:none;"></circle>
    <text x="2165.191049066196" y="313.65754442534063" text-anchor="middle" stroke="none" fill="#000000" style="font:24px Arial;" font-size="24px" transform="matrix(1,0,0,1,0,0)">
      <tspan dy="8.493481925340632">C</tspan>
    </text>
    <text x="2165.191049066196" y="313.65754442534063" text-anchor="middle" stroke="none" fill="#000000" style="font:24px Arial;" font-size="24px" transform="matrix(1,0,0,1,18.1438,0)">
      <tspan dy="8.493481925340632">H</tspan>
    </text>
    <text x="2165.191049066196" y="313.65754442534063" text-anchor="middle" stroke="none" fill="#000000" style="font:17px Arial;" font-size="17px" transform="matrix(1,0,0,1,32.35,5.4031)">
      <tspan dy="5.493481925340632">3</tspan>
    </text>
    <text x="2165.2750484085786" y="382.8850024546638" text-anchor="middle" stroke="none" fill="#000000" style="font:24px Arial;" font-size="24px" transform="matrix(1,0,0,1,0,0)">
      <tspan dy="8.502189954663777">C</tspan>
    </text>
    <text x="2165.2750484085786" y="382.8850024546638" text-anchor="middle" stroke="none" fill="#000000" style="font:24px Arial;" font-size="24px" transform="matrix(1,0,0,1,18.1594,0)">
      <tspan dy="8.502189954663777">H</tspan>
    </text>
    <text x="2165.2750484085786" y="382.8850024546638" text-anchor="middle" stroke="none" fill="#000000" style="font:17px Arial;" font-size="17px" transform="matrix(1,0,0,1,32.3734,5.4031)">
      <tspan dy="5.502189954663777">3</tspan>
    </text>
    <text x="1799.8219094826482" y="353.6932309923652" text-anchor="middle" stroke="none" fill="#000000" style="font:24px Arial;" font-size="24px" transform="matrix(1,0,0,1,0,0)">
      <tspan dy="8.497918492365216">F</tspan>
    </text>
    <text x="1785.2260237514988" y="408.18480438656815" text-anchor="middle" stroke="none" fill="#000000" style="font:24px Arial;" font-size="24px" transform="matrix(1,0,0,1,0,0)">
      <tspan dy="8.505116886568146">F</tspan>
    </text>
    <text x="1839.7175971457018" y="422.8086898985116" text-anchor="middle" stroke="none" fill="#000000" style="font:24px Arial;" font-size="24px" transform="matrix(1,0,0,1,0,0)">
      <tspan dy="8.504002398511602">F</tspan>
    </text>
    <text x="1961.8806407508073" y="380.6050203042787" text-anchor="middle" stroke="none" fill="#000000" style="font:24px Arial;" font-size="24px" transform="matrix(1,0,0,1,0,0)">
      <tspan dy="8.503457804278696">N</tspan>
    </text>
    <text x="1961.8806407508073" y="315.8255274525489" text-anchor="middle" stroke="none" fill="#000000" style="font:24px Arial;" font-size="24px" transform="matrix(1,0,0,1,0,0)">
      <tspan dy="8.505214952548897">S</tspan>
    </text>
    <path fill="none" stroke="#000000" d="M1923.79293893,368.22911719L1923.79293893,328.19743059M1917.12627227,364.38031839L1917.12627227,332.04661396" stroke-width="1.6" stroke-linecap="round" stroke-linejoin="round" transform="matrix(1,0,0,1,0,0)" style="stroke-linecap:round;stroke-linejoin:round;"></path>
    <text x="2145.255205140724" y="348.21727386275626" text-anchor="middle" stroke="none" fill="#000000" style="font:24px Arial;" font-size="24px" transform="matrix(1,0,0,1,0,0)">
      <tspan dy="8.506336362756258">N</tspan>
    </text>
    <path fill="none" stroke="#000000" d="M1854.45348178,328.19743059L1854.45348178,368.22911719" stroke-width="1.6" stroke-linecap="round" stroke-linejoin="round" transform="matrix(1,0,0,1,0,0)" style="stroke-linecap:round;stroke-linejoin:round;"></path>
    <path fill="none" stroke="#000000" d="M1854.45348178,368.22911719L1889.12121037,388.24896046M1861.12014845,364.38054043L1889.12140269,380.55064283" stroke-width="1.6" stroke-linecap="round" stroke-linejoin="round" transform="matrix(1,0,0,1,0,0)" style="stroke-linecap:round;stroke-linejoin:round;"></path>
    <path fill="none" stroke="#000000" d="M1889.12121037,388.24896046L1923.79293893,368.22911719" stroke-width="1.6" stroke-linecap="round" stroke-linejoin="round" transform="matrix(1,0,0,1,0,0)" style="stroke-linecap:round;stroke-linejoin:round;"></path>
    <path fill="none" stroke="#000000" d="M1923.79293893,328.19743059L1889.12121037,308.1815873" stroke-width="1.6" stroke-linecap="round" stroke-linejoin="round" transform="matrix(1,0,0,1,0,0)" style="stroke-linecap:round;stroke-linejoin:round;"></path>
    <path fill="none" stroke="#000000" d="M1889.12121037,308.1815873L1854.45348178,328.19743059M1889.12140266,315.87952033L1861.12014845,332.04639192" stroke-width="1.6" stroke-linecap="round" stroke-linejoin="round" transform="matrix(1,0,0,1,0,0)" style="stroke-linecap:round;stroke-linejoin:round;"></path>
    <path fill="none" stroke="#000000" d="M1923.79293893,368.22911719L1950.15975492,376.79653251" stroke-width="1.6" stroke-linecap="round" stroke-linejoin="round" transform="matrix(1,0,0,1,0,0)" style="stroke-linecap:round;stroke-linejoin:round;"></path>
    <path fill="none" stroke="#000000" d="M1972.42698922,366.07979772L1985.39645665,348.21727386M1967.03233422,362.1628931L1977.15802488,348.21703201" stroke-width="1.6" stroke-linecap="round" stroke-linejoin="round" transform="matrix(1,0,0,1,0,0)" style="stroke-linecap:round;stroke-linejoin:round;"></path>
    <path fill="none" stroke="#000000" d="M1985.39645665,348.21727386L1971.77058719,329.44838614" stroke-width="1.6" stroke-linecap="round" stroke-linejoin="round" transform="matrix(1,0,0,1,0,0)" style="stroke-linecap:round;stroke-linejoin:round;"></path>
    <path fill="none" stroke="#000000" d="M1950.83153599,319.41457188L1923.79293893,328.19743059" stroke-width="1.6" stroke-linecap="round" stroke-linejoin="round" transform="matrix(1,0,0,1,0,0)" style="stroke-linecap:round;stroke-linejoin:round;"></path>
    <path fill="none" stroke="#000000" d="M1985.39645665,348.21727386L2025.29614428,348.21727386" stroke-width="1.6" stroke-linecap="round" stroke-linejoin="round" transform="matrix(1,0,0,1,0,0)" style="stroke-linecap:round;stroke-linejoin:round;"></path>
    <path fill="none" stroke="#000000" d="M2025.29614428,348.21727386L2045.31198758,382.88500245" stroke-width="1.6" stroke-linecap="round" stroke-linejoin="round" transform="matrix(1,0,0,1,0,0)" style="stroke-linecap:round;stroke-linejoin:round;"></path>
    <path fill="none" stroke="#000000" d="M2045.31198758,382.88500245L2085.34367418,382.88500245M2049.16094891,376.21833579L2081.49509742,376.21833579" stroke-width="1.6" stroke-linecap="round" stroke-linejoin="round" transform="matrix(1,0,0,1,0,0)" style="stroke-linecap:round;stroke-linejoin:round;"></path>
    <path fill="none" stroke="#000000" d="M2085.34367418,382.88500245L2105.36351745,348.21727386" stroke-width="1.6" stroke-linecap="round" stroke-linejoin="round" transform="matrix(1,0,0,1,0,0)" style="stroke-linecap:round;stroke-linejoin:round;"></path>
    <path fill="none" stroke="#000000" d="M2105.36351745,348.21727386L2085.34367418,313.5455453M2097.66519981,348.21708155L2081.49487537,320.21221197" stroke-width="1.6" stroke-linecap="round" stroke-linejoin="round" transform="matrix(1,0,0,1,0,0)" style="stroke-linecap:round;stroke-linejoin:round;"></path>
    <path fill="none" stroke="#000000" d="M2085.34367418,313.5455453L2045.31198758,313.5455453" stroke-width="1.6" stroke-linecap="round" stroke-linejoin="round" transform="matrix(1,0,0,1,0,0)" style="stroke-linecap:round;stroke-linejoin:round;"></path>
    <path fill="none" stroke="#000000" d="M2045.31198758,313.5455453L2025.29614428,348.21727386M2049.16117094,320.21221197L2032.99407732,348.21708158" stroke-width="1.6" stroke-linecap="round" stroke-linejoin="round" transform="matrix(1,0,0,1,0,0)" style="stroke-linecap:round;stroke-linejoin:round;"></path>
    <path fill="none" stroke="#000000" d="M2105.36351745,348.21727386L2133.378125,348.21727386" stroke-width="1.6" stroke-linecap="round" stroke-linejoin="round" transform="matrix(1,0,0,1,0,0)" style="stroke-linecap:round;stroke-linejoin:round;"></path>
    <path fill="none" stroke="#000000" d="M2154.64081735,331.94687067L2155.80533203,329.92812933" stroke-width="1.6" stroke-linecap="round" stroke-linejoin="round" transform="matrix(1,0,0,1,0,0)" style="stroke-linecap:round;stroke-linejoin:round;"></path>
    <path fill="none" stroke="#000000" d="M2154.66129585,364.50550326L2155.87305703,366.60387174" stroke-width="1.6" stroke-linecap="round" stroke-linejoin="round" transform="matrix(1,0,0,1,0,0)" style="stroke-linecap:round;stroke-linejoin:round;"></path>
    <path fill="none" stroke="#000000" d="M1854.45348178,368.22911719L1819.78175322,388.24896046" stroke-width="1.6" stroke-linecap="round" stroke-linejoin="round" transform="matrix(1,0,0,1,0,0)" style="stroke-linecap:round;stroke-linejoin:round;"></path>
    <path fill="none" stroke="#000000" d="M1819.78175322,388.24896046L1808.75679629,369.16186569" stroke-width="1.6" stroke-linecap="round" stroke-linejoin="round" transform="matrix(1,0,0,1,0,0)" style="stroke-linecap:round;stroke-linejoin:round;"></path>
    <path fill="none" stroke="#000000" d="M1819.78175322,388.24896046L1795.33429922,402.35315201" stroke-width="1.6" stroke-linecap="round" stroke-linejoin="round" transform="matrix(1,0,0,1,0,0)" style="stroke-linecap:round;stroke-linejoin:round;"></path>
    <path fill="none" stroke="#000000" d="M1819.78175322,388.24896046L1830.77603628,407.30807073" stroke-width="1.6" stroke-linecap="round" stroke-linejoin="round" transform="matrix(1,0,0,1,0,0)" style="stroke-linecap:round;stroke-linejoin:round;"></path>
  </g>
</svg>
