
<svg xmlns="http://www.w3.org/2000/svg" height="55.39999999999998" version="1.1" width="196.94536460551012" style="overflow:hidden;" viewBox="0 0 216 75">
  <g transform="translate(-435, -237)">
    <defs></defs>
    <circle cx="572.2435565298214" cy="226.99999999999994" r="24" fill="none" stroke="#00cc00" stroke-width="0.96" transform="matrix(1,0,0,1,40,40)" style="display:none;"></circle>
    <text x="433.67949192431126" y="227.00000000000003" text-anchor="middle" stroke="none" fill="#000000" style="font-style:normal;font-variant:normal;font-weight:normal;font-size:24px;line-height:normal;font-family:Arial;" font-size="24px" transform="matrix(1,0,0,1,40,40)">
      <tspan dy="8.500000000000028">C</tspan>
    </text>
    <text x="433.67949192431126" y="227.00000000000003" text-anchor="middle" stroke="none" fill="#000000" style="font-style:normal;font-variant:normal;font-weight:normal;font-size:24px;line-height:normal;font-family:Arial;" font-size="24px" transform="matrix(1,0,0,1,11.6187,40)">
      <tspan dy="8.500000000000028">H</tspan>
    </text>
    <text x="433.67949192431126" y="227.00000000000003" text-anchor="middle" stroke="none" fill="#000000" style="font-style:normal;font-variant:normal;font-weight:normal;font-size:17px;line-height:normal;font-family:Arial;" font-size="17px" transform="matrix(1,0,0,1,25.8094,45.4)">
      <tspan dy="5.500000000000028">3</tspan>
    </text>
    <text x="572.2435565298214" y="226.99999999999994" text-anchor="middle" stroke="none" fill="#000000" style="font-style:normal;font-variant:normal;font-weight:normal;font-size:24px;line-height:normal;font-family:Arial;" font-size="24px" transform="matrix(1,0,0,1,40,40)">
      <tspan dy="8.499999999999943">I</tspan>
    </text>
    <path fill="none" stroke="#000000" d="M445.09940629,220.40670937L468.32050808,207" stroke-width="1.6" stroke-linecap="round" stroke-linejoin="round" transform="matrix(1,0,0,1,40,40)" style="stroke-linecap:round;stroke-linejoin:round;"></path>
    <path fill="none" stroke="#000000" d="M468.32050808,207L502.96152423,227" stroke-width="1.6" stroke-linecap="round" stroke-linejoin="round" transform="matrix(1,0,0,1,40,40)" style="stroke-linecap:round;stroke-linejoin:round;"></path>
    <path fill="none" stroke="#000000" d="M502.96152423,227L537.60254038,207" stroke-width="1.6" stroke-linecap="round" stroke-linejoin="round" transform="matrix(1,0,0,1,40,40)" style="stroke-linecap:round;stroke-linejoin:round;"></path>
    <path fill="none" stroke="#000000" d="M537.60254038,207L566.13496871,223.47320518" stroke-width="1.6" stroke-linecap="round" stroke-linejoin="round" transform="matrix(1,0,0,1,40,40)" style="stroke-linecap:round;stroke-linejoin:round;"></path>
  </g>
</svg>
