
<svg xmlns="http://www.w3.org/2000/svg" height="209.99933717617128" version="1.1" width="346.4107243899999" style="overflow:hidden;" viewBox="0 0 366 229">
  <g transform="translate(-613, -206)">
    <defs></defs>
    <text x="138.563489759448" y="-79.99970541234259" text-anchor="middle" stroke="none" fill="#000000" style="font:24px Arial;" font-size="24px" transform="matrix(1,0,0,1,692.5784,355.4999)">
      <tspan dy="8.492482087657407">O</tspan>
    </text>
    <text x="0" y="39.999852706171296" text-anchor="middle" stroke="none" fill="#000000" style="font:24px Arial;" font-size="24px" transform="matrix(1,0,0,1,692.5784,355.4999)">
      <tspan dy="8.507665206171296">S</tspan>
    </text>
    <text x="-34.63987244354434" y="-19.999926353085648" text-anchor="middle" stroke="none" fill="#000000" style="font:24px Arial;" font-size="24px" transform="matrix(1,0,0,1,692.5784,355.4999)">
      <tspan dy="8.500073646914352">S</tspan>
    </text>
    <path fill="none" stroke="#000000" d="M126.44748903,-73.00432393L103.92361732,-59.99977906" stroke-width="1.6" stroke-linecap="round" stroke-linejoin="round" transform="matrix(1,0,0,1,692.5784,355.4999)" style="stroke-linecap:round;stroke-linejoin:round;"></path>
    <path fill="none" stroke="#000000" d="M103.92361732,-59.99977906L103.92361732,-19.99992635" stroke-width="1.6" stroke-linecap="round" stroke-linejoin="round" transform="matrix(1,0,0,1,692.5784,355.4999)" style="stroke-linecap:round;stroke-linejoin:round;"></path>
    <path fill="none" stroke="#000000" d="M34.63987244,-19.99992635L0,0" stroke-width="1.6" stroke-linecap="round" stroke-linejoin="round" transform="matrix(1,0,0,1,692.5784,355.4999)" style="stroke-linecap:round;stroke-linejoin:round;"></path>
    <path fill="none" stroke="#000000" d="M173.2033622,-59.99977906L150.67751097,-73.00546684" stroke-width="1.6" stroke-linecap="round" stroke-linejoin="round" transform="matrix(1,0,0,1,692.5784,355.4999)" style="stroke-linecap:round;stroke-linejoin:round;"></path>
    <path fill="none" stroke="#000000" d="M69.28374487,-79.99970541L34.63987244,-59.99977906" stroke-width="1.6" stroke-linecap="round" stroke-linejoin="round" transform="matrix(1,0,0,1,692.5784,355.4999)" style="stroke-linecap:round;stroke-linejoin:round;"></path>
    <path fill="none" stroke="#000000" d="M97.25695065,-23.84887169L69.28355243,-7.69794894M103.92361732,-19.99992635L69.28374487,0" stroke-width="1.6" stroke-linecap="round" stroke-linejoin="round" transform="matrix(1,0,0,1,692.5784,355.4999)" style="stroke-linecap:round;stroke-linejoin:round;"></path>
    <path fill="none" stroke="#000000" d="M69.28374487,0L34.63987244,-19.99992635" stroke-width="1.6" stroke-linecap="round" stroke-linejoin="round" transform="matrix(1,0,0,1,692.5784,355.4999)" style="stroke-linecap:round;stroke-linejoin:round;"></path>
    <path fill="none" stroke="#000000" d="M34.63987244,-59.99977906L34.63987244,-19.99992635M41.30653911,-56.1506115L41.30653911,-23.84909391" stroke-width="1.6" stroke-linecap="round" stroke-linejoin="round" transform="matrix(1,0,0,1,692.5784,355.4999)" style="stroke-linecap:round;stroke-linejoin:round;"></path>
    <path fill="none" stroke="#000000" d="M207.84723463,-79.99970541L173.2033622,-59.99977906" stroke-width="1.6" stroke-linecap="round" stroke-linejoin="round" transform="matrix(1,0,0,1,692.5784,355.4999)" style="stroke-linecap:round;stroke-linejoin:round;"></path>
    <path fill="none" stroke="#000000" d="M207.84723463,-119.99955812L207.84723463,-79.99970541M214.5139013,-116.15061278L214.5139013,-83.84865075" stroke-width="1.6" stroke-linecap="round" stroke-linejoin="round" transform="matrix(1,0,0,1,692.5784,355.4999)" style="stroke-linecap:round;stroke-linejoin:round;"></path>
    <path fill="none" stroke="#000000" d="M242.48710708,-59.99977906L207.84723463,-79.99970541" stroke-width="1.6" stroke-linecap="round" stroke-linejoin="round" transform="matrix(1,0,0,1,692.5784,355.4999)" style="stroke-linecap:round;stroke-linejoin:round;"></path>
    <path fill="none" stroke="#000000" d="M270.46031285,-83.84865075L242.48710708,-67.6978391M277.12697952,-79.99970541L242.48710708,-59.99977906" stroke-width="1.6" stroke-linecap="round" stroke-linejoin="round" transform="matrix(1,0,0,1,692.5784,355.4999)" style="stroke-linecap:round;stroke-linejoin:round;"></path>
    <path fill="none" stroke="#000000" d="M242.48710708,-139.99948447L207.84723463,-119.99955812" stroke-width="1.6" stroke-linecap="round" stroke-linejoin="round" transform="matrix(1,0,0,1,692.5784,355.4999)" style="stroke-linecap:round;stroke-linejoin:round;"></path>
    <path fill="none" stroke="#000000" d="M277.12697952,-119.99955812L277.12697952,-79.99970541" stroke-width="1.6" stroke-linecap="round" stroke-linejoin="round" transform="matrix(1,0,0,1,692.5784,355.4999)" style="stroke-linecap:round;stroke-linejoin:round;"></path>
    <path fill="none" stroke="#000000" d="M69.28355243,-72.30175648L97.25695065,-56.15083372M69.28374487,-79.99970541L103.92361732,-59.99977906" stroke-width="1.6" stroke-linecap="round" stroke-linejoin="round" transform="matrix(1,0,0,1,692.5784,355.4999)" style="stroke-linecap:round;stroke-linejoin:round;"></path>
    <path fill="none" stroke="#000000" d="M277.12697952,-119.99955812L242.48710708,-139.99948447M270.46031285,-116.15061278L242.48710708,-132.30142443" stroke-width="1.6" stroke-linecap="round" stroke-linejoin="round" transform="matrix(1,0,0,1,692.5784,355.4999)" style="stroke-linecap:round;stroke-linejoin:round;"></path>
    <path fill="none" stroke="#000000" d="M0,0L0,23.3" stroke-width="1.6" stroke-linecap="round" stroke-linejoin="round" transform="matrix(1,0,0,1,692.5784,355.4999)" style="stroke-linecap:round;stroke-linejoin:round;"></path>
    <path fill="none" stroke="#000000" d="M-10.78688597,46.22784691L-34.63987244,59.99977906" stroke-width="1.6" stroke-linecap="round" stroke-linejoin="round" transform="matrix(1,0,0,1,692.5784,355.4999)" style="stroke-linecap:round;stroke-linejoin:round;"></path>
    <path fill="none" stroke="#000000" d="M-34.63987244,59.99977906L-69.28374487,39.99985271" stroke-width="1.6" stroke-linecap="round" stroke-linejoin="round" transform="matrix(1,0,0,1,692.5784,355.4999)" style="stroke-linecap:round;stroke-linejoin:round;"></path>
    <path fill="none" stroke="#000000" d="M-69.28374487,39.99985271L-69.28374487,0" stroke-width="1.6" stroke-linecap="round" stroke-linejoin="round" transform="matrix(1,0,0,1,692.5784,355.4999)" style="stroke-linecap:round;stroke-linejoin:round;"></path>
    <path fill="none" stroke="#000000" d="M-69.28374487,0L-45.41196596,-13.78119092" stroke-width="1.6" stroke-linecap="round" stroke-linejoin="round" transform="matrix(1,0,0,1,692.5784,355.4999)" style="stroke-linecap:round;stroke-linejoin:round;"></path>
    <path fill="none" stroke="#000000" d="M-23.85373903,-13.77236665L0,0" stroke-width="1.6" stroke-linecap="round" stroke-linejoin="round" transform="matrix(1,0,0,1,692.5784,355.4999)" style="stroke-linecap:round;stroke-linejoin:round;"></path>
  </g>
</svg>
