
<svg xmlns="http://www.w3.org/2000/svg" height="110.08551278028631" version="1.1" width="476.1627833925627" style="overflow:hidden;" viewBox="0 0 496 130">
  <g transform="translate(-1781, -298)">
    <defs></defs>
    <circle cx="1888.6562560099253" cy="388.154301781168" r="24" fill="none" stroke="#00cc00" stroke-width="0.96" transform="matrix(1,0,0,1,0,0)" style="display:none;"></circle>
    <circle cx="2164.7424065442146" cy="382.7892468565804" r="24" fill="none" stroke="#00cc00" stroke-width="0.96" transform="matrix(1,0,0,1,0,0)" style="display:none;"></circle>
    <circle cx="2204.7661403966513" cy="382.7892468565804" r="24" fill="none" stroke="#00cc00" stroke-width="0.96" transform="matrix(1,0,0,1,0,0)" style="display:none;"></circle>
    <circle cx="2064.8187887175386" cy="382.7892468565804" r="19.200000000000003" fill="none" stroke="#00cc00" stroke-width="0.96" transform="matrix(1,0,0,1,0,0)" style="display:none;"></circle>
    <circle cx="2084.8306556437574" cy="382.7892468565804" r="24" fill="none" stroke="#00cc00" stroke-width="0.96" transform="matrix(1,0,0,1,0,0)" style="display:none;"></circle>
    <circle cx="2154.735412793571" cy="365.4599073926557" r="19.200000000000003" fill="none" stroke="#00cc00" stroke-width="0.96" transform="matrix(1,0,0,1,0,0)" style="display:none;"></circle>
    <circle cx="2184.754273470433" cy="382.7892468565804" r="19.200000000000003" fill="none" stroke="#00cc00" stroke-width="0.96" transform="matrix(1,0,0,1,0,0)" style="display:none;"></circle>
    <text x="2204.545600589475" y="313.58215890446996" text-anchor="middle" stroke="none" fill="#000000" style="font:24px Arial;" font-size="24px" transform="matrix(1,0,0,1,0,0)">
      <tspan dy="8.496221404469964">C</tspan>
    </text>
    <text x="2204.545600589475" y="313.58215890446996" text-anchor="middle" stroke="none" fill="#000000" style="font:24px Arial;" font-size="24px" transform="matrix(1,0,0,1,18.1438,0)">
      <tspan dy="8.496221404469964">H</tspan>
    </text>
    <text x="2204.545600589475" y="313.58215890446996" text-anchor="middle" stroke="none" fill="#000000" style="font:17px Arial;" font-size="17px" transform="matrix(1,0,0,1,32.35,5.4031)">
      <tspan dy="5.4962214044699635">3</tspan>
    </text>
    <text x="2204.7661403966513" y="382.7892468565804" text-anchor="middle" stroke="none" fill="#000000" style="font:24px Arial;" font-size="24px" transform="matrix(1,0,0,1,0,0)">
      <tspan dy="8.500184356580405">C</tspan>
    </text>
    <text x="2204.7661403966513" y="382.7892468565804" text-anchor="middle" stroke="none" fill="#000000" style="font:24px Arial;" font-size="24px" transform="matrix(1,0,0,1,18.1438,0)">
      <tspan dy="8.500184356580405">H</tspan>
    </text>
    <text x="2204.7661403966513" y="382.7892468565804" text-anchor="middle" stroke="none" fill="#000000" style="font:17px Arial;" font-size="17px" transform="matrix(1,0,0,1,32.35,5.4031)">
      <tspan dy="5.500184356580405">3</tspan>
    </text>
    <text x="1819.3346570040885" y="308.1068340762941" text-anchor="middle" stroke="none" fill="#000000" style="font:24px Arial;" font-size="24px" transform="matrix(1,0,0,1,0,0)">
      <tspan dy="8.505271576294092">C</tspan>
    </text>
    <text x="1819.3346570040885" y="308.1068340762941" text-anchor="middle" stroke="none" fill="#000000" style="font:24px Arial;" font-size="24px" transform="matrix(1,0,0,1,-28.3813,0)">
      <tspan dy="8.505271576294092">H</tspan>
    </text>
    <text x="1819.3346570040885" y="308.1068340762941" text-anchor="middle" stroke="none" fill="#000000" style="font:17px Arial;" font-size="17px" transform="matrix(1,0,0,1,-14.1906,5.4031)">
      <tspan dy="5.505271576294092">3</tspan>
    </text>
    <text x="1961.3962220270014" y="380.5117492324669" text-anchor="middle" stroke="none" fill="#000000" style="font:24px Arial;" font-size="24px" transform="matrix(1,0,0,1,0,0)">
      <tspan dy="8.503936732466912">N</tspan>
    </text>
    <text x="1961.3962220270014" y="315.74938662499505" text-anchor="middle" stroke="none" fill="#000000" style="font:24px Arial;" font-size="24px" transform="matrix(1,0,0,1,0,0)">
      <tspan dy="8.507199124995054">S</tspan>
    </text>
    <path fill="none" stroke="#000000" d="M1923.31917609,368.14031428L1923.31917609,328.11658043M1916.65250942,364.29144146L1916.65250942,331.9658611" stroke-width="1.6" stroke-linecap="round" stroke-linejoin="round" transform="matrix(1,0,0,1,0,0)" style="stroke-linecap:round;stroke-linejoin:round;"></path>
    <text x="2144.728419042927" y="348.130567928731" text-anchor="middle" stroke="none" fill="#000000" style="font:24px Arial;" font-size="24px" transform="matrix(1,0,0,1,0,0)">
      <tspan dy="8.497755428731011">N</tspan>
    </text>
    <path fill="none" stroke="#000000" d="M1853.99757708,328.11658043L1853.99757708,368.14031428" stroke-width="1.6" stroke-linecap="round" stroke-linejoin="round" transform="matrix(1,0,0,1,0,0)" style="stroke-linecap:round;stroke-linejoin:round;"></path>
    <path fill="none" stroke="#000000" d="M1853.99757708,368.14031428L1888.65625601,388.15430178M1860.66424375,364.29167696L1888.65645997,380.45605145" stroke-width="1.6" stroke-linecap="round" stroke-linejoin="round" transform="matrix(1,0,0,1,0,0)" style="stroke-linecap:round;stroke-linejoin:round;"></path>
    <path fill="none" stroke="#000000" d="M1888.65625601,388.15430178L1923.31917609,368.14031428" stroke-width="1.6" stroke-linecap="round" stroke-linejoin="round" transform="matrix(1,0,0,1,0,0)" style="stroke-linecap:round;stroke-linejoin:round;"></path>
    <path fill="none" stroke="#000000" d="M1923.31917609,328.11658043L1888.65625601,308.10683408" stroke-width="1.6" stroke-linecap="round" stroke-linejoin="round" transform="matrix(1,0,0,1,0,0)" style="stroke-linecap:round;stroke-linejoin:round;"></path>
    <path fill="none" stroke="#000000" d="M1888.65625601,308.10683408L1853.99757708,328.11658043M1888.65645993,315.80467653L1860.66424375,331.96562562" stroke-width="1.6" stroke-linecap="round" stroke-linejoin="round" transform="matrix(1,0,0,1,0,0)" style="stroke-linecap:round;stroke-linejoin:round;"></path>
    <path fill="none" stroke="#000000" d="M1923.31917609,368.14031428L1949.67535629,376.70357755" stroke-width="1.6" stroke-linecap="round" stroke-linejoin="round" transform="matrix(1,0,0,1,0,0)" style="stroke-linecap:round;stroke-linejoin:round;"></path>
    <path fill="none" stroke="#000000" d="M1971.94271304,365.98749619L1984.90915839,348.13056793M1966.54820751,362.0703857L1976.67032274,348.13056793" stroke-width="1.6" stroke-linecap="round" stroke-linejoin="round" transform="matrix(1,0,0,1,0,0)" style="stroke-linecap:round;stroke-linejoin:round;"></path>
    <path fill="none" stroke="#000000" d="M1984.90915839,348.13056793L1971.28646304,329.36987546" stroke-width="1.6" stroke-linecap="round" stroke-linejoin="round" transform="matrix(1,0,0,1,0,0)" style="stroke-linecap:round;stroke-linejoin:round;"></path>
    <path fill="none" stroke="#000000" d="M1950.34713168,319.33806422L1923.31917609,328.11658043" stroke-width="1.6" stroke-linecap="round" stroke-linejoin="round" transform="matrix(1,0,0,1,0,0)" style="stroke-linecap:round;stroke-linejoin:round;"></path>
    <path fill="none" stroke="#000000" d="M1984.90915839,348.13056793L2024.79717544,348.13056793" stroke-width="1.6" stroke-linecap="round" stroke-linejoin="round" transform="matrix(1,0,0,1,0,0)" style="stroke-linecap:round;stroke-linejoin:round;"></path>
    <path fill="none" stroke="#000000" d="M2024.79717544,348.13056793L2044.80692179,382.78924686" stroke-width="1.6" stroke-linecap="round" stroke-linejoin="round" transform="matrix(1,0,0,1,0,0)" style="stroke-linecap:round;stroke-linejoin:round;"></path>
    <path fill="none" stroke="#000000" d="M2044.80692179,382.78924686L2084.83065564,382.78924686M2048.65596699,376.12258019L2080.98201832,376.12258019" stroke-width="1.6" stroke-linecap="round" stroke-linejoin="round" transform="matrix(1,0,0,1,0,0)" style="stroke-linecap:round;stroke-linejoin:round;"></path>
    <path fill="none" stroke="#000000" d="M2084.83065564,382.78924686L2104.84464315,348.13056793" stroke-width="1.6" stroke-linecap="round" stroke-linejoin="round" transform="matrix(1,0,0,1,0,0)" style="stroke-linecap:round;stroke-linejoin:round;"></path>
    <path fill="none" stroke="#000000" d="M2104.84464315,348.13056793L2084.83065564,313.46764785M2097.14639281,348.13036397L2080.98178283,320.13431452" stroke-width="1.6" stroke-linecap="round" stroke-linejoin="round" transform="matrix(1,0,0,1,0,0)" style="stroke-linecap:round;stroke-linejoin:round;"></path>
    <path fill="none" stroke="#000000" d="M2084.83065564,313.46764785L2044.80692179,313.46764785" stroke-width="1.6" stroke-linecap="round" stroke-linejoin="round" transform="matrix(1,0,0,1,0,0)" style="stroke-linecap:round;stroke-linejoin:round;"></path>
    <path fill="none" stroke="#000000" d="M2044.80692179,313.46764785L2024.79717544,348.13056793M2048.65620247,320.13431452L2032.4950179,348.13036401" stroke-width="1.6" stroke-linecap="round" stroke-linejoin="round" transform="matrix(1,0,0,1,0,0)" style="stroke-linecap:round;stroke-linejoin:round;"></path>
    <path fill="none" stroke="#000000" d="M2104.84464315,348.13056793L2132.8625,348.13056793" stroke-width="1.6" stroke-linecap="round" stroke-linejoin="round" transform="matrix(1,0,0,1,0,0)" style="stroke-linecap:round;stroke-linejoin:round;"></path>
    <path fill="none" stroke="#000000" d="M2154.11802732,331.85311549L2164.65758354,313.5821589" stroke-width="1.6" stroke-linecap="round" stroke-linejoin="round" transform="matrix(1,0,0,1,0,0)" style="stroke-linecap:round;stroke-linejoin:round;"></path>
    <path fill="none" stroke="#000000" d="M2164.65758354,313.5821589L2192.675,313.5821589" stroke-width="1.6" stroke-linecap="round" stroke-linejoin="round" transform="matrix(1,0,0,1,0,0)" style="stroke-linecap:round;stroke-linejoin:round;"></path>
    <path fill="none" stroke="#000000" d="M2154.1301587,364.41177507L2164.74240654,382.78924686" stroke-width="1.6" stroke-linecap="round" stroke-linejoin="round" transform="matrix(1,0,0,1,0,0)" style="stroke-linecap:round;stroke-linejoin:round;"></path>
    <path fill="none" stroke="#000000" d="M2164.74240654,382.78924686L2192.89375,382.78924686" stroke-width="1.6" stroke-linecap="round" stroke-linejoin="round" transform="matrix(1,0,0,1,0,0)" style="stroke-linecap:round;stroke-linejoin:round;"></path>
    <path fill="none" stroke="#000000" d="M1853.99757708,328.11658043L1830.77138168,314.70887336" stroke-width="1.6" stroke-linecap="round" stroke-linejoin="round" transform="matrix(1,0,0,1,0,0)" style="stroke-linecap:round;stroke-linejoin:round;"></path>
  </g>
</svg>
