<?xml version="1.0"?>
<svg xmlns="http://www.w3.org/2000/svg" height="308.4906252333068" version="1.1" width="418.6465091333205" style="overflow: hidden; position: relative;" viewBox="0 0 438 328">
  <g transform="translate(-615, -131)">
    <defs style="-webkit-tap-highlight-color: rgba(0, 0, 0, 0);"/>
    <circle cx="330.4563367530625" cy="286.16668331066484" r="24" fill="none" stroke="#00cc00" stroke-width="0.96" transform="matrix(1,0,0,1,403.5625,36.5234)" style="-webkit-tap-highlight-color: rgba(0, 0, 0, 0); display: none;"/>
    <circle cx="307.5948687840977" cy="351.6703098719214" r="24" fill="none" stroke="#00cc00" stroke-width="0.96" transform="matrix(1,0,0,1,403.5625,36.5234)" style="-webkit-tap-highlight-color: rgba(0, 0, 0, 0); display: none;"/>
    <circle cx="292.4564355211226" cy="364.74042227933586" r="19.200000000000003" fill="none" stroke="#00cc00" stroke-width="0.96" transform="matrix(1,0,0,1,403.5625,36.5234)" style="-webkit-tap-highlight-color: rgba(0, 0, 0, 0); display: none;"/>
    <circle cx="277.31800225814754" cy="377.8105346867503" r="24" fill="none" stroke="#00cc00" stroke-width="0.96" transform="matrix(1,0,0,1,403.5625,36.5234)" style="-webkit-tap-highlight-color: rgba(0, 0, 0, 0); display: none;"/>
    <text x="322.9320558530309" y="246.76121220688427" text-anchor="middle" font="30px &quot;Arial&quot;" stroke="none" fill="#000000" style="-webkit-tap-highlight-color: rgba(0, 0, 0, 0); text-anchor: middle; font-style: normal; font-variant: normal; font-weight: normal; font-stretch: normal; font-size: 24px; line-height: normal; font-family: Arial;" font-size="24px" transform="matrix(1,0,0,1,403.5625,36.5234)">
      <tspan dy="8.511212206884267" style="-webkit-tap-highlight-color: rgba(0, 0, 0, 0);">N</tspan>
    </text>
    <text x="402.24701687686206" y="104.71990945344352" text-anchor="middle" font="30px &quot;Arial&quot;" stroke="none" fill="#000000" style="-webkit-tap-highlight-color: rgba(0, 0, 0, 0); text-anchor: middle; font-style: normal; font-variant: normal; font-weight: normal; font-stretch: normal; font-size: 24px; line-height: normal; font-family: Arial;" font-size="24px" transform="matrix(1,0,0,1,403.5625,36.5234)">
      <tspan dy="8.50115945344352" style="-webkit-tap-highlight-color: rgba(0, 0, 0, 0);">O</tspan>
    </text>
    <text x="409.51128807008763" y="173.82248922380282" text-anchor="middle" font="30px &quot;Arial&quot;" stroke="none" fill="#000000" style="-webkit-tap-highlight-color: rgba(0, 0, 0, 0); text-anchor: middle; font-style: normal; font-variant: normal; font-weight: normal; font-stretch: normal; font-size: 24px; line-height: normal; font-family: Arial;" font-size="24px" transform="matrix(1,0,0,1,403.5625,36.5234)">
      <tspan dy="8.509989223802819" style="-webkit-tap-highlight-color: rgba(0, 0, 0, 0);">N</tspan>
    </text>
    <text x="393.1946789306784" y="210.4678572861045" text-anchor="middle" font="30px &quot;Arial&quot;" stroke="none" fill="#000000" style="-webkit-tap-highlight-color: rgba(0, 0, 0, 0); text-anchor: middle; font-style: normal; font-variant: normal; font-weight: normal; font-stretch: normal; font-size: 24px; line-height: normal; font-family: Arial;" font-size="24px" transform="matrix(1,0,0,1,403.5625,36.5234)">
      <tspan dy="8.514732286104504" style="-webkit-tap-highlight-color: rgba(0, 0, 0, 0);">H</tspan>
    </text>
    <text x="589.6420127959373" y="204.2676258161157" text-anchor="middle" font="30px &quot;Arial&quot;" stroke="none" fill="#000000" style="-webkit-tap-highlight-color: rgba(0, 0, 0, 0); text-anchor: middle; font-style: normal; font-variant: normal; font-weight: normal; font-stretch: normal; font-size: 24px; line-height: normal; font-family: Arial;" font-size="24px" transform="matrix(1,0,0,1,403.5625,36.5234)">
      <tspan dy="8.502000816115697" style="-webkit-tap-highlight-color: rgba(0, 0, 0, 0);">F</tspan>
    </text>
    <text x="589.6420127959373" y="134.98103917632446" text-anchor="middle" font="30px &quot;Arial&quot;" stroke="none" fill="#000000" style="-webkit-tap-highlight-color: rgba(0, 0, 0, 0); text-anchor: middle; font-style: normal; font-variant: normal; font-weight: normal; font-stretch: normal; font-size: 24px; line-height: normal; font-family: Arial;" font-size="24px" transform="matrix(1,0,0,1,403.5625,36.5234)">
      <tspan dy="8.512289176324458" style="-webkit-tap-highlight-color: rgba(0, 0, 0, 0);">F</tspan>
    </text>
    <text x="609.6427594733206" y="169.62633257088783" text-anchor="middle" font="30px &quot;Arial&quot;" stroke="none" fill="#000000" style="-webkit-tap-highlight-color: rgba(0, 0, 0, 0); text-anchor: middle; font-style: normal; font-variant: normal; font-weight: normal; font-stretch: normal; font-size: 24px; line-height: normal; font-family: Arial;" font-size="24px" transform="matrix(1,0,0,1,403.5625,36.5234)">
      <tspan dy="8.501332570887826" style="-webkit-tap-highlight-color: rgba(0, 0, 0, 0);">F</tspan>
    </text>
    <path fill="none" stroke="#000000" d="M283.81217763,194.39984194L283.81217763,226.8154993M290.47884429,190.55111374L290.47884429,230.66461128" stroke-width="1.6" stroke-linecap="round" stroke-linejoin="round" transform="matrix(1,0,0,1,403.5625,36.5234)" style="-webkit-tap-highlight-color: rgba(0, 0, 0, 0); stroke-linecap: round; stroke-linejoin: round;"/>
    <text x="277.31800225814754" y="377.8105346867503" text-anchor="middle" font="30px &quot;Arial&quot;" stroke="none" fill="#000000" style="-webkit-tap-highlight-color: rgba(0, 0, 0, 0); text-anchor: middle; font-style: normal; font-variant: normal; font-weight: normal; font-stretch: normal; font-size: 24px; line-height: normal; font-family: Arial;" font-size="24px" transform="matrix(1,0,0,1,403.5625,36.5234)">
      <tspan dy="8.513659686750316" style="-webkit-tap-highlight-color: rgba(0, 0, 0, 0);">C</tspan>
    </text>
    <text x="277.31800225814754" y="377.8105346867503" text-anchor="middle" font="30px &quot;Arial&quot;" stroke="none" fill="#000000" style="-webkit-tap-highlight-color: rgba(0, 0, 0, 0); text-anchor: middle; font-style: normal; font-variant: normal; font-weight: normal; font-stretch: normal; font-size: 24px; line-height: normal; font-family: Arial;" font-size="24px" transform="matrix(1,0,0,1,375.2125,36.5234)">
      <tspan dy="8.513659686750316" style="-webkit-tap-highlight-color: rgba(0, 0, 0, 0);">H</tspan>
    </text>
    <text x="277.31800225814754" y="377.8105346867503" text-anchor="middle" font="30px &quot;Arial&quot;" stroke="none" fill="#000000" style="-webkit-tap-highlight-color: rgba(0, 0, 0, 0); text-anchor: middle; font-style: normal; font-variant: normal; font-weight: normal; font-stretch: normal; font-size: 17px; line-height: normal; font-family: Arial;" font-size="17px" transform="matrix(1,0,0,1,389.3875,41.9234)">
      <tspan dy="5.513659686750316" style="-webkit-tap-highlight-color: rgba(0, 0, 0, 0);">3</tspan>
    </text>
    <path fill="none" stroke="#000000" d="M255.73754732,170.49036483L290.47884429,190.55111374" stroke-width="1.6" stroke-linecap="round" stroke-linejoin="round" transform="matrix(1,0,0,1,403.5625,36.5234)" style="-webkit-tap-highlight-color: rgba(0, 0, 0, 0); stroke-linecap: round; stroke-linejoin: round;"/>
    <path fill="none" stroke="#000000" d="M290.47884429,230.66461128L255.73754732,250.72136005" stroke-width="1.6" stroke-linecap="round" stroke-linejoin="round" transform="matrix(1,0,0,1,403.5625,36.5234)" style="-webkit-tap-highlight-color: rgba(0, 0, 0, 0); stroke-linecap: round; stroke-linejoin: round;"/>
    <path fill="none" stroke="#000000" d="M255.73754732,243.02346664L227.662917,226.8154993M255.73754732,250.72136005L220.99625034,230.66461128" stroke-width="1.6" stroke-linecap="round" stroke-linejoin="round" transform="matrix(1,0,0,1,403.5625,36.5234)" style="-webkit-tap-highlight-color: rgba(0, 0, 0, 0); stroke-linecap: round; stroke-linejoin: round;"/>
    <path fill="none" stroke="#000000" d="M220.99625034,230.66461128L220.99625034,190.55111374" stroke-width="1.6" stroke-linecap="round" stroke-linejoin="round" transform="matrix(1,0,0,1,403.5625,36.5234)" style="-webkit-tap-highlight-color: rgba(0, 0, 0, 0); stroke-linecap: round; stroke-linejoin: round;"/>
    <path fill="none" stroke="#000000" d="M227.662917,194.39984194L255.73754732,178.18864205M220.99625034,190.55111374L255.73754732,170.49036483" stroke-width="1.6" stroke-linecap="round" stroke-linejoin="round" transform="matrix(1,0,0,1,403.5625,36.5234)" style="-webkit-tap-highlight-color: rgba(0, 0, 0, 0); stroke-linecap: round; stroke-linejoin: round;"/>
    <path fill="none" stroke="#000000" d="M290.47884429,190.55111374L329.72030928,182.20680223" stroke-width="1.6" stroke-linecap="round" stroke-linejoin="round" transform="matrix(1,0,0,1,403.5625,36.5234)" style="-webkit-tap-highlight-color: rgba(0, 0, 0, 0); stroke-linecap: round; stroke-linejoin: round;"/>
    <path fill="none" stroke="#000000" d="M326.36869519,189.73520986L341.58177695,216.08654913M329.72030928,182.20680223L349.77705804,216.94809921" stroke-width="1.6" stroke-linecap="round" stroke-linejoin="round" transform="matrix(1,0,0,1,403.5625,36.5234)" style="-webkit-tap-highlight-color: rgba(0, 0, 0, 0); stroke-linecap: round; stroke-linejoin: round;"/>
    <path fill="none" stroke="#000000" d="M349.77705804,216.94809921L333.7193938,234.78117499" stroke-width="1.6" stroke-linecap="round" stroke-linejoin="round" transform="matrix(1,0,0,1,403.5625,36.5234)" style="-webkit-tap-highlight-color: rgba(0, 0, 0, 0); stroke-linecap: round; stroke-linejoin: round;"/>
    <path fill="none" stroke="#000000" d="M311.39887916,241.0408248L290.47884429,230.66461128" stroke-width="1.6" stroke-linecap="round" stroke-linejoin="round" transform="matrix(1,0,0,1,403.5625,36.5234)" style="-webkit-tap-highlight-color: rgba(0, 0, 0, 0); stroke-linecap: round; stroke-linejoin: round;"/>
    <path fill="none" stroke="#000000" d="M388.97965081,142.72086104L397.98191897,122.49776672M382.88916497,140.009694L391.89143313,119.78659968" stroke-width="1.6" stroke-linecap="round" stroke-linejoin="round" transform="matrix(1,0,0,1,403.5625,36.5234)" style="-webkit-tap-highlight-color: rgba(0, 0, 0, 0); stroke-linecap: round; stroke-linejoin: round;"/>
    <path fill="none" stroke="#000000" d="M385.93440789,141.36527752L398.96308073,159.30125502" stroke-width="1.6" stroke-linecap="round" stroke-linejoin="round" transform="matrix(1,0,0,1,403.5625,36.5234)" style="-webkit-tap-highlight-color: rgba(0, 0, 0, 0); stroke-linecap: round; stroke-linejoin: round;"/>
    <path fill="none" stroke="#000000" d="M402.19618178,190.25143963L400.50687836,194.04543537" stroke-width="1.6" stroke-linecap="round" stroke-linejoin="round" transform="matrix(1,0,0,1,403.5625,36.5234)" style="-webkit-tap-highlight-color: rgba(0, 0, 0, 0); stroke-linecap: round; stroke-linejoin: round;"/>
    <path fill="none" stroke="#000000" d="M421.33869716,172.57855979L449.40877754,169.62633257" stroke-width="1.6" stroke-linecap="round" stroke-linejoin="round" transform="matrix(1,0,0,1,403.5625,36.5234)" style="-webkit-tap-highlight-color: rgba(0, 0, 0, 0); stroke-linecap: round; stroke-linejoin: round;"/>
    <path fill="none" stroke="#000000" d="M326.11083797,263.40883719L330.45633675,286.16668331" stroke-width="1.6" stroke-linecap="round" stroke-linejoin="round" transform="matrix(1,0,0,1,403.5625,36.5234)" style="-webkit-tap-highlight-color: rgba(0, 0, 0, 0); stroke-linecap: round; stroke-linejoin: round;"/>
    <path fill="none" stroke="#000000" d="M330.45633675,286.16668331L300.0952033,312.37966191" stroke-width="1.6" stroke-linecap="round" stroke-linejoin="round" transform="matrix(1,0,0,1,403.5625,36.5234)" style="-webkit-tap-highlight-color: rgba(0, 0, 0, 0); stroke-linecap: round; stroke-linejoin: round;"/>
    <path fill="none" stroke="#000000" d="M449.40877754,169.62633257L469.46552631,134.88503559" stroke-width="1.6" stroke-linecap="round" stroke-linejoin="round" transform="matrix(1,0,0,1,403.5625,36.5234)" style="-webkit-tap-highlight-color: rgba(0, 0, 0, 0); stroke-linecap: round; stroke-linejoin: round;"/>
    <path fill="none" stroke="#000000" d="M473.31463829,141.55170226L505.73391201,141.55170226M469.46552631,134.88503559L509.583024,134.88503559" stroke-width="1.6" stroke-linecap="round" stroke-linejoin="round" transform="matrix(1,0,0,1,403.5625,36.5234)" style="-webkit-tap-highlight-color: rgba(0, 0, 0, 0); stroke-linecap: round; stroke-linejoin: round;"/>
    <path fill="none" stroke="#000000" d="M509.583024,134.88503559L529.63977276,169.62633257" stroke-width="1.6" stroke-linecap="round" stroke-linejoin="round" transform="matrix(1,0,0,1,403.5625,36.5234)" style="-webkit-tap-highlight-color: rgba(0, 0, 0, 0); stroke-linecap: round; stroke-linejoin: round;"/>
    <path fill="none" stroke="#000000" d="M521.94176856,169.62614066L505.73413362,197.69696273M529.63977276,169.62633257L509.583024,204.3636294" stroke-width="1.6" stroke-linecap="round" stroke-linejoin="round" transform="matrix(1,0,0,1,403.5625,36.5234)" style="-webkit-tap-highlight-color: rgba(0, 0, 0, 0); stroke-linecap: round; stroke-linejoin: round;"/>
    <path fill="none" stroke="#000000" d="M509.583024,204.3636294L469.46552631,204.3636294" stroke-width="1.6" stroke-linecap="round" stroke-linejoin="round" transform="matrix(1,0,0,1,403.5625,36.5234)" style="-webkit-tap-highlight-color: rgba(0, 0, 0, 0); stroke-linecap: round; stroke-linejoin: round;"/>
    <path fill="none" stroke="#000000" d="M473.31441669,197.69696273L457.10678174,169.62614066M469.46552631,204.3636294L449.40877754,169.62633257" stroke-width="1.6" stroke-linecap="round" stroke-linejoin="round" transform="matrix(1,0,0,1,403.5625,36.5234)" style="-webkit-tap-highlight-color: rgba(0, 0, 0, 0); stroke-linecap: round; stroke-linejoin: round;"/>
    <path fill="none" stroke="#000000" d="M529.63977276,169.62633257L569.64126612,169.62633257" stroke-width="1.6" stroke-linecap="round" stroke-linejoin="round" transform="matrix(1,0,0,1,403.5625,36.5234)" style="-webkit-tap-highlight-color: rgba(0, 0, 0, 0); stroke-linecap: round; stroke-linejoin: round;"/>
    <path fill="none" stroke="#000000" d="M569.64126612,169.62633257L580.7124648,188.80164869" stroke-width="1.6" stroke-linecap="round" stroke-linejoin="round" transform="matrix(1,0,0,1,403.5625,36.5234)" style="-webkit-tap-highlight-color: rgba(0, 0, 0, 0); stroke-linecap: round; stroke-linejoin: round;"/>
    <path fill="none" stroke="#000000" d="M569.64126612,169.62633257L580.71260336,150.4485622" stroke-width="1.6" stroke-linecap="round" stroke-linejoin="round" transform="matrix(1,0,0,1,403.5625,36.5234)" style="-webkit-tap-highlight-color: rgba(0, 0, 0, 0); stroke-linecap: round; stroke-linejoin: round;"/>
    <path fill="none" stroke="#000000" d="M569.64126612,169.62633257L599.1125,169.62633257" stroke-width="1.6" stroke-linecap="round" stroke-linejoin="round" transform="matrix(1,0,0,1,403.5625,36.5234)" style="-webkit-tap-highlight-color: rgba(0, 0, 0, 0); stroke-linecap: round; stroke-linejoin: round;"/>
    <path fill="none" stroke="#000000" d="M329.72030928,182.20680223L345.98891662,145.6614379" stroke-width="1.6" stroke-linecap="round" stroke-linejoin="round" transform="matrix(1,0,0,1,403.5625,36.5234)" style="-webkit-tap-highlight-color: rgba(0, 0, 0, 0); stroke-linecap: round; stroke-linejoin: round;"/>
    <path fill="none" stroke="#000000" d="M345.98891662,145.6614379L385.93440789,141.36527752" stroke-width="1.6" stroke-linecap="round" stroke-linejoin="round" transform="matrix(1,0,0,1,403.5625,36.5234)" style="-webkit-tap-highlight-color: rgba(0, 0, 0, 0); stroke-linecap: round; stroke-linejoin: round;"/>
    <path fill="none" stroke="#000000" d="M300.0952033,312.37966191L307.59486878,351.67030987" stroke-width="1.6" stroke-linecap="round" stroke-linejoin="round" transform="matrix(1,0,0,1,403.5625,36.5234)" style="-webkit-tap-highlight-color: rgba(0, 0, 0, 0); stroke-linecap: round; stroke-linejoin: round;"/>
    <path fill="none" stroke="#000000" d="M307.59486878,351.67030987L288.37527432,368.26398609" stroke-width="1.6" stroke-linecap="round" stroke-linejoin="round" transform="matrix(1,0,0,1,403.5625,36.5234)" style="-webkit-tap-highlight-color: rgba(0, 0, 0, 0); stroke-linecap: round; stroke-linejoin: round;"/>
  </g>
</svg>
