
<svg xmlns="http://www.w3.org/2000/svg" height="55.39999999999998" version="1.1" width="226.94536460551018" style="overflow:hidden;" viewBox="0 0 246 75">
  <g transform="translate(-204, -191)">
    <defs></defs>
    <circle cx="341.2435565298214" cy="181.0000000000001" r="24" fill="none" stroke="#00cc00" stroke-width="0.96" transform="matrix(1,0,0,1,40,40)" style="display:none;"></circle>
    <text x="202.6794919243112" y="181" text-anchor="middle" stroke="none" fill="#000000" style="font-style:normal;font-variant:normal;font-weight:normal;font-size:24px;line-height:normal;font-family:Arial;" font-size="24px" transform="matrix(1,0,0,1,40,40)">
      <tspan dy="8.5">C</tspan>
    </text>
    <text x="202.6794919243112" y="181" text-anchor="middle" stroke="none" fill="#000000" style="font-style:normal;font-variant:normal;font-weight:normal;font-size:24px;line-height:normal;font-family:Arial;" font-size="24px" transform="matrix(1,0,0,1,11.6187,40)">
      <tspan dy="8.5">H</tspan>
    </text>
    <text x="202.6794919243112" y="181" text-anchor="middle" stroke="none" fill="#000000" style="font-style:normal;font-variant:normal;font-weight:normal;font-size:17px;line-height:normal;font-family:Arial;" font-size="17px" transform="matrix(1,0,0,1,25.8094,45.4)">
      <tspan dy="5.5">3</tspan>
    </text>
    <text x="341.2435565298214" y="181.0000000000001" text-anchor="middle" stroke="none" fill="#000000" style="font-style:normal;font-variant:normal;font-weight:normal;font-size:24px;line-height:normal;font-family:Arial;" font-size="24px" transform="matrix(1,0,0,1,40,40)">
      <tspan dy="8.500000000000114">Li</tspan>
    </text>
    <path fill="none" stroke="#000000" d="M214.09940629,174.40670937L237.32050808,161" stroke-width="1.6" stroke-linecap="round" stroke-linejoin="round" transform="matrix(1,0,0,1,40,40)" style="stroke-linecap:round;stroke-linejoin:round;"></path>
    <path fill="none" stroke="#000000" d="M237.32050808,161L271.96152423,181" stroke-width="1.6" stroke-linecap="round" stroke-linejoin="round" transform="matrix(1,0,0,1,40,40)" style="stroke-linecap:round;stroke-linejoin:round;"></path>
    <path fill="none" stroke="#000000" d="M271.96152423,181L306.60254038,161" stroke-width="1.6" stroke-linecap="round" stroke-linejoin="round" transform="matrix(1,0,0,1,40,40)" style="stroke-linecap:round;stroke-linejoin:round;"></path>
    <path fill="none" stroke="#000000" d="M306.60254038,161L329.11934371,174.00008246" stroke-width="1.6" stroke-linecap="round" stroke-linejoin="round" transform="matrix(1,0,0,1,40,40)" style="stroke-linecap:round;stroke-linejoin:round;"></path>
  </g>
</svg>
