
<svg xmlns="http://www.w3.org/2000/svg" height="115.40066001239208" version="1.1" width="229.26330247753884" style="overflow:hidden;" viewBox="0 0 249 135">
  <g transform="translate(-296, -145)">
    <defs></defs>
    <circle cx="433.2816512387694" cy="114.9999266676079" r="24" fill="none" stroke="#00cc00" stroke-width="0.96" transform="matrix(1,0,0,1,40,40)" style="display:none;"></circle>
    <circle cx="433.2816512387694" cy="195.0000733323921" r="24" fill="none" stroke="#00cc00" stroke-width="0.96" transform="matrix(1,0,0,1,40,40)" style="display:none;"></circle>
    <circle cx="329.35949193362626" cy="134.99970665913753" r="24" fill="none" stroke="#00cc00" stroke-width="0.96" transform="matrix(1,0,0,1,40,40)" style="display:none;"></circle>
    <circle cx="329.35949193362626" cy="155" r="19.200000000000003" fill="none" stroke="#00cc00" stroke-width="0.96" transform="matrix(1,0,0,1,40,40)" style="display:none;"></circle>
    <circle cx="329.35949193362626" cy="175.00029334086247" r="24" fill="none" stroke="#00cc00" stroke-width="0.96" transform="matrix(1,0,0,1,40,40)" style="display:none;"></circle>
    <text x="433.2816512387694" y="114.9999266676079" text-anchor="middle" stroke="none" fill="#000000" style="font-style:normal;font-variant:normal;font-weight:normal;font-size:24px;line-height:normal;font-family:Arial;" font-size="24px" transform="matrix(1,0,0,1,40,40)">
      <tspan dy="8.515551667607895">S</tspan>
    </text>
    <text x="433.2816512387694" y="114.9999266676079" text-anchor="middle" stroke="none" fill="#000000" style="font-style:normal;font-variant:normal;font-weight:normal;font-size:24px;line-height:normal;font-family:Arial;" font-size="24px" transform="matrix(1,0,0,1,57.4641,40)">
      <tspan dy="8.515551667607895">H</tspan>
    </text>
    <text x="433.2816512387694" y="195.0000733323921" text-anchor="middle" stroke="none" fill="#000000" style="font-style:normal;font-variant:normal;font-weight:normal;font-size:24px;line-height:normal;font-family:Arial;" font-size="24px" transform="matrix(1,0,0,1,40,40)">
      <tspan dy="8.500073332392105">N</tspan>
    </text>
    <text x="433.2816512387694" y="195.0000733323921" text-anchor="middle" stroke="none" fill="#000000" style="font-style:normal;font-variant:normal;font-weight:normal;font-size:24px;line-height:normal;font-family:Arial;" font-size="24px" transform="matrix(1,0,0,1,58.1281,40)">
      <tspan dy="8.500073332392105">H</tspan>
    </text>
    <text x="433.2816512387694" y="195.0000733323921" text-anchor="middle" stroke="none" fill="#000000" style="font-style:normal;font-variant:normal;font-weight:normal;font-size:17px;line-height:normal;font-family:Arial;" font-size="17px" transform="matrix(1,0,0,1,72.3187,45.4)">
      <tspan dy="5.500073332392105">2</tspan>
    </text>
    <text x="294.71834876123063" y="114.99992666760791" text-anchor="middle" stroke="none" fill="#000000" style="font-style:normal;font-variant:normal;font-weight:normal;font-size:24px;line-height:normal;font-family:Arial;" font-size="24px" transform="matrix(1,0,0,1,40,40)">
      <tspan dy="8.515551667607909">C</tspan>
    </text>
    <text x="294.71834876123063" y="114.99992666760791" text-anchor="middle" stroke="none" fill="#000000" style="font-style:normal;font-variant:normal;font-weight:normal;font-size:24px;line-height:normal;font-family:Arial;" font-size="24px" transform="matrix(1,0,0,1,11.6187,40)">
      <tspan dy="8.515551667607909">H</tspan>
    </text>
    <text x="294.71834876123063" y="114.99992666760791" text-anchor="middle" stroke="none" fill="#000000" style="font-style:normal;font-variant:normal;font-weight:normal;font-size:17px;line-height:normal;font-family:Arial;" font-size="17px" transform="matrix(1,0,0,1,25.8094,45.4)">
      <tspan dy="5.515551667607909">3</tspan>
    </text>
    <path fill="none" stroke="#000000" d="M364,114.99941332L398.64050807,134.99970666" stroke-width="1.6" stroke-linecap="round" stroke-linejoin="round" transform="matrix(1,0,0,1,40,40)" style="stroke-linecap:round;stroke-linejoin:round;"></path>
    <path fill="none" stroke="#000000" d="M391.9738414,138.848652L391.9738414,171.151348M398.64050807,134.99970666L398.64050807,175.00029334" stroke-width="1.6" stroke-linecap="round" stroke-linejoin="round" transform="matrix(1,0,0,1,40,40)" style="stroke-linecap:round;stroke-linejoin:round;"></path>
    <path fill="none" stroke="#000000" d="M398.64050807,175.00029334L364,195.00058668" stroke-width="1.6" stroke-linecap="round" stroke-linejoin="round" transform="matrix(1,0,0,1,40,40)" style="stroke-linecap:round;stroke-linejoin:round;"></path>
    <path fill="none" stroke="#000000" d="M364,187.30252664L336.0261586,171.151348M364,195.00058668L329.35949193,175.00029334" stroke-width="1.6" stroke-linecap="round" stroke-linejoin="round" transform="matrix(1,0,0,1,40,40)" style="stroke-linecap:round;stroke-linejoin:round;"></path>
    <path fill="none" stroke="#000000" d="M329.35949193,175.00029334L329.35949193,134.99970666" stroke-width="1.6" stroke-linecap="round" stroke-linejoin="round" transform="matrix(1,0,0,1,40,40)" style="stroke-linecap:round;stroke-linejoin:round;"></path>
    <path fill="none" stroke="#000000" d="M336.0261586,138.848652L364,122.69747336M329.35949193,134.99970666L364,114.99941332" stroke-width="1.6" stroke-linecap="round" stroke-linejoin="round" transform="matrix(1,0,0,1,40,40)" style="stroke-linecap:round;stroke-linejoin:round;"></path>
    <path fill="none" stroke="#000000" d="M398.64050807,134.99970666L422.49433355,121.22789609" stroke-width="1.6" stroke-linecap="round" stroke-linejoin="round" transform="matrix(1,0,0,1,40,40)" style="stroke-linecap:round;stroke-linejoin:round;"></path>
    <path fill="none" stroke="#000000" d="M398.64050807,175.00029334L421.83808355,188.39322335" stroke-width="1.6" stroke-linecap="round" stroke-linejoin="round" transform="matrix(1,0,0,1,40,40)" style="stroke-linecap:round;stroke-linejoin:round;"></path>
    <path fill="none" stroke="#000000" d="M329.35949193,134.99970666L306.14629145,121.59775568" stroke-width="1.6" stroke-linecap="round" stroke-linejoin="round" transform="matrix(1,0,0,1,40,40)" style="stroke-linecap:round;stroke-linejoin:round;"></path>
  </g>
</svg>
