
<svg xmlns="http://www.w3.org/2000/svg" height="180.00364534875544" version="1.1" width="272.4774186124271" style="overflow:hidden;" viewBox="0 0 292 200">
  <g transform="translate(-661, -222)">
    <defs></defs>
    <circle cx="328.5224418182701" cy="336.2601359005251" r="19.200000000000003" fill="none" stroke="#00cc00" stroke-width="0.96" transform="matrix(1,0,0,1,463.6394,5.9952)" style="display:none;"></circle>
    <circle cx="311.20323172783253" cy="326.2589914540279" r="24" fill="none" stroke="#00cc00" stroke-width="0.96" transform="matrix(1,0,0,1,463.6394,5.9952)" style="display:none;"></circle>
    <circle cx="259.2434821209729" cy="336.2601359005251" r="19.200000000000003" fill="none" stroke="#00cc00" stroke-width="0.96" transform="matrix(1,0,0,1,463.6394,5.9952)" style="display:none;"></circle>
    <text x="415.1227309415518" y="226.25602433124456" text-anchor="middle" stroke="none" fill="#000000" style="font:24px Arial;" font-size="24px" transform="matrix(1,0,0,1,463.6394,5.9952)">
      <tspan dy="8.49821183124456">O</tspan>
    </text>
    <text x="449.76115112242695" y="286.2586523391334" text-anchor="middle" stroke="none" fill="#000000" style="font:24px Arial;" font-size="24px" transform="matrix(1,0,0,1,463.6394,5.9952)">
      <tspan dy="8.500839839133391">H</tspan>
    </text>
    <path fill="none" stroke="#000000" d="M311.20323173,286.25865234L311.20323173,326.25899145" stroke-width="1.6" stroke-linecap="round" stroke-linejoin="round" transform="matrix(1,0,0,1,463.6394,5.9952)" style="stroke-linecap:round;stroke-linejoin:round;"></path>
    <path fill="none" stroke="#000000" d="M311.20323173,326.25899145L345.84165191,346.26128035M317.86989839,322.41035413L345.84185586,338.56303001" stroke-width="1.6" stroke-linecap="round" stroke-linejoin="round" transform="matrix(1,0,0,1,463.6394,5.9952)" style="stroke-linecap:round;stroke-linejoin:round;"></path>
    <path fill="none" stroke="#000000" d="M345.84165191,346.26128035L380.48431076,326.25899145" stroke-width="1.6" stroke-linecap="round" stroke-linejoin="round" transform="matrix(1,0,0,1,463.6394,5.9952)" style="stroke-linecap:round;stroke-linejoin:round;"></path>
    <path fill="none" stroke="#000000" d="M380.48431076,326.25899145L380.48431076,286.25865234M373.81764409,322.41011864L373.81764409,290.10752516" stroke-width="1.6" stroke-linecap="round" stroke-linejoin="round" transform="matrix(1,0,0,1,463.6394,5.9952)" style="stroke-linecap:round;stroke-linejoin:round;"></path>
    <path fill="none" stroke="#000000" d="M380.48431076,286.25865234L345.84165191,266.25636345" stroke-width="1.6" stroke-linecap="round" stroke-linejoin="round" transform="matrix(1,0,0,1,463.6394,5.9952)" style="stroke-linecap:round;stroke-linejoin:round;"></path>
    <path fill="none" stroke="#000000" d="M345.84165191,266.25636345L311.20323173,286.25865234M345.84185586,273.95461378L317.86989839,290.10728966" stroke-width="1.6" stroke-linecap="round" stroke-linejoin="round" transform="matrix(1,0,0,1,463.6394,5.9952)" style="stroke-linecap:round;stroke-linejoin:round;"></path>
    <path fill="none" stroke="#000000" d="M311.20323173,326.25899145L276.56481155,346.26128035" stroke-width="1.6" stroke-linecap="round" stroke-linejoin="round" transform="matrix(1,0,0,1,463.6394,5.9952)" style="stroke-linecap:round;stroke-linejoin:round;"></path>
    <path fill="none" stroke="#000000" d="M380.48431076,286.25865234L415.12273094,266.25636345" stroke-width="1.6" stroke-linecap="round" stroke-linejoin="round" transform="matrix(1,0,0,1,463.6394,5.9952)" style="stroke-linecap:round;stroke-linejoin:round;"></path>
    <path fill="none" stroke="#000000" d="M418.45606427,266.25636345L418.45606427,242.965625M411.78939761,266.25636345L411.78939761,242.965625" stroke-width="1.6" stroke-linecap="round" stroke-linejoin="round" transform="matrix(1,0,0,1,463.6394,5.9952)" style="stroke-linecap:round;stroke-linejoin:round;"></path>
    <path fill="none" stroke="#000000" d="M415.12273094,266.25636345L438.32259993,279.65335093" stroke-width="1.6" stroke-linecap="round" stroke-linejoin="round" transform="matrix(1,0,0,1,463.6394,5.9952)" style="stroke-linecap:round;stroke-linejoin:round;"></path>
    <path fill="none" stroke="#000000" d="M276.56481155,346.26128035L241.92215269,326.25899145" stroke-width="1.6" stroke-linecap="round" stroke-linejoin="round" transform="matrix(1,0,0,1,463.6394,5.9952)" style="stroke-linecap:round;stroke-linejoin:round;"></path>
    <path fill="none" stroke="#000000" d="M241.92215269,326.25899145L207.28373251,346.26128035M241.92235665,333.95724179L213.95039918,350.10991767" stroke-width="1.6" stroke-linecap="round" stroke-linejoin="round" transform="matrix(1,0,0,1,463.6394,5.9952)" style="stroke-linecap:round;stroke-linejoin:round;"></path>
    <path fill="none" stroke="#000000" d="M207.28373251,346.26128035L207.28373251,386.26161946" stroke-width="1.6" stroke-linecap="round" stroke-linejoin="round" transform="matrix(1,0,0,1,463.6394,5.9952)" style="stroke-linecap:round;stroke-linejoin:round;"></path>
    <path fill="none" stroke="#000000" d="M207.28373251,386.26161946L241.92215269,406.25966968M213.95039918,382.41257427L241.92235662,398.56182723" stroke-width="1.6" stroke-linecap="round" stroke-linejoin="round" transform="matrix(1,0,0,1,463.6394,5.9952)" style="stroke-linecap:round;stroke-linejoin:round;"></path>
    <path fill="none" stroke="#000000" d="M241.92215269,406.25966968L276.56481155,386.26161946" stroke-width="1.6" stroke-linecap="round" stroke-linejoin="round" transform="matrix(1,0,0,1,463.6394,5.9952)" style="stroke-linecap:round;stroke-linejoin:round;"></path>
    <path fill="none" stroke="#000000" d="M276.56481155,386.26161946L276.56481155,346.26128035M269.89814488,382.41233879L269.89814488,350.11015316" stroke-width="1.6" stroke-linecap="round" stroke-linejoin="round" transform="matrix(1,0,0,1,463.6394,5.9952)" style="stroke-linecap:round;stroke-linejoin:round;"></path>
  </g>
</svg>
