
<svg xmlns="http://www.w3.org/2000/svg" height="155.31030128981746" version="1.1" width="300.86548883882494" style="overflow:hidden;" viewBox="0 0 320 175">
  <g transform="translate(-651, -267)">
    <defs></defs>
    <circle cx="593.1898247067265" cy="396.58121159630525" r="24" fill="none" stroke="#00cc00" stroke-width="0.96" transform="matrix(1,0,0,1,96.2922,0)" style="display:none;"></circle>
    <circle cx="627.8562666843812" cy="376.5627412472411" r="24" fill="none" stroke="#00cc00" stroke-width="0.96" transform="matrix(1,0,0,1,96.2922,0)" style="display:none;"></circle>
    <circle cx="749.1951767563157" cy="386.5719764217732" r="19.200000000000003" fill="none" stroke="#00cc00" stroke-width="0.96" transform="matrix(1,0,0,1,96.2922,0)" style="display:none;"></circle>
    <text x="801.086666170371" y="276.6740103064878" text-anchor="middle" stroke="none" fill="#000000" style="font:24px Arial;" font-size="24px" transform="matrix(1,0,0,1,96.2922,0)">
      <tspan dy="8.494322806487787">O</tspan>
    </text>
    <text x="835.6428135455515" y="336.5300426492078" text-anchor="middle" stroke="none" fill="#000000" style="font:24px Arial;" font-size="24px" transform="matrix(1,0,0,1,96.2922,0)">
      <tspan dy="8.506605149207815">H</tspan>
    </text>
    <text x="593.1898247067265" y="396.58121159630525" text-anchor="middle" stroke="none" fill="#000000" style="font:24px Arial;" font-size="24px" transform="matrix(1,0,0,1,96.2922,0)">
      <tspan dy="8.495274096305252">C</tspan>
    </text>
    <text x="593.1898247067265" y="396.58121159630525" text-anchor="middle" stroke="none" fill="#000000" style="font:24px Arial;" font-size="24px" transform="matrix(1,0,0,1,67.8797,0)">
      <tspan dy="8.495274096305252">H</tspan>
    </text>
    <text x="593.1898247067265" y="396.58121159630525" text-anchor="middle" stroke="none" fill="#000000" style="font:17px Arial;" font-size="17px" transform="matrix(1,0,0,1,82.0859,5.4031)">
      <tspan dy="5.495274096305252">3</tspan>
    </text>
    <text x="662.5269507621312" y="396.58121159630525" text-anchor="middle" stroke="none" fill="#000000" style="font:24px Arial;" font-size="24px" transform="matrix(1,0,0,1,96.2922,0)">
      <tspan dy="8.495274096305252">O</tspan>
    </text>
    <path fill="none" stroke="#000000" d="M697.19339274,336.53004265L697.19339274,376.56274125M703.86005941,340.37908784L703.86005941,372.71410392" stroke-width="1.6" stroke-linecap="round" stroke-linejoin="round" transform="matrix(1,0,0,1,96.2922,0)" style="stroke-linecap:round;stroke-linejoin:round;"></path>
    <path fill="none" stroke="#000000" d="M697.19339274,376.56274125L731.85983472,396.5812116" stroke-width="1.6" stroke-linecap="round" stroke-linejoin="round" transform="matrix(1,0,0,1,96.2922,0)" style="stroke-linecap:round;stroke-linejoin:round;"></path>
    <path fill="none" stroke="#000000" d="M731.85983472,396.5812116L766.5305188,376.56274125M731.86003867,388.88296126L759.86385213,372.71386843" stroke-width="1.6" stroke-linecap="round" stroke-linejoin="round" transform="matrix(1,0,0,1,96.2922,0)" style="stroke-linecap:round;stroke-linejoin:round;"></path>
    <path fill="none" stroke="#000000" d="M766.5305188,376.56274125L766.5305188,336.53004265" stroke-width="1.6" stroke-linecap="round" stroke-linejoin="round" transform="matrix(1,0,0,1,96.2922,0)" style="stroke-linecap:round;stroke-linejoin:round;"></path>
    <path fill="none" stroke="#000000" d="M766.5305188,336.53004265L731.85983472,316.5158144M759.86385213,340.37932332L731.86003864,324.21365686" stroke-width="1.6" stroke-linecap="round" stroke-linejoin="round" transform="matrix(1,0,0,1,96.2922,0)" style="stroke-linecap:round;stroke-linejoin:round;"></path>
    <path fill="none" stroke="#000000" d="M731.85983472,316.5158144L697.19339274,336.53004265" stroke-width="1.6" stroke-linecap="round" stroke-linejoin="round" transform="matrix(1,0,0,1,96.2922,0)" style="stroke-linecap:round;stroke-linejoin:round;"></path>
    <path fill="none" stroke="#000000" d="M766.5305188,336.53004265L801.08666617,316.5964143" stroke-width="1.6" stroke-linecap="round" stroke-linejoin="round" transform="matrix(1,0,0,1,96.2922,0)" style="stroke-linecap:round;stroke-linejoin:round;"></path>
    <path fill="none" stroke="#000000" d="M804.4199995,316.5964143L804.4199995,293.371875M797.75333284,316.5964143L797.75333284,293.371875" stroke-width="1.6" stroke-linecap="round" stroke-linejoin="round" transform="matrix(1,0,0,1,96.2922,0)" style="stroke-linecap:round;stroke-linejoin:round;"></path>
    <path fill="none" stroke="#000000" d="M801.08666617,316.5964143L824.19686549,329.92747576" stroke-width="1.6" stroke-linecap="round" stroke-linejoin="round" transform="matrix(1,0,0,1,96.2922,0)" style="stroke-linecap:round;stroke-linejoin:round;"></path>
    <path fill="none" stroke="#000000" d="M697.19339274,376.56274125L674.63052507,389.5918862" stroke-width="1.6" stroke-linecap="round" stroke-linejoin="round" transform="matrix(1,0,0,1,96.2922,0)" style="stroke-linecap:round;stroke-linejoin:round;"></path>
    <path fill="none" stroke="#000000" d="M650.41626514,389.58863538L627.85626668,376.56274125" stroke-width="1.6" stroke-linecap="round" stroke-linejoin="round" transform="matrix(1,0,0,1,96.2922,0)" style="stroke-linecap:round;stroke-linejoin:round;"></path>
    <path fill="none" stroke="#000000" d="M627.85626668,376.56274125L604.63052507,389.97466913" stroke-width="1.6" stroke-linecap="round" stroke-linejoin="round" transform="matrix(1,0,0,1,96.2922,0)" style="stroke-linecap:round;stroke-linejoin:round;"></path>
  </g>
</svg>
