
<svg xmlns="http://www.w3.org/2000/svg" height="235.4016000304007" version="1.1" width="197.48051892673413" style="overflow:hidden;" viewBox="0 0 217 255">
  <g transform="translate(-747, -196)">
    <defs></defs>
    <circle cx="522.0041760793459" cy="224.00179203404883" r="24" fill="none" stroke="#00cc00" stroke-width="0.96" transform="matrix(1,0,0,1,274.5156,142.3)" style="display:none;"></circle>
    <circle cx="487.3638989540805" cy="164.0013120249286" r="24" fill="none" stroke="#00cc00" stroke-width="0.96" transform="matrix(1,0,0,1,274.5156,142.3)" style="display:none;"></circle>
    <circle cx="649.484375" cy="148.7" r="24" fill="none" stroke="#00cc00" stroke-width="0.96" transform="matrix(1,0,0,1,274.5156,142.3)" style="display:none;"></circle>
    <text x="522.0041760793459" y="264.00211204012896" text-anchor="middle" stroke="none" fill="#000000" style="font-style:normal;font-variant:normal;font-weight:normal;font-size:24px;line-height:normal;font-family:Arial;" font-size="24px" transform="matrix(1,0,0,1,274.5156,142.3)">
      <tspan dy="8.502112040128964">C</tspan>
    </text>
    <text x="522.0041760793459" y="264.00211204012896" text-anchor="middle" stroke="none" fill="#000000" style="font-style:normal;font-variant:normal;font-weight:normal;font-size:24px;line-height:normal;font-family:Arial;" font-size="24px" transform="matrix(1,0,0,1,292.6438,142.3)">
      <tspan dy="8.502112040128964">H</tspan>
    </text>
    <text x="522.0041760793459" y="264.00211204012896" text-anchor="middle" stroke="none" fill="#000000" style="font-style:normal;font-variant:normal;font-weight:normal;font-size:17px;line-height:normal;font-family:Arial;" font-size="17px" transform="matrix(1,0,0,1,306.8344,147.7)">
      <tspan dy="5.502112040128964">3</tspan>
    </text>
    <text x="522.0041760793459" y="104.0008320158084" text-anchor="middle" stroke="none" fill="#000000" style="font-style:normal;font-variant:normal;font-weight:normal;font-size:24px;line-height:normal;font-family:Arial;" font-size="24px" transform="matrix(1,0,0,1,274.5156,142.3)">
      <tspan dy="8.500832015808399">S</tspan>
    </text>
    <text x="562.0044960854261" y="104.0008320158084" text-anchor="middle" stroke="none" fill="#000000" style="font-style:normal;font-variant:normal;font-weight:normal;font-size:24px;line-height:normal;font-family:Arial;" font-size="24px" transform="matrix(1,0,0,1,274.5156,142.3)">
      <tspan dy="8.500832015808399">O</tspan>
    </text>
    <text x="482.0038560732658" y="104.0008320158084" text-anchor="middle" stroke="none" fill="#000000" style="font-style:normal;font-variant:normal;font-weight:normal;font-size:24px;line-height:normal;font-family:Arial;" font-size="24px" transform="matrix(1,0,0,1,274.5156,142.3)">
      <tspan dy="8.500832015808399">O</tspan>
    </text>
    <text x="522.0041760793459" y="64.00051200972824" text-anchor="middle" stroke="none" fill="#000000" style="font-style:normal;font-variant:normal;font-weight:normal;font-size:24px;line-height:normal;font-family:Arial;" font-size="24px" transform="matrix(1,0,0,1,274.5156,142.3)">
      <tspan dy="8.50051200972824">O</tspan>
    </text>
    <text x="522.0041760793459" y="64.00051200972824" text-anchor="middle" stroke="none" fill="#000000" style="font-style:normal;font-variant:normal;font-weight:normal;font-size:24px;line-height:normal;font-family:Arial;" font-size="24px" transform="matrix(1,0,0,1,293.3078,142.3)">
      <tspan dy="8.50051200972824">H</tspan>
    </text>
    <path fill="none" stroke="#000000" d="M522.00417608,144.00115202L556.6444532,164.00131202" stroke-width="1.6" stroke-linecap="round" stroke-linejoin="round" transform="matrix(1,0,0,1,274.5156,142.3)" style="stroke-linecap:round;stroke-linejoin:round;"></path>
    <path fill="none" stroke="#000000" d="M549.97778654,167.85025737L549.97778654,200.15268669M556.6444532,164.00131202L556.6444532,204.00163203" stroke-width="1.6" stroke-linecap="round" stroke-linejoin="round" transform="matrix(1,0,0,1,274.5156,142.3)" style="stroke-linecap:round;stroke-linejoin:round;"></path>
    <path fill="none" stroke="#000000" d="M556.6444532,204.00163203L522.00417608,224.00179203" stroke-width="1.6" stroke-linecap="round" stroke-linejoin="round" transform="matrix(1,0,0,1,274.5156,142.3)" style="stroke-linecap:round;stroke-linejoin:round;"></path>
    <path fill="none" stroke="#000000" d="M522.00417608,216.30373199L494.03056562,200.15268669M522.00417608,224.00179203L487.36389895,204.00163203" stroke-width="1.6" stroke-linecap="round" stroke-linejoin="round" transform="matrix(1,0,0,1,274.5156,142.3)" style="stroke-linecap:round;stroke-linejoin:round;"></path>
    <path fill="none" stroke="#000000" d="M487.36389895,204.00163203L487.36389895,164.00131202" stroke-width="1.6" stroke-linecap="round" stroke-linejoin="round" transform="matrix(1,0,0,1,274.5156,142.3)" style="stroke-linecap:round;stroke-linejoin:round;"></path>
    <path fill="none" stroke="#000000" d="M494.03056562,167.85025737L522.00417608,151.69921207M487.36389895,164.00131202L522.00417608,144.00115202" stroke-width="1.6" stroke-linecap="round" stroke-linejoin="round" transform="matrix(1,0,0,1,274.5156,142.3)" style="stroke-linecap:round;stroke-linejoin:round;"></path>
    <path fill="none" stroke="#000000" d="M522.00417608,224.00179203L522.00417608,247.3" stroke-width="1.6" stroke-linecap="round" stroke-linejoin="round" transform="matrix(1,0,0,1,274.5156,142.3)" style="stroke-linecap:round;stroke-linejoin:round;"></path>
    <path fill="none" stroke="#000000" d="M522.00417608,144.00115202L522.00417608,120.7" stroke-width="1.6" stroke-linecap="round" stroke-linejoin="round" transform="matrix(1,0,0,1,274.5156,142.3)" style="stroke-linecap:round;stroke-linejoin:round;"></path>
    <path fill="none" stroke="#000000" d="M533.2,107.33416535L549.45625,107.33416535M533.2,100.66749868L549.45625,100.66749868" stroke-width="1.6" stroke-linecap="round" stroke-linejoin="round" transform="matrix(1,0,0,1,274.5156,142.3)" style="stroke-linecap:round;stroke-linejoin:round;"></path>
    <path fill="none" stroke="#000000" d="M510.8,100.66749868L494.5125,100.66749868M510.8,107.33416535L494.5125,107.33416535" stroke-width="1.6" stroke-linecap="round" stroke-linejoin="round" transform="matrix(1,0,0,1,274.5156,142.3)" style="stroke-linecap:round;stroke-linejoin:round;"></path>
    <path fill="none" stroke="#000000" d="M522.00417608,87.3L522.00417608,80.7" stroke-width="1.6" stroke-linecap="round" stroke-linejoin="round" transform="matrix(1,0,0,1,274.5156,142.3)" style="stroke-linecap:round;stroke-linejoin:round;"></path>
    <text x="649.484375" y="148.7" text-anchor="middle" stroke="none" fill="#000000" style="font-style:normal;font-variant:normal;font-weight:normal;font-size:24px;line-height:normal;font-family:Arial;" font-size="24px" transform="matrix(1,0,0,1,274.5156,142.3)">
      <tspan dy="8.512499999999989">O</tspan>
    </text>
    <text x="649.484375" y="148.7" text-anchor="middle" stroke="none" fill="#000000" style="font-style:normal;font-variant:normal;font-weight:normal;font-size:24px;line-height:normal;font-family:Arial;" font-size="24px" transform="matrix(1,0,0,1,245.4938,142.3)">
      <tspan dy="8.512499999999989">H</tspan>
    </text>
    <text x="649.484375" y="148.7" text-anchor="middle" stroke="none" fill="#000000" style="font-style:normal;font-variant:normal;font-weight:normal;font-size:17px;line-height:normal;font-family:Arial;" font-size="17px" transform="matrix(1,0,0,1,259.6687,147.7)">
      <tspan dy="5.512499999999989">2</tspan>
    </text>
  </g>
</svg>
