<?xml version="1.0"?>
<svg xmlns="http://www.w3.org/2000/svg" height="307.89822486055834" version="1.1" width="266.5581120358655" style="overflow: hidden; position: relative;" viewBox="0 0 286 327">
  <g transform="translate(-326, -123)">
    <defs style="-webkit-tap-highlight-color: rgba(0, 0, 0, 0);"/>
    <circle cx="382.72883638982444" cy="339.77226045717975" r="24" fill="none" stroke="#00cc00" stroke-width="0.96" transform="matrix(1,0,0,1,40,40)" style="-webkit-tap-highlight-color: rgba(0, 0, 0, 0); display: none;"/>
    <circle cx="460.81809003372007" cy="129.95783005266136" r="24" fill="none" stroke="#00cc00" stroke-width="0.96" transform="matrix(1,0,0,1,40,40)" style="-webkit-tap-highlight-color: rgba(0, 0, 0, 0); display: none;"/>
    <circle cx="296.35949193362626" cy="219.00029334086247" r="24" fill="none" stroke="#00cc00" stroke-width="0.96" transform="matrix(1,0,0,1,40,40)" style="-webkit-tap-highlight-color: rgba(0, 0, 0, 0); display: none;"/>
    <circle cx="397.5253870946772" cy="101.77922549760808" r="24" fill="none" stroke="#00cc00" stroke-width="0.96" transform="matrix(1,0,0,1,40,40)" style="-webkit-tap-highlight-color: rgba(0, 0, 0, 0); display: none;"/>
    <circle cx="477.0870149589681" cy="93.41577097306595" r="24" fill="none" stroke="#00cc00" stroke-width="0.96" transform="matrix(1,0,0,1,40,40)" style="-webkit-tap-highlight-color: rgba(0, 0, 0, 0); display: none;"/>
    <circle cx="398.001147084353" cy="235.04997760367343" r="24" fill="none" stroke="#00cc00" stroke-width="0.96" transform="matrix(1,0,0,1,40,40)" style="-webkit-tap-highlight-color: rgba(0, 0, 0, 0); display: none;"/>
    <circle cx="365.64050806637385" cy="219.00029334086247" r="24" fill="none" stroke="#00cc00" stroke-width="0.96" transform="matrix(1,0,0,1,40,40)" style="-webkit-tap-highlight-color: rgba(0, 0, 0, 0); display: none;"/>
    <text x="352.45327410754885" y="365.9139958336243" text-anchor="middle" font="30px &quot;Arial&quot;" stroke="none" fill="#000000" style="-webkit-tap-highlight-color: rgba(0, 0, 0, 0); text-anchor: middle; font-style: normal; font-variant: normal; font-weight: normal; font-stretch: normal; font-size: 24px; line-height: normal; font-family: Arial;" font-size="24px" transform="matrix(1,0,0,1,40,40)">
      <tspan dy="8.507745833624313" style="-webkit-tap-highlight-color: rgba(0, 0, 0, 0);">C</tspan>
    </text>
    <text x="352.45327410754885" y="365.9139958336243" text-anchor="middle" font="30px &quot;Arial&quot;" stroke="none" fill="#000000" style="-webkit-tap-highlight-color: rgba(0, 0, 0, 0); text-anchor: middle; font-style: normal; font-variant: normal; font-weight: normal; font-stretch: normal; font-size: 24px; line-height: normal; font-family: Arial;" font-size="24px" transform="matrix(1,0,0,1,11.6187,40)">
      <tspan dy="8.507745833624313" style="-webkit-tap-highlight-color: rgba(0, 0, 0, 0);">H</tspan>
    </text>
    <text x="352.45327410754885" y="365.9139958336243" text-anchor="middle" font="30px &quot;Arial&quot;" stroke="none" fill="#000000" style="-webkit-tap-highlight-color: rgba(0, 0, 0, 0); text-anchor: middle; font-style: normal; font-variant: normal; font-weight: normal; font-stretch: normal; font-size: 17px; line-height: normal; font-family: Arial;" font-size="17px" transform="matrix(1,0,0,1,25.8094,45.4)">
      <tspan dy="5.507745833624313" style="-webkit-tap-highlight-color: rgba(0, 0, 0, 0);">3</tspan>
    </text>
    <path fill="none" stroke="#000000" d="M358.9738414,182.848652L358.9738414,215.151348M365.64050807,178.99970666L365.64050807,219.00029334" stroke-width="1.6" stroke-linecap="round" stroke-linejoin="round" transform="matrix(1,0,0,1,40,40)" style="-webkit-tap-highlight-color: rgba(0, 0, 0, 0); stroke-linecap: round; stroke-linejoin: round;"/>
    <text x="484.3299790406175" y="162.31816186998574" text-anchor="middle" font="30px &quot;Arial&quot;" stroke="none" fill="#000000" style="-webkit-tap-highlight-color: rgba(0, 0, 0, 0); text-anchor: middle; font-style: normal; font-variant: normal; font-weight: normal; font-stretch: normal; font-size: 24px; line-height: normal; font-family: Arial;" font-size="24px" transform="matrix(1,0,0,1,40,40)">
      <tspan dy="8.505661869985744" style="-webkit-tap-highlight-color: rgba(0, 0, 0, 0);">C</tspan>
    </text>
    <text x="484.3299790406175" y="162.31816186998574" text-anchor="middle" font="30px &quot;Arial&quot;" stroke="none" fill="#000000" style="-webkit-tap-highlight-color: rgba(0, 0, 0, 0); text-anchor: middle; font-style: normal; font-variant: normal; font-weight: normal; font-stretch: normal; font-size: 24px; line-height: normal; font-family: Arial;" font-size="24px" transform="matrix(1,0,0,1,58.1281,40)">
      <tspan dy="8.505661869985744" style="-webkit-tap-highlight-color: rgba(0, 0, 0, 0);">H</tspan>
    </text>
    <text x="484.3299790406175" y="162.31816186998574" text-anchor="middle" font="30px &quot;Arial&quot;" stroke="none" fill="#000000" style="-webkit-tap-highlight-color: rgba(0, 0, 0, 0); text-anchor: middle; font-style: normal; font-variant: normal; font-weight: normal; font-stretch: normal; font-size: 17px; line-height: normal; font-family: Arial;" font-size="17px" transform="matrix(1,0,0,1,72.3187,45.4)">
      <tspan dy="5.505661869985744" style="-webkit-tap-highlight-color: rgba(0, 0, 0, 0);">3</tspan>
    </text>
    <text x="477.0870149589681" y="93.41577097306595" text-anchor="middle" font="30px &quot;Arial&quot;" stroke="none" fill="#000000" style="-webkit-tap-highlight-color: rgba(0, 0, 0, 0); text-anchor: middle; font-style: normal; font-variant: normal; font-weight: normal; font-stretch: normal; font-size: 24px; line-height: normal; font-family: Arial;" font-size="24px" transform="matrix(1,0,0,1,40,40)">
      <tspan dy="8.509520973065946" style="-webkit-tap-highlight-color: rgba(0, 0, 0, 0);">C</tspan>
    </text>
    <text x="477.0870149589681" y="93.41577097306595" text-anchor="middle" font="30px &quot;Arial&quot;" stroke="none" fill="#000000" style="-webkit-tap-highlight-color: rgba(0, 0, 0, 0); text-anchor: middle; font-style: normal; font-variant: normal; font-weight: normal; font-stretch: normal; font-size: 24px; line-height: normal; font-family: Arial;" font-size="24px" transform="matrix(1,0,0,1,58.1281,40)">
      <tspan dy="8.509520973065946" style="-webkit-tap-highlight-color: rgba(0, 0, 0, 0);">H</tspan>
    </text>
    <text x="477.0870149589681" y="93.41577097306595" text-anchor="middle" font="30px &quot;Arial&quot;" stroke="none" fill="#000000" style="-webkit-tap-highlight-color: rgba(0, 0, 0, 0); text-anchor: middle; font-style: normal; font-variant: normal; font-weight: normal; font-stretch: normal; font-size: 17px; line-height: normal; font-family: Arial;" font-size="17px" transform="matrix(1,0,0,1,72.3187,45.4)">
      <tspan dy="5.509520973065946" style="-webkit-tap-highlight-color: rgba(0, 0, 0, 0);">3</tspan>
    </text>
    <text x="500.59890396586553" y="125.77610279039033" text-anchor="middle" font="30px &quot;Arial&quot;" stroke="none" fill="#000000" style="-webkit-tap-highlight-color: rgba(0, 0, 0, 0); text-anchor: middle; font-style: normal; font-variant: normal; font-weight: normal; font-stretch: normal; font-size: 24px; line-height: normal; font-family: Arial;" font-size="24px" transform="matrix(1,0,0,1,40,40)">
      <tspan dy="8.510477790390325" style="-webkit-tap-highlight-color: rgba(0, 0, 0, 0);">C</tspan>
    </text>
    <text x="500.59890396586553" y="125.77610279039033" text-anchor="middle" font="30px &quot;Arial&quot;" stroke="none" fill="#000000" style="-webkit-tap-highlight-color: rgba(0, 0, 0, 0); text-anchor: middle; font-style: normal; font-variant: normal; font-weight: normal; font-stretch: normal; font-size: 24px; line-height: normal; font-family: Arial;" font-size="24px" transform="matrix(1,0,0,1,58.1281,40)">
      <tspan dy="8.510477790390325" style="-webkit-tap-highlight-color: rgba(0, 0, 0, 0);">H</tspan>
    </text>
    <text x="500.59890396586553" y="125.77610279039033" text-anchor="middle" font="30px &quot;Arial&quot;" stroke="none" fill="#000000" style="-webkit-tap-highlight-color: rgba(0, 0, 0, 0); text-anchor: middle; font-style: normal; font-variant: normal; font-weight: normal; font-stretch: normal; font-size: 17px; line-height: normal; font-family: Arial;" font-size="17px" transform="matrix(1,0,0,1,72.3187,45.4)">
      <tspan dy="5.5104777903903255" style="-webkit-tap-highlight-color: rgba(0, 0, 0, 0);">3</tspan>
    </text>
    <text x="397.5253870946772" y="101.77922549760808" text-anchor="middle" font="30px &quot;Arial&quot;" stroke="none" fill="#000000" style="-webkit-tap-highlight-color: rgba(0, 0, 0, 0); text-anchor: middle; font-style: normal; font-variant: normal; font-weight: normal; font-stretch: normal; font-size: 24px; line-height: normal; font-family: Arial;" font-size="24px" transform="matrix(1,0,0,1,40,40)">
      <tspan dy="8.513600497608081" style="-webkit-tap-highlight-color: rgba(0, 0, 0, 0);">O</tspan>
    </text>
    <text x="398.001147084353" y="235.04997760367343" text-anchor="middle" font="30px &quot;Arial&quot;" stroke="none" fill="#000000" style="-webkit-tap-highlight-color: rgba(0, 0, 0, 0); text-anchor: middle; font-style: normal; font-variant: normal; font-weight: normal; font-stretch: normal; font-size: 24px; line-height: normal; font-family: Arial;" font-size="24px" transform="matrix(1,0,0,1,40,40)">
      <tspan dy="8.503102603673426" style="-webkit-tap-highlight-color: rgba(0, 0, 0, 0);">N</tspan>
    </text>
    <path fill="none" stroke="#000000" d="M331,158.99941332L365.64050807,178.99970666" stroke-width="1.6" stroke-linecap="round" stroke-linejoin="round" transform="matrix(1,0,0,1,40,40)" style="-webkit-tap-highlight-color: rgba(0, 0, 0, 0); stroke-linecap: round; stroke-linejoin: round;"/>
    <path fill="none" stroke="#000000" d="M365.64050807,219.00029334L331,239.00058668" stroke-width="1.6" stroke-linecap="round" stroke-linejoin="round" transform="matrix(1,0,0,1,40,40)" style="-webkit-tap-highlight-color: rgba(0, 0, 0, 0); stroke-linecap: round; stroke-linejoin: round;"/>
    <path fill="none" stroke="#000000" d="M331,231.30252664L303.0261586,215.151348M331,239.00058668L296.35949193,219.00029334" stroke-width="1.6" stroke-linecap="round" stroke-linejoin="round" transform="matrix(1,0,0,1,40,40)" style="-webkit-tap-highlight-color: rgba(0, 0, 0, 0); stroke-linecap: round; stroke-linejoin: round;"/>
    <path fill="none" stroke="#000000" d="M296.35949193,219.00029334L296.35949193,178.99970666" stroke-width="1.6" stroke-linecap="round" stroke-linejoin="round" transform="matrix(1,0,0,1,40,40)" style="-webkit-tap-highlight-color: rgba(0, 0, 0, 0); stroke-linecap: round; stroke-linejoin: round;"/>
    <path fill="none" stroke="#000000" d="M303.0261586,182.848652L331,166.69747336M296.35949193,178.99970666L331,158.99941332" stroke-width="1.6" stroke-linecap="round" stroke-linejoin="round" transform="matrix(1,0,0,1,40,40)" style="-webkit-tap-highlight-color: rgba(0, 0, 0, 0); stroke-linecap: round; stroke-linejoin: round;"/>
    <path fill="none" stroke="#000000" d="M365.64050807,178.99970666L404.76835118,170.68161639" stroke-width="1.6" stroke-linecap="round" stroke-linejoin="round" transform="matrix(1,0,0,1,40,40)" style="-webkit-tap-highlight-color: rgba(0, 0, 0, 0); stroke-linecap: round; stroke-linejoin: round;"/>
    <path fill="none" stroke="#000000" d="M401.41673228,178.20977552L416.57335963,204.46182415M404.76835118,170.68161639L424.76874612,205.32331661" stroke-width="1.6" stroke-linecap="round" stroke-linejoin="round" transform="matrix(1,0,0,1,40,40)" style="-webkit-tap-highlight-color: rgba(0, 0, 0, 0); stroke-linecap: round; stroke-linejoin: round;"/>
    <path fill="none" stroke="#000000" d="M424.76874612,205.32331661L408.79753833,223.06008407" stroke-width="1.6" stroke-linecap="round" stroke-linejoin="round" transform="matrix(1,0,0,1,40,40)" style="-webkit-tap-highlight-color: rgba(0, 0, 0, 0); stroke-linecap: round; stroke-linejoin: round;"/>
    <path fill="none" stroke="#000000" d="M386.46134385,229.32666051L365.64050807,219.00029334" stroke-width="1.6" stroke-linecap="round" stroke-linejoin="round" transform="matrix(1,0,0,1,40,40)" style="-webkit-tap-highlight-color: rgba(0, 0, 0, 0); stroke-linecap: round; stroke-linejoin: round;"/>
    <path fill="none" stroke="#000000" d="M401.17821704,251.6900969L405.50277288,274.34025134" stroke-width="1.6" stroke-linecap="round" stroke-linejoin="round" transform="matrix(1,0,0,1,40,40)" style="-webkit-tap-highlight-color: rgba(0, 0, 0, 0); stroke-linecap: round; stroke-linejoin: round;"/>
    <path fill="none" stroke="#000000" d="M405.50277288,274.34025134L375.2272106,300.48198672" stroke-width="1.6" stroke-linecap="round" stroke-linejoin="round" transform="matrix(1,0,0,1,40,40)" style="-webkit-tap-highlight-color: rgba(0, 0, 0, 0); stroke-linecap: round; stroke-linejoin: round;"/>
    <path fill="none" stroke="#000000" d="M375.2272106,300.48198672L382.72883639,339.77226046" stroke-width="1.6" stroke-linecap="round" stroke-linejoin="round" transform="matrix(1,0,0,1,40,40)" style="-webkit-tap-highlight-color: rgba(0, 0, 0, 0); stroke-linecap: round; stroke-linejoin: round;"/>
    <path fill="none" stroke="#000000" d="M382.72883639,339.77226046L363.53141998,356.34846059" stroke-width="1.6" stroke-linecap="round" stroke-linejoin="round" transform="matrix(1,0,0,1,40,40)" style="-webkit-tap-highlight-color: rgba(0, 0, 0, 0); stroke-linecap: round; stroke-linejoin: round;"/>
    <path fill="none" stroke="#000000" d="M404.76835118,170.68161639L421.0372761,134.13955731" stroke-width="1.6" stroke-linecap="round" stroke-linejoin="round" transform="matrix(1,0,0,1,40,40)" style="-webkit-tap-highlight-color: rgba(0, 0, 0, 0); stroke-linecap: round; stroke-linejoin: round;"/>
    <path fill="none" stroke="#000000" d="M421.0372761,134.13955731L460.81809003,129.95783005" stroke-width="1.6" stroke-linecap="round" stroke-linejoin="round" transform="matrix(1,0,0,1,40,40)" style="-webkit-tap-highlight-color: rgba(0, 0, 0, 0); stroke-linecap: round; stroke-linejoin: round;"/>
    <path fill="none" stroke="#000000" d="M423.73397042,132.18023323L411.42139544,115.23395504M418.34058178,136.0988814L406.0280068,119.15260321" stroke-width="1.6" stroke-linecap="round" stroke-linejoin="round" transform="matrix(1,0,0,1,40,40)" style="-webkit-tap-highlight-color: rgba(0, 0, 0, 0); stroke-linecap: round; stroke-linejoin: round;"/>
    <path fill="none" stroke="#000000" d="M460.81809003,129.95783005L473.77529888,147.79134303" stroke-width="1.6" stroke-linecap="round" stroke-linejoin="round" transform="matrix(1,0,0,1,40,40)" style="-webkit-tap-highlight-color: rgba(0, 0, 0, 0); stroke-linecap: round; stroke-linejoin: round;"/>
    <path fill="none" stroke="#000000" d="M460.81809003,129.95783005L469.77243553,109.84523973" stroke-width="1.6" stroke-linecap="round" stroke-linejoin="round" transform="matrix(1,0,0,1,40,40)" style="-webkit-tap-highlight-color: rgba(0, 0, 0, 0); stroke-linecap: round; stroke-linejoin: round;"/>
    <path fill="none" stroke="#000000" d="M460.81809003,129.95783005L488.73940989,127.0227633" stroke-width="1.6" stroke-linecap="round" stroke-linejoin="round" transform="matrix(1,0,0,1,40,40)" style="-webkit-tap-highlight-color: rgba(0, 0, 0, 0); stroke-linecap: round; stroke-linejoin: round;"/>
  </g>
</svg>
