
<svg xmlns="http://www.w3.org/2000/svg" height="110.0757072161307" version="1.1" width="436.137308488449" style="overflow:hidden;" viewBox="0 0 456 130">
  <g transform="translate(-1781, -298)">
    <defs></defs>
    <circle cx="1888.471356505052" cy="388.11515604064317" r="24" fill="none" stroke="#00cc00" stroke-width="0.96" transform="matrix(1,0,0,1,0,0)" style="display:none;"></circle>
    <circle cx="1961.2079479780607" cy="380.4750939138588" r="24" fill="none" stroke="#00cc00" stroke-width="0.96" transform="matrix(1,0,0,1,0,0)" style="display:none;"></circle>
    <circle cx="1923.1316383524793" cy="328.0866679062703" r="24" fill="none" stroke="#00cc00" stroke-width="0.96" transform="matrix(1,0,0,1,0,0)" style="display:none;"></circle>
    <circle cx="2064.618788885229" cy="382.7511124217857" r="19.200000000000003" fill="none" stroke="#00cc00" stroke-width="0.96" transform="matrix(1,0,0,1,0,0)" style="display:none;"></circle>
    <circle cx="2044.6086261683502" cy="382.7511124217857" r="24" fill="none" stroke="#00cc00" stroke-width="0.96" transform="matrix(1,0,0,1,0,0)" style="display:none;"></circle>
    <text x="2164.4496006806316" y="313.55054970274455" text-anchor="middle" stroke="none" fill="#000000" style="font:24px Arial;" font-size="24px" transform="matrix(1,0,0,1,0,0)">
      <tspan dy="8.495862202744547">C</tspan>
    </text>
    <text x="2164.4496006806316" y="313.55054970274455" text-anchor="middle" stroke="none" fill="#000000" style="font:24px Arial;" font-size="24px" transform="matrix(1,0,0,1,18.1438,0)">
      <tspan dy="8.495862202744547">H</tspan>
    </text>
    <text x="2164.4496006806316" y="313.55054970274455" text-anchor="middle" stroke="none" fill="#000000" style="font:17px Arial;" font-size="17px" transform="matrix(1,0,0,1,32.35,5.4031)">
      <tspan dy="5.495862202744547">3</tspan>
    </text>
    <text x="2164.533601363701" y="382.7511124217857" text-anchor="middle" stroke="none" fill="#000000" style="font:24px Arial;" font-size="24px" transform="matrix(1,0,0,1,0,0)">
      <tspan dy="8.493299921785706">C</tspan>
    </text>
    <text x="2164.533601363701" y="382.7511124217857" text-anchor="middle" stroke="none" fill="#000000" style="font:24px Arial;" font-size="24px" transform="matrix(1,0,0,1,18.1438,0)">
      <tspan dy="8.493299921785706">H</tspan>
    </text>
    <text x="2164.533601363701" y="382.7511124217857" text-anchor="middle" stroke="none" fill="#000000" style="font:17px Arial;" font-size="17px" transform="matrix(1,0,0,1,32.35,5.4031)">
      <tspan dy="5.493299921785706">3</tspan>
    </text>
    <text x="1961.2079479780607" y="380.4750939138588" text-anchor="middle" stroke="none" fill="#000000" style="font:24px Arial;" font-size="24px" transform="matrix(1,0,0,1,0,0)">
      <tspan dy="8.498531413858814">N</tspan>
    </text>
    <text x="1961.2079479780607" y="315.7185673324393" text-anchor="middle" stroke="none" fill="#000000" style="font:24px Arial;" font-size="24px" transform="matrix(1,0,0,1,0,0)">
      <tspan dy="8.507629832439306">S</tspan>
    </text>
    <text x="1819.158792875252" y="308.078505205655" text-anchor="middle" stroke="none" fill="#000000" style="font:24px Arial;" font-size="24px" transform="matrix(1,0,0,1,0,0)">
      <tspan dy="8.500380205655006">C</tspan>
    </text>
    <text x="1819.158792875252" y="308.078505205655" text-anchor="middle" stroke="none" fill="#000000" style="font:24px Arial;" font-size="24px" transform="matrix(1,0,0,1,-28.4125,0)">
      <tspan dy="8.500380205655006">H</tspan>
    </text>
    <text x="1819.158792875252" y="308.078505205655" text-anchor="middle" stroke="none" fill="#000000" style="font:17px Arial;" font-size="17px" transform="matrix(1,0,0,1,-14.2063,5.4031)">
      <tspan dy="5.492567705655006">3</tspan>
    </text>
    <path fill="none" stroke="#000000" d="M1923.13163835,368.10299331L1923.13163835,328.08666791M1916.46497169,364.2540915L1916.46497169,331.93595442" stroke-width="1.6" stroke-linecap="round" stroke-linejoin="round" transform="matrix(1,0,0,1,0,0)" style="stroke-linecap:round;stroke-linejoin:round;"></path>
    <text x="2144.521438630559" y="348.09483060688547" text-anchor="middle" stroke="none" fill="#000000" style="font:24px Arial;" font-size="24px" transform="matrix(1,0,0,1,0,0)">
      <tspan dy="8.493268106885466">N</tspan>
    </text>
    <path fill="none" stroke="#000000" d="M1853.81907472,328.08666791L1853.81907472,368.10299331" stroke-width="1.6" stroke-linecap="round" stroke-linejoin="round" transform="matrix(1,0,0,1,0,0)" style="stroke-linecap:round;stroke-linejoin:round;"></path>
    <path fill="none" stroke="#000000" d="M1853.81907472,368.10299331L1888.47135651,388.11515604M1860.48574139,364.25453577L1888.47174129,380.4168303" stroke-width="1.6" stroke-linecap="round" stroke-linejoin="round" transform="matrix(1,0,0,1,0,0)" style="stroke-linecap:round;stroke-linejoin:round;"></path>
    <path fill="none" stroke="#000000" d="M1888.47135651,388.11515604L1923.13163835,368.10299331" stroke-width="1.6" stroke-linecap="round" stroke-linejoin="round" transform="matrix(1,0,0,1,0,0)" style="stroke-linecap:round;stroke-linejoin:round;"></path>
    <path fill="none" stroke="#000000" d="M1923.13163835,328.08666791L1888.47135651,308.07850521" stroke-width="1.6" stroke-linecap="round" stroke-linejoin="round" transform="matrix(1,0,0,1,0,0)" style="stroke-linecap:round;stroke-linejoin:round;"></path>
    <path fill="none" stroke="#000000" d="M1888.47135651,308.07850521L1853.81907472,328.08666791M1888.47174123,315.7764462L1860.48574139,331.93551017" stroke-width="1.6" stroke-linecap="round" stroke-linejoin="round" transform="matrix(1,0,0,1,0,0)" style="stroke-linecap:round;stroke-linejoin:round;"></path>
    <path fill="none" stroke="#000000" d="M1923.13163835,368.10299331L1949.48787755,376.6669021" stroke-width="1.6" stroke-linecap="round" stroke-linejoin="round" transform="matrix(1,0,0,1,0,0)" style="stroke-linecap:round;stroke-linejoin:round;"></path>
    <path fill="none" stroke="#000000" d="M1971.75499946,365.94754895L1984.71613914,348.09483061M1966.36017088,362.0308834L1976.4776212,348.09507255" stroke-width="1.6" stroke-linecap="round" stroke-linejoin="round" transform="matrix(1,0,0,1,0,0)" style="stroke-linecap:round;stroke-linejoin:round;"></path>
    <path fill="none" stroke="#000000" d="M1984.71613914,348.09483061L1971.09890155,329.34071779" stroke-width="1.6" stroke-linecap="round" stroke-linejoin="round" transform="matrix(1,0,0,1,0,0)" style="stroke-linecap:round;stroke-linejoin:round;"></path>
    <path fill="none" stroke="#000000" d="M1950.1596586,319.30731728L1923.13163835,328.08666791" stroke-width="1.6" stroke-linecap="round" stroke-linejoin="round" transform="matrix(1,0,0,1,0,0)" style="stroke-linecap:round;stroke-linejoin:round;"></path>
    <path fill="none" stroke="#000000" d="M1984.71613914,348.09483061L2024.60046347,348.09483061" stroke-width="1.6" stroke-linecap="round" stroke-linejoin="round" transform="matrix(1,0,0,1,0,0)" style="stroke-linecap:round;stroke-linejoin:round;"></path>
    <path fill="none" stroke="#000000" d="M2024.60046347,348.09483061L2044.60862617,382.75111242" stroke-width="1.6" stroke-linecap="round" stroke-linejoin="round" transform="matrix(1,0,0,1,0,0)" style="stroke-linecap:round;stroke-linejoin:round;"></path>
    <path fill="none" stroke="#000000" d="M2044.60862617,382.75111242L2084.6289516,382.75111242M2048.45769057,376.08444576L2080.78027191,376.08444576" stroke-width="1.6" stroke-linecap="round" stroke-linejoin="round" transform="matrix(1,0,0,1,0,0)" style="stroke-linecap:round;stroke-linejoin:round;"></path>
    <path fill="none" stroke="#000000" d="M2084.6289516,382.75111242L2104.64111434,348.09483061" stroke-width="1.6" stroke-linecap="round" stroke-linejoin="round" transform="matrix(1,0,0,1,0,0)" style="stroke-linecap:round;stroke-linejoin:round;"></path>
    <path fill="none" stroke="#000000" d="M2104.64111434,348.09483061L2084.6289516,313.43854879M2096.9427886,348.09483061L2080.78027191,320.10521546" stroke-width="1.6" stroke-linecap="round" stroke-linejoin="round" transform="matrix(1,0,0,1,0,0)" style="stroke-linecap:round;stroke-linejoin:round;"></path>
    <path fill="none" stroke="#000000" d="M2084.6289516,313.43854879L2044.60862617,313.43854879" stroke-width="1.6" stroke-linecap="round" stroke-linejoin="round" transform="matrix(1,0,0,1,0,0)" style="stroke-linecap:round;stroke-linejoin:round;"></path>
    <path fill="none" stroke="#000000" d="M2044.60862617,313.43854879L2024.60046347,348.09483061M2048.45769057,320.10521546L2032.29840445,348.09483061" stroke-width="1.6" stroke-linecap="round" stroke-linejoin="round" transform="matrix(1,0,0,1,0,0)" style="stroke-linecap:round;stroke-linejoin:round;"></path>
    <path fill="none" stroke="#000000" d="M2104.64111434,348.09483061L2132.64375,348.09483061" stroke-width="1.6" stroke-linecap="round" stroke-linejoin="round" transform="matrix(1,0,0,1,0,0)" style="stroke-linecap:round;stroke-linejoin:round;"></path>
    <path fill="none" stroke="#000000" d="M2153.91809419,331.80628838L2155.06470227,329.81871162" stroke-width="1.6" stroke-linecap="round" stroke-linejoin="round" transform="matrix(1,0,0,1,0,0)" style="stroke-linecap:round;stroke-linejoin:round;"></path>
    <path fill="none" stroke="#000000" d="M2153.91654872,364.36491532L2155.12820231,366.46320968" stroke-width="1.6" stroke-linecap="round" stroke-linejoin="round" transform="matrix(1,0,0,1,0,0)" style="stroke-linecap:round;stroke-linejoin:round;"></path>
    <path fill="none" stroke="#000000" d="M1853.81907472,328.08666791L1830.59950878,314.68282846" stroke-width="1.6" stroke-linecap="round" stroke-linejoin="round" transform="matrix(1,0,0,1,0,0)" style="stroke-linecap:round;stroke-linejoin:round;"></path>
  </g>
</svg>
