<?xml version="1.0"?>
<svg xmlns="http://www.w3.org/2000/svg" height="359.77580231424946" version="1.1" width="289.7486718017235" style="overflow: hidden; position: relative;" viewBox="0 0 309 379">
  <g transform="translate(-637, -132)">
    <defs style="-webkit-tap-highlight-color: rgba(0, 0, 0, 0);"/>
    <circle cx="458.9749024646643" cy="61.10385388386506" r="24" fill="none" stroke="#00cc00" stroke-width="0.96" transform="matrix(1,0,0,1,333.9109,87.3203)" style="-webkit-tap-highlight-color: rgba(0, 0, 0, 0); display: none;"/>
    <circle cx="426.91897911920125" cy="138.74366822569675" r="24" fill="none" stroke="#00cc00" stroke-width="0.96" transform="matrix(1,0,0,1,333.9109,87.3203)" style="-webkit-tap-highlight-color: rgba(0, 0, 0, 0); display: none;"/>
    <circle cx="522.6147502842698" cy="89.43178614398107" r="24" fill="none" stroke="#00cc00" stroke-width="0.96" transform="matrix(1,0,0,1,333.9109,87.3203)" style="-webkit-tap-highlight-color: rgba(0, 0, 0, 0); display: none;"/>
    <circle cx="532.6148969547011" cy="106.75204017716796" r="19.200000000000003" fill="none" stroke="#00cc00" stroke-width="0.96" transform="matrix(1,0,0,1,333.9109,87.3203)" style="-webkit-tap-highlight-color: rgba(0, 0, 0, 0); display: none;"/>
    <circle cx="542.6150436251323" cy="124.07229421035484" r="24" fill="none" stroke="#00cc00" stroke-width="0.96" transform="matrix(1,0,0,1,333.9109,87.3203)" style="-webkit-tap-highlight-color: rgba(0, 0, 0, 0); display: none;"/>
    <circle cx="562.6153369659947" cy="124.07229421035484" r="19.200000000000003" fill="none" stroke="#00cc00" stroke-width="0.96" transform="matrix(1,0,0,1,333.9109,87.3203)" style="-webkit-tap-highlight-color: rgba(0, 0, 0, 0); display: none;"/>
    <circle cx="486.3708369534436" cy="165.20360495270427" r="24" fill="none" stroke="#00cc00" stroke-width="0.96" transform="matrix(1,0,0,1,333.9109,87.3203)" style="-webkit-tap-highlight-color: rgba(0, 0, 0, 0); display: none;"/>
    <circle cx="472.9148691303667" cy="180.14756921757203" r="19.200000000000003" fill="none" stroke="#00cc00" stroke-width="0.96" transform="matrix(1,0,0,1,333.9109,87.3203)" style="-webkit-tap-highlight-color: rgba(0, 0, 0, 0); display: none;"/>
    <circle cx="443.18894021324553" cy="187.02355277520263" r="19.200000000000003" fill="none" stroke="#00cc00" stroke-width="0.96" transform="matrix(1,0,0,1,333.9109,87.3203)" style="-webkit-tap-highlight-color: rgba(0, 0, 0, 0); display: none;"/>
    <circle cx="397.8590486094945" cy="250.4994009869763" r="24" fill="none" stroke="#00cc00" stroke-width="0.96" transform="matrix(1,0,0,1,333.9109,87.3203)" style="-webkit-tap-highlight-color: rgba(0, 0, 0, 0); display: none;"/>
    <circle cx="383.69508247943656" cy="264.6633671170343" r="19.200000000000003" fill="none" stroke="#00cc00" stroke-width="0.96" transform="matrix(1,0,0,1,333.9109,87.3203)" style="-webkit-tap-highlight-color: rgba(0, 0, 0, 0); display: none;"/>
    <circle cx="332.21720557721073" cy="340.67918534228767" r="19.200000000000003" fill="none" stroke="#00cc00" stroke-width="0.96" transform="matrix(1,0,0,1,333.9109,87.3203)" style="-webkit-tap-highlight-color: rgba(0, 0, 0, 0); display: none;"/>
    <text x="459.4589013072898" y="195.09153348243981" text-anchor="middle" font="30px &quot;Arial&quot;" stroke="none" fill="#000000" style="-webkit-tap-highlight-color: rgba(0, 0, 0, 0); text-anchor: middle; font-style: normal; font-variant: normal; font-weight: normal; font-stretch: normal; font-size: 24px; line-height: normal; font-family: Arial;" font-size="24px" transform="matrix(1,0,0,1,333.9109,87.3203)">
      <tspan dy="8.513408482439814" style="-webkit-tap-highlight-color: rgba(0, 0, 0, 0);">N</tspan>
    </text>
    <text x="458.9749024646643" y="61.10385388386506" text-anchor="middle" font="30px &quot;Arial&quot;" stroke="none" fill="#000000" style="-webkit-tap-highlight-color: rgba(0, 0, 0, 0); text-anchor: middle; font-style: normal; font-variant: normal; font-weight: normal; font-stretch: normal; font-size: 24px; line-height: normal; font-family: Arial;" font-size="24px" transform="matrix(1,0,0,1,333.9109,87.3203)">
      <tspan dy="8.510103883865057" style="-webkit-tap-highlight-color: rgba(0, 0, 0, 0);">O</tspan>
    </text>
    <text x="312.8672518482766" y="335.49119774819417" text-anchor="middle" font="30px &quot;Arial&quot;" stroke="none" fill="#000000" style="-webkit-tap-highlight-color: rgba(0, 0, 0, 0); text-anchor: middle; font-style: normal; font-variant: normal; font-weight: normal; font-stretch: normal; font-size: 24px; line-height: normal; font-family: Arial;" font-size="24px" transform="matrix(1,0,0,1,333.9109,87.3203)">
      <tspan dy="8.506822748194168" style="-webkit-tap-highlight-color: rgba(0, 0, 0, 0);">F</tspan>
    </text>
    <text x="361.93513451346206" y="384.56708039424944" text-anchor="middle" font="30px &quot;Arial&quot;" stroke="none" fill="#000000" style="-webkit-tap-highlight-color: rgba(0, 0, 0, 0); text-anchor: middle; font-style: normal; font-variant: normal; font-weight: normal; font-stretch: normal; font-size: 24px; line-height: normal; font-family: Arial;" font-size="24px" transform="matrix(1,0,0,1,333.9109,87.3203)">
      <tspan dy="8.504580394249444" style="-webkit-tap-highlight-color: rgba(0, 0, 0, 0);">F</tspan>
    </text>
    <text x="341.1991840988275" y="307.1592654976433" text-anchor="middle" font="30px &quot;Arial&quot;" stroke="none" fill="#000000" style="-webkit-tap-highlight-color: rgba(0, 0, 0, 0); text-anchor: middle; font-style: normal; font-variant: normal; font-weight: normal; font-stretch: normal; font-size: 24px; line-height: normal; font-family: Arial;" font-size="24px" transform="matrix(1,0,0,1,333.9109,87.3203)">
      <tspan dy="8.503015497643275" style="-webkit-tap-highlight-color: rgba(0, 0, 0, 0);">F</tspan>
    </text>
    <path fill="none" stroke="#000000" d="M420.25231245,142.59266573L420.25231245,175.10657456M426.91897912,138.74366823L426.91897912,178.95557207" stroke-width="1.6" stroke-linecap="round" stroke-linejoin="round" transform="matrix(1,0,0,1,333.9109,87.3203)" style="-webkit-tap-highlight-color: rgba(0, 0, 0, 0); stroke-linecap: round; stroke-linejoin: round;"/>
    <path fill="none" stroke="#000000" d="M392.0910624,118.63571631L426.91897912,138.74366823" stroke-width="1.6" stroke-linecap="round" stroke-linejoin="round" transform="matrix(1,0,0,1,333.9109,87.3203)" style="-webkit-tap-highlight-color: rgba(0, 0, 0, 0); stroke-linecap: round; stroke-linejoin: round;"/>
    <path fill="none" stroke="#000000" d="M426.91897912,178.95557207L392.0910624,199.06352398" stroke-width="1.6" stroke-linecap="round" stroke-linejoin="round" transform="matrix(1,0,0,1,333.9109,87.3203)" style="-webkit-tap-highlight-color: rgba(0, 0, 0, 0); stroke-linecap: round; stroke-linejoin: round;"/>
    <path fill="none" stroke="#000000" d="M392.09144531,191.36529503L363.93781233,175.10701669M392.0910624,199.06352398L357.27114567,178.95557207" stroke-width="1.6" stroke-linecap="round" stroke-linejoin="round" transform="matrix(1,0,0,1,333.9109,87.3203)" style="-webkit-tap-highlight-color: rgba(0, 0, 0, 0); stroke-linecap: round; stroke-linejoin: round;"/>
    <path fill="none" stroke="#000000" d="M357.27114567,178.95557207L357.27114567,138.74366823" stroke-width="1.6" stroke-linecap="round" stroke-linejoin="round" transform="matrix(1,0,0,1,333.9109,87.3203)" style="-webkit-tap-highlight-color: rgba(0, 0, 0, 0); stroke-linecap: round; stroke-linejoin: round;"/>
    <path fill="none" stroke="#000000" d="M363.93781233,142.59222361L392.09144531,126.33394526M357.27114567,138.74366823L392.0910624,118.63571631" stroke-width="1.6" stroke-linecap="round" stroke-linejoin="round" transform="matrix(1,0,0,1,333.9109,87.3203)" style="-webkit-tap-highlight-color: rgba(0, 0, 0, 0); stroke-linecap: round; stroke-linejoin: round;"/>
    <path fill="none" stroke="#000000" d="M426.91897912,138.74366823L466.25888505,130.37568824" stroke-width="1.6" stroke-linecap="round" stroke-linejoin="round" transform="matrix(1,0,0,1,333.9109,87.3203)" style="-webkit-tap-highlight-color: rgba(0, 0, 0, 0); stroke-linecap: round; stroke-linejoin: round;"/>
    <path fill="none" stroke="#000000" d="M462.90799782,137.9042708L478.17519494,164.3425137M466.25888505,130.37568824L486.37083695,165.20360495" stroke-width="1.6" stroke-linecap="round" stroke-linejoin="round" transform="matrix(1,0,0,1,333.9109,87.3203)" style="-webkit-tap-highlight-color: rgba(0, 0, 0, 0); stroke-linecap: round; stroke-linejoin: round;"/>
    <path fill="none" stroke="#000000" d="M486.37083695,165.20360495L470.23499975,183.12378563" stroke-width="1.6" stroke-linecap="round" stroke-linejoin="round" transform="matrix(1,0,0,1,333.9109,87.3203)" style="-webkit-tap-highlight-color: rgba(0, 0, 0, 0); stroke-linecap: round; stroke-linejoin: round;"/>
    <path fill="none" stroke="#000000" d="M447.91437625,189.36681141L426.91897912,178.95557207" stroke-width="1.6" stroke-linecap="round" stroke-linejoin="round" transform="matrix(1,0,0,1,333.9109,87.3203)" style="-webkit-tap-highlight-color: rgba(0, 0, 0, 0); stroke-linecap: round; stroke-linejoin: round;"/>
    <path fill="none" stroke="#000000" d="M462.6359688,211.73700754L466.99888328,234.59543902" stroke-width="1.6" stroke-linecap="round" stroke-linejoin="round" transform="matrix(1,0,0,1,333.9109,87.3203)" style="-webkit-tap-highlight-color: rgba(0, 0, 0, 0); stroke-linecap: round; stroke-linejoin: round;"/>
    <path fill="none" stroke="#000000" d="M466.99888328,234.59543902L436.55895607,260.87137618" stroke-width="1.6" stroke-linecap="round" stroke-linejoin="round" transform="matrix(1,0,0,1,333.9109,87.3203)" style="-webkit-tap-highlight-color: rgba(0, 0, 0, 0); stroke-linecap: round; stroke-linejoin: round;"/>
    <path fill="none" stroke="#000000" d="M466.25888505,130.37568824L482.61884593,93.63977608" stroke-width="1.6" stroke-linecap="round" stroke-linejoin="round" transform="matrix(1,0,0,1,333.9109,87.3203)" style="-webkit-tap-highlight-color: rgba(0, 0, 0, 0); stroke-linecap: round; stroke-linejoin: round;"/>
    <path fill="none" stroke="#000000" d="M482.61884593,93.63977608L522.61475028,89.43178614" stroke-width="1.6" stroke-linecap="round" stroke-linejoin="round" transform="matrix(1,0,0,1,333.9109,87.3203)" style="-webkit-tap-highlight-color: rgba(0, 0, 0, 0); stroke-linecap: round; stroke-linejoin: round;"/>
    <path fill="none" stroke="#000000" d="M485.3153638,91.68020918L472.8745771,74.56071011M479.92232805,95.59934298L467.48154135,78.47984391" stroke-width="1.6" stroke-linecap="round" stroke-linejoin="round" transform="matrix(1,0,0,1,333.9109,87.3203)" style="-webkit-tap-highlight-color: rgba(0, 0, 0, 0); stroke-linecap: round; stroke-linejoin: round;"/>
    <path fill="none" stroke="#000000" d="M436.55895607,260.87137618L446.93093127,299.56728365" stroke-width="1.6" stroke-linecap="round" stroke-linejoin="round" transform="matrix(1,0,0,1,333.9109,87.3203)" style="-webkit-tap-highlight-color: rgba(0, 0, 0, 0); stroke-linecap: round; stroke-linejoin: round;"/>
    <path fill="none" stroke="#000000" d="M439.49505148,297.57545722L416.60226351,320.47147681M446.93093127,299.56728365L418.59499902,327.90721588" stroke-width="1.6" stroke-linecap="round" stroke-linejoin="round" transform="matrix(1,0,0,1,333.9109,87.3203)" style="-webkit-tap-highlight-color: rgba(0, 0, 0, 0); stroke-linecap: round; stroke-linejoin: round;"/>
    <path fill="none" stroke="#000000" d="M418.59499902,327.90721588L379.89909156,317.53924068" stroke-width="1.6" stroke-linecap="round" stroke-linejoin="round" transform="matrix(1,0,0,1,333.9109,87.3203)" style="-webkit-tap-highlight-color: rgba(0, 0, 0, 0); stroke-linecap: round; stroke-linejoin: round;"/>
    <path fill="none" stroke="#000000" d="M385.34288828,312.09600641L376.96644954,280.82009047M379.89909156,317.53924068L369.53111635,278.82733325" stroke-width="1.6" stroke-linecap="round" stroke-linejoin="round" transform="matrix(1,0,0,1,333.9109,87.3203)" style="-webkit-tap-highlight-color: rgba(0, 0, 0, 0); stroke-linecap: round; stroke-linejoin: round;"/>
    <path fill="none" stroke="#000000" d="M369.53111635,278.82733325L397.85904861,250.49940099" stroke-width="1.6" stroke-linecap="round" stroke-linejoin="round" transform="matrix(1,0,0,1,333.9109,87.3203)" style="-webkit-tap-highlight-color: rgba(0, 0, 0, 0); stroke-linecap: round; stroke-linejoin: round;"/>
    <path fill="none" stroke="#000000" d="M399.85125926,257.93528075L431.11593575,266.31453719M397.85904861,250.49940099L436.55895607,260.87137618" stroke-width="1.6" stroke-linecap="round" stroke-linejoin="round" transform="matrix(1,0,0,1,333.9109,87.3203)" style="-webkit-tap-highlight-color: rgba(0, 0, 0, 0); stroke-linecap: round; stroke-linejoin: round;"/>
    <path fill="none" stroke="#000000" d="M379.89909156,317.53924068L351.56715931,345.86717294" stroke-width="1.6" stroke-linecap="round" stroke-linejoin="round" transform="matrix(1,0,0,1,333.9109,87.3203)" style="-webkit-tap-highlight-color: rgba(0, 0, 0, 0); stroke-linecap: round; stroke-linejoin: round;"/>
    <path fill="none" stroke="#000000" d="M351.56715931,345.86717294L323.2627105,338.27836258" stroke-width="1.6" stroke-linecap="round" stroke-linejoin="round" transform="matrix(1,0,0,1,333.9109,87.3203)" style="-webkit-tap-highlight-color: rgba(0, 0, 0, 0); stroke-linecap: round; stroke-linejoin: round;"/>
    <path fill="none" stroke="#000000" d="M351.56715931,345.86717294L357.48906401,367.97150474" stroke-width="1.6" stroke-linecap="round" stroke-linejoin="round" transform="matrix(1,0,0,1,333.9109,87.3203)" style="-webkit-tap-highlight-color: rgba(0, 0, 0, 0); stroke-linecap: round; stroke-linejoin: round;"/>
    <path fill="none" stroke="#000000" d="M351.56715931,345.86717294L345.64231259,323.74728804" stroke-width="1.6" stroke-linecap="round" stroke-linejoin="round" transform="matrix(1,0,0,1,333.9109,87.3203)" style="-webkit-tap-highlight-color: rgba(0, 0, 0, 0); stroke-linecap: round; stroke-linejoin: round;"/>
    <path fill="none" stroke="#000000" d="M522.61475028,89.43178614L542.61504363,54.79127808" stroke-width="1.6" stroke-linecap="round" stroke-linejoin="round" transform="matrix(1,0,0,1,333.9109,87.3203)" style="-webkit-tap-highlight-color: rgba(0, 0, 0, 0); stroke-linecap: round; stroke-linejoin: round;"/>
    <path fill="none" stroke="#000000" d="M542.61504363,54.79127808L582.61563031,54.79127808" stroke-width="1.6" stroke-linecap="round" stroke-linejoin="round" transform="matrix(1,0,0,1,333.9109,87.3203)" style="-webkit-tap-highlight-color: rgba(0, 0, 0, 0); stroke-linecap: round; stroke-linejoin: round;"/>
    <path fill="none" stroke="#000000" d="M582.61563031,54.79127808L602.61592365,89.43178614" stroke-width="1.6" stroke-linecap="round" stroke-linejoin="round" transform="matrix(1,0,0,1,333.9109,87.3203)" style="-webkit-tap-highlight-color: rgba(0, 0, 0, 0); stroke-linecap: round; stroke-linejoin: round;"/>
    <path fill="none" stroke="#000000" d="M602.61592365,89.43178614L582.61563031,124.07229421" stroke-width="1.6" stroke-linecap="round" stroke-linejoin="round" transform="matrix(1,0,0,1,333.9109,87.3203)" style="-webkit-tap-highlight-color: rgba(0, 0, 0, 0); stroke-linecap: round; stroke-linejoin: round;"/>
    <path fill="none" stroke="#000000" d="M582.61563031,124.07229421L542.61504363,124.07229421" stroke-width="1.6" stroke-linecap="round" stroke-linejoin="round" transform="matrix(1,0,0,1,333.9109,87.3203)" style="-webkit-tap-highlight-color: rgba(0, 0, 0, 0); stroke-linecap: round; stroke-linejoin: round;"/>
    <path fill="none" stroke="#000000" d="M542.61504363,124.07229421L522.61475028,89.43178614" stroke-width="1.6" stroke-linecap="round" stroke-linejoin="round" transform="matrix(1,0,0,1,333.9109,87.3203)" style="-webkit-tap-highlight-color: rgba(0, 0, 0, 0); stroke-linecap: round; stroke-linejoin: round;"/>
  </g>
</svg>
