
<svg xmlns="http://www.w3.org/2000/svg" height="80.00117336" version="1.1" width="69.28101613000001" style="overflow:hidden;" viewBox="0 0 89 100">
  <g transform="translate(-386, -266)">
    <defs></defs>
    <path fill="none" stroke="#000000" d="M137.64201877,106.00155471L137.64201877,146.00214139" stroke-width="1.6" stroke-linecap="round" stroke-linejoin="round" transform="matrix(1,0,0,1,327.9985,190.4982)" style="stroke-linecap:round;stroke-linejoin:round;"></path>
    <path fill="none" stroke="#000000" d="M130.97535211,142.15319605L103.00151071,158.30437468M137.64201877,146.00214139L103.00151071,166.00243473" stroke-width="1.6" stroke-linecap="round" stroke-linejoin="round" transform="matrix(1,0,0,1,327.9985,190.4982)" style="stroke-linecap:round;stroke-linejoin:round;"></path>
    <path fill="none" stroke="#000000" d="M103.00151071,166.00243473L68.36100264,146.00214139" stroke-width="1.6" stroke-linecap="round" stroke-linejoin="round" transform="matrix(1,0,0,1,327.9985,190.4982)" style="stroke-linecap:round;stroke-linejoin:round;"></path>
    <path fill="none" stroke="#000000" d="M75.02766931,142.15319605L75.02766931,109.85050005M68.36100264,146.00214139L68.36100264,106.00155471" stroke-width="1.6" stroke-linecap="round" stroke-linejoin="round" transform="matrix(1,0,0,1,327.9985,190.4982)" style="stroke-linecap:round;stroke-linejoin:round;"></path>
    <path fill="none" stroke="#000000" d="M68.36100264,106.00155471L103.00151071,86.00126137" stroke-width="1.6" stroke-linecap="round" stroke-linejoin="round" transform="matrix(1,0,0,1,327.9985,190.4982)" style="stroke-linecap:round;stroke-linejoin:round;"></path>
    <path fill="none" stroke="#000000" d="M103.00151071,93.69932141L130.97535211,109.85050005M103.00151071,86.00126137L137.64201877,106.00155471" stroke-width="1.6" stroke-linecap="round" stroke-linejoin="round" transform="matrix(1,0,0,1,327.9985,190.4982)" style="stroke-linecap:round;stroke-linejoin:round;"></path>
  </g>
</svg>
