
<svg xmlns="http://www.w3.org/2000/svg" height="110.02664579564123" version="1.1" width="395.3224436558057" style="overflow:hidden;" viewBox="0 0 415 130">
  <g transform="translate(-2044, -286)">
    <defs></defs>
    <circle cx="2123.6656662836967" cy="375.5494368556412" r="24" fill="none" stroke="#00cc00" stroke-width="0.96" transform="matrix(1,0,0,1,0,0)" style="display:none;"></circle>
    <circle cx="2158.3153298114967" cy="355.54065538382423" r="24" fill="none" stroke="#00cc00" stroke-width="0.96" transform="matrix(1,0,0,1,0,0)" style="display:none;"></circle>
    <circle cx="2196.386711213371" cy="367.9088722842883" r="24" fill="none" stroke="#00cc00" stroke-width="0.96" transform="matrix(1,0,0,1,0,0)" style="display:none;"></circle>
    <circle cx="2299.7823756721527" cy="370.1857774867392" r="19.200000000000003" fill="none" stroke="#00cc00" stroke-width="0.96" transform="matrix(1,0,0,1,0,0)" style="display:none;"></circle>
    <text x="2419.6845428369706" y="335.53611395893927" text-anchor="middle" stroke="none" fill="#000000" style="font:24px Arial;" font-size="24px" transform="matrix(1,0,0,1,0,0)">
      <tspan dy="8.497051458939268">N</tspan>
    </text>
    <text x="2196.386711213371" y="367.9088722842883" text-anchor="middle" stroke="none" fill="#000000" style="font:24px Arial;" font-size="24px" transform="matrix(1,0,0,1,0,0)">
      <tspan dy="8.494809784288293">N</tspan>
    </text>
    <text x="2196.386711213371" y="303.16335563359013" text-anchor="middle" stroke="none" fill="#000000" style="font:24px Arial;" font-size="24px" transform="matrix(1,0,0,1,0,0)">
      <tspan dy="8.499293133590129">S</tspan>
    </text>
    <text x="2054.362099181165" y="375.5494368556412" text-anchor="middle" stroke="none" fill="#000000" style="font:24px Arial;" font-size="24px" transform="matrix(1,0,0,1,0,0)">
      <tspan dy="8.494749355641204">Cl</tspan>
    </text>
    <path fill="none" stroke="#000000" d="M2158.31532981,355.54065538L2158.31532981,315.52733249M2151.64866314,351.69201806L2151.64866314,319.37637768" stroke-width="1.6" stroke-linecap="round" stroke-linejoin="round" transform="matrix(1,0,0,1,0,0)" style="stroke-linecap:round;stroke-linejoin:round;"></path>
    <path fill="none" stroke="#000000" d="M2089.01600276,315.52733249L2089.01600276,355.54065538" stroke-width="1.6" stroke-linecap="round" stroke-linejoin="round" transform="matrix(1,0,0,1,0,0)" style="stroke-linecap:round;stroke-linejoin:round;"></path>
    <path fill="none" stroke="#000000" d="M2089.01600276,355.54065538L2123.66566628,375.54943686M2095.68266942,351.69201806L2123.66566628,367.85106874" stroke-width="1.6" stroke-linecap="round" stroke-linejoin="round" transform="matrix(1,0,0,1,0,0)" style="stroke-linecap:round;stroke-linejoin:round;"></path>
    <path fill="none" stroke="#000000" d="M2123.66566628,375.54943686L2158.31532981,355.54065538" stroke-width="1.6" stroke-linecap="round" stroke-linejoin="round" transform="matrix(1,0,0,1,0,0)" style="stroke-linecap:round;stroke-linejoin:round;"></path>
    <path fill="none" stroke="#000000" d="M2158.31532981,315.52733249L2123.66566628,295.52279106" stroke-width="1.6" stroke-linecap="round" stroke-linejoin="round" transform="matrix(1,0,0,1,0,0)" style="stroke-linecap:round;stroke-linejoin:round;"></path>
    <path fill="none" stroke="#000000" d="M2123.66566628,295.52279106L2089.01600276,315.52733249M2123.66566628,303.22075125L2095.68266942,319.37637768" stroke-width="1.6" stroke-linecap="round" stroke-linejoin="round" transform="matrix(1,0,0,1,0,0)" style="stroke-linecap:round;stroke-linejoin:round;"></path>
    <path fill="none" stroke="#000000" d="M2158.31532981,355.54065538L2184.67532393,364.10420398" stroke-width="1.6" stroke-linecap="round" stroke-linejoin="round" transform="matrix(1,0,0,1,0,0)" style="stroke-linecap:round;stroke-linejoin:round;"></path>
    <path fill="none" stroke="#000000" d="M2206.94271304,353.37152129L2219.8935314,335.53611396M2201.54820751,349.4544108L2211.65469575,335.53611396" stroke-width="1.6" stroke-linecap="round" stroke-linejoin="round" transform="matrix(1,0,0,1,0,0)" style="stroke-linecap:round;stroke-linejoin:round;"></path>
    <path fill="none" stroke="#000000" d="M2219.8935314,335.53611396L2206.27083804,316.77542423" stroke-width="1.6" stroke-linecap="round" stroke-linejoin="round" transform="matrix(1,0,0,1,0,0)" style="stroke-linecap:round;stroke-linejoin:round;"></path>
    <path fill="none" stroke="#000000" d="M2185.33147434,306.75362969L2158.31532981,315.52733249" stroke-width="1.6" stroke-linecap="round" stroke-linejoin="round" transform="matrix(1,0,0,1,0,0)" style="stroke-linecap:round;stroke-linejoin:round;"></path>
    <path fill="none" stroke="#000000" d="M2219.8935314,335.53611396L2259.76693275,335.53611396" stroke-width="1.6" stroke-linecap="round" stroke-linejoin="round" transform="matrix(1,0,0,1,0,0)" style="stroke-linecap:round;stroke-linejoin:round;"></path>
    <path fill="none" stroke="#000000" d="M2259.76693275,335.53611396L2279.77571422,370.18577749" stroke-width="1.6" stroke-linecap="round" stroke-linejoin="round" transform="matrix(1,0,0,1,0,0)" style="stroke-linecap:round;stroke-linejoin:round;"></path>
    <path fill="none" stroke="#000000" d="M2279.77571422,370.18577749L2319.78903712,370.18577749M2283.62435155,363.51911082L2315.9403998,363.51911082" stroke-width="1.6" stroke-linecap="round" stroke-linejoin="round" transform="matrix(1,0,0,1,0,0)" style="stroke-linecap:round;stroke-linejoin:round;"></path>
    <path fill="none" stroke="#000000" d="M2319.78903712,370.18577749L2339.79781859,335.53611396" stroke-width="1.6" stroke-linecap="round" stroke-linejoin="round" transform="matrix(1,0,0,1,0,0)" style="stroke-linecap:round;stroke-linejoin:round;"></path>
    <path fill="none" stroke="#000000" d="M2339.79781859,335.53611396L2319.78903712,300.88221038M2332.09956826,335.53591L2315.9401643,307.54887705" stroke-width="1.6" stroke-linecap="round" stroke-linejoin="round" transform="matrix(1,0,0,1,0,0)" style="stroke-linecap:round;stroke-linejoin:round;"></path>
    <path fill="none" stroke="#000000" d="M2319.78903712,300.88221038L2279.77571422,300.88221038" stroke-width="1.6" stroke-linecap="round" stroke-linejoin="round" transform="matrix(1,0,0,1,0,0)" style="stroke-linecap:round;stroke-linejoin:round;"></path>
    <path fill="none" stroke="#000000" d="M2279.77571422,300.88221038L2259.76693275,335.53611396M2283.62458704,307.54887705L2267.46518309,335.53591" stroke-width="1.6" stroke-linecap="round" stroke-linejoin="round" transform="matrix(1,0,0,1,0,0)" style="stroke-linecap:round;stroke-linejoin:round;"></path>
    <path fill="none" stroke="#000000" d="M2089.01600276,355.54065538L2068.47435986,367.40117329" stroke-width="1.6" stroke-linecap="round" stroke-linejoin="round" transform="matrix(1,0,0,1,0,0)" style="stroke-linecap:round;stroke-linejoin:round;"></path>
    <path fill="none" stroke="#000000" d="M2339.79781859,335.53611396L2379.81114149,335.53611396" stroke-width="1.6" stroke-linecap="round" stroke-linejoin="round" transform="matrix(1,0,0,1,0,0)" style="stroke-linecap:round;stroke-linejoin:round;"></path>
    <path fill="none" stroke="#000000" d="M2379.81114149,335.53611396L2407.815625,335.53611396M2379.81114149,342.20278063L2407.815625,342.20278063M2379.81114149,328.86944729L2407.815625,328.86944729" stroke-width="1.6" stroke-linecap="round" stroke-linejoin="round" transform="matrix(1,0,0,1,0,0)" style="stroke-linecap:round;stroke-linejoin:round;"></path>
  </g>
</svg>
