
<svg xmlns="http://www.w3.org/2000/svg" height="161.62982445" version="1.1" width="254.22025815266943" style="overflow:hidden;" viewBox="0 0 274 181">
  <g transform="translate(-407, -128)">
    <defs></defs>
    <circle cx="555.8362983247604" cy="236.2489255857702" r="24" fill="none" stroke="#00cc00" stroke-width="0.96" transform="matrix(1,0,0,1,40,40)" style="display:none;"></circle>
    <circle cx="631.1592844728272" cy="195.97346769586073" r="24" fill="none" stroke="#00cc00" stroke-width="0.96" transform="matrix(1,0,0,1,40,40)" style="display:none;"></circle>
    <circle cx="600.2956998985358" cy="157.52598520129231" r="24" fill="none" stroke="#00cc00" stroke-width="0.96" transform="matrix(1,0,0,1,40,40)" style="display:none;"></circle>
    <circle cx="465.32032631733057" cy="183.37698528981554" r="24" fill="none" stroke="#00cc00" stroke-width="0.96" transform="matrix(1,0,0,1,40,40)" style="display:none;"></circle>
    <circle cx="555.8362983247604" cy="191.525527565403" r="24" fill="none" stroke="#00cc00" stroke-width="0.96" transform="matrix(1,0,0,1,40,40)" style="display:none;"></circle>
    <circle cx="493.6045975647925" cy="211.66125653727747" r="24" fill="none" stroke="#00cc00" stroke-width="0.96" transform="matrix(1,0,0,1,40,40)" style="display:none;"></circle>
    <path fill="#000000" stroke="#000000" d="M598.73578568,154.01256277L601.85561412,161.03940763L554.27656469,161.03942489L557.39603196,154.01254552Z" stroke-width="1.6" stroke-linecap="round" stroke-linejoin="round" transform="matrix(1,0,0,1,40,40)" style="stroke-linecap:round;stroke-linejoin:round;"></path>
    <path fill="none" stroke="#000000" d="M595.85582895,147.5259852L560.27563348,147.5259852" stroke-width="1.6" stroke-linecap="round" stroke-linejoin="round" transform="matrix(1,0,0,1,40,40)" style="stroke-linecap:round;stroke-linejoin:round;"></path>
    <path fill="#000000" stroke="#000000" d="M533.60459756,132.9423161L557.39603196,154.01254552L554.27656469,161.03942489Z" stroke-width="1.6" stroke-linecap="round" stroke-linejoin="round" transform="matrix(1,0,0,1,40,40)" style="stroke-linecap:round;stroke-linejoin:round;"></path>
    <path fill="none" stroke="#000000" d="M543.01694667,133.41110494L558.40697812,119.46925385M533.60459756,132.9423161L555.83629832,112.80258718" stroke-width="1.6" stroke-linecap="round" stroke-linejoin="round" transform="matrix(1,0,0,1,40,40)" style="stroke-linecap:round;stroke-linejoin:round;"></path>
    <path fill="none" stroke="#000000" d="M597.50945095,198.19219423L611.87436227,212.74066492M600.2956999,191.52552757L620.95542182,212.44924593" stroke-width="1.6" stroke-linecap="round" stroke-linejoin="round" transform="matrix(1,0,0,1,40,40)" style="stroke-linecap:round;stroke-linejoin:round;"></path>
    <path fill="#000000" stroke="#000000" d="M620.95542182,212.44924593L601.89652927,239.75839254L598.69487053,232.73945863Z" stroke-width="1.6" stroke-linecap="round" stroke-linejoin="round" transform="matrix(1,0,0,1,40,40)" style="stroke-linecap:round;stroke-linejoin:round;"></path>
    <path fill="none" stroke="#000000" d="M555.83629832,191.52552757L600.2956999,191.52552757" stroke-width="1.6" stroke-linecap="round" stroke-linejoin="round" transform="matrix(1,0,0,1,40,40)" style="stroke-linecap:round;stroke-linejoin:round;"></path>
    <text x="405.32032631733057" y="148.735969138438" text-anchor="middle" stroke="none" fill="#000000" style="font:24px Arial;" font-size="24px" transform="matrix(1,0,0,1,40,40)">
      <tspan dy="8.501594138438008">C</tspan>
    </text>
    <text x="405.32032631733057" y="148.735969138438" text-anchor="middle" stroke="none" fill="#000000" style="font:24px Arial;" font-size="24px" transform="matrix(1,0,0,1,11.6187,40)">
      <tspan dy="8.501594138438008">H</tspan>
    </text>
    <text x="405.32032631733057" y="148.735969138438" text-anchor="middle" stroke="none" fill="#000000" style="font:17px Arial;" font-size="17px" transform="matrix(1,0,0,1,25.8094,45.4)">
      <tspan dy="5.5015941384380085">3</tspan>
    </text>
    <text x="465.32032631733057" y="183.37698528981554" text-anchor="middle" stroke="none" fill="#000000" style="font:24px Arial;" font-size="24px" transform="matrix(1,0,0,1,40,40)">
      <tspan dy="8.501985289815536">N</tspan>
    </text>
    <text x="425.32032631733057" y="183.37698528981554" text-anchor="middle" stroke="none" fill="#000000" style="font:24px Arial;" font-size="24px" transform="matrix(1,0,0,1,40,40)">
      <tspan dy="8.501985289815536">O</tspan>
    </text>
    <path fill="none" stroke="#000000" d="M597.72467728,119.46925385L613.11189338,133.41106293M600.2956999,112.80258718L622.52340071,132.9423161" stroke-width="1.6" stroke-linecap="round" stroke-linejoin="round" transform="matrix(1,0,0,1,40,40)" style="stroke-linecap:round;stroke-linejoin:round;"></path>
    <path fill="#000000" stroke="#000000" d="M622.52340071,132.9423161L601.85561412,161.03940763L598.73578568,154.01256277Z" stroke-width="1.6" stroke-linecap="round" stroke-linejoin="round" transform="matrix(1,0,0,1,40,40)" style="stroke-linecap:round;stroke-linejoin:round;"></path>
    <path fill="none" stroke="#000000" d="M555.83629832,112.80258718L600.2956999,112.80258718" stroke-width="1.6" stroke-linecap="round" stroke-linejoin="round" transform="matrix(1,0,0,1,40,40)" style="stroke-linecap:round;stroke-linejoin:round;"></path>
    <path fill="#000000" stroke="#000000" d="M598.69487053,232.73945863L601.89652927,239.75839254L554.27640141,239.76234967L557.39619524,232.7355015Z" stroke-width="1.6" stroke-linecap="round" stroke-linejoin="round" transform="matrix(1,0,0,1,40,40)" style="stroke-linecap:round;stroke-linejoin:round;"></path>
    <path fill="none" stroke="#000000" d="M595.73423975,226.24892559L560.27611793,226.24892559" stroke-width="1.6" stroke-linecap="round" stroke-linejoin="round" transform="matrix(1,0,0,1,40,40)" style="stroke-linecap:round;stroke-linejoin:round;"></path>
    <path fill="#000000" stroke="#000000" d="M533.60459756,211.66125654L557.39619524,232.7355015L554.27640141,239.76234967Z" stroke-width="1.6" stroke-linecap="round" stroke-linejoin="round" transform="matrix(1,0,0,1,40,40)" style="stroke-linecap:round;stroke-linejoin:round;"></path>
    <path fill="none" stroke="#000000" d="M543.01698864,212.13089559L558.40659971,198.19219423M533.60459756,211.66125654L555.83629832,191.52552757" stroke-width="1.6" stroke-linecap="round" stroke-linejoin="round" transform="matrix(1,0,0,1,40,40)" style="stroke-linecap:round;stroke-linejoin:round;"></path>
    <path fill="#000000" stroke="#000000" d="M600.2956999,157.5259852L631.15928447,195.9734677" stroke-width="7" stroke-linecap="round" stroke-linejoin="round" transform="matrix(1,0,0,1,40,40)" style="stroke-linecap:round;stroke-linejoin:round;"></path>
    <path fill="#000000" stroke="#000000" d="M600.2956999,236.24892559L631.15928447,259.26461579" stroke-width="7" stroke-linecap="round" stroke-linejoin="round" transform="matrix(1,0,0,1,40,40)" style="stroke-linecap:round;stroke-linejoin:round;"></path>
    <path fill="none" stroke="#000000" d="M555.83629832,112.80258718L525.23271025,97.63479134" stroke-width="1.6" stroke-linecap="round" stroke-linejoin="round" transform="matrix(1,0,0,1,40,40)" style="stroke-linecap:round;stroke-linejoin:round;"></path>
    <path fill="none" stroke="#000000" d="M555.83629832,191.52552757L525.23271025,160.92593944" stroke-width="1.6" stroke-linecap="round" stroke-linejoin="round" transform="matrix(1,0,0,1,40,40)" style="stroke-linecap:round;stroke-linejoin:round;"></path>
    <path fill="none" stroke="#000000" d="M525.23271025,160.92593944L525.23271025,97.63479134" stroke-width="1.6" stroke-linecap="round" stroke-linejoin="round" transform="matrix(1,0,0,1,40,40)" style="stroke-linecap:round;stroke-linejoin:round;"></path>
    <path fill="#000000" stroke="#000000" d="M631.15928447,259.26461579L631.15928447,195.9734677" stroke-width="7" stroke-linecap="round" stroke-linejoin="round" transform="matrix(1,0,0,1,40,40)" style="stroke-linecap:round;stroke-linejoin:round;"></path>
    <path fill="none" stroke="#000000" d="M533.60459756,211.66125654L493.60459756,211.66125654" stroke-width="1.6" stroke-linecap="round" stroke-linejoin="round" transform="matrix(1,0,0,1,40,40)" style="stroke-linecap:round;stroke-linejoin:round;"></path>
    <path fill="none" stroke="#000000" d="M493.60459756,211.66125654L476.2314917,194.28815067M486.9379309,214.42268029L471.51744649,199.00219588" stroke-width="1.6" stroke-linecap="round" stroke-linejoin="round" transform="matrix(1,0,0,1,40,40)" style="stroke-linecap:round;stroke-linejoin:round;"></path>
    <path fill="none" stroke="#000000" d="M453.440625,183.37698529L437.840625,183.37698529" stroke-width="1.6" stroke-linecap="round" stroke-linejoin="round" transform="matrix(1,0,0,1,40,40)" style="stroke-linecap:round;stroke-linejoin:round;"></path>
    <path fill="none" stroke="#000000" d="M415.92495148,167.10371871L414.71363458,165.00565629" stroke-width="1.6" stroke-linecap="round" stroke-linejoin="round" transform="matrix(1,0,0,1,40,40)" style="stroke-linecap:round;stroke-linejoin:round;"></path>
  </g>
</svg>
