
<svg xmlns="http://www.w3.org/2000/svg" version="1.1" style="overflow:hidden;" viewBox="0 0 644 494" width="624.3065218438215" height="474.8971616632443">
  <g transform="translate(-39, -44)">
    
    
    <text x="141.8447450470918" y="35.096442631651854" text-anchor="middle" stroke="none" fill="#000000" style="font:24px Arial;" font-size="24px" transform="matrix(1,0,0,1,219,327)">
      <tspan dy="8.500001362730956">C</tspan>
    </text>
    <text x="141.8447450470918" y="35.096442631651854" text-anchor="middle" stroke="none" fill="#000000" style="font:24px Arial;" font-size="24px" transform="matrix(1,0,0,1,237.1281,327)">
      <tspan dy="8.500001362730956">H</tspan>
    </text>
    <text x="141.8447450470918" y="35.096442631651854" text-anchor="middle" stroke="none" fill="#000000" style="font:17px Arial;" font-size="17px" transform="matrix(1,0,0,1,251.3188,332.4)">
      <tspan dy="5.499999455382323">3</tspan>
    </text>
    <text x="81.05414002690961" y="0" text-anchor="middle" stroke="none" fill="#000000" style="font:24px Arial;" font-size="24px" transform="matrix(1,0,0,1,219,327)">
      <tspan dy="8.50000286102295">O</tspan>
    </text>
    <text x="-81.05414002690961" y="0" text-anchor="middle" stroke="none" fill="#000000" style="font:24px Arial;" font-size="24px" transform="matrix(1,0,0,1,219,327)">
      <tspan dy="8.50000286102295">N</tspan>
    </text>
    <text x="-81.05414002690961" y="0" text-anchor="middle" stroke="none" fill="#000000" style="font:24px Arial;" font-size="24px" transform="matrix(1,0,0,1,200.8719,327)">
      <tspan dy="8.50000286102295">H</tspan>
    </text>
    <text x="-81.05414002690961" y="-70.19558706797129" text-anchor="middle" stroke="none" fill="#000000" style="font:24px Arial;" font-size="24px" transform="matrix(1,0,0,1,219,327)">
      <tspan dy="8.500004858603418">O</tspan>
    </text>
    <text x="-141.8447450470918" y="-35.096442631651854" text-anchor="middle" stroke="none" fill="#000000" style="font:24px Arial;" font-size="24px" transform="matrix(1,0,0,1,219,327)">
      <tspan dy="8.50000531298926">C</tspan>
    </text>
    <text x="-141.8447450470918" y="-35.096442631651854" text-anchor="middle" stroke="none" fill="#000000" style="font:24px Arial;" font-size="24px" transform="matrix(1,0,0,1,190.6187,327)">
      <tspan dy="8.50000531298926">H</tspan>
    </text>
    <text x="-141.8447450470918" y="-35.096442631651854" text-anchor="middle" stroke="none" fill="#000000" style="font:17px Arial;" font-size="17px" transform="matrix(1,0,0,1,204.8094,332.4)">
      <tspan dy="5.50000245196631">3</tspan>
    </text>
    <text x="141.8447450470918" y="-132.31007637525965" text-anchor="middle" stroke="none" fill="#000000" style="font:24px Arial;" font-size="24px" transform="matrix(1,0,0,1,219,327)">
      <tspan dy="8.499994616256458">C</tspan>
    </text>
    <text x="141.8447450470918" y="-132.31007637525965" text-anchor="middle" stroke="none" fill="#000000" style="font:24px Arial;" font-size="24px" transform="matrix(1,0,0,1,237.1281,327)">
      <tspan dy="8.499994616256458">H</tspan>
    </text>
    <text x="141.8447450470918" y="-132.31007637525965" text-anchor="middle" stroke="none" fill="#000000" style="font:17px Arial;" font-size="17px" transform="matrix(1,0,0,1,251.3188,332.4)">
      <tspan dy="5.499995569930775">3</tspan>
    </text>
    <text x="81.05414002690961" y="-97.2136337436078" text-anchor="middle" stroke="none" fill="#000000" style="font:24px Arial;" font-size="24px" transform="matrix(1,0,0,1,219,327)">
      <tspan dy="8.500001701033312">O</tspan>
    </text>
    <text x="81.05414002690961" y="-167.40922081157908" text-anchor="middle" stroke="none" fill="#000000" style="font:24px Arial;" font-size="24px" transform="matrix(1,0,0,1,219,327)">
      <tspan dy="8.500001791265163">O</tspan>
    </text>
    <text x="20.263535006727402" y="-272.7012505112022" text-anchor="middle" stroke="none" fill="#000000" style="font:24px Arial;" font-size="24px" transform="matrix(1,0,0,1,219,327)">
      <tspan dy="8.500010055509222">O</tspan>
    </text>
    <text x="81.05414002690961" y="-237.60210607488278" text-anchor="middle" stroke="none" fill="#000000" style="font:24px Arial;" font-size="24px" transform="matrix(1,0,0,1,219,327)">
      <tspan dy="8.500002880500517">O</tspan>
    </text>
    <text x="81.05414002690961" y="-237.60210607488278" text-anchor="middle" stroke="none" fill="#000000" style="font:24px Arial;" font-size="24px" transform="matrix(1,0,0,1,237.7922,327)">
      <tspan dy="8.500002880500517">H</tspan>
    </text>
    <text x="391.7616767967297" y="0" text-anchor="middle" stroke="none" fill="#000000" style="font:24px Arial;" font-size="24px" transform="matrix(1,0,0,1,219,327)">
      <tspan dy="8.50000286102295">C</tspan>
    </text>
    <text x="391.7616767967297" y="0" text-anchor="middle" stroke="none" fill="#000000" style="font:24px Arial;" font-size="24px" transform="matrix(1,0,0,1,237.1281,327)">
      <tspan dy="8.50000286102295">H</tspan>
    </text>
    <text x="391.7616767967297" y="0" text-anchor="middle" stroke="none" fill="#000000" style="font:17px Arial;" font-size="17px" transform="matrix(1,0,0,1,251.3188,332.4)">
      <tspan dy="5.500001907348633">3</tspan>
    </text>
    <text x="317.87812635753403" y="-22.678948379529306" text-anchor="middle" stroke="none" fill="#000000" style="font:24px Arial;" font-size="24px" transform="matrix(1,0,0,1,219,327)">
      <tspan dy="8.50000002287548">N</tspan>
    </text>
    <text x="328.51783313839974" y="12.109488520020292" text-anchor="middle" stroke="none" fill="#000000" style="font:24px Arial;" font-size="24px" transform="matrix(1,0,0,1,219,327)">
      <tspan dy="8.500001940125273">C</tspan>
    </text>
    <text x="328.51783313839974" y="12.109488520020292" text-anchor="middle" stroke="none" fill="#000000" style="font:24px Arial;" font-size="24px" transform="matrix(1,0,0,1,237.1281,327)">
      <tspan dy="8.500001940125273">H</tspan>
    </text>
    <text x="328.51783313839974" y="12.109488520020292" text-anchor="middle" stroke="none" fill="#000000" style="font:17px Arial;" font-size="17px" transform="matrix(1,0,0,1,251.3188,332.4)">
      <tspan dy="5.500001701706694">2</tspan>
    </text>
    <text x="221.36696182749284" y="126.49038912132755" text-anchor="middle" stroke="none" fill="#000000" style="font:24px Arial;" font-size="24px" transform="matrix(1,0,0,1,219,327)">
      <tspan dy="8.50000692680851">O</tspan>
    </text>
    <text x="225.60339154623261" y="166.79591115204215" text-anchor="middle" stroke="none" fill="#000000" style="font:24px Arial;" font-size="24px" transform="matrix(1,0,0,1,219,327)">
      <tspan dy="8.500009853519202">C</tspan>
    </text>
    <text x="225.60339154623261" y="166.79591115204215" text-anchor="middle" stroke="none" fill="#000000" style="font:24px Arial;" font-size="24px" transform="matrix(1,0,0,1,237.1281,327)">
      <tspan dy="8.500009853519202">H</tspan>
    </text>
    <text x="225.60339154623261" y="166.79591115204215" text-anchor="middle" stroke="none" fill="#000000" style="font:17px Arial;" font-size="17px" transform="matrix(1,0,0,1,251.3188,332.4)">
      <tspan dy="5.500010807193519">3</tspan>
    </text>
    <text x="217.13053210875302" y="38.54394538746308" text-anchor="middle" stroke="none" fill="#000000" style="font:24px Arial;" font-size="24px" transform="matrix(1,0,0,1,219,327)">
      <tspan dy="8.5000010286374">O</tspan>
    </text>
    <text x="168.86279172272833" y="-35.096442631651854" text-anchor="middle" stroke="none" fill="#000000" style="font:24px Arial;" font-size="24px" transform="matrix(1,0,0,1,219,327)">
      <tspan dy="8.50000531298926">O</tspan>
    </text>
    <text x="168.86279172272833" y="-35.096442631651854" text-anchor="middle" stroke="none" fill="#000000" style="font:24px Arial;" font-size="24px" transform="matrix(1,0,0,1,200.2078,327)">
      <tspan dy="8.50000531298926">H</tspan>
    </text>
    <path fill="none" stroke="#000000" d="M129.98067932,35.09644263L101.31767503,35.09644263" stroke-width="1.6" stroke-linecap="round" stroke-linejoin="round" transform="matrix(1,0,0,1,219,327)" style="stroke-linecap:round;stroke-linejoin:round;"></path>
    <path fill="none" stroke="#000000" d="M101.31767503,35.09644263L90.44863471,16.27126478" stroke-width="1.6" stroke-linecap="round" stroke-linejoin="round" transform="matrix(1,0,0,1,219,327)" style="stroke-linecap:round;stroke-linejoin:round;"></path>
    <path fill="none" stroke="#000000" d="M68.52600555,0L40.52707001,0" stroke-width="1.6" stroke-linecap="round" stroke-linejoin="round" transform="matrix(1,0,0,1,219,327)" style="stroke-linecap:round;stroke-linejoin:round;"></path>
    <path fill="none" stroke="#000000" d="M32.82900997,0L16.41458967,28.42977596M40.52707001,0L20.26353501,35.09644263" stroke-width="1.6" stroke-linecap="round" stroke-linejoin="round" transform="matrix(1,0,0,1,219,327)" style="stroke-linecap:round;stroke-linejoin:round;"></path>
    <path fill="none" stroke="#000000" d="M20.26353501,35.09644263L-20.26353501,35.09644263" stroke-width="1.6" stroke-linecap="round" stroke-linejoin="round" transform="matrix(1,0,0,1,219,327)" style="stroke-linecap:round;stroke-linejoin:round;"></path>
    <path fill="none" stroke="#000000" d="M-16.41458967,28.42977596L-32.82900997,0M-20.26353501,35.09644263L-40.52707001,0" stroke-width="1.6" stroke-linecap="round" stroke-linejoin="round" transform="matrix(1,0,0,1,219,327)" style="stroke-linecap:round;stroke-linejoin:round;"></path>
    <path fill="none" stroke="#000000" d="M-40.52707001,0L-20.26353501,-35.09644263" stroke-width="1.6" stroke-linecap="round" stroke-linejoin="round" transform="matrix(1,0,0,1,219,327)" style="stroke-linecap:round;stroke-linejoin:round;"></path>
    <path fill="none" stroke="#000000" d="M-16.41458967,-28.42977596L16.41458967,-28.42977596M-20.26353501,-35.09644263L20.26353501,-35.09644263" stroke-width="1.6" stroke-linecap="round" stroke-linejoin="round" transform="matrix(1,0,0,1,219,327)" style="stroke-linecap:round;stroke-linejoin:round;"></path>
    <path fill="none" stroke="#000000" d="M-40.52707001,0L-69.19007187,0" stroke-width="1.6" stroke-linecap="round" stroke-linejoin="round" transform="matrix(1,0,0,1,219,327)" style="stroke-linecap:round;stroke-linejoin:round;"></path>
    <path fill="none" stroke="#000000" d="M-90.4486336,-16.27126288L-101.31767503,-35.09644263" stroke-width="1.6" stroke-linecap="round" stroke-linejoin="round" transform="matrix(1,0,0,1,219,327)" style="stroke-linecap:round;stroke-linejoin:round;"></path>
    <path fill="none" stroke="#000000" d="M-98.4308893,-33.42983552L-87.56115326,-52.25766765M-104.20446076,-36.76304974L-93.33472472,-55.59088188" stroke-width="1.6" stroke-linecap="round" stroke-linejoin="round" transform="matrix(1,0,0,1,219,327)" style="stroke-linecap:round;stroke-linejoin:round;"></path>
    <path fill="none" stroke="#000000" d="M-101.31767503,-35.09644263L-129.98067551,-35.09644263" stroke-width="1.6" stroke-linecap="round" stroke-linejoin="round" transform="matrix(1,0,0,1,219,327)" style="stroke-linecap:round;stroke-linejoin:round;"></path>
    <path fill="none" stroke="#000000" d="M129.98067932,-132.31007638L101.31767503,-132.31007638" stroke-width="1.6" stroke-linecap="round" stroke-linejoin="round" transform="matrix(1,0,0,1,219,327)" style="stroke-linecap:round;stroke-linejoin:round;"></path>
    <path fill="none" stroke="#000000" d="M98.43094486,-133.97677971L87.56190056,-115.15159498M104.20440521,-130.64337304L93.33536091,-111.81818831" stroke-width="1.6" stroke-linecap="round" stroke-linejoin="round" transform="matrix(1,0,0,1,219,327)" style="stroke-linecap:round;stroke-linejoin:round;"></path>
    <path fill="none" stroke="#000000" d="M101.31767503,-132.31007638L90.44794076,-151.13790544" stroke-width="1.6" stroke-linecap="round" stroke-linejoin="round" transform="matrix(1,0,0,1,219,327)" style="stroke-linecap:round;stroke-linejoin:round;"></path>
    <path fill="none" stroke="#000000" d="M68.52600555,-167.40922081L40.52707001,-167.40922081" stroke-width="1.6" stroke-linecap="round" stroke-linejoin="round" transform="matrix(1,0,0,1,219,327)" style="stroke-linecap:round;stroke-linejoin:round;"></path>
    <path fill="none" stroke="#000000" d="M32.82908404,-167.40909251L16.41444152,-138.97674304M40.52707001,-167.40922081L20.26353501,-132.31007638" stroke-width="1.6" stroke-linecap="round" stroke-linejoin="round" transform="matrix(1,0,0,1,219,327)" style="stroke-linecap:round;stroke-linejoin:round;"></path>
    <path fill="none" stroke="#000000" d="M20.26353501,-132.31007638L-20.26353501,-132.31007638" stroke-width="1.6" stroke-linecap="round" stroke-linejoin="round" transform="matrix(1,0,0,1,219,327)" style="stroke-linecap:round;stroke-linejoin:round;"></path>
    <path fill="none" stroke="#000000" d="M-16.41444152,-138.97674304L-32.82908404,-167.40909251M-20.26353501,-132.31007638L-40.52707001,-167.40922081" stroke-width="1.6" stroke-linecap="round" stroke-linejoin="round" transform="matrix(1,0,0,1,219,327)" style="stroke-linecap:round;stroke-linejoin:round;"></path>
    <path fill="none" stroke="#000000" d="M-40.52707001,-167.40922081L-20.26353501,-202.50566344" stroke-width="1.6" stroke-linecap="round" stroke-linejoin="round" transform="matrix(1,0,0,1,219,327)" style="stroke-linecap:round;stroke-linejoin:round;"></path>
    <path fill="none" stroke="#000000" d="M-16.41458967,-195.83899678L16.41458967,-195.83899678M-20.26353501,-202.50566344L20.26353501,-202.50566344" stroke-width="1.6" stroke-linecap="round" stroke-linejoin="round" transform="matrix(1,0,0,1,219,327)" style="stroke-linecap:round;stroke-linejoin:round;"></path>
    <path fill="none" stroke="#000000" d="M20.26353501,-202.50566344L40.52707001,-237.60210607" stroke-width="1.6" stroke-linecap="round" stroke-linejoin="round" transform="matrix(1,0,0,1,219,327)" style="stroke-linecap:round;stroke-linejoin:round;"></path>
    <path fill="none" stroke="#000000" d="M43.41385574,-239.26871319L32.5441167,-258.09655052M37.64028428,-235.93549896L26.77054524,-254.76333629" stroke-width="1.6" stroke-linecap="round" stroke-linejoin="round" transform="matrix(1,0,0,1,219,327)" style="stroke-linecap:round;stroke-linejoin:round;"></path>
    <path fill="none" stroke="#000000" d="M40.52707001,-237.60210607L68.52600555,-237.60210607" stroke-width="1.6" stroke-linecap="round" stroke-linejoin="round" transform="matrix(1,0,0,1,219,327)" style="stroke-linecap:round;stroke-linejoin:round;"></path>
    <path fill="none" stroke="#000000" d="M380.03849988,-3.59849144L329.60130496,-19.08045642" stroke-width="1.6" stroke-linecap="round" stroke-linejoin="round" transform="matrix(1,0,0,1,219,327)" style="stroke-linecap:round;stroke-linejoin:round;"></path>
    <path fill="none" stroke="#000000" d="M306.1600351,-26.34517226L293.14580643,-30.41691695" stroke-width="1.6" stroke-linecap="round" stroke-linejoin="round" transform="matrix(1,0,0,1,219,327)" style="stroke-linecap:round;stroke-linejoin:round;"></path>
    <path fill="none" stroke="#000000" d="M293.14580643,-30.41691695L287.48282385,-5.13072706" stroke-width="1.6" stroke-linecap="round" stroke-linejoin="round" transform="matrix(1,0,0,1,219,327)" style="stroke-linecap:round;stroke-linejoin:round;"></path>
    <path fill="none" stroke="#000000" d="M287.48282385,-5.13072706L270.18046676,0" stroke-width="1.6" stroke-linecap="round" stroke-linejoin="round" transform="matrix(1,0,0,1,219,327)" style="stroke-linecap:round;stroke-linejoin:round;"></path>
    <path fill="none" stroke="#000000" d="M270.18046676,0L290.44400176,-35.09644263" stroke-width="1.6" stroke-linecap="round" stroke-linejoin="round" transform="matrix(1,0,0,1,219,327)" style="stroke-linecap:round;stroke-linejoin:round;"></path>
    <path fill="none" stroke="#000000" d="M290.44400176,-35.09644263L330.97107178,-35.09644263" stroke-width="1.6" stroke-linecap="round" stroke-linejoin="round" transform="matrix(1,0,0,1,219,327)" style="stroke-linecap:round;stroke-linejoin:round;"></path>
    <path fill="none" stroke="#000000" d="M330.97107178,-35.09644263L329.38548923,-4.58620224" stroke-width="1.6" stroke-linecap="round" stroke-linejoin="round" transform="matrix(1,0,0,1,219,327)" style="stroke-linecap:round;stroke-linejoin:round;"></path>
    <path fill="none" stroke="#000000" d="M325.11021723,28.74439284L319.72616075,55.02765566" stroke-width="1.6" stroke-linecap="round" stroke-linejoin="round" transform="matrix(1,0,0,1,219,327)" style="stroke-linecap:round;stroke-linejoin:round;"></path>
    <path fill="none" stroke="#000000" d="M319.72616075,55.02765566L282.70333139,38.54394539M313.49835895,59.55242681L283.50807402,46.19982312" stroke-width="1.6" stroke-linecap="round" stroke-linejoin="round" transform="matrix(1,0,0,1,219,327)" style="stroke-linecap:round;stroke-linejoin:round;"></path>
    <path fill="none" stroke="#000000" d="M282.70333139,38.54394539L249.91693175,62.36575714" stroke-width="1.6" stroke-linecap="round" stroke-linejoin="round" transform="matrix(1,0,0,1,219,327)" style="stroke-linecap:round;stroke-linejoin:round;"></path>
    <path fill="none" stroke="#000000" d="M249.91693175,62.36575714L254.15336147,102.66857737M256.94943595,65.49669265L260.38116327,98.14406281" stroke-width="1.6" stroke-linecap="round" stroke-linejoin="round" transform="matrix(1,0,0,1,219,327)" style="stroke-linecap:round;stroke-linejoin:round;"></path>
    <path fill="none" stroke="#000000" d="M254.15336147,102.66857737L291.17619083,119.15498945" stroke-width="1.6" stroke-linecap="round" stroke-linejoin="round" transform="matrix(1,0,0,1,219,327)" style="stroke-linecap:round;stroke-linejoin:round;"></path>
    <path fill="none" stroke="#000000" d="M291.17619083,119.15498945L323.96259047,95.33317769M290.37166719,111.49895261L316.93011132,92.20222398" stroke-width="1.6" stroke-linecap="round" stroke-linejoin="round" transform="matrix(1,0,0,1,219,327)" style="stroke-linecap:round;stroke-linejoin:round;"></path>
    <path fill="none" stroke="#000000" d="M254.15336147,102.66857737L233.28390058,117.83182719" stroke-width="1.6" stroke-linecap="round" stroke-linejoin="round" transform="matrix(1,0,0,1,219,327)" style="stroke-linecap:round;stroke-linejoin:round;"></path>
    <path fill="none" stroke="#000000" d="M223.12042186,143.17286153L223.84993055,150.11342959" stroke-width="1.6" stroke-linecap="round" stroke-linejoin="round" transform="matrix(1,0,0,1,219,327)" style="stroke-linecap:round;stroke-linejoin:round;"></path>
    <path fill="none" stroke="#000000" d="M249.91693175,62.36575714L229.04748091,47.20251461" stroke-width="1.6" stroke-linecap="round" stroke-linejoin="round" transform="matrix(1,0,0,1,219,327)" style="stroke-linecap:round;stroke-linejoin:round;"></path>
    <path fill="none" stroke="#000000" d="M222.50545626,22.00054347L229.65339674,0" stroke-width="1.6" stroke-linecap="round" stroke-linejoin="round" transform="matrix(1,0,0,1,219,327)" style="stroke-linecap:round;stroke-linejoin:round;"></path>
    <path fill="none" stroke="#000000" d="M229.65339674,0L209.38986174,-35.09644263" stroke-width="1.6" stroke-linecap="round" stroke-linejoin="round" transform="matrix(1,0,0,1,219,327)" style="stroke-linecap:round;stroke-linejoin:round;"></path>
    <path fill="none" stroke="#000000" d="M209.38986174,-35.09644263L229.65339674,-70.19558707" stroke-width="1.6" stroke-linecap="round" stroke-linejoin="round" transform="matrix(1,0,0,1,219,327)" style="stroke-linecap:round;stroke-linejoin:round;"></path>
    <path fill="none" stroke="#000000" d="M233.50249023,-63.5289204L266.33137327,-63.5289204M229.65339674,-70.19558707L270.18046676,-70.19558707" stroke-width="1.6" stroke-linecap="round" stroke-linejoin="round" transform="matrix(1,0,0,1,219,327)" style="stroke-linecap:round;stroke-linejoin:round;"></path>
    <path fill="none" stroke="#000000" d="M209.38986174,-35.09644263L181.39090652,-35.09644263" stroke-width="1.6" stroke-linecap="round" stroke-linejoin="round" transform="matrix(1,0,0,1,219,327)" style="stroke-linecap:round;stroke-linejoin:round;"></path>
    <path fill="none" stroke="#000000" d="M20.26353501,-35.09644263L40.52707001,0" stroke-width="1.6" stroke-linecap="round" stroke-linejoin="round" transform="matrix(1,0,0,1,219,327)" style="stroke-linecap:round;stroke-linejoin:round;"></path>
    <path fill="none" stroke="#000000" d="M20.26353501,-202.50566344L40.52707001,-167.40922081" stroke-width="1.6" stroke-linecap="round" stroke-linejoin="round" transform="matrix(1,0,0,1,219,327)" style="stroke-linecap:round;stroke-linejoin:round;"></path>
    <path fill="none" stroke="#000000" d="M330.97107178,-35.09644263L328.86401869,-33.09809018" stroke-width="1.6" stroke-linecap="round" stroke-linejoin="round" transform="matrix(1,0,0,1,219,327)" style="stroke-linecap:round;stroke-linejoin:round;"></path>
    <path fill="none" stroke="#000000" d="M282.70333139,38.54394539L270.18046676,0" stroke-width="1.6" stroke-linecap="round" stroke-linejoin="round" transform="matrix(1,0,0,1,219,327)" style="stroke-linecap:round;stroke-linejoin:round;"></path>
    <path fill="none" stroke="#000000" d="M229.65339674,0L270.18046676,0" stroke-width="1.6" stroke-linecap="round" stroke-linejoin="round" transform="matrix(1,0,0,1,219,327)" style="stroke-linecap:round;stroke-linejoin:round;"></path>
    <path fill="none" stroke="#000000" d="M270.18046676,-70.19558707L290.44400176,-35.09644263" stroke-width="1.6" stroke-linecap="round" stroke-linejoin="round" transform="matrix(1,0,0,1,219,327)" style="stroke-linecap:round;stroke-linejoin:round;"></path>
    <path fill="none" stroke="#000000" d="M323.96259047,95.33317769L319.72616075,55.02765566" stroke-width="1.6" stroke-linecap="round" stroke-linejoin="round" transform="matrix(1,0,0,1,219,327)" style="stroke-linecap:round;stroke-linejoin:round;"></path>
  </g>
</svg>
