
<svg xmlns="http://www.w3.org/2000/svg" height="115.40376651918905" version="1.1" width="476.21051158547914" style="overflow:hidden;" viewBox="0 0 496 135">
  <g transform="translate(-565, -262)">
    <defs></defs>
    <circle cx="10.000083314797266" cy="17.320144301228865" r="19.200000000000003" fill="none" stroke="#00cc00" stroke-width="0.96" transform="matrix(1,0,0,1,809.2188,312.1266)" style="display:none;"></circle>
    <text x="-63.512529148940395" y="32.36026960668396" text-anchor="middle" stroke="none" fill="#000000" style="font:24px Arial;" font-size="24px" transform="matrix(1,0,0,1,809.2188,312.1266)">
      <tspan dy="8.493082106683957">S</tspan>
    </text>
    <text x="-63.512529148940395" y="-32.36026960668396" text-anchor="middle" stroke="none" fill="#000000" style="font:24px Arial;" font-size="24px" transform="matrix(1,0,0,1,809.2188,312.1266)">
      <tspan dy="8.506917893316043">N</tspan>
    </text>
    <text x="-205.4777119191283" y="40.00033325918906" text-anchor="middle" stroke="none" fill="#000000" style="font:24px Arial;" font-size="24px" transform="matrix(1,0,0,1,809.2188,312.1266)">
      <tspan dy="8.492520759189063">C</tspan>
    </text>
    <text x="-205.4777119191283" y="40.00033325918906" text-anchor="middle" stroke="none" fill="#000000" style="font:24px Arial;" font-size="24px" transform="matrix(1,0,0,1,780.8375,312.1266)">
      <tspan dy="8.492520759189063">H</tspan>
    </text>
    <text x="-205.4777119191283" y="40.00033325918906" text-anchor="middle" stroke="none" fill="#000000" style="font:17px Arial;" font-size="17px" transform="matrix(1,0,0,1,795.0281,317.5297)">
      <tspan dy="5.492520759189063">3</tspan>
    </text>
    <text x="120.00099977756719" y="0" text-anchor="middle" stroke="none" fill="#000000" style="font:24px Arial;" font-size="24px" transform="matrix(1,0,0,1,809.2188,312.1266)">
      <tspan dy="8.5">N</tspan>
    </text>
    <text x="120.00099977756719" y="0" text-anchor="middle" stroke="none" fill="#000000" style="font:24px Arial;" font-size="24px" transform="matrix(1,0,0,1,827.3625,312.1266)">
      <tspan dy="8.5">H</tspan>
    </text>
    <text x="180.00149966635078" y="-34.64028860245773" text-anchor="middle" stroke="none" fill="#000000" style="font:24px Arial;" font-size="24px" transform="matrix(1,0,0,1,809.2188,312.1266)">
      <tspan dy="8.49252389754227">C</tspan>
    </text>
    <text x="180.00149966635078" y="-34.64028860245773" text-anchor="middle" stroke="none" fill="#000000" style="font:24px Arial;" font-size="24px" transform="matrix(1,0,0,1,827.3625,312.1266)">
      <tspan dy="8.49252389754227">H</tspan>
    </text>
    <text x="180.00149966635078" y="-34.64028860245773" text-anchor="middle" stroke="none" fill="#000000" style="font:17px Arial;" font-size="17px" transform="matrix(1,0,0,1,841.5688,317.5297)">
      <tspan dy="5.49252389754227">3</tspan>
    </text>
    <path fill="none" stroke="#000000" d="M-101.55284608,20.00016663L-101.55284608,-20.00016663" stroke-width="1.6" stroke-linecap="round" stroke-linejoin="round" transform="matrix(1,0,0,1,809.2188,312.1266)" style="stroke-linecap:round;stroke-linejoin:round;"></path>
    <path fill="none" stroke="#000000" d="M-101.55284608,-20.00016663L-136.19713471,-40.00033326M-108.21951275,-16.15099907L-136.19694227,-32.30238432" stroke-width="1.6" stroke-linecap="round" stroke-linejoin="round" transform="matrix(1,0,0,1,809.2188,312.1266)" style="stroke-linecap:round;stroke-linejoin:round;"></path>
    <path fill="none" stroke="#000000" d="M-136.19713471,-40.00033326L-170.83742332,-20.00016663" stroke-width="1.6" stroke-linecap="round" stroke-linejoin="round" transform="matrix(1,0,0,1,809.2188,312.1266)" style="stroke-linecap:round;stroke-linejoin:round;"></path>
    <path fill="none" stroke="#000000" d="M-170.83742332,-20.00016663L-170.83742332,20.00016663M-164.17075665,-16.15122129L-164.17075665,16.15122129" stroke-width="1.6" stroke-linecap="round" stroke-linejoin="round" transform="matrix(1,0,0,1,809.2188,312.1266)" style="stroke-linecap:round;stroke-linejoin:round;"></path>
    <path fill="none" stroke="#000000" d="M-170.83742332,20.00016663L-136.19713471,40.00033326" stroke-width="1.6" stroke-linecap="round" stroke-linejoin="round" transform="matrix(1,0,0,1,809.2188,312.1266)" style="stroke-linecap:round;stroke-linejoin:round;"></path>
    <path fill="none" stroke="#000000" d="M-136.19713471,40.00033326L-101.55284608,20.00016663M-136.19694227,32.30238432L-108.21951275,16.15099907" stroke-width="1.6" stroke-linecap="round" stroke-linejoin="round" transform="matrix(1,0,0,1,809.2188,312.1266)" style="stroke-linecap:round;stroke-linejoin:round;"></path>
    <path fill="none" stroke="#000000" d="M-101.55284608,20.00016663L-74.55900456,28.77103627" stroke-width="1.6" stroke-linecap="round" stroke-linejoin="round" transform="matrix(1,0,0,1,809.2188,312.1266)" style="stroke-linecap:round;stroke-linejoin:round;"></path>
    <path fill="none" stroke="#000000" d="M-53.61903044,18.74366455L-40.00033326,0" stroke-width="1.6" stroke-linecap="round" stroke-linejoin="round" transform="matrix(1,0,0,1,809.2188,312.1266)" style="stroke-linecap:round;stroke-linejoin:round;"></path>
    <path fill="none" stroke="#000000" d="M-40.00033326,0L-52.96278044,-17.84045555M-48.24091768,0L-58.35614118,-13.92176898" stroke-width="1.6" stroke-linecap="round" stroke-linejoin="round" transform="matrix(1,0,0,1,809.2188,312.1266)" style="stroke-linecap:round;stroke-linejoin:round;"></path>
    <path fill="none" stroke="#000000" d="M-75.23087956,-28.55272988L-101.55284608,-20.00016663" stroke-width="1.6" stroke-linecap="round" stroke-linejoin="round" transform="matrix(1,0,0,1,809.2188,312.1266)" style="stroke-linecap:round;stroke-linejoin:round;"></path>
    <path fill="none" stroke="#000000" d="M-170.83742332,20.00016663L-194.04123903,33.39728887" stroke-width="1.6" stroke-linecap="round" stroke-linejoin="round" transform="matrix(1,0,0,1,809.2188,312.1266)" style="stroke-linecap:round;stroke-linejoin:round;"></path>
    <path fill="none" stroke="#000000" d="M-40.00033326,0L0,0" stroke-width="1.6" stroke-linecap="round" stroke-linejoin="round" transform="matrix(1,0,0,1,809.2188,312.1266)" style="stroke-linecap:round;stroke-linejoin:round;"></path>
    <path fill="none" stroke="#000000" d="M0,0L20.00016663,-34.6402886" stroke-width="1.6" stroke-linecap="round" stroke-linejoin="round" transform="matrix(1,0,0,1,809.2188,312.1266)" style="stroke-linecap:round;stroke-linejoin:round;"></path>
    <path fill="none" stroke="#000000" d="M23.84911197,-27.97362194L56.15155455,-27.97362194M20.00016663,-34.6402886L60.00049989,-34.6402886" stroke-width="1.6" stroke-linecap="round" stroke-linejoin="round" transform="matrix(1,0,0,1,809.2188,312.1266)" style="stroke-linecap:round;stroke-linejoin:round;"></path>
    <path fill="none" stroke="#000000" d="M60.00049989,-34.6402886L80.00066652,0" stroke-width="1.6" stroke-linecap="round" stroke-linejoin="round" transform="matrix(1,0,0,1,809.2188,312.1266)" style="stroke-linecap:round;stroke-linejoin:round;"></path>
    <path fill="none" stroke="#000000" d="M72.30260647,0L56.15155455,27.97362194M80.00066652,0L60.00049989,34.6402886" stroke-width="1.6" stroke-linecap="round" stroke-linejoin="round" transform="matrix(1,0,0,1,809.2188,312.1266)" style="stroke-linecap:round;stroke-linejoin:round;"></path>
    <path fill="none" stroke="#000000" d="M60.00049989,34.6402886L20.00016663,34.6402886" stroke-width="1.6" stroke-linecap="round" stroke-linejoin="round" transform="matrix(1,0,0,1,809.2188,312.1266)" style="stroke-linecap:round;stroke-linejoin:round;"></path>
    <path fill="none" stroke="#000000" d="M23.84911197,27.97362194L7.69806004,0M20.00016663,34.6402886L0,0" stroke-width="1.6" stroke-linecap="round" stroke-linejoin="round" transform="matrix(1,0,0,1,809.2188,312.1266)" style="stroke-linecap:round;stroke-linejoin:round;"></path>
    <path fill="none" stroke="#000000" d="M80.00066652,0L108.128125,0" stroke-width="1.6" stroke-linecap="round" stroke-linejoin="round" transform="matrix(1,0,0,1,809.2188,312.1266)" style="stroke-linecap:round;stroke-linejoin:round;"></path>
    <path fill="none" stroke="#000000" d="M129.40451362,-16.28688597L140.00116641,-34.6402886" stroke-width="1.6" stroke-linecap="round" stroke-linejoin="round" transform="matrix(1,0,0,1,809.2188,312.1266)" style="stroke-linecap:round;stroke-linejoin:round;"></path>
    <path fill="none" stroke="#000000" d="M140.00116641,-34.6402886L168.128125,-34.6402886" stroke-width="1.6" stroke-linecap="round" stroke-linejoin="round" transform="matrix(1,0,0,1,809.2188,312.1266)" style="stroke-linecap:round;stroke-linejoin:round;"></path>
  </g>
</svg>
