
<svg xmlns="http://www.w3.org/2000/svg" height="206.0799414215271" version="1.1" width="391.3439258911536" style="overflow:hidden;" viewBox="0 0 411 226">
  <g transform="translate(-588, -179)">
    <defs></defs>
    <circle cx="19.999994930024464" cy="211.0799464914782" r="24" fill="#77ff77" stroke="none" style="display:none;" transform="matrix(1,0,0,1,578.0657,114.46)"></circle>
    <circle cx="59.99998479007339" cy="251.07993635152712" r="24" fill="#77ff77" stroke="none" style="display:none;" transform="matrix(1,0,0,1,578.0657,114.46)"></circle>
    <circle cx="59.99998479007339" cy="231.07994142150267" r="19.200000000000003" fill="#77ff77" stroke="none" style="display:none;" transform="matrix(1,0,0,1,578.0657,114.46)"></circle>
    <circle cx="39.99998986004893" cy="211.0799464914782" r="19.200000000000003" fill="#77ff77" stroke="none" style="display:none;" transform="matrix(1,0,0,1,578.0657,114.46)"></circle>
    <circle cx="59.99998479007339" cy="211.0799464914782" r="24" fill="#77ff77" stroke="none" style="display:none;" transform="matrix(1,0,0,1,578.0657,114.46)"></circle>
    <circle cx="79.99997972009785" cy="211.0799464914782" r="19.200000000000003" fill="#77ff77" stroke="none" style="display:none;" transform="matrix(1,0,0,1,578.0657,114.46)"></circle>
    <circle cx="59.99998479007339" cy="191.0799515614537" r="19.200000000000003" fill="#77ff77" stroke="none" style="display:none;" transform="matrix(1,0,0,1,578.0657,114.46)"></circle>
    <circle cx="99.99997465012231" cy="211.0799464914782" r="24" fill="#77ff77" stroke="none" style="display:none;" transform="matrix(1,0,0,1,578.0657,114.46)"></circle>
    <circle cx="59.99998479007339" cy="171.07995663142927" r="24" fill="#77ff77" stroke="none" style="display:none;" transform="matrix(1,0,0,1,578.0657,114.46)"></circle>
    <circle cx="102.81597393626976" cy="131.07996677138036" r="24" fill="none" stroke="#00cc00" style="display:none;" stroke-width="0.96" transform="matrix(1,0,0,1,647.0657,169.46)"></circle>
    <circle cx="36.26799080610637" cy="105.53597324675309" r="24" fill="none" stroke="#00cc00" style="display:none;" stroke-width="0.96" transform="matrix(1,0,0,1,647.0657,169.46)"></circle>
    <circle cx="141.93996401838365" cy="122.76396887947618" r="24" fill="none" stroke="#00cc00" style="display:none;" stroke-width="0.96" transform="matrix(1,0,0,1,647.0657,169.46)"></circle>
    <circle cx="272.34393096112916" cy="19.999994930024464" r="24" fill="none" stroke="#00cc00" style="display:none;" stroke-width="0.96" transform="matrix(1,0,0,1,647.0657,169.46)"></circle>
    <circle cx="130.79196684438799" cy="52.35998672680405" r="24" fill="none" stroke="#00cc00" style="display:none;" stroke-width="0.96" transform="matrix(1,0,0,1,647.0657,169.46)"></circle>
    <circle cx="84.3679786128152" cy="62.22798422527813" r="24" fill="none" stroke="#00cc00" style="display:none;" stroke-width="0.96" transform="matrix(1,0,0,1,647.0657,169.46)"></circle>
    <circle cx="59.99998479007339" cy="171.07995663142927" r="24" fill="none" stroke="#00cc00" style="display:none;" stroke-width="0.96" transform="matrix(1,0,0,1,578.0657,114.46)"></circle>
    <circle cx="59.99998479007339" cy="191.0799515614537" r="19.200000000000003" fill="none" stroke="#00cc00" style="display:none;" stroke-width="0.96" transform="matrix(1,0,0,1,578.0657,114.46)"></circle>
    <circle cx="99.99997465012231" cy="211.0799464914782" r="24" fill="none" stroke="#00cc00" style="display:none;" stroke-width="0.96" transform="matrix(1,0,0,1,578.0657,114.46)"></circle>
    <circle cx="79.99997972009785" cy="211.0799464914782" r="19.200000000000003" fill="none" stroke="#00cc00" style="display:none;" stroke-width="0.96" transform="matrix(1,0,0,1,578.0657,114.46)"></circle>
    <circle cx="59.99998479007339" cy="231.07994142150267" r="19.200000000000003" fill="none" stroke="#00cc00" style="display:none;" stroke-width="0.96" transform="matrix(1,0,0,1,578.0657,114.46)"></circle>
    <text style='font:24px "Arial";' x="272.34393096112916" y="59.99998479007339" text-anchor="middle" stroke="none" fill="#000000" font-size="24px" transform="matrix(1,0,0,1,647.0657,169.46)">
      <tspan dy="8.000034381137844">B</tspan>
    </text>
    <text style='font:17px "Arial";' x="272.34393096112916" y="59.99998479007339" text-anchor="middle" stroke="none" fill="#000000" font-size="17px" transform="matrix(1,0,0,1,660.5907,161.06)">
      <tspan dy="6.000023890720364">–</tspan>
    </text>
    <text style='font:24px "Arial";' x="59.99998479007339" y="211.0799464914782" text-anchor="middle" stroke="none" fill="#000000" font-size="24px" transform="matrix(1,0,0,1,578.0657,114.46)">
      <tspan dy="8.000040027855164">B</tspan>
    </text>
    <text style='font:17px "Arial";' x="59.99998479007339" y="211.0799464914782" text-anchor="middle" stroke="none" fill="#000000" font-size="17px" transform="matrix(1,0,0,1,591.5907,106.06)">
      <tspan dy="6.000025722740418">–</tspan>
    </text>
    <text style='font:24px "Arial";' x="272.34393096112916" y="99.99997465012231" text-anchor="middle" stroke="none" fill="#000000" font-size="24px" transform="matrix(1,0,0,1,647.0657,169.46)">
      <tspan dy="8.000031870581296">F</tspan>
    </text>
    <text style='font:24px "Arial";' x="312.3439208211781" y="59.99998479007339" text-anchor="middle" stroke="none" fill="#000000" font-size="24px" transform="matrix(1,0,0,1,647.0657,169.46)">
      <tspan dy="8.000034381137844">F</tspan>
    </text>
    <text style='font:24px "Arial";' x="272.34393096112916" y="19.999994930024464" text-anchor="middle" stroke="none" fill="#000000" font-size="24px" transform="matrix(1,0,0,1,647.0657,169.46)">
      <tspan dy="8.000034030671436">F</tspan>
    </text>
    <text style='font:24px "Arial";' x="232.34394110108025" y="59.99998479007339" text-anchor="middle" stroke="none" fill="#000000" font-size="24px" transform="matrix(1,0,0,1,647.0657,169.46)">
      <tspan dy="8.000034381137844">F</tspan>
    </text>
    <text style='font:24px "Arial";' x="59.99998479007339" y="251.07993635152712" text-anchor="middle" stroke="none" fill="#000000" font-size="24px" transform="matrix(1,0,0,1,578.0657,114.46)">
      <tspan dy="8.000029887904077">F</tspan>
    </text>
    <text style='font:24px "Arial";' x="99.99997465012231" y="211.0799464914782" text-anchor="middle" stroke="none" fill="#000000" font-size="24px" transform="matrix(1,0,0,1,578.0657,114.46)">
      <tspan dy="8.000040027855164">F</tspan>
    </text>
    <text style='font:24px "Arial";' x="59.99998479007339" y="171.07995663142927" text-anchor="middle" stroke="none" fill="#000000" font-size="24px" transform="matrix(1,0,0,1,578.0657,114.46)">
      <tspan dy="8.00003490901716">F</tspan>
    </text>
    <text style='font:24px "Arial";' x="19.999994930024464" y="211.0799464914782" text-anchor="middle" stroke="none" fill="#000000" font-size="24px" transform="matrix(1,0,0,1,578.0657,114.46)">
      <tspan dy="8.000040027855164">F</tspan>
    </text>
    <path style="stroke-linecap:round;stroke-linejoin:round;" fill="none" stroke="#000000" d="M272.34393096,77.20004196L272.34393096,82.79991608" stroke-width="1.6" stroke-linecap="round" stroke-linejoin="round" transform="matrix(1,0,0,1,647.0657,169.46)"></path>
    <path style="stroke-linecap:round;stroke-linejoin:round;" fill="none" stroke="#000000" d="M293.79401875,59.99998479L301.81055908,59.99998479" stroke-width="1.6" stroke-linecap="round" stroke-linejoin="round" transform="matrix(1,0,0,1,647.0657,169.46)"></path>
    <path style="stroke-linecap:round;stroke-linejoin:round;" fill="none" stroke="#000000" d="M272.34393096,42.79992752L272.34393096,37.20005245" stroke-width="1.6" stroke-linecap="round" stroke-linejoin="round" transform="matrix(1,0,0,1,647.0657,169.46)"></path>
    <path style="stroke-linecap:round;stroke-linejoin:round;" fill="none" stroke="#000000" d="M261.14390259,59.99998479L242.87731667,59.99998479" stroke-width="1.6" stroke-linecap="round" stroke-linejoin="round" transform="matrix(1,0,0,1,647.0657,169.46)"></path>
    <path style="stroke-linecap:round;stroke-linejoin:round;" fill="none" stroke="#000000" d="M59.99998479,228.28000946L59.99998479,233.87987976" stroke-width="1.6" stroke-linecap="round" stroke-linejoin="round" transform="matrix(1,0,0,1,578.0657,114.46)"></path>
    <path style="stroke-linecap:round;stroke-linejoin:round;" fill="none" stroke="#000000" d="M81.45005894,211.07994649L89.46661072,211.07994649" stroke-width="1.6" stroke-linecap="round" stroke-linejoin="round" transform="matrix(1,0,0,1,578.0657,114.46)"></path>
    <path style="stroke-linecap:round;stroke-linejoin:round;" fill="none" stroke="#000000" d="M59.99998479,193.87989502L59.99998479,188.28000946" stroke-width="1.6" stroke-linecap="round" stroke-linejoin="round" transform="matrix(1,0,0,1,578.0657,114.46)"></path>
    <path style="stroke-linecap:round;stroke-linejoin:round;" fill="none" stroke="#000000" d="M48.79995041,211.07994649L30.53335781,211.07994649" stroke-width="1.6" stroke-linecap="round" stroke-linejoin="round" transform="matrix(1,0,0,1,578.0657,114.46)"></path>
    <text style='font:24px "Arial";' x="36.26799080610637" y="105.53597324675309" text-anchor="middle" stroke="none" fill="#000000" font-size="24px" transform="matrix(1,0,0,1,647.0657,169.46)">
      <tspan dy="8.000015910327306">S</tspan>
    </text>
    <text style='font:17px "Arial";' x="36.26799080610637" y="105.53597324675309" text-anchor="middle" stroke="none" fill="#000000" font-size="17px" transform="matrix(1,0,0,1,660.8324,161.06)">
      <tspan dy="6.000007327258459">+</tspan>
    </text>
    <text style='font:24px "Arial";' x="192.3439512410313" y="72.35998165682851" text-anchor="middle" stroke="none" fill="#000000" font-size="24px" transform="matrix(1,0,0,1,647.0657,169.46)">
      <tspan dy="8.000007749357806">S</tspan>
    </text>
    <text style='font:17px "Arial";' x="192.3439512410313" y="72.35998165682851" text-anchor="middle" stroke="none" fill="#000000" font-size="17px" transform="matrix(1,0,0,1,660.8324,161.06)">
      <tspan dy="6.00000679568349">+</tspan>
    </text>
    <text style='font:24px "Arial";' x="130.79196684438799" y="52.35998672680405" text-anchor="middle" stroke="none" fill="#000000" font-size="24px" transform="matrix(1,0,0,1,647.0657,169.46)">
      <tspan dy="8.000014726681982">S</tspan>
    </text>
    <text style='font:24px "Arial";' x="84.3679786128152" y="62.22798422527813" text-anchor="middle" stroke="none" fill="#000000" font-size="24px" transform="matrix(1,0,0,1,647.0657,169.46)">
      <tspan dy="8.000010287289847">S</tspan>
    </text>
    <path style="stroke-linecap:round;stroke-linejoin:round;" fill="none" stroke="#000000" d="M192.34395124,32.3599918L192.34395124,55.15995865" stroke-width="1.6" stroke-linecap="round" stroke-linejoin="round" transform="matrix(1,0,0,1,647.0657,169.46)"></path>
    <path style="stroke-linecap:round;stroke-linejoin:round;" fill="none" stroke="#000000" d="M179.24043199,69.60784089L156.85029089,76.88287096M181.30055354,75.94821498L154.30396088,84.71997852" stroke-width="1.6" stroke-linecap="round" stroke-linejoin="round" transform="matrix(1,0,0,1,647.0657,169.46)"></path>
    <path style="stroke-linecap:round;stroke-linejoin:round;" fill="none" stroke="#000000" d="M154.30396088,19.99999493L192.34395124,32.3599918" stroke-width="1.6" stroke-linecap="round" stroke-linejoin="round" transform="matrix(1,0,0,1,647.0657,169.46)"></path>
    <path style="stroke-linecap:round;stroke-linejoin:round;" fill="none" stroke="#000000" d="M19.99999493,68.99198251L49.7239874,42.2279893" stroke-width="1.6" stroke-linecap="round" stroke-linejoin="round" transform="matrix(1,0,0,1,647.0657,169.46)"></path>
    <path style="stroke-linecap:round;stroke-linejoin:round;" fill="none" stroke="#000000" d="M70.5379668,95.23195437L57.48722071,96.60316186M76.05198072,101.35597431L58.18383533,103.23333324" stroke-width="1.6" stroke-linecap="round" stroke-linejoin="round" transform="matrix(1,0,0,1,647.0657,169.46)"></path>
    <path style="stroke-linecap:round;stroke-linejoin:round;" fill="none" stroke="#000000" d="M28.73431783,88.61253181L19.99999493,68.99198251" stroke-width="1.6" stroke-linecap="round" stroke-linejoin="round" transform="matrix(1,0,0,1,647.0657,169.46)"></path>
    <path style="stroke-linecap:round;stroke-linejoin:round;" fill="none" stroke="#000000" d="M154.30396088,84.71997852L141.93996402,122.76396888" stroke-width="1.6" stroke-linecap="round" stroke-linejoin="round" transform="matrix(1,0,0,1,647.0657,169.46)"></path>
    <path style="stroke-linecap:round;stroke-linejoin:round;" fill="none" stroke="#000000" d="M141.93996402,122.76396888L102.81597394,131.07996677" stroke-width="1.6" stroke-linecap="round" stroke-linejoin="round" transform="matrix(1,0,0,1,647.0657,169.46)"></path>
    <path style="stroke-linecap:round;stroke-linejoin:round;" fill="none" stroke="#000000" d="M102.81597394,131.07996677L76.05198072,101.35597431" stroke-width="1.6" stroke-linecap="round" stroke-linejoin="round" transform="matrix(1,0,0,1,647.0657,169.46)"></path>
    <path style="stroke-linecap:round;stroke-linejoin:round;" fill="none" stroke="#000000" d="M154.30396088,84.71997852L140.67294267,65.95935631" stroke-width="1.6" stroke-linecap="round" stroke-linejoin="round" transform="matrix(1,0,0,1,647.0657,169.46)"></path>
    <path style="stroke-linecap:round;stroke-linejoin:round;" fill="none" stroke="#000000" d="M140.67294267,38.76061714L154.30396088,19.99999493" stroke-width="1.6" stroke-linecap="round" stroke-linejoin="round" transform="matrix(1,0,0,1,647.0657,169.46)"></path>
    <path style="stroke-linecap:round;stroke-linejoin:round;" fill="none" stroke="#000000" d="M76.05198072,101.35597431L80.72726165,79.35809163" stroke-width="1.6" stroke-linecap="round" stroke-linejoin="round" transform="matrix(1,0,0,1,647.0657,169.46)"></path>
    <path style="stroke-linecap:round;stroke-linejoin:round;" fill="none" stroke="#000000" d="M73.59662473,56.00967579L49.7239874,42.2279893" stroke-width="1.6" stroke-linecap="round" stroke-linejoin="round" transform="matrix(1,0,0,1,647.0657,169.46)"></path>
  </g>
</svg>
