
<svg xmlns="http://www.w3.org/2000/svg" height="98.10548002258736" version="1.1" width="114.09661613274739" style="overflow:hidden;" viewBox="0 0 134 118">
  <g transform="translate(-730, -270)">
    <defs></defs>
    <text x="0" y="-40.00058668172491" text-anchor="middle" stroke="none" fill="#000000" style="font:24px Arial;" font-size="24px" transform="matrix(1,0,0,1,774.5922,348.5523)">
      <tspan dy="7.507225818275089">N</tspan>
    </text>
    <text x="0" y="-40.00058668172491" text-anchor="middle" stroke="none" fill="#000000" style="font:17px Arial;" font-size="17px" transform="matrix(1,0,0,1,788.8922,340.4477)">
      <tspan dy="5.507225818275089">+</tspan>
    </text>
    <text x="34.64050806637377" y="-60.00088002258736" text-anchor="middle" stroke="none" fill="#000000" style="font:24px Arial;" font-size="24px" transform="matrix(1,0,0,1,774.5922,348.5523)">
      <tspan dy="7.50693247741264">O</tspan>
    </text>
    <text x="34.64050806637377" y="-60.00088002258736" text-anchor="middle" stroke="none" fill="#000000" style="font:17px Arial;" font-size="17px" transform="matrix(1,0,0,1,789.4078,340.4477)">
      <tspan dy="5.50693247741264">–</tspan>
    </text>
    <text x="-34.64050806637377" y="-60.00088002258736" text-anchor="middle" stroke="none" fill="#000000" style="font:24px Arial;" font-size="24px" transform="matrix(1,0,0,1,774.5922,348.5523)">
      <tspan dy="7.50693247741264">O</tspan>
    </text>
    <text x="0" y="0" text-anchor="middle" stroke="none" fill="#000000" style="font:24px Arial;" font-size="24px" transform="matrix(1,0,0,1,774.5922,348.5523)">
      <tspan dy="7.5">O</tspan>
    </text>
    <text x="0" y="0" text-anchor="middle" stroke="none" fill="#000000" style="font:24px Arial;" font-size="24px" transform="matrix(1,0,0,1,793.3922,348.5523)">
      <tspan dy="7.5">H</tspan>
    </text>
    <path fill="none" stroke="#000000" d="M22.07126097,-52.74380895L22.35373903,-52.90690252" stroke-width="1.6" stroke-linecap="round" stroke-linejoin="round" transform="matrix(1,0,0,1,774.5922,348.5523)" style="stroke-linecap:round;stroke-linejoin:round;"></path>
    <path fill="none" stroke="#000000" d="M-9.60455763,-49.39497331L-20.6870357,-55.7936327M-12.9379643,-43.62151295L-24.02044237,-50.02017234" stroke-width="1.6" stroke-linecap="round" stroke-linejoin="round" transform="matrix(1,0,0,1,774.5922,348.5523)" style="stroke-linecap:round;stroke-linejoin:round;"></path>
    <path fill="none" stroke="#000000" d="M0,-23.284375L0,-16.7" stroke-width="1.6" stroke-linecap="round" stroke-linejoin="round" transform="matrix(1,0,0,1,774.5922,348.5523)" style="stroke-linecap:round;stroke-linejoin:round;"></path>
  </g>
</svg>
