
<svg xmlns="http://www.w3.org/2000/svg" height="200.44411524003718" version="1.1" width="234.5604959448483" style="overflow:hidden;" viewBox="0 0 254 220">
  <g transform="translate(-685, -214)">
    <defs></defs>
    <text style='font:24px "Arial";' x="188.58886468201177" y="136.6426791968927" text-anchor="middle" stroke="none" fill="#000000" font-size="24px" transform="matrix(1,0,0,1,606.5865,123.5684)">
      <tspan dy="8.499994260369249">S</tspan>
    </text>
    <text style='font:24px "Arial";' x="125.05271556914045" y="136.6426791968927" text-anchor="middle" stroke="none" fill="#000000" font-size="24px" transform="matrix(1,0,0,1,606.5865,123.5684)">
      <tspan dy="8.499994260369249">S</tspan>
    </text>
    <text style='font:24px "Arial";' x="88.63330200924375" y="270.4036147200372" text-anchor="middle" stroke="none" fill="#000000" font-size="24px" transform="matrix(1,0,0,1,606.5865,123.5684)">
      <tspan dy="8.499989231755933">Cl</tspan>
    </text>
    <text style='font:24px "Arial";' x="293.1937979540921" y="191.66744877063348" text-anchor="middle" stroke="none" fill="#000000" font-size="24px" transform="matrix(1,0,0,1,606.5865,123.5684)">
      <tspan dy="8.49999881946161">O</tspan>
    </text>
    <path style="stroke-linecap:round;stroke-linejoin:round;" fill="none" stroke="#000000" d="M188.58886468,99.95949948L188.58886468,119.94267731" stroke-width="1.6" stroke-linecap="round" stroke-linejoin="round" transform="matrix(1,0,0,1,606.5865,123.5684)"></path>
    <path style="stroke-linecap:round;stroke-linejoin:round;" fill="none" stroke="#000000" d="M177.81755368,142.86120931L156.81882172,154.98426905" stroke-width="1.6" stroke-linecap="round" stroke-linejoin="round" transform="matrix(1,0,0,1,606.5865,123.5684)"></path>
    <path style="stroke-linecap:round;stroke-linejoin:round;" fill="none" stroke="#000000" d="M156.81882172,154.98426905L135.82394677,142.86193389" stroke-width="1.6" stroke-linecap="round" stroke-linejoin="round" transform="matrix(1,0,0,1,606.5865,123.5684)"></path>
    <path style="stroke-linecap:round;stroke-linejoin:round;" fill="none" stroke="#000000" d="M125.05271557,119.94267731L125.05271557,99.95949948" stroke-width="1.6" stroke-linecap="round" stroke-linejoin="round" transform="matrix(1,0,0,1,606.5865,123.5684)"></path>
    <path style="stroke-linecap:round;stroke-linejoin:round;" fill="none" stroke="#000000" d="M153.48548839,154.98426905L153.48548839,191.66744877M160.15215505,154.98426905L160.15215505,191.66744877" stroke-width="1.6" stroke-linecap="round" stroke-linejoin="round" transform="matrix(1,0,0,1,606.5865,123.5684)"></path>
    <path style="stroke-linecap:round;stroke-linejoin:round;" fill="none" stroke="#000000" d="M188.58886468,99.95949948L125.05271557,99.95949948" stroke-width="1.6" stroke-linecap="round" stroke-linejoin="round" transform="matrix(1,0,0,1,606.5865,123.5684)"></path>
    <path style="stroke-linecap:round;stroke-linejoin:round;" fill="none" stroke="#000000" d="M156.81882172,191.66744877L122.72606187,211.35149026" stroke-width="1.6" stroke-linecap="round" stroke-linejoin="round" transform="matrix(1,0,0,1,606.5865,123.5684)"></path>
    <path style="stroke-linecap:round;stroke-linejoin:round;" fill="none" stroke="#000000" d="M122.72606187,211.35149026L122.72606187,250.71957323" stroke-width="1.6" stroke-linecap="round" stroke-linejoin="round" transform="matrix(1,0,0,1,606.5865,123.5684)"></path>
    <path style="stroke-linecap:round;stroke-linejoin:round;" fill="none" stroke="#000000" d="M122.72606187,250.71957323L102.7378919,262.26008707" stroke-width="1.6" stroke-linecap="round" stroke-linejoin="round" transform="matrix(1,0,0,1,606.5865,123.5684)"></path>
    <path style="stroke-linecap:round;stroke-linejoin:round;" fill="none" stroke="#000000" d="M156.81882172,191.66744877L190.91158158,211.35149026" stroke-width="1.6" stroke-linecap="round" stroke-linejoin="round" transform="matrix(1,0,0,1,606.5865,123.5684)"></path>
    <path style="stroke-linecap:round;stroke-linejoin:round;" fill="none" stroke="#000000" d="M190.91158158,211.35149026L225.00434143,191.66744877" stroke-width="1.6" stroke-linecap="round" stroke-linejoin="round" transform="matrix(1,0,0,1,606.5865,123.5684)"></path>
    <path style="stroke-linecap:round;stroke-linejoin:round;" fill="none" stroke="#000000" d="M225.00434143,191.66744877L259.1010381,211.35149026" stroke-width="1.6" stroke-linecap="round" stroke-linejoin="round" transform="matrix(1,0,0,1,606.5865,123.5684)"></path>
    <path style="stroke-linecap:round;stroke-linejoin:round;" fill="none" stroke="#000000" d="M259.1010381,211.35149026L259.1010381,250.71957323" stroke-width="1.6" stroke-linecap="round" stroke-linejoin="round" transform="matrix(1,0,0,1,606.5865,123.5684)"></path>
    <path style="stroke-linecap:round;stroke-linejoin:round;" fill="none" stroke="#000000" d="M259.1010381,250.71957323L225.00827824,270.40361472" stroke-width="1.6" stroke-linecap="round" stroke-linejoin="round" transform="matrix(1,0,0,1,606.5865,123.5684)"></path>
    <path style="stroke-linecap:round;stroke-linejoin:round;" fill="none" stroke="#000000" d="M225.00827824,270.40361472L190.91158158,250.71957323" stroke-width="1.6" stroke-linecap="round" stroke-linejoin="round" transform="matrix(1,0,0,1,606.5865,123.5684)"></path>
    <path style="stroke-linecap:round;stroke-linejoin:round;" fill="none" stroke="#000000" d="M190.91158158,250.71957323L190.91158158,211.35149026" stroke-width="1.6" stroke-linecap="round" stroke-linejoin="round" transform="matrix(1,0,0,1,606.5865,123.5684)"></path>
    <path style="stroke-linecap:round;stroke-linejoin:round;" fill="none" stroke="#000000" d="M260.76774143,214.23822043L282.75588548,201.54298715M257.43433476,208.46476008L279.42247881,195.7695268" stroke-width="1.6" stroke-linecap="round" stroke-linejoin="round" transform="matrix(1,0,0,1,606.5865,123.5684)"></path>
  </g>
</svg>
