
<svg xmlns="http://www.w3.org/2000/svg" height="190.00117336344985" version="1.1" width="69.28101614000002" style="overflow:hidden;" viewBox="0 0 89 210">
  <g transform="translate(-525, -151)">
    <defs></defs>
    <circle cx="530" cy="120.99941331827509" r="24" fill="none" stroke="#00cc00" style="display:none;" stroke-width="0.96" transform="matrix(1,0,0,1,40,40)"></circle>
    <circle cx="530" cy="281.00058668172494" r="24" fill="none" stroke="#00cc00" style="display:none;" stroke-width="0.96" transform="matrix(1,0,0,1,40,40)"></circle>
    <circle cx="564.6405080663737" cy="201" r="19.200000000000003" fill="none" stroke="#00cc00" style="display:none;" stroke-width="0.96" transform="matrix(1,0,0,1,40,40)"></circle>
    <circle cx="564.6405080663737" cy="221.00029334086247" r="24" fill="none" stroke="#00cc00" style="display:none;" stroke-width="0.96" transform="matrix(1,0,0,1,40,40)"></circle>
    <circle cx="547.3202540331869" cy="231.00044001129368" r="19.200000000000003" fill="none" stroke="#00cc00" style="display:none;" stroke-width="0.96" transform="matrix(1,0,0,1,40,40)"></circle>
    <circle cx="530" cy="241.00058668172494" r="24" fill="none" stroke="#00cc00" style="display:none;" stroke-width="0.96" transform="matrix(1,0,0,1,40,40)"></circle>
    <circle cx="530" cy="261.00058668172494" r="19.200000000000003" fill="none" stroke="#00cc00" style="display:none;" stroke-width="0.96" transform="matrix(1,0,0,1,40,40)"></circle>
    <text style='font:24px "Arial";' x="530" y="120.99941331827509" text-anchor="middle" stroke="none" fill="#000000" font-size="24px" transform="matrix(1,0,0,1,40,40)">
      <tspan dy="8.250000781653995">O</tspan>
    </text>
    <text style='font:24px "Arial";' x="530" y="281.00058668172494" text-anchor="middle" stroke="none" fill="#000000" font-size="24px" transform="matrix(1,0,0,1,40,40)">
      <tspan dy="8.250006847740565">O</tspan>
    </text>
    <path style="stroke-linecap:round;stroke-linejoin:round;" fill="none" stroke="#000000" d="M530,160.99941332L564.64050807,180.99970666" stroke-width="1.6" stroke-linecap="round" stroke-linejoin="round" transform="matrix(1,0,0,1,40,40)"></path>
    <path style="stroke-linecap:round;stroke-linejoin:round;" fill="none" stroke="#000000" d="M557.9738414,184.848652L557.9738414,217.151348M564.64050807,180.99970666L564.64050807,221.00029334" stroke-width="1.6" stroke-linecap="round" stroke-linejoin="round" transform="matrix(1,0,0,1,40,40)"></path>
    <path style="stroke-linecap:round;stroke-linejoin:round;" fill="none" stroke="#000000" d="M564.64050807,221.00029334L530,241.00058668" stroke-width="1.6" stroke-linecap="round" stroke-linejoin="round" transform="matrix(1,0,0,1,40,40)"></path>
    <path style="stroke-linecap:round;stroke-linejoin:round;" fill="none" stroke="#000000" d="M530,241.00058668L495.35949193,221.00029334" stroke-width="1.6" stroke-linecap="round" stroke-linejoin="round" transform="matrix(1,0,0,1,40,40)"></path>
    <path style="stroke-linecap:round;stroke-linejoin:round;" fill="none" stroke="#000000" d="M502.0261586,217.151348L502.0261586,184.848652M495.35949193,221.00029334L495.35949193,180.99970666" stroke-width="1.6" stroke-linecap="round" stroke-linejoin="round" transform="matrix(1,0,0,1,40,40)"></path>
    <path style="stroke-linecap:round;stroke-linejoin:round;" fill="none" stroke="#000000" d="M495.35949193,180.99970666L530,160.99941332" stroke-width="1.6" stroke-linecap="round" stroke-linejoin="round" transform="matrix(1,0,0,1,40,40)"></path>
    <path style="stroke-linecap:round;stroke-linejoin:round;" fill="none" stroke="#000000" d="M533.33333333,160.99941332L533.33333333,137.94941254M526.66666667,160.99941332L526.66666667,137.94941254" stroke-width="1.6" stroke-linecap="round" stroke-linejoin="round" transform="matrix(1,0,0,1,40,40)"></path>
    <path style="stroke-linecap:round;stroke-linejoin:round;" fill="none" stroke="#000000" d="M526.66666667,241.00058668L526.66666667,264.05057983M533.33333333,241.00058668L533.33333333,264.05057983" stroke-width="1.6" stroke-linecap="round" stroke-linejoin="round" transform="matrix(1,0,0,1,40,40)"></path>
  </g>
</svg>
