
<svg xmlns="http://www.w3.org/2000/svg" height="150.00095433092366" version="1.1" width="480.4185772149274" style="overflow:hidden;" viewBox="0 0 500 170">
  <g transform="translate(-594, -249)">
    <defs></defs>
    <circle cx="-136.19708313588393" cy="-80.00063622184729" r="24" fill="#77ff77" stroke="none" transform="matrix(1,0,0,1,849.1625,339.3203)" style="display:none;"></circle>
    <circle cx="-101.55280762001297" cy="-60.00047716638547" r="24" fill="#77ff77" stroke="none" transform="matrix(1,0,0,1,849.1625,339.3203)" style="display:none;"></circle>
    <circle cx="-101.55280762001297" cy="-20.000159055461822" r="24" fill="#77ff77" stroke="none" transform="matrix(1,0,0,1,849.1625,339.3203)" style="display:none;"></circle>
    <circle cx="-136.19708313588393" cy="0" r="24" fill="#77ff77" stroke="none" transform="matrix(1,0,0,1,849.1625,339.3203)" style="display:none;"></circle>
    <circle cx="-170.8373586199438" cy="-20.000159055461822" r="24" fill="#77ff77" stroke="none" transform="matrix(1,0,0,1,849.1625,339.3203)" style="display:none;"></circle>
    <circle cx="-170.8373586199438" cy="-60.00047716638547" r="24" fill="#77ff77" stroke="none" transform="matrix(1,0,0,1,849.1625,339.3203)" style="display:none;"></circle>
    <circle cx="-63.51250509652458" cy="-72.36057546266088" r="24" fill="#77ff77" stroke="none" transform="matrix(1,0,0,1,849.1625,339.3203)" style="display:none;"></circle>
    <circle cx="-40.000318110923644" cy="-40.000318110923644" r="24" fill="#77ff77" stroke="none" transform="matrix(1,0,0,1,849.1625,339.3203)" style="display:none;"></circle>
    <circle cx="-63.51250509652458" cy="-7.640060759186413" r="24" fill="#77ff77" stroke="none" transform="matrix(1,0,0,1,849.1625,339.3203)" style="display:none;"></circle>
    <circle cx="0" cy="-40.000318110923644" r="24" fill="#77ff77" stroke="none" transform="matrix(1,0,0,1,849.1625,339.3203)" style="display:none;"></circle>
    <circle cx="20.000159055461822" cy="-5.360042626863768" r="24" fill="#77ff77" stroke="none" transform="matrix(1,0,0,1,849.1625,339.3203)" style="display:none;"></circle>
    <circle cx="60.00047716638547" cy="-5.360042626863768" r="24" fill="#77ff77" stroke="none" transform="matrix(1,0,0,1,849.1625,339.3203)" style="display:none;"></circle>
    <circle cx="80.00063622184729" cy="-40.000318110923644" r="24" fill="#77ff77" stroke="none" transform="matrix(1,0,0,1,849.1625,339.3203)" style="display:none;"></circle>
    <circle cx="60.00047716638547" cy="-74.64059359498353" r="24" fill="#77ff77" stroke="none" transform="matrix(1,0,0,1,849.1625,339.3203)" style="display:none;"></circle>
    <circle cx="20.000159055461822" cy="-74.64059359498353" r="24" fill="#77ff77" stroke="none" transform="matrix(1,0,0,1,849.1625,339.3203)" style="display:none;"></circle>
    <circle cx="120.00095433277095" cy="-40.000318110923644" r="24" fill="#77ff77" stroke="none" transform="matrix(1,0,0,1,849.1625,339.3203)" style="display:none;"></circle>
    <circle cx="-205.47763410400367" cy="0" r="24" fill="#77ff77" stroke="none" transform="matrix(1,0,0,1,849.1625,339.3203)" style="display:none;"></circle>
    <circle cx="-245.4779522149273" cy="0" r="24" fill="#77ff77" stroke="none" transform="matrix(1,0,0,1,849.1625,339.3203)" style="display:none;"></circle>
    <circle cx="-225.47779315946548" cy="-34.64027548405988" r="24" fill="#77ff77" stroke="none" transform="matrix(1,0,0,1,849.1625,339.3203)" style="display:none;"></circle>
    <circle cx="-205.47763410400367" cy="40.000318110923644" r="24" fill="#77ff77" stroke="none" transform="matrix(1,0,0,1,849.1625,339.3203)" style="display:none;"></circle>
    <circle cx="-118.87494537794845" cy="-70.00055669411638" r="19.200000000000003" fill="#77ff77" stroke="none" transform="matrix(1,0,0,1,849.1625,339.3203)" style="display:none;"></circle>
    <circle cx="-101.55280762001297" cy="-40.000318110923644" r="19.200000000000003" fill="#77ff77" stroke="none" transform="matrix(1,0,0,1,849.1625,339.3203)" style="display:none;"></circle>
    <circle cx="-118.87494537794845" cy="-10.000079527730911" r="19.200000000000003" fill="#77ff77" stroke="none" transform="matrix(1,0,0,1,849.1625,339.3203)" style="display:none;"></circle>
    <circle cx="-153.51722087791387" cy="-10.000079527730911" r="19.200000000000003" fill="#77ff77" stroke="none" transform="matrix(1,0,0,1,849.1625,339.3203)" style="display:none;"></circle>
    <circle cx="-170.8373586199438" cy="-40.000318110923644" r="19.200000000000003" fill="#77ff77" stroke="none" transform="matrix(1,0,0,1,849.1625,339.3203)" style="display:none;"></circle>
    <circle cx="-153.51722087791387" cy="-70.00055669411638" r="19.200000000000003" fill="#77ff77" stroke="none" transform="matrix(1,0,0,1,849.1625,339.3203)" style="display:none;"></circle>
    <circle cx="-82.53265635826878" cy="-66.18052631452318" r="19.200000000000003" fill="#77ff77" stroke="none" transform="matrix(1,0,0,1,849.1625,339.3203)" style="display:none;"></circle>
    <circle cx="-51.75641160372411" cy="-56.18044678679226" r="19.200000000000003" fill="#77ff77" stroke="none" transform="matrix(1,0,0,1,849.1625,339.3203)" style="display:none;"></circle>
    <circle cx="-51.75641160372411" cy="-23.82018943505503" r="19.200000000000003" fill="#77ff77" stroke="none" transform="matrix(1,0,0,1,849.1625,339.3203)" style="display:none;"></circle>
    <circle cx="-82.53265635826878" cy="-13.820109907324118" r="19.200000000000003" fill="#77ff77" stroke="none" transform="matrix(1,0,0,1,849.1625,339.3203)" style="display:none;"></circle>
    <circle cx="-20.000159055461822" cy="-40.000318110923644" r="19.200000000000003" fill="#77ff77" stroke="none" transform="matrix(1,0,0,1,849.1625,339.3203)" style="display:none;"></circle>
    <circle cx="10.000079527730911" cy="-22.68018036889371" r="19.200000000000003" fill="#77ff77" stroke="none" transform="matrix(1,0,0,1,849.1625,339.3203)" style="display:none;"></circle>
    <circle cx="40.000318110923644" cy="-5.360042626863768" r="19.200000000000003" fill="#77ff77" stroke="none" transform="matrix(1,0,0,1,849.1625,339.3203)" style="display:none;"></circle>
    <circle cx="70.00055669411638" cy="-22.68018036889371" r="19.200000000000003" fill="#77ff77" stroke="none" transform="matrix(1,0,0,1,849.1625,339.3203)" style="display:none;"></circle>
    <circle cx="70.00055669411638" cy="-57.320455852953586" r="19.200000000000003" fill="#77ff77" stroke="none" transform="matrix(1,0,0,1,849.1625,339.3203)" style="display:none;"></circle>
    <circle cx="40.000318110923644" cy="-74.64059359498353" r="19.200000000000003" fill="#77ff77" stroke="none" transform="matrix(1,0,0,1,849.1625,339.3203)" style="display:none;"></circle>
    <circle cx="10.000079527730911" cy="-57.320455852953586" r="19.200000000000003" fill="#77ff77" stroke="none" transform="matrix(1,0,0,1,849.1625,339.3203)" style="display:none;"></circle>
    <circle cx="100.00079527730911" cy="-40.000318110923644" r="19.200000000000003" fill="#77ff77" stroke="none" transform="matrix(1,0,0,1,849.1625,339.3203)" style="display:none;"></circle>
    <circle cx="-188.15749636197376" cy="-10.000079527730911" r="19.200000000000003" fill="#77ff77" stroke="none" transform="matrix(1,0,0,1,849.1625,339.3203)" style="display:none;"></circle>
    <circle cx="-225.47779315946548" cy="0" r="19.200000000000003" fill="#77ff77" stroke="none" transform="matrix(1,0,0,1,849.1625,339.3203)" style="display:none;"></circle>
    <circle cx="-215.47771363173462" cy="-17.32013774202994" r="19.200000000000003" fill="#77ff77" stroke="none" transform="matrix(1,0,0,1,849.1625,339.3203)" style="display:none;"></circle>
    <circle cx="-205.47763410400367" cy="20.000159055461822" r="19.200000000000003" fill="#77ff77" stroke="none" transform="matrix(1,0,0,1,849.1625,339.3203)" style="display:none;"></circle>
    <text x="-63.51250509652458" y="-72.36057546266088" text-anchor="middle" stroke="none" fill="#000000" style="font:24px Arial;" font-size="24px" transform="matrix(1,0,0,1,849.1625,339.3203)">
      <tspan dy="8.506612037339124">S</tspan>
    </text>
    <text x="-63.51250509652458" y="-7.640060759186413" text-anchor="middle" stroke="none" fill="#000000" style="font:24px Arial;" font-size="24px" transform="matrix(1,0,0,1,849.1625,339.3203)">
      <tspan dy="8.492751740813587">N</tspan>
    </text>
    <text x="120.00095433277095" y="-40.000318110923644" text-anchor="middle" stroke="none" fill="#000000" style="font:24px Arial;" font-size="24px" transform="matrix(1,0,0,1,849.1625,339.3203)">
      <tspan dy="8.507494389076356">O</tspan>
    </text>
    <text x="120.00095433277095" y="-40.000318110923644" text-anchor="middle" stroke="none" fill="#000000" style="font:24px Arial;" font-size="24px" transform="matrix(1,0,0,1,867.9781,339.3203)">
      <tspan dy="8.507494389076356">H</tspan>
    </text>
    <text x="-245.4779522149273" y="0" text-anchor="middle" stroke="none" fill="#000000" style="font:24px Arial;" font-size="24px" transform="matrix(1,0,0,1,849.1625,339.3203)">
      <tspan dy="8.5">F</tspan>
    </text>
    <text x="-225.47779315946548" y="-34.64027548405988" text-anchor="middle" stroke="none" fill="#000000" style="font:24px Arial;" font-size="24px" transform="matrix(1,0,0,1,849.1625,339.3203)">
      <tspan dy="8.492537015940123">F</tspan>
    </text>
    <text x="-205.47763410400367" y="40.000318110923644" text-anchor="middle" stroke="none" fill="#000000" style="font:24px Arial;" font-size="24px" transform="matrix(1,0,0,1,849.1625,339.3203)">
      <tspan dy="8.492505610923644">F</tspan>
    </text>
    <path fill="none" stroke="#000000" d="M-136.19708314,-80.00063622L-101.55280762,-60.00047717" stroke-width="1.6" stroke-linecap="round" stroke-linejoin="round" transform="matrix(1,0,0,1,849.1625,339.3203)" style="stroke-linecap:round;stroke-linejoin:round;"></path>
    <path fill="none" stroke="#000000" d="M-108.21947429,-56.15130961L-108.21947429,-23.84932661M-101.55280762,-60.00047717L-101.55280762,-20.00015906" stroke-width="1.6" stroke-linecap="round" stroke-linejoin="round" transform="matrix(1,0,0,1,849.1625,339.3203)" style="stroke-linecap:round;stroke-linejoin:round;"></path>
    <path fill="none" stroke="#000000" d="M-101.55280762,-20.00015906L-136.19708314,0" stroke-width="1.6" stroke-linecap="round" stroke-linejoin="round" transform="matrix(1,0,0,1,849.1625,339.3203)" style="stroke-linecap:round;stroke-linejoin:round;"></path>
    <path fill="none" stroke="#000000" d="M-136.1968907,-7.69794894L-164.17069195,-23.8491044M-136.19708314,0L-170.83735862,-20.00015906" stroke-width="1.6" stroke-linecap="round" stroke-linejoin="round" transform="matrix(1,0,0,1,849.1625,339.3203)" style="stroke-linecap:round;stroke-linejoin:round;"></path>
    <path fill="none" stroke="#000000" d="M-170.83735862,-20.00015906L-170.83735862,-60.00047717" stroke-width="1.6" stroke-linecap="round" stroke-linejoin="round" transform="matrix(1,0,0,1,849.1625,339.3203)" style="stroke-linecap:round;stroke-linejoin:round;"></path>
    <path fill="none" stroke="#000000" d="M-164.17069195,-56.15153183L-136.1968907,-72.30268729M-170.83735862,-60.00047717L-136.19708314,-80.00063622" stroke-width="1.6" stroke-linecap="round" stroke-linejoin="round" transform="matrix(1,0,0,1,849.1625,339.3203)" style="stroke-linecap:round;stroke-linejoin:round;"></path>
    <path fill="none" stroke="#000000" d="M-101.55280762,-60.00047717L-74.55900456,-68.77133431" stroke-width="1.6" stroke-linecap="round" stroke-linejoin="round" transform="matrix(1,0,0,1,849.1625,339.3203)" style="stroke-linecap:round;stroke-linejoin:round;"></path>
    <path fill="none" stroke="#000000" d="M-53.61903044,-58.74400351L-40.00031811,-40.00031811" stroke-width="1.6" stroke-linecap="round" stroke-linejoin="round" transform="matrix(1,0,0,1,849.1625,339.3203)" style="stroke-linecap:round;stroke-linejoin:round;"></path>
    <path fill="none" stroke="#000000" d="M-48.24090254,-40.00031811L-58.35614118,-26.07852828M-40.00031811,-40.00031811L-52.96278044,-22.15984171" stroke-width="1.6" stroke-linecap="round" stroke-linejoin="round" transform="matrix(1,0,0,1,849.1625,339.3203)" style="stroke-linecap:round;stroke-linejoin:round;"></path>
    <path fill="none" stroke="#000000" d="M-75.23087956,-11.4476083L-101.55280762,-20.00015906" stroke-width="1.6" stroke-linecap="round" stroke-linejoin="round" transform="matrix(1,0,0,1,849.1625,339.3203)" style="stroke-linecap:round;stroke-linejoin:round;"></path>
    <path fill="none" stroke="#000000" d="M-40.00031811,-40.00031811L0,-40.00031811" stroke-width="1.6" stroke-linecap="round" stroke-linejoin="round" transform="matrix(1,0,0,1,849.1625,339.3203)" style="stroke-linecap:round;stroke-linejoin:round;"></path>
    <path fill="none" stroke="#000000" d="M0,-40.00031811L20.00015906,-5.36004263" stroke-width="1.6" stroke-linecap="round" stroke-linejoin="round" transform="matrix(1,0,0,1,849.1625,339.3203)" style="stroke-linecap:round;stroke-linejoin:round;"></path>
    <path fill="none" stroke="#000000" d="M20.00015906,-5.36004263L60.00047717,-5.36004263M23.8491044,-12.02670929L56.15153183,-12.02670929" stroke-width="1.6" stroke-linecap="round" stroke-linejoin="round" transform="matrix(1,0,0,1,849.1625,339.3203)" style="stroke-linecap:round;stroke-linejoin:round;"></path>
    <path fill="none" stroke="#000000" d="M60.00047717,-5.36004263L80.00063622,-40.00031811" stroke-width="1.6" stroke-linecap="round" stroke-linejoin="round" transform="matrix(1,0,0,1,849.1625,339.3203)" style="stroke-linecap:round;stroke-linejoin:round;"></path>
    <path fill="none" stroke="#000000" d="M80.00063622,-40.00031811L60.00047717,-74.64059359M72.30257618,-40.00031811L56.15153183,-67.97392693" stroke-width="1.6" stroke-linecap="round" stroke-linejoin="round" transform="matrix(1,0,0,1,849.1625,339.3203)" style="stroke-linecap:round;stroke-linejoin:round;"></path>
    <path fill="none" stroke="#000000" d="M60.00047717,-74.64059359L20.00015906,-74.64059359" stroke-width="1.6" stroke-linecap="round" stroke-linejoin="round" transform="matrix(1,0,0,1,849.1625,339.3203)" style="stroke-linecap:round;stroke-linejoin:round;"></path>
    <path fill="none" stroke="#000000" d="M20.00015906,-74.64059359L0,-40.00031811M23.8491044,-67.97392693L7.69806004,-40.00031811" stroke-width="1.6" stroke-linecap="round" stroke-linejoin="round" transform="matrix(1,0,0,1,849.1625,339.3203)" style="stroke-linecap:round;stroke-linejoin:round;"></path>
    <path fill="none" stroke="#000000" d="M80.00063622,-40.00031811L107.45625,-40.00031811" stroke-width="1.6" stroke-linecap="round" stroke-linejoin="round" transform="matrix(1,0,0,1,849.1625,339.3203)" style="stroke-linecap:round;stroke-linejoin:round;"></path>
    <path fill="none" stroke="#000000" d="M-170.83735862,-20.00015906L-205.4776341,0" stroke-width="1.6" stroke-linecap="round" stroke-linejoin="round" transform="matrix(1,0,0,1,849.1625,339.3203)" style="stroke-linecap:round;stroke-linejoin:round;"></path>
    <path fill="none" stroke="#000000" d="M-205.4776341,0L-234.940625,0" stroke-width="1.6" stroke-linecap="round" stroke-linejoin="round" transform="matrix(1,0,0,1,849.1625,339.3203)" style="stroke-linecap:round;stroke-linejoin:round;"></path>
    <path fill="none" stroke="#000000" d="M-205.4776341,0L-216.5405898,-19.16103926" stroke-width="1.6" stroke-linecap="round" stroke-linejoin="round" transform="matrix(1,0,0,1,849.1625,339.3203)" style="stroke-linecap:round;stroke-linejoin:round;"></path>
    <path fill="none" stroke="#000000" d="M-205.4776341,0L-205.4776341,23.284375" stroke-width="1.6" stroke-linecap="round" stroke-linejoin="round" transform="matrix(1,0,0,1,849.1625,339.3203)" style="stroke-linecap:round;stroke-linejoin:round;"></path>
  </g>
</svg>
