<?xml version="1.0"?>
<svg xmlns="http://www.w3.org/2000/svg" height="138.64338924999998" version="1.1" width="300.98592224000004" style="overflow: hidden; position: relative;" viewBox="0 0 320 158">
  <g transform="translate(-264, -188)">
    <defs style="-webkit-tap-highlight-color: rgba(0, 0, 0, 0);"/>
    <text x="31.656038785642934" y="-54.051389245266876" text-anchor="middle" font="30px &quot;Arial&quot;" stroke="none" fill="#000000" style="-webkit-tap-highlight-color: rgba(0, 0, 0, 0); text-anchor: middle; font: 24px Arial;" font-size="24px" transform="matrix(1,0,0,1,340.4828,283.029)">
      <tspan dy="8.503298254733124" style="-webkit-tap-highlight-color: rgba(0, 0, 0, 0);">O</tspan>
    </text>
    <text x="66.29392224170559" y="5.949143757081311" text-anchor="middle" font="30px &quot;Arial&quot;" stroke="none" fill="#000000" style="-webkit-tap-highlight-color: rgba(0, 0, 0, 0); text-anchor: middle; font: 24px Arial;" font-size="24px" transform="matrix(1,0,0,1,340.4828,283.029)">
      <tspan dy="8.50383125708131" style="-webkit-tap-highlight-color: rgba(0, 0, 0, 0);">N</tspan>
    </text>
    <text x="66.29392224170559" y="5.949143757081311" text-anchor="middle" font="30px &quot;Arial&quot;" stroke="none" fill="#000000" style="-webkit-tap-highlight-color: rgba(0, 0, 0, 0); text-anchor: middle; font: 24px Arial;" font-size="24px" transform="matrix(1,0,0,1,358.6266,283.029)">
      <tspan dy="8.50383125708131" style="-webkit-tap-highlight-color: rgba(0, 0, 0, 0);">H</tspan>
    </text>
    <text x="66.29392224170559" y="5.949143757081311" text-anchor="middle" font="30px &quot;Arial&quot;" stroke="none" fill="#000000" style="-webkit-tap-highlight-color: rgba(0, 0, 0, 0); text-anchor: middle; font: 17px Arial;" font-size="17px" transform="matrix(1,0,0,1,372.8328,288.4321)">
      <tspan dy="5.503831257081311" style="-webkit-tap-highlight-color: rgba(0, 0, 0, 0);">2</tspan>
    </text>
    <text x="-39.53004812671877" y="-10.317667412444196" text-anchor="middle" font="30px &quot;Arial&quot;" stroke="none" fill="#000000" style="-webkit-tap-highlight-color: rgba(0, 0, 0, 0); text-anchor: middle; font: 24px Arial;" font-size="24px" transform="matrix(1,0,0,1,340.4828,283.029)">
      <tspan dy="8.502645087555804" style="-webkit-tap-highlight-color: rgba(0, 0, 0, 0);">N</tspan>
    </text>
    <text x="-39.53004812671877" y="-10.317667412444196" text-anchor="middle" font="30px &quot;Arial&quot;" stroke="none" fill="#000000" style="-webkit-tap-highlight-color: rgba(0, 0, 0, 0); text-anchor: middle; font: 24px Arial;" font-size="24px" transform="matrix(1,0,0,1,322.3391,283.029)">
      <tspan dy="8.502645087555804" style="-webkit-tap-highlight-color: rgba(0, 0, 0, 0);">H</tspan>
    </text>
    <path fill="none" stroke="#000000" d="M28.32270545,-37.346875L28.32270545,-14.05103391M34.98937212,-37.346875L34.98937212,-14.05103391" stroke-width="1.6" stroke-linecap="round" stroke-linejoin="round" style="-webkit-tap-highlight-color: rgba(0, 0, 0, 0); stroke-linecap: round; stroke-linejoin: round;" transform="matrix(1,0,0,1,340.4828,283.029)"/>
    <path fill="none" stroke="#000000" d="M31.65603879,-14.05103391L54.85378752,-0.65647714" stroke-width="1.6" stroke-linecap="round" stroke-linejoin="round" style="-webkit-tap-highlight-color: rgba(0, 0, 0, 0); stroke-linecap: round; stroke-linejoin: round;" transform="matrix(1,0,0,1,340.4828,283.029)"/>
    <path fill="none" stroke="#000000" d="M-2.88524702,6.12486084L-3.08813938,5.77342667M0.4827307,4.64900641L-0.1259464,3.5947039M3.85070841,3.17315198L2.83624658,1.41598113M7.21868612,1.69729755L5.79843957,-0.76274164M10.58666384,0.22144311L8.76063255,-2.94146441M13.95464155,-1.25441132L11.72282553,-5.12018718M17.32261926,-2.73026575L14.68501851,-7.29890996M20.69059698,-4.20612018L17.6472115,-9.47763273M24.05857469,-5.68197461L20.60940448,-11.6563555M27.4265524,-7.15782905L23.57159746,-13.83507827M30.79453011,-8.63368348L26.53379044,-16.01380104M34.16250783,-10.10953791L29.49598343,-18.19252381" stroke-width="1.6" stroke-linecap="round" stroke-linejoin="round" style="-webkit-tap-highlight-color: rgba(0, 0, 0, 0); stroke-linecap: round; stroke-linejoin: round;" transform="matrix(1,0,0,1,340.4828,283.029)"/>
    <path fill="none" stroke="#000000" d="M-2.9866932,5.94914376L-27.9359303,-5.15669285" stroke-width="1.6" stroke-linecap="round" stroke-linejoin="round" style="-webkit-tap-highlight-color: rgba(0, 0, 0, 0); stroke-linecap: round; stroke-linejoin: round;" transform="matrix(1,0,0,1,340.4828,283.029)"/>
    <path fill="none" stroke="#000000" d="M-53.83046175,5.56563619L-66.29392224,19.40865726" stroke-width="1.6" stroke-linecap="round" stroke-linejoin="round" style="-webkit-tap-highlight-color: rgba(0, 0, 0, 0); stroke-linecap: round; stroke-linejoin: round;" transform="matrix(1,0,0,1,340.4828,283.029)"/>
    <path fill="none" stroke="#000000" d="M-66.29392224,19.40865726L-46.29374457,54.05138925" stroke-width="1.6" stroke-linecap="round" stroke-linejoin="round" style="-webkit-tap-highlight-color: rgba(0, 0, 0, 0); stroke-linecap: round; stroke-linejoin: round;" transform="matrix(1,0,0,1,340.4828,283.029)"/>
    <path fill="none" stroke="#000000" d="M-46.29374457,54.05138925L-7.17097279,45.73131534" stroke-width="1.6" stroke-linecap="round" stroke-linejoin="round" style="-webkit-tap-highlight-color: rgba(0, 0, 0, 0); stroke-linecap: round; stroke-linejoin: round;" transform="matrix(1,0,0,1,340.4828,283.029)"/>
    <path fill="none" stroke="#000000" d="M-2.9866932,5.94914376L-7.17097279,45.73131534" stroke-width="1.6" stroke-linecap="round" stroke-linejoin="round" style="-webkit-tap-highlight-color: rgba(0, 0, 0, 0); stroke-linecap: round; stroke-linejoin: round;" transform="matrix(1,0,0,1,340.4828,283.029)"/>
    <text x="54.692" y="-84.59199999999998" text-anchor="middle" font="30px &quot;Arial&quot;" stroke="none" fill="#000000" style="-webkit-tap-highlight-color: rgba(0, 0, 0, 0); text-anchor: middle; font: 24px Arial;" font-size="24px" transform="matrix(1,0,0,1,340.4828,283.029)">
      <tspan dy="8.493937500000015" style="-webkit-tap-highlight-color: rgba(0, 0, 0, 0);">Chiral</tspan>
    </text>
  </g>
</svg>
