<?xml version="1.0"?>
<svg xmlns="http://www.w3.org/2000/svg" height="131.09704390894535" version="1.1" width="400.50456154999995" style="overflow: hidden; position: relative;" viewBox="0 0 420 151">
  <g transform="translate(-223, -200)">
    <defs style="-webkit-tap-highlight-color: rgba(0, 0, 0, 0);"/>
    <text x="120.82456155494712" y="-10.724876812180701" text-anchor="middle" font="30px &quot;Arial&quot;" stroke="none" fill="#000000" style="-webkit-tap-highlight-color: rgba(0, 0, 0, 0); text-anchor: middle; font: 24px Arial;" font-size="24px" transform="matrix(1,0,0,1,353.9045,283.4531)">
      <tspan dy="8.501685687819299" style="-webkit-tap-highlight-color: rgba(0, 0, 0, 0);">O</tspan>
    </text>
    <text x="61.047433970238345" y="28.097043908945373" text-anchor="middle" font="30px &quot;Arial&quot;" stroke="none" fill="#000000" style="-webkit-tap-highlight-color: rgba(0, 0, 0, 0); text-anchor: middle; font: 24px Arial;" font-size="24px" transform="matrix(1,0,0,1,353.9045,283.4531)">
      <tspan dy="8.495481408945373" style="-webkit-tap-highlight-color: rgba(0, 0, 0, 0);">O</tspan>
    </text>
    <text x="54.27893124428704" y="-36.271610954757605" text-anchor="middle" font="30px &quot;Arial&quot;" stroke="none" fill="#000000" style="-webkit-tap-highlight-color: rgba(0, 0, 0, 0); text-anchor: middle; font: 24px Arial;" font-size="24px" transform="matrix(1,0,0,1,353.9045,283.4531)">
      <tspan dy="8.501826545242395" style="-webkit-tap-highlight-color: rgba(0, 0, 0, 0);">N</tspan>
    </text>
    <text x="54.27893124428704" y="-36.271610954757605" text-anchor="middle" font="30px &quot;Arial&quot;" stroke="none" fill="#000000" style="-webkit-tap-highlight-color: rgba(0, 0, 0, 0); text-anchor: middle; font: 24px Arial;" font-size="24px" transform="matrix(1,0,0,1,372.0482,283.4531)">
      <tspan dy="8.501826545242395" style="-webkit-tap-highlight-color: rgba(0, 0, 0, 0);">H</tspan>
    </text>
    <path fill="none" stroke="#000000" d="M107.9535756,-12.72419593L80.69916855,-9.86055637M108.65021208,-6.09402684L81.39580504,-3.23038729" stroke-width="1.6" stroke-linecap="round" stroke-linejoin="round" style="-webkit-tap-highlight-color: rgba(0, 0, 0, 0); stroke-linecap: round; stroke-linejoin: round;" transform="matrix(1,0,0,1,353.9045,283.4531)"/>
    <path fill="none" stroke="#000000" d="M81.0474868,-6.54547183L70.45221941,11.80681555" stroke-width="1.6" stroke-linecap="round" stroke-linejoin="round" style="-webkit-tap-highlight-color: rgba(0, 0, 0, 0); stroke-linecap: round; stroke-linejoin: round;" transform="matrix(1,0,0,1,353.9045,283.4531)"/>
    <path fill="none" stroke="#000000" d="M48.58865154,25.44935966L21.9200579,19.78187043" stroke-width="1.6" stroke-linecap="round" stroke-linejoin="round" style="-webkit-tap-highlight-color: rgba(0, 0, 0, 0); stroke-linecap: round; stroke-linejoin: round;" transform="matrix(1,0,0,1,353.9045,283.4531)"/>
    <path fill="none" stroke="#000000" d="M21.9200579,19.78187043L17.73580442,-20.00005283" stroke-width="1.6" stroke-linecap="round" stroke-linejoin="round" style="-webkit-tap-highlight-color: rgba(0, 0, 0, 0); stroke-linecap: round; stroke-linejoin: round;" transform="matrix(1,0,0,1,353.9045,283.4531)"/>
    <path fill="none" stroke="#000000" d="M17.83726125,-20.17576376L17.63434759,-19.82434189M14.87555055,-22.35446384L14.26680956,-21.30019822M11.91383985,-24.53316392L10.89927153,-22.77605456M8.95212915,-26.711864L7.5317335,-24.25191089M5.99041845,-28.89056408L4.16419547,-25.72776723M3.02870775,-31.06926416L0.79665743,-27.20362356M0.06699705,-33.24796423L-2.5708806,-28.6794799M-2.89471365,-35.42666431L-5.93841863,-30.15533623M-5.85642435,-37.60536439L-9.30595666,-31.63119257M-8.81813506,-39.78406447L-12.67349469,-33.1070489M-11.77984576,-41.96276455L-16.04103272,-34.58290524M-14.74155646,-44.14146463L-19.40857075,-36.05876157" stroke-width="1.6" stroke-linecap="round" stroke-linejoin="round" style="-webkit-tap-highlight-color: rgba(0, 0, 0, 0); stroke-linecap: round; stroke-linejoin: round;" transform="matrix(1,0,0,1,353.9045,283.4531)"/>
    <path fill="none" stroke="#000000" d="M-16.90186282,-40.00010565L-51.54437857,-20.00005283" stroke-width="1.6" stroke-linecap="round" stroke-linejoin="round" style="-webkit-tap-highlight-color: rgba(0, 0, 0, 0); stroke-linecap: round; stroke-linejoin: round;" transform="matrix(1,0,0,1,353.9045,283.4531)"/>
    <path fill="none" stroke="#000000" d="M-58.21104523,-16.15097281L-58.21104523,16.15097281M-51.54437857,-20.00005283L-51.54437857,20.00005283" stroke-width="1.6" stroke-linecap="round" stroke-linejoin="round" style="-webkit-tap-highlight-color: rgba(0, 0, 0, 0); stroke-linecap: round; stroke-linejoin: round;" transform="matrix(1,0,0,1,353.9045,283.4531)"/>
    <path fill="none" stroke="#000000" d="M-51.54437857,20.00005283L-86.18689431,40.00010565" stroke-width="1.6" stroke-linecap="round" stroke-linejoin="round" style="-webkit-tap-highlight-color: rgba(0, 0, 0, 0); stroke-linecap: round; stroke-linejoin: round;" transform="matrix(1,0,0,1,353.9045,283.4531)"/>
    <path fill="none" stroke="#000000" d="M-86.18666103,32.3020456L-114.15789489,16.15124218M-86.18689431,40.00010565L-120.82456155,20.00005283" stroke-width="1.6" stroke-linecap="round" stroke-linejoin="round" style="-webkit-tap-highlight-color: rgba(0, 0, 0, 0); stroke-linecap: round; stroke-linejoin: round;" transform="matrix(1,0,0,1,353.9045,283.4531)"/>
    <path fill="none" stroke="#000000" d="M-120.82456155,20.00005283L-120.82456155,-20.00005283" stroke-width="1.6" stroke-linecap="round" stroke-linejoin="round" style="-webkit-tap-highlight-color: rgba(0, 0, 0, 0); stroke-linecap: round; stroke-linejoin: round;" transform="matrix(1,0,0,1,353.9045,283.4531)"/>
    <path fill="none" stroke="#000000" d="M-114.15789489,-16.15124218L-86.18666103,-32.3020456M-120.82456155,-20.00005283L-86.18689431,-40.00010565" stroke-width="1.6" stroke-linecap="round" stroke-linejoin="round" style="-webkit-tap-highlight-color: rgba(0, 0, 0, 0); stroke-linecap: round; stroke-linejoin: round;" transform="matrix(1,0,0,1,353.9045,283.4531)"/>
    <path fill="none" stroke="#000000" d="M-51.54437857,-20.00005283L-86.18689431,-40.00010565" stroke-width="1.6" stroke-linecap="round" stroke-linejoin="round" style="-webkit-tap-highlight-color: rgba(0, 0, 0, 0); stroke-linecap: round; stroke-linejoin: round;" transform="matrix(1,0,0,1,353.9045,283.4531)"/>
    <path fill="none" stroke="#000000" d="M17.73580442,-20.00005283L42.68607442,-31.10965958" stroke-width="1.6" stroke-linecap="round" stroke-linejoin="round" style="-webkit-tap-highlight-color: rgba(0, 0, 0, 0); stroke-linecap: round; stroke-linejoin: round;" transform="matrix(1,0,0,1,353.9045,283.4531)"/>
    <path fill="none" stroke="#000000" d="M81.0474868,-6.54547183L68.58249894,-20.38768168" stroke-width="1.6" stroke-linecap="round" stroke-linejoin="round" style="-webkit-tap-highlight-color: rgba(0, 0, 0, 0); stroke-linecap: round; stroke-linejoin: round;" transform="matrix(1,0,0,1,353.9045,283.4531)"/>
    <text x="99.68" y="-73" text-anchor="middle" font="30px &quot;Arial&quot;" stroke="none" fill="#000000" style="-webkit-tap-highlight-color: rgba(0, 0, 0, 0); text-anchor: middle; font: 24px Arial;" font-size="24px" transform="matrix(1,0,0,1,353.9045,283.4531)">
      <tspan dy="8.5078125" style="-webkit-tap-highlight-color: rgba(0, 0, 0, 0);">Chiral</tspan>
    </text>
  </g>
</svg>
