<?xml version="1.0"?>
<svg version="1.1" id="topsvg"
xmlns="http://www.w3.org/2000/svg" xmlns:xlink="http://www.w3.org/1999/xlink"
xmlns:cml="http://www.xml-cml.org/schema" x="0" y="0" width="200px" height="200px" viewBox="0 0 100 100">
<title> - Open Babel Depiction</title>
<rect x="0" y="0" width="100" height="100" fill="white"/>
<g transform="translate(0,0)">
<svg width="100" height="100" x="0" y="0" viewBox="0 0 279.069 236.422"
font-family="sans-serif" stroke="rgb(0,0,0)" stroke-width="2"  stroke-linecap="round">
<line x1="214.6" y1="169.6" x2="217.2" y2="183.7" opacity="1.0" stroke="rgb(0,0,0)"  stroke-width="2.0"/>
<line x1="109.8" y1="100.4" x2="74.9" y2="80.3" opacity="1.0" stroke="rgb(0,0,0)"  stroke-width="2.0"/>
<line x1="71.9" y1="80.3" x2="71.9" y2="53.0" opacity="1.0" stroke="rgb(0,0,0)"  stroke-width="2.0"/>
<line x1="77.9" y1="80.3" x2="77.9" y2="53.0" opacity="1.0" stroke="rgb(0,0,0)"  stroke-width="2.0"/>
<line x1="74.9" y1="80.3" x2="51.3" y2="93.9" opacity="1.0" stroke="rgb(0,0,0)"  stroke-width="2.0"/>
<line x1="239.1" y1="126.9" x2="220.8" y2="147.2" opacity="1.0" stroke="rgb(0,0,0)"  stroke-width="2.0"/>
<line x1="200.5" y1="151.1" x2="179.5" y2="140.7" opacity="1.0" stroke="rgb(0,0,0)"  stroke-width="2.0"/>
<line x1="179.5" y1="140.7" x2="179.5" y2="100.4" opacity="1.0" stroke="rgb(0,0,0)"  stroke-width="2.0"/>
<line x1="186.7" y1="134.7" x2="186.7" y2="106.4" opacity="1.0" stroke="rgb(0,0,0)"  stroke-width="2.0"/>
<line x1="179.5" y1="100.4" x2="218.9" y2="92.0" opacity="1.0" stroke="rgb(0,0,0)"  stroke-width="2.0"/>
<line x1="218.9" y1="92.0" x2="239.1" y2="126.9" opacity="1.0" stroke="rgb(0,0,0)"  stroke-width="2.0"/>
<line x1="215.7" y1="100.8" x2="229.8" y2="125.3" opacity="1.0" stroke="rgb(0,0,0)"  stroke-width="2.0"/>
<line x1="179.5" y1="140.7" x2="144.6" y2="160.8" opacity="1.0" stroke="rgb(0,0,0)"  stroke-width="2.0"/>
<line x1="144.6" y1="160.8" x2="109.8" y2="140.7" opacity="1.0" stroke="rgb(0,0,0)"  stroke-width="2.0"/>
<line x1="143.1" y1="151.6" x2="118.6" y2="137.5" opacity="1.0" stroke="rgb(0,0,0)"  stroke-width="2.0"/>
<line x1="109.8" y1="140.7" x2="109.8" y2="100.4" opacity="1.0" stroke="rgb(0,0,0)"  stroke-width="2.0"/>
<line x1="109.8" y1="100.4" x2="144.6" y2="80.3" opacity="1.0" stroke="rgb(0,0,0)"  stroke-width="2.0"/>
<line x1="118.6" y1="103.7" x2="143.1" y2="89.5" opacity="1.0" stroke="rgb(0,0,0)"  stroke-width="2.0"/>
<line x1="144.6" y1="80.3" x2="179.5" y2="100.4" opacity="1.0" stroke="rgb(0,0,0)"  stroke-width="2.0"/>
<text x="206.114368" y="164.856194" fill="rgb(0,0,0)"  stroke="rgb(0,0,0)" stroke-width="1" font-size="16" >N</text>
<text x="213.670628" y="204.421836" fill="rgb(0,0,0)"  stroke="rgb(0,0,0)" stroke-width="1" font-size="16" >H</text>
<text x="68.885272" y="48.000000" fill="rgb(0,0,0)"  stroke="rgb(0,0,0)" stroke-width="1" font-size="16" >O</text>
<text x="22.000000" y="108.417859" fill="rgb(0,0,0)"  stroke="rgb(0,0,0)" stroke-width="1" font-size="16" >HO</text>
</svg>
</g>
</svg>
