<?xml version="1.0"?>
<svg xmlns="http://www.w3.org/2000/svg" height="130.1561219931038" version="1.1" width="356.86300003891733" style="overflow: hidden; position: relative;" viewBox="0 0 376 150">
  <g transform="translate(-239, -203)">
    <defs style="-webkit-tap-highlight-color: rgba(0, 0, 0, 0);"/>
    <text x="-17.31792071095135" y="-30.000921993103844" text-anchor="middle" font="30px &quot;Arial&quot;" stroke="none" fill="#000000" style="-webkit-tap-highlight-color: rgba(0, 0, 0, 0); text-anchor: middle; font: 24px Arial;" font-size="24px" transform="matrix(1,0,0,1,354.2016,277.6734)">
      <tspan dy="8.506890506896156" style="-webkit-tap-highlight-color: rgba(0, 0, 0, 0);">N</tspan>
    </text>
    <text x="-17.31792071095135" y="-30.000921993103844" text-anchor="middle" font="30px &quot;Arial&quot;" stroke="none" fill="#000000" style="-webkit-tap-highlight-color: rgba(0, 0, 0, 0); text-anchor: middle; font: 24px Arial;" font-size="24px" transform="matrix(1,0,0,1,372.3453,277.6734)">
      <tspan dy="8.506890506896156" style="-webkit-tap-highlight-color: rgba(0, 0, 0, 0);">H</tspan>
    </text>
    <text x="-17.31792071095135" y="-30.000921993103844" text-anchor="middle" font="30px &quot;Arial&quot;" stroke="none" fill="#000000" style="-webkit-tap-highlight-color: rgba(0, 0, 0, 0); text-anchor: middle; font: 17px Arial;" font-size="17px" transform="matrix(1,0,0,1,386.5516,283.0766)">
      <tspan dy="5.506890506896156" style="-webkit-tap-highlight-color: rgba(0, 0, 0, 0);">2</tspan>
    </text>
    <text x="51.95861037493437" y="-30.000921993103844" text-anchor="middle" font="30px &quot;Arial&quot;" stroke="none" fill="#000000" style="-webkit-tap-highlight-color: rgba(0, 0, 0, 0); text-anchor: middle; font: 24px Arial;" font-size="24px" transform="matrix(1,0,0,1,354.2016,277.6734)">
      <tspan dy="8.506890506896156" style="-webkit-tap-highlight-color: rgba(0, 0, 0, 0);">C</tspan>
    </text>
    <text x="51.95861037493437" y="-30.000921993103844" text-anchor="middle" font="30px &quot;Arial&quot;" stroke="none" fill="#000000" style="-webkit-tap-highlight-color: rgba(0, 0, 0, 0); text-anchor: middle; font: 24px Arial;" font-size="24px" transform="matrix(1,0,0,1,372.3453,277.6734)">
      <tspan dy="8.506890506896156" style="-webkit-tap-highlight-color: rgba(0, 0, 0, 0);">H</tspan>
    </text>
    <text x="51.95861037493437" y="-30.000921993103844" text-anchor="middle" font="30px &quot;Arial&quot;" stroke="none" fill="#000000" style="-webkit-tap-highlight-color: rgba(0, 0, 0, 0); text-anchor: middle; font: 17px Arial;" font-size="17px" transform="matrix(1,0,0,1,386.5516,283.0766)">
      <tspan dy="5.506890506896156" style="-webkit-tap-highlight-color: rgba(0, 0, 0, 0);">3</tspan>
    </text>
    <text x="86.59930003891739" y="30.000921993103844" text-anchor="middle" font="30px &quot;Arial&quot;" stroke="none" fill="#000000" style="-webkit-tap-highlight-color: rgba(0, 0, 0, 0); text-anchor: middle; font: 24px Arial;" font-size="24px" transform="matrix(1,0,0,1,354.2016,277.6734)">
      <tspan dy="8.493109493103844" style="-webkit-tap-highlight-color: rgba(0, 0, 0, 0);">C</tspan>
    </text>
    <text x="86.59930003891739" y="30.000921993103844" text-anchor="middle" font="30px &quot;Arial&quot;" stroke="none" fill="#000000" style="-webkit-tap-highlight-color: rgba(0, 0, 0, 0); text-anchor: middle; font: 24px Arial;" font-size="24px" transform="matrix(1,0,0,1,372.3453,277.6734)">
      <tspan dy="8.493109493103844" style="-webkit-tap-highlight-color: rgba(0, 0, 0, 0);">H</tspan>
    </text>
    <text x="86.59930003891739" y="30.000921993103844" text-anchor="middle" font="30px &quot;Arial&quot;" stroke="none" fill="#000000" style="-webkit-tap-highlight-color: rgba(0, 0, 0, 0); text-anchor: middle; font: 17px Arial;" font-size="17px" transform="matrix(1,0,0,1,386.5516,283.0766)">
      <tspan dy="5.493109493103844" style="-webkit-tap-highlight-color: rgba(0, 0, 0, 0);">3</tspan>
    </text>
    <text x="-86.59930003891739" y="9.997075169647726" text-anchor="middle" font="30px &quot;Arial&quot;" stroke="none" fill="#000000" style="-webkit-tap-highlight-color: rgba(0, 0, 0, 0); text-anchor: middle; font: 24px Arial;" font-size="24px" transform="matrix(1,0,0,1,354.2016,277.6734)">
      <tspan dy="8.504887669647726" style="-webkit-tap-highlight-color: rgba(0, 0, 0, 0);">O</tspan>
    </text>
    <text x="-86.59930003891739" y="9.997075169647726" text-anchor="middle" font="30px &quot;Arial&quot;" stroke="none" fill="#000000" style="-webkit-tap-highlight-color: rgba(0, 0, 0, 0); text-anchor: middle; font: 24px Arial;" font-size="24px" transform="matrix(1,0,0,1,335.3859,277.6734)">
      <tspan dy="8.504887669647726" style="-webkit-tap-highlight-color: rgba(0, 0, 0, 0);">H</tspan>
    </text>
    <path fill="none" stroke="#000000" d="M-17.0068096,9.99707517L-17.62903182,9.99707517M-16.38458738,6.64258229L-18.25125404,6.64258229M-15.76236516,3.28808941L-18.87347627,3.28808941M-15.14014293,-0.06640347L-19.49569849,-0.06640347M-14.51792071,-3.42089636L-20.11792071,-3.42089636M-13.89569849,-6.77538924L-20.74014293,-6.77538924M-13.27347627,-10.12988212L-21.36236516,-10.12988212M-12.65125404,-13.484375L-21.98458738,-13.484375" stroke-width="1.6" stroke-linecap="round" stroke-linejoin="round" style="-webkit-tap-highlight-color: rgba(0, 0, 0, 0); stroke-linecap: round; stroke-linejoin: round;" transform="matrix(1,0,0,1,354.2016,277.6734)"/>
    <path fill="none" stroke="#000000" d="M-17.31792071,9.99707517L17.31792071,30.00092199" stroke-width="1.6" stroke-linecap="round" stroke-linejoin="round" style="-webkit-tap-highlight-color: rgba(0, 0, 0, 0); stroke-linecap: round; stroke-linejoin: round;" transform="matrix(1,0,0,1,354.2016,277.6734)"/>
    <path fill="none" stroke="#000000" d="M17.31792071,30.00092199L51.95861037,9.99707517" stroke-width="1.6" stroke-linecap="round" stroke-linejoin="round" style="-webkit-tap-highlight-color: rgba(0, 0, 0, 0); stroke-linecap: round; stroke-linejoin: round;" transform="matrix(1,0,0,1,354.2016,277.6734)"/>
    <path fill="none" stroke="#000000" d="M51.95861037,9.99707517L51.95861037,-13.284375" stroke-width="1.6" stroke-linecap="round" stroke-linejoin="round" style="-webkit-tap-highlight-color: rgba(0, 0, 0, 0); stroke-linecap: round; stroke-linejoin: round;" transform="matrix(1,0,0,1,354.2016,277.6734)"/>
    <path fill="none" stroke="#000000" d="M51.95861037,9.99707517L75.1507335,23.38975537" stroke-width="1.6" stroke-linecap="round" stroke-linejoin="round" style="-webkit-tap-highlight-color: rgba(0, 0, 0, 0); stroke-linecap: round; stroke-linejoin: round;" transform="matrix(1,0,0,1,354.2016,277.6734)"/>
    <path fill="none" stroke="#000000" d="M-17.31792071,9.99707517L-51.95861037,30.00092199" stroke-width="1.6" stroke-linecap="round" stroke-linejoin="round" style="-webkit-tap-highlight-color: rgba(0, 0, 0, 0); stroke-linecap: round; stroke-linejoin: round;" transform="matrix(1,0,0,1,354.2016,277.6734)"/>
    <path fill="none" stroke="#000000" d="M-51.95861037,30.00092199L-74.4788585,16.99622727" stroke-width="1.6" stroke-linecap="round" stroke-linejoin="round" style="-webkit-tap-highlight-color: rgba(0, 0, 0, 0); stroke-linecap: round; stroke-linejoin: round;" transform="matrix(1,0,0,1,354.2016,277.6734)"/>
    <text x="71.44800000000001" y="-64.752" text-anchor="middle" font="30px &quot;Arial&quot;" stroke="none" fill="#000000" style="-webkit-tap-highlight-color: rgba(0, 0, 0, 0); text-anchor: middle; font: 24px Arial;" font-size="24px" transform="matrix(1,0,0,1,354.2016,277.6734)">
      <tspan dy="8.505812500000005" style="-webkit-tap-highlight-color: rgba(0, 0, 0, 0);">Chiral</tspan>
    </text>
  </g>
</svg>
