<?xml version="1.0"?>
<svg xmlns="http://www.w3.org/2000/svg" height="236.82425572791584" version="1.1" width="465.2497786967682" style="overflow: hidden; position: relative;" viewBox="0 0 485 256">
  <g transform="translate(-192, -148)">
    <defs style="-webkit-tap-highlight-color: rgba(0, 0, 0, 0);"/>
    <text x="35.63156640499697" y="-92.57225572791585" text-anchor="middle" font="30px &quot;Arial&quot;" stroke="none" fill="#000000" style="-webkit-tap-highlight-color: rgba(0, 0, 0, 0); text-anchor: middle; font: 24px Arial;" font-size="24px" transform="matrix(1,0,0,1,373.2063,271.8359)">
      <tspan dy="8.498056772084155" style="-webkit-tap-highlight-color: rgba(0, 0, 0, 0);">O</tspan>
    </text>
    <text x="35.63156640499697" y="-92.57225572791585" text-anchor="middle" font="30px &quot;Arial&quot;" stroke="none" fill="#000000" style="-webkit-tap-highlight-color: rgba(0, 0, 0, 0); text-anchor: middle; font: 24px Arial;" font-size="24px" transform="matrix(1,0,0,1,392.0219,271.8359)">
      <tspan dy="8.498056772084155" style="-webkit-tap-highlight-color: rgba(0, 0, 0, 0);">H</tspan>
    </text>
    <text x="-35.63156640499697" y="-51.43013916511319" text-anchor="middle" font="30px &quot;Arial&quot;" stroke="none" fill="#000000" style="-webkit-tap-highlight-color: rgba(0, 0, 0, 0); text-anchor: middle; font: 24px Arial;" font-size="24px" transform="matrix(1,0,0,1,373.2063,271.8359)">
      <tspan dy="8.49954833488681" style="-webkit-tap-highlight-color: rgba(0, 0, 0, 0);">N</tspan>
    </text>
    <text x="-142.52127869676812" y="10.283035679090798" text-anchor="middle" font="30px &quot;Arial&quot;" stroke="none" fill="#000000" style="-webkit-tap-highlight-color: rgba(0, 0, 0, 0); text-anchor: middle; font: 24px Arial;" font-size="24px" transform="matrix(1,0,0,1,373.2063,271.8359)">
      <tspan dy="8.493973179090798" style="-webkit-tap-highlight-color: rgba(0, 0, 0, 0);">C</tspan>
    </text>
    <text x="-142.52127869676812" y="10.283035679090798" text-anchor="middle" font="30px &quot;Arial&quot;" stroke="none" fill="#000000" style="-webkit-tap-highlight-color: rgba(0, 0, 0, 0); text-anchor: middle; font: 24px Arial;" font-size="24px" transform="matrix(1,0,0,1,344.7938,271.8359)">
      <tspan dy="8.493973179090798" style="-webkit-tap-highlight-color: rgba(0, 0, 0, 0);">H</tspan>
    </text>
    <text x="-142.52127869676812" y="10.283035679090798" text-anchor="middle" font="30px &quot;Arial&quot;" stroke="none" fill="#000000" style="-webkit-tap-highlight-color: rgba(0, 0, 0, 0); text-anchor: middle; font: 17px Arial;" font-size="17px" transform="matrix(1,0,0,1,359,277.2391)">
      <tspan dy="5.493973179090798" style="-webkit-tap-highlight-color: rgba(0, 0, 0, 0);">2</tspan>
    </text>
    <text x="142.52127869676812" y="10.283035679090798" text-anchor="middle" font="30px &quot;Arial&quot;" stroke="none" fill="#000000" style="-webkit-tap-highlight-color: rgba(0, 0, 0, 0); text-anchor: middle; font: 24px Arial;" font-size="24px" transform="matrix(1,0,0,1,373.2063,271.8359)">
      <tspan dy="8.493973179090798" style="-webkit-tap-highlight-color: rgba(0, 0, 0, 0);">N</tspan>
    </text>
    <text x="0" y="92.57225572791585" text-anchor="middle" font="30px &quot;Arial&quot;" stroke="none" fill="#000000" style="-webkit-tap-highlight-color: rgba(0, 0, 0, 0); text-anchor: middle; font: 24px Arial;" font-size="24px" transform="matrix(1,0,0,1,373.2063,271.8359)">
      <tspan dy="8.501943227915845" style="-webkit-tap-highlight-color: rgba(0, 0, 0, 0);">O</tspan>
    </text>
    <text x="-35.63156640499697" y="72.00119744651451" text-anchor="middle" font="30px &quot;Arial&quot;" stroke="none" fill="#000000" style="-webkit-tap-highlight-color: rgba(0, 0, 0, 0); text-anchor: middle; font: 24px Arial;" font-size="24px" transform="matrix(1,0,0,1,373.2063,271.8359)">
      <tspan dy="8.49338494651451" style="-webkit-tap-highlight-color: rgba(0, 0, 0, 0);">C</tspan>
    </text>
    <text x="-35.63156640499697" y="72.00119744651451" text-anchor="middle" font="30px &quot;Arial&quot;" stroke="none" fill="#000000" style="-webkit-tap-highlight-color: rgba(0, 0, 0, 0); text-anchor: middle; font: 24px Arial;" font-size="24px" transform="matrix(1,0,0,1,344.7781,271.8359)">
      <tspan dy="8.49338494651451" style="-webkit-tap-highlight-color: rgba(0, 0, 0, 0);">H</tspan>
    </text>
    <text x="-35.63156640499697" y="72.00119744651451" text-anchor="middle" font="30px &quot;Arial&quot;" stroke="none" fill="#000000" style="-webkit-tap-highlight-color: rgba(0, 0, 0, 0); text-anchor: middle; font: 17px Arial;" font-size="17px" transform="matrix(1,0,0,1,358.9922,277.2391)">
      <tspan dy="5.49338494651451" style="-webkit-tap-highlight-color: rgba(0, 0, 0, 0);">3</tspan>
    </text>
    <path fill="none" stroke="#000000" d="M35.94267752,-51.43013917L35.32045529,-51.43013917M36.56489974,-54.94904786L34.69823307,-54.94904786M37.18712196,-58.46795655L34.07601085,-58.46795655M37.80934418,-61.98686524L33.45378863,-61.98686524M38.4315664,-65.50577393L32.8315664,-65.50577393M39.05378863,-69.02468262L32.20934418,-69.02468262M39.67601085,-72.54359131L31.58712196,-72.54359131M40.29823307,-76.0625L30.96489974,-76.0625" stroke-width="1.6" stroke-linecap="round" stroke-linejoin="round" style="-webkit-tap-highlight-color: rgba(0, 0, 0, 0); stroke-linecap: round; stroke-linejoin: round;" transform="matrix(1,0,0,1,373.2063,271.8359)"/>
    <path fill="none" stroke="#000000" d="M35.6315664,-51.43013917L0,-30.85908088" stroke-width="1.6" stroke-linecap="round" stroke-linejoin="round" style="-webkit-tap-highlight-color: rgba(0, 0, 0, 0); stroke-linecap: round; stroke-linejoin: round;" transform="matrix(1,0,0,1,373.2063,271.8359)"/>
    <path fill="#000000" stroke="#000000" d="M0,-30.85908088L-4.66666667,10.28303568L4.66666667,10.28303568Z" stroke-width="1.6" stroke-linecap="round" stroke-linejoin="round" style="-webkit-tap-highlight-color: rgba(0, 0, 0, 0); stroke-linecap: round; stroke-linejoin: round;" transform="matrix(1,0,0,1,373.2063,271.8359)"/>
    <path fill="none" stroke="#000000" d="M0,10.28303568L-35.6315664,30.85908088" stroke-width="1.6" stroke-linecap="round" stroke-linejoin="round" style="-webkit-tap-highlight-color: rgba(0, 0, 0, 0); stroke-linecap: round; stroke-linejoin: round;" transform="matrix(1,0,0,1,373.2063,271.8359)"/>
    <path fill="none" stroke="#000000" d="M-35.6315664,30.85908088L-71.25814589,10.28303568" stroke-width="1.6" stroke-linecap="round" stroke-linejoin="round" style="-webkit-tap-highlight-color: rgba(0, 0, 0, 0); stroke-linecap: round; stroke-linejoin: round;" transform="matrix(1,0,0,1,373.2063,271.8359)"/>
    <path fill="none" stroke="#000000" d="M-71.25814589,10.28303568L-71.25814589,-30.85908088" stroke-width="1.6" stroke-linecap="round" stroke-linejoin="round" style="-webkit-tap-highlight-color: rgba(0, 0, 0, 0); stroke-linecap: round; stroke-linejoin: round;" transform="matrix(1,0,0,1,373.2063,271.8359)"/>
    <path fill="none" stroke="#000000" d="M-71.25814589,-30.85908088L-47.08371248,-44.81758282" stroke-width="1.6" stroke-linecap="round" stroke-linejoin="round" style="-webkit-tap-highlight-color: rgba(0, 0, 0, 0); stroke-linecap: round; stroke-linejoin: round;" transform="matrix(1,0,0,1,373.2063,271.8359)"/>
    <path fill="none" stroke="#000000" d="M0,-30.85908088L-24.18181555,-44.81989112" stroke-width="1.6" stroke-linecap="round" stroke-linejoin="round" style="-webkit-tap-highlight-color: rgba(0, 0, 0, 0); stroke-linecap: round; stroke-linejoin: round;" transform="matrix(1,0,0,1,373.2063,271.8359)"/>
    <path fill="none" stroke="#000000" d="M-46.63668478,-36.04181226L-45.52549756,-35.30489928M-49.98663519,-33.40290601L-46.65307355,-31.19216705M-53.3365856,-30.76399975L-47.78064953,-27.07943481M-56.68653602,-28.12509349L-48.90822551,-22.96670258" stroke-width="1.6" stroke-linecap="round" stroke-linejoin="round" style="-webkit-tap-highlight-color: rgba(0, 0, 0, 0); stroke-linecap: round; stroke-linejoin: round;" transform="matrix(1,0,0,1,373.2063,271.8359)"/>
    <path fill="none" stroke="#000000" d="M-52.68684382,-25.71257612L-52.68684382,5.14151784" stroke-width="1.6" stroke-linecap="round" stroke-linejoin="round" style="-webkit-tap-highlight-color: rgba(0, 0, 0, 0); stroke-linecap: round; stroke-linejoin: round;" transform="matrix(1,0,0,1,373.2063,271.8359)"/>
    <path fill="none" stroke="#000000" d="M-35.42687402,30.72333375L-35.83625879,30.99482801M-36.92480197,27.5758127L-38.15295626,28.39029548M-38.42272991,24.42829165L-40.46965373,25.78576295M-39.92065785,21.2807706L-42.7863512,23.18123041M-41.4185858,18.13324955L-45.10304867,20.57669788M-42.91651374,14.9857285L-47.41974614,17.97216535M-44.41444168,11.83820745L-49.73644361,15.36763281M-45.91236963,8.6906864L-52.05314108,12.76310028M-47.41029757,5.54316535L-54.36983855,10.15856775M-48.90822551,2.3956443L-56.68653602,7.55403521" stroke-width="1.6" stroke-linecap="round" stroke-linejoin="round" style="-webkit-tap-highlight-color: rgba(0, 0, 0, 0); stroke-linecap: round; stroke-linejoin: round;" transform="matrix(1,0,0,1,373.2063,271.8359)"/>
    <path fill="#000000" stroke="#000000" d="M-71.25814589,10.28303568L-109.22339869,26.81783286L-104.55602589,34.9003289Z" stroke-width="1.6" stroke-linecap="round" stroke-linejoin="round" style="-webkit-tap-highlight-color: rgba(0, 0, 0, 0); stroke-linecap: round; stroke-linejoin: round;" transform="matrix(1,0,0,1,373.2063,271.8359)"/>
    <path fill="none" stroke="#000000" d="M-106.88971229,23.16068896L-127.73877079,11.12105071M-106.88971229,30.85908088L-131.0726085,16.89426216" stroke-width="1.6" stroke-linecap="round" stroke-linejoin="round" style="-webkit-tap-highlight-color: rgba(0, 0, 0, 0); stroke-linecap: round; stroke-linejoin: round;" transform="matrix(1,0,0,1,373.2063,271.8359)"/>
    <path fill="none" stroke="#000000" d="M35.6315664,-51.43013917L71.25814589,-30.85908088" stroke-width="1.6" stroke-linecap="round" stroke-linejoin="round" style="-webkit-tap-highlight-color: rgba(0, 0, 0, 0); stroke-linecap: round; stroke-linejoin: round;" transform="matrix(1,0,0,1,373.2063,271.8359)"/>
    <path fill="none" stroke="#000000" d="M77.92481255,-27.01000086L106.88971229,-43.7322138M71.25814589,-30.85908088L106.88971229,-51.43013917" stroke-width="1.6" stroke-linecap="round" stroke-linejoin="round" style="-webkit-tap-highlight-color: rgba(0, 0, 0, 0); stroke-linecap: round; stroke-linejoin: round;" transform="matrix(1,0,0,1,373.2063,271.8359)"/>
    <path fill="none" stroke="#000000" d="M106.88971229,-51.43013917L142.5212787,-30.85908088" stroke-width="1.6" stroke-linecap="round" stroke-linejoin="round" style="-webkit-tap-highlight-color: rgba(0, 0, 0, 0); stroke-linecap: round; stroke-linejoin: round;" transform="matrix(1,0,0,1,373.2063,271.8359)"/>
    <path fill="none" stroke="#000000" d="M135.85461203,-27.01000086L135.85461203,-6.434375M142.5212787,-30.85908088L142.5212787,-6.434375" stroke-width="1.6" stroke-linecap="round" stroke-linejoin="round" style="-webkit-tap-highlight-color: rgba(0, 0, 0, 0); stroke-linecap: round; stroke-linejoin: round;" transform="matrix(1,0,0,1,373.2063,271.8359)"/>
    <path fill="none" stroke="#000000" d="M131.0726085,16.89426216L106.88971229,30.85908088" stroke-width="1.6" stroke-linecap="round" stroke-linejoin="round" style="-webkit-tap-highlight-color: rgba(0, 0, 0, 0); stroke-linecap: round; stroke-linejoin: round;" transform="matrix(1,0,0,1,373.2063,271.8359)"/>
    <path fill="none" stroke="#000000" d="M100.22304563,34.70769441L100.22304563,68.15211743M106.88971229,30.85908088L106.88971229,72.00119745" stroke-width="1.6" stroke-linecap="round" stroke-linejoin="round" style="-webkit-tap-highlight-color: rgba(0, 0, 0, 0); stroke-linecap: round; stroke-linejoin: round;" transform="matrix(1,0,0,1,373.2063,271.8359)"/>
    <path fill="none" stroke="#000000" d="M106.88971229,72.00119745L71.25814589,92.57225573" stroke-width="1.6" stroke-linecap="round" stroke-linejoin="round" style="-webkit-tap-highlight-color: rgba(0, 0, 0, 0); stroke-linecap: round; stroke-linejoin: round;" transform="matrix(1,0,0,1,373.2063,271.8359)"/>
    <path fill="none" stroke="#000000" d="M71.25837917,84.87419568L42.29823307,68.1523868M71.25814589,92.57225573L35.6315664,72.00119745" stroke-width="1.6" stroke-linecap="round" stroke-linejoin="round" style="-webkit-tap-highlight-color: rgba(0, 0, 0, 0); stroke-linecap: round; stroke-linejoin: round;" transform="matrix(1,0,0,1,373.2063,271.8359)"/>
    <path fill="none" stroke="#000000" d="M35.6315664,72.00119745L12.11505945,85.5779072" stroke-width="1.6" stroke-linecap="round" stroke-linejoin="round" style="-webkit-tap-highlight-color: rgba(0, 0, 0, 0); stroke-linecap: round; stroke-linejoin: round;" transform="matrix(1,0,0,1,373.2063,271.8359)"/>
    <path fill="none" stroke="#000000" d="M-12.11505945,85.5779072L-24.18181555,78.61144549" stroke-width="1.6" stroke-linecap="round" stroke-linejoin="round" style="-webkit-tap-highlight-color: rgba(0, 0, 0, 0); stroke-linecap: round; stroke-linejoin: round;" transform="matrix(1,0,0,1,373.2063,271.8359)"/>
    <path fill="none" stroke="#000000" d="M35.6315664,72.00119745L35.6315664,30.85908088" stroke-width="1.6" stroke-linecap="round" stroke-linejoin="round" style="-webkit-tap-highlight-color: rgba(0, 0, 0, 0); stroke-linecap: round; stroke-linejoin: round;" transform="matrix(1,0,0,1,373.2063,271.8359)"/>
    <path fill="none" stroke="#000000" d="M42.29823307,34.70742502L71.25837921,17.98156234M35.6315664,30.85908088L71.25814589,10.28303568" stroke-width="1.6" stroke-linecap="round" stroke-linejoin="round" style="-webkit-tap-highlight-color: rgba(0, 0, 0, 0); stroke-linecap: round; stroke-linejoin: round;" transform="matrix(1,0,0,1,373.2063,271.8359)"/>
    <path fill="none" stroke="#000000" d="M71.25814589,-30.85908088L71.25814589,10.28303568" stroke-width="1.6" stroke-linecap="round" stroke-linejoin="round" style="-webkit-tap-highlight-color: rgba(0, 0, 0, 0); stroke-linecap: round; stroke-linejoin: round;" transform="matrix(1,0,0,1,373.2063,271.8359)"/>
    <path fill="none" stroke="#000000" d="M106.88971229,30.85908088L71.25814589,10.28303568" stroke-width="1.6" stroke-linecap="round" stroke-linejoin="round" style="-webkit-tap-highlight-color: rgba(0, 0, 0, 0); stroke-linecap: round; stroke-linejoin: round;" transform="matrix(1,0,0,1,373.2063,271.8359)"/>
    <text x="114.316" y="-114.25200000000001" text-anchor="middle" font="30px &quot;Arial&quot;" stroke="none" fill="#000000" style="-webkit-tap-highlight-color: rgba(0, 0, 0, 0); text-anchor: middle; font: 24px Arial;" font-size="24px" transform="matrix(1,0,0,1,373.2063,271.8359)">
      <tspan dy="8.50581249999999" style="-webkit-tap-highlight-color: rgba(0, 0, 0, 0);">Chiral</tspan>
    </text>
  </g>
</svg>
