<?xml version="1.0"?>
<svg xmlns="http://www.w3.org/2000/svg" height="132.97149874" version="1.1" width="447.34061971000006" style="overflow: hidden; position: relative;" viewBox="0 0 467 152">
  <g transform="translate(-200, -191)">
    <defs style="-webkit-tap-highlight-color: rgba(0, 0, 0, 0);"/>
    <text x="0" y="-10.608582396147701" text-anchor="middle" font="30px &quot;Arial&quot;" stroke="none" fill="#000000" style="-webkit-tap-highlight-color: rgba(0, 0, 0, 0); text-anchor: middle; font: 24px Arial;" font-size="24px" transform="matrix(1,0,0,1,356.1506,283.3017)">
      <tspan dy="8.492980103852299" style="-webkit-tap-highlight-color: rgba(0, 0, 0, 0);">N</tspan>
    </text>
    <text x="0" y="-10.608582396147701" text-anchor="middle" font="30px &quot;Arial&quot;" stroke="none" fill="#000000" style="-webkit-tap-highlight-color: rgba(0, 0, 0, 0); text-anchor: middle; font: 24px Arial;" font-size="24px" transform="matrix(1,0,0,1,374.2943,283.3017)">
      <tspan dy="8.492980103852299" style="-webkit-tap-highlight-color: rgba(0, 0, 0, 0);">H</tspan>
    </text>
    <path fill="#000000" stroke="#000000" d="M-32.35908543,12.90193682L-68.96374648,-3.89533563L-71.84724527,4.98140622Z" stroke-width="1.6" stroke-linecap="round" stroke-linejoin="round" style="-webkit-tap-highlight-color: rgba(0, 0, 0, 0); stroke-linecap: round; stroke-linejoin: round;" transform="matrix(1,0,0,1,356.1506,283.3017)"/>
    <path fill="none" stroke="#000000" d="M-77.72663395,-1.83604321L-101.73231296,19.77729036M-70.40549587,0.5430353L-100.13182982,27.30691776" stroke-width="1.6" stroke-linecap="round" stroke-linejoin="round" style="-webkit-tap-highlight-color: rgba(0, 0, 0, 0); stroke-linecap: round; stroke-linejoin: round;" transform="matrix(1,0,0,1,356.1506,283.3017)"/>
    <path fill="none" stroke="#000000" d="M-100.13182982,27.30691776L-138.17339174,14.94801624" stroke-width="1.6" stroke-linecap="round" stroke-linejoin="round" style="-webkit-tap-highlight-color: rgba(0, 0, 0, 0); stroke-linecap: round; stroke-linejoin: round;" transform="matrix(1,0,0,1,356.1506,283.3017)"/>
    <path fill="none" stroke="#000000" d="M-132.45252818,9.79694005L-139.16748164,-21.80053777M-138.17339174,14.94801624L-146.48861971,-24.17961627" stroke-width="1.6" stroke-linecap="round" stroke-linejoin="round" style="-webkit-tap-highlight-color: rgba(0, 0, 0, 0); stroke-linecap: round; stroke-linejoin: round;" transform="matrix(1,0,0,1,356.1506,283.3017)"/>
    <path fill="none" stroke="#000000" d="M-146.48861971,-24.17961627L-116.76228577,-50.94349874" stroke-width="1.6" stroke-linecap="round" stroke-linejoin="round" style="-webkit-tap-highlight-color: rgba(0, 0, 0, 0); stroke-linecap: round; stroke-linejoin: round;" transform="matrix(1,0,0,1,356.1506,283.3017)"/>
    <path fill="none" stroke="#000000" d="M-115.16180263,-43.41387134L-84.44158741,-33.43352103M-116.76228577,-50.94349874L-78.72072385,-38.58459722" stroke-width="1.6" stroke-linecap="round" stroke-linejoin="round" style="-webkit-tap-highlight-color: rgba(0, 0, 0, 0); stroke-linecap: round; stroke-linejoin: round;" transform="matrix(1,0,0,1,356.1506,283.3017)"/>
    <path fill="none" stroke="#000000" d="M-70.40549587,0.5430353L-78.72072385,-38.58459722" stroke-width="1.6" stroke-linecap="round" stroke-linejoin="round" style="-webkit-tap-highlight-color: rgba(0, 0, 0, 0); stroke-linecap: round; stroke-linejoin: round;" transform="matrix(1,0,0,1,356.1506,283.3017)"/>
    <path fill="none" stroke="#000000" d="M-32.35908543,12.90193682L-11.26071921,-2.42709791" stroke-width="1.6" stroke-linecap="round" stroke-linejoin="round" style="-webkit-tap-highlight-color: rgba(0, 0, 0, 0); stroke-linecap: round; stroke-linejoin: round;" transform="matrix(1,0,0,1,356.1506,283.3017)"/>
    <path fill="none" stroke="#000000" d="M21.16869782,4.77155181L32.35908543,12.90193682" stroke-width="1.6" stroke-linecap="round" stroke-linejoin="round" style="-webkit-tap-highlight-color: rgba(0, 0, 0, 0); stroke-linecap: round; stroke-linejoin: round;" transform="matrix(1,0,0,1,356.1506,283.3017)"/>
    <path fill="none" stroke="#000000" d="M32.42177018,13.09490947L32.29640067,12.70896417M36.02319664,12.35170106L35.6470881,11.19386516M39.62462309,11.60849265L38.99777553,9.67876616M43.22604954,10.86528424L42.34846295,8.16366715M46.82747599,10.12207583L45.69915038,6.64856815M50.42890245,9.37886742L49.04983781,5.13346914M54.0303289,8.63565901L52.40052524,3.61837014M57.63175535,7.8924506L55.75121267,2.10327113M61.23318181,7.14924219L59.10190009,0.58817213M64.83460826,6.40603378L62.45258752,-0.92692688M68.43603471,5.66282537L65.80327495,-2.44202588M72.03746116,4.91961696L69.15396238,-3.95712489" stroke-width="1.6" stroke-linecap="round" stroke-linejoin="round" style="-webkit-tap-highlight-color: rgba(0, 0, 0, 0); stroke-linecap: round; stroke-linejoin: round;" transform="matrix(1,0,0,1,356.1506,283.3017)"/>
    <path fill="none" stroke="#000000" d="M77.72663395,-1.83604321L84.44158741,-33.43352103M70.40549587,0.5430353L78.72072385,-38.58459722" stroke-width="1.6" stroke-linecap="round" stroke-linejoin="round" style="-webkit-tap-highlight-color: rgba(0, 0, 0, 0); stroke-linecap: round; stroke-linejoin: round;" transform="matrix(1,0,0,1,356.1506,283.3017)"/>
    <path fill="none" stroke="#000000" d="M78.72072385,-38.58459722L116.76228577,-50.94349874" stroke-width="1.6" stroke-linecap="round" stroke-linejoin="round" style="-webkit-tap-highlight-color: rgba(0, 0, 0, 0); stroke-linecap: round; stroke-linejoin: round;" transform="matrix(1,0,0,1,356.1506,283.3017)"/>
    <path fill="none" stroke="#000000" d="M115.16180263,-43.41387134L139.16748164,-21.80053777M116.76228577,-50.94349874L146.48861971,-24.17961627" stroke-width="1.6" stroke-linecap="round" stroke-linejoin="round" style="-webkit-tap-highlight-color: rgba(0, 0, 0, 0); stroke-linecap: round; stroke-linejoin: round;" transform="matrix(1,0,0,1,356.1506,283.3017)"/>
    <path fill="none" stroke="#000000" d="M146.48861971,-24.17961627L138.17339174,14.94801624" stroke-width="1.6" stroke-linecap="round" stroke-linejoin="round" style="-webkit-tap-highlight-color: rgba(0, 0, 0, 0); stroke-linecap: round; stroke-linejoin: round;" transform="matrix(1,0,0,1,356.1506,283.3017)"/>
    <path fill="none" stroke="#000000" d="M132.45252818,9.79694005L101.73231296,19.77729036M138.17339174,14.94801624L100.13182982,27.30691776" stroke-width="1.6" stroke-linecap="round" stroke-linejoin="round" style="-webkit-tap-highlight-color: rgba(0, 0, 0, 0); stroke-linecap: round; stroke-linejoin: round;" transform="matrix(1,0,0,1,356.1506,283.3017)"/>
    <path fill="none" stroke="#000000" d="M70.40549587,0.5430353L100.13182982,27.30691776" stroke-width="1.6" stroke-linecap="round" stroke-linejoin="round" style="-webkit-tap-highlight-color: rgba(0, 0, 0, 0); stroke-linecap: round; stroke-linejoin: round;" transform="matrix(1,0,0,1,356.1506,283.3017)"/>
    <path fill="none" stroke="#000000" d="M32.35908543,12.90193682L20.0001839,50.94349874" stroke-width="1.6" stroke-linecap="round" stroke-linejoin="round" style="-webkit-tap-highlight-color: rgba(0, 0, 0, 0); stroke-linecap: round; stroke-linejoin: round;" transform="matrix(1,0,0,1,356.1506,283.3017)"/>
    <path fill="none" stroke="#000000" d="M20.0001839,50.94349874L-20.0001839,50.94349874" stroke-width="1.6" stroke-linecap="round" stroke-linejoin="round" style="-webkit-tap-highlight-color: rgba(0, 0, 0, 0); stroke-linecap: round; stroke-linejoin: round;" transform="matrix(1,0,0,1,356.1506,283.3017)"/>
    <path fill="none" stroke="#000000" d="M-32.35908543,12.90193682L-20.0001839,50.94349874" stroke-width="1.6" stroke-linecap="round" stroke-linejoin="round" style="-webkit-tap-highlight-color: rgba(0, 0, 0, 0); stroke-linecap: round; stroke-linejoin: round;" transform="matrix(1,0,0,1,356.1506,283.3017)"/>
    <text x="120.852" y="-82.02799999999999" text-anchor="middle" font="30px &quot;Arial&quot;" stroke="none" fill="#000000" style="-webkit-tap-highlight-color: rgba(0, 0, 0, 0); text-anchor: middle; font: 24px Arial;" font-size="24px" transform="matrix(1,0,0,1,356.1506,283.3017)">
      <tspan dy="8.495437500000008" style="-webkit-tap-highlight-color: rgba(0, 0, 0, 0);">Chiral</tspan>
    </text>
  </g>
</svg>
