<?xml version="1.0"?>
<svg xmlns="http://www.w3.org/2000/svg" height="160.00054053999997" version="1.1" width="207.84555065999996" style="overflow: hidden; position: relative;" viewBox="0 0 227 180">
  <g transform="translate(-245, -171)">
    <defs style="-webkit-tap-highlight-color: rgba(0, 0, 0, 0);"/>
    <text x="-20.00006756695501" y="-34.64254127658025" text-anchor="middle" font="30px &quot;Arial&quot;" stroke="none" fill="#000000" style="-webkit-tap-highlight-color: rgba(0, 0, 0, 0); text-anchor: middle; font: 24px Arial;" font-size="24px" transform="matrix(1,0,0,1,359,261)">
      <tspan dy="8.505896223419747" style="-webkit-tap-highlight-color: rgba(0, 0, 0, 0);">O</tspan>
    </text>
    <text x="0" y="0" text-anchor="middle" font="30px &quot;Arial&quot;" stroke="none" fill="#000000" style="-webkit-tap-highlight-color: rgba(0, 0, 0, 0); text-anchor: middle; font: 24px Arial;" font-size="24px" transform="matrix(1,0,0,1,359,261)">
      <tspan dy="8.5" style="-webkit-tap-highlight-color: rgba(0, 0, 0, 0);">P</tspan>
    </text>
    <text x="20.00006756695501" y="34.64254127658025" text-anchor="middle" font="30px &quot;Arial&quot;" stroke="none" fill="#000000" style="-webkit-tap-highlight-color: rgba(0, 0, 0, 0); text-anchor: middle; font: 24px Arial;" font-size="24px" transform="matrix(1,0,0,1,359,261)">
      <tspan dy="8.494103776580253" style="-webkit-tap-highlight-color: rgba(0, 0, 0, 0);">Cl</tspan>
    </text>
    <path fill="none" stroke="#000000" d="M-13.48285815,-16.68707469L-12.28064373,-14.60469359M-7.70929679,-20.02030641L-6.50708237,-17.93792531" stroke-width="1.6" stroke-linecap="round" stroke-linejoin="round" transform="matrix(1,0,0,1,359,261)" style="-webkit-tap-highlight-color: rgba(0, 0, 0, 0); stroke-linecap: round; stroke-linejoin: round;"/>
    <path fill="none" stroke="#000000" d="M-10.78693445,6.22758637L-34.64254128,20.00006757" stroke-width="1.6" stroke-linecap="round" stroke-linejoin="round" transform="matrix(1,0,0,1,359,261)" style="-webkit-tap-highlight-color: rgba(0, 0, 0, 0); stroke-linecap: round; stroke-linejoin: round;"/>
    <path fill="none" stroke="#000000" d="M-41.30920794,23.84887822L-41.30920794,56.15139205M-34.64254128,20.00006757L-34.64254128,60.0002027" stroke-width="1.6" stroke-linecap="round" stroke-linejoin="round" transform="matrix(1,0,0,1,359,261)" style="-webkit-tap-highlight-color: rgba(0, 0, 0, 0); stroke-linecap: round; stroke-linejoin: round;"/>
    <path fill="none" stroke="#000000" d="M-34.64254128,60.0002027L-69.28023405,80.00027027" stroke-width="1.6" stroke-linecap="round" stroke-linejoin="round" transform="matrix(1,0,0,1,359,261)" style="-webkit-tap-highlight-color: rgba(0, 0, 0, 0); stroke-linecap: round; stroke-linejoin: round;"/>
    <path fill="none" stroke="#000000" d="M-69.28046734,72.30221022L-97.25610866,56.15112268M-69.28023405,80.00027027L-103.92277533,60.0002027" stroke-width="1.6" stroke-linecap="round" stroke-linejoin="round" transform="matrix(1,0,0,1,359,261)" style="-webkit-tap-highlight-color: rgba(0, 0, 0, 0); stroke-linecap: round; stroke-linejoin: round;"/>
    <path fill="none" stroke="#000000" d="M-103.92277533,60.0002027L-103.92277533,20.00006757" stroke-width="1.6" stroke-linecap="round" stroke-linejoin="round" transform="matrix(1,0,0,1,359,261)" style="-webkit-tap-highlight-color: rgba(0, 0, 0, 0); stroke-linecap: round; stroke-linejoin: round;"/>
    <path fill="none" stroke="#000000" d="M-97.25610866,23.84914759L-69.28046734,7.69806005M-103.92277533,20.00006757L-69.28023405,0" stroke-width="1.6" stroke-linecap="round" stroke-linejoin="round" transform="matrix(1,0,0,1,359,261)" style="-webkit-tap-highlight-color: rgba(0, 0, 0, 0); stroke-linecap: round; stroke-linejoin: round;"/>
    <path fill="none" stroke="#000000" d="M-34.64254128,20.00006757L-69.28023405,0" stroke-width="1.6" stroke-linecap="round" stroke-linejoin="round" transform="matrix(1,0,0,1,359,261)" style="-webkit-tap-highlight-color: rgba(0, 0, 0, 0); stroke-linecap: round; stroke-linejoin: round;"/>
    <path fill="none" stroke="#000000" d="M10.78693445,-6.22758637L34.64254128,-20.00006757" stroke-width="1.6" stroke-linecap="round" stroke-linejoin="round" transform="matrix(1,0,0,1,359,261)" style="-webkit-tap-highlight-color: rgba(0, 0, 0, 0); stroke-linecap: round; stroke-linejoin: round;"/>
    <path fill="none" stroke="#000000" d="M41.30920794,-23.84887822L41.30920794,-56.15139205M34.64254128,-20.00006757L34.64254128,-60.0002027" stroke-width="1.6" stroke-linecap="round" stroke-linejoin="round" transform="matrix(1,0,0,1,359,261)" style="-webkit-tap-highlight-color: rgba(0, 0, 0, 0); stroke-linecap: round; stroke-linejoin: round;"/>
    <path fill="none" stroke="#000000" d="M34.64254128,-60.0002027L69.28023405,-80.00027027" stroke-width="1.6" stroke-linecap="round" stroke-linejoin="round" transform="matrix(1,0,0,1,359,261)" style="-webkit-tap-highlight-color: rgba(0, 0, 0, 0); stroke-linecap: round; stroke-linejoin: round;"/>
    <path fill="none" stroke="#000000" d="M69.28046734,-72.30221022L97.25610866,-56.15112268M69.28023405,-80.00027027L103.92277533,-60.0002027" stroke-width="1.6" stroke-linecap="round" stroke-linejoin="round" transform="matrix(1,0,0,1,359,261)" style="-webkit-tap-highlight-color: rgba(0, 0, 0, 0); stroke-linecap: round; stroke-linejoin: round;"/>
    <path fill="none" stroke="#000000" d="M103.92277533,-60.0002027L103.92277533,-20.00006757" stroke-width="1.6" stroke-linecap="round" stroke-linejoin="round" transform="matrix(1,0,0,1,359,261)" style="-webkit-tap-highlight-color: rgba(0, 0, 0, 0); stroke-linecap: round; stroke-linejoin: round;"/>
    <path fill="none" stroke="#000000" d="M97.25610866,-23.84914759L69.28046734,-7.69806005M103.92277533,-20.00006757L69.28023405,0" stroke-width="1.6" stroke-linecap="round" stroke-linejoin="round" transform="matrix(1,0,0,1,359,261)" style="-webkit-tap-highlight-color: rgba(0, 0, 0, 0); stroke-linecap: round; stroke-linejoin: round;"/>
    <path fill="none" stroke="#000000" d="M34.64254128,-20.00006757L69.28023405,0" stroke-width="1.6" stroke-linecap="round" stroke-linejoin="round" transform="matrix(1,0,0,1,359,261)" style="-webkit-tap-highlight-color: rgba(0, 0, 0, 0); stroke-linecap: round; stroke-linejoin: round;"/>
    <path fill="none" stroke="#000000" d="M9.39386305,16.27130945L10.59607747,18.35369055" stroke-width="1.6" stroke-linecap="round" stroke-linejoin="round" transform="matrix(1,0,0,1,359,261)" style="-webkit-tap-highlight-color: rgba(0, 0, 0, 0); stroke-linecap: round; stroke-linejoin: round;"/>
  </g>
</svg>
