<?xml version="1.0"?>
<svg xmlns="http://www.w3.org/2000/svg" height="333.13352542999996" version="1.1" width="637.36153243" style="overflow: hidden; position: relative;" viewBox="0 0 657 353">
  <g transform="translate(-99, -91)">
    <defs style="-webkit-tap-highlight-color: rgba(0, 0, 0, 0);"/>
    <text x="-72.76014032535433" y="-9.2054638993997" text-anchor="middle" font="30px &quot;Arial&quot;" stroke="none" fill="#000000" style="-webkit-tap-highlight-color: rgba(0, 0, 0, 0); text-anchor: middle; font: 24px Arial;" font-size="24px" transform="matrix(1,0,0,1,359,274.3986)">
      <tspan dy="8.5054736006003" style="-webkit-tap-highlight-color: rgba(0, 0, 0, 0);">N</tspan>
    </text>
    <text x="-72.76014032535433" y="-9.2054638993997" text-anchor="middle" font="30px &quot;Arial&quot;" stroke="none" fill="#000000" style="-webkit-tap-highlight-color: rgba(0, 0, 0, 0); text-anchor: middle; font: 24px Arial;" font-size="24px" transform="matrix(1,0,0,1,377.1281,274.3986)">
      <tspan dy="8.5054736006003" style="-webkit-tap-highlight-color: rgba(0, 0, 0, 0);">H</tspan>
    </text>
    <text x="-104.80879241956067" y="46.305836401623004" text-anchor="middle" font="30px &quot;Arial&quot;" stroke="none" fill="#000000" style="-webkit-tap-highlight-color: rgba(0, 0, 0, 0); text-anchor: middle; font: 24px Arial;" font-size="24px" transform="matrix(1,0,0,1,359,274.3986)">
      <tspan dy="8.501148901623004" style="-webkit-tap-highlight-color: rgba(0, 0, 0, 0);">N</tspan>
    </text>
    <text x="0" y="30.19507407377429" text-anchor="middle" font="30px &quot;Arial&quot;" stroke="none" fill="#000000" style="-webkit-tap-highlight-color: rgba(0, 0, 0, 0); text-anchor: middle; font: 24px Arial;" font-size="24px" transform="matrix(1,0,0,1,359,274.3986)">
      <tspan dy="8.49976157377429" style="-webkit-tap-highlight-color: rgba(0, 0, 0, 0);">N</tspan>
    </text>
    <text x="104.80879241956067" y="46.305836401623004" text-anchor="middle" font="30px &quot;Arial&quot;" stroke="none" fill="#000000" style="-webkit-tap-highlight-color: rgba(0, 0, 0, 0); text-anchor: middle; font: 24px Arial;" font-size="24px" transform="matrix(1,0,0,1,359,274.3986)">
      <tspan dy="8.501148901623004" style="-webkit-tap-highlight-color: rgba(0, 0, 0, 0);">N</tspan>
    </text>
    <text x="104.80879241956067" y="46.305836401623004" text-anchor="middle" font="30px &quot;Arial&quot;" stroke="none" fill="#000000" style="-webkit-tap-highlight-color: rgba(0, 0, 0, 0); text-anchor: middle; font: 24px Arial;" font-size="24px" transform="matrix(1,0,0,1,377.1438,274.3986)">
      <tspan dy="8.501148901623004" style="-webkit-tap-highlight-color: rgba(0, 0, 0, 0);">H</tspan>
    </text>
    <text x="72.76014032535433" y="-9.2054638993997" text-anchor="middle" font="30px &quot;Arial&quot;" stroke="none" fill="#000000" style="-webkit-tap-highlight-color: rgba(0, 0, 0, 0); text-anchor: middle; font: 24px Arial;" font-size="24px" transform="matrix(1,0,0,1,359,274.3986)">
      <tspan dy="8.5054736006003" style="-webkit-tap-highlight-color: rgba(0, 0, 0, 0);">N</tspan>
    </text>
    <path fill="#000000" stroke="#000000" d="M-68.61600087,30.19507407L-36.64390859,54.04473994L-31.97689429,45.96203688Z" stroke-width="1.6" stroke-linecap="round" stroke-linejoin="round" style="-webkit-tap-highlight-color: rgba(0, 0, 0, 0); stroke-linecap: round; stroke-linejoin: round;" transform="matrix(1,0,0,1,359,274.3986)"/>
    <path fill="none" stroke="#000000" d="M-68.61600087,30.19507407L-71.00359518,7.49494507" stroke-width="1.6" stroke-linecap="round" stroke-linejoin="round" style="-webkit-tap-highlight-color: rgba(0, 0, 0, 0); stroke-linecap: round; stroke-linejoin: round;" transform="matrix(1,0,0,1,359,274.3986)"/>
    <path fill="none" stroke="#000000" d="M-84.5519567,-11.71171809L-111.50760418,-17.44092065" stroke-width="1.6" stroke-linecap="round" stroke-linejoin="round" style="-webkit-tap-highlight-color: rgba(0, 0, 0, 0); stroke-linecap: round; stroke-linejoin: round;" transform="matrix(1,0,0,1,359,274.3986)"/>
    <path fill="none" stroke="#000000" d="M-111.32224997,-17.52345331L-111.69295838,-17.35838798M-112.42398865,-20.99538209L-113.53611388,-20.50018609M-113.52572734,-24.46731086L-115.37926937,-23.6419842M-114.62746602,-27.93923963L-117.22242487,-26.7837823M-115.7292047,-31.41116841L-119.06558036,-29.92558041M-116.83094338,-34.88309718L-120.90873586,-33.06737852M-117.93268206,-38.35502595L-122.75189136,-36.20917662M-119.03442074,-41.82695473L-124.59504685,-39.35097473M-120.13615942,-45.2988835L-126.43820235,-42.49277284M-121.2378981,-48.77081227L-128.28135784,-45.63457094M-122.33963678,-52.24274105L-130.12451334,-48.77636905M-123.44137546,-55.71466982L-131.96766883,-51.91816716" stroke-width="1.6" stroke-linecap="round" stroke-linejoin="round" style="-webkit-tap-highlight-color: rgba(0, 0, 0, 0); stroke-linecap: round; stroke-linejoin: round;" transform="matrix(1,0,0,1,359,274.3986)"/>
    <path fill="none" stroke="#000000" d="M-127.62316852,-53.6337122L-104.33819489,-85.6823643M-130.75432449,-60.66602109L-111.9938386,-86.48732091" stroke-width="1.6" stroke-linecap="round" stroke-linejoin="round" style="-webkit-tap-highlight-color: rgba(0, 0, 0, 0); stroke-linecap: round; stroke-linejoin: round;" transform="matrix(1,0,0,1,359,274.3986)"/>
    <path fill="none" stroke="#000000" d="M-104.33819489,-85.6823643L-120.44895722,-121.87515585" stroke-width="1.6" stroke-linecap="round" stroke-linejoin="round" style="-webkit-tap-highlight-color: rgba(0, 0, 0, 0); stroke-linecap: round; stroke-linejoin: round;" transform="matrix(1,0,0,1,359,274.3986)"/>
    <path fill="none" stroke="#000000" d="M-120.44895722,-121.87515585L-159.84949519,-126.0144933M-124.97398439,-115.64718942L-156.71833922,-118.98218441" stroke-width="1.6" stroke-linecap="round" stroke-linejoin="round" style="-webkit-tap-highlight-color: rgba(0, 0, 0, 0); stroke-linecap: round; stroke-linejoin: round;" transform="matrix(1,0,0,1,359,274.3986)"/>
    <path fill="none" stroke="#000000" d="M-159.84949519,-126.0144933L-183.13446882,-93.9658412" stroke-width="1.6" stroke-linecap="round" stroke-linejoin="round" style="-webkit-tap-highlight-color: rgba(0, 0, 0, 0); stroke-linecap: round; stroke-linejoin: round;" transform="matrix(1,0,0,1,359,274.3986)"/>
    <path fill="none" stroke="#000000" d="M-183.13446882,-93.9658412L-167.02370649,-57.77304965M-175.47882512,-93.16088459L-162.49867932,-64.00101608" stroke-width="1.6" stroke-linecap="round" stroke-linejoin="round" style="-webkit-tap-highlight-color: rgba(0, 0, 0, 0); stroke-linecap: round; stroke-linejoin: round;" transform="matrix(1,0,0,1,359,274.3986)"/>
    <path fill="none" stroke="#000000" d="M-127.62316852,-53.6337122L-167.02370649,-57.77304965" stroke-width="1.6" stroke-linecap="round" stroke-linejoin="round" style="-webkit-tap-highlight-color: rgba(0, 0, 0, 0); stroke-linecap: round; stroke-linejoin: round;" transform="matrix(1,0,0,1,359,274.3986)"/>
    <path fill="none" stroke="#000000" d="M-111.50760418,-17.44092065L-131.31591851,16.86467878" stroke-width="1.6" stroke-linecap="round" stroke-linejoin="round" style="-webkit-tap-highlight-color: rgba(0, 0, 0, 0); stroke-linecap: round; stroke-linejoin: round;" transform="matrix(1,0,0,1,359,274.3986)"/>
    <path fill="#000000" stroke="#000000" d="M-131.31591851,16.86467878L-171.20460271,16.36775251L-170.22831027,25.64988396Z" stroke-width="1.6" stroke-linecap="round" stroke-linejoin="round" style="-webkit-tap-highlight-color: rgba(0, 0, 0, 0); stroke-linecap: round; stroke-linejoin: round;" transform="matrix(1,0,0,1,359,274.3986)"/>
    <path fill="none" stroke="#000000" d="M-170.71645649,21.00881824L-194.00623213,-11.04463587M-178.37243794,21.81348557L-197.13692155,-4.01186042" stroke-width="1.6" stroke-linecap="round" stroke-linejoin="round" style="-webkit-tap-highlight-color: rgba(0, 0, 0, 0); stroke-linecap: round; stroke-linejoin: round;" transform="matrix(1,0,0,1,359,274.3986)"/>
    <path fill="none" stroke="#000000" d="M-194.00623213,-11.04463587L-233.40196809,-6.90049641" stroke-width="1.6" stroke-linecap="round" stroke-linejoin="round" style="-webkit-tap-highlight-color: rgba(0, 0, 0, 0); stroke-linecap: round; stroke-linejoin: round;" transform="matrix(1,0,0,1,359,274.3986)"/>
    <path fill="none" stroke="#000000" d="M-233.40196809,-6.90049641L-249.51753243,29.29229514M-228.87718954,-0.67301946L-241.86159946,28.48773667" stroke-width="1.6" stroke-linecap="round" stroke-linejoin="round" style="-webkit-tap-highlight-color: rgba(0, 0, 0, 0); stroke-linecap: round; stroke-linejoin: round;" transform="matrix(1,0,0,1,359,274.3986)"/>
    <path fill="none" stroke="#000000" d="M-249.51753243,29.29229514L-226.2325588,61.34094724" stroke-width="1.6" stroke-linecap="round" stroke-linejoin="round" style="-webkit-tap-highlight-color: rgba(0, 0, 0, 0); stroke-linecap: round; stroke-linejoin: round;" transform="matrix(1,0,0,1,359,274.3986)"/>
    <path fill="none" stroke="#000000" d="M-226.2325588,61.34094724L-186.83202083,57.20160979M-223.10140284,54.30863835L-191.35655854,50.97359194" stroke-width="1.6" stroke-linecap="round" stroke-linejoin="round" style="-webkit-tap-highlight-color: rgba(0, 0, 0, 0); stroke-linecap: round; stroke-linejoin: round;" transform="matrix(1,0,0,1,359,274.3986)"/>
    <path fill="none" stroke="#000000" d="M-170.71645649,21.00881824L-186.83202083,57.20160979" stroke-width="1.6" stroke-linecap="round" stroke-linejoin="round" style="-webkit-tap-highlight-color: rgba(0, 0, 0, 0); stroke-linecap: round; stroke-linejoin: round;" transform="matrix(1,0,0,1,359,274.3986)"/>
    <path fill="none" stroke="#000000" d="M-131.31591851,16.86467878L-115.62551214,34.29183122" stroke-width="1.6" stroke-linecap="round" stroke-linejoin="round" style="-webkit-tap-highlight-color: rgba(0, 0, 0, 0); stroke-linecap: round; stroke-linejoin: round;" transform="matrix(1,0,0,1,359,274.3986)"/>
    <path fill="none" stroke="#000000" d="M-68.61600087,30.19507407L-93.2171803,41.14597722" stroke-width="1.6" stroke-linecap="round" stroke-linejoin="round" style="-webkit-tap-highlight-color: rgba(0, 0, 0, 0); stroke-linecap: round; stroke-linejoin: round;" transform="matrix(1,0,0,1,359,274.3986)"/>
    <path fill="none" stroke="#000000" d="M-108.34514851,62.94256813L-115.5172872,96.68378203" stroke-width="1.6" stroke-linecap="round" stroke-linejoin="round" style="-webkit-tap-highlight-color: rgba(0, 0, 0, 0); stroke-linecap: round; stroke-linejoin: round;" transform="matrix(1,0,0,1,359,274.3986)"/>
    <path fill="none" stroke="#000000" d="M-115.5172872,96.68378203L-153.19390157,108.92411979" stroke-width="1.6" stroke-linecap="round" stroke-linejoin="round" style="-webkit-tap-highlight-color: rgba(0, 0, 0, 0); stroke-linecap: round; stroke-linejoin: round;" transform="matrix(1,0,0,1,359,274.3986)"/>
    <path fill="none" stroke="#000000" d="M-160.51543126,111.30284572L-167.15462932,142.52564778M-153.19390157,108.92411979L-161.43416034,147.67638565" stroke-width="1.6" stroke-linecap="round" stroke-linejoin="round" style="-webkit-tap-highlight-color: rgba(0, 0, 0, 0); stroke-linecap: round; stroke-linejoin: round;" transform="matrix(1,0,0,1,359,274.3986)"/>
    <path fill="none" stroke="#000000" d="M-161.43416034,147.67638565L-199.11077471,159.92152543" stroke-width="1.6" stroke-linecap="round" stroke-linejoin="round" style="-webkit-tap-highlight-color: rgba(0, 0, 0, 0); stroke-linecap: round; stroke-linejoin: round;" transform="matrix(1,0,0,1,359,274.3986)"/>
    <path fill="none" stroke="#000000" d="M-197.51029158,152.39143146L-221.23048593,131.03126298M-199.11077471,159.92152543L-228.55193234,133.40959732" stroke-width="1.6" stroke-linecap="round" stroke-linejoin="round" style="-webkit-tap-highlight-color: rgba(0, 0, 0, 0); stroke-linecap: round; stroke-linejoin: round;" transform="matrix(1,0,0,1,359,274.3986)"/>
    <path fill="none" stroke="#000000" d="M-228.55193234,133.40959732L-220.31167357,94.65733145" stroke-width="1.6" stroke-linecap="round" stroke-linejoin="round" style="-webkit-tap-highlight-color: rgba(0, 0, 0, 0); stroke-linecap: round; stroke-linejoin: round;" transform="matrix(1,0,0,1,359,274.3986)"/>
    <path fill="none" stroke="#000000" d="M-214.59131116,99.80857045L-184.23554234,89.94662109M-220.31167357,94.65733145L-182.6350592,82.41699369" stroke-width="1.6" stroke-linecap="round" stroke-linejoin="round" style="-webkit-tap-highlight-color: rgba(0, 0, 0, 0); stroke-linecap: round; stroke-linejoin: round;" transform="matrix(1,0,0,1,359,274.3986)"/>
    <path fill="none" stroke="#000000" d="M-153.19390157,108.92411979L-182.6350592,82.41699369" stroke-width="1.6" stroke-linecap="round" stroke-linejoin="round" style="-webkit-tap-highlight-color: rgba(0, 0, 0, 0); stroke-linecap: round; stroke-linejoin: round;" transform="matrix(1,0,0,1,359,274.3986)"/>
    <path fill="none" stroke="#000000" d="M-27.64373477,53.85246843L-8.10995274,42.57509252M-34.31040144,50.00338841L-11.44318445,36.80153116" stroke-width="1.6" stroke-linecap="round" stroke-linejoin="round" style="-webkit-tap-highlight-color: rgba(0, 0, 0, 0); stroke-linecap: round; stroke-linejoin: round;" transform="matrix(1,0,0,1,359,274.3986)"/>
    <path fill="none" stroke="#000000" d="M11.44318445,36.80153116L34.31040144,50.00338841" stroke-width="1.6" stroke-linecap="round" stroke-linejoin="round" style="-webkit-tap-highlight-color: rgba(0, 0, 0, 0); stroke-linecap: round; stroke-linejoin: round;" transform="matrix(1,0,0,1,359,274.3986)"/>
    <path fill="#000000" stroke="#000000" d="M68.61600087,30.19507407L31.97689429,45.96203688L36.64390859,54.04473994Z" stroke-width="1.6" stroke-linecap="round" stroke-linejoin="round" style="-webkit-tap-highlight-color: rgba(0, 0, 0, 0); stroke-linecap: round; stroke-linejoin: round;" transform="matrix(1,0,0,1,359,274.3986)"/>
    <path fill="none" stroke="#000000" d="M68.61600087,30.19507407L93.2171803,41.14597722" stroke-width="1.6" stroke-linecap="round" stroke-linejoin="round" style="-webkit-tap-highlight-color: rgba(0, 0, 0, 0); stroke-linecap: round; stroke-linejoin: round;" transform="matrix(1,0,0,1,359,274.3986)"/>
    <path fill="none" stroke="#000000" d="M119.11262193,30.41873881L131.31591851,16.86467878" stroke-width="1.6" stroke-linecap="round" stroke-linejoin="round" style="-webkit-tap-highlight-color: rgba(0, 0, 0, 0); stroke-linecap: round; stroke-linejoin: round;" transform="matrix(1,0,0,1,359,274.3986)"/>
    <path fill="none" stroke="#000000" d="M131.29469477,17.06646424L131.33714226,16.66289331M134.85219643,17.84867699L134.97953892,16.6379642M138.4096981,18.63088975L138.62193558,16.61303508M141.96719976,19.4131025L142.26433224,16.58810597M145.52470143,20.19531525L145.9067289,16.56317686M149.08220309,20.977528L149.54912556,16.53824774M152.63970476,21.75974075L153.19152222,16.51331863M156.19720642,22.54195351L156.83391888,16.48838952M159.75470809,23.32416626L160.47631554,16.46346041M163.31220976,24.10637901L164.1187122,16.43853129M166.86971142,24.88859176L167.76110886,16.41360218M170.42721309,25.67080451L171.40350552,16.38867307" stroke-width="1.6" stroke-linecap="round" stroke-linejoin="round" style="-webkit-tap-highlight-color: rgba(0, 0, 0, 0); stroke-linecap: round; stroke-linejoin: round;" transform="matrix(1,0,0,1,359,274.3986)"/>
    <path fill="none" stroke="#000000" d="M178.37243794,21.81348557L197.13692155,-4.01186042M170.71645649,21.00881824L194.00623213,-11.04463587" stroke-width="1.6" stroke-linecap="round" stroke-linejoin="round" style="-webkit-tap-highlight-color: rgba(0, 0, 0, 0); stroke-linecap: round; stroke-linejoin: round;" transform="matrix(1,0,0,1,359,274.3986)"/>
    <path fill="none" stroke="#000000" d="M194.00623213,-11.04463587L233.40196809,-6.90049641" stroke-width="1.6" stroke-linecap="round" stroke-linejoin="round" style="-webkit-tap-highlight-color: rgba(0, 0, 0, 0); stroke-linecap: round; stroke-linejoin: round;" transform="matrix(1,0,0,1,359,274.3986)"/>
    <path fill="none" stroke="#000000" d="M228.87718954,-0.67301946L241.86159946,28.48773667M233.40196809,-6.90049641L249.51753243,29.29229514" stroke-width="1.6" stroke-linecap="round" stroke-linejoin="round" style="-webkit-tap-highlight-color: rgba(0, 0, 0, 0); stroke-linecap: round; stroke-linejoin: round;" transform="matrix(1,0,0,1,359,274.3986)"/>
    <path fill="none" stroke="#000000" d="M249.51753243,29.29229514L226.2325588,61.34094724" stroke-width="1.6" stroke-linecap="round" stroke-linejoin="round" style="-webkit-tap-highlight-color: rgba(0, 0, 0, 0); stroke-linecap: round; stroke-linejoin: round;" transform="matrix(1,0,0,1,359,274.3986)"/>
    <path fill="none" stroke="#000000" d="M223.10140284,54.30863835L191.35655854,50.97359194M226.2325588,61.34094724L186.83202083,57.20160979" stroke-width="1.6" stroke-linecap="round" stroke-linejoin="round" style="-webkit-tap-highlight-color: rgba(0, 0, 0, 0); stroke-linecap: round; stroke-linejoin: round;" transform="matrix(1,0,0,1,359,274.3986)"/>
    <path fill="none" stroke="#000000" d="M170.71645649,21.00881824L186.83202083,57.20160979" stroke-width="1.6" stroke-linecap="round" stroke-linejoin="round" style="-webkit-tap-highlight-color: rgba(0, 0, 0, 0); stroke-linecap: round; stroke-linejoin: round;" transform="matrix(1,0,0,1,359,274.3986)"/>
    <path fill="none" stroke="#000000" d="M131.31591851,16.86467878L111.50760418,-17.44092065" stroke-width="1.6" stroke-linecap="round" stroke-linejoin="round" style="-webkit-tap-highlight-color: rgba(0, 0, 0, 0); stroke-linecap: round; stroke-linejoin: round;" transform="matrix(1,0,0,1,359,274.3986)"/>
    <path fill="#000000" stroke="#000000" d="M111.50760418,-17.44092065L131.88631521,-51.73546087L123.36002184,-55.53196353Z" stroke-width="1.6" stroke-linecap="round" stroke-linejoin="round" style="-webkit-tap-highlight-color: rgba(0, 0, 0, 0); stroke-linecap: round; stroke-linejoin: round;" transform="matrix(1,0,0,1,359,274.3986)"/>
    <path fill="none" stroke="#000000" d="M130.75432449,-60.66602109L111.9938386,-86.48732091M127.62316852,-53.6337122L104.33819489,-85.6823643" stroke-width="1.6" stroke-linecap="round" stroke-linejoin="round" style="-webkit-tap-highlight-color: rgba(0, 0, 0, 0); stroke-linecap: round; stroke-linejoin: round;" transform="matrix(1,0,0,1,359,274.3986)"/>
    <path fill="none" stroke="#000000" d="M104.33819489,-85.6823643L120.44895722,-121.87515585" stroke-width="1.6" stroke-linecap="round" stroke-linejoin="round" style="-webkit-tap-highlight-color: rgba(0, 0, 0, 0); stroke-linecap: round; stroke-linejoin: round;" transform="matrix(1,0,0,1,359,274.3986)"/>
    <path fill="none" stroke="#000000" d="M124.97398439,-115.64718942L156.71833922,-118.98218441M120.44895722,-121.87515585L159.84949519,-126.0144933" stroke-width="1.6" stroke-linecap="round" stroke-linejoin="round" style="-webkit-tap-highlight-color: rgba(0, 0, 0, 0); stroke-linecap: round; stroke-linejoin: round;" transform="matrix(1,0,0,1,359,274.3986)"/>
    <path fill="none" stroke="#000000" d="M159.84949519,-126.0144933L183.13446882,-93.9658412" stroke-width="1.6" stroke-linecap="round" stroke-linejoin="round" style="-webkit-tap-highlight-color: rgba(0, 0, 0, 0); stroke-linecap: round; stroke-linejoin: round;" transform="matrix(1,0,0,1,359,274.3986)"/>
    <path fill="none" stroke="#000000" d="M175.47882512,-93.16088459L162.49867932,-64.00101608M183.13446882,-93.9658412L167.02370649,-57.77304965" stroke-width="1.6" stroke-linecap="round" stroke-linejoin="round" style="-webkit-tap-highlight-color: rgba(0, 0, 0, 0); stroke-linecap: round; stroke-linejoin: round;" transform="matrix(1,0,0,1,359,274.3986)"/>
    <path fill="none" stroke="#000000" d="M127.62316852,-53.6337122L167.02370649,-57.77304965" stroke-width="1.6" stroke-linecap="round" stroke-linejoin="round" style="-webkit-tap-highlight-color: rgba(0, 0, 0, 0); stroke-linecap: round; stroke-linejoin: round;" transform="matrix(1,0,0,1,359,274.3986)"/>
    <path fill="none" stroke="#000000" d="M111.50760418,-17.44092065L84.5519567,-11.71171809" stroke-width="1.6" stroke-linecap="round" stroke-linejoin="round" style="-webkit-tap-highlight-color: rgba(0, 0, 0, 0); stroke-linecap: round; stroke-linejoin: round;" transform="matrix(1,0,0,1,359,274.3986)"/>
    <path fill="none" stroke="#000000" d="M68.61600087,30.19507407L71.00359518,7.49494507" stroke-width="1.6" stroke-linecap="round" stroke-linejoin="round" style="-webkit-tap-highlight-color: rgba(0, 0, 0, 0); stroke-linecap: round; stroke-linejoin: round;" transform="matrix(1,0,0,1,359,274.3986)"/>
    <path fill="none" stroke="#000000" d="M61.71565388,-19.14965897L34.48807602,-43.66472782" stroke-width="1.6" stroke-linecap="round" stroke-linejoin="round" style="-webkit-tap-highlight-color: rgba(0, 0, 0, 0); stroke-linecap: round; stroke-linejoin: round;" transform="matrix(1,0,0,1,359,274.3986)"/>
    <path fill="none" stroke="#000000" d="M34.48807602,-43.66472782L42.72353277,-82.41699369" stroke-width="1.6" stroke-linecap="round" stroke-linejoin="round" style="-webkit-tap-highlight-color: rgba(0, 0, 0, 0); stroke-linecap: round; stroke-linejoin: round;" transform="matrix(1,0,0,1,359,274.3986)"/>
    <path fill="none" stroke="#000000" d="M42.72353277,-82.41699369L80.40014714,-94.65733145M44.32401591,-89.94662109L74.67928358,-99.80840764" stroke-width="1.6" stroke-linecap="round" stroke-linejoin="round" style="-webkit-tap-highlight-color: rgba(0, 0, 0, 0); stroke-linecap: round; stroke-linejoin: round;" transform="matrix(1,0,0,1,359,274.3986)"/>
    <path fill="none" stroke="#000000" d="M80.40014714,-94.65733145L88.63560389,-133.40959732" stroke-width="1.6" stroke-linecap="round" stroke-linejoin="round" style="-webkit-tap-highlight-color: rgba(0, 0, 0, 0); stroke-linecap: round; stroke-linejoin: round;" transform="matrix(1,0,0,1,359,274.3986)"/>
    <path fill="none" stroke="#000000" d="M88.63560389,-133.40959732L59.19444626,-159.92152543M81.31454903,-131.03091039L57.59396314,-152.39143146" stroke-width="1.6" stroke-linecap="round" stroke-linejoin="round" style="-webkit-tap-highlight-color: rgba(0, 0, 0, 0); stroke-linecap: round; stroke-linejoin: round;" transform="matrix(1,0,0,1,359,274.3986)"/>
    <path fill="none" stroke="#000000" d="M59.19444626,-159.92152543L21.51783189,-147.67638565" stroke-width="1.6" stroke-linecap="round" stroke-linejoin="round" style="-webkit-tap-highlight-color: rgba(0, 0, 0, 0); stroke-linecap: round; stroke-linejoin: round;" transform="matrix(1,0,0,1,359,274.3986)"/>
    <path fill="none" stroke="#000000" d="M21.51783189,-147.67638565L13.28237514,-108.92411979M27.23880196,-142.52581064L20.60351322,-111.30319829" stroke-width="1.6" stroke-linecap="round" stroke-linejoin="round" style="-webkit-tap-highlight-color: rgba(0, 0, 0, 0); stroke-linecap: round; stroke-linejoin: round;" transform="matrix(1,0,0,1,359,274.3986)"/>
    <path fill="none" stroke="#000000" d="M42.72353277,-82.41699369L13.28237514,-108.92411979" stroke-width="1.6" stroke-linecap="round" stroke-linejoin="round" style="-webkit-tap-highlight-color: rgba(0, 0, 0, 0); stroke-linecap: round; stroke-linejoin: round;" transform="matrix(1,0,0,1,359,274.3986)"/>
    <path fill="none" stroke="#000000" d="M27.64373477,53.85246843L27.64373477,85.77093707M34.31040144,50.00338841L34.31040144,89.62001709" stroke-width="1.6" stroke-linecap="round" stroke-linejoin="round" style="-webkit-tap-highlight-color: rgba(0, 0, 0, 0); stroke-linecap: round; stroke-linejoin: round;" transform="matrix(1,0,0,1,359,274.3986)"/>
    <path fill="none" stroke="#000000" d="M34.31040144,89.62001709L0,109.42833142" stroke-width="1.6" stroke-linecap="round" stroke-linejoin="round" style="-webkit-tap-highlight-color: rgba(0, 0, 0, 0); stroke-linecap: round; stroke-linejoin: round;" transform="matrix(1,0,0,1,359,274.3986)"/>
    <path fill="none" stroke="#000000" d="M0,101.73040606L-27.64373477,85.77093707M0,109.42833142L-34.31040144,89.62001709" stroke-width="1.6" stroke-linecap="round" stroke-linejoin="round" style="-webkit-tap-highlight-color: rgba(0, 0, 0, 0); stroke-linecap: round; stroke-linejoin: round;" transform="matrix(1,0,0,1,359,274.3986)"/>
    <path fill="none" stroke="#000000" d="M-34.31040144,50.00338841L-34.31040144,89.62001709" stroke-width="1.6" stroke-linecap="round" stroke-linejoin="round" style="-webkit-tap-highlight-color: rgba(0, 0, 0, 0); stroke-linecap: round; stroke-linejoin: round;" transform="matrix(1,0,0,1,359,274.3986)"/>
    <text x="207.84400000000002" y="-173.212" text-anchor="middle" font="30px &quot;Arial&quot;" stroke="none" fill="#000000" style="-webkit-tap-highlight-color: rgba(0, 0, 0, 0); text-anchor: middle; font: 24px Arial;" font-size="24px" transform="matrix(1,0,0,1,359,274.3986)">
      <tspan dy="8.498937500000011" style="-webkit-tap-highlight-color: rgba(0, 0, 0, 0);">Chiral</tspan>
    </text>
  </g>
</svg>
