<?xml version="1.0"?>
<svg xmlns="http://www.w3.org/2000/svg" height="269.29006986" version="1.1" width="402.7974263" style="overflow: hidden; position: relative;" viewBox="0 0 422 289">
  <g transform="translate(-222, -123)">
    <defs style="-webkit-tap-highlight-color: rgba(0, 0, 0, 0);"/>
    <text x="8.949364509523022" y="-77.3521505695716" text-anchor="middle" font="30px &quot;Arial&quot;" stroke="none" fill="#000000" style="-webkit-tap-highlight-color: rgba(0, 0, 0, 0); text-anchor: middle; font: 24px Arial;" font-size="24px" transform="matrix(1,0,0,1,352.6391,277.9192)">
      <tspan dy="8.499411930428394" style="-webkit-tap-highlight-color: rgba(0, 0, 0, 0);">O</tspan>
    </text>
    <text x="-94.72835830621449" y="-61.41050126279916" text-anchor="middle" font="30px &quot;Arial&quot;" stroke="none" fill="#000000" style="-webkit-tap-highlight-color: rgba(0, 0, 0, 0); text-anchor: middle; font: 24px Arial;" font-size="24px" transform="matrix(1,0,0,1,352.6391,277.9192)">
      <tspan dy="8.503561237200842" style="-webkit-tap-highlight-color: rgba(0, 0, 0, 0);">N</tspan>
    </text>
    <text x="-94.72835830621449" y="-61.41050126279916" text-anchor="middle" font="30px &quot;Arial&quot;" stroke="none" fill="#000000" style="-webkit-tap-highlight-color: rgba(0, 0, 0, 0); text-anchor: middle; font: 24px Arial;" font-size="24px" transform="matrix(1,0,0,1,334.5109,277.9192)">
      <tspan dy="8.503561237200842" style="-webkit-tap-highlight-color: rgba(0, 0, 0, 0);">H</tspan>
    </text>
    <text x="-24.9860176858233" y="-18.568506299217354" text-anchor="middle" font="30px &quot;Arial&quot;" stroke="none" fill="#000000" style="-webkit-tap-highlight-color: rgba(0, 0, 0, 0); text-anchor: middle; font: 24px Arial;" font-size="24px" transform="matrix(1,0,0,1,352.6391,277.9192)">
      <tspan dy="8.501806200782646" style="-webkit-tap-highlight-color: rgba(0, 0, 0, 0);">N</tspan>
    </text>
    <text x="-24.9860176858233" y="-18.568506299217354" text-anchor="middle" font="30px &quot;Arial&quot;" stroke="none" fill="#000000" style="-webkit-tap-highlight-color: rgba(0, 0, 0, 0); text-anchor: middle; font: 24px Arial;" font-size="24px" transform="matrix(1,0,0,1,334.4953,277.9192)">
      <tspan dy="8.501806200782646" style="-webkit-tap-highlight-color: rgba(0, 0, 0, 0);">H</tspan>
    </text>
    <text x="53.07391171173074" y="26.501329404792425" text-anchor="middle" font="30px &quot;Arial&quot;" stroke="none" fill="#000000" style="-webkit-tap-highlight-color: rgba(0, 0, 0, 0); text-anchor: middle; font: 24px Arial;" font-size="24px" transform="matrix(1,0,0,1,352.6391,277.9192)">
      <tspan dy="8.493516904792425" style="-webkit-tap-highlight-color: rgba(0, 0, 0, 0);">O</tspan>
    </text>
    <text x="53.07391171173074" y="26.501329404792425" text-anchor="middle" font="30px &quot;Arial&quot;" stroke="none" fill="#000000" style="-webkit-tap-highlight-color: rgba(0, 0, 0, 0); text-anchor: middle; font: 24px Arial;" font-size="24px" transform="matrix(1,0,0,1,371.4391,277.9192)">
      <tspan dy="8.493516904792425" style="-webkit-tap-highlight-color: rgba(0, 0, 0, 0);">H</tspan>
    </text>
    <text x="29.313443942816647" y="-77.3521505695716" text-anchor="middle" font="30px &quot;Arial&quot;" stroke="none" fill="#000000" style="-webkit-tap-highlight-color: rgba(0, 0, 0, 0); text-anchor: middle; font: 24px Arial;" font-size="24px" transform="matrix(1,0,0,1,352.6391,277.9192)">
      <tspan dy="8.499411930428394" style="-webkit-tap-highlight-color: rgba(0, 0, 0, 0);">C</tspan>
    </text>
    <text x="29.313443942816647" y="-77.3521505695716" text-anchor="middle" font="30px &quot;Arial&quot;" stroke="none" fill="#000000" style="-webkit-tap-highlight-color: rgba(0, 0, 0, 0); text-anchor: middle; font: 24px Arial;" font-size="24px" transform="matrix(1,0,0,1,324.2266,277.9192)">
      <tspan dy="8.499411930428394" style="-webkit-tap-highlight-color: rgba(0, 0, 0, 0);">H</tspan>
    </text>
    <text x="29.313443942816647" y="-77.3521505695716" text-anchor="middle" font="30px &quot;Arial&quot;" stroke="none" fill="#000000" style="-webkit-tap-highlight-color: rgba(0, 0, 0, 0); text-anchor: middle; font: 17px Arial;" font-size="17px" transform="matrix(1,0,0,1,338.4328,283.3223)">
      <tspan dy="5.499411930428394" style="-webkit-tap-highlight-color: rgba(0, 0, 0, 0);">3</tspan>
    </text>
    <text x="97.19370872046207" y="-77.3521505695716" text-anchor="middle" font="30px &quot;Arial&quot;" stroke="none" fill="#000000" style="-webkit-tap-highlight-color: rgba(0, 0, 0, 0); text-anchor: middle; font: 24px Arial;" font-size="24px" transform="matrix(1,0,0,1,352.6391,277.9192)">
      <tspan dy="8.499411930428394" style="-webkit-tap-highlight-color: rgba(0, 0, 0, 0);">C</tspan>
    </text>
    <text x="97.19370872046207" y="-77.3521505695716" text-anchor="middle" font="30px &quot;Arial&quot;" stroke="none" fill="#000000" style="-webkit-tap-highlight-color: rgba(0, 0, 0, 0); text-anchor: middle; font: 24px Arial;" font-size="24px" transform="matrix(1,0,0,1,370.7672,277.9192)">
      <tspan dy="8.499411930428394" style="-webkit-tap-highlight-color: rgba(0, 0, 0, 0);">H</tspan>
    </text>
    <text x="97.19370872046207" y="-77.3521505695716" text-anchor="middle" font="30px &quot;Arial&quot;" stroke="none" fill="#000000" style="-webkit-tap-highlight-color: rgba(0, 0, 0, 0); text-anchor: middle; font: 17px Arial;" font-size="17px" transform="matrix(1,0,0,1,384.9578,283.3223)">
      <tspan dy="5.499411930428394" style="-webkit-tap-highlight-color: rgba(0, 0, 0, 0);">3</tspan>
    </text>
    <path fill="none" stroke="#000000" d="M-4.8286283,-73.24572998L-26.6528085,-60.64428214M-1.49504666,-67.47237066L-23.31922687,-54.87092282" stroke-width="1.6" stroke-linecap="round" stroke-linejoin="round" style="-webkit-tap-highlight-color: rgba(0, 0, 0, 0); stroke-linecap: round; stroke-linejoin: round;" transform="matrix(1,0,0,1,352.6391,277.9192)"/>
    <path fill="#000000" stroke="#000000" d="M-58.92615007,-77.35215057L-27.31927989,-53.71610953L-22.65275548,-61.79909543Z" stroke-width="1.6" stroke-linecap="round" stroke-linejoin="round" style="-webkit-tap-highlight-color: rgba(0, 0, 0, 0); stroke-linecap: round; stroke-linejoin: round;" transform="matrix(1,0,0,1,352.6391,277.9192)"/>
    <path fill="none" stroke="#000000" d="M-58.92615007,-77.35215057L-83.13919942,-66.57080606" stroke-width="1.6" stroke-linecap="round" stroke-linejoin="round" style="-webkit-tap-highlight-color: rgba(0, 0, 0, 0); stroke-linecap: round; stroke-linejoin: round;" transform="matrix(1,0,0,1,352.6391,277.9192)"/>
    <path fill="none" stroke="#000000" d="M-109.03435974,-77.30001119L-120.9494263,-90.53393747" stroke-width="1.6" stroke-linecap="round" stroke-linejoin="round" style="-webkit-tap-highlight-color: rgba(0, 0, 0, 0); stroke-linecap: round; stroke-linejoin: round;" transform="matrix(1,0,0,1,352.6391,277.9192)"/>
    <path fill="none" stroke="#000000" d="M-120.9494263,-90.53393747L-101.35487821,-124.47406986" stroke-width="1.6" stroke-linecap="round" stroke-linejoin="round" style="-webkit-tap-highlight-color: rgba(0, 0, 0, 0); stroke-linecap: round; stroke-linejoin: round;" transform="matrix(1,0,0,1,352.6391,277.9192)"/>
    <path fill="none" stroke="#000000" d="M-101.35487821,-124.47406986L-63.02081685,-116.32748804" stroke-width="1.6" stroke-linecap="round" stroke-linejoin="round" style="-webkit-tap-highlight-color: rgba(0, 0, 0, 0); stroke-linecap: round; stroke-linejoin: round;" transform="matrix(1,0,0,1,352.6391,277.9192)"/>
    <path fill="none" stroke="#000000" d="M-58.92615007,-77.35215057L-63.02081685,-116.32748804" stroke-width="1.6" stroke-linecap="round" stroke-linejoin="round" style="-webkit-tap-highlight-color: rgba(0, 0, 0, 0); stroke-linecap: round; stroke-linejoin: round;" transform="matrix(1,0,0,1,352.6391,277.9192)"/>
    <path fill="none" stroke="#000000" d="M-24.98601769,-57.75760248L-24.98601769,-35.278125" stroke-width="1.6" stroke-linecap="round" stroke-linejoin="round" style="-webkit-tap-highlight-color: rgba(0, 0, 0, 0); stroke-linecap: round; stroke-linejoin: round;" transform="matrix(1,0,0,1,352.6391,277.9192)"/>
    <path fill="none" stroke="#000000" d="M-13.54129244,-11.96018788L19.13377932,6.90678131" stroke-width="1.6" stroke-linecap="round" stroke-linejoin="round" style="-webkit-tap-highlight-color: rgba(0, 0, 0, 0); stroke-linecap: round; stroke-linejoin: round;" transform="matrix(1,0,0,1,352.6391,277.9192)"/>
    <path fill="#000000" stroke="#000000" d="M19.13377932,6.90678131L14.46711266,46.09587749L23.80044599,46.09587749Z" stroke-width="1.6" stroke-linecap="round" stroke-linejoin="round" style="-webkit-tap-highlight-color: rgba(0, 0, 0, 0); stroke-linecap: round; stroke-linejoin: round;" transform="matrix(1,0,0,1,352.6391,277.9192)"/>
    <path fill="none" stroke="#000000" d="M19.13377932,46.09587749L53.07391171,65.69042559" stroke-width="1.6" stroke-linecap="round" stroke-linejoin="round" style="-webkit-tap-highlight-color: rgba(0, 0, 0, 0); stroke-linecap: round; stroke-linejoin: round;" transform="matrix(1,0,0,1,352.6391,277.9192)"/>
    <path fill="none" stroke="#000000" d="M53.07391171,65.69042559L53.07391171,104.87952177M59.74057838,69.53923623L59.74057838,101.03071112" stroke-width="1.6" stroke-linecap="round" stroke-linejoin="round" style="-webkit-tap-highlight-color: rgba(0, 0, 0, 0); stroke-linecap: round; stroke-linejoin: round;" transform="matrix(1,0,0,1,352.6391,277.9192)"/>
    <path fill="none" stroke="#000000" d="M53.07391171,104.87952177L87.00929391,124.47406986" stroke-width="1.6" stroke-linecap="round" stroke-linejoin="round" style="-webkit-tap-highlight-color: rgba(0, 0, 0, 0); stroke-linecap: round; stroke-linejoin: round;" transform="matrix(1,0,0,1,352.6391,277.9192)"/>
    <path fill="none" stroke="#000000" d="M87.00929391,124.47406986L120.9494263,104.87952177M87.00952719,116.77600981L114.28275963,101.03044175" stroke-width="1.6" stroke-linecap="round" stroke-linejoin="round" style="-webkit-tap-highlight-color: rgba(0, 0, 0, 0); stroke-linecap: round; stroke-linejoin: round;" transform="matrix(1,0,0,1,352.6391,277.9192)"/>
    <path fill="none" stroke="#000000" d="M120.9494263,104.87952177L120.9494263,65.69042559" stroke-width="1.6" stroke-linecap="round" stroke-linejoin="round" style="-webkit-tap-highlight-color: rgba(0, 0, 0, 0); stroke-linecap: round; stroke-linejoin: round;" transform="matrix(1,0,0,1,352.6391,277.9192)"/>
    <path fill="none" stroke="#000000" d="M120.9494263,65.69042559L87.00929391,46.09587749M114.28275963,69.5395056L87.00952719,53.79393754" stroke-width="1.6" stroke-linecap="round" stroke-linejoin="round" style="-webkit-tap-highlight-color: rgba(0, 0, 0, 0); stroke-linecap: round; stroke-linejoin: round;" transform="matrix(1,0,0,1,352.6391,277.9192)"/>
    <path fill="none" stroke="#000000" d="M53.07391171,65.69042559L87.00929391,46.09587749" stroke-width="1.6" stroke-linecap="round" stroke-linejoin="round" style="-webkit-tap-highlight-color: rgba(0, 0, 0, 0); stroke-linecap: round; stroke-linejoin: round;" transform="matrix(1,0,0,1,352.6391,277.9192)"/>
    <path fill="none" stroke="#000000" d="M19.13377932,46.09587749L40.96306555,33.49324549" stroke-width="1.6" stroke-linecap="round" stroke-linejoin="round" style="-webkit-tap-highlight-color: rgba(0, 0, 0, 0); stroke-linecap: round; stroke-linejoin: round;" transform="matrix(1,0,0,1,352.6391,277.9192)"/>
    <path fill="none" stroke="#000000" d="M19.13377932,46.09587749L-14.80635307,65.69042559" stroke-width="1.6" stroke-linecap="round" stroke-linejoin="round" style="-webkit-tap-highlight-color: rgba(0, 0, 0, 0); stroke-linecap: round; stroke-linejoin: round;" transform="matrix(1,0,0,1,352.6391,277.9192)"/>
    <path fill="none" stroke="#000000" d="M-14.80635307,65.69042559L-48.74648545,46.09587749M-21.47301973,69.5395056L-48.74625217,53.79393754" stroke-width="1.6" stroke-linecap="round" stroke-linejoin="round" style="-webkit-tap-highlight-color: rgba(0, 0, 0, 0); stroke-linecap: round; stroke-linejoin: round;" transform="matrix(1,0,0,1,352.6391,277.9192)"/>
    <path fill="none" stroke="#000000" d="M-48.74648545,46.09587749L-82.68186765,65.69042559" stroke-width="1.6" stroke-linecap="round" stroke-linejoin="round" style="-webkit-tap-highlight-color: rgba(0, 0, 0, 0); stroke-linecap: round; stroke-linejoin: round;" transform="matrix(1,0,0,1,352.6391,277.9192)"/>
    <path fill="none" stroke="#000000" d="M-82.68186765,65.69042559L-82.68186765,104.87952177M-76.01520098,69.53923623L-76.01520098,101.03071112" stroke-width="1.6" stroke-linecap="round" stroke-linejoin="round" style="-webkit-tap-highlight-color: rgba(0, 0, 0, 0); stroke-linecap: round; stroke-linejoin: round;" transform="matrix(1,0,0,1,352.6391,277.9192)"/>
    <path fill="none" stroke="#000000" d="M-82.68186765,104.87952177L-48.74648545,124.47406986" stroke-width="1.6" stroke-linecap="round" stroke-linejoin="round" style="-webkit-tap-highlight-color: rgba(0, 0, 0, 0); stroke-linecap: round; stroke-linejoin: round;" transform="matrix(1,0,0,1,352.6391,277.9192)"/>
    <path fill="none" stroke="#000000" d="M-48.74648545,124.47406986L-14.80635307,104.87952177M-48.74625217,116.77600981L-21.47301973,101.03044175" stroke-width="1.6" stroke-linecap="round" stroke-linejoin="round" style="-webkit-tap-highlight-color: rgba(0, 0, 0, 0); stroke-linecap: round; stroke-linejoin: round;" transform="matrix(1,0,0,1,352.6391,277.9192)"/>
    <path fill="none" stroke="#000000" d="M-14.80635307,65.69042559L-14.80635307,104.87952177" stroke-width="1.6" stroke-linecap="round" stroke-linejoin="round" style="-webkit-tap-highlight-color: rgba(0, 0, 0, 0); stroke-linecap: round; stroke-linejoin: round;" transform="matrix(1,0,0,1,352.6391,277.9192)"/>
    <path fill="none" stroke="#000000" d="M19.13377932,6.90678131L63.25357633,-18.5685063" stroke-width="1.6" stroke-linecap="round" stroke-linejoin="round" style="-webkit-tap-highlight-color: rgba(0, 0, 0, 0); stroke-linecap: round; stroke-linejoin: round;" transform="matrix(1,0,0,1,352.6391,277.9192)"/>
    <path fill="none" stroke="#000000" d="M63.25357633,-18.5685063L63.25357633,-57.75760248" stroke-width="1.6" stroke-linecap="round" stroke-linejoin="round" style="-webkit-tap-highlight-color: rgba(0, 0, 0, 0); stroke-linecap: round; stroke-linejoin: round;" transform="matrix(1,0,0,1,352.6391,277.9192)"/>
    <path fill="none" stroke="#000000" d="M63.25357633,-57.75760248L40.75568445,-70.74623845" stroke-width="1.6" stroke-linecap="round" stroke-linejoin="round" style="-webkit-tap-highlight-color: rgba(0, 0, 0, 0); stroke-linecap: round; stroke-linejoin: round;" transform="matrix(1,0,0,1,352.6391,277.9192)"/>
    <path fill="none" stroke="#000000" d="M63.25357633,-57.75760248L85.75994055,-70.75112976" stroke-width="1.6" stroke-linecap="round" stroke-linejoin="round" style="-webkit-tap-highlight-color: rgba(0, 0, 0, 0); stroke-linecap: round; stroke-linejoin: round;" transform="matrix(1,0,0,1,352.6391,277.9192)"/>
    <text x="101.84799999999998" y="-144.816" text-anchor="middle" font="30px &quot;Arial&quot;" stroke="none" fill="#000000" style="-webkit-tap-highlight-color: rgba(0, 0, 0, 0); text-anchor: middle; font: 24px Arial;" font-size="24px" transform="matrix(1,0,0,1,352.6391,277.9192)">
      <tspan dy="8.504312499999997" style="-webkit-tap-highlight-color: rgba(0, 0, 0, 0);">Chiral</tspan>
    </text>
  </g>
</svg>
