<?xml version="1.0"?>
<svg xmlns="http://www.w3.org/2000/svg" height="385.6597344642945" version="1.1" width="619.3477798407523" style="overflow: hidden; position: relative;" viewBox="0 0 639 405">
  <g transform="translate(-95, -75)">
    <defs style="-webkit-tap-highlight-color: rgba(0, 0, 0, 0);"/>
    <text x="-86.60471136529182" y="70.00329317501306" text-anchor="middle" font="30px &quot;Arial&quot;" stroke="none" fill="#000000" style="-webkit-tap-highlight-color: rgba(0, 0, 0, 0); text-anchor: middle; font: 24px Arial;" font-size="24px" transform="matrix(1,0,0,1,359,265.4156)">
      <tspan dy="8.495480675013056" style="-webkit-tap-highlight-color: rgba(0, 0, 0, 0);">O</tspan>
    </text>
    <text x="-86.60471136529182" y="70.00329317501306" text-anchor="middle" font="30px &quot;Arial&quot;" stroke="none" fill="#000000" style="-webkit-tap-highlight-color: rgba(0, 0, 0, 0); text-anchor: middle; font: 17px Arial;" font-size="17px" transform="matrix(1,0,0,1,374.1438,257.3109)">
      <tspan dy="5.495480675013056" style="-webkit-tap-highlight-color: rgba(0, 0, 0, 0);">&#x2013;</tspan>
    </text>
    <text x="-155.88557133050594" y="70.00329317501306" text-anchor="middle" font="30px &quot;Arial&quot;" stroke="none" fill="#000000" style="-webkit-tap-highlight-color: rgba(0, 0, 0, 0); text-anchor: middle; font: 24px Arial;" font-size="24px" transform="matrix(1,0,0,1,359,265.4156)">
      <tspan dy="8.495480675013056" style="-webkit-tap-highlight-color: rgba(0, 0, 0, 0);">C</tspan>
    </text>
    <text x="-155.88557133050594" y="70.00329317501306" text-anchor="middle" font="30px &quot;Arial&quot;" stroke="none" fill="#000000" style="-webkit-tap-highlight-color: rgba(0, 0, 0, 0); text-anchor: middle; font: 24px Arial;" font-size="24px" transform="matrix(1,0,0,1,330.6187,265.4156)">
      <tspan dy="8.495480675013056" style="-webkit-tap-highlight-color: rgba(0, 0, 0, 0);">H</tspan>
    </text>
    <text x="-155.88557133050594" y="70.00329317501306" text-anchor="middle" font="30px &quot;Arial&quot;" stroke="none" fill="#000000" style="-webkit-tap-highlight-color: rgba(0, 0, 0, 0); text-anchor: middle; font: 17px Arial;" font-size="17px" transform="matrix(1,0,0,1,344.8094,270.8188)">
      <tspan dy="5.495480675013056" style="-webkit-tap-highlight-color: rgba(0, 0, 0, 0);">3</tspan>
    </text>
    <text x="-86.60471136529182" y="-50.003044917156785" text-anchor="middle" font="30px &quot;Arial&quot;" stroke="none" fill="#000000" style="-webkit-tap-highlight-color: rgba(0, 0, 0, 0); text-anchor: middle; font: 24px Arial;" font-size="24px" transform="matrix(1,0,0,1,359,265.4156)">
      <tspan dy="8.504767582843215" style="-webkit-tap-highlight-color: rgba(0, 0, 0, 0);">C</tspan>
    </text>
    <text x="-86.60471136529182" y="-50.003044917156785" text-anchor="middle" font="30px &quot;Arial&quot;" stroke="none" fill="#000000" style="-webkit-tap-highlight-color: rgba(0, 0, 0, 0); text-anchor: middle; font: 24px Arial;" font-size="24px" transform="matrix(1,0,0,1,377.1281,265.4156)">
      <tspan dy="8.504767582843215" style="-webkit-tap-highlight-color: rgba(0, 0, 0, 0);">H</tspan>
    </text>
    <text x="-86.60471136529182" y="-50.003044917156785" text-anchor="middle" font="30px &quot;Arial&quot;" stroke="none" fill="#000000" style="-webkit-tap-highlight-color: rgba(0, 0, 0, 0); text-anchor: middle; font: 17px Arial;" font-size="17px" transform="matrix(1,0,0,1,391.3188,270.8188)">
      <tspan dy="5.504767582843215" style="-webkit-tap-highlight-color: rgba(0, 0, 0, 0);">3</tspan>
    </text>
    <text x="-155.88557133050594" y="-170.00453446429444" text-anchor="middle" font="30px &quot;Arial&quot;" stroke="none" fill="#000000" style="-webkit-tap-highlight-color: rgba(0, 0, 0, 0); text-anchor: middle; font: 24px Arial;" font-size="24px" transform="matrix(1,0,0,1,359,265.4156)">
      <tspan dy="8.503278035705563" style="-webkit-tap-highlight-color: rgba(0, 0, 0, 0);">C</tspan>
    </text>
    <text x="-155.88557133050594" y="-170.00453446429444" text-anchor="middle" font="30px &quot;Arial&quot;" stroke="none" fill="#000000" style="-webkit-tap-highlight-color: rgba(0, 0, 0, 0); text-anchor: middle; font: 24px Arial;" font-size="24px" transform="matrix(1,0,0,1,377.1281,265.4156)">
      <tspan dy="8.503278035705563" style="-webkit-tap-highlight-color: rgba(0, 0, 0, 0);">H</tspan>
    </text>
    <text x="-155.88557133050594" y="-170.00453446429444" text-anchor="middle" font="30px &quot;Arial&quot;" stroke="none" fill="#000000" style="-webkit-tap-highlight-color: rgba(0, 0, 0, 0); text-anchor: middle; font: 17px Arial;" font-size="17px" transform="matrix(1,0,0,1,391.3188,270.8188)">
      <tspan dy="5.503278035705563" style="-webkit-tap-highlight-color: rgba(0, 0, 0, 0);">3</tspan>
    </text>
    <text x="-225.17127984075228" y="-50.003044917156785" text-anchor="middle" font="30px &quot;Arial&quot;" stroke="none" fill="#000000" style="-webkit-tap-highlight-color: rgba(0, 0, 0, 0); text-anchor: middle; font: 24px Arial;" font-size="24px" transform="matrix(1,0,0,1,359,265.4156)">
      <tspan dy="8.504767582843215" style="-webkit-tap-highlight-color: rgba(0, 0, 0, 0);">C</tspan>
    </text>
    <text x="-225.17127984075228" y="-50.003044917156785" text-anchor="middle" font="30px &quot;Arial&quot;" stroke="none" fill="#000000" style="-webkit-tap-highlight-color: rgba(0, 0, 0, 0); text-anchor: middle; font: 24px Arial;" font-size="24px" transform="matrix(1,0,0,1,330.5875,265.4156)">
      <tspan dy="8.504767582843215" style="-webkit-tap-highlight-color: rgba(0, 0, 0, 0);">H</tspan>
    </text>
    <text x="-225.17127984075228" y="-50.003044917156785" text-anchor="middle" font="30px &quot;Arial&quot;" stroke="none" fill="#000000" style="-webkit-tap-highlight-color: rgba(0, 0, 0, 0); text-anchor: middle; font: 17px Arial;" font-size="17px" transform="matrix(1,0,0,1,344.7937,270.8188)">
      <tspan dy="5.504767582843215" style="-webkit-tap-highlight-color: rgba(0, 0, 0, 0);">3</tspan>
    </text>
    <text x="-190.52842558562912" y="9.997699856412032" text-anchor="middle" font="30px &quot;Arial&quot;" stroke="none" fill="#000000" style="-webkit-tap-highlight-color: rgba(0, 0, 0, 0); text-anchor: middle; font: 24px Arial;" font-size="24px" transform="matrix(1,0,0,1,359,265.4156)">
      <tspan dy="8.505512356412032" style="-webkit-tap-highlight-color: rgba(0, 0, 0, 0);">O</tspan>
    </text>
    <text x="-51.96185711016865" y="9.997699856412032" text-anchor="middle" font="30px &quot;Arial&quot;" stroke="none" fill="#000000" style="-webkit-tap-highlight-color: rgba(0, 0, 0, 0); text-anchor: middle; font: 24px Arial;" font-size="24px" transform="matrix(1,0,0,1,359,265.4156)">
      <tspan dy="8.505512356412032" style="-webkit-tap-highlight-color: rgba(0, 0, 0, 0);">N</tspan>
    </text>
    <text x="51.96185711016865" y="-9.997699856412032" text-anchor="middle" font="30px &quot;Arial&quot;" stroke="none" fill="#000000" style="-webkit-tap-highlight-color: rgba(0, 0, 0, 0); text-anchor: middle; font: 24px Arial;" font-size="24px" transform="matrix(1,0,0,1,359,265.4156)">
      <tspan dy="8.494487643587968" style="-webkit-tap-highlight-color: rgba(0, 0, 0, 0);">N</tspan>
    </text>
    <text x="86.60471136529182" y="49.998196372124575" text-anchor="middle" font="30px &quot;Arial&quot;" stroke="none" fill="#000000" style="-webkit-tap-highlight-color: rgba(0, 0, 0, 0); text-anchor: middle; font: 24px Arial;" font-size="24px" transform="matrix(1,0,0,1,359,265.4156)">
      <tspan dy="8.506008872124575" style="-webkit-tap-highlight-color: rgba(0, 0, 0, 0);">C</tspan>
    </text>
    <text x="86.60471136529182" y="49.998196372124575" text-anchor="middle" font="30px &quot;Arial&quot;" stroke="none" fill="#000000" style="-webkit-tap-highlight-color: rgba(0, 0, 0, 0); text-anchor: middle; font: 24px Arial;" font-size="24px" transform="matrix(1,0,0,1,330.6187,265.4156)">
      <tspan dy="8.506008872124575" style="-webkit-tap-highlight-color: rgba(0, 0, 0, 0);">H</tspan>
    </text>
    <text x="86.60471136529182" y="49.998196372124575" text-anchor="middle" font="30px &quot;Arial&quot;" stroke="none" fill="#000000" style="-webkit-tap-highlight-color: rgba(0, 0, 0, 0); text-anchor: middle; font: 17px Arial;" font-size="17px" transform="matrix(1,0,0,1,344.8094,270.8188)">
      <tspan dy="5.506008872124575" style="-webkit-tap-highlight-color: rgba(0, 0, 0, 0);">3</tspan>
    </text>
    <text x="155.88557133050594" y="170.00453446429444" text-anchor="middle" font="30px &quot;Arial&quot;" stroke="none" fill="#000000" style="-webkit-tap-highlight-color: rgba(0, 0, 0, 0); text-anchor: middle; font: 24px Arial;" font-size="24px" transform="matrix(1,0,0,1,359,265.4156)">
      <tspan dy="8.496721964294437" style="-webkit-tap-highlight-color: rgba(0, 0, 0, 0);">C</tspan>
    </text>
    <text x="155.88557133050594" y="170.00453446429444" text-anchor="middle" font="30px &quot;Arial&quot;" stroke="none" fill="#000000" style="-webkit-tap-highlight-color: rgba(0, 0, 0, 0); text-anchor: middle; font: 24px Arial;" font-size="24px" transform="matrix(1,0,0,1,377.1281,265.4156)">
      <tspan dy="8.496721964294437" style="-webkit-tap-highlight-color: rgba(0, 0, 0, 0);">H</tspan>
    </text>
    <text x="155.88557133050594" y="170.00453446429444" text-anchor="middle" font="30px &quot;Arial&quot;" stroke="none" fill="#000000" style="-webkit-tap-highlight-color: rgba(0, 0, 0, 0); text-anchor: middle; font: 17px Arial;" font-size="17px" transform="matrix(1,0,0,1,391.3188,270.8188)">
      <tspan dy="5.496721964294437" style="-webkit-tap-highlight-color: rgba(0, 0, 0, 0);">3</tspan>
    </text>
    <text x="225.17127984075228" y="50.003044917156785" text-anchor="middle" font="30px &quot;Arial&quot;" stroke="none" fill="#000000" style="-webkit-tap-highlight-color: rgba(0, 0, 0, 0); text-anchor: middle; font: 24px Arial;" font-size="24px" transform="matrix(1,0,0,1,359,265.4156)">
      <tspan dy="8.495232417156785" style="-webkit-tap-highlight-color: rgba(0, 0, 0, 0);">C</tspan>
    </text>
    <text x="225.17127984075228" y="50.003044917156785" text-anchor="middle" font="30px &quot;Arial&quot;" stroke="none" fill="#000000" style="-webkit-tap-highlight-color: rgba(0, 0, 0, 0); text-anchor: middle; font: 24px Arial;" font-size="24px" transform="matrix(1,0,0,1,377.1438,265.4156)">
      <tspan dy="8.495232417156785" style="-webkit-tap-highlight-color: rgba(0, 0, 0, 0);">H</tspan>
    </text>
    <text x="225.17127984075228" y="50.003044917156785" text-anchor="middle" font="30px &quot;Arial&quot;" stroke="none" fill="#000000" style="-webkit-tap-highlight-color: rgba(0, 0, 0, 0); text-anchor: middle; font: 17px Arial;" font-size="17px" transform="matrix(1,0,0,1,391.35,270.8188)">
      <tspan dy="5.495232417156785" style="-webkit-tap-highlight-color: rgba(0, 0, 0, 0);">3</tspan>
    </text>
    <text x="190.52842558562912" y="-9.997699856412032" text-anchor="middle" font="30px &quot;Arial&quot;" stroke="none" fill="#000000" style="-webkit-tap-highlight-color: rgba(0, 0, 0, 0); text-anchor: middle; font: 24px Arial;" font-size="24px" transform="matrix(1,0,0,1,359,265.4156)">
      <tspan dy="8.494487643587968" style="-webkit-tap-highlight-color: rgba(0, 0, 0, 0);">O</tspan>
    </text>
    <text x="155.88557133050594" y="-70.00329317501306" text-anchor="middle" font="30px &quot;Arial&quot;" stroke="none" fill="#000000" style="-webkit-tap-highlight-color: rgba(0, 0, 0, 0); text-anchor: middle; font: 24px Arial;" font-size="24px" transform="matrix(1,0,0,1,359,265.4156)">
      <tspan dy="8.504519324986944" style="-webkit-tap-highlight-color: rgba(0, 0, 0, 0);">C</tspan>
    </text>
    <text x="155.88557133050594" y="-70.00329317501306" text-anchor="middle" font="30px &quot;Arial&quot;" stroke="none" fill="#000000" style="-webkit-tap-highlight-color: rgba(0, 0, 0, 0); text-anchor: middle; font: 24px Arial;" font-size="24px" transform="matrix(1,0,0,1,377.1281,265.4156)">
      <tspan dy="8.504519324986944" style="-webkit-tap-highlight-color: rgba(0, 0, 0, 0);">H</tspan>
    </text>
    <text x="155.88557133050594" y="-70.00329317501306" text-anchor="middle" font="30px &quot;Arial&quot;" stroke="none" fill="#000000" style="-webkit-tap-highlight-color: rgba(0, 0, 0, 0); text-anchor: middle; font: 17px Arial;" font-size="17px" transform="matrix(1,0,0,1,391.3188,270.8188)">
      <tspan dy="5.504519324986944" style="-webkit-tap-highlight-color: rgba(0, 0, 0, 0);">3</tspan>
    </text>
    <text x="86.60471136529182" y="-70.00329317501306" text-anchor="middle" font="30px &quot;Arial&quot;" stroke="none" fill="#000000" style="-webkit-tap-highlight-color: rgba(0, 0, 0, 0); text-anchor: middle; font: 24px Arial;" font-size="24px" transform="matrix(1,0,0,1,359,265.4156)">
      <tspan dy="8.504519324986944" style="-webkit-tap-highlight-color: rgba(0, 0, 0, 0);">O</tspan>
    </text>
    <text x="86.60471136529182" y="-70.00329317501306" text-anchor="middle" font="30px &quot;Arial&quot;" stroke="none" fill="#000000" style="-webkit-tap-highlight-color: rgba(0, 0, 0, 0); text-anchor: middle; font: 17px Arial;" font-size="17px" transform="matrix(1,0,0,1,374.1438,257.3109)">
      <tspan dy="5.504519324986944" style="-webkit-tap-highlight-color: rgba(0, 0, 0, 0);">&#x2013;</tspan>
    </text>
    <text x="51.96185711016865" y="-50.003044917156785" text-anchor="middle" font="30px &quot;Arial&quot;" stroke="none" fill="#000000" style="-webkit-tap-highlight-color: rgba(0, 0, 0, 0); text-anchor: middle; font: 24px Arial;" font-size="24px" transform="matrix(1,0,0,1,359,265.4156)">
      <tspan dy="8.504767582843215" style="-webkit-tap-highlight-color: rgba(0, 0, 0, 0);">Co</tspan>
    </text>
    <text x="51.96185711016865" y="-50.003044917156785" text-anchor="middle" font="30px &quot;Arial&quot;" stroke="none" fill="#000000" style="-webkit-tap-highlight-color: rgba(0, 0, 0, 0); text-anchor: middle; font: 17px Arial;" font-size="17px" transform="matrix(1,0,0,1,384.8703,257.3109)">
      <tspan dy="5.504767582843215" style="-webkit-tap-highlight-color: rgba(0, 0, 0, 0);">2+</tspan>
    </text>
    <path fill="none" stroke="#000000" d="M-98.70871248,63.01435076L-121.24271708,50.00304492" stroke-width="1.6" stroke-linecap="round" stroke-linejoin="round" style="-webkit-tap-highlight-color: rgba(0, 0, 0, 0); stroke-linecap: round; stroke-linejoin: round;" transform="matrix(1,0,0,1,359,265.4156)"/>
    <path fill="none" stroke="#000000" d="M-121.24271708,50.00304492L-144.44744055,63.39975371" stroke-width="1.6" stroke-linecap="round" stroke-linejoin="round" style="-webkit-tap-highlight-color: rgba(0, 0, 0, 0); stroke-linecap: round; stroke-linejoin: round;" transform="matrix(1,0,0,1,359,265.4156)"/>
    <path fill="none" stroke="#000000" d="M-117.90938374,50.00304492L-117.90938374,9.99769986M-124.57605041,50.00304492L-124.57605041,9.99769986" stroke-width="1.6" stroke-linecap="round" stroke-linejoin="round" style="-webkit-tap-highlight-color: rgba(0, 0, 0, 0); stroke-linecap: round; stroke-linejoin: round;" transform="matrix(1,0,0,1,359,265.4156)"/>
    <path fill="none" stroke="#000000" d="M-121.24271708,9.99769986L-155.88557133,-9.99769986" stroke-width="1.6" stroke-linecap="round" stroke-linejoin="round" style="-webkit-tap-highlight-color: rgba(0, 0, 0, 0); stroke-linecap: round; stroke-linejoin: round;" transform="matrix(1,0,0,1,359,265.4156)"/>
    <path fill="none" stroke="#000000" d="M-155.88557133,-9.99769986L-155.88557133,-50.00304492" stroke-width="1.6" stroke-linecap="round" stroke-linejoin="round" style="-webkit-tap-highlight-color: rgba(0, 0, 0, 0); stroke-linecap: round; stroke-linejoin: round;" transform="matrix(1,0,0,1,359,265.4156)"/>
    <path fill="none" stroke="#000000" d="M-155.88557133,-50.00304492L-121.24271708,-70.00329318M-155.88557133,-57.70097028L-127.90938374,-73.85237319" stroke-width="1.6" stroke-linecap="round" stroke-linejoin="round" style="-webkit-tap-highlight-color: rgba(0, 0, 0, 0); stroke-linecap: round; stroke-linejoin: round;" transform="matrix(1,0,0,1,359,265.4156)"/>
    <path fill="none" stroke="#000000" d="M-121.24271708,-70.00329318L-98.03683748,-56.60404159" stroke-width="1.6" stroke-linecap="round" stroke-linejoin="round" style="-webkit-tap-highlight-color: rgba(0, 0, 0, 0); stroke-linecap: round; stroke-linejoin: round;" transform="matrix(1,0,0,1,359,265.4156)"/>
    <path fill="none" stroke="#000000" d="M-121.24271708,-70.00329318L-121.24271708,-109.99894115" stroke-width="1.6" stroke-linecap="round" stroke-linejoin="round" style="-webkit-tap-highlight-color: rgba(0, 0, 0, 0); stroke-linecap: round; stroke-linejoin: round;" transform="matrix(1,0,0,1,359,265.4156)"/>
    <path fill="none" stroke="#000000" d="M-121.24271708,-109.99894115L-155.88557133,-129.9991894M-127.90938374,-106.14986113L-155.88557133,-122.30126404" stroke-width="1.6" stroke-linecap="round" stroke-linejoin="round" style="-webkit-tap-highlight-color: rgba(0, 0, 0, 0); stroke-linecap: round; stroke-linejoin: round;" transform="matrix(1,0,0,1,359,265.4156)"/>
    <path fill="none" stroke="#000000" d="M-155.88557133,-129.9991894L-155.88557133,-153.3" stroke-width="1.6" stroke-linecap="round" stroke-linejoin="round" style="-webkit-tap-highlight-color: rgba(0, 0, 0, 0); stroke-linecap: round; stroke-linejoin: round;" transform="matrix(1,0,0,1,359,265.4156)"/>
    <path fill="none" stroke="#000000" d="M-155.88557133,-129.9991894L-190.52842559,-109.99894115" stroke-width="1.6" stroke-linecap="round" stroke-linejoin="round" style="-webkit-tap-highlight-color: rgba(0, 0, 0, 0); stroke-linecap: round; stroke-linejoin: round;" transform="matrix(1,0,0,1,359,265.4156)"/>
    <path fill="none" stroke="#000000" d="M-190.52842559,-109.99894115L-190.52842559,-70.00329318M-183.86175892,-106.14986113L-183.86175892,-73.85237319" stroke-width="1.6" stroke-linecap="round" stroke-linejoin="round" style="-webkit-tap-highlight-color: rgba(0, 0, 0, 0); stroke-linecap: round; stroke-linejoin: round;" transform="matrix(1,0,0,1,359,265.4156)"/>
    <path fill="none" stroke="#000000" d="M-155.88557133,-50.00304492L-190.52842559,-70.00329318" stroke-width="1.6" stroke-linecap="round" stroke-linejoin="round" style="-webkit-tap-highlight-color: rgba(0, 0, 0, 0); stroke-linecap: round; stroke-linejoin: round;" transform="matrix(1,0,0,1,359,265.4156)"/>
    <path fill="none" stroke="#000000" d="M-190.52842559,-70.00329318L-213.72869055,-56.6091584" stroke-width="1.6" stroke-linecap="round" stroke-linejoin="round" style="-webkit-tap-highlight-color: rgba(0, 0, 0, 0); stroke-linecap: round; stroke-linejoin: round;" transform="matrix(1,0,0,1,359,265.4156)"/>
    <path fill="none" stroke="#000000" d="M-157.55188413,-12.88465548L-180.08233541,0.11962459M-154.21925853,-7.11074424L-176.7497098,5.89353583" stroke-width="1.6" stroke-linecap="round" stroke-linejoin="round" style="-webkit-tap-highlight-color: rgba(0, 0, 0, 0); stroke-linecap: round; stroke-linejoin: round;" transform="matrix(1,0,0,1,359,265.4156)"/>
    <path fill="none" stroke="#000000" d="M-121.24271708,9.99769986L-86.60471137,-9.99769986" stroke-width="1.6" stroke-linecap="round" stroke-linejoin="round" style="-webkit-tap-highlight-color: rgba(0, 0, 0, 0); stroke-linecap: round; stroke-linejoin: round;" transform="matrix(1,0,0,1,359,265.4156)"/>
    <path fill="none" stroke="#000000" d="M-86.60447812,-2.30010634L-66.729103,9.1716987M-86.60471137,-9.99769986L-63.3964774,3.39778746" stroke-width="1.6" stroke-linecap="round" stroke-linejoin="round" style="-webkit-tap-highlight-color: rgba(0, 0, 0, 0); stroke-linecap: round; stroke-linejoin: round;" transform="matrix(1,0,0,1,359,265.4156)"/>
    <path fill="none" stroke="#000000" d="M-40.5253976,3.39672589L-17.31900286,-9.99769986" stroke-width="1.6" stroke-linecap="round" stroke-linejoin="round" style="-webkit-tap-highlight-color: rgba(0, 0, 0, 0); stroke-linecap: round; stroke-linejoin: round;" transform="matrix(1,0,0,1,359,265.4156)"/>
    <path fill="none" stroke="#000000" d="M-17.31900286,-9.99769986L17.31900286,9.99769986" stroke-width="1.6" stroke-linecap="round" stroke-linejoin="round" style="-webkit-tap-highlight-color: rgba(0, 0, 0, 0); stroke-linecap: round; stroke-linejoin: round;" transform="matrix(1,0,0,1,359,265.4156)"/>
    <path fill="none" stroke="#000000" d="M17.1161043,9.99769986L17.52190141,9.99769986M16.7103072,13.65273123L17.92769851,13.65273123M16.3045101,17.30776259L18.33349561,17.30776259M15.898713,20.96279396L18.73929271,20.96279396M15.4929159,24.61782533L19.14508981,24.61782533M15.0871188,28.2728567L19.55088691,28.2728567M14.6813217,31.92788807L19.95668401,31.92788807M14.27552459,35.58291944L20.36248112,35.58291944M13.86972749,39.23795081L20.76827822,39.23795081M13.46393039,42.89298218L21.17407532,42.89298218M13.05813329,46.54801355L21.57987242,46.54801355M12.65233619,50.20304492L21.98566952,50.20304492" stroke-width="1.6" stroke-linecap="round" stroke-linejoin="round" style="-webkit-tap-highlight-color: rgba(0, 0, 0, 0); stroke-linecap: round; stroke-linejoin: round;" transform="matrix(1,0,0,1,359,265.4156)"/>
    <path fill="none" stroke="#000000" d="M17.31923614,57.70110497L45.29519044,73.85237319M17.31900286,50.00304492L51.96185711,70.00329318" stroke-width="1.6" stroke-linecap="round" stroke-linejoin="round" style="-webkit-tap-highlight-color: rgba(0, 0, 0, 0); stroke-linecap: round; stroke-linejoin: round;" transform="matrix(1,0,0,1,359,265.4156)"/>
    <path fill="none" stroke="#000000" d="M51.96185711,70.00329318L51.96185711,109.99894115" stroke-width="1.6" stroke-linecap="round" stroke-linejoin="round" style="-webkit-tap-highlight-color: rgba(0, 0, 0, 0); stroke-linecap: round; stroke-linejoin: round;" transform="matrix(1,0,0,1,359,265.4156)"/>
    <path fill="none" stroke="#000000" d="M45.29519044,106.14986113L17.31923614,122.30112936M51.96185711,109.99894115L17.31900286,129.9991894" stroke-width="1.6" stroke-linecap="round" stroke-linejoin="round" style="-webkit-tap-highlight-color: rgba(0, 0, 0, 0); stroke-linecap: round; stroke-linejoin: round;" transform="matrix(1,0,0,1,359,265.4156)"/>
    <path fill="none" stroke="#000000" d="M17.31900286,129.9991894L-17.31900286,109.99894115" stroke-width="1.6" stroke-linecap="round" stroke-linejoin="round" style="-webkit-tap-highlight-color: rgba(0, 0, 0, 0); stroke-linecap: round; stroke-linejoin: round;" transform="matrix(1,0,0,1,359,265.4156)"/>
    <path fill="none" stroke="#000000" d="M-10.65233619,106.1501305L-10.65233619,73.85210382M-17.31900286,109.99894115L-17.31900286,70.00329318" stroke-width="1.6" stroke-linecap="round" stroke-linejoin="round" style="-webkit-tap-highlight-color: rgba(0, 0, 0, 0); stroke-linecap: round; stroke-linejoin: round;" transform="matrix(1,0,0,1,359,265.4156)"/>
    <path fill="none" stroke="#000000" d="M17.31900286,50.00304492L-17.31900286,70.00329318" stroke-width="1.6" stroke-linecap="round" stroke-linejoin="round" style="-webkit-tap-highlight-color: rgba(0, 0, 0, 0); stroke-linecap: round; stroke-linejoin: round;" transform="matrix(1,0,0,1,359,265.4156)"/>
    <path fill="none" stroke="#000000" d="M17.31900286,9.99769986L40.5253976,-3.39672589" stroke-width="1.6" stroke-linecap="round" stroke-linejoin="round" style="-webkit-tap-highlight-color: rgba(0, 0, 0, 0); stroke-linecap: round; stroke-linejoin: round;" transform="matrix(1,0,0,1,359,265.4156)"/>
    <path fill="none" stroke="#000000" d="M60.06385179,2.37612378L83.27208576,15.7716111M63.3964774,-3.39778746L86.60471137,9.99769986" stroke-width="1.6" stroke-linecap="round" stroke-linejoin="round" style="-webkit-tap-highlight-color: rgba(0, 0, 0, 0); stroke-linecap: round; stroke-linejoin: round;" transform="matrix(1,0,0,1,359,265.4156)"/>
    <path fill="none" stroke="#000000" d="M86.60471137,9.99769986L121.24271708,-9.99769986" stroke-width="1.6" stroke-linecap="round" stroke-linejoin="round" style="-webkit-tap-highlight-color: rgba(0, 0, 0, 0); stroke-linecap: round; stroke-linejoin: round;" transform="matrix(1,0,0,1,359,265.4156)"/>
    <path fill="none" stroke="#000000" d="M121.24271708,-9.99769986L155.88557133,9.99769986" stroke-width="1.6" stroke-linecap="round" stroke-linejoin="round" style="-webkit-tap-highlight-color: rgba(0, 0, 0, 0); stroke-linecap: round; stroke-linejoin: round;" transform="matrix(1,0,0,1,359,265.4156)"/>
    <path fill="none" stroke="#000000" d="M155.88557133,9.99769986L155.88557133,50.00304492" stroke-width="1.6" stroke-linecap="round" stroke-linejoin="round" style="-webkit-tap-highlight-color: rgba(0, 0, 0, 0); stroke-linecap: round; stroke-linejoin: round;" transform="matrix(1,0,0,1,359,265.4156)"/>
    <path fill="none" stroke="#000000" d="M155.88557133,50.00304492L121.24271708,70.00329318M155.88557133,57.70097028L127.90938374,73.85237319" stroke-width="1.6" stroke-linecap="round" stroke-linejoin="round" style="-webkit-tap-highlight-color: rgba(0, 0, 0, 0); stroke-linecap: round; stroke-linejoin: round;" transform="matrix(1,0,0,1,359,265.4156)"/>
    <path fill="none" stroke="#000000" d="M121.24271708,70.00329318L98.03666949,56.60069627" stroke-width="1.6" stroke-linecap="round" stroke-linejoin="round" style="-webkit-tap-highlight-color: rgba(0, 0, 0, 0); stroke-linecap: round; stroke-linejoin: round;" transform="matrix(1,0,0,1,359,265.4156)"/>
    <path fill="none" stroke="#000000" d="M121.24271708,70.00329318L121.24271708,109.99894115" stroke-width="1.6" stroke-linecap="round" stroke-linejoin="round" style="-webkit-tap-highlight-color: rgba(0, 0, 0, 0); stroke-linecap: round; stroke-linejoin: round;" transform="matrix(1,0,0,1,359,265.4156)"/>
    <path fill="none" stroke="#000000" d="M121.24271708,109.99894115L155.88557133,129.9991894M127.90938374,106.14986113L155.88557133,122.30126404" stroke-width="1.6" stroke-linecap="round" stroke-linejoin="round" style="-webkit-tap-highlight-color: rgba(0, 0, 0, 0); stroke-linecap: round; stroke-linejoin: round;" transform="matrix(1,0,0,1,359,265.4156)"/>
    <path fill="none" stroke="#000000" d="M155.88557133,129.9991894L155.88557133,153.3" stroke-width="1.6" stroke-linecap="round" stroke-linejoin="round" style="-webkit-tap-highlight-color: rgba(0, 0, 0, 0); stroke-linecap: round; stroke-linejoin: round;" transform="matrix(1,0,0,1,359,265.4156)"/>
    <path fill="none" stroke="#000000" d="M155.88557133,129.9991894L190.52842559,109.99894115" stroke-width="1.6" stroke-linecap="round" stroke-linejoin="round" style="-webkit-tap-highlight-color: rgba(0, 0, 0, 0); stroke-linecap: round; stroke-linejoin: round;" transform="matrix(1,0,0,1,359,265.4156)"/>
    <path fill="none" stroke="#000000" d="M190.52842559,109.99894115L190.52842559,70.00329318M183.86175892,106.14986113L183.86175892,73.85237319" stroke-width="1.6" stroke-linecap="round" stroke-linejoin="round" style="-webkit-tap-highlight-color: rgba(0, 0, 0, 0); stroke-linecap: round; stroke-linejoin: round;" transform="matrix(1,0,0,1,359,265.4156)"/>
    <path fill="none" stroke="#000000" d="M155.88557133,50.00304492L190.52842559,70.00329318" stroke-width="1.6" stroke-linecap="round" stroke-linejoin="round" style="-webkit-tap-highlight-color: rgba(0, 0, 0, 0); stroke-linecap: round; stroke-linejoin: round;" transform="matrix(1,0,0,1,359,265.4156)"/>
    <path fill="none" stroke="#000000" d="M190.52842559,70.00329318L213.72869055,56.6091584" stroke-width="1.6" stroke-linecap="round" stroke-linejoin="round" style="-webkit-tap-highlight-color: rgba(0, 0, 0, 0); stroke-linecap: round; stroke-linejoin: round;" transform="matrix(1,0,0,1,359,265.4156)"/>
    <path fill="none" stroke="#000000" d="M157.55188413,12.88465548L180.08233541,-0.11962459M154.21925853,7.11074424L176.7497098,-5.89353583" stroke-width="1.6" stroke-linecap="round" stroke-linejoin="round" style="-webkit-tap-highlight-color: rgba(0, 0, 0, 0); stroke-linecap: round; stroke-linejoin: round;" transform="matrix(1,0,0,1,359,265.4156)"/>
    <path fill="none" stroke="#000000" d="M124.57605041,-9.99769986L124.57605041,-50.00304492M117.90938374,-9.99769986L117.90938374,-50.00304492" stroke-width="1.6" stroke-linecap="round" stroke-linejoin="round" style="-webkit-tap-highlight-color: rgba(0, 0, 0, 0); stroke-linecap: round; stroke-linejoin: round;" transform="matrix(1,0,0,1,359,265.4156)"/>
    <path fill="none" stroke="#000000" d="M121.24271708,-50.00304492L144.44744055,-63.39975371" stroke-width="1.6" stroke-linecap="round" stroke-linejoin="round" style="-webkit-tap-highlight-color: rgba(0, 0, 0, 0); stroke-linecap: round; stroke-linejoin: round;" transform="matrix(1,0,0,1,359,265.4156)"/>
    <path fill="none" stroke="#000000" d="M121.24271708,-50.00304492L98.70871248,-63.01435076" stroke-width="1.6" stroke-linecap="round" stroke-linejoin="round" style="-webkit-tap-highlight-color: rgba(0, 0, 0, 0); stroke-linecap: round; stroke-linejoin: round;" transform="matrix(1,0,0,1,359,265.4156)"/>
    <path fill="none" stroke="#000000" d="M-17.1161043,-9.99769986L-17.52190141,-9.99769986M-16.7103072,-13.65273123L-17.92769851,-13.65273123M-16.3045101,-17.30776259L-18.33349561,-17.30776259M-15.898713,-20.96279396L-18.73929271,-20.96279396M-15.4929159,-24.61782533L-19.14508981,-24.61782533M-15.0871188,-28.2728567L-19.55088691,-28.2728567M-14.6813217,-31.92788807L-19.95668401,-31.92788807M-14.27552459,-35.58291944L-20.36248112,-35.58291944M-13.86972749,-39.23795081L-20.76827822,-39.23795081M-13.46393039,-42.89298218L-21.17407532,-42.89298218M-13.05813329,-46.54801355L-21.57987242,-46.54801355M-12.65233619,-50.20304492L-21.98566952,-50.20304492" stroke-width="1.6" stroke-linecap="round" stroke-linejoin="round" style="-webkit-tap-highlight-color: rgba(0, 0, 0, 0); stroke-linecap: round; stroke-linejoin: round;" transform="matrix(1,0,0,1,359,265.4156)"/>
    <path fill="none" stroke="#000000" d="M-17.31923614,-57.70110497L-45.29519044,-73.85237319M-17.31900286,-50.00304492L-51.96185711,-70.00329318" stroke-width="1.6" stroke-linecap="round" stroke-linejoin="round" style="-webkit-tap-highlight-color: rgba(0, 0, 0, 0); stroke-linecap: round; stroke-linejoin: round;" transform="matrix(1,0,0,1,359,265.4156)"/>
    <path fill="none" stroke="#000000" d="M-51.96185711,-70.00329318L-51.96185711,-110.00378969" stroke-width="1.6" stroke-linecap="round" stroke-linejoin="round" style="-webkit-tap-highlight-color: rgba(0, 0, 0, 0); stroke-linecap: round; stroke-linejoin: round;" transform="matrix(1,0,0,1,359,265.4156)"/>
    <path fill="none" stroke="#000000" d="M-45.29519044,-106.15424309L-17.31964018,-122.30136265M-51.96185711,-110.00378969L-17.31900286,-129.9991894" stroke-width="1.6" stroke-linecap="round" stroke-linejoin="round" style="-webkit-tap-highlight-color: rgba(0, 0, 0, 0); stroke-linecap: round; stroke-linejoin: round;" transform="matrix(1,0,0,1,359,265.4156)"/>
    <path fill="none" stroke="#000000" d="M-17.31900286,-129.9991894L17.31900286,-109.99894115" stroke-width="1.6" stroke-linecap="round" stroke-linejoin="round" style="-webkit-tap-highlight-color: rgba(0, 0, 0, 0); stroke-linecap: round; stroke-linejoin: round;" transform="matrix(1,0,0,1,359,265.4156)"/>
    <path fill="none" stroke="#000000" d="M10.65233619,-106.1501305L10.65233619,-73.85210382M17.31900286,-109.99894115L17.31900286,-70.00329318" stroke-width="1.6" stroke-linecap="round" stroke-linejoin="round" style="-webkit-tap-highlight-color: rgba(0, 0, 0, 0); stroke-linecap: round; stroke-linejoin: round;" transform="matrix(1,0,0,1,359,265.4156)"/>
    <path fill="none" stroke="#000000" d="M-17.31900286,-50.00304492L17.31900286,-70.00329318" stroke-width="1.6" stroke-linecap="round" stroke-linejoin="round" style="-webkit-tap-highlight-color: rgba(0, 0, 0, 0); stroke-linecap: round; stroke-linejoin: round;" transform="matrix(1,0,0,1,359,265.4156)"/>
    <text x="185.764" y="-180.25199999999998" text-anchor="middle" font="30px &quot;Arial&quot;" stroke="none" fill="#000000" style="-webkit-tap-highlight-color: rgba(0, 0, 0, 0); text-anchor: middle; font: 24px Arial;" font-size="24px" transform="matrix(1,0,0,1,359,265.4156)">
      <tspan dy="8.505812500000019" style="-webkit-tap-highlight-color: rgba(0, 0, 0, 0);">Chiral</tspan>
    </text>
  </g>
</svg>
