<?xml version="1.0"?>
<svg xmlns="http://www.w3.org/2000/svg" height="295.49218168000004" version="1.1" width="463.4800521" style="overflow: hidden; position: relative;" viewBox="0 0 483 315">
  <g transform="translate(-175, -110)">
    <defs style="-webkit-tap-highlight-color: rgba(0, 0, 0, 0);"/>
    <text x="145.0095518996577" y="-46.177309492187376" text-anchor="middle" font="30px &quot;Arial&quot;" stroke="none" fill="#000000" style="-webkit-tap-highlight-color: rgba(0, 0, 0, 0); text-anchor: middle; font: 24px Arial;" font-size="24px" transform="matrix(1,0,0,1,340.4598,275.5019)">
      <tspan dy="8.502378007812624" style="-webkit-tap-highlight-color: rgba(0, 0, 0, 0);">C</tspan>
    </text>
    <text x="145.0095518996577" y="-46.177309492187376" text-anchor="middle" font="30px &quot;Arial&quot;" stroke="none" fill="#000000" style="-webkit-tap-highlight-color: rgba(0, 0, 0, 0); text-anchor: middle; font: 24px Arial;" font-size="24px" transform="matrix(1,0,0,1,358.5879,275.5019)">
      <tspan dy="8.502378007812624" style="-webkit-tap-highlight-color: rgba(0, 0, 0, 0);">H</tspan>
    </text>
    <text x="145.0095518996577" y="-46.177309492187376" text-anchor="middle" font="30px &quot;Arial&quot;" stroke="none" fill="#000000" style="-webkit-tap-highlight-color: rgba(0, 0, 0, 0); text-anchor: middle; font: 17px Arial;" font-size="17px" transform="matrix(1,0,0,1,372.7785,280.905)">
      <tspan dy="5.502378007812624" style="-webkit-tap-highlight-color: rgba(0, 0, 0, 0);">3</tspan>
    </text>
    <text x="90.84188058017878" y="-2.9818401236555263" text-anchor="middle" font="30px &quot;Arial&quot;" stroke="none" fill="#000000" style="-webkit-tap-highlight-color: rgba(0, 0, 0, 0); text-anchor: middle; font: 24px Arial;" font-size="24px" transform="matrix(1,0,0,1,340.4598,275.5019)">
      <tspan dy="8.494722376344473" style="-webkit-tap-highlight-color: rgba(0, 0, 0, 0);">N</tspan>
    </text>
    <text x="51.28765012687506" y="2.9818401236555263" text-anchor="middle" font="30px &quot;Arial&quot;" stroke="none" fill="#000000" style="-webkit-tap-highlight-color: rgba(0, 0, 0, 0); text-anchor: middle; font: 24px Arial;" font-size="24px" transform="matrix(1,0,0,1,340.4598,275.5019)">
      <tspan dy="8.505277623655527" style="-webkit-tap-highlight-color: rgba(0, 0, 0, 0);">P</tspan>
    </text>
    <text x="28.751726720776052" y="-30.07052430392126" text-anchor="middle" font="30px &quot;Arial&quot;" stroke="none" fill="#000000" style="-webkit-tap-highlight-color: rgba(0, 0, 0, 0); text-anchor: middle; font: 24px Arial;" font-size="24px" transform="matrix(1,0,0,1,340.4598,275.5019)">
      <tspan dy="8.49978819607874" style="-webkit-tap-highlight-color: rgba(0, 0, 0, 0);">O</tspan>
    </text>
    <text x="39.49604820698849" y="41.20272743223523" text-anchor="middle" font="30px &quot;Arial&quot;" stroke="none" fill="#000000" style="-webkit-tap-highlight-color: rgba(0, 0, 0, 0); text-anchor: middle; font: 24px Arial;" font-size="24px" transform="matrix(1,0,0,1,340.4598,275.5019)">
      <tspan dy="8.507414932235228" style="-webkit-tap-highlight-color: rgba(0, 0, 0, 0);">O</tspan>
    </text>
    <text x="155.33205210008472" y="22.3322855439957" text-anchor="middle" font="30px &quot;Arial&quot;" stroke="none" fill="#000000" style="-webkit-tap-highlight-color: rgba(0, 0, 0, 0); text-anchor: middle; font: 24px Arial;" font-size="24px" transform="matrix(1,0,0,1,340.4598,275.5019)">
      <tspan dy="8.496348043995699" style="-webkit-tap-highlight-color: rgba(0, 0, 0, 0);">C</tspan>
    </text>
    <text x="155.33205210008472" y="22.3322855439957" text-anchor="middle" font="30px &quot;Arial&quot;" stroke="none" fill="#000000" style="-webkit-tap-highlight-color: rgba(0, 0, 0, 0); text-anchor: middle; font: 24px Arial;" font-size="24px" transform="matrix(1,0,0,1,358.6035,275.5019)">
      <tspan dy="8.496348043995699" style="-webkit-tap-highlight-color: rgba(0, 0, 0, 0);">H</tspan>
    </text>
    <text x="155.33205210008472" y="22.3322855439957" text-anchor="middle" font="30px &quot;Arial&quot;" stroke="none" fill="#000000" style="-webkit-tap-highlight-color: rgba(0, 0, 0, 0); text-anchor: middle; font: 17px Arial;" font-size="17px" transform="matrix(1,0,0,1,372.8098,280.905)">
      <tspan dy="5.496348043995699" style="-webkit-tap-highlight-color: rgba(0, 0, 0, 0);">3</tspan>
    </text>
    <path fill="none" stroke="#000000" d="M105.49621482,-39.94703097L105.41442808,-40.48992456M109.06823941,-39.92994055L108.82287919,-41.55862134M112.640264,-39.91285012L112.2313303,-42.62731812M116.2122886,-39.8957597L115.63978141,-43.69601489M119.78431319,-39.87866928L119.04823252,-44.76471167M123.35633778,-39.86157886L122.45668363,-45.83340844M126.92836238,-39.84448844L125.86513475,-46.90210522M130.50038697,-39.82739802L129.27358586,-47.97080199M134.07241157,-39.8103076L132.68203697,-49.03949877" stroke-width="1.6" stroke-linecap="round" stroke-linejoin="round" style="-webkit-tap-highlight-color: rgba(0, 0, 0, 0); stroke-linecap: round; stroke-linejoin: round;" transform="matrix(1,0,0,1,340.4598,275.5019)"/>
    <path fill="none" stroke="#000000" d="M105.45532145,-40.21847777L97.31608575,-19.47881946" stroke-width="1.6" stroke-linecap="round" stroke-linejoin="round" style="-webkit-tap-highlight-color: rgba(0, 0, 0, 0); stroke-linecap: round; stroke-linejoin: round;" transform="matrix(1,0,0,1,340.4598,275.5019)"/>
    <path fill="none" stroke="#000000" d="M79.00763804,-1.19756477L62.46111196,1.29719216" stroke-width="1.6" stroke-linecap="round" stroke-linejoin="round" style="-webkit-tap-highlight-color: rgba(0, 0, 0, 0); stroke-linecap: round; stroke-linejoin: round;" transform="matrix(1,0,0,1,340.4598,275.5019)"/>
    <path fill="none" stroke="#000000" d="M41.47856013,-11.40468452L39.76452323,-13.91858071" stroke-width="1.6" stroke-linecap="round" stroke-linejoin="round" style="-webkit-tap-highlight-color: rgba(0, 0, 0, 0); stroke-linecap: round; stroke-linejoin: round;" transform="matrix(1,0,0,1,340.4598,275.5019)"/>
    <path fill="none" stroke="#000000" d="M16.23080974,-31.00814707L-11.13220313,-33.05721295" stroke-width="1.6" stroke-linecap="round" stroke-linejoin="round" style="-webkit-tap-highlight-color: rgba(0, 0, 0, 0); stroke-linecap: round; stroke-linejoin: round;" transform="matrix(1,0,0,1,340.4598,275.5019)"/>
    <path fill="none" stroke="#000000" d="M-11.13220313,-33.05721295L-22.92380505,-71.28294878M-18.63737969,-34.77059347L-28.15960497,-65.63951787" stroke-width="1.6" stroke-linecap="round" stroke-linejoin="round" style="-webkit-tap-highlight-color: rgba(0, 0, 0, 0); stroke-linecap: round; stroke-linejoin: round;" transform="matrix(1,0,0,1,340.4598,275.5019)"/>
    <path fill="none" stroke="#000000" d="M-22.92380505,-71.28294878L-61.92045564,-80.17998394" stroke-width="1.6" stroke-linecap="round" stroke-linejoin="round" style="-webkit-tap-highlight-color: rgba(0, 0, 0, 0); stroke-linecap: round; stroke-linejoin: round;" transform="matrix(1,0,0,1,340.4598,275.5019)"/>
    <path fill="none" stroke="#000000" d="M-61.92045564,-80.17998394L-89.13035283,-50.86098032M-59.65162045,-72.82438029L-81.62517627,-49.1475998" stroke-width="1.6" stroke-linecap="round" stroke-linejoin="round" style="-webkit-tap-highlight-color: rgba(0, 0, 0, 0); stroke-linecap: round; stroke-linejoin: round;" transform="matrix(1,0,0,1,340.4598,275.5019)"/>
    <path fill="none" stroke="#000000" d="M-89.13035283,-50.86098032L-128.12700343,-59.76286401" stroke-width="1.6" stroke-linecap="round" stroke-linejoin="round" style="-webkit-tap-highlight-color: rgba(0, 0, 0, 0); stroke-linecap: round; stroke-linejoin: round;" transform="matrix(1,0,0,1,340.4598,275.5019)"/>
    <path fill="none" stroke="#000000" d="M-128.12700343,-59.76286401L-155.3320521,-30.43901186M-125.85778324,-52.40670596L-147.82745005,-28.72598152" stroke-width="1.6" stroke-linecap="round" stroke-linejoin="round" style="-webkit-tap-highlight-color: rgba(0, 0, 0, 0); stroke-linecap: round; stroke-linejoin: round;" transform="matrix(1,0,0,1,340.4598,275.5019)"/>
    <path fill="none" stroke="#000000" d="M-155.3320521,-30.43901186L-143.5452987,7.78672397" stroke-width="1.6" stroke-linecap="round" stroke-linejoin="round" style="-webkit-tap-highlight-color: rgba(0, 0, 0, 0); stroke-linecap: round; stroke-linejoin: round;" transform="matrix(1,0,0,1,340.4598,275.5019)"/>
    <path fill="none" stroke="#000000" d="M-143.5452987,7.78672397L-104.54379959,16.68375913M-138.30903218,2.14329306L-106.81310126,9.32815547" stroke-width="1.6" stroke-linecap="round" stroke-linejoin="round" style="-webkit-tap-highlight-color: rgba(0, 0, 0, 0); stroke-linecap: round; stroke-linejoin: round;" transform="matrix(1,0,0,1,340.4598,275.5019)"/>
    <path fill="none" stroke="#000000" d="M-104.54379959,16.68375913L-77.33875091,-12.63524449" stroke-width="1.6" stroke-linecap="round" stroke-linejoin="round" style="-webkit-tap-highlight-color: rgba(0, 0, 0, 0); stroke-linecap: round; stroke-linejoin: round;" transform="matrix(1,0,0,1,340.4598,275.5019)"/>
    <path fill="none" stroke="#000000" d="M-89.13035283,-50.86098032L-77.33875091,-12.63524449" stroke-width="1.6" stroke-linecap="round" stroke-linejoin="round" style="-webkit-tap-highlight-color: rgba(0, 0, 0, 0); stroke-linecap: round; stroke-linejoin: round;" transform="matrix(1,0,0,1,340.4598,275.5019)"/>
    <path fill="none" stroke="#000000" d="M-77.33875091,-12.63524449L-38.34210032,-3.73820933M-72.10295099,-18.2786754L-40.61093552,-11.09381298" stroke-width="1.6" stroke-linecap="round" stroke-linejoin="round" style="-webkit-tap-highlight-color: rgba(0, 0, 0, 0); stroke-linecap: round; stroke-linejoin: round;" transform="matrix(1,0,0,1,340.4598,275.5019)"/>
    <path fill="none" stroke="#000000" d="M-11.13220313,-33.05721295L-38.34210032,-3.73820933" stroke-width="1.6" stroke-linecap="round" stroke-linejoin="round" style="-webkit-tap-highlight-color: rgba(0, 0, 0, 0); stroke-linecap: round; stroke-linejoin: round;" transform="matrix(1,0,0,1,340.4598,275.5019)"/>
    <path fill="none" stroke="#000000" d="M-38.34210032,-3.73820933L-32.37842007,35.81602113" stroke-width="1.6" stroke-linecap="round" stroke-linejoin="round" style="-webkit-tap-highlight-color: rgba(0, 0, 0, 0); stroke-linecap: round; stroke-linejoin: round;" transform="matrix(1,0,0,1,340.4598,275.5019)"/>
    <path fill="none" stroke="#000000" d="M-32.37842007,35.81602113L-67.02109923,55.8161683M-32.37865336,43.51408118L-60.35443257,59.66524832" stroke-width="1.6" stroke-linecap="round" stroke-linejoin="round" style="-webkit-tap-highlight-color: rgba(0, 0, 0, 0); stroke-linecap: round; stroke-linejoin: round;" transform="matrix(1,0,0,1,340.4598,275.5019)"/>
    <path fill="none" stroke="#000000" d="M-67.02109923,55.8161683L-101.66377839,35.81602113" stroke-width="1.6" stroke-linecap="round" stroke-linejoin="round" style="-webkit-tap-highlight-color: rgba(0, 0, 0, 0); stroke-linecap: round; stroke-linejoin: round;" transform="matrix(1,0,0,1,340.4598,275.5019)"/>
    <path fill="none" stroke="#000000" d="M-101.66377839,35.81602113L-136.30160903,55.8161683M-101.66354511,43.51408118L-129.63494237,59.66497895" stroke-width="1.6" stroke-linecap="round" stroke-linejoin="round" style="-webkit-tap-highlight-color: rgba(0, 0, 0, 0); stroke-linecap: round; stroke-linejoin: round;" transform="matrix(1,0,0,1,340.4598,275.5019)"/>
    <path fill="none" stroke="#000000" d="M-136.30160903,55.8161683L-136.30160903,95.81646264" stroke-width="1.6" stroke-linecap="round" stroke-linejoin="round" style="-webkit-tap-highlight-color: rgba(0, 0, 0, 0); stroke-linecap: round; stroke-linejoin: round;" transform="matrix(1,0,0,1,340.4598,275.5019)"/>
    <path fill="none" stroke="#000000" d="M-136.30160903,95.81646264L-101.66377839,115.81660981M-129.63494237,91.96765199L-101.66354511,108.11854976" stroke-width="1.6" stroke-linecap="round" stroke-linejoin="round" style="-webkit-tap-highlight-color: rgba(0, 0, 0, 0); stroke-linecap: round; stroke-linejoin: round;" transform="matrix(1,0,0,1,340.4598,275.5019)"/>
    <path fill="none" stroke="#000000" d="M-101.66377839,115.81660981L-67.02109923,95.81646264" stroke-width="1.6" stroke-linecap="round" stroke-linejoin="round" style="-webkit-tap-highlight-color: rgba(0, 0, 0, 0); stroke-linecap: round; stroke-linejoin: round;" transform="matrix(1,0,0,1,340.4598,275.5019)"/>
    <path fill="none" stroke="#000000" d="M-67.02109923,55.8161683L-67.02109923,95.81646264" stroke-width="1.6" stroke-linecap="round" stroke-linejoin="round" style="-webkit-tap-highlight-color: rgba(0, 0, 0, 0); stroke-linecap: round; stroke-linejoin: round;" transform="matrix(1,0,0,1,340.4598,275.5019)"/>
    <path fill="none" stroke="#000000" d="M-67.02109923,95.81646264L-32.37842007,115.81660981M-60.35443257,91.96738262L-32.37865336,108.11854976" stroke-width="1.6" stroke-linecap="round" stroke-linejoin="round" style="-webkit-tap-highlight-color: rgba(0, 0, 0, 0); stroke-linecap: round; stroke-linejoin: round;" transform="matrix(1,0,0,1,340.4598,275.5019)"/>
    <path fill="none" stroke="#000000" d="M-32.37842007,115.81660981L2.25941057,95.81646264" stroke-width="1.6" stroke-linecap="round" stroke-linejoin="round" style="-webkit-tap-highlight-color: rgba(0, 0, 0, 0); stroke-linecap: round; stroke-linejoin: round;" transform="matrix(1,0,0,1,340.4598,275.5019)"/>
    <path fill="none" stroke="#000000" d="M2.25941057,95.81646264L2.25941057,55.8161683M-4.4072561,91.96765199L-4.4072561,59.66497895" stroke-width="1.6" stroke-linecap="round" stroke-linejoin="round" style="-webkit-tap-highlight-color: rgba(0, 0, 0, 0); stroke-linecap: round; stroke-linejoin: round;" transform="matrix(1,0,0,1,340.4598,275.5019)"/>
    <path fill="none" stroke="#000000" d="M-32.37842007,35.81602113L2.25941057,55.8161683" stroke-width="1.6" stroke-linecap="round" stroke-linejoin="round" style="-webkit-tap-highlight-color: rgba(0, 0, 0, 0); stroke-linecap: round; stroke-linejoin: round;" transform="matrix(1,0,0,1,340.4598,275.5019)"/>
    <path fill="none" stroke="#000000" d="M2.25941057,55.8161683L27.17743054,46.03714327" stroke-width="1.6" stroke-linecap="round" stroke-linejoin="round" style="-webkit-tap-highlight-color: rgba(0, 0, 0, 0); stroke-linecap: round; stroke-linejoin: round;" transform="matrix(1,0,0,1,340.4598,275.5019)"/>
    <path fill="none" stroke="#000000" d="M46.17377166,19.55778747L44.60420148,24.64533753" stroke-width="1.6" stroke-linecap="round" stroke-linejoin="round" style="-webkit-tap-highlight-color: rgba(0, 0, 0, 0); stroke-linecap: round; stroke-linejoin: round;" transform="matrix(1,0,0,1,340.4598,275.5019)"/>
    <path fill="none" stroke="#000000" d="M101.5108627,10.39586879L115.78267017,28.29111727" stroke-width="1.6" stroke-linecap="round" stroke-linejoin="round" style="-webkit-tap-highlight-color: rgba(0, 0, 0, 0); stroke-linecap: round; stroke-linejoin: round;" transform="matrix(1,0,0,1,340.4598,275.5019)"/>
    <path fill="none" stroke="#000000" d="M115.78267017,28.29111727L101.16438078,65.52775491" stroke-width="1.6" stroke-linecap="round" stroke-linejoin="round" style="-webkit-tap-highlight-color: rgba(0, 0, 0, 0); stroke-linecap: round; stroke-linejoin: round;" transform="matrix(1,0,0,1,340.4598,275.5019)"/>
    <path fill="none" stroke="#000000" d="M98.35228389,72.69382653L118.49315709,97.94822625M101.16438078,65.52775491L126.10517037,96.80071231" stroke-width="1.6" stroke-linecap="round" stroke-linejoin="round" style="-webkit-tap-highlight-color: rgba(0, 0, 0, 0); stroke-linecap: round; stroke-linejoin: round;" transform="matrix(1,0,0,1,340.4598,275.5019)"/>
    <path fill="none" stroke="#000000" d="M126.10517037,96.80071231L111.4917295,134.03734995" stroke-width="1.6" stroke-linecap="round" stroke-linejoin="round" style="-webkit-tap-highlight-color: rgba(0, 0, 0, 0); stroke-linecap: round; stroke-linejoin: round;" transform="matrix(1,0,0,1,340.4598,275.5019)"/>
    <path fill="none" stroke="#000000" d="M106.69213535,128.01851391L74.75039466,132.83052657M111.4917295,134.03734995L71.93749905,139.99618168" stroke-width="1.6" stroke-linecap="round" stroke-linejoin="round" style="-webkit-tap-highlight-color: rgba(0, 0, 0, 0); stroke-linecap: round; stroke-linejoin: round;" transform="matrix(1,0,0,1,340.4598,275.5019)"/>
    <path fill="none" stroke="#000000" d="M71.93749905,139.99618168L47.00155798,108.72322428" stroke-width="1.6" stroke-linecap="round" stroke-linejoin="round" style="-webkit-tap-highlight-color: rgba(0, 0, 0, 0); stroke-linecap: round; stroke-linejoin: round;" transform="matrix(1,0,0,1,340.4598,275.5019)"/>
    <path fill="none" stroke="#000000" d="M54.61354009,107.57625631L66.41462234,77.50972989M47.00155798,108.72322428L61.61499885,71.49143516" stroke-width="1.6" stroke-linecap="round" stroke-linejoin="round" style="-webkit-tap-highlight-color: rgba(0, 0, 0, 0); stroke-linecap: round; stroke-linejoin: round;" transform="matrix(1,0,0,1,340.4598,275.5019)"/>
    <path fill="none" stroke="#000000" d="M101.16438078,65.52775491L61.61499885,71.49143516" stroke-width="1.6" stroke-linecap="round" stroke-linejoin="round" style="-webkit-tap-highlight-color: rgba(0, 0, 0, 0); stroke-linecap: round; stroke-linejoin: round;" transform="matrix(1,0,0,1,340.4598,275.5019)"/>
    <path fill="#000000" stroke="#000000" d="M115.78267017,28.29111727L144.18723513,28.73079252L142.79669386,19.50162647Z" stroke-width="1.6" stroke-linecap="round" stroke-linejoin="round" style="-webkit-tap-highlight-color: rgba(0, 0, 0, 0); stroke-linecap: round; stroke-linejoin: round;" transform="matrix(1,0,0,1,340.4598,275.5019)"/>
    <path fill="none" stroke="#000000" d="M105.45532145,-40.21847777L80.51453186,-71.49143516" stroke-width="1.6" stroke-linecap="round" stroke-linejoin="round" style="-webkit-tap-highlight-color: rgba(0, 0, 0, 0); stroke-linecap: round; stroke-linejoin: round;" transform="matrix(1,0,0,1,340.4598,275.5019)"/>
    <path fill="none" stroke="#000000" d="M75.71493772,-77.50980466L43.77244838,-72.69376373M80.51453186,-71.49143516L40.96030141,-65.52775491" stroke-width="1.6" stroke-linecap="round" stroke-linejoin="round" style="-webkit-tap-highlight-color: rgba(0, 0, 0, 0); stroke-linecap: round; stroke-linejoin: round;" transform="matrix(1,0,0,1,340.4598,275.5019)"/>
    <path fill="none" stroke="#000000" d="M40.96030141,-65.52775491L16.01951182,-96.80071231" stroke-width="1.6" stroke-linecap="round" stroke-linejoin="round" style="-webkit-tap-highlight-color: rgba(0, 0, 0, 0); stroke-linecap: round; stroke-linejoin: round;" transform="matrix(1,0,0,1,340.4598,275.5019)"/>
    <path fill="none" stroke="#000000" d="M23.63152509,-97.94822625L35.43254684,-128.01851391M16.01951182,-96.80071231L30.63295268,-134.03734995" stroke-width="1.6" stroke-linecap="round" stroke-linejoin="round" style="-webkit-tap-highlight-color: rgba(0, 0, 0, 0); stroke-linecap: round; stroke-linejoin: round;" transform="matrix(1,0,0,1,340.4598,275.5019)"/>
    <path fill="none" stroke="#000000" d="M30.63295268,-134.03734995L70.18718314,-139.99618168" stroke-width="1.6" stroke-linecap="round" stroke-linejoin="round" style="-webkit-tap-highlight-color: rgba(0, 0, 0, 0); stroke-linecap: round; stroke-linejoin: round;" transform="matrix(1,0,0,1,340.4598,275.5019)"/>
    <path fill="none" stroke="#000000" d="M67.37470403,-132.83058931L87.51583673,-107.57586422M70.18718314,-139.99618168L95.12797273,-108.72322428" stroke-width="1.6" stroke-linecap="round" stroke-linejoin="round" style="-webkit-tap-highlight-color: rgba(0, 0, 0, 0); stroke-linecap: round; stroke-linejoin: round;" transform="matrix(1,0,0,1,340.4598,275.5019)"/>
    <path fill="none" stroke="#000000" d="M80.51453186,-71.49143516L95.12797273,-108.72322428" stroke-width="1.6" stroke-linecap="round" stroke-linejoin="round" style="-webkit-tap-highlight-color: rgba(0, 0, 0, 0); stroke-linecap: round; stroke-linejoin: round;" transform="matrix(1,0,0,1,340.4598,275.5019)"/>
    <text x="128.148" y="-155.496" text-anchor="middle" font="30px &quot;Arial&quot;" stroke="none" fill="#000000" style="-webkit-tap-highlight-color: rgba(0, 0, 0, 0); text-anchor: middle; font: 24px Arial;" font-size="24px" transform="matrix(1,0,0,1,340.4598,275.5019)">
      <tspan dy="8.49618749999999" style="-webkit-tap-highlight-color: rgba(0, 0, 0, 0);">Chiral</tspan>
    </text>
  </g>
</svg>
