
<svg version="1.1" id="topsvg" xmlns="http://www.w3.org/2000/svg" x="0" y="0" width="200px" height="200px" viewBox="0 0 100 100" xmlns:xlink="http://www.w3.org/1999/xlink">
<title> - Open Babel Depiction</title>
<rect x="0" y="0" width="100" height="100" fill="white"></rect>
<g transform="translate(0,0)">
<svg width="100" height="100" x="0" y="0" viewBox="0 0 342 180" font-family="sans-serif" stroke="#000000" stroke-width="2" stroke-linecap="round">
<line x1="142.7" y1="100.0" x2="177.3" y2="80.0" opacity="1.0" stroke="#000000" stroke-width="2.0"></line>
<line x1="177.3" y1="80.0" x2="212.0" y2="100.0" opacity="1.0" stroke="#000000" stroke-width="2.0"></line>
<line x1="177.3" y1="80.0" x2="177.3" y2="53.0" opacity="1.0" stroke="#000000" stroke-width="2.0"></line>
<line x1="177.3" y1="80.0" x2="177.3" y2="120.0" opacity="1.0" stroke="#000000" stroke-width="2.0"></line>
<line x1="178.8" y1="122.6" x2="155.4" y2="136.1" opacity="1.0" stroke="#000000" stroke-width="2.0"></line>
<line x1="175.8" y1="117.4" x2="152.4" y2="130.9" opacity="1.0" stroke="#000000" stroke-width="2.0"></line>
<line x1="177.3" y1="120.0" x2="200.7" y2="133.5" opacity="1.0" stroke="#000000" stroke-width="2.0"></line>
<line x1="212.0" y1="100.0" x2="246.6" y2="80.0" opacity="1.0" stroke="#000000" stroke-width="2.0"></line>
<line x1="142.7" y1="100.0" x2="108.0" y2="80.0" opacity="1.0" stroke="#000000" stroke-width="2.0"></line>
<line x1="246.6" y1="80.0" x2="270.0" y2="93.5" opacity="1.0" stroke="#000000" stroke-width="2.0"></line>
<line x1="243.6" y1="80.0" x2="243.6" y2="53.0" opacity="1.0" stroke="#000000" stroke-width="2.0"></line>
<line x1="249.6" y1="80.0" x2="249.6" y2="53.0" opacity="1.0" stroke="#000000" stroke-width="2.0"></line>
<line x1="108.0" y1="80.0" x2="84.7" y2="93.5" opacity="1.0" stroke="#000000" stroke-width="2.0"></line>
<line x1="105.0" y1="80.0" x2="105.0" y2="53.0" opacity="1.0" stroke="#000000" stroke-width="2.0"></line>
<line x1="111.0" y1="80.0" x2="111.0" y2="53.0" opacity="1.0" stroke="#000000" stroke-width="2.0"></line>
<text x="171.320032" y="48.000000" fill="#000000" stroke="#000000" stroke-width="1" font-size="16">OH</text>
<text x="136.680024" y="148.000023" fill="#000000" stroke="#000000" stroke-width="1" font-size="16">O</text>
<text x="205.960040" y="148.000023" fill="#000000" stroke="#000000" stroke-width="1" font-size="16">OH</text>
<text x="286.044056" y="85.888014" fill="#000000" stroke="#000000" stroke-width="1" font-size="16">_</text>
<text x="275.244056" y="108.000014" fill="#000000" stroke="#000000" stroke-width="1" font-size="16">O</text>
<text x="240.604048" y="48.000000" fill="#000000" stroke="#000000" stroke-width="1" font-size="16">O</text>
<text x="78.196008" y="85.888014" fill="#000000" stroke="#000000" stroke-width="1" font-size="16">_</text>
<text x="67.396008" y="108.000014" fill="#000000" stroke="#000000" stroke-width="1" font-size="16">O</text>
<text x="102.040016" y="48.000000" fill="#000000" stroke="#000000" stroke-width="1" font-size="16">O</text>
<text x="44.800000" y="50.968003" fill="#000000" stroke="#000000" stroke-width="1" font-size="16">+</text>
<text x="34.000000" y="63.000003" fill="#000000" stroke="#000000" stroke-width="1" font-size="16">Na</text>
<text x="306.800061" y="46.968003" fill="#000000" stroke="#000000" stroke-width="1" font-size="16">+</text>
<text x="296.000061" y="59.000003" fill="#000000" stroke="#000000" stroke-width="1" font-size="16">Na</text>
</svg>
</g>
</svg>
