<?xml version="1.0"?>
<svg xmlns="http://www.w3.org/2000/svg" height="222.49901083000003" version="1.1" width="364.20675915" style="overflow: hidden; position: relative;" viewBox="0 0 384 242">
  <g transform="translate(-241, -147)">
    <defs style="-webkit-tap-highlight-color: rgba(0, 0, 0, 0);"/>
    <text x="74.17138752398597" y="23.72825013350682" text-anchor="middle" font="30px &quot;Arial&quot;" stroke="none" fill="#000000" style="-webkit-tap-highlight-color: rgba(0, 0, 0, 0); text-anchor: middle; font: 24px Arial;" font-size="24px" transform="matrix(1,0,0,1,352.1705,279.0083)">
      <tspan dy="8.501687633506819" style="-webkit-tap-highlight-color: rgba(0, 0, 0, 0);">N</tspan>
    </text>
    <text x="74.17138752398597" y="23.72825013350682" text-anchor="middle" font="30px &quot;Arial&quot;" stroke="none" fill="#000000" style="-webkit-tap-highlight-color: rgba(0, 0, 0, 0); text-anchor: middle; font: 24px Arial;" font-size="24px" transform="matrix(1,0,0,1,370.3143,279.0083)">
      <tspan dy="8.501687633506819" style="-webkit-tap-highlight-color: rgba(0, 0, 0, 0);">H</tspan>
    </text>
    <path fill="#000000" stroke="#000000" d="M37.62871869,39.99960433L5.31989932,15.95830921L0.65337492,24.04129512Z" stroke-width="1.6" stroke-linecap="round" stroke-linejoin="round" style="-webkit-tap-highlight-color: rgba(0, 0, 0, 0); stroke-linecap: round; stroke-linejoin: round;" transform="matrix(1,0,0,1,352.1705,279.0083)"/>
    <path fill="none" stroke="#000000" d="M2.98663712,19.99980217L-31.65544445,39.99960433" stroke-width="1.6" stroke-linecap="round" stroke-linejoin="round" style="-webkit-tap-highlight-color: rgba(0, 0, 0, 0); stroke-linecap: round; stroke-linejoin: round;" transform="matrix(1,0,0,1,352.1705,279.0083)"/>
    <path fill="none" stroke="#000000" d="M-38.32211111,43.84841498L-38.32211111,76.15039801M-31.65544445,39.99960433L-31.65544445,79.99920866" stroke-width="1.6" stroke-linecap="round" stroke-linejoin="round" style="-webkit-tap-highlight-color: rgba(0, 0, 0, 0); stroke-linecap: round; stroke-linejoin: round;" transform="matrix(1,0,0,1,352.1705,279.0083)"/>
    <path fill="none" stroke="#000000" d="M-31.65544445,79.99920866L-66.29267758,99.99901083" stroke-width="1.6" stroke-linecap="round" stroke-linejoin="round" style="-webkit-tap-highlight-color: rgba(0, 0, 0, 0); stroke-linecap: round; stroke-linejoin: round;" transform="matrix(1,0,0,1,352.1705,279.0083)"/>
    <path fill="none" stroke="#000000" d="M-66.29291086,92.30095078L-94.26809248,76.15012864M-66.29267758,99.99901083L-100.93475915,79.99920866" stroke-width="1.6" stroke-linecap="round" stroke-linejoin="round" style="-webkit-tap-highlight-color: rgba(0, 0, 0, 0); stroke-linecap: round; stroke-linejoin: round;" transform="matrix(1,0,0,1,352.1705,279.0083)"/>
    <path fill="none" stroke="#000000" d="M-100.93475915,79.99920866L-100.93475915,39.99960433" stroke-width="1.6" stroke-linecap="round" stroke-linejoin="round" style="-webkit-tap-highlight-color: rgba(0, 0, 0, 0); stroke-linecap: round; stroke-linejoin: round;" transform="matrix(1,0,0,1,352.1705,279.0083)"/>
    <path fill="none" stroke="#000000" d="M-94.26809248,43.84868435L-66.29291086,27.69786221M-100.93475915,39.99960433L-66.29267758,19.99980217" stroke-width="1.6" stroke-linecap="round" stroke-linejoin="round" style="-webkit-tap-highlight-color: rgba(0, 0, 0, 0); stroke-linecap: round; stroke-linejoin: round;" transform="matrix(1,0,0,1,352.1705,279.0083)"/>
    <path fill="none" stroke="#000000" d="M-31.65544445,39.99960433L-66.29267758,19.99980217" stroke-width="1.6" stroke-linecap="round" stroke-linejoin="round" style="-webkit-tap-highlight-color: rgba(0, 0, 0, 0); stroke-linecap: round; stroke-linejoin: round;" transform="matrix(1,0,0,1,352.1705,279.0083)"/>
    <path fill="none" stroke="#000000" d="M2.98663712,19.99980217L2.98663712,-19.99980217" stroke-width="1.6" stroke-linecap="round" stroke-linejoin="round" style="-webkit-tap-highlight-color: rgba(0, 0, 0, 0); stroke-linecap: round; stroke-linejoin: round;" transform="matrix(1,0,0,1,352.1705,279.0083)"/>
    <path fill="none" stroke="#000000" d="M2.98663712,-27.69772753L-24.98877778,-43.84868435M2.98663712,-19.99980217L-31.65544445,-39.99960433" stroke-width="1.6" stroke-linecap="round" stroke-linejoin="round" style="-webkit-tap-highlight-color: rgba(0, 0, 0, 0); stroke-linecap: round; stroke-linejoin: round;" transform="matrix(1,0,0,1,352.1705,279.0083)"/>
    <path fill="none" stroke="#000000" d="M-31.65544445,-39.99960433L-31.65544445,-79.99920866" stroke-width="1.6" stroke-linecap="round" stroke-linejoin="round" style="-webkit-tap-highlight-color: rgba(0, 0, 0, 0); stroke-linecap: round; stroke-linejoin: round;" transform="matrix(1,0,0,1,352.1705,279.0083)"/>
    <path fill="none" stroke="#000000" d="M-24.98877778,-76.15012864L2.98663712,-92.30108546M-31.65544445,-79.99920866L2.98663712,-99.99901083" stroke-width="1.6" stroke-linecap="round" stroke-linejoin="round" style="-webkit-tap-highlight-color: rgba(0, 0, 0, 0); stroke-linecap: round; stroke-linejoin: round;" transform="matrix(1,0,0,1,352.1705,279.0083)"/>
    <path fill="none" stroke="#000000" d="M2.98663712,-99.99901083L37.62871869,-79.99920866" stroke-width="1.6" stroke-linecap="round" stroke-linejoin="round" style="-webkit-tap-highlight-color: rgba(0, 0, 0, 0); stroke-linecap: round; stroke-linejoin: round;" transform="matrix(1,0,0,1,352.1705,279.0083)"/>
    <path fill="none" stroke="#000000" d="M30.96205203,-76.15012864L30.96205203,-43.84868435M37.62871869,-79.99920866L37.62871869,-39.99960433" stroke-width="1.6" stroke-linecap="round" stroke-linejoin="round" style="-webkit-tap-highlight-color: rgba(0, 0, 0, 0); stroke-linecap: round; stroke-linejoin: round;" transform="matrix(1,0,0,1,352.1705,279.0083)"/>
    <path fill="none" stroke="#000000" d="M2.98663712,-19.99980217L37.62871869,-39.99960433" stroke-width="1.6" stroke-linecap="round" stroke-linejoin="round" style="-webkit-tap-highlight-color: rgba(0, 0, 0, 0); stroke-linecap: round; stroke-linejoin: round;" transform="matrix(1,0,0,1,352.1705,279.0083)"/>
    <path fill="none" stroke="#000000" d="M37.62871869,39.99960433L62.57669942,28.89101692" stroke-width="1.6" stroke-linecap="round" stroke-linejoin="round" style="-webkit-tap-highlight-color: rgba(0, 0, 0, 0); stroke-linecap: round; stroke-linejoin: round;" transform="matrix(1,0,0,1,352.1705,279.0083)"/>
    <path fill="none" stroke="#000000" d="M88.47266318,39.61251119L100.93475915,53.4540167" stroke-width="1.6" stroke-linecap="round" stroke-linejoin="round" style="-webkit-tap-highlight-color: rgba(0, 0, 0, 0); stroke-linecap: round; stroke-linejoin: round;" transform="matrix(1,0,0,1,352.1705,279.0083)"/>
    <path fill="none" stroke="#000000" d="M100.93475915,53.4540167L80.93495698,88.09609827" stroke-width="1.6" stroke-linecap="round" stroke-linejoin="round" style="-webkit-tap-highlight-color: rgba(0, 0, 0, 0); stroke-linecap: round; stroke-linejoin: round;" transform="matrix(1,0,0,1,352.1705,279.0083)"/>
    <path fill="none" stroke="#000000" d="M80.93495698,88.09609827L41.80807129,79.781029" stroke-width="1.6" stroke-linecap="round" stroke-linejoin="round" style="-webkit-tap-highlight-color: rgba(0, 0, 0, 0); stroke-linecap: round; stroke-linejoin: round;" transform="matrix(1,0,0,1,352.1705,279.0083)"/>
    <path fill="none" stroke="#000000" d="M37.62871869,39.99960433L41.80807129,79.781029" stroke-width="1.6" stroke-linecap="round" stroke-linejoin="round" style="-webkit-tap-highlight-color: rgba(0, 0, 0, 0); stroke-linecap: round; stroke-linejoin: round;" transform="matrix(1,0,0,1,352.1705,279.0083)"/>
    <text x="83.27199999999999" y="-122.5" text-anchor="middle" font="30px &quot;Arial&quot;" stroke="none" fill="#000000" style="-webkit-tap-highlight-color: rgba(0, 0, 0, 0); text-anchor: middle; font: 24px Arial;" font-size="24px" transform="matrix(1,0,0,1,352.1705,279.0083)">
      <tspan dy="8.4921875" style="-webkit-tap-highlight-color: rgba(0, 0, 0, 0);">Chiral</tspan>
    </text>
  </g>
</svg>
