
<svg version="1.1" id="topsvg" xmlns="http://www.w3.org/2000/svg" x="0" y="0" width="200px" height="200px" viewBox="0 0 100 100" xmlns:xlink="http://www.w3.org/1999/xlink">
<title> - Open Babel Depiction</title>
<rect x="0" y="0" width="100" height="100" fill="white"></rect>
<g transform="translate(0,0)">
<svg width="100" height="100" x="0" y="0" viewBox="0 0 221.562 169.281" font-family="sans-serif" stroke="#000000" stroke-width="2" stroke-linecap="round">
<line x1="78.6" y1="94.6" x2="113.3" y2="74.6" opacity="1.0" stroke="#000000" stroke-width="2.0"></line>
<line x1="113.3" y1="74.6" x2="99.8" y2="51.3" opacity="1.0" stroke="#000000" stroke-width="2.0"></line>
<line x1="113.3" y1="74.6" x2="140.3" y2="74.6" opacity="1.0" stroke="#000000" stroke-width="2.0"></line>
<line x1="113.3" y1="74.6" x2="113.3" y2="101.6" opacity="1.0" stroke="#000000" stroke-width="2.0"></line>
<line x1="113.3" y1="74.6" x2="126.8" y2="51.3" opacity="1.0" stroke="#000000" stroke-width="2.0"></line>
<line x1="78.6" y1="94.6" x2="52.6" y2="87.7" opacity="1.0" stroke="#000000" stroke-width="2.0"></line>
<line x1="78.6" y1="94.6" x2="65.1" y2="118.0" opacity="1.0" stroke="#000000" stroke-width="2.0"></line>
<line x1="162.5" y1="83.8" x2="172.4" y2="93.7" opacity="1.0" stroke="#000000" stroke-width="2.0"></line>
<text x="75.276849" y="48.000000" fill="#000000" stroke="#000000" stroke-width="1" font-size="16">Br</text>
<text x="141.277805" y="82.640552" fill="#000000" stroke="#000000" stroke-width="1" font-size="16">Br</text>
<text x="141.277805" y="66.640552" fill="#000000" stroke="#000000" stroke-width="1" font-size="16">H</text>
<text x="107.277168" y="122.641189" fill="#000000" stroke="#000000" stroke-width="1" font-size="16">Br</text>
<text x="127.277486" y="48.000000" fill="#000000" stroke="#000000" stroke-width="1" font-size="16">Br</text>
<text x="22.000000" y="92.288706" fill="#000000" stroke="#000000" stroke-width="1" font-size="16">Br</text>
<text x="40.636297" y="137.281423" fill="#000000" stroke="#000000" stroke-width="1" font-size="16">Br</text>
<text x="175.562256" y="110.925003" fill="#000000" stroke="#000000" stroke-width="1" font-size="16">Br</text>
</svg>
</g>
</svg>
