<?xml version="1.0"?>
<svg xmlns="http://www.w3.org/2000/svg" height="150.70631613186177" version="1.1" width="332.82967791136025" style="overflow: hidden; position: relative;" viewBox="0 0 352 170">
  <g transform="translate(-261, -191)">
    <defs style="-webkit-tap-highlight-color: rgba(0, 0, 0, 0);"/>
    <text x="31.378887184015916" y="-44.22231613186174" text-anchor="middle" font="30px &quot;Arial&quot;" stroke="none" fill="#000000" style="-webkit-tap-highlight-color: rgba(0, 0, 0, 0); text-anchor: middle; font: 24px Arial;" font-size="24px" transform="matrix(1,0,0,1,354.9922,277.1406)">
      <tspan dy="8.504246368138261" style="-webkit-tap-highlight-color: rgba(0, 0, 0, 0);">N</tspan>
    </text>
    <text x="31.378887184015916" y="-44.22231613186174" text-anchor="middle" font="30px &quot;Arial&quot;" stroke="none" fill="#000000" style="-webkit-tap-highlight-color: rgba(0, 0, 0, 0); text-anchor: middle; font: 24px Arial;" font-size="24px" transform="matrix(1,0,0,1,336.8484,277.1406)">
      <tspan dy="8.504246368138261" style="-webkit-tap-highlight-color: rgba(0, 0, 0, 0);">H</tspan>
    </text>
    <text x="-31.378887184015916" y="44.22231613186174" text-anchor="middle" font="30px &quot;Arial&quot;" stroke="none" fill="#000000" style="-webkit-tap-highlight-color: rgba(0, 0, 0, 0); text-anchor: middle; font: 24px Arial;" font-size="24px" transform="matrix(1,0,0,1,354.9922,277.1406)">
      <tspan dy="8.495753631861739" style="-webkit-tap-highlight-color: rgba(0, 0, 0, 0);">N</tspan>
    </text>
    <text x="-71.37824121184832" y="44.22231613186174" text-anchor="middle" font="30px &quot;Arial&quot;" stroke="none" fill="#000000" style="-webkit-tap-highlight-color: rgba(0, 0, 0, 0); text-anchor: middle; font: 24px Arial;" font-size="24px" transform="matrix(1,0,0,1,354.9922,277.1406)">
      <tspan dy="8.495753631861739" style="-webkit-tap-highlight-color: rgba(0, 0, 0, 0);">N</tspan>
    </text>
    <text x="-83.74167791136016" y="6.181718349755917" text-anchor="middle" font="30px &quot;Arial&quot;" stroke="none" fill="#000000" style="-webkit-tap-highlight-color: rgba(0, 0, 0, 0); text-anchor: middle; font: 24px Arial;" font-size="24px" transform="matrix(1,0,0,1,354.9922,277.1406)">
      <tspan dy="8.502030849755917" style="-webkit-tap-highlight-color: rgba(0, 0, 0, 0);">N</tspan>
    </text>
    <text x="-51.37856419793213" y="-17.333053412060707" text-anchor="middle" font="30px &quot;Arial&quot;" stroke="none" fill="#000000" style="-webkit-tap-highlight-color: rgba(0, 0, 0, 0); text-anchor: middle; font: 24px Arial;" font-size="24px" transform="matrix(1,0,0,1,354.9922,277.1406)">
      <tspan dy="8.502884087939293" style="-webkit-tap-highlight-color: rgba(0, 0, 0, 0);">N</tspan>
    </text>
    <text x="-51.37856419793213" y="-17.333053412060707" text-anchor="middle" font="30px &quot;Arial&quot;" stroke="none" fill="#000000" style="-webkit-tap-highlight-color: rgba(0, 0, 0, 0); text-anchor: middle; font: 24px Arial;" font-size="24px" transform="matrix(1,0,0,1,373.1359,277.1406)">
      <tspan dy="8.502884087939293" style="-webkit-tap-highlight-color: rgba(0, 0, 0, 0);">H</tspan>
    </text>
    <path fill="#000000" stroke="#000000" d="M19.02029889,-6.18171835L-20.46272614,1.74356768L-17.57787164,10.61986902Z" stroke-width="1.6" stroke-linecap="round" stroke-linejoin="round" style="-webkit-tap-highlight-color: rgba(0, 0, 0, 0); stroke-linecap: round; stroke-linejoin: round;" transform="matrix(1,0,0,1,354.9922,277.1406)"/>
    <path fill="none" stroke="#000000" d="M19.02029889,-6.18171835L25.99804485,-27.65970768" stroke-width="1.6" stroke-linecap="round" stroke-linejoin="round" style="-webkit-tap-highlight-color: rgba(0, 0, 0, 0); stroke-linecap: round; stroke-linejoin: round;" transform="matrix(1,0,0,1,354.9922,277.1406)"/>
    <path fill="none" stroke="#000000" d="M43.246875,-44.22231613L71.37824121,-44.22231613" stroke-width="1.6" stroke-linecap="round" stroke-linejoin="round" style="-webkit-tap-highlight-color: rgba(0, 0, 0, 0); stroke-linecap: round; stroke-linejoin: round;" transform="matrix(1,0,0,1,354.9922,277.1406)"/>
    <path fill="none" stroke="#000000" d="M71.37824121,-44.22231613L83.74167791,-6.18171835" stroke-width="1.6" stroke-linecap="round" stroke-linejoin="round" style="-webkit-tap-highlight-color: rgba(0, 0, 0, 0); stroke-linecap: round; stroke-linejoin: round;" transform="matrix(1,0,0,1,354.9922,277.1406)"/>
    <path fill="none" stroke="#000000" d="M83.74167791,-6.18171835L51.3785642,17.33305341" stroke-width="1.6" stroke-linecap="round" stroke-linejoin="round" style="-webkit-tap-highlight-color: rgba(0, 0, 0, 0); stroke-linecap: round; stroke-linejoin: round;" transform="matrix(1,0,0,1,354.9922,277.1406)"/>
    <path fill="none" stroke="#000000" d="M19.02029889,-6.18171835L51.3785642,17.33305341" stroke-width="1.6" stroke-linecap="round" stroke-linejoin="round" style="-webkit-tap-highlight-color: rgba(0, 0, 0, 0); stroke-linecap: round; stroke-linejoin: round;" transform="matrix(1,0,0,1,354.9922,277.1406)"/>
    <path fill="none" stroke="#000000" d="M-26.85712081,8.72776769L-32.33849761,25.59982824M-19.02029889,6.18171835L-25.99804485,27.65970768" stroke-width="1.6" stroke-linecap="round" stroke-linejoin="round" style="-webkit-tap-highlight-color: rgba(0, 0, 0, 0); stroke-linecap: round; stroke-linejoin: round;" transform="matrix(1,0,0,1,354.9922,277.1406)"/>
    <path fill="none" stroke="#000000" d="M-43.246875,44.22231613L-59.503125,44.22231613" stroke-width="1.6" stroke-linecap="round" stroke-linejoin="round" style="-webkit-tap-highlight-color: rgba(0, 0, 0, 0); stroke-linecap: round; stroke-linejoin: round;" transform="matrix(1,0,0,1,354.9922,277.1406)"/>
    <path fill="none" stroke="#000000" d="M-70.42094221,25.59921132L-72.02290459,20.67019296M-76.76115746,27.65982168L-78.36311983,22.73080332" stroke-width="1.6" stroke-linecap="round" stroke-linejoin="round" style="-webkit-tap-highlight-color: rgba(0, 0, 0, 0); stroke-linecap: round; stroke-linejoin: round;" transform="matrix(1,0,0,1,354.9922,277.1406)"/>
    <path fill="none" stroke="#000000" d="M-72.47370623,-2.00549703L-62.63566877,-9.15373398" stroke-width="1.6" stroke-linecap="round" stroke-linejoin="round" style="-webkit-tap-highlight-color: rgba(0, 0, 0, 0); stroke-linecap: round; stroke-linejoin: round;" transform="matrix(1,0,0,1,354.9922,277.1406)"/>
    <path fill="none" stroke="#000000" d="M-19.02029889,6.18171835L-30.20600915,-1.94694433" stroke-width="1.6" stroke-linecap="round" stroke-linejoin="round" style="-webkit-tap-highlight-color: rgba(0, 0, 0, 0); stroke-linecap: round; stroke-linejoin: round;" transform="matrix(1,0,0,1,354.9922,277.1406)"/>
    <text x="69.08800000000001" y="-76.48400000000001" text-anchor="middle" font="30px &quot;Arial&quot;" stroke="none" fill="#000000" style="-webkit-tap-highlight-color: rgba(0, 0, 0, 0); text-anchor: middle; font: 24px Arial;" font-size="24px" transform="matrix(1,0,0,1,354.9922,277.1406)">
      <tspan dy="8.492562499999991" style="-webkit-tap-highlight-color: rgba(0, 0, 0, 0);">Chiral</tspan>
    </text>
  </g>
</svg>
