
<svg version="1.1" id="topsvg" xmlns="http://www.w3.org/2000/svg" x="0" y="0" width="200px" height="200px" viewBox="0 0 100 100" xmlns:xlink="http://www.w3.org/1999/xlink">
<title> - Open Babel Depiction</title>
<rect x="0" y="0" width="100" height="100" fill="white"></rect>
<g transform="translate(0,0)">
<svg width="100" height="100" x="0" y="0" viewBox="0 0 287.846 219.999" font-family="sans-serif" stroke="#000000" stroke-width="2" stroke-linecap="round">
<line x1="51.3" y1="173.5" x2="74.6" y2="160.0" opacity="1.0" stroke="#000000" stroke-width="2.0"></line>
<line x1="143.9" y1="120.0" x2="178.6" y2="100.0" opacity="1.0" stroke="#000000" stroke-width="2.0"></line>
<line x1="143.9" y1="120.0" x2="143.9" y2="160.0" opacity="1.0" stroke="#000000" stroke-width="2.0"></line>
<line x1="136.7" y1="126.0" x2="136.7" y2="154.0" opacity="1.0" stroke="#000000" stroke-width="2.0"></line>
<line x1="143.9" y1="160.0" x2="109.3" y2="180.0" opacity="1.0" stroke="#000000" stroke-width="2.0"></line>
<line x1="109.3" y1="180.0" x2="74.6" y2="160.0" opacity="1.0" stroke="#000000" stroke-width="2.0"></line>
<line x1="107.7" y1="170.8" x2="83.4" y2="156.8" opacity="1.0" stroke="#000000" stroke-width="2.0"></line>
<line x1="74.6" y1="160.0" x2="74.6" y2="120.0" opacity="1.0" stroke="#000000" stroke-width="2.0"></line>
<line x1="74.6" y1="120.0" x2="109.3" y2="100.0" opacity="1.0" stroke="#000000" stroke-width="2.0"></line>
<line x1="83.4" y1="123.2" x2="107.7" y2="109.2" opacity="1.0" stroke="#000000" stroke-width="2.0"></line>
<line x1="109.3" y1="100.0" x2="143.9" y2="120.0" opacity="1.0" stroke="#000000" stroke-width="2.0"></line>
<line x1="189.8" y1="53.5" x2="213.2" y2="40.0" opacity="1.0" stroke="#000000" stroke-width="2.0"></line>
<line x1="213.2" y1="40.0" x2="247.8" y2="60.0" opacity="1.0" stroke="#000000" stroke-width="2.0"></line>
<line x1="247.8" y1="60.0" x2="247.8" y2="100.0" opacity="1.0" stroke="#000000" stroke-width="2.0"></line>
<line x1="247.8" y1="100.0" x2="224.5" y2="113.5" opacity="1.0" stroke="#000000" stroke-width="2.0"></line>
<line x1="201.9" y1="113.5" x2="178.6" y2="100.0" opacity="1.0" stroke="#000000" stroke-width="2.0"></line>
<line x1="178.6" y1="100.0" x2="178.6" y2="73.0" opacity="1.0" stroke="#000000" stroke-width="2.0"></line>
<text x="22.000000" y="187.998736" fill="#000000" stroke="#000000" stroke-width="1" font-size="16">Cl</text>
<text x="172.562749" y="67.999819" fill="#000000" stroke="#000000" stroke-width="1" font-size="16">S</text>
<text x="207.202436" y="127.999278" fill="#000000" stroke="#000000" stroke-width="1" font-size="16">S</text>
</svg>
</g>
</svg>
