
<svg version="1.1" id="topsvg" xmlns="http://www.w3.org/2000/svg" x="0" y="0" width="200px" height="200px" viewBox="0 0 100 100" xmlns:xlink="http://www.w3.org/1999/xlink">
<title> - Open Babel Depiction</title>
<rect x="0" y="0" width="100" height="100" fill="white"></rect>
<g transform="translate(0,0)">
<svg width="100" height="100" x="0" y="0" viewBox="0 0 365.477 189.285" font-family="sans-serif" stroke="rgb(0,0,0)" stroke-width="2" stroke-linecap="round">
<line x1="160.0" y1="109.3" x2="120.0" y2="109.3" opacity="1.0" stroke="rgb(0,0,0)" stroke-width="2.0"></line>
<line x1="290.8" y1="89.3" x2="314.2" y2="75.8" opacity="1.0" stroke="rgb(0,0,0)" stroke-width="2.0"></line>
<line x1="60.0" y1="74.6" x2="46.5" y2="51.3" opacity="1.0" stroke="rgb(0,0,0)" stroke-width="2.0"></line>
<line x1="160.0" y1="109.3" x2="175.8" y2="131.0" opacity="1.0" stroke="rgb(0,0,0)" stroke-width="2.0"></line>
<line x1="169.4" y1="109.9" x2="180.4" y2="125.1" opacity="1.0" stroke="rgb(0,0,0)" stroke-width="2.0"></line>
<line x1="195.9" y1="137.6" x2="221.6" y2="129.3" opacity="1.0" stroke="rgb(0,0,0)" stroke-width="2.0"></line>
<line x1="221.6" y1="129.3" x2="221.6" y2="89.3" opacity="1.0" stroke="rgb(0,0,0)" stroke-width="2.0"></line>
<line x1="214.4" y1="123.3" x2="214.4" y2="95.3" opacity="1.0" stroke="rgb(0,0,0)" stroke-width="2.0"></line>
<line x1="221.6" y1="89.3" x2="195.9" y2="80.9" opacity="1.0" stroke="rgb(0,0,0)" stroke-width="2.0"></line>
<line x1="175.9" y1="87.4" x2="160.0" y2="109.3" opacity="1.0" stroke="rgb(0,0,0)" stroke-width="2.0"></line>
<line x1="221.6" y1="129.3" x2="256.2" y2="149.3" opacity="1.0" stroke="rgb(0,0,0)" stroke-width="2.0"></line>
<line x1="256.2" y1="149.3" x2="290.8" y2="129.3" opacity="1.0" stroke="rgb(0,0,0)" stroke-width="2.0"></line>
<line x1="257.8" y1="140.0" x2="282.0" y2="126.0" opacity="1.0" stroke="rgb(0,0,0)" stroke-width="2.0"></line>
<line x1="290.8" y1="129.3" x2="290.8" y2="89.3" opacity="1.0" stroke="rgb(0,0,0)" stroke-width="2.0"></line>
<line x1="290.8" y1="89.3" x2="256.2" y2="69.3" opacity="1.0" stroke="rgb(0,0,0)" stroke-width="2.0"></line>
<line x1="282.0" y1="92.5" x2="257.8" y2="78.5" opacity="1.0" stroke="rgb(0,0,0)" stroke-width="2.0"></line>
<line x1="256.2" y1="69.3" x2="221.6" y2="89.3" opacity="1.0" stroke="rgb(0,0,0)" stroke-width="2.0"></line>
<line x1="100.0" y1="143.9" x2="60.0" y2="143.9" opacity="1.0" stroke="rgb(0,0,0)" stroke-width="2.0"></line>
<line x1="60.0" y1="143.9" x2="46.6" y2="120.7" opacity="1.0" stroke="rgb(0,0,0)" stroke-width="2.0"></line>
<line x1="63.2" y1="135.1" x2="53.8" y2="118.8" opacity="1.0" stroke="rgb(0,0,0)" stroke-width="2.0"></line>
<line x1="46.5" y1="98.0" x2="60.0" y2="74.6" opacity="1.0" stroke="rgb(0,0,0)" stroke-width="2.0"></line>
<line x1="60.0" y1="74.6" x2="100.0" y2="74.6" opacity="1.0" stroke="rgb(0,0,0)" stroke-width="2.0"></line>
<line x1="66.0" y1="81.8" x2="94.0" y2="81.8" opacity="1.0" stroke="rgb(0,0,0)" stroke-width="2.0"></line>
<line x1="100.0" y1="74.6" x2="120.0" y2="109.3" opacity="1.0" stroke="rgb(0,0,0)" stroke-width="2.0"></line>
<line x1="120.0" y1="109.3" x2="100.0" y2="143.9" opacity="1.0" stroke="rgb(0,0,0)" stroke-width="2.0"></line>
<line x1="110.8" y1="110.9" x2="96.8" y2="135.1" opacity="1.0" stroke="rgb(0,0,0)" stroke-width="2.0"></line>
<text x="177.512667" y="149.644473" fill="rgb(0,0,0)" stroke="rgb(0,0,0)" stroke-width="1" font-size="16">N</text>
<text x="22.000000" y="48.000000" fill="rgb(0,0,0)" stroke="rgb(0,0,0)" stroke-width="1" font-size="16">Cl</text>
<text x="34.000000" y="117.284322" fill="rgb(0,0,0)" stroke="rgb(0,0,0)" stroke-width="1" font-size="16">N</text>
<text x="321.477328" y="77.284136" fill="rgb(0,0,0)" stroke="rgb(0,0,0)" stroke-width="1" font-size="16">CH</text>
<text x="345.477328" y="80.964136" fill="rgb(0,0,0)" stroke="rgb(0,0,0)" stroke-width="1" font-size="13">3</text>
<text x="177.512667" y="84.924172" fill="rgb(0,0,0)" stroke="rgb(0,0,0)" stroke-width="1" font-size="16">S</text>
</svg>
</g>
</svg>
