
<svg version="1.1" id="topsvg" xmlns="http://www.w3.org/2000/svg" x="0" y="0" width="200px" height="200px" viewBox="0 0 100 100" xmlns:xlink="http://www.w3.org/1999/xlink">
<title> - Open Babel Depiction</title>
<rect x="0" y="0" width="100" height="100" fill="white"></rect>
<g transform="translate(0,0)">
<svg width="100" height="100" x="0" y="0" viewBox="0 0 315.247 154.044" font-family="sans-serif" stroke="#000000" stroke-width="2" stroke-linecap="round">
<line x1="104.7" y1="78.0" x2="142.8" y2="90.4" opacity="1.0" stroke="#000000" stroke-width="2.0"></line>
<line x1="209.6" y1="78.9" x2="171.6" y2="66.5" opacity="1.0" stroke="#000000" stroke-width="2.0"></line>
<line x1="211.5" y1="73.1" x2="173.4" y2="60.8" opacity="1.0" stroke="#000000" stroke-width="2.0"></line>
<line x1="172.5" y1="63.6" x2="142.8" y2="90.4" opacity="1.0" stroke="#000000" stroke-width="2.0"></line>
<line x1="218.9" y1="101.7" x2="210.5" y2="76.0" opacity="1.0" stroke="#000000" stroke-width="2.0"></line>
<line x1="210.5" y1="76.0" x2="232.4" y2="60.1" opacity="1.0" stroke="#000000" stroke-width="2.0"></line>
<line x1="253.4" y1="60.1" x2="275.2" y2="76.0" opacity="1.0" stroke="#000000" stroke-width="2.0"></line>
<line x1="275.2" y1="76.0" x2="262.9" y2="114.0" opacity="1.0" stroke="#000000" stroke-width="2.0"></line>
<line x1="262.9" y1="114.0" x2="235.9" y2="114.0" opacity="1.0" stroke="#000000" stroke-width="2.0"></line>
<line x1="40.0" y1="78.0" x2="52.4" y2="40.0" opacity="1.0" stroke="#000000" stroke-width="2.0"></line>
<line x1="52.4" y1="40.0" x2="79.4" y2="40.0" opacity="1.0" stroke="#000000" stroke-width="2.0"></line>
<line x1="96.4" y1="52.4" x2="104.7" y2="78.0" opacity="1.0" stroke="#000000" stroke-width="2.0"></line>
<line x1="104.7" y1="78.0" x2="82.9" y2="93.9" opacity="1.0" stroke="#000000" stroke-width="2.0"></line>
<line x1="61.8" y1="93.9" x2="40.0" y2="78.0" opacity="1.0" stroke="#000000" stroke-width="2.0"></line>
<text x="216.887568" y="122.043825" fill="#000000" stroke="#000000" stroke-width="1" font-size="16">S</text>
<text x="236.887521" y="60.487970" fill="#000000" stroke="#000000" stroke-width="1" font-size="16">S</text>
<text x="86.359876" y="48.000000" fill="#000000" stroke="#000000" stroke-width="1" font-size="16">S</text>
<text x="66.359924" y="109.555855" fill="#000000" stroke="#000000" stroke-width="1" font-size="16">S</text>
</svg>
</g>
</svg>
