
<svg version="1.1" id="topsvg" xmlns="http://www.w3.org/2000/svg" x="0" y="0" width="200px" height="200px" viewBox="0 0 100 100" xmlns:xlink="http://www.w3.org/1999/xlink">
<title> - Open Babel Depiction</title>
<rect x="0" y="0" width="100" height="100" fill="white"></rect>
<g transform="translate(0,0)">
<svg width="100" height="100" x="0" y="0" viewBox="0 0 223.796 147.161" font-family="sans-serif" stroke-width="2" stroke-linecap="round">
<line x1="51.3" y1="80.9" x2="74.2" y2="67.7" opacity="1.0" stroke-width="2.0"></line>
<line x1="74.2" y1="67.7" x2="80.0" y2="94.5" opacity="1.0" stroke-width="2.0"></line>
<line x1="74.2" y1="67.7" x2="54.9" y2="49.0" opacity="1.0" stroke-width="2.0"></line>
<line x1="74.2" y1="67.7" x2="93.3" y2="56.5" opacity="1.0" stroke-width="2.0"></line>
<line x1="116.7" y1="54.3" x2="131.4" y2="59.6" opacity="1.0" stroke-width="2.0"></line>
<line x1="154.5" y1="56.3" x2="170.6" y2="49.6" opacity="1.0" stroke-width="2.0"></line>
<line x1="156.8" y1="61.8" x2="173.0" y2="55.1" opacity="1.0" stroke-width="2.0"></line>
<text x="14.000000" y="95.408721" stroke-width="1" font-size="16">H</text>
<text x="26.000000" y="99.088721" stroke-width="1" font-size="13">3</text>
<text x="32.500000" y="95.408721" stroke-width="1" font-size="16">C</text>
<text x="78.745568" y="115.161359" stroke-width="1" font-size="16">CH</text>
<text x="102.745568" y="118.841359" stroke-width="1" font-size="13">3</text>
<text x="19.571870" y="48.000000" stroke-width="1" font-size="16">H</text>
<text x="31.571870" y="51.680000" stroke-width="1" font-size="13">3</text>
<text x="38.071870" y="48.000000" stroke-width="1" font-size="16">C</text>
<text x="98.475064" y="57.876319" stroke-width="1" font-size="16">O</text>
<text x="137.629606" y="72.077014" stroke-width="1" font-size="16">N</text>
<text x="177.796491" y="55.337491" stroke-width="1" font-size="16">O</text>
</svg>
</g>
</svg>
