
<svg version="1.1" id="topsvg" xmlns="http://www.w3.org/2000/svg" x="0" y="0" width="200px" height="200px" viewBox="0 0 100 100" xmlns:xlink="http://www.w3.org/1999/xlink">
<title> - Open Babel Depiction</title>
<rect x="0" y="0" width="100" height="100" fill="white"></rect>
<g transform="translate(0,0)">
<svg width="100" height="100" x="0" y="0" viewBox="0 0 253.206 199.999" font-family="sans-serif" stroke="#000000" stroke-width="2" stroke-linecap="round">
<line x1="178.6" y1="60.0" x2="201.9" y2="46.5" opacity="1.0" stroke="#000000" stroke-width="2.0"></line>
<line x1="180.1" y1="97.4" x2="203.4" y2="110.9" opacity="1.0" stroke="#000000" stroke-width="2.0"></line>
<line x1="177.1" y1="102.6" x2="200.4" y2="116.1" opacity="1.0" stroke="#000000" stroke-width="2.0"></line>
<line x1="213.2" y1="133.0" x2="213.2" y2="147.0" opacity="1.0" stroke="#000000" stroke-width="2.0"></line>
<line x1="109.3" y1="60.0" x2="109.3" y2="100.0" opacity="1.0" stroke="#000000" stroke-width="2.0"></line>
<line x1="102.1" y1="66.0" x2="102.1" y2="94.0" opacity="1.0" stroke="#000000" stroke-width="2.0"></line>
<line x1="109.3" y1="100.0" x2="74.6" y2="120.0" opacity="1.0" stroke="#000000" stroke-width="2.0"></line>
<line x1="74.6" y1="120.0" x2="40.0" y2="100.0" opacity="1.0" stroke="#000000" stroke-width="2.0"></line>
<line x1="73.0" y1="110.8" x2="48.8" y2="96.8" opacity="1.0" stroke="#000000" stroke-width="2.0"></line>
<line x1="40.0" y1="100.0" x2="40.0" y2="60.0" opacity="1.0" stroke="#000000" stroke-width="2.0"></line>
<line x1="40.0" y1="60.0" x2="74.6" y2="40.0" opacity="1.0" stroke="#000000" stroke-width="2.0"></line>
<line x1="48.8" y1="63.2" x2="73.0" y2="49.2" opacity="1.0" stroke="#000000" stroke-width="2.0"></line>
<line x1="74.6" y1="40.0" x2="109.3" y2="60.0" opacity="1.0" stroke="#000000" stroke-width="2.0"></line>
<line x1="178.6" y1="100.0" x2="155.2" y2="113.5" opacity="1.0" stroke="#000000" stroke-width="2.0"></line>
<line x1="132.7" y1="113.5" x2="109.3" y2="100.0" opacity="1.0" stroke="#000000" stroke-width="2.0"></line>
<line x1="109.3" y1="60.0" x2="132.7" y2="46.5" opacity="1.0" stroke="#000000" stroke-width="2.0"></line>
<line x1="155.4" y1="46.6" x2="178.6" y2="60.0" opacity="1.0" stroke="#000000" stroke-width="2.0"></line>
<line x1="153.5" y1="53.8" x2="169.8" y2="63.2" opacity="1.0" stroke="#000000" stroke-width="2.0"></line>
<line x1="178.6" y1="60.0" x2="178.6" y2="100.0" opacity="1.0" stroke="#000000" stroke-width="2.0"></line>
<text x="137.923062" y="48.000000" fill="#000000" stroke="#000000" stroke-width="1" font-size="16">N</text>
<text x="137.919062" y="127.999278" fill="#000000" stroke="#000000" stroke-width="1" font-size="16">N</text>
<text x="137.919062" y="143.999278" fill="#000000" stroke="#000000" stroke-width="1" font-size="16">H</text>
<text x="207.206436" y="48.000000" fill="#000000" stroke="#000000" stroke-width="1" font-size="16">Cl</text>
<text x="207.206436" y="127.999278" fill="#000000" stroke="#000000" stroke-width="1" font-size="16">N</text>
<text x="209.206436" y="167.998916" fill="#000000" stroke="#000000" stroke-width="1" font-size="16">NH</text>
<text x="233.206436" y="171.678916" fill="#000000" stroke="#000000" stroke-width="1" font-size="13">2</text>
</svg>
</g>
</svg>
