
<svg version="1.1" id="topsvg" xmlns="http://www.w3.org/2000/svg" x="0" y="0" width="200px" height="200px" viewBox="0 0 100 100" xmlns:xlink="http://www.w3.org/1999/xlink">
<title> - Open Babel Depiction</title>
<rect x="0" y="0" width="100" height="100" fill="white"></rect>
<g transform="translate(0,0)">
<svg width="100" height="100" x="0" y="0" viewBox="0 0 287.846 200.001" font-family="sans-serif" stroke="rgb(0,0,0)" stroke-width="2" stroke-linecap="round">
<line x1="74.6" y1="140.0" x2="51.3" y2="153.5" opacity="1.0" stroke="rgb(0,0,0)" stroke-width="2.0"></line>
<line x1="143.9" y1="100.0" x2="167.3" y2="86.5" opacity="1.0" stroke="rgb(0,0,0)" stroke-width="2.0"></line>
<line x1="188.3" y1="70.9" x2="200.4" y2="63.9" opacity="1.0" stroke="rgb(0,0,0)" stroke-width="2.0"></line>
<line x1="191.3" y1="76.1" x2="203.4" y2="69.1" opacity="1.0" stroke="rgb(0,0,0)" stroke-width="2.0"></line>
<line x1="223.0" y1="50.9" x2="235.1" y2="43.9" opacity="1.0" stroke="rgb(0,0,0)" stroke-width="2.0"></line>
<line x1="226.0" y1="56.1" x2="238.1" y2="49.1" opacity="1.0" stroke="rgb(0,0,0)" stroke-width="2.0"></line>
<line x1="143.9" y1="100.0" x2="143.9" y2="140.0" opacity="1.0" stroke="rgb(0,0,0)" stroke-width="2.0"></line>
<line x1="136.7" y1="106.0" x2="136.7" y2="134.0" opacity="1.0" stroke="rgb(0,0,0)" stroke-width="2.0"></line>
<line x1="143.9" y1="140.0" x2="109.3" y2="160.0" opacity="1.0" stroke="rgb(0,0,0)" stroke-width="2.0"></line>
<line x1="109.3" y1="160.0" x2="74.6" y2="140.0" opacity="1.0" stroke="rgb(0,0,0)" stroke-width="2.0"></line>
<line x1="107.7" y1="150.8" x2="83.4" y2="136.8" opacity="1.0" stroke="rgb(0,0,0)" stroke-width="2.0"></line>
<line x1="74.6" y1="140.0" x2="74.6" y2="100.0" opacity="1.0" stroke="rgb(0,0,0)" stroke-width="2.0"></line>
<line x1="74.6" y1="100.0" x2="109.3" y2="80.0" opacity="1.0" stroke="rgb(0,0,0)" stroke-width="2.0"></line>
<line x1="83.4" y1="103.2" x2="107.7" y2="89.2" opacity="1.0" stroke="rgb(0,0,0)" stroke-width="2.0"></line>
<line x1="109.3" y1="80.0" x2="143.9" y2="100.0" opacity="1.0" stroke="rgb(0,0,0)" stroke-width="2.0"></line>
<text x="34.000000" y="168.001073" fill="rgb(0,0,0)" stroke="rgb(0,0,0)" stroke-width="1" font-size="16">F</text>
<text x="172.561239" y="88.000358" fill="rgb(0,0,0)" stroke="rgb(0,0,0)" stroke-width="1" font-size="16">N</text>
<text x="218.005548" y="55.968179" fill="rgb(0,0,0)" stroke="rgb(0,0,0)" stroke-width="1" font-size="16">+</text>
<text x="207.205548" y="68.000179" fill="rgb(0,0,0)" stroke="rgb(0,0,0)" stroke-width="1" font-size="16">N</text>
<text x="252.645858" y="25.888000" fill="rgb(0,0,0)" stroke="rgb(0,0,0)" stroke-width="1" font-size="16">_</text>
<text x="241.845858" y="48.000000" fill="rgb(0,0,0)" stroke="rgb(0,0,0)" stroke-width="1" font-size="16">N</text>
</svg>
</g>
</svg>
