<?xml version="1.0"?>
<svg version="1.1" id="topsvg"
xmlns="http://www.w3.org/2000/svg" xmlns:xlink="http://www.w3.org/1999/xlink"
xmlns:cml="http://www.xml-cml.org/schema" x="0" y="0" width="200px" height="200px" viewBox="0 0 100 100">
<title> - Open Babel Depiction</title>
<rect x="0" y="0" width="100" height="100" fill="white"/>
<g transform="translate(0,0)">
<svg width="100" height="100" x="0" y="0" viewBox="0 0 394.756 420.977"
font-family="sans-serif" stroke="rgb(0,0,0)" stroke-width="2"  stroke-linecap="round">
<line x1="213.9" y1="262.5" x2="219.0" y2="289.1" opacity="1.0" stroke="rgb(0,0,0)"  stroke-width="2.0"/>
<line x1="219.0" y1="289.1" x2="188.6" y2="315.3" opacity="1.0" stroke="rgb(0,0,0)"  stroke-width="2.0"/>
<line x1="188.6" y1="315.3" x2="196.2" y2="354.8" opacity="1.0" stroke="rgb(0,0,0)"  stroke-width="2.0"/>
<line x1="196.2" y1="354.8" x2="175.6" y2="372.5" opacity="1.0" stroke="rgb(0,0,0)"  stroke-width="2.0"/>
<line x1="109.5" y1="193.5" x2="74.8" y2="173.4" opacity="1.0" stroke="rgb(0,0,0)"  stroke-width="2.0"/>
<line x1="218.3" y1="185.1" x2="234.6" y2="148.5" opacity="1.0" stroke="rgb(0,0,0)"  stroke-width="2.0"/>
<line x1="234.6" y1="148.5" x2="274.5" y2="144.3" opacity="1.0" stroke="rgb(0,0,0)"  stroke-width="2.0"/>
<line x1="232.2" y1="150.2" x2="216.2" y2="128.3" opacity="1.0" stroke="rgb(0,0,0)"  stroke-width="2.0"/>
<line x1="237.0" y1="146.7" x2="221.1" y2="124.7" opacity="1.0" stroke="rgb(0,0,0)"  stroke-width="2.0"/>
<line x1="74.8" y1="173.4" x2="51.3" y2="159.8" opacity="1.0" stroke="rgb(0,0,0)"  stroke-width="2.0"/>
<line x1="72.7" y1="177.0" x2="49.2" y2="163.5" opacity="1.0" stroke="rgb(0,0,0)"  stroke-width="2.0"/>
<line x1="76.9" y1="169.8" x2="53.4" y2="156.2" opacity="1.0" stroke="rgb(0,0,0)"  stroke-width="2.0"/>
<line x1="238.3" y1="219.9" x2="220.2" y2="240.0" opacity="1.0" stroke="rgb(0,0,0)"  stroke-width="2.0"/>
<line x1="199.8" y1="243.9" x2="179.0" y2="233.6" opacity="1.0" stroke="rgb(0,0,0)"  stroke-width="2.0"/>
<line x1="179.0" y1="233.6" x2="179.0" y2="193.5" opacity="1.0" stroke="rgb(0,0,0)"  stroke-width="2.0"/>
<line x1="186.2" y1="227.6" x2="186.2" y2="199.5" opacity="1.0" stroke="rgb(0,0,0)"  stroke-width="2.0"/>
<line x1="179.0" y1="193.5" x2="218.3" y2="185.1" opacity="1.0" stroke="rgb(0,0,0)"  stroke-width="2.0"/>
<line x1="218.3" y1="185.1" x2="238.3" y2="219.9" opacity="1.0" stroke="rgb(0,0,0)"  stroke-width="2.0"/>
<line x1="215.0" y1="193.9" x2="229.1" y2="218.3" opacity="1.0" stroke="rgb(0,0,0)"  stroke-width="2.0"/>
<line x1="179.0" y1="233.6" x2="144.3" y2="253.7" opacity="1.0" stroke="rgb(0,0,0)"  stroke-width="2.0"/>
<line x1="144.3" y1="253.7" x2="109.5" y2="233.6" opacity="1.0" stroke="rgb(0,0,0)"  stroke-width="2.0"/>
<line x1="142.7" y1="244.4" x2="118.3" y2="230.4" opacity="1.0" stroke="rgb(0,0,0)"  stroke-width="2.0"/>
<line x1="109.5" y1="233.6" x2="109.5" y2="193.5" opacity="1.0" stroke="rgb(0,0,0)"  stroke-width="2.0"/>
<line x1="109.5" y1="193.5" x2="144.3" y2="173.4" opacity="1.0" stroke="rgb(0,0,0)"  stroke-width="2.0"/>
<line x1="118.3" y1="196.7" x2="142.7" y2="182.6" opacity="1.0" stroke="rgb(0,0,0)"  stroke-width="2.0"/>
<line x1="144.3" y1="173.4" x2="179.0" y2="193.5" opacity="1.0" stroke="rgb(0,0,0)"  stroke-width="2.0"/>
<line x1="294.6" y1="109.5" x2="334.7" y2="109.5" opacity="1.0" stroke="rgb(0,0,0)"  stroke-width="2.0"/>
<line x1="334.7" y1="109.5" x2="354.8" y2="144.3" opacity="1.0" stroke="rgb(0,0,0)"  stroke-width="2.0"/>
<line x1="354.8" y1="144.3" x2="334.7" y2="179.0" opacity="1.0" stroke="rgb(0,0,0)"  stroke-width="2.0"/>
<line x1="345.5" y1="145.9" x2="331.5" y2="170.2" opacity="1.0" stroke="rgb(0,0,0)"  stroke-width="2.0"/>
<line x1="334.7" y1="179.0" x2="294.6" y2="179.0" opacity="1.0" stroke="rgb(0,0,0)"  stroke-width="2.0"/>
<line x1="294.6" y1="179.0" x2="274.5" y2="144.3" opacity="1.0" stroke="rgb(0,0,0)"  stroke-width="2.0"/>
<line x1="297.8" y1="170.2" x2="283.7" y2="145.9" opacity="1.0" stroke="rgb(0,0,0)"  stroke-width="2.0"/>
<line x1="274.5" y1="144.3" x2="294.6" y2="109.5" opacity="1.0" stroke="rgb(0,0,0)"  stroke-width="2.0"/>
<line x1="334.7" y1="40.0" x2="354.8" y2="74.8" opacity="1.0" stroke="rgb(0,0,0)"  stroke-width="2.0"/>
<line x1="354.8" y1="74.8" x2="334.7" y2="109.5" opacity="1.0" stroke="rgb(0,0,0)"  stroke-width="2.0"/>
<line x1="345.5" y1="76.4" x2="331.5" y2="100.7" opacity="1.0" stroke="rgb(0,0,0)"  stroke-width="2.0"/>
<line x1="294.6" y1="109.5" x2="274.5" y2="74.8" opacity="1.0" stroke="rgb(0,0,0)"  stroke-width="2.0"/>
<line x1="297.8" y1="100.7" x2="283.7" y2="76.4" opacity="1.0" stroke="rgb(0,0,0)"  stroke-width="2.0"/>
<line x1="274.5" y1="74.8" x2="294.6" y2="40.0" opacity="1.0" stroke="rgb(0,0,0)"  stroke-width="2.0"/>
<line x1="294.6" y1="40.0" x2="334.7" y2="40.0" opacity="1.0" stroke="rgb(0,0,0)"  stroke-width="2.0"/>
<line x1="300.6" y1="47.2" x2="328.7" y2="47.2" opacity="1.0" stroke="rgb(0,0,0)"  stroke-width="2.0"/>
<text x="34.000000" y="161.332505" fill="rgb(0,0,0)"  stroke="rgb(0,0,0)" stroke-width="1" font-size="16" >N</text>
<text x="204.997971" y="123.992410" fill="rgb(0,0,0)"  stroke="rgb(0,0,0)" stroke-width="1" font-size="16" >O</text>
<text x="139.780541" y="388.976664" fill="rgb(0,0,0)"  stroke="rgb(0,0,0)" stroke-width="1" font-size="16" >H</text>
<text x="151.780541" y="392.656664" fill="rgb(0,0,0)"  stroke="rgb(0,0,0)" stroke-width="1" font-size="13" >3</text>
<text x="158.280541" y="388.976664" fill="rgb(0,0,0)"  stroke="rgb(0,0,0)" stroke-width="1" font-size="16" >C</text>
<text x="205.475507" y="257.690416" fill="rgb(0,0,0)"  stroke="rgb(0,0,0)" stroke-width="1" font-size="16" >N</text>
</svg>
</g>
</svg>
