
<svg version="1.1" id="topsvg" xmlns="http://www.w3.org/2000/svg" x="0" y="0" width="200px" height="200px" viewBox="0 0 100 100" xmlns:xlink="http://www.w3.org/1999/xlink">
<title> - Open Babel Depiction</title>
<rect x="0" y="0" width="100" height="100" fill="white"></rect>
<g transform="translate(0,0)">
<svg width="100" height="100" x="0" y="0" viewBox="0 0 183.922 220.002" font-family="sans-serif" stroke="rgb(0,0,0)" stroke-width="2" stroke-linecap="round">
<line x1="74.6" y1="100.0" x2="74.6" y2="60.0" opacity="1.0" stroke="rgb(0,0,0)" stroke-width="2.0"></line>
<line x1="74.6" y1="60.0" x2="98.0" y2="46.5" opacity="1.0" stroke="rgb(0,0,0)" stroke-width="2.0"></line>
<line x1="73.1" y1="62.6" x2="49.8" y2="49.1" opacity="1.0" stroke="rgb(0,0,0)" stroke-width="2.0"></line>
<line x1="76.1" y1="57.4" x2="52.8" y2="43.9" opacity="1.0" stroke="rgb(0,0,0)" stroke-width="2.0"></line>
<line x1="109.3" y1="120.0" x2="132.7" y2="106.5" opacity="1.0" stroke="rgb(0,0,0)" stroke-width="2.0"></line>
<line x1="109.3" y1="120.0" x2="109.3" y2="160.0" opacity="1.0" stroke="rgb(0,0,0)" stroke-width="2.0"></line>
<line x1="102.1" y1="126.0" x2="102.1" y2="154.0" opacity="1.0" stroke="rgb(0,0,0)" stroke-width="2.0"></line>
<line x1="109.3" y1="160.0" x2="74.6" y2="180.0" opacity="1.0" stroke="rgb(0,0,0)" stroke-width="2.0"></line>
<line x1="74.6" y1="180.0" x2="40.0" y2="160.0" opacity="1.0" stroke="rgb(0,0,0)" stroke-width="2.0"></line>
<line x1="73.0" y1="170.8" x2="48.8" y2="156.8" opacity="1.0" stroke="rgb(0,0,0)" stroke-width="2.0"></line>
<line x1="40.0" y1="160.0" x2="40.0" y2="120.0" opacity="1.0" stroke="rgb(0,0,0)" stroke-width="2.0"></line>
<line x1="40.0" y1="120.0" x2="74.6" y2="100.0" opacity="1.0" stroke="rgb(0,0,0)" stroke-width="2.0"></line>
<line x1="48.8" y1="123.2" x2="73.0" y2="109.2" opacity="1.0" stroke="rgb(0,0,0)" stroke-width="2.0"></line>
<line x1="74.6" y1="100.0" x2="109.3" y2="120.0" opacity="1.0" stroke="rgb(0,0,0)" stroke-width="2.0"></line>
<text x="103.281067" y="48.000000" fill="rgb(0,0,0)" stroke="rgb(0,0,0)" stroke-width="1" font-size="16">H</text>
<text x="34.000000" y="48.000000" fill="rgb(0,0,0)" stroke="rgb(0,0,0)" stroke-width="1" font-size="16">O</text>
<text x="137.921600" y="108.000924" fill="rgb(0,0,0)" stroke="rgb(0,0,0)" stroke-width="1" font-size="16">OH</text>
</svg>
</g>
</svg>
