
<svg version="1.1" id="topsvg" xmlns="http://www.w3.org/2000/svg" x="0" y="0" width="200px" height="200px" viewBox="0 0 100 100" xmlns:xlink="http://www.w3.org/1999/xlink">
<title> - Open Babel Depiction</title>
<rect x="0" y="0" width="100" height="100" fill="white"></rect>
<g transform="translate(0,0)">
<svg width="100" height="100" x="0" y="0" viewBox="0 0 370.836 218.568" font-family="sans-serif" stroke="rgb(0,0,0)" stroke-width="2" stroke-linecap="round">
<line x1="170.8" y1="109.3" x2="210.8" y2="109.3" opacity="1.0" stroke="rgb(0,0,0)" stroke-width="2.0"></line>
<line x1="270.8" y1="74.6" x2="284.3" y2="51.3" opacity="1.0" stroke="rgb(0,0,0)" stroke-width="2.0"></line>
<line x1="290.8" y1="109.3" x2="317.8" y2="109.3" opacity="1.0" stroke="rgb(0,0,0)" stroke-width="2.0"></line>
<line x1="270.8" y1="143.9" x2="284.3" y2="167.3" opacity="1.0" stroke="rgb(0,0,0)" stroke-width="2.0"></line>
<line x1="170.8" y1="109.3" x2="155.1" y2="87.6" opacity="1.0" stroke="rgb(0,0,0)" stroke-width="2.0"></line>
<line x1="161.5" y1="108.7" x2="150.4" y2="93.5" opacity="1.0" stroke="rgb(0,0,0)" stroke-width="2.0"></line>
<line x1="135.0" y1="80.9" x2="109.3" y2="89.3" opacity="1.0" stroke="rgb(0,0,0)" stroke-width="2.0"></line>
<line x1="109.3" y1="89.3" x2="109.3" y2="129.3" opacity="1.0" stroke="rgb(0,0,0)" stroke-width="2.0"></line>
<line x1="116.5" y1="95.3" x2="116.5" y2="123.3" opacity="1.0" stroke="rgb(0,0,0)" stroke-width="2.0"></line>
<line x1="109.3" y1="129.3" x2="135.0" y2="137.6" opacity="1.0" stroke="rgb(0,0,0)" stroke-width="2.0"></line>
<line x1="155.0" y1="131.1" x2="170.8" y2="109.3" opacity="1.0" stroke="rgb(0,0,0)" stroke-width="2.0"></line>
<line x1="109.3" y1="89.3" x2="74.6" y2="69.3" opacity="1.0" stroke="rgb(0,0,0)" stroke-width="2.0"></line>
<line x1="74.6" y1="69.3" x2="40.0" y2="89.3" opacity="1.0" stroke="rgb(0,0,0)" stroke-width="2.0"></line>
<line x1="73.0" y1="78.5" x2="48.8" y2="92.5" opacity="1.0" stroke="rgb(0,0,0)" stroke-width="2.0"></line>
<line x1="40.0" y1="89.3" x2="40.0" y2="129.3" opacity="1.0" stroke="rgb(0,0,0)" stroke-width="2.0"></line>
<line x1="40.0" y1="129.3" x2="74.6" y2="149.3" opacity="1.0" stroke="rgb(0,0,0)" stroke-width="2.0"></line>
<line x1="48.8" y1="126.0" x2="73.0" y2="140.0" opacity="1.0" stroke="rgb(0,0,0)" stroke-width="2.0"></line>
<line x1="74.6" y1="149.3" x2="109.3" y2="129.3" opacity="1.0" stroke="rgb(0,0,0)" stroke-width="2.0"></line>
<line x1="230.8" y1="74.6" x2="270.8" y2="74.6" opacity="1.0" stroke="rgb(0,0,0)" stroke-width="2.0"></line>
<line x1="236.8" y1="81.8" x2="264.8" y2="81.8" opacity="1.0" stroke="rgb(0,0,0)" stroke-width="2.0"></line>
<line x1="270.8" y1="74.6" x2="290.8" y2="109.3" opacity="1.0" stroke="rgb(0,0,0)" stroke-width="2.0"></line>
<line x1="290.8" y1="109.3" x2="270.8" y2="143.9" opacity="1.0" stroke="rgb(0,0,0)" stroke-width="2.0"></line>
<line x1="281.6" y1="110.9" x2="267.6" y2="135.1" opacity="1.0" stroke="rgb(0,0,0)" stroke-width="2.0"></line>
<line x1="270.8" y1="143.9" x2="230.8" y2="143.9" opacity="1.0" stroke="rgb(0,0,0)" stroke-width="2.0"></line>
<line x1="230.8" y1="143.9" x2="210.8" y2="109.3" opacity="1.0" stroke="rgb(0,0,0)" stroke-width="2.0"></line>
<line x1="234.1" y1="135.1" x2="220.1" y2="110.9" opacity="1.0" stroke="rgb(0,0,0)" stroke-width="2.0"></line>
<line x1="210.8" y1="109.3" x2="230.8" y2="74.6" opacity="1.0" stroke="rgb(0,0,0)" stroke-width="2.0"></line>
<text x="284.836022" y="186.568012" fill="rgb(0,0,0)" stroke="rgb(0,0,0)" stroke-width="1" font-size="16">F</text>
<text x="324.836025" y="117.284006" fill="rgb(0,0,0)" stroke="rgb(0,0,0)" stroke-width="1" font-size="16">F</text>
<text x="284.836022" y="48.000000" fill="rgb(0,0,0)" stroke="rgb(0,0,0)" stroke-width="1" font-size="16">F</text>
<text x="141.324009" y="84.924003" fill="rgb(0,0,0)" stroke="rgb(0,0,0)" stroke-width="1" font-size="16">N</text>
<text x="141.324009" y="149.644009" fill="rgb(0,0,0)" stroke="rgb(0,0,0)" stroke-width="1" font-size="16">S</text>
</svg>
</g>
</svg>
