<?xml version="1.0"?>
<svg xmlns="http://www.w3.org/2000/svg" height="206.82447075" version="1.1" width="539.4236218588053" style="overflow: hidden; position: relative;" viewBox="0 0 559 226">
  <g transform="translate(-150, -154)">
    <defs style="-webkit-tap-highlight-color: rgba(0, 0, 0, 0);"/>
    <text x="-5.510562957288544" y="-92.57247074764457" text-anchor="middle" font="30px &quot;Arial&quot;" stroke="none" fill="#000000" style="-webkit-tap-highlight-color: rgba(0, 0, 0, 0); text-anchor: middle; font: 24px Arial;" font-size="24px" transform="matrix(1,0,0,1,371.8938,278.5888)">
      <tspan dy="8.497841752355427" style="-webkit-tap-highlight-color: rgba(0, 0, 0, 0);">O</tspan>
    </text>
    <text x="-5.510562957288544" y="-92.57247074764457" text-anchor="middle" font="30px &quot;Arial&quot;" stroke="none" fill="#000000" style="-webkit-tap-highlight-color: rgba(0, 0, 0, 0); text-anchor: middle; font: 24px Arial;" font-size="24px" transform="matrix(1,0,0,1,390.7094,278.5888)">
      <tspan dy="8.497841752355427" style="-webkit-tap-highlight-color: rgba(0, 0, 0, 0);">H</tspan>
    </text>
    <text x="-76.77386129181642" y="-51.43025862309209" text-anchor="middle" font="30px &quot;Arial&quot;" stroke="none" fill="#000000" style="-webkit-tap-highlight-color: rgba(0, 0, 0, 0); text-anchor: middle; font: 24px Arial;" font-size="24px" transform="matrix(1,0,0,1,371.8938,278.5888)">
      <tspan dy="8.499428876907913" style="-webkit-tap-highlight-color: rgba(0, 0, 0, 0);">N</tspan>
    </text>
    <text x="-183.66382185880525" y="10.283059563736632" text-anchor="middle" font="30px &quot;Arial&quot;" stroke="none" fill="#000000" style="-webkit-tap-highlight-color: rgba(0, 0, 0, 0); text-anchor: middle; font: 24px Arial;" font-size="24px" transform="matrix(1,0,0,1,371.8938,278.5888)">
      <tspan dy="8.493997063736632" style="-webkit-tap-highlight-color: rgba(0, 0, 0, 0);">C</tspan>
    </text>
    <text x="-183.66382185880525" y="10.283059563736632" text-anchor="middle" font="30px &quot;Arial&quot;" stroke="none" fill="#000000" style="-webkit-tap-highlight-color: rgba(0, 0, 0, 0); text-anchor: middle; font: 24px Arial;" font-size="24px" transform="matrix(1,0,0,1,343.45,278.5888)">
      <tspan dy="8.493997063736632" style="-webkit-tap-highlight-color: rgba(0, 0, 0, 0);">H</tspan>
    </text>
    <text x="-183.66382185880525" y="10.283059563736632" text-anchor="middle" font="30px &quot;Arial&quot;" stroke="none" fill="#000000" style="-webkit-tap-highlight-color: rgba(0, 0, 0, 0); text-anchor: middle; font: 17px Arial;" font-size="17px" transform="matrix(1,0,0,1,357.6719,283.9919)">
      <tspan dy="5.493997063736632" style="-webkit-tap-highlight-color: rgba(0, 0, 0, 0);">2</tspan>
    </text>
    <text x="101.37939760970029" y="10.283059563736632" text-anchor="middle" font="30px &quot;Arial&quot;" stroke="none" fill="#000000" style="-webkit-tap-highlight-color: rgba(0, 0, 0, 0); text-anchor: middle; font: 24px Arial;" font-size="24px" transform="matrix(1,0,0,1,371.8938,278.5888)">
      <tspan dy="8.493997063736632" style="-webkit-tap-highlight-color: rgba(0, 0, 0, 0);">N</tspan>
    </text>
    <text x="142.52160973425273" y="-20.57110606227624" text-anchor="middle" font="30px &quot;Arial&quot;" stroke="none" fill="#000000" style="-webkit-tap-highlight-color: rgba(0, 0, 0, 0); text-anchor: middle; font: 24px Arial;" font-size="24px" transform="matrix(1,0,0,1,371.8938,278.5888)">
      <tspan dy="8.49920643772376" style="-webkit-tap-highlight-color: rgba(0, 0, 0, 0);">H</tspan>
    </text>
    <text x="183.66382185880525" y="-20.57110606227624" text-anchor="middle" font="30px &quot;Arial&quot;" stroke="none" fill="#000000" style="-webkit-tap-highlight-color: rgba(0, 0, 0, 0); text-anchor: middle; font: 24px Arial;" font-size="24px" transform="matrix(1,0,0,1,371.8938,278.5888)">
      <tspan dy="8.49920643772376" style="-webkit-tap-highlight-color: rgba(0, 0, 0, 0);">Cl</tspan>
    </text>
    <text x="142.52160973425273" y="20.57110606227624" text-anchor="middle" font="30px &quot;Arial&quot;" stroke="none" fill="#000000" style="-webkit-tap-highlight-color: rgba(0, 0, 0, 0); text-anchor: middle; font: 24px Arial;" font-size="24px" transform="matrix(1,0,0,1,371.8938,278.5888)">
      <tspan dy="8.50079356227624" style="-webkit-tap-highlight-color: rgba(0, 0, 0, 0);">H</tspan>
    </text>
    <text x="183.66382185880525" y="20.57110606227624" text-anchor="middle" font="30px &quot;Arial&quot;" stroke="none" fill="#000000" style="-webkit-tap-highlight-color: rgba(0, 0, 0, 0); text-anchor: middle; font: 24px Arial;" font-size="24px" transform="matrix(1,0,0,1,371.8938,278.5888)">
      <tspan dy="8.50079356227624" style="-webkit-tap-highlight-color: rgba(0, 0, 0, 0);">Cl</tspan>
    </text>
    <path fill="none" stroke="#000000" d="M-5.19945185,-51.43025862L-5.82167407,-51.43025862M-4.57722962,-54.94915025L-6.44389629,-54.94915025M-3.9550074,-58.46804187L-7.06611851,-58.46804187M-3.33278518,-61.9869335L-7.68834074,-61.9869335M-2.71056296,-65.50582512L-8.31056296,-65.50582512M-2.08834074,-69.02471675L-8.93278518,-69.02471675M-1.46611851,-72.54360837L-9.5550074,-72.54360837M-0.84389629,-76.0625L-10.17722962,-76.0625" stroke-width="1.6" stroke-linecap="round" stroke-linejoin="round" style="-webkit-tap-highlight-color: rgba(0, 0, 0, 0); stroke-linecap: round; stroke-linejoin: round;" transform="matrix(1,0,0,1,371.8938,278.5888)"/>
    <path fill="none" stroke="#000000" d="M-5.51056296,-51.43025862L-41.14221212,-30.85915256" stroke-width="1.6" stroke-linecap="round" stroke-linejoin="round" style="-webkit-tap-highlight-color: rgba(0, 0, 0, 0); stroke-linecap: round; stroke-linejoin: round;" transform="matrix(1,0,0,1,371.8938,278.5888)"/>
    <path fill="#000000" stroke="#000000" d="M-41.14221212,-30.85915256L-45.80887879,10.28305956L-36.47554546,10.28305956Z" stroke-width="1.6" stroke-linecap="round" stroke-linejoin="round" style="-webkit-tap-highlight-color: rgba(0, 0, 0, 0); stroke-linecap: round; stroke-linejoin: round;" transform="matrix(1,0,0,1,371.8938,278.5888)"/>
    <path fill="none" stroke="#000000" d="M-41.14221212,10.28305956L-76.77386129,30.85915256" stroke-width="1.6" stroke-linecap="round" stroke-linejoin="round" style="-webkit-tap-highlight-color: rgba(0, 0, 0, 0); stroke-linecap: round; stroke-linejoin: round;" transform="matrix(1,0,0,1,371.8938,278.5888)"/>
    <path fill="none" stroke="#000000" d="M-76.77386129,30.85915256L-112.40052352,10.28305956" stroke-width="1.6" stroke-linecap="round" stroke-linejoin="round" style="-webkit-tap-highlight-color: rgba(0, 0, 0, 0); stroke-linecap: round; stroke-linejoin: round;" transform="matrix(1,0,0,1,371.8938,278.5888)"/>
    <path fill="none" stroke="#000000" d="M-112.40052352,10.28305956L-112.40052352,-30.85915256" stroke-width="1.6" stroke-linecap="round" stroke-linejoin="round" style="-webkit-tap-highlight-color: rgba(0, 0, 0, 0); stroke-linecap: round; stroke-linejoin: round;" transform="matrix(1,0,0,1,371.8938,278.5888)"/>
    <path fill="none" stroke="#000000" d="M-112.40052352,-30.85915256L-88.22433748,-44.81866648" stroke-width="1.6" stroke-linecap="round" stroke-linejoin="round" style="-webkit-tap-highlight-color: rgba(0, 0, 0, 0); stroke-linecap: round; stroke-linejoin: round;" transform="matrix(1,0,0,1,371.8938,278.5888)"/>
    <path fill="none" stroke="#000000" d="M-41.14221212,-30.85915256L-65.32244055,-44.81904651" stroke-width="1.6" stroke-linecap="round" stroke-linejoin="round" style="-webkit-tap-highlight-color: rgba(0, 0, 0, 0); stroke-linecap: round; stroke-linejoin: round;" transform="matrix(1,0,0,1,371.8938,278.5888)"/>
    <path fill="none" stroke="#000000" d="M-87.77730978,-36.04444974L-86.66612256,-35.30753675M-91.12783002,-33.40468423L-87.79426838,-31.19394527M-94.47835027,-30.76491872L-88.9224142,-27.08035379M-97.82887052,-28.12515322L-90.05056001,-22.96676231" stroke-width="1.6" stroke-linecap="round" stroke-linejoin="round" style="-webkit-tap-highlight-color: rgba(0, 0, 0, 0); stroke-linecap: round; stroke-linejoin: round;" transform="matrix(1,0,0,1,371.8938,278.5888)"/>
    <path fill="none" stroke="#000000" d="M-93.82917832,-25.71263584L-93.82917832,5.14152978" stroke-width="1.6" stroke-linecap="round" stroke-linejoin="round" style="-webkit-tap-highlight-color: rgba(0, 0, 0, 0); stroke-linecap: round; stroke-linejoin: round;" transform="matrix(1,0,0,1,371.8938,278.5888)"/>
    <path fill="none" stroke="#000000" d="M-76.56916891,30.72340543L-76.97855367,30.99489969M-78.06710125,27.57587774L-79.29525555,28.39036052M-79.5650336,24.42835006L-81.61195742,25.78582135M-81.06296594,21.28082237L-83.92865929,23.18128218M-82.56089829,18.13329468L-86.24536116,20.57674301M-84.05883063,14.98576699L-88.56206303,17.97220384M-85.55676298,11.83823931L-90.8787649,15.36766467M-87.05469532,8.69071162L-93.19546678,12.7631255M-88.55262767,5.54318393L-95.51216865,10.15858633M-90.05056001,2.39565624L-97.82887052,7.55404716" stroke-width="1.6" stroke-linecap="round" stroke-linejoin="round" style="-webkit-tap-highlight-color: rgba(0, 0, 0, 0); stroke-linecap: round; stroke-linejoin: round;" transform="matrix(1,0,0,1,371.8938,278.5888)"/>
    <path fill="#000000" stroke="#000000" d="M-112.40052352,10.28305956L-150.36585909,26.81790454L-145.69848629,34.90040058Z" stroke-width="1.6" stroke-linecap="round" stroke-linejoin="round" style="-webkit-tap-highlight-color: rgba(0, 0, 0, 0); stroke-linecap: round; stroke-linejoin: round;" transform="matrix(1,0,0,1,371.8938,278.5888)"/>
    <path fill="none" stroke="#000000" d="M-148.03217269,23.16076064L-168.87939579,11.12218227M-148.03217269,30.85915256L-172.2132335,16.89539372" stroke-width="1.6" stroke-linecap="round" stroke-linejoin="round" style="-webkit-tap-highlight-color: rgba(0, 0, 0, 0); stroke-linecap: round; stroke-linejoin: round;" transform="matrix(1,0,0,1,371.8938,278.5888)"/>
    <path fill="none" stroke="#000000" d="M-5.51056296,-51.43025862L30.11609928,-30.85915256" stroke-width="1.6" stroke-linecap="round" stroke-linejoin="round" style="-webkit-tap-highlight-color: rgba(0, 0, 0, 0); stroke-linecap: round; stroke-linejoin: round;" transform="matrix(1,0,0,1,371.8938,278.5888)"/>
    <path fill="none" stroke="#000000" d="M36.78276594,-27.01007254L65.74774844,-43.73233326M30.11609928,-30.85915256L65.74774844,-51.43025862" stroke-width="1.6" stroke-linecap="round" stroke-linejoin="round" style="-webkit-tap-highlight-color: rgba(0, 0, 0, 0); stroke-linecap: round; stroke-linejoin: round;" transform="matrix(1,0,0,1,371.8938,278.5888)"/>
    <path fill="none" stroke="#000000" d="M65.74774844,-51.43025862L101.37939761,-30.85915256" stroke-width="1.6" stroke-linecap="round" stroke-linejoin="round" style="-webkit-tap-highlight-color: rgba(0, 0, 0, 0); stroke-linecap: round; stroke-linejoin: round;" transform="matrix(1,0,0,1,371.8938,278.5888)"/>
    <path fill="none" stroke="#000000" d="M94.71273094,-27.01007254L94.71273094,-6.434375M101.37939761,-30.85915256L101.37939761,-6.434375" stroke-width="1.6" stroke-linecap="round" stroke-linejoin="round" style="-webkit-tap-highlight-color: rgba(0, 0, 0, 0); stroke-linecap: round; stroke-linejoin: round;" transform="matrix(1,0,0,1,371.8938,278.5888)"/>
    <path fill="none" stroke="#000000" d="M89.9319835,16.8935607L65.74774844,30.85915256" stroke-width="1.6" stroke-linecap="round" stroke-linejoin="round" style="-webkit-tap-highlight-color: rgba(0, 0, 0, 0); stroke-linecap: round; stroke-linejoin: round;" transform="matrix(1,0,0,1,371.8938,278.5888)"/>
    <path fill="none" stroke="#000000" d="M59.08108178,34.70776608L59.08108178,68.15228467M65.74774844,30.85915256L65.74774844,72.00136469" stroke-width="1.6" stroke-linecap="round" stroke-linejoin="round" style="-webkit-tap-highlight-color: rgba(0, 0, 0, 0); stroke-linecap: round; stroke-linejoin: round;" transform="matrix(1,0,0,1,371.8938,278.5888)"/>
    <path fill="none" stroke="#000000" d="M65.74774844,72.00136469L30.11609928,92.57247075" stroke-width="1.6" stroke-linecap="round" stroke-linejoin="round" style="-webkit-tap-highlight-color: rgba(0, 0, 0, 0); stroke-linecap: round; stroke-linejoin: round;" transform="matrix(1,0,0,1,371.8938,278.5888)"/>
    <path fill="none" stroke="#000000" d="M30.11633256,84.8744107L1.15610371,68.15255404M30.11609928,92.57247075L-5.51056296,72.00136469" stroke-width="1.6" stroke-linecap="round" stroke-linejoin="round" style="-webkit-tap-highlight-color: rgba(0, 0, 0, 0); stroke-linecap: round; stroke-linejoin: round;" transform="matrix(1,0,0,1,371.8938,278.5888)"/>
    <path fill="none" stroke="#000000" d="M-5.51056296,72.00136469L-5.51056296,30.85915256" stroke-width="1.6" stroke-linecap="round" stroke-linejoin="round" style="-webkit-tap-highlight-color: rgba(0, 0, 0, 0); stroke-linecap: round; stroke-linejoin: round;" transform="matrix(1,0,0,1,371.8938,278.5888)"/>
    <path fill="none" stroke="#000000" d="M1.15610371,34.7074967L30.1163326,17.98158622M-5.51056296,30.85915256L30.11609928,10.28305956" stroke-width="1.6" stroke-linecap="round" stroke-linejoin="round" style="-webkit-tap-highlight-color: rgba(0, 0, 0, 0); stroke-linecap: round; stroke-linejoin: round;" transform="matrix(1,0,0,1,371.8938,278.5888)"/>
    <path fill="none" stroke="#000000" d="M30.11609928,-30.85915256L30.11609928,10.28305956" stroke-width="1.6" stroke-linecap="round" stroke-linejoin="round" style="-webkit-tap-highlight-color: rgba(0, 0, 0, 0); stroke-linecap: round; stroke-linejoin: round;" transform="matrix(1,0,0,1,371.8938,278.5888)"/>
    <path fill="none" stroke="#000000" d="M65.74774844,30.85915256L30.11609928,10.28305956" stroke-width="1.6" stroke-linecap="round" stroke-linejoin="round" style="-webkit-tap-highlight-color: rgba(0, 0, 0, 0); stroke-linecap: round; stroke-linejoin: round;" transform="matrix(1,0,0,1,371.8938,278.5888)"/>
    <path fill="none" stroke="#000000" d="M154.403125,-20.57110606L169.128125,-20.57110606" stroke-width="1.6" stroke-linecap="round" stroke-linejoin="round" style="-webkit-tap-highlight-color: rgba(0, 0, 0, 0); stroke-linecap: round; stroke-linejoin: round;" transform="matrix(1,0,0,1,371.8938,278.5888)"/>
    <path fill="none" stroke="#000000" d="M154.403125,20.57110606L169.128125,20.57110606" stroke-width="1.6" stroke-linecap="round" stroke-linejoin="round" style="-webkit-tap-highlight-color: rgba(0, 0, 0, 0); stroke-linecap: round; stroke-linejoin: round;" transform="matrix(1,0,0,1,371.8938,278.5888)"/>
    <text x="147.316" y="-114.25200000000001" text-anchor="middle" font="30px &quot;Arial&quot;" stroke="none" fill="#000000" style="-webkit-tap-highlight-color: rgba(0, 0, 0, 0); text-anchor: middle; font: 24px Arial;" font-size="24px" transform="matrix(1,0,0,1,371.8938,278.5888)">
      <tspan dy="8.50581249999999" style="-webkit-tap-highlight-color: rgba(0, 0, 0, 0);">Chiral</tspan>
    </text>
  </g>
</svg>
