<?xml version="1.0"?>
<svg xmlns="http://www.w3.org/2000/svg" height="95.10350567003118" version="1.1" width="110.64090830250251" style="overflow: hidden; position: relative;" viewBox="0 0 130 115">
  <g transform="translate(-328, -212)">
    <defs style="-webkit-tap-highlight-color: rgba(0, 0, 0, 0);"/>
    <text x="35.32015481250251" y="28.086431960031163" text-anchor="middle" font="30px &quot;Arial&quot;" stroke="none" fill="#000000" style="-webkit-tap-highlight-color: rgba(0, 0, 0, 0); text-anchor: middle; font: 24px Arial;" font-size="24px" transform="matrix(1,0,0,1,353.332,258.7117)">
      <tspan dy="8.500494460031163" style="-webkit-tap-highlight-color: rgba(0, 0, 0, 0);">Cl</tspan>
    </text>
    <text x="4.678647823481801" y="2.3756864595917953" text-anchor="middle" font="30px &quot;Arial&quot;" stroke="none" fill="#000000" style="-webkit-tap-highlight-color: rgba(0, 0, 0, 0); text-anchor: middle; font: 24px Arial;" font-size="24px" transform="matrix(1,0,0,1,353.332,258.7117)">
      <tspan dy="8.492873959591796" style="-webkit-tap-highlight-color: rgba(0, 0, 0, 0);">Ir</tspan>
    </text>
    <text x="4.678647823481801" y="2.3756864595917953" text-anchor="middle" font="30px &quot;Arial&quot;" stroke="none" fill="#000000" style="-webkit-tap-highlight-color: rgba(0, 0, 0, 0); text-anchor: middle; font: 17px Arial;" font-size="17px" transform="matrix(1,0,0,1,371.2101,250.607)">
      <tspan dy="5.492873959591796" style="-webkit-tap-highlight-color: rgba(0, 0, 0, 0);">4&#x2013;</tspan>
    </text>
    <path fill="none" stroke="#000000" d="M21.53301184,16.51788462L14.48261316,10.60202004" stroke-width="1.6" stroke-linecap="round" stroke-linejoin="round" transform="matrix(1,0,0,1,353.332,258.7117)" style="-webkit-tap-highlight-color: rgba(0, 0, 0, 0); stroke-linecap: round; stroke-linejoin: round;"/>
    <path fill="none" stroke="#000000" d="M1.73898307,-14.29198704L-2.26902299,-37.01707371" stroke-width="1.6" stroke-linecap="round" stroke-linejoin="round" transform="matrix(1,0,0,1,353.332,258.7117)" style="-webkit-tap-highlight-color: rgba(0, 0, 0, 0); stroke-linecap: round; stroke-linejoin: round;"/>
    <path fill="none" stroke="#000000" d="M-2.26902299,-37.01707371L35.32015481,-23.33505904" stroke-width="1.6" stroke-linecap="round" stroke-linejoin="round" transform="matrix(1,0,0,1,353.332,258.7117)" style="-webkit-tap-highlight-color: rgba(0, 0, 0, 0); stroke-linecap: round; stroke-linejoin: round;"/>
    <path fill="none" stroke="#000000" d="M28.13033409,-17.30220789L35.32015481,-23.33505904" stroke-width="1.6" stroke-linecap="round" stroke-linejoin="round" transform="matrix(1,0,0,1,353.332,258.7117)" style="-webkit-tap-highlight-color: rgba(0, 0, 0, 0); stroke-linecap: round; stroke-linejoin: round;"/>
    <path fill="none" stroke="#000000" d="M-4.25620122,17.85192802L-15.32075349,37.01707371" stroke-width="1.6" stroke-linecap="round" stroke-linejoin="round" transform="matrix(1,0,0,1,353.332,258.7117)" style="-webkit-tap-highlight-color: rgba(0, 0, 0, 0); stroke-linecap: round; stroke-linejoin: round;"/>
    <path fill="none" stroke="#000000" d="M-15.32075349,37.01707371L-35.32015481,2.37568646" stroke-width="1.6" stroke-linecap="round" stroke-linejoin="round" transform="matrix(1,0,0,1,353.332,258.7117)" style="-webkit-tap-highlight-color: rgba(0, 0, 0, 0); stroke-linecap: round; stroke-linejoin: round;"/>
    <path fill="none" stroke="#000000" d="M-5.85625,2.37568646L-35.32015481,2.37568646" stroke-width="1.6" stroke-linecap="round" stroke-linejoin="round" transform="matrix(1,0,0,1,353.332,258.7117)" style="-webkit-tap-highlight-color: rgba(0, 0, 0, 0); stroke-linecap: round; stroke-linejoin: round;"/>
  </g>
</svg>
