<?xml version="1.0"?>
<svg xmlns="http://www.w3.org/2000/svg" height="130.00053176236867" version="1.1" width="616.6166692763256" style="overflow: hidden; position: relative;" viewBox="0 0 636 150">
  <g transform="translate(-53, -194)">
    <defs style="-webkit-tap-highlight-color: rgba(0, 0, 0, 0);"/>
    <text x="-118.55973062032795" y="-24.638936411732505" text-anchor="middle" font="30px &quot;Arial&quot;" stroke="none" fill="#000000" style="-webkit-tap-highlight-color: rgba(0, 0, 0, 0); text-anchor: middle; font: 24px Arial;" font-size="24px" transform="matrix(1,0,0,1,340.4386,254.2501)">
      <tspan dy="8.493876088267495" style="-webkit-tap-highlight-color: rgba(0, 0, 0, 0);">C</tspan>
    </text>
    <text x="-118.55973062032795" y="-24.638936411732505" text-anchor="middle" font="30px &quot;Arial&quot;" stroke="none" fill="#000000" style="-webkit-tap-highlight-color: rgba(0, 0, 0, 0); text-anchor: middle; font: 24px Arial;" font-size="24px" transform="matrix(1,0,0,1,358.5823,254.2501)">
      <tspan dy="8.493876088267495" style="-webkit-tap-highlight-color: rgba(0, 0, 0, 0);">H</tspan>
    </text>
    <text x="-118.55973062032795" y="-24.638936411732505" text-anchor="middle" font="30px &quot;Arial&quot;" stroke="none" fill="#000000" style="-webkit-tap-highlight-color: rgba(0, 0, 0, 0); text-anchor: middle; font: 17px Arial;" font-size="17px" transform="matrix(1,0,0,1,372.7886,259.6533)">
      <tspan dy="5.493876088267495" style="-webkit-tap-highlight-color: rgba(0, 0, 0, 0);">3</tspan>
    </text>
    <text x="-138.55886731816278" y="9.997144211135858" text-anchor="middle" font="30px &quot;Arial&quot;" stroke="none" fill="#000000" style="-webkit-tap-highlight-color: rgba(0, 0, 0, 0); text-anchor: middle; font: 24px Arial;" font-size="24px" transform="matrix(1,0,0,1,340.4386,254.2501)">
      <tspan dy="8.504956711135858" style="-webkit-tap-highlight-color: rgba(0, 0, 0, 0);">N</tspan>
    </text>
    <text x="-138.55886731816278" y="9.997144211135858" text-anchor="middle" font="30px &quot;Arial&quot;" stroke="none" fill="#000000" style="-webkit-tap-highlight-color: rgba(0, 0, 0, 0); text-anchor: middle; font: 17px Arial;" font-size="17px" transform="matrix(1,0,0,1,354.9182,246.1454)">
      <tspan dy="5.504956711135858" style="-webkit-tap-highlight-color: rgba(0, 0, 0, 0);">+</tspan>
    </text>
    <text x="277.11773463632557" y="9.997144211135858" text-anchor="middle" font="30px &quot;Arial&quot;" stroke="none" fill="#000000" style="-webkit-tap-highlight-color: rgba(0, 0, 0, 0); text-anchor: middle; font: 24px Arial;" font-size="24px" transform="matrix(1,0,0,1,340.4386,254.2501)">
      <tspan dy="8.504956711135858" style="-webkit-tap-highlight-color: rgba(0, 0, 0, 0);">C</tspan>
    </text>
    <text x="277.11773463632557" y="9.997144211135858" text-anchor="middle" font="30px &quot;Arial&quot;" stroke="none" fill="#000000" style="-webkit-tap-highlight-color: rgba(0, 0, 0, 0); text-anchor: middle; font: 24px Arial;" font-size="24px" transform="matrix(1,0,0,1,358.5979,254.2501)">
      <tspan dy="8.504956711135858" style="-webkit-tap-highlight-color: rgba(0, 0, 0, 0);">H</tspan>
    </text>
    <text x="277.11773463632557" y="9.997144211135858" text-anchor="middle" font="30px &quot;Arial&quot;" stroke="none" fill="#000000" style="-webkit-tap-highlight-color: rgba(0, 0, 0, 0); text-anchor: middle; font: 17px Arial;" font-size="17px" transform="matrix(1,0,0,1,372.8198,259.6533)">
      <tspan dy="5.504956711135858" style="-webkit-tap-highlight-color: rgba(0, 0, 0, 0);">3</tspan>
    </text>
    <text x="-158.55800401599762" y="-24.638936411732505" text-anchor="middle" font="30px &quot;Arial&quot;" stroke="none" fill="#000000" style="-webkit-tap-highlight-color: rgba(0, 0, 0, 0); text-anchor: middle; font: 24px Arial;" font-size="24px" transform="matrix(1,0,0,1,340.4386,254.2501)">
      <tspan dy="8.493876088267495" style="-webkit-tap-highlight-color: rgba(0, 0, 0, 0);">C</tspan>
    </text>
    <text x="-158.55800401599762" y="-24.638936411732505" text-anchor="middle" font="30px &quot;Arial&quot;" stroke="none" fill="#000000" style="-webkit-tap-highlight-color: rgba(0, 0, 0, 0); text-anchor: middle; font: 24px Arial;" font-size="24px" transform="matrix(1,0,0,1,312.0261,254.2501)">
      <tspan dy="8.493876088267495" style="-webkit-tap-highlight-color: rgba(0, 0, 0, 0);">H</tspan>
    </text>
    <text x="-158.55800401599762" y="-24.638936411732505" text-anchor="middle" font="30px &quot;Arial&quot;" stroke="none" fill="#000000" style="-webkit-tap-highlight-color: rgba(0, 0, 0, 0); text-anchor: middle; font: 17px Arial;" font-size="17px" transform="matrix(1,0,0,1,326.2323,259.6533)">
      <tspan dy="5.493876088267495" style="-webkit-tap-highlight-color: rgba(0, 0, 0, 0);">3</tspan>
    </text>
    <text x="-138.55886731816278" y="50.00026588236863" text-anchor="middle" font="30px &quot;Arial&quot;" stroke="none" fill="#000000" style="-webkit-tap-highlight-color: rgba(0, 0, 0, 0); text-anchor: middle; font: 24px Arial;" font-size="24px" transform="matrix(1,0,0,1,340.4386,254.2501)">
      <tspan dy="8.49245338236863" style="-webkit-tap-highlight-color: rgba(0, 0, 0, 0);">Br</tspan>
    </text>
    <text x="-138.55886731816278" y="50.00026588236863" text-anchor="middle" font="30px &quot;Arial&quot;" stroke="none" fill="#000000" style="-webkit-tap-highlight-color: rgba(0, 0, 0, 0); text-anchor: middle; font: 17px Arial;" font-size="17px" transform="matrix(1,0,0,1,358.2542,246.1454)">
      <tspan dy="5.49245338236863" style="-webkit-tap-highlight-color: rgba(0, 0, 0, 0);">&#x2013;</tspan>
    </text>
    <path fill="none" stroke="#000000" d="M-127.9538776,-8.36941252L-126.79531647,-10.37589998" stroke-width="1.6" stroke-linecap="round" stroke-linejoin="round" transform="matrix(1,0,0,1,340.4386,254.2501)" style="-webkit-tap-highlight-color: rgba(0, 0, 0, 0); stroke-linecap: round; stroke-linejoin: round;"/>
    <path fill="none" stroke="#000000" d="M-127.1194835,16.60300812L-103.91793842,30.00112918" stroke-width="1.6" stroke-linecap="round" stroke-linejoin="round" transform="matrix(1,0,0,1,340.4386,254.2501)" style="-webkit-tap-highlight-color: rgba(0, 0, 0, 0); stroke-linecap: round; stroke-linejoin: round;"/>
    <path fill="none" stroke="#000000" d="M-103.91793842,30.00112918L-69.27700952,9.99714421" stroke-width="1.6" stroke-linecap="round" stroke-linejoin="round" transform="matrix(1,0,0,1,340.4386,254.2501)" style="-webkit-tap-highlight-color: rgba(0, 0, 0, 0); stroke-linecap: round; stroke-linejoin: round;"/>
    <path fill="none" stroke="#000000" d="M-69.27700952,9.99714421L-34.6409289,30.00112918" stroke-width="1.6" stroke-linecap="round" stroke-linejoin="round" transform="matrix(1,0,0,1,340.4386,254.2501)" style="-webkit-tap-highlight-color: rgba(0, 0, 0, 0); stroke-linecap: round; stroke-linejoin: round;"/>
    <path fill="none" stroke="#000000" d="M-34.6409289,30.00112918L0,9.99714421" stroke-width="1.6" stroke-linecap="round" stroke-linejoin="round" transform="matrix(1,0,0,1,340.4386,254.2501)" style="-webkit-tap-highlight-color: rgba(0, 0, 0, 0); stroke-linecap: round; stroke-linejoin: round;"/>
    <path fill="none" stroke="#000000" d="M0,9.99714421L34.6409289,30.00112918" stroke-width="1.6" stroke-linecap="round" stroke-linejoin="round" transform="matrix(1,0,0,1,340.4386,254.2501)" style="-webkit-tap-highlight-color: rgba(0, 0, 0, 0); stroke-linecap: round; stroke-linejoin: round;"/>
    <path fill="none" stroke="#000000" d="M34.6409289,30.00112918L69.27700952,9.99714421" stroke-width="1.6" stroke-linecap="round" stroke-linejoin="round" transform="matrix(1,0,0,1,340.4386,254.2501)" style="-webkit-tap-highlight-color: rgba(0, 0, 0, 0); stroke-linecap: round; stroke-linejoin: round;"/>
    <path fill="none" stroke="#000000" d="M69.27700952,9.99714421L103.91793842,30.00112918" stroke-width="1.6" stroke-linecap="round" stroke-linejoin="round" transform="matrix(1,0,0,1,340.4386,254.2501)" style="-webkit-tap-highlight-color: rgba(0, 0, 0, 0); stroke-linecap: round; stroke-linejoin: round;"/>
    <path fill="none" stroke="#000000" d="M103.91793842,30.00112918L138.55886732,9.99714421" stroke-width="1.6" stroke-linecap="round" stroke-linejoin="round" transform="matrix(1,0,0,1,340.4386,254.2501)" style="-webkit-tap-highlight-color: rgba(0, 0, 0, 0); stroke-linecap: round; stroke-linejoin: round;"/>
    <path fill="none" stroke="#000000" d="M138.55886732,9.99714421L173.19979622,30.00112918" stroke-width="1.6" stroke-linecap="round" stroke-linejoin="round" transform="matrix(1,0,0,1,340.4386,254.2501)" style="-webkit-tap-highlight-color: rgba(0, 0, 0, 0); stroke-linecap: round; stroke-linejoin: round;"/>
    <path fill="none" stroke="#000000" d="M173.19979622,30.00112918L207.83587684,9.99714421" stroke-width="1.6" stroke-linecap="round" stroke-linejoin="round" transform="matrix(1,0,0,1,340.4386,254.2501)" style="-webkit-tap-highlight-color: rgba(0, 0, 0, 0); stroke-linecap: round; stroke-linejoin: round;"/>
    <path fill="none" stroke="#000000" d="M207.83587684,9.99714421L242.47680574,30.00112918" stroke-width="1.6" stroke-linecap="round" stroke-linejoin="round" transform="matrix(1,0,0,1,340.4386,254.2501)" style="-webkit-tap-highlight-color: rgba(0, 0, 0, 0); stroke-linecap: round; stroke-linejoin: round;"/>
    <path fill="none" stroke="#000000" d="M242.47680574,30.00112918L265.6663585,16.60993329" stroke-width="1.6" stroke-linecap="round" stroke-linejoin="round" transform="matrix(1,0,0,1,340.4386,254.2501)" style="-webkit-tap-highlight-color: rgba(0, 0, 0, 0); stroke-linecap: round; stroke-linejoin: round;"/>
    <path fill="none" stroke="#000000" d="M-150.0055165,16.60720363L-173.19979622,30.00112918" stroke-width="1.6" stroke-linecap="round" stroke-linejoin="round" transform="matrix(1,0,0,1,340.4386,254.2501)" style="-webkit-tap-highlight-color: rgba(0, 0, 0, 0); stroke-linecap: round; stroke-linejoin: round;"/>
    <path fill="none" stroke="#000000" d="M-173.19979622,30.00112918L-207.83587684,9.99714421" stroke-width="1.6" stroke-linecap="round" stroke-linejoin="round" transform="matrix(1,0,0,1,340.4386,254.2501)" style="-webkit-tap-highlight-color: rgba(0, 0, 0, 0); stroke-linecap: round; stroke-linejoin: round;"/>
    <path fill="none" stroke="#000000" d="M-214.50254351,6.14853069L-242.47680574,22.30273726M-207.83587684,9.99714421L-242.47680574,30.00112918" stroke-width="1.6" stroke-linecap="round" stroke-linejoin="round" transform="matrix(1,0,0,1,340.4386,254.2501)" style="-webkit-tap-highlight-color: rgba(0, 0, 0, 0); stroke-linecap: round; stroke-linejoin: round;"/>
    <path fill="none" stroke="#000000" d="M-242.47680574,30.00112918L-277.11773464,9.99714421" stroke-width="1.6" stroke-linecap="round" stroke-linejoin="round" transform="matrix(1,0,0,1,340.4386,254.2501)" style="-webkit-tap-highlight-color: rgba(0, 0, 0, 0); stroke-linecap: round; stroke-linejoin: round;"/>
    <path fill="none" stroke="#000000" d="M-270.45106797,6.14853069L-270.45106797,-26.15204916M-277.11773464,9.99714421L-277.11773464,-30.00112918" stroke-width="1.6" stroke-linecap="round" stroke-linejoin="round" transform="matrix(1,0,0,1,340.4386,254.2501)" style="-webkit-tap-highlight-color: rgba(0, 0, 0, 0); stroke-linecap: round; stroke-linejoin: round;"/>
    <path fill="none" stroke="#000000" d="M-277.11773464,-30.00112918L-242.47680574,-50.00026588" stroke-width="1.6" stroke-linecap="round" stroke-linejoin="round" transform="matrix(1,0,0,1,340.4386,254.2501)" style="-webkit-tap-highlight-color: rgba(0, 0, 0, 0); stroke-linecap: round; stroke-linejoin: round;"/>
    <path fill="none" stroke="#000000" d="M-242.47680574,-42.30234052L-214.50254351,-26.15204916M-242.47680574,-50.00026588L-207.83587684,-30.00112918" stroke-width="1.6" stroke-linecap="round" stroke-linejoin="round" transform="matrix(1,0,0,1,340.4386,254.2501)" style="-webkit-tap-highlight-color: rgba(0, 0, 0, 0); stroke-linecap: round; stroke-linejoin: round;"/>
    <path fill="none" stroke="#000000" d="M-207.83587684,9.99714421L-207.83587684,-30.00112918" stroke-width="1.6" stroke-linecap="round" stroke-linejoin="round" transform="matrix(1,0,0,1,340.4386,254.2501)" style="-webkit-tap-highlight-color: rgba(0, 0, 0, 0); stroke-linecap: round; stroke-linejoin: round;"/>
    <path fill="none" stroke="#000000" d="M-147.95234035,-6.27121248L-149.16385703,-8.36941252" stroke-width="1.6" stroke-linecap="round" stroke-linejoin="round" transform="matrix(1,0,0,1,340.4386,254.2501)" style="-webkit-tap-highlight-color: rgba(0, 0, 0, 0); stroke-linecap: round; stroke-linejoin: round;"/>
  </g>
</svg>
