
<svg version="1.1" id="topsvg" xmlns="http://www.w3.org/2000/svg" x="0" y="0" width="200px" height="200px" viewBox="0 0 100 100" xmlns:xlink="http://www.w3.org/1999/xlink">
<title> - Open Babel Depiction</title>
<rect x="0" y="0" width="100" height="100" fill="white"></rect>
<g transform="translate(0,0)">
<svg width="100" height="100" x="0" y="0" viewBox="0 0 400.068 194.6" font-family="sans-serif" stroke="rgb(0,0,0)" stroke-width="2" stroke-linecap="round">
<line x1="240.1" y1="80.0" x2="280.0" y2="80.0" opacity="1.0" stroke="rgb(0,0,0)" stroke-width="2.0"></line>
<line x1="109.2" y1="100.0" x2="74.5" y2="120.1" opacity="1.0" stroke="rgb(0,0,0)" stroke-width="2.0"></line>
<line x1="74.5" y1="120.1" x2="61.1" y2="96.8" opacity="1.0" stroke="rgb(0,0,0)" stroke-width="2.0"></line>
<line x1="74.5" y1="120.1" x2="51.3" y2="133.5" opacity="1.0" stroke="rgb(0,0,0)" stroke-width="2.0"></line>
<line x1="74.5" y1="120.1" x2="88.0" y2="143.3" opacity="1.0" stroke="rgb(0,0,0)" stroke-width="2.0"></line>
<line x1="240.1" y1="80.0" x2="224.3" y2="58.2" opacity="1.0" stroke="rgb(0,0,0)" stroke-width="2.0"></line>
<line x1="204.2" y1="51.7" x2="178.5" y2="60.0" opacity="1.0" stroke="rgb(0,0,0)" stroke-width="2.0"></line>
<line x1="178.5" y1="60.0" x2="178.5" y2="100.0" opacity="1.0" stroke="rgb(0,0,0)" stroke-width="2.0"></line>
<line x1="185.7" y1="66.0" x2="185.7" y2="94.0" opacity="1.0" stroke="rgb(0,0,0)" stroke-width="2.0"></line>
<line x1="178.5" y1="100.0" x2="204.2" y2="108.4" opacity="1.0" stroke="rgb(0,0,0)" stroke-width="2.0"></line>
<line x1="224.4" y1="101.7" x2="240.1" y2="80.0" opacity="1.0" stroke="rgb(0,0,0)" stroke-width="2.0"></line>
<line x1="219.7" y1="95.9" x2="230.8" y2="80.6" opacity="1.0" stroke="rgb(0,0,0)" stroke-width="2.0"></line>
<line x1="109.2" y1="100.0" x2="143.9" y2="120.1" opacity="1.0" stroke="rgb(0,0,0)" stroke-width="2.0"></line>
<line x1="118.0" y1="96.8" x2="142.3" y2="110.8" opacity="1.0" stroke="rgb(0,0,0)" stroke-width="2.0"></line>
<line x1="143.9" y1="120.1" x2="178.5" y2="100.0" opacity="1.0" stroke="rgb(0,0,0)" stroke-width="2.0"></line>
<line x1="178.5" y1="60.0" x2="143.9" y2="40.0" opacity="1.0" stroke="rgb(0,0,0)" stroke-width="2.0"></line>
<line x1="143.9" y1="40.0" x2="109.2" y2="60.0" opacity="1.0" stroke="rgb(0,0,0)" stroke-width="2.0"></line>
<line x1="142.3" y1="49.2" x2="118.0" y2="63.2" opacity="1.0" stroke="rgb(0,0,0)" stroke-width="2.0"></line>
<line x1="109.2" y1="60.0" x2="109.2" y2="100.0" opacity="1.0" stroke="rgb(0,0,0)" stroke-width="2.0"></line>
<line x1="300.0" y1="114.7" x2="340.1" y2="114.7" opacity="1.0" stroke="rgb(0,0,0)" stroke-width="2.0"></line>
<line x1="306.0" y1="107.5" x2="334.1" y2="107.5" opacity="1.0" stroke="rgb(0,0,0)" stroke-width="2.0"></line>
<line x1="340.1" y1="114.7" x2="360.1" y2="80.0" opacity="1.0" stroke="rgb(0,0,0)" stroke-width="2.0"></line>
<line x1="360.1" y1="80.0" x2="340.1" y2="45.4" opacity="1.0" stroke="rgb(0,0,0)" stroke-width="2.0"></line>
<line x1="350.8" y1="78.4" x2="336.8" y2="54.2" opacity="1.0" stroke="rgb(0,0,0)" stroke-width="2.0"></line>
<line x1="340.1" y1="45.4" x2="300.0" y2="45.4" opacity="1.0" stroke="rgb(0,0,0)" stroke-width="2.0"></line>
<line x1="300.0" y1="45.4" x2="280.0" y2="80.0" opacity="1.0" stroke="rgb(0,0,0)" stroke-width="2.0"></line>
<line x1="303.3" y1="54.2" x2="289.3" y2="78.4" opacity="1.0" stroke="rgb(0,0,0)" stroke-width="2.0"></line>
<line x1="280.0" y1="80.0" x2="300.0" y2="114.7" opacity="1.0" stroke="rgb(0,0,0)" stroke-width="2.0"></line>
<text x="88.480060" y="162.600127" fill="rgb(0,0,0)" stroke="rgb(0,0,0)" stroke-width="1" font-size="16">F</text>
<text x="34.000000" y="147.980111" fill="rgb(0,0,0)" stroke="rgb(0,0,0)" stroke-width="1" font-size="16">F</text>
<text x="48.588016" y="93.500050" fill="rgb(0,0,0)" stroke="rgb(0,0,0)" stroke-width="1" font-size="16">F</text>
<text x="210.612196" y="55.644008" fill="rgb(0,0,0)" stroke="rgb(0,0,0)" stroke-width="1" font-size="16">S</text>
<text x="210.612196" y="120.408080" fill="rgb(0,0,0)" stroke="rgb(0,0,0)" stroke-width="1" font-size="16">N</text>
</svg>
</g>
</svg>
