<?xml version="1.0"?>
<svg xmlns="http://www.w3.org/2000/svg" height="362.8196553712391" version="1.1" width="601.1378179634685" style="overflow: hidden; position: relative;" viewBox="0 0 621 382">
  <g transform="translate(-118, -81)">
    <defs style="-webkit-tap-highlight-color: rgba(0, 0, 0, 0);"/>
    <text x="145.92404904919255" y="-8.59146808370167" text-anchor="middle" font="30px &quot;Arial&quot;" stroke="none" fill="#000000" style="-webkit-tap-highlight-color: rgba(0, 0, 0, 0); text-anchor: middle; font: 24px Arial;" font-size="24px" transform="matrix(1,0,0,1,371.5188,272.7572)">
      <tspan dy="8.49446941629833" style="-webkit-tap-highlight-color: rgba(0, 0, 0, 0);">O</tspan>
    </text>
    <text x="145.92404904919255" y="-8.59146808370167" text-anchor="middle" font="30px &quot;Arial&quot;" stroke="none" fill="#000000" style="-webkit-tap-highlight-color: rgba(0, 0, 0, 0); text-anchor: middle; font: 24px Arial;" font-size="24px" transform="matrix(1,0,0,1,390.3266,272.7572)">
      <tspan dy="8.49446941629833" style="-webkit-tap-highlight-color: rgba(0, 0, 0, 0);">H</tspan>
    </text>
    <text x="42.00219413606522" y="51.40820321190114" text-anchor="middle" font="30px &quot;Arial&quot;" stroke="none" fill="#000000" style="-webkit-tap-highlight-color: rgba(0, 0, 0, 0); text-anchor: middle; font: 24px Arial;" font-size="24px" transform="matrix(1,0,0,1,371.5188,272.7572)">
      <tspan dy="8.494140711901139" style="-webkit-tap-highlight-color: rgba(0, 0, 0, 0);">N</tspan>
    </text>
    <text x="39.72341874140395" y="-32.10164231500495" text-anchor="middle" font="30px &quot;Arial&quot;" stroke="none" fill="#000000" style="-webkit-tap-highlight-color: rgba(0, 0, 0, 0); text-anchor: middle; font: 24px Arial;" font-size="24px" transform="matrix(1,0,0,1,371.5188,272.7572)">
      <tspan dy="8.499920184995048" style="-webkit-tap-highlight-color: rgba(0, 0, 0, 0);">N</tspan>
    </text>
    <text x="-24.998650925262872" y="-32.10164231500495" text-anchor="middle" font="30px &quot;Arial&quot;" stroke="none" fill="#000000" style="-webkit-tap-highlight-color: rgba(0, 0, 0, 0); text-anchor: middle; font: 24px Arial;" font-size="24px" transform="matrix(1,0,0,1,371.5188,272.7572)">
      <tspan dy="8.499920184995048" style="-webkit-tap-highlight-color: rgba(0, 0, 0, 0);">N</tspan>
    </text>
    <text x="-63.03965464124669" y="-19.742922142682396" text-anchor="middle" font="30px &quot;Arial&quot;" stroke="none" fill="#000000" style="-webkit-tap-highlight-color: rgba(0, 0, 0, 0); text-anchor: middle; font: 24px Arial;" font-size="24px" transform="matrix(1,0,0,1,371.5188,272.7572)">
      <tspan dy="8.499265357317604" style="-webkit-tap-highlight-color: rgba(0, 0, 0, 0);">S</tspan>
    </text>
    <text x="-50.68093446892413" y="18.298081573301417" text-anchor="middle" font="30px &quot;Arial&quot;" stroke="none" fill="#000000" style="-webkit-tap-highlight-color: rgba(0, 0, 0, 0); text-anchor: middle; font: 24px Arial;" font-size="24px" transform="matrix(1,0,0,1,371.5188,272.7572)">
      <tspan dy="8.493394073301417" style="-webkit-tap-highlight-color: rgba(0, 0, 0, 0);">O</tspan>
    </text>
    <text x="-215.20851796346844" y="29.70165546318084" text-anchor="middle" font="30px &quot;Arial&quot;" stroke="none" fill="#000000" style="-webkit-tap-highlight-color: rgba(0, 0, 0, 0); text-anchor: middle; font: 24px Arial;" font-size="24px" transform="matrix(1,0,0,1,371.5188,272.7572)">
      <tspan dy="8.506342963180838" style="-webkit-tap-highlight-color: rgba(0, 0, 0, 0);">C</tspan>
    </text>
    <text x="-215.20851796346844" y="29.70165546318084" text-anchor="middle" font="30px &quot;Arial&quot;" stroke="none" fill="#000000" style="-webkit-tap-highlight-color: rgba(0, 0, 0, 0); text-anchor: middle; font: 24px Arial;" font-size="24px" transform="matrix(1,0,0,1,343.1375,272.7572)">
      <tspan dy="8.506342963180838" style="-webkit-tap-highlight-color: rgba(0, 0, 0, 0);">H</tspan>
    </text>
    <text x="-215.20851796346844" y="29.70165546318084" text-anchor="middle" font="30px &quot;Arial&quot;" stroke="none" fill="#000000" style="-webkit-tap-highlight-color: rgba(0, 0, 0, 0); text-anchor: middle; font: 17px Arial;" font-size="17px" transform="matrix(1,0,0,1,357.3281,278.1603)">
      <tspan dy="5.506342963180838" style="-webkit-tap-highlight-color: rgba(0, 0, 0, 0);">3</tspan>
    </text>
    <text x="-75.39837481356923" y="-57.78392585866621" text-anchor="middle" font="30px &quot;Arial&quot;" stroke="none" fill="#000000" style="-webkit-tap-highlight-color: rgba(0, 0, 0, 0); text-anchor: middle; font: 24px Arial;" font-size="24px" transform="matrix(1,0,0,1,371.5188,272.7572)">
      <tspan dy="8.505136641333792" style="-webkit-tap-highlight-color: rgba(0, 0, 0, 0);">O</tspan>
    </text>
    <text x="76.64442859320317" y="111.40787450750396" text-anchor="middle" font="30px &quot;Arial&quot;" stroke="none" fill="#000000" style="-webkit-tap-highlight-color: rgba(0, 0, 0, 0); text-anchor: middle; font: 24px Arial;" font-size="24px" transform="matrix(1,0,0,1,371.5188,272.7572)">
      <tspan dy="8.493812007503962" style="-webkit-tap-highlight-color: rgba(0, 0, 0, 0);">C</tspan>
    </text>
    <text x="76.64442859320317" y="111.40787450750396" text-anchor="middle" font="30px &quot;Arial&quot;" stroke="none" fill="#000000" style="-webkit-tap-highlight-color: rgba(0, 0, 0, 0); text-anchor: middle; font: 24px Arial;" font-size="24px" transform="matrix(1,0,0,1,389.6625,272.7572)">
      <tspan dy="8.493812007503962" style="-webkit-tap-highlight-color: rgba(0, 0, 0, 0);">H</tspan>
    </text>
    <text x="76.64442859320317" y="111.40787450750396" text-anchor="middle" font="30px &quot;Arial&quot;" stroke="none" fill="#000000" style="-webkit-tap-highlight-color: rgba(0, 0, 0, 0); text-anchor: middle; font: 17px Arial;" font-size="17px" transform="matrix(1,0,0,1,403.8688,278.1603)">
      <tspan dy="5.493812007503962" style="-webkit-tap-highlight-color: rgba(0, 0, 0, 0);">3</tspan>
    </text>
    <text x="145.92404904919255" y="151.40765537123914" text-anchor="middle" font="30px &quot;Arial&quot;" stroke="none" fill="#000000" style="-webkit-tap-highlight-color: rgba(0, 0, 0, 0); text-anchor: middle; font: 24px Arial;" font-size="24px" transform="matrix(1,0,0,1,371.5188,272.7572)">
      <tspan dy="8.493592871239144" style="-webkit-tap-highlight-color: rgba(0, 0, 0, 0);">Br</tspan>
    </text>
    <text x="215.20851796346844" y="31.40831278003354" text-anchor="middle" font="30px &quot;Arial&quot;" stroke="none" fill="#000000" style="-webkit-tap-highlight-color: rgba(0, 0, 0, 0); text-anchor: middle; font: 24px Arial;" font-size="24px" transform="matrix(1,0,0,1,371.5188,272.7572)">
      <tspan dy="8.49425028003354" style="-webkit-tap-highlight-color: rgba(0, 0, 0, 0);">Br</tspan>
    </text>
    <path fill="none" stroke="#000000" d="M145.92404905,8.10625L145.92404905,31.40831278" stroke-width="1.6" stroke-linecap="round" stroke-linejoin="round" style="-webkit-tap-highlight-color: rgba(0, 0, 0, 0); stroke-linecap: round; stroke-linejoin: round;" transform="matrix(1,0,0,1,371.5188,272.7572)"/>
    <path fill="none" stroke="#000000" d="M145.92404905,31.40831278L111.28666305,51.40820321M145.92428233,39.10637283L117.95332972,55.25701386" stroke-width="1.6" stroke-linecap="round" stroke-linejoin="round" style="-webkit-tap-highlight-color: rgba(0, 0, 0, 0); stroke-linecap: round; stroke-linejoin: round;" transform="matrix(1,0,0,1,371.5188,272.7572)"/>
    <path fill="none" stroke="#000000" d="M111.28666305,51.40820321L76.64442859,31.40831278" stroke-width="1.6" stroke-linecap="round" stroke-linejoin="round" style="-webkit-tap-highlight-color: rgba(0, 0, 0, 0); stroke-linecap: round; stroke-linejoin: round;" transform="matrix(1,0,0,1,371.5188,272.7572)"/>
    <path fill="none" stroke="#000000" d="M76.64442859,31.40831278L53.44318445,44.80301286" stroke-width="1.6" stroke-linecap="round" stroke-linejoin="round" style="-webkit-tap-highlight-color: rgba(0, 0, 0, 0); stroke-linecap: round; stroke-linejoin: round;" transform="matrix(1,0,0,1,371.5188,272.7572)"/>
    <path fill="none" stroke="#000000" d="M30.55691252,44.79961046L7.36480814,31.40831278" stroke-width="1.6" stroke-linecap="round" stroke-linejoin="round" style="-webkit-tap-highlight-color: rgba(0, 0, 0, 0); stroke-linecap: round; stroke-linejoin: round;" transform="matrix(1,0,0,1,371.5188,272.7572)"/>
    <path fill="none" stroke="#000000" d="M7.36480814,31.40831278L7.36480814,-8.59146808" stroke-width="1.6" stroke-linecap="round" stroke-linejoin="round" style="-webkit-tap-highlight-color: rgba(0, 0, 0, 0); stroke-linecap: round; stroke-linejoin: round;" transform="matrix(1,0,0,1,371.5188,272.7572)"/>
    <path fill="none" stroke="#000000" d="M7.36480814,-8.59146808L28.47365579,-23.92811811M7.3645146,-16.83174039L24.55505827,-29.32154354" stroke-width="1.6" stroke-linecap="round" stroke-linejoin="round" style="-webkit-tap-highlight-color: rgba(0, 0, 0, 0); stroke-linecap: round; stroke-linejoin: round;" transform="matrix(1,0,0,1,371.5188,272.7572)"/>
    <path fill="none" stroke="#000000" d="M34.34629902,-48.65279232L27.36469857,-70.14264603" stroke-width="1.6" stroke-linecap="round" stroke-linejoin="round" style="-webkit-tap-highlight-color: rgba(0, 0, 0, 0); stroke-linecap: round; stroke-linejoin: round;" transform="matrix(1,0,0,1,371.5188,272.7572)"/>
    <path fill="none" stroke="#000000" d="M27.5288548,-70.02339606L27.20054234,-70.261896M30.00514185,-72.74173887L29.02020449,-73.45723868M32.48142891,-75.46008168L30.83986664,-76.65258137M34.95771596,-78.17842448L32.65952879,-79.84792405M37.43400302,-80.89676729L34.47919094,-83.04326673M39.91029008,-83.6151101L36.29885309,-86.23860942M42.38657713,-86.33345291L38.11851524,-89.4339521M44.86286419,-89.05179571L39.93817739,-92.62929478M47.33915124,-91.77013852L41.75783954,-95.82463747M49.8154383,-94.48848133L43.57750169,-99.01998015M52.29172536,-97.20682414L45.39716383,-102.21532284M54.76801241,-99.92516694L47.21682598,-105.41066552" stroke-width="1.6" stroke-linecap="round" stroke-linejoin="round" style="-webkit-tap-highlight-color: rgba(0, 0, 0, 0); stroke-linecap: round; stroke-linejoin: round;" transform="matrix(1,0,0,1,371.5188,272.7572)"/>
    <path fill="none" stroke="#000000" d="M50.8748728,-102.50610509L90.65647304,-98.32188559M55.39962843,-108.73363353L87.52531706,-105.35466104" stroke-width="1.6" stroke-linecap="round" stroke-linejoin="round" style="-webkit-tap-highlight-color: rgba(0, 0, 0, 0); stroke-linecap: round; stroke-linejoin: round;" transform="matrix(1,0,0,1,371.5188,272.7572)"/>
    <path fill="none" stroke="#000000" d="M90.65647304,-98.32188559L114.16664727,-130.68534465" stroke-width="1.6" stroke-linecap="round" stroke-linejoin="round" style="-webkit-tap-highlight-color: rgba(0, 0, 0, 0); stroke-linecap: round; stroke-linejoin: round;" transform="matrix(1,0,0,1,371.5188,272.7572)"/>
    <path fill="none" stroke="#000000" d="M114.16664727,-130.68534465L97.89522126,-167.22817476M106.51084309,-131.48961387L93.37068355,-161.00015691" stroke-width="1.6" stroke-linecap="round" stroke-linejoin="round" style="-webkit-tap-highlight-color: rgba(0, 0, 0, 0); stroke-linecap: round; stroke-linejoin: round;" transform="matrix(1,0,0,1,371.5188,272.7572)"/>
    <path fill="none" stroke="#000000" d="M97.89522126,-167.22817476L58.11362102,-171.4075458" stroke-width="1.6" stroke-linecap="round" stroke-linejoin="round" style="-webkit-tap-highlight-color: rgba(0, 0, 0, 0); stroke-linecap: round; stroke-linejoin: round;" transform="matrix(1,0,0,1,371.5188,272.7572)"/>
    <path fill="none" stroke="#000000" d="M58.11362102,-171.4075458L34.60344679,-139.0489352M61.24477699,-164.37523692L42.25937977,-138.24437673" stroke-width="1.6" stroke-linecap="round" stroke-linejoin="round" style="-webkit-tap-highlight-color: rgba(0, 0, 0, 0); stroke-linecap: round; stroke-linejoin: round;" transform="matrix(1,0,0,1,371.5188,272.7572)"/>
    <path fill="none" stroke="#000000" d="M50.8748728,-102.50610509L34.60344679,-139.0489352" stroke-width="1.6" stroke-linecap="round" stroke-linejoin="round" style="-webkit-tap-highlight-color: rgba(0, 0, 0, 0); stroke-linecap: round; stroke-linejoin: round;" transform="matrix(1,0,0,1,371.5188,272.7572)"/>
    <path fill="none" stroke="#000000" d="M27.36469857,-70.14264603L-12.63508229,-70.14264603" stroke-width="1.6" stroke-linecap="round" stroke-linejoin="round" style="-webkit-tap-highlight-color: rgba(0, 0, 0, 0); stroke-linecap: round; stroke-linejoin: round;" transform="matrix(1,0,0,1,371.5188,272.7572)"/>
    <path fill="#000000" stroke="#000000" d="M-12.63508229,-70.14264603L-32.37478073,-105.24922459L-39.92542924,-99.7629856Z" stroke-width="1.6" stroke-linecap="round" stroke-linejoin="round" style="-webkit-tap-highlight-color: rgba(0, 0, 0, 0); stroke-linecap: round; stroke-linejoin: round;" transform="matrix(1,0,0,1,371.5188,272.7572)"/>
    <path fill="none" stroke="#000000" d="M-36.15010498,-102.50610509L-19.87867897,-139.0489352M-40.67488354,-108.73358205L-27.53461195,-138.24437673" stroke-width="1.6" stroke-linecap="round" stroke-linejoin="round" style="-webkit-tap-highlight-color: rgba(0, 0, 0, 0); stroke-linecap: round; stroke-linejoin: round;" transform="matrix(1,0,0,1,371.5188,272.7572)"/>
    <path fill="none" stroke="#000000" d="M-19.87867897,-139.0489352L-43.38885321,-171.4075458" stroke-width="1.6" stroke-linecap="round" stroke-linejoin="round" style="-webkit-tap-highlight-color: rgba(0, 0, 0, 0); stroke-linecap: round; stroke-linejoin: round;" transform="matrix(1,0,0,1,371.5188,272.7572)"/>
    <path fill="none" stroke="#000000" d="M-43.38885321,-171.4075458L-83.17045345,-167.22817476M-46.52000917,-164.37523692L-78.64591574,-161.00015691" stroke-width="1.6" stroke-linecap="round" stroke-linejoin="round" style="-webkit-tap-highlight-color: rgba(0, 0, 0, 0); stroke-linecap: round; stroke-linejoin: round;" transform="matrix(1,0,0,1,371.5188,272.7572)"/>
    <path fill="none" stroke="#000000" d="M-83.17045345,-167.22817476L-99.44187946,-130.68534465" stroke-width="1.6" stroke-linecap="round" stroke-linejoin="round" style="-webkit-tap-highlight-color: rgba(0, 0, 0, 0); stroke-linecap: round; stroke-linejoin: round;" transform="matrix(1,0,0,1,371.5188,272.7572)"/>
    <path fill="none" stroke="#000000" d="M-99.44187946,-130.68534465L-75.92685677,-98.32188559M-91.785898,-131.49001199L-72.79616735,-105.35466104" stroke-width="1.6" stroke-linecap="round" stroke-linejoin="round" style="-webkit-tap-highlight-color: rgba(0, 0, 0, 0); stroke-linecap: round; stroke-linejoin: round;" transform="matrix(1,0,0,1,371.5188,272.7572)"/>
    <path fill="none" stroke="#000000" d="M-36.15010498,-102.50610509L-75.92685677,-98.32188559" stroke-width="1.6" stroke-linecap="round" stroke-linejoin="round" style="-webkit-tap-highlight-color: rgba(0, 0, 0, 0); stroke-linecap: round; stroke-linejoin: round;" transform="matrix(1,0,0,1,371.5188,272.7572)"/>
    <path fill="none" stroke="#000000" d="M-12.63508229,-70.14264603L-19.61945875,-48.65267832" stroke-width="1.6" stroke-linecap="round" stroke-linejoin="round" style="-webkit-tap-highlight-color: rgba(0, 0, 0, 0); stroke-linecap: round; stroke-linejoin: round;" transform="matrix(1,0,0,1,371.5188,272.7572)"/>
    <path fill="none" stroke="#000000" d="M7.36480814,-8.59146808L-13.7391468,-23.92226621" stroke-width="1.6" stroke-linecap="round" stroke-linejoin="round" style="-webkit-tap-highlight-color: rgba(0, 0, 0, 0); stroke-linecap: round; stroke-linejoin: round;" transform="matrix(1,0,0,1,371.5188,272.7572)"/>
    <path fill="none" stroke="#000000" d="M-36.71529232,-28.29515252L-51.98783268,-23.33342612" stroke-width="1.6" stroke-linecap="round" stroke-linejoin="round" style="-webkit-tap-highlight-color: rgba(0, 0, 0, 0); stroke-linecap: round; stroke-linejoin: round;" transform="matrix(1,0,0,1,371.5188,272.7572)"/>
    <path fill="none" stroke="#000000" d="M-60.83249669,-2.16101796L-59.23123661,2.7677724M-54.49204394,-4.2208974L-52.89078385,0.70789296" stroke-width="1.6" stroke-linecap="round" stroke-linejoin="round" style="-webkit-tap-highlight-color: rgba(0, 0, 0, 0); stroke-linecap: round; stroke-linejoin: round;" transform="matrix(1,0,0,1,371.5188,272.7572)"/>
    <path fill="none" stroke="#000000" d="M-74.09017832,-16.15143153L-101.08065836,-7.37935351" stroke-width="1.6" stroke-linecap="round" stroke-linejoin="round" style="-webkit-tap-highlight-color: rgba(0, 0, 0, 0); stroke-linecap: round; stroke-linejoin: round;" transform="matrix(1,0,0,1,371.5188,272.7572)"/>
    <path fill="none" stroke="#000000" d="M-101.08065836,-7.37935351L-130.80655611,-34.14769171M-108.40179644,-5.00074152L-132.40703924,-26.61759775" stroke-width="1.6" stroke-linecap="round" stroke-linejoin="round" style="-webkit-tap-highlight-color: rgba(0, 0, 0, 0); stroke-linecap: round; stroke-linejoin: round;" transform="matrix(1,0,0,1,371.5188,272.7572)"/>
    <path fill="none" stroke="#000000" d="M-130.80655611,-34.14769171L-168.84755983,-21.78412308" stroke-width="1.6" stroke-linecap="round" stroke-linejoin="round" style="-webkit-tap-highlight-color: rgba(0, 0, 0, 0); stroke-linecap: round; stroke-linejoin: round;" transform="matrix(1,0,0,1,371.5188,272.7572)"/>
    <path fill="none" stroke="#000000" d="M-168.84755983,-21.78412308L-177.16751425,17.33808683M-163.12719741,-16.63335058L-169.84598456,14.95982749" stroke-width="1.6" stroke-linecap="round" stroke-linejoin="round" style="-webkit-tap-highlight-color: rgba(0, 0, 0, 0); stroke-linecap: round; stroke-linejoin: round;" transform="matrix(1,0,0,1,371.5188,272.7572)"/>
    <path fill="none" stroke="#000000" d="M-177.16751425,17.33808683L-203.50357168,25.89747333" stroke-width="1.6" stroke-linecap="round" stroke-linejoin="round" style="-webkit-tap-highlight-color: rgba(0, 0, 0, 0); stroke-linecap: round; stroke-linejoin: round;" transform="matrix(1,0,0,1,371.5188,272.7572)"/>
    <path fill="none" stroke="#000000" d="M-177.16751425,17.33808683L-147.44161649,44.10642503" stroke-width="1.6" stroke-linecap="round" stroke-linejoin="round" style="-webkit-tap-highlight-color: rgba(0, 0, 0, 0); stroke-linecap: round; stroke-linejoin: round;" transform="matrix(1,0,0,1,371.5188,272.7572)"/>
    <path fill="none" stroke="#000000" d="M-147.44161649,44.10642503L-109.39576432,31.7428564M-145.84100963,36.57644249L-115.11659327,26.59208392" stroke-width="1.6" stroke-linecap="round" stroke-linejoin="round" style="-webkit-tap-highlight-color: rgba(0, 0, 0, 0); stroke-linecap: round; stroke-linejoin: round;" transform="matrix(1,0,0,1,371.5188,272.7572)"/>
    <path fill="none" stroke="#000000" d="M-101.08065836,-7.37935351L-109.39576432,31.7428564" stroke-width="1.6" stroke-linecap="round" stroke-linejoin="round" style="-webkit-tap-highlight-color: rgba(0, 0, 0, 0); stroke-linecap: round; stroke-linejoin: round;" transform="matrix(1,0,0,1,371.5188,272.7572)"/>
    <path fill="none" stroke="#000000" d="M-65.24633525,-37.32335704L-66.84759533,-42.2521474M-71.58678801,-35.2634776L-73.18804809,-40.19226796" stroke-width="1.6" stroke-linecap="round" stroke-linejoin="round" style="-webkit-tap-highlight-color: rgba(0, 0, 0, 0); stroke-linecap: round; stroke-linejoin: round;" transform="matrix(1,0,0,1,371.5188,272.7572)"/>
    <path fill="none" stroke="#000000" d="M42.00219414,68.10625L42.00219414,91.40798408" stroke-width="1.6" stroke-linecap="round" stroke-linejoin="round" style="-webkit-tap-highlight-color: rgba(0, 0, 0, 0); stroke-linecap: round; stroke-linejoin: round;" transform="matrix(1,0,0,1,371.5188,272.7572)"/>
    <path fill="none" stroke="#000000" d="M42.00219414,91.40798408L7.36480814,111.40787451" stroke-width="1.6" stroke-linecap="round" stroke-linejoin="round" style="-webkit-tap-highlight-color: rgba(0, 0, 0, 0); stroke-linecap: round; stroke-linejoin: round;" transform="matrix(1,0,0,1,371.5188,272.7572)"/>
    <path fill="none" stroke="#000000" d="M7.36480814,111.40787451L-27.27742632,91.40798408M0.69814147,115.25695453L-27.27742632,99.10590944" stroke-width="1.6" stroke-linecap="round" stroke-linejoin="round" style="-webkit-tap-highlight-color: rgba(0, 0, 0, 0); stroke-linecap: round; stroke-linejoin: round;" transform="matrix(1,0,0,1,371.5188,272.7572)"/>
    <path fill="none" stroke="#000000" d="M-27.27742632,91.40798408L-61.91966078,111.40787451" stroke-width="1.6" stroke-linecap="round" stroke-linejoin="round" style="-webkit-tap-highlight-color: rgba(0, 0, 0, 0); stroke-linecap: round; stroke-linejoin: round;" transform="matrix(1,0,0,1,371.5188,272.7572)"/>
    <path fill="none" stroke="#000000" d="M-61.91966078,111.40787451L-61.91966078,151.40765537M-55.25299411,115.25695453L-55.25299411,147.55857535" stroke-width="1.6" stroke-linecap="round" stroke-linejoin="round" style="-webkit-tap-highlight-color: rgba(0, 0, 0, 0); stroke-linecap: round; stroke-linejoin: round;" transform="matrix(1,0,0,1,371.5188,272.7572)"/>
    <path fill="none" stroke="#000000" d="M-61.91966078,151.40765537L-27.27742632,171.4075458" stroke-width="1.6" stroke-linecap="round" stroke-linejoin="round" style="-webkit-tap-highlight-color: rgba(0, 0, 0, 0); stroke-linecap: round; stroke-linejoin: round;" transform="matrix(1,0,0,1,371.5188,272.7572)"/>
    <path fill="none" stroke="#000000" d="M-27.27742632,171.4075458L7.36480814,151.40765537M-27.27742632,163.70962044L0.69814147,147.55857535" stroke-width="1.6" stroke-linecap="round" stroke-linejoin="round" style="-webkit-tap-highlight-color: rgba(0, 0, 0, 0); stroke-linecap: round; stroke-linejoin: round;" transform="matrix(1,0,0,1,371.5188,272.7572)"/>
    <path fill="none" stroke="#000000" d="M7.36480814,111.40787451L7.36480814,151.40765537" stroke-width="1.6" stroke-linecap="round" stroke-linejoin="round" style="-webkit-tap-highlight-color: rgba(0, 0, 0, 0); stroke-linecap: round; stroke-linejoin: round;" transform="matrix(1,0,0,1,371.5188,272.7572)"/>
    <path fill="#000000" stroke="#000000" d="M42.00219414,91.40798408L62.86417835,108.84071446L67.53070275,100.75772856Z" stroke-width="1.6" stroke-linecap="round" stroke-linejoin="round" style="-webkit-tap-highlight-color: rgba(0, 0, 0, 0); stroke-linecap: round; stroke-linejoin: round;" transform="matrix(1,0,0,1,371.5188,272.7572)"/>
    <path fill="none" stroke="#000000" d="M111.28666305,51.40820321L111.28666305,91.40798408" stroke-width="1.6" stroke-linecap="round" stroke-linejoin="round" style="-webkit-tap-highlight-color: rgba(0, 0, 0, 0); stroke-linecap: round; stroke-linejoin: round;" transform="matrix(1,0,0,1,371.5188,272.7572)"/>
    <path fill="none" stroke="#000000" d="M111.28666305,91.40798408L145.92404905,111.40787451M117.95332972,87.55917343L145.92428233,103.70981446" stroke-width="1.6" stroke-linecap="round" stroke-linejoin="round" style="-webkit-tap-highlight-color: rgba(0, 0, 0, 0); stroke-linecap: round; stroke-linejoin: round;" transform="matrix(1,0,0,1,371.5188,272.7572)"/>
    <path fill="none" stroke="#000000" d="M145.92404905,111.40787451L145.92404905,134.690625" stroke-width="1.6" stroke-linecap="round" stroke-linejoin="round" style="-webkit-tap-highlight-color: rgba(0, 0, 0, 0); stroke-linecap: round; stroke-linejoin: round;" transform="matrix(1,0,0,1,371.5188,272.7572)"/>
    <path fill="none" stroke="#000000" d="M145.92404905,111.40787451L180.56628351,91.40798408" stroke-width="1.6" stroke-linecap="round" stroke-linejoin="round" style="-webkit-tap-highlight-color: rgba(0, 0, 0, 0); stroke-linecap: round; stroke-linejoin: round;" transform="matrix(1,0,0,1,371.5188,272.7572)"/>
    <path fill="none" stroke="#000000" d="M180.56628351,91.40798408L180.56628351,51.40820321M173.89961684,87.55890406L173.89961684,55.25728323" stroke-width="1.6" stroke-linecap="round" stroke-linejoin="round" style="-webkit-tap-highlight-color: rgba(0, 0, 0, 0); stroke-linecap: round; stroke-linejoin: round;" transform="matrix(1,0,0,1,371.5188,272.7572)"/>
    <path fill="none" stroke="#000000" d="M145.92404905,31.40831278L180.56628351,51.40820321" stroke-width="1.6" stroke-linecap="round" stroke-linejoin="round" style="-webkit-tap-highlight-color: rgba(0, 0, 0, 0); stroke-linecap: round; stroke-linejoin: round;" transform="matrix(1,0,0,1,371.5188,272.7572)"/>
    <path fill="none" stroke="#000000" d="M180.56628351,51.40820321L200.43181555,39.93929913" stroke-width="1.6" stroke-linecap="round" stroke-linejoin="round" style="-webkit-tap-highlight-color: rgba(0, 0, 0, 0); stroke-linecap: round; stroke-linejoin: round;" transform="matrix(1,0,0,1,371.5188,272.7572)"/>
    <text x="177.548" y="-181.41199999999998" text-anchor="middle" font="30px &quot;Arial&quot;" stroke="none" fill="#000000" style="-webkit-tap-highlight-color: rgba(0, 0, 0, 0); text-anchor: middle; font: 24px Arial;" font-size="24px" transform="matrix(1,0,0,1,371.5188,272.7572)">
      <tspan dy="8.502062500000022" style="-webkit-tap-highlight-color: rgba(0, 0, 0, 0);">Chiral</tspan>
    </text>
  </g>
</svg>
