
<svg version="1.1" id="topsvg" xmlns="http://www.w3.org/2000/svg" x="0" y="0" width="200px" height="200px" viewBox="0 0 100 100" xmlns:xlink="http://www.w3.org/1999/xlink">
<title> - Open Babel Depiction</title>
<rect x="0" y="0" width="100" height="100" fill="white"></rect>
<g transform="translate(0,0)">
<svg width="100" height="100" x="0" y="0" viewBox="0 0 351.437 306.396" font-family="sans-serif" stroke="#000000" stroke-width="2" stroke-linecap="round">
<line x1="194.3" y1="105.6" x2="182.0" y2="143.7" opacity="1.0" stroke="#000000" stroke-width="2.0"></line>
<line x1="188.6" y1="103.8" x2="176.3" y2="141.8" opacity="1.0" stroke="#000000" stroke-width="2.0"></line>
<line x1="179.1" y1="142.8" x2="140.0" y2="151.1" opacity="1.0" stroke="#000000" stroke-width="2.0"></line>
<line x1="137.8" y1="153.1" x2="111.0" y2="123.4" opacity="1.0" stroke="#000000" stroke-width="2.0"></line>
<line x1="142.2" y1="149.1" x2="115.5" y2="119.3" opacity="1.0" stroke="#000000" stroke-width="2.0"></line>
<line x1="140.0" y1="151.1" x2="127.6" y2="189.1" opacity="1.0" stroke="#000000" stroke-width="2.0"></line>
<line x1="79.4" y1="241.0" x2="53.3" y2="248.0" opacity="1.0" stroke="#000000" stroke-width="2.0"></line>
<line x1="77.9" y1="235.2" x2="51.8" y2="242.2" opacity="1.0" stroke="#000000" stroke-width="2.0"></line>
<line x1="179.1" y1="142.8" x2="205.9" y2="172.5" opacity="1.0" stroke="#000000" stroke-width="2.0"></line>
<line x1="272.0" y1="187.5" x2="298.1" y2="180.5" opacity="1.0" stroke="#000000" stroke-width="2.0"></line>
<line x1="273.6" y1="193.3" x2="299.7" y2="186.3" opacity="1.0" stroke="#000000" stroke-width="2.0"></line>
<line x1="217.2" y1="96.4" x2="191.5" y2="104.7" opacity="1.0" stroke="#000000" stroke-width="2.0"></line>
<line x1="191.5" y1="104.7" x2="175.6" y2="82.9" opacity="1.0" stroke="#000000" stroke-width="2.0"></line>
<line x1="175.6" y1="61.8" x2="191.5" y2="40.0" opacity="1.0" stroke="#000000" stroke-width="2.0"></line>
<line x1="191.5" y1="40.0" x2="229.5" y2="52.4" opacity="1.0" stroke="#000000" stroke-width="2.0"></line>
<line x1="229.5" y1="52.4" x2="229.5" y2="79.4" opacity="1.0" stroke="#000000" stroke-width="2.0"></line>
<line x1="57.2" y1="89.0" x2="68.2" y2="113.7" opacity="1.0" stroke="#000000" stroke-width="2.0"></line>
<line x1="86.4" y1="124.2" x2="113.2" y2="121.4" opacity="1.0" stroke="#000000" stroke-width="2.0"></line>
<line x1="113.2" y1="121.4" x2="118.8" y2="94.9" opacity="1.0" stroke="#000000" stroke-width="2.0"></line>
<line x1="110.3" y1="75.7" x2="86.9" y2="62.2" opacity="1.0" stroke="#000000" stroke-width="2.0"></line>
<line x1="86.9" y1="62.2" x2="57.2" y2="89.0" opacity="1.0" stroke="#000000" stroke-width="2.0"></line>
<line x1="155.9" y1="217.4" x2="145.6" y2="256.0" opacity="1.0" stroke="#000000" stroke-width="2.0"></line>
<line x1="145.6" y1="256.0" x2="106.9" y2="266.4" opacity="1.0" stroke="#000000" stroke-width="2.0"></line>
<line x1="106.9" y1="266.4" x2="78.6" y2="238.1" opacity="1.0" stroke="#000000" stroke-width="2.0"></line>
<line x1="78.6" y1="238.1" x2="89.0" y2="199.5" opacity="1.0" stroke="#000000" stroke-width="2.0"></line>
<line x1="89.0" y1="199.5" x2="127.6" y2="189.1" opacity="1.0" stroke="#000000" stroke-width="2.0"></line>
<line x1="127.6" y1="189.1" x2="155.9" y2="217.4" opacity="1.0" stroke="#000000" stroke-width="2.0"></line>
<line x1="244.5" y1="162.1" x2="272.8" y2="190.4" opacity="1.0" stroke="#000000" stroke-width="2.0"></line>
<line x1="272.8" y1="190.4" x2="262.4" y2="229.1" opacity="1.0" stroke="#000000" stroke-width="2.0"></line>
<line x1="262.4" y1="229.1" x2="223.8" y2="239.4" opacity="1.0" stroke="#000000" stroke-width="2.0"></line>
<line x1="223.8" y1="239.4" x2="195.5" y2="211.1" opacity="1.0" stroke="#000000" stroke-width="2.0"></line>
<line x1="195.5" y1="211.1" x2="205.9" y2="172.5" opacity="1.0" stroke="#000000" stroke-width="2.0"></line>
<line x1="205.9" y1="172.5" x2="244.5" y2="162.1" opacity="1.0" stroke="#000000" stroke-width="2.0"></line>
<text x="305.436525" y="188.072271" fill="#000000" stroke="#000000" stroke-width="1" font-size="16">O</text>
<text x="34.000000" y="256.464403" fill="#000000" stroke="#000000" stroke-width="1" font-size="16">O</text>
<text x="115.540158" y="90.228082" fill="#000000" stroke="#000000" stroke-width="1" font-size="16">S</text>
<text x="161.964248" y="80.360063" fill="#000000" stroke="#000000" stroke-width="1" font-size="16">S</text>
<text x="67.440065" y="133.536165" fill="#000000" stroke="#000000" stroke-width="1" font-size="16">S</text>
<text x="223.516367" y="100.360101" fill="#000000" stroke="#000000" stroke-width="1" font-size="16">S</text>
</svg>
</g>
</svg>
