<?xml version="1.0"?>
<svg xmlns="http://www.w3.org/2000/svg" height="177.7536537280007" version="1.1" width="590.92901511" style="overflow: hidden; position: relative;" viewBox="0 0 610 197">
  <g transform="translate(-124, -174)">
    <defs style="-webkit-tap-highlight-color: rgba(0, 0, 0, 0);"/>
    <text x="-17.318521004210076" y="50.001653728000704" text-anchor="middle" font="30px &quot;Arial&quot;" stroke="none" fill="#000000" style="-webkit-tap-highlight-color: rgba(0, 0, 0, 0); text-anchor: middle; font: 24px Arial;" font-size="24px" transform="matrix(1,0,0,1,359,281.6243)">
      <tspan dy="8.493841228000704" style="-webkit-tap-highlight-color: rgba(0, 0, 0, 0);">O</tspan>
    </text>
    <text x="-17.318521004210076" y="50.001653728000704" text-anchor="middle" font="30px &quot;Arial&quot;" stroke="none" fill="#000000" style="-webkit-tap-highlight-color: rgba(0, 0, 0, 0); text-anchor: middle; font: 24px Arial;" font-size="24px" transform="matrix(1,0,0,1,377.8156,281.6243)">
      <tspan dy="8.493841228000704" style="-webkit-tap-highlight-color: rgba(0, 0, 0, 0);">H</tspan>
    </text>
    <text x="86.60230184132149" y="-9.997421699518807" text-anchor="middle" font="30px &quot;Arial&quot;" stroke="none" fill="#000000" style="-webkit-tap-highlight-color: rgba(0, 0, 0, 0); text-anchor: middle; font: 24px Arial;" font-size="24px" transform="matrix(1,0,0,1,359,281.6243)">
      <tspan dy="8.494765800481193" style="-webkit-tap-highlight-color: rgba(0, 0, 0, 0);">O</tspan>
    </text>
    <text x="51.96041142276579" y="50.001653728000704" text-anchor="middle" font="30px &quot;Arial&quot;" stroke="none" fill="#000000" style="-webkit-tap-highlight-color: rgba(0, 0, 0, 0); text-anchor: middle; font: 24px Arial;" font-size="24px" transform="matrix(1,0,0,1,359,281.6243)">
      <tspan dy="8.493841228000704" style="-webkit-tap-highlight-color: rgba(0, 0, 0, 0);">O</tspan>
    </text>
    <text x="17.318521004210076" y="-50.001653728000704" text-anchor="middle" font="30px &quot;Arial&quot;" stroke="none" fill="#000000" style="-webkit-tap-highlight-color: rgba(0, 0, 0, 0); text-anchor: middle; font: 24px Arial;" font-size="24px" transform="matrix(1,0,0,1,359,281.6243)">
      <tspan dy="8.506158771999296" style="-webkit-tap-highlight-color: rgba(0, 0, 0, 0);">O</tspan>
    </text>
    <text x="17.318521004210076" y="-50.001653728000704" text-anchor="middle" font="30px &quot;Arial&quot;" stroke="none" fill="#000000" style="-webkit-tap-highlight-color: rgba(0, 0, 0, 0); text-anchor: middle; font: 24px Arial;" font-size="24px" transform="matrix(1,0,0,1,377.8156,281.6243)">
      <tspan dy="8.506158771999296" style="-webkit-tap-highlight-color: rgba(0, 0, 0, 0);">H</tspan>
    </text>
    <text x="-86.60230184132149" y="9.997421699518807" text-anchor="middle" font="30px &quot;Arial&quot;" stroke="none" fill="#000000" style="-webkit-tap-highlight-color: rgba(0, 0, 0, 0); text-anchor: middle; font: 24px Arial;" font-size="24px" transform="matrix(1,0,0,1,359,281.6243)">
      <tspan dy="8.505234199518807" style="-webkit-tap-highlight-color: rgba(0, 0, 0, 0);">O</tspan>
    </text>
    <text x="-51.96041142276579" y="-50.001653728000704" text-anchor="middle" font="30px &quot;Arial&quot;" stroke="none" fill="#000000" style="-webkit-tap-highlight-color: rgba(0, 0, 0, 0); text-anchor: middle; font: 24px Arial;" font-size="24px" transform="matrix(1,0,0,1,359,281.6243)">
      <tspan dy="8.506158771999296" style="-webkit-tap-highlight-color: rgba(0, 0, 0, 0);">O</tspan>
    </text>
    <path fill="#000000" stroke="#000000" d="M-17.318521,9.9974217L-21.98518767,33.284375L-12.65185434,33.284375Z" stroke-width="1.6" stroke-linecap="round" stroke-linejoin="round" style="-webkit-tap-highlight-color: rgba(0, 0, 0, 0); stroke-linecap: round; stroke-linejoin: round;" transform="matrix(1,0,0,1,359,281.6243)"/>
    <path fill="none" stroke="#000000" d="M-17.318521,9.9974217L17.318521,-9.9974217" stroke-width="1.6" stroke-linecap="round" stroke-linejoin="round" style="-webkit-tap-highlight-color: rgba(0, 0, 0, 0); stroke-linecap: round; stroke-linejoin: round;" transform="matrix(1,0,0,1,359,281.6243)"/>
    <path fill="none" stroke="#000000" d="M17.318521,-9.9974217L51.96041142,9.9974217" stroke-width="1.6" stroke-linecap="round" stroke-linejoin="round" style="-webkit-tap-highlight-color: rgba(0, 0, 0, 0); stroke-linecap: round; stroke-linejoin: round;" transform="matrix(1,0,0,1,359,281.6243)"/>
    <path fill="none" stroke="#000000" d="M51.96041142,9.9974217L74.4941476,-3.00875437" stroke-width="1.6" stroke-linecap="round" stroke-linejoin="round" style="-webkit-tap-highlight-color: rgba(0, 0, 0, 0); stroke-linecap: round; stroke-linejoin: round;" transform="matrix(1,0,0,1,359,281.6243)"/>
    <path fill="none" stroke="#000000" d="M98.70888045,-3.00868567L121.23934385,9.9974217" stroke-width="1.6" stroke-linecap="round" stroke-linejoin="round" style="-webkit-tap-highlight-color: rgba(0, 0, 0, 0); stroke-linecap: round; stroke-linejoin: round;" transform="matrix(1,0,0,1,359,281.6243)"/>
    <path fill="none" stroke="#000000" d="M121.23934385,9.9974217L155.88123427,-9.9974217" stroke-width="1.6" stroke-linecap="round" stroke-linejoin="round" style="-webkit-tap-highlight-color: rgba(0, 0, 0, 0); stroke-linecap: round; stroke-linejoin: round;" transform="matrix(1,0,0,1,359,281.6243)"/>
    <path fill="none" stroke="#000000" d="M162.54790093,-13.8469683L162.54790093,-46.15257371M155.88123427,-9.9974217L155.88123427,-50.00165373" stroke-width="1.6" stroke-linecap="round" stroke-linejoin="round" style="-webkit-tap-highlight-color: rgba(0, 0, 0, 0); stroke-linecap: round; stroke-linejoin: round;" transform="matrix(1,0,0,1,359,281.6243)"/>
    <path fill="none" stroke="#000000" d="M155.88123427,-50.00165373L190.52312469,-70.00134554" stroke-width="1.6" stroke-linecap="round" stroke-linejoin="round" style="-webkit-tap-highlight-color: rgba(0, 0, 0, 0); stroke-linecap: round; stroke-linejoin: round;" transform="matrix(1,0,0,1,359,281.6243)"/>
    <path fill="none" stroke="#000000" d="M190.52312469,-62.30342017L218.49834844,-46.15257371M190.52312469,-70.00134554L225.16501511,-50.00165373" stroke-width="1.6" stroke-linecap="round" stroke-linejoin="round" style="-webkit-tap-highlight-color: rgba(0, 0, 0, 0); stroke-linecap: round; stroke-linejoin: round;" transform="matrix(1,0,0,1,359,281.6243)"/>
    <path fill="none" stroke="#000000" d="M225.16501511,-50.00165373L225.16501511,-9.9974217" stroke-width="1.6" stroke-linecap="round" stroke-linejoin="round" style="-webkit-tap-highlight-color: rgba(0, 0, 0, 0); stroke-linecap: round; stroke-linejoin: round;" transform="matrix(1,0,0,1,359,281.6243)"/>
    <path fill="none" stroke="#000000" d="M218.49834844,-13.8469683L190.52312469,2.2999628M225.16501511,-9.9974217L190.52312469,9.9974217" stroke-width="1.6" stroke-linecap="round" stroke-linejoin="round" style="-webkit-tap-highlight-color: rgba(0, 0, 0, 0); stroke-linecap: round; stroke-linejoin: round;" transform="matrix(1,0,0,1,359,281.6243)"/>
    <path fill="none" stroke="#000000" d="M155.88123427,-9.9974217L190.52312469,9.9974217" stroke-width="1.6" stroke-linecap="round" stroke-linejoin="round" style="-webkit-tap-highlight-color: rgba(0, 0, 0, 0); stroke-linecap: round; stroke-linejoin: round;" transform="matrix(1,0,0,1,359,281.6243)"/>
    <path fill="none" stroke="#000000" d="M48.62707809,9.9974217L48.62707809,33.284375M55.29374476,9.9974217L55.29374476,33.284375" stroke-width="1.6" stroke-linecap="round" stroke-linejoin="round" style="-webkit-tap-highlight-color: rgba(0, 0, 0, 0); stroke-linecap: round; stroke-linejoin: round;" transform="matrix(1,0,0,1,359,281.6243)"/>
    <path fill="#000000" stroke="#000000" d="M17.318521,-9.9974217L21.98518767,-33.284375L12.65185434,-33.284375Z" stroke-width="1.6" stroke-linecap="round" stroke-linejoin="round" style="-webkit-tap-highlight-color: rgba(0, 0, 0, 0); stroke-linecap: round; stroke-linejoin: round;" transform="matrix(1,0,0,1,359,281.6243)"/>
    <path fill="none" stroke="#000000" d="M-17.318521,9.9974217L-51.96041142,-9.9974217" stroke-width="1.6" stroke-linecap="round" stroke-linejoin="round" style="-webkit-tap-highlight-color: rgba(0, 0, 0, 0); stroke-linecap: round; stroke-linejoin: round;" transform="matrix(1,0,0,1,359,281.6243)"/>
    <path fill="none" stroke="#000000" d="M-51.96041142,-9.9974217L-74.4941476,3.00875437" stroke-width="1.6" stroke-linecap="round" stroke-linejoin="round" style="-webkit-tap-highlight-color: rgba(0, 0, 0, 0); stroke-linecap: round; stroke-linejoin: round;" transform="matrix(1,0,0,1,359,281.6243)"/>
    <path fill="none" stroke="#000000" d="M-98.70888045,3.00868567L-121.23934385,-9.9974217" stroke-width="1.6" stroke-linecap="round" stroke-linejoin="round" style="-webkit-tap-highlight-color: rgba(0, 0, 0, 0); stroke-linecap: round; stroke-linejoin: round;" transform="matrix(1,0,0,1,359,281.6243)"/>
    <path fill="none" stroke="#000000" d="M-121.23934385,-9.9974217L-155.88123427,9.9974217" stroke-width="1.6" stroke-linecap="round" stroke-linejoin="round" style="-webkit-tap-highlight-color: rgba(0, 0, 0, 0); stroke-linecap: round; stroke-linejoin: round;" transform="matrix(1,0,0,1,359,281.6243)"/>
    <path fill="none" stroke="#000000" d="M-162.54790093,13.8469683L-162.54790093,46.15257371M-155.88123427,9.9974217L-155.88123427,50.00165373" stroke-width="1.6" stroke-linecap="round" stroke-linejoin="round" style="-webkit-tap-highlight-color: rgba(0, 0, 0, 0); stroke-linecap: round; stroke-linejoin: round;" transform="matrix(1,0,0,1,359,281.6243)"/>
    <path fill="none" stroke="#000000" d="M-155.88123427,50.00165373L-190.52312469,70.00134554" stroke-width="1.6" stroke-linecap="round" stroke-linejoin="round" style="-webkit-tap-highlight-color: rgba(0, 0, 0, 0); stroke-linecap: round; stroke-linejoin: round;" transform="matrix(1,0,0,1,359,281.6243)"/>
    <path fill="none" stroke="#000000" d="M-190.52312469,62.30342017L-218.49834844,46.15257371M-190.52312469,70.00134554L-225.16501511,50.00165373" stroke-width="1.6" stroke-linecap="round" stroke-linejoin="round" style="-webkit-tap-highlight-color: rgba(0, 0, 0, 0); stroke-linecap: round; stroke-linejoin: round;" transform="matrix(1,0,0,1,359,281.6243)"/>
    <path fill="none" stroke="#000000" d="M-225.16501511,50.00165373L-225.16501511,9.9974217" stroke-width="1.6" stroke-linecap="round" stroke-linejoin="round" style="-webkit-tap-highlight-color: rgba(0, 0, 0, 0); stroke-linecap: round; stroke-linejoin: round;" transform="matrix(1,0,0,1,359,281.6243)"/>
    <path fill="none" stroke="#000000" d="M-218.49834844,13.8469683L-190.52312469,-2.2999628M-225.16501511,9.9974217L-190.52312469,-9.9974217" stroke-width="1.6" stroke-linecap="round" stroke-linejoin="round" style="-webkit-tap-highlight-color: rgba(0, 0, 0, 0); stroke-linecap: round; stroke-linejoin: round;" transform="matrix(1,0,0,1,359,281.6243)"/>
    <path fill="none" stroke="#000000" d="M-155.88123427,9.9974217L-190.52312469,-9.9974217" stroke-width="1.6" stroke-linecap="round" stroke-linejoin="round" style="-webkit-tap-highlight-color: rgba(0, 0, 0, 0); stroke-linecap: round; stroke-linejoin: round;" transform="matrix(1,0,0,1,359,281.6243)"/>
    <path fill="none" stroke="#000000" d="M-48.62707809,-9.9974217L-48.62707809,-33.284375M-55.29374476,-9.9974217L-55.29374476,-33.284375" stroke-width="1.6" stroke-linecap="round" stroke-linejoin="round" style="-webkit-tap-highlight-color: rgba(0, 0, 0, 0); stroke-linecap: round; stroke-linejoin: round;" transform="matrix(1,0,0,1,359,281.6243)"/>
    <text x="185.764" y="-97.752" text-anchor="middle" font="30px &quot;Arial&quot;" stroke="none" fill="#000000" style="-webkit-tap-highlight-color: rgba(0, 0, 0, 0); text-anchor: middle; font: 24px Arial;" font-size="24px" transform="matrix(1,0,0,1,359,281.6243)">
      <tspan dy="8.505812500000005" style="-webkit-tap-highlight-color: rgba(0, 0, 0, 0);">Chiral</tspan>
    </text>
  </g>
</svg>
