
<svg version="1.1" id="topsvg" xmlns="http://www.w3.org/2000/svg" x="0" y="0" width="200px" height="200px" viewBox="0 0 100 100" xmlns:xlink="http://www.w3.org/1999/xlink">
<title> - Open Babel Depiction</title>
<rect x="0" y="0" width="100" height="100" fill="white"></rect>
<g transform="translate(0,0)">
<svg width="100" height="100" x="0" y="0" viewBox="0 0 264.197 215.205" font-family="sans-serif" stroke="#000000" stroke-width="2" stroke-linecap="round">
<line x1="106.9" y1="146.9" x2="78.6" y2="175.2" opacity="1.0" stroke="#000000" stroke-width="2.0"></line>
<line x1="78.6" y1="175.2" x2="52.6" y2="168.2" opacity="1.0" stroke="#000000" stroke-width="2.0"></line>
<line x1="146.9" y1="106.9" x2="175.2" y2="78.6" opacity="1.0" stroke="#000000" stroke-width="2.0"></line>
<line x1="172.3" y1="79.4" x2="165.3" y2="53.3" opacity="1.0" stroke="#000000" stroke-width="2.0"></line>
<line x1="178.1" y1="77.9" x2="171.1" y2="51.8" opacity="1.0" stroke="#000000" stroke-width="2.0"></line>
<line x1="175.2" y1="78.6" x2="213.8" y2="89.0" opacity="1.0" stroke="#000000" stroke-width="2.0"></line>
<line x1="213.8" y1="89.0" x2="220.8" y2="115.1" opacity="1.0" stroke="#000000" stroke-width="2.0"></line>
<line x1="146.9" y1="146.9" x2="166.0" y2="166.0" opacity="1.0" stroke="#000000" stroke-width="2.0"></line>
<line x1="106.9" y1="106.9" x2="106.9" y2="146.9" opacity="1.0" stroke="#000000" stroke-width="2.0"></line>
<line x1="106.9" y1="146.9" x2="146.9" y2="146.9" opacity="1.0" stroke="#000000" stroke-width="2.0"></line>
<line x1="146.9" y1="146.9" x2="146.9" y2="106.9" opacity="1.0" stroke="#000000" stroke-width="2.0"></line>
<line x1="146.9" y1="106.9" x2="106.9" y2="106.9" opacity="1.0" stroke="#000000" stroke-width="2.0"></line>
<line x1="80.3" y1="111.1" x2="106.9" y2="106.9" opacity="1.0" stroke="#000000" stroke-width="2.0"></line>
<line x1="106.9" y1="106.9" x2="111.1" y2="80.3" opacity="1.0" stroke="#000000" stroke-width="2.0"></line>
<line x1="101.6" y1="61.5" x2="77.5" y2="49.3" opacity="1.0" stroke="#000000" stroke-width="2.0"></line>
<line x1="77.5" y1="49.3" x2="49.3" y2="77.5" opacity="1.0" stroke="#000000" stroke-width="2.0"></line>
<line x1="49.3" y1="77.5" x2="61.5" y2="101.6" opacity="1.0" stroke="#000000" stroke-width="2.0"></line>
<text x="61.412210" y="121.176561" fill="#000000" stroke="#000000" stroke-width="1" font-size="16">S</text>
<text x="107.176561" y="75.412210" fill="#000000" stroke="#000000" stroke-width="1" font-size="16">S</text>
<text x="14.000000" y="172.852958" fill="#000000" stroke="#000000" stroke-width="1" font-size="16">H</text>
<text x="26.000000" y="176.532958" fill="#000000" stroke="#000000" stroke-width="1" font-size="13">3</text>
<text x="32.500000" y="172.852958" fill="#000000" stroke="#000000" stroke-width="1" font-size="16">C</text>
<text x="158.852958" y="48.000000" fill="#000000" stroke="#000000" stroke-width="1" font-size="16">O</text>
<text x="220.197413" y="135.624672" fill="#000000" stroke="#000000" stroke-width="1" font-size="16">CH</text>
<text x="244.197413" y="139.304672" fill="#000000" stroke="#000000" stroke-width="1" font-size="13">3</text>
<text x="171.205037" y="183.205037" fill="#000000" stroke="#000000" stroke-width="1" font-size="16">CH</text>
<text x="195.205037" y="186.885037" fill="#000000" stroke="#000000" stroke-width="1" font-size="13">3</text>
</svg>
</g>
</svg>
