
<svg version="1.1" id="topsvg" xmlns="http://www.w3.org/2000/svg" x="0" y="0" width="200px" height="200px" viewBox="0 0 100 100" xmlns:xlink="http://www.w3.org/1999/xlink">
<title> - Open Babel Depiction</title>
<rect x="0" y="0" width="100" height="100" fill="white"></rect>
<g transform="translate(0,0)">
<svg width="100" height="100" x="0" y="0" viewBox="0 0 468.425 291.644" font-family="sans-serif" stroke="#000000" stroke-width="2" stroke-linecap="round">
<line x1="109.3" y1="131.6" x2="109.3" y2="104.6" opacity="1.0" stroke="#000000" stroke-width="2.0"></line>
<line x1="74.6" y1="151.6" x2="51.3" y2="138.1" opacity="1.0" stroke="#000000" stroke-width="2.0"></line>
<line x1="143.9" y1="151.6" x2="178.6" y2="131.6" opacity="1.0" stroke="#000000" stroke-width="2.0"></line>
<line x1="109.3" y1="211.6" x2="109.3" y2="238.6" opacity="1.0" stroke="#000000" stroke-width="2.0"></line>
<line x1="178.6" y1="131.6" x2="201.9" y2="118.1" opacity="1.0" stroke="#000000" stroke-width="2.0"></line>
<line x1="176.5" y1="128.0" x2="199.8" y2="114.5" opacity="1.0" stroke="#000000" stroke-width="2.0"></line>
<line x1="180.7" y1="135.3" x2="204.0" y2="121.8" opacity="1.0" stroke="#000000" stroke-width="2.0"></line>
<line x1="109.3" y1="78.6" x2="109.3" y2="64.6" opacity="1.0" stroke="#000000" stroke-width="2.0"></line>
<line x1="105.1" y1="78.6" x2="105.1" y2="64.6" opacity="1.0" stroke="#000000" stroke-width="2.0"></line>
<line x1="113.5" y1="78.6" x2="113.5" y2="64.6" opacity="1.0" stroke="#000000" stroke-width="2.0"></line>
<line x1="401.4" y1="74.6" x2="415.4" y2="74.6" opacity="1.0" stroke="#000000" stroke-width="2.0"></line>
<line x1="381.9" y1="63.4" x2="374.9" y2="51.3" opacity="1.0" stroke="#000000" stroke-width="2.0"></line>
<line x1="381.9" y1="85.9" x2="374.9" y2="98.0" opacity="1.0" stroke="#000000" stroke-width="2.0"></line>
<line x1="394.9" y1="63.4" x2="401.9" y2="51.3" opacity="1.0" stroke="#000000" stroke-width="2.0"></line>
<line x1="143.9" y1="151.6" x2="143.9" y2="191.6" opacity="1.0" stroke="#000000" stroke-width="2.0"></line>
<line x1="136.7" y1="157.6" x2="136.7" y2="185.6" opacity="1.0" stroke="#000000" stroke-width="2.0"></line>
<line x1="143.9" y1="191.6" x2="109.3" y2="211.6" opacity="1.0" stroke="#000000" stroke-width="2.0"></line>
<line x1="109.3" y1="211.6" x2="74.6" y2="191.6" opacity="1.0" stroke="#000000" stroke-width="2.0"></line>
<line x1="107.7" y1="202.4" x2="83.4" y2="188.4" opacity="1.0" stroke="#000000" stroke-width="2.0"></line>
<line x1="74.6" y1="191.6" x2="74.6" y2="151.6" opacity="1.0" stroke="#000000" stroke-width="2.0"></line>
<line x1="74.6" y1="151.6" x2="109.3" y2="131.6" opacity="1.0" stroke="#000000" stroke-width="2.0"></line>
<line x1="83.4" y1="154.9" x2="107.7" y2="140.9" opacity="1.0" stroke="#000000" stroke-width="2.0"></line>
<line x1="109.3" y1="131.6" x2="143.9" y2="151.6" opacity="1.0" stroke="#000000" stroke-width="2.0"></line>
<text x="402.424769" y="48.000000" fill="#000000" stroke="#000000" stroke-width="1" font-size="16">F</text>
<text x="362.424686" y="117.280145" fill="#000000" stroke="#000000" stroke-width="1" font-size="16">F</text>
<text x="362.424686" y="48.000000" fill="#000000" stroke="#000000" stroke-width="1" font-size="16">F</text>
<text x="422.424811" y="82.640072" fill="#000000" stroke="#000000" stroke-width="1" font-size="16">F</text>
<text x="393.224727" y="60.528072" fill="#000000" stroke="#000000" stroke-width="1" font-size="16">_</text>
<text x="382.424727" y="82.640072" fill="#000000" stroke="#000000" stroke-width="1" font-size="16">B</text>
<text x="103.280145" y="59.640024" fill="#000000" stroke="#000000" stroke-width="1" font-size="16">N</text>
<text x="207.204362" y="119.640150" fill="#000000" stroke="#000000" stroke-width="1" font-size="16">N</text>
<text x="103.280145" y="259.644442" fill="#000000" stroke="#000000" stroke-width="1" font-size="16">Br</text>
<text x="22.000000" y="139.640191" fill="#000000" stroke="#000000" stroke-width="1" font-size="16">Br</text>
<text x="114.080145" y="87.608108" fill="#000000" stroke="#000000" stroke-width="1" font-size="16">+</text>
<text x="103.280145" y="99.640108" fill="#000000" stroke="#000000" stroke-width="1" font-size="16">N</text>
</svg>
</g>
</svg>
