<?xml version="1.0"?>
<svg xmlns="http://www.w3.org/2000/svg" height="294.1752171832254" version="1.1" width="349.9984788665149" style="overflow: hidden; position: relative;" viewBox="0 0 369 314">
  <g transform="translate(-253, -119)">
    <defs style="-webkit-tap-highlight-color: rgba(0, 0, 0, 0);"/>
    <text x="73.85628037703069" y="101.8026862125985" text-anchor="middle" font="30px &quot;Arial&quot;" stroke="none" fill="#000000" style="-webkit-tap-highlight-color: rgba(0, 0, 0, 0); text-anchor: middle; font: 24px Arial;" font-size="24px" transform="matrix(1,0,0,1,368.6516,270.2578)">
      <tspan dy="8.497998712598502" style="-webkit-tap-highlight-color: rgba(0, 0, 0, 0);">O</tspan>
    </text>
    <text x="77.58957886651493" y="30.617896053367602" text-anchor="middle" font="30px &quot;Arial&quot;" stroke="none" fill="#000000" style="-webkit-tap-highlight-color: rgba(0, 0, 0, 0); text-anchor: middle; font: 24px Arial;" font-size="24px" transform="matrix(1,0,0,1,368.6516,270.2578)">
      <tspan dy="8.500708553367602" style="-webkit-tap-highlight-color: rgba(0, 0, 0, 0);">O</tspan>
    </text>
    <text x="18.462857984358486" y="56.94492306362669" text-anchor="middle" font="30px &quot;Arial&quot;" stroke="none" fill="#000000" style="-webkit-tap-highlight-color: rgba(0, 0, 0, 0); text-anchor: middle; font: 24px Arial;" font-size="24px" transform="matrix(1,0,0,1,368.6516,270.2578)">
      <tspan dy="8.499610563626689" style="-webkit-tap-highlight-color: rgba(0, 0, 0, 0);">N</tspan>
    </text>
    <text x="-77.58957886651493" y="99.63058527326223" text-anchor="middle" font="30px &quot;Arial&quot;" stroke="none" fill="#000000" style="-webkit-tap-highlight-color: rgba(0, 0, 0, 0); text-anchor: middle; font: 24px Arial;" font-size="24px" transform="matrix(1,0,0,1,368.6516,270.2578)">
      <tspan dy="8.497772773262227" style="-webkit-tap-highlight-color: rgba(0, 0, 0, 0);">C</tspan>
    </text>
    <text x="-77.58957886651493" y="99.63058527326223" text-anchor="middle" font="30px &quot;Arial&quot;" stroke="none" fill="#000000" style="-webkit-tap-highlight-color: rgba(0, 0, 0, 0); text-anchor: middle; font: 24px Arial;" font-size="24px" transform="matrix(1,0,0,1,340.2547,270.2578)">
      <tspan dy="8.497772773262227" style="-webkit-tap-highlight-color: rgba(0, 0, 0, 0);">H</tspan>
    </text>
    <text x="-77.58957886651493" y="99.63058527326223" text-anchor="middle" font="30px &quot;Arial&quot;" stroke="none" fill="#000000" style="-webkit-tap-highlight-color: rgba(0, 0, 0, 0); text-anchor: middle; font: 17px Arial;" font-size="17px" transform="matrix(1,0,0,1,354.4531,275.6609)">
      <tspan dy="5.497772773262227" style="-webkit-tap-highlight-color: rgba(0, 0, 0, 0);">3</tspan>
    </text>
    <text x="-2.94785127481354" y="122.83521718322538" text-anchor="middle" font="30px &quot;Arial&quot;" stroke="none" fill="#000000" style="-webkit-tap-highlight-color: rgba(0, 0, 0, 0); text-anchor: middle; font: 24px Arial;" font-size="24px" transform="matrix(1,0,0,1,368.6516,270.2578)">
      <tspan dy="8.499279683225382" style="-webkit-tap-highlight-color: rgba(0, 0, 0, 0);">O</tspan>
    </text>
    <path fill="none" stroke="#000000" d="M69.58826028,84.01787369L60.63502043,63.90444036M63.49775049,86.72898691L54.54451063,66.61555358" stroke-width="1.6" stroke-linecap="round" stroke-linejoin="round" style="-webkit-tap-highlight-color: rgba(0, 0, 0, 0); stroke-linecap: round; stroke-linejoin: round;" transform="matrix(1,0,0,1,368.6516,270.2578)"/>
    <path fill="none" stroke="#000000" d="M57.58976553,65.25999697L68.19161452,46.89630945" stroke-width="1.6" stroke-linecap="round" stroke-linejoin="round" style="-webkit-tap-highlight-color: rgba(0, 0, 0, 0); stroke-linecap: round; stroke-linejoin: round;" transform="matrix(1,0,0,1,368.6516,270.2578)"/>
    <path fill="none" stroke="#000000" d="M66.10864866,17.86846966L50.82134385,0.89211289" stroke-width="1.6" stroke-linecap="round" stroke-linejoin="round" style="-webkit-tap-highlight-color: rgba(0, 0, 0, 0); stroke-linecap: round; stroke-linejoin: round;" transform="matrix(1,0,0,1,368.6516,270.2578)"/>
    <path fill="none" stroke="#000000" d="M50.82134385,0.89211289L14.28350305,17.16347617" stroke-width="1.6" stroke-linecap="round" stroke-linejoin="round" style="-webkit-tap-highlight-color: rgba(0, 0, 0, 0); stroke-linecap: round; stroke-linejoin: round;" transform="matrix(1,0,0,1,368.6516,270.2578)"/>
    <path fill="none" stroke="#000000" d="M14.38494923,16.98775909L14.18205687,17.33919326M11.42281362,14.80906944L10.81413653,15.86337195M8.46067801,12.63037979L7.44621618,14.38755064M5.4985424,10.45169014L4.07829584,12.91172932M2.53640678,8.27300049L0.7103755,11.43590801M-0.42572883,6.09431084L-2.65754485,9.9600867M-3.38786444,3.91562118L-6.02546519,8.48426539M-6.35000006,1.73693153L-9.39338553,7.00844408M-9.31213567,-0.44175812L-12.76130588,5.53262277M-12.27427128,-2.62044777L-16.12922622,4.05680146M-15.23640689,-4.79913742L-19.49714657,2.58098015M-18.19854251,-6.97782707L-22.86506691,1.10515884" stroke-width="1.6" stroke-linecap="round" stroke-linejoin="round" style="-webkit-tap-highlight-color: rgba(0, 0, 0, 0); stroke-linecap: round; stroke-linejoin: round;" transform="matrix(1,0,0,1,368.6516,270.2578)"/>
    <path fill="none" stroke="#000000" d="M-20.35859787,-2.83633716L-20.35859787,-42.83596384" stroke-width="1.6" stroke-linecap="round" stroke-linejoin="round" style="-webkit-tap-highlight-color: rgba(0, 0, 0, 0); stroke-linecap: round; stroke-linejoin: round;" transform="matrix(1,0,0,1,368.6516,270.2578)"/>
    <path fill="none" stroke="#000000" d="M-20.35859787,-42.83596384L14.28350305,-62.83577717M-20.35859787,-50.5338892L7.61683639,-66.68485719" stroke-width="1.6" stroke-linecap="round" stroke-linejoin="round" style="-webkit-tap-highlight-color: rgba(0, 0, 0, 0); stroke-linecap: round; stroke-linejoin: round;" transform="matrix(1,0,0,1,368.6516,270.2578)"/>
    <path fill="none" stroke="#000000" d="M14.28350305,-62.83577717L14.28350305,-102.83540385" stroke-width="1.6" stroke-linecap="round" stroke-linejoin="round" style="-webkit-tap-highlight-color: rgba(0, 0, 0, 0); stroke-linecap: round; stroke-linejoin: round;" transform="matrix(1,0,0,1,368.6516,270.2578)"/>
    <path fill="none" stroke="#000000" d="M14.28350305,-102.83540385L-20.35859787,-122.83521718M7.61683639,-98.98632383L-20.35859787,-115.13729182" stroke-width="1.6" stroke-linecap="round" stroke-linejoin="round" style="-webkit-tap-highlight-color: rgba(0, 0, 0, 0); stroke-linecap: round; stroke-linejoin: round;" transform="matrix(1,0,0,1,368.6516,270.2578)"/>
    <path fill="none" stroke="#000000" d="M-20.35859787,-122.83521718L-55.00069879,-102.83540385" stroke-width="1.6" stroke-linecap="round" stroke-linejoin="round" style="-webkit-tap-highlight-color: rgba(0, 0, 0, 0); stroke-linecap: round; stroke-linejoin: round;" transform="matrix(1,0,0,1,368.6516,270.2578)"/>
    <path fill="none" stroke="#000000" d="M-55.00069879,-102.83540385L-55.00069879,-62.83577717M-48.33403212,-98.98632383L-48.33403212,-66.68485719" stroke-width="1.6" stroke-linecap="round" stroke-linejoin="round" style="-webkit-tap-highlight-color: rgba(0, 0, 0, 0); stroke-linecap: round; stroke-linejoin: round;" transform="matrix(1,0,0,1,368.6516,270.2578)"/>
    <path fill="none" stroke="#000000" d="M-20.35859787,-42.83596384L-55.00069879,-62.83577717" stroke-width="1.6" stroke-linecap="round" stroke-linejoin="round" style="-webkit-tap-highlight-color: rgba(0, 0, 0, 0); stroke-linecap: round; stroke-linejoin: round;" transform="matrix(1,0,0,1,368.6516,270.2578)"/>
    <path fill="none" stroke="#000000" d="M14.28350305,17.16347617L16.70945139,40.25501461" stroke-width="1.6" stroke-linecap="round" stroke-linejoin="round" style="-webkit-tap-highlight-color: rgba(0, 0, 0, 0); stroke-linecap: round; stroke-linejoin: round;" transform="matrix(1,0,0,1,368.6516,270.2578)"/>
    <path fill="none" stroke="#000000" d="M57.58976553,65.25999697L30.25509846,59.45095682" stroke-width="1.6" stroke-linecap="round" stroke-linejoin="round" style="-webkit-tap-highlight-color: rgba(0, 0, 0, 0); stroke-linecap: round; stroke-linejoin: round;" transform="matrix(1,0,0,1,368.6516,270.2578)"/>
    <path fill="none" stroke="#000000" d="M7.41873881,66.88841317L-11.26292518,83.70830964" stroke-width="1.6" stroke-linecap="round" stroke-linejoin="round" style="-webkit-tap-highlight-color: rgba(0, 0, 0, 0); stroke-linecap: round; stroke-linejoin: round;" transform="matrix(1,0,0,1,368.6516,270.2578)"/>
    <path fill="none" stroke="#000000" d="M-11.26292518,83.70830964L-49.30378226,71.34963711" stroke-width="1.6" stroke-linecap="round" stroke-linejoin="round" style="-webkit-tap-highlight-color: rgba(0, 0, 0, 0); stroke-linecap: round; stroke-linejoin: round;" transform="matrix(1,0,0,1,368.6516,270.2578)"/>
    <path fill="none" stroke="#000000" d="M-49.30378226,71.34963711L-66.65893936,88.70181938" stroke-width="1.6" stroke-linecap="round" stroke-linejoin="round" style="-webkit-tap-highlight-color: rgba(0, 0, 0, 0); stroke-linecap: round; stroke-linejoin: round;" transform="matrix(1,0,0,1,368.6516,270.2578)"/>
    <path fill="none" stroke="#000000" d="M-14.52344442,84.40122048L-9.74403122,106.89093738M-8.00240595,83.0153988L-3.22299275,105.50511569" stroke-width="1.6" stroke-linecap="round" stroke-linejoin="round" style="-webkit-tap-highlight-color: rgba(0, 0, 0, 0); stroke-linecap: round; stroke-linejoin: round;" transform="matrix(1,0,0,1,368.6516,270.2578)"/>
    <text x="64.012" y="-141.34" text-anchor="middle" font="30px &quot;Arial&quot;" stroke="none" fill="#000000" style="-webkit-tap-highlight-color: rgba(0, 0, 0, 0); text-anchor: middle; font: 24px Arial;" font-size="24px" transform="matrix(1,0,0,1,368.6516,270.2578)">
      <tspan dy="8.495937499999997" style="-webkit-tap-highlight-color: rgba(0, 0, 0, 0);">Chiral</tspan>
    </text>
  </g>
</svg>
