<?xml version="1.0"?>
<svg xmlns="http://www.w3.org/2000/svg" height="197.75378124455483" version="1.1" width="401.26409848000003" style="overflow: hidden; position: relative;" viewBox="0 0 421 217">
  <g transform="translate(-223, -167)">
    <defs style="-webkit-tap-highlight-color: rgba(0, 0, 0, 0);"/>
    <text x="-17.31862879938702" y="50.00196495186963" text-anchor="middle" font="30px &quot;Arial&quot;" stroke="none" fill="#000000" style="-webkit-tap-highlight-color: rgba(0, 0, 0, 0); text-anchor: middle; font: 24px Arial;" font-size="24px" transform="matrix(1,0,0,1,353.9404,274.875)">
      <tspan dy="8.494152451869631" style="-webkit-tap-highlight-color: rgba(0, 0, 0, 0);">N</tspan>
    </text>
    <text x="-17.31862879938702" y="50.00196495186963" text-anchor="middle" font="30px &quot;Arial&quot;" stroke="none" fill="#000000" style="-webkit-tap-highlight-color: rgba(0, 0, 0, 0); text-anchor: middle; font: 24px Arial;" font-size="24px" transform="matrix(1,0,0,1,372.0685,274.875)">
      <tspan dy="8.494152451869631" style="-webkit-tap-highlight-color: rgba(0, 0, 0, 0);">H</tspan>
    </text>
    <text x="-17.31862879938702" y="50.00196495186963" text-anchor="middle" font="30px &quot;Arial&quot;" stroke="none" fill="#000000" style="-webkit-tap-highlight-color: rgba(0, 0, 0, 0); text-anchor: middle; font: 17px Arial;" font-size="17px" transform="matrix(1,0,0,1,386.2591,280.2781)">
      <tspan dy="5.494152451869631" style="-webkit-tap-highlight-color: rgba(0, 0, 0, 0);">2</tspan>
    </text>
    <text x="-17.31862879938702" y="-70.0017812445548" text-anchor="middle" font="30px &quot;Arial&quot;" stroke="none" fill="#000000" style="-webkit-tap-highlight-color: rgba(0, 0, 0, 0); text-anchor: middle; font: 24px Arial;" font-size="24px" transform="matrix(1,0,0,1,353.9404,274.875)">
      <tspan dy="8.506031255445194" style="-webkit-tap-highlight-color: rgba(0, 0, 0, 0);">O</tspan>
    </text>
    <text x="-17.31862879938702" y="-70.0017812445548" text-anchor="middle" font="30px &quot;Arial&quot;" stroke="none" fill="#000000" style="-webkit-tap-highlight-color: rgba(0, 0, 0, 0); text-anchor: middle; font: 24px Arial;" font-size="24px" transform="matrix(1,0,0,1,372.7404,274.875)">
      <tspan dy="8.506031255445194" style="-webkit-tap-highlight-color: rgba(0, 0, 0, 0);">H</tspan>
    </text>
    <text x="17.31862879938702" y="70.0017812445548" text-anchor="middle" font="30px &quot;Arial&quot;" stroke="none" fill="#000000" style="-webkit-tap-highlight-color: rgba(0, 0, 0, 0); text-anchor: middle; font: 24px Arial;" font-size="24px" transform="matrix(1,0,0,1,353.9404,274.875)">
      <tspan dy="8.493968744554806" style="-webkit-tap-highlight-color: rgba(0, 0, 0, 0);">O</tspan>
    </text>
    <text x="17.31862879938702" y="70.0017812445548" text-anchor="middle" font="30px &quot;Arial&quot;" stroke="none" fill="#000000" style="-webkit-tap-highlight-color: rgba(0, 0, 0, 0); text-anchor: middle; font: 24px Arial;" font-size="24px" transform="matrix(1,0,0,1,335.1404,274.875)">
      <tspan dy="8.493968744554806" style="-webkit-tap-highlight-color: rgba(0, 0, 0, 0);">H</tspan>
    </text>
    <text x="17.31862879938702" y="-50.00196495186963" text-anchor="middle" font="30px &quot;Arial&quot;" stroke="none" fill="#000000" style="-webkit-tap-highlight-color: rgba(0, 0, 0, 0); text-anchor: middle; font: 24px Arial;" font-size="24px" transform="matrix(1,0,0,1,353.9404,274.875)">
      <tspan dy="8.505847548130369" style="-webkit-tap-highlight-color: rgba(0, 0, 0, 0);">N</tspan>
    </text>
    <text x="17.31862879938702" y="-50.00196495186963" text-anchor="middle" font="30px &quot;Arial&quot;" stroke="none" fill="#000000" style="-webkit-tap-highlight-color: rgba(0, 0, 0, 0); text-anchor: middle; font: 24px Arial;" font-size="24px" transform="matrix(1,0,0,1,372.0685,274.875)">
      <tspan dy="8.505847548130369" style="-webkit-tap-highlight-color: rgba(0, 0, 0, 0);">H</tspan>
    </text>
    <text x="17.31862879938702" y="-50.00196495186963" text-anchor="middle" font="30px &quot;Arial&quot;" stroke="none" fill="#000000" style="-webkit-tap-highlight-color: rgba(0, 0, 0, 0); text-anchor: middle; font: 17px Arial;" font-size="17px" transform="matrix(1,0,0,1,386.2591,280.2781)">
      <tspan dy="5.505847548130369" style="-webkit-tap-highlight-color: rgba(0, 0, 0, 0);">2</tspan>
    </text>
    <path fill="none" stroke="#000000" d="M-17.62973991,9.99748393L-17.00751769,9.99748393M-18.25196213,13.35275408L-16.38529547,13.35275408M-18.87418435,16.70802423L-15.76307324,16.70802423M-19.49640658,20.06329439L-15.14085102,20.06329439M-20.1186288,23.41856454L-14.5186288,23.41856454M-20.74085102,26.77383469L-13.89640658,26.77383469M-21.36307324,30.12910485L-13.27418435,30.12910485M-21.98529547,33.484375L-12.65196213,33.484375" stroke-width="1.6" stroke-linecap="round" stroke-linejoin="round" style="-webkit-tap-highlight-color: rgba(0, 0, 0, 0); stroke-linecap: round; stroke-linejoin: round;" transform="matrix(1,0,0,1,353.9404,274.875)"/>
    <path fill="none" stroke="#000000" d="M-17.3186288,9.99748393L-51.96073484,-9.99748393" stroke-width="1.6" stroke-linecap="round" stroke-linejoin="round" style="-webkit-tap-highlight-color: rgba(0, 0, 0, 0); stroke-linecap: round; stroke-linejoin: round;" transform="matrix(1,0,0,1,353.9404,274.875)"/>
    <path fill="none" stroke="#000000" d="M-58.62740151,-13.84703053L-86.60260764,2.29989041M-51.96073484,-9.99748393L-86.60284088,9.99748393" stroke-width="1.6" stroke-linecap="round" stroke-linejoin="round" style="-webkit-tap-highlight-color: rgba(0, 0, 0, 0); stroke-linecap: round; stroke-linejoin: round;" transform="matrix(1,0,0,1,353.9404,274.875)"/>
    <path fill="none" stroke="#000000" d="M-86.60284088,9.99748393L-121.24009848,-9.99748393" stroke-width="1.6" stroke-linecap="round" stroke-linejoin="round" style="-webkit-tap-highlight-color: rgba(0, 0, 0, 0); stroke-linecap: round; stroke-linejoin: round;" transform="matrix(1,0,0,1,353.9404,274.875)"/>
    <path fill="none" stroke="#000000" d="M-114.57343181,-13.84676118L-114.57343181,-46.1531543M-121.24009848,-9.99748393L-121.24009848,-50.00196495" stroke-width="1.6" stroke-linecap="round" stroke-linejoin="round" style="-webkit-tap-highlight-color: rgba(0, 0, 0, 0); stroke-linecap: round; stroke-linejoin: round;" transform="matrix(1,0,0,1,353.9404,274.875)"/>
    <path fill="none" stroke="#000000" d="M-121.24009848,-50.00196495L-86.60284088,-70.00178124" stroke-width="1.6" stroke-linecap="round" stroke-linejoin="round" style="-webkit-tap-highlight-color: rgba(0, 0, 0, 0); stroke-linecap: round; stroke-linejoin: round;" transform="matrix(1,0,0,1,353.9404,274.875)"/>
    <path fill="none" stroke="#000000" d="M-86.60260759,-62.3037212L-58.62740151,-46.15288493M-86.60284088,-70.00178124L-51.96073484,-50.00196495" stroke-width="1.6" stroke-linecap="round" stroke-linejoin="round" style="-webkit-tap-highlight-color: rgba(0, 0, 0, 0); stroke-linecap: round; stroke-linejoin: round;" transform="matrix(1,0,0,1,353.9404,274.875)"/>
    <path fill="none" stroke="#000000" d="M-51.96073484,-9.99748393L-51.96073484,-50.00196495" stroke-width="1.6" stroke-linecap="round" stroke-linejoin="round" style="-webkit-tap-highlight-color: rgba(0, 0, 0, 0); stroke-linecap: round; stroke-linejoin: round;" transform="matrix(1,0,0,1,353.9404,274.875)"/>
    <path fill="none" stroke="#000000" d="M-51.96073484,-50.00196495L-29.42755945,-63.01097104" stroke-width="1.6" stroke-linecap="round" stroke-linejoin="round" style="-webkit-tap-highlight-color: rgba(0, 0, 0, 0); stroke-linecap: round; stroke-linejoin: round;" transform="matrix(1,0,0,1,353.9404,274.875)"/>
    <path fill="none" stroke="#000000" d="M-17.3186288,9.99748393L17.3186288,-9.99748393" stroke-width="1.6" stroke-linecap="round" stroke-linejoin="round" style="-webkit-tap-highlight-color: rgba(0, 0, 0, 0); stroke-linecap: round; stroke-linejoin: round;" transform="matrix(1,0,0,1,353.9404,274.875)"/>
    <path fill="none" stroke="#000000" d="M17.3186288,-9.99748393L51.96073484,9.99748393" stroke-width="1.6" stroke-linecap="round" stroke-linejoin="round" style="-webkit-tap-highlight-color: rgba(0, 0, 0, 0); stroke-linecap: round; stroke-linejoin: round;" transform="matrix(1,0,0,1,353.9404,274.875)"/>
    <path fill="none" stroke="#000000" d="M58.62740151,13.84703053L86.60260764,-2.29989041M51.96073484,9.99748393L86.60284088,-9.99748393" stroke-width="1.6" stroke-linecap="round" stroke-linejoin="round" style="-webkit-tap-highlight-color: rgba(0, 0, 0, 0); stroke-linecap: round; stroke-linejoin: round;" transform="matrix(1,0,0,1,353.9404,274.875)"/>
    <path fill="none" stroke="#000000" d="M86.60284088,-9.99748393L121.24009848,9.99748393" stroke-width="1.6" stroke-linecap="round" stroke-linejoin="round" style="-webkit-tap-highlight-color: rgba(0, 0, 0, 0); stroke-linecap: round; stroke-linejoin: round;" transform="matrix(1,0,0,1,353.9404,274.875)"/>
    <path fill="none" stroke="#000000" d="M114.57343181,13.84676118L114.57343181,46.1531543M121.24009848,9.99748393L121.24009848,50.00196495" stroke-width="1.6" stroke-linecap="round" stroke-linejoin="round" style="-webkit-tap-highlight-color: rgba(0, 0, 0, 0); stroke-linecap: round; stroke-linejoin: round;" transform="matrix(1,0,0,1,353.9404,274.875)"/>
    <path fill="none" stroke="#000000" d="M121.24009848,50.00196495L86.60284088,70.00178124" stroke-width="1.6" stroke-linecap="round" stroke-linejoin="round" style="-webkit-tap-highlight-color: rgba(0, 0, 0, 0); stroke-linecap: round; stroke-linejoin: round;" transform="matrix(1,0,0,1,353.9404,274.875)"/>
    <path fill="none" stroke="#000000" d="M86.60260759,62.3037212L58.62740151,46.15288493M86.60284088,70.00178124L51.96073484,50.00196495" stroke-width="1.6" stroke-linecap="round" stroke-linejoin="round" style="-webkit-tap-highlight-color: rgba(0, 0, 0, 0); stroke-linecap: round; stroke-linejoin: round;" transform="matrix(1,0,0,1,353.9404,274.875)"/>
    <path fill="none" stroke="#000000" d="M51.96073484,9.99748393L51.96073484,50.00196495" stroke-width="1.6" stroke-linecap="round" stroke-linejoin="round" style="-webkit-tap-highlight-color: rgba(0, 0, 0, 0); stroke-linecap: round; stroke-linejoin: round;" transform="matrix(1,0,0,1,353.9404,274.875)"/>
    <path fill="none" stroke="#000000" d="M51.96073484,50.00196495L29.42755945,63.01097104" stroke-width="1.6" stroke-linecap="round" stroke-linejoin="round" style="-webkit-tap-highlight-color: rgba(0, 0, 0, 0); stroke-linecap: round; stroke-linejoin: round;" transform="matrix(1,0,0,1,353.9404,274.875)"/>
    <path fill="none" stroke="#000000" d="M17.62973991,-9.99748393L17.00751769,-9.99748393M18.25196213,-13.35275408L16.38529547,-13.35275408M18.87418435,-16.70802423L15.76307324,-16.70802423M19.49640658,-20.06329439L15.14085102,-20.06329439M20.1186288,-23.41856454L14.5186288,-23.41856454M20.74085102,-26.77383469L13.89640658,-26.77383469M21.36307324,-30.12910485L13.27418435,-30.12910485M21.98529547,-33.484375L12.65196213,-33.484375" stroke-width="1.6" stroke-linecap="round" stroke-linejoin="round" style="-webkit-tap-highlight-color: rgba(0, 0, 0, 0); stroke-linecap: round; stroke-linejoin: round;" transform="matrix(1,0,0,1,353.9404,274.875)"/>
    <text x="100.024" y="-97.752" text-anchor="middle" font="30px &quot;Arial&quot;" stroke="none" fill="#000000" style="-webkit-tap-highlight-color: rgba(0, 0, 0, 0); text-anchor: middle; font: 24px Arial;" font-size="24px" transform="matrix(1,0,0,1,353.9404,274.875)">
      <tspan dy="8.505812500000005" style="-webkit-tap-highlight-color: rgba(0, 0, 0, 0);">Chiral</tspan>
    </text>
  </g>
</svg>
