
<svg version="1.1" id="topsvg" xmlns="http://www.w3.org/2000/svg" x="0" y="0" width="200px" height="200px" viewBox="0 0 100 100" xmlns:xlink="http://www.w3.org/1999/xlink">
<title> - Open Babel Depiction</title>
<rect x="0" y="0" width="100" height="100" fill="white"></rect>
<g transform="translate(0,0)">
<svg width="100" height="100" x="0" y="0" viewBox="0 0 322.489 200" font-family="sans-serif" stroke="#000000" stroke-width="2" stroke-linecap="round">
<line x1="109.3" y1="140.0" x2="85.9" y2="153.5" opacity="1.0" stroke="#000000" stroke-width="2.0"></line>
<line x1="63.4" y1="153.5" x2="51.3" y2="146.5" opacity="1.0" stroke="#000000" stroke-width="2.0"></line>
<line x1="178.6" y1="100.0" x2="201.9" y2="86.5" opacity="1.0" stroke="#000000" stroke-width="2.0"></line>
<line x1="223.0" y1="70.9" x2="235.1" y2="63.9" opacity="1.0" stroke="#000000" stroke-width="2.0"></line>
<line x1="226.0" y1="76.1" x2="238.1" y2="69.1" opacity="1.0" stroke="#000000" stroke-width="2.0"></line>
<line x1="257.6" y1="50.9" x2="269.7" y2="43.9" opacity="1.0" stroke="#000000" stroke-width="2.0"></line>
<line x1="260.6" y1="56.1" x2="272.7" y2="49.1" opacity="1.0" stroke="#000000" stroke-width="2.0"></line>
<line x1="178.6" y1="100.0" x2="178.6" y2="140.0" opacity="1.0" stroke="#000000" stroke-width="2.0"></line>
<line x1="171.4" y1="106.0" x2="171.4" y2="134.0" opacity="1.0" stroke="#000000" stroke-width="2.0"></line>
<line x1="178.6" y1="140.0" x2="143.9" y2="160.0" opacity="1.0" stroke="#000000" stroke-width="2.0"></line>
<line x1="143.9" y1="160.0" x2="109.3" y2="140.0" opacity="1.0" stroke="#000000" stroke-width="2.0"></line>
<line x1="142.3" y1="150.8" x2="118.1" y2="136.8" opacity="1.0" stroke="#000000" stroke-width="2.0"></line>
<line x1="109.3" y1="140.0" x2="109.3" y2="100.0" opacity="1.0" stroke="#000000" stroke-width="2.0"></line>
<line x1="109.3" y1="100.0" x2="143.9" y2="80.0" opacity="1.0" stroke="#000000" stroke-width="2.0"></line>
<line x1="118.1" y1="103.2" x2="142.3" y2="89.2" opacity="1.0" stroke="#000000" stroke-width="2.0"></line>
<line x1="143.9" y1="80.0" x2="178.6" y2="100.0" opacity="1.0" stroke="#000000" stroke-width="2.0"></line>
<text x="68.644078" y="168.000271" fill="#000000" stroke="#000000" stroke-width="1" font-size="16">O</text>
<text x="14.000000" y="148.000225" fill="#000000" stroke="#000000" stroke-width="1" font-size="16">H</text>
<text x="26.000000" y="151.680225" fill="#000000" stroke="#000000" stroke-width="1" font-size="13">3</text>
<text x="32.500000" y="148.000225" fill="#000000" stroke="#000000" stroke-width="1" font-size="16">C</text>
<text x="207.204390" y="88.000090" fill="#000000" stroke="#000000" stroke-width="1" font-size="16">N</text>
<text x="252.648469" y="55.968045" fill="#000000" stroke="#000000" stroke-width="1" font-size="16">+</text>
<text x="241.848469" y="68.000045" fill="#000000" stroke="#000000" stroke-width="1" font-size="16">N</text>
<text x="287.288547" y="25.888000" fill="#000000" stroke="#000000" stroke-width="1" font-size="16">_</text>
<text x="276.488547" y="48.000000" fill="#000000" stroke="#000000" stroke-width="1" font-size="16">N</text>
</svg>
</g>
</svg>
