<?xml version="1.0"?>
<svg xmlns="http://www.w3.org/2000/svg" height="115.40436757645438" version="1.1" width="333.18596319129153" style="overflow: hidden; position: relative;" viewBox="0 0 353 135">
  <g transform="translate(-199, -210)">
    <defs style="-webkit-tap-highlight-color: rgba(0, 0, 0, 0);"/>
    <text x="-121.24298159564582" y="40.00058378645437" text-anchor="middle" font="30px &quot;Arial&quot;" stroke="none" fill="#000000" style="-webkit-tap-highlight-color: rgba(0, 0, 0, 0); text-anchor: middle; font: 24px Arial;" font-size="24px" transform="matrix(1,0,0,1,359,260.2984)">
      <tspan dy="8.49277128645437" style="-webkit-tap-highlight-color: rgba(0, 0, 0, 0);">C</tspan>
    </text>
    <text x="-121.24298159564582" y="40.00058378645437" text-anchor="middle" font="30px &quot;Arial&quot;" stroke="none" fill="#000000" style="-webkit-tap-highlight-color: rgba(0, 0, 0, 0); text-anchor: middle; font: 24px Arial;" font-size="24px" transform="matrix(1,0,0,1,330.6187,260.2984)">
      <tspan dy="8.49277128645437" style="-webkit-tap-highlight-color: rgba(0, 0, 0, 0);">H</tspan>
    </text>
    <text x="-121.24298159564582" y="40.00058378645437" text-anchor="middle" font="30px &quot;Arial&quot;" stroke="none" fill="#000000" style="-webkit-tap-highlight-color: rgba(0, 0, 0, 0); text-anchor: middle; font: 17px Arial;" font-size="17px" transform="matrix(1,0,0,1,344.8094,265.7016)">
      <tspan dy="5.492771286454371" style="-webkit-tap-highlight-color: rgba(0, 0, 0, 0);">3</tspan>
    </text>
    <text x="-86.60490031438158" y="20.000291893227185" text-anchor="middle" font="30px &quot;Arial&quot;" stroke="none" fill="#000000" style="-webkit-tap-highlight-color: rgba(0, 0, 0, 0); text-anchor: middle; font: 24px Arial;" font-size="24px" transform="matrix(1,0,0,1,359,260.2984)">
      <tspan dy="8.492479393227185" style="-webkit-tap-highlight-color: rgba(0, 0, 0, 0);">Si</tspan>
    </text>
    <text x="-86.60490031438158" y="-20.000291893227185" text-anchor="middle" font="30px &quot;Arial&quot;" stroke="none" fill="#000000" style="-webkit-tap-highlight-color: rgba(0, 0, 0, 0); text-anchor: middle; font: 24px Arial;" font-size="24px" transform="matrix(1,0,0,1,359,260.2984)">
      <tspan dy="8.507520606772815" style="-webkit-tap-highlight-color: rgba(0, 0, 0, 0);">C</tspan>
    </text>
    <text x="-86.60490031438158" y="-20.000291893227185" text-anchor="middle" font="30px &quot;Arial&quot;" stroke="none" fill="#000000" style="-webkit-tap-highlight-color: rgba(0, 0, 0, 0); text-anchor: middle; font: 24px Arial;" font-size="24px" transform="matrix(1,0,0,1,377.1281,260.2984)">
      <tspan dy="8.507520606772815" style="-webkit-tap-highlight-color: rgba(0, 0, 0, 0);">H</tspan>
    </text>
    <text x="-86.60490031438158" y="-20.000291893227185" text-anchor="middle" font="30px &quot;Arial&quot;" stroke="none" fill="#000000" style="-webkit-tap-highlight-color: rgba(0, 0, 0, 0); text-anchor: middle; font: 17px Arial;" font-size="17px" transform="matrix(1,0,0,1,391.3187,265.7016)">
      <tspan dy="5.507520606772815" style="-webkit-tap-highlight-color: rgba(0, 0, 0, 0);">3</tspan>
    </text>
    <text x="-51.96197047750686" y="40.00058378645437" text-anchor="middle" font="30px &quot;Arial&quot;" stroke="none" fill="#000000" style="-webkit-tap-highlight-color: rgba(0, 0, 0, 0); text-anchor: middle; font: 24px Arial;" font-size="24px" transform="matrix(1,0,0,1,359,260.2984)">
      <tspan dy="8.49277128645437" style="-webkit-tap-highlight-color: rgba(0, 0, 0, 0);">O</tspan>
    </text>
    <text x="86.60490031438158" y="40.00058378645437" text-anchor="middle" font="30px &quot;Arial&quot;" stroke="none" fill="#000000" style="-webkit-tap-highlight-color: rgba(0, 0, 0, 0); text-anchor: middle; font: 24px Arial;" font-size="24px" transform="matrix(1,0,0,1,359,260.2984)">
      <tspan dy="8.49277128645437" style="-webkit-tap-highlight-color: rgba(0, 0, 0, 0);">O</tspan>
    </text>
    <text x="121.24298159564582" y="20.000291893227185" text-anchor="middle" font="30px &quot;Arial&quot;" stroke="none" fill="#000000" style="-webkit-tap-highlight-color: rgba(0, 0, 0, 0); text-anchor: middle; font: 24px Arial;" font-size="24px" transform="matrix(1,0,0,1,359,260.2984)">
      <tspan dy="8.492479393227185" style="-webkit-tap-highlight-color: rgba(0, 0, 0, 0);">C</tspan>
    </text>
    <text x="121.24298159564582" y="20.000291893227185" text-anchor="middle" font="30px &quot;Arial&quot;" stroke="none" fill="#000000" style="-webkit-tap-highlight-color: rgba(0, 0, 0, 0); text-anchor: middle; font: 24px Arial;" font-size="24px" transform="matrix(1,0,0,1,377.1281,260.2984)">
      <tspan dy="8.492479393227185" style="-webkit-tap-highlight-color: rgba(0, 0, 0, 0);">H</tspan>
    </text>
    <text x="121.24298159564582" y="20.000291893227185" text-anchor="middle" font="30px &quot;Arial&quot;" stroke="none" fill="#000000" style="-webkit-tap-highlight-color: rgba(0, 0, 0, 0); text-anchor: middle; font: 17px Arial;" font-size="17px" transform="matrix(1,0,0,1,391.3187,265.7016)">
      <tspan dy="5.492479393227185" style="-webkit-tap-highlight-color: rgba(0, 0, 0, 0);">3</tspan>
    </text>
    <text x="86.60490031438158" y="-40.00058378645437" text-anchor="middle" font="30px &quot;Arial&quot;" stroke="none" fill="#000000" style="-webkit-tap-highlight-color: rgba(0, 0, 0, 0); text-anchor: middle; font: 24px Arial;" font-size="24px" transform="matrix(1,0,0,1,359,260.2984)">
      <tspan dy="8.50722871354563" style="-webkit-tap-highlight-color: rgba(0, 0, 0, 0);">O</tspan>
    </text>
    <text x="121.24298159564582" y="-20.000291893227185" text-anchor="middle" font="30px &quot;Arial&quot;" stroke="none" fill="#000000" style="-webkit-tap-highlight-color: rgba(0, 0, 0, 0); text-anchor: middle; font: 24px Arial;" font-size="24px" transform="matrix(1,0,0,1,359,260.2984)">
      <tspan dy="8.507520606772815" style="-webkit-tap-highlight-color: rgba(0, 0, 0, 0);">C</tspan>
    </text>
    <text x="121.24298159564582" y="-20.000291893227185" text-anchor="middle" font="30px &quot;Arial&quot;" stroke="none" fill="#000000" style="-webkit-tap-highlight-color: rgba(0, 0, 0, 0); text-anchor: middle; font: 24px Arial;" font-size="24px" transform="matrix(1,0,0,1,377.1281,260.2984)">
      <tspan dy="8.507520606772815" style="-webkit-tap-highlight-color: rgba(0, 0, 0, 0);">H</tspan>
    </text>
    <text x="121.24298159564582" y="-20.000291893227185" text-anchor="middle" font="30px &quot;Arial&quot;" stroke="none" fill="#000000" style="-webkit-tap-highlight-color: rgba(0, 0, 0, 0); text-anchor: middle; font: 17px Arial;" font-size="17px" transform="matrix(1,0,0,1,391.3187,265.7016)">
      <tspan dy="5.507520606772815" style="-webkit-tap-highlight-color: rgba(0, 0, 0, 0);">3</tspan>
    </text>
    <text x="-51.96197047750686" y="-40.00058378645437" text-anchor="middle" font="30px &quot;Arial&quot;" stroke="none" fill="#000000" style="-webkit-tap-highlight-color: rgba(0, 0, 0, 0); text-anchor: middle; font: 24px Arial;" font-size="24px" transform="matrix(1,0,0,1,359,260.2984)">
      <tspan dy="8.50722871354563" style="-webkit-tap-highlight-color: rgba(0, 0, 0, 0);">Br</tspan>
    </text>
    <text x="-121.24298159564582" y="0" text-anchor="middle" font="30px &quot;Arial&quot;" stroke="none" fill="#000000" style="-webkit-tap-highlight-color: rgba(0, 0, 0, 0); text-anchor: middle; font: 24px Arial;" font-size="24px" transform="matrix(1,0,0,1,359,260.2984)">
      <tspan dy="8.5" style="-webkit-tap-highlight-color: rgba(0, 0, 0, 0);">C</tspan>
    </text>
    <text x="-121.24298159564582" y="0" text-anchor="middle" font="30px &quot;Arial&quot;" stroke="none" fill="#000000" style="-webkit-tap-highlight-color: rgba(0, 0, 0, 0); text-anchor: middle; font: 24px Arial;" font-size="24px" transform="matrix(1,0,0,1,330.6187,260.2984)">
      <tspan dy="8.5" style="-webkit-tap-highlight-color: rgba(0, 0, 0, 0);">H</tspan>
    </text>
    <text x="-121.24298159564582" y="0" text-anchor="middle" font="30px &quot;Arial&quot;" stroke="none" fill="#000000" style="-webkit-tap-highlight-color: rgba(0, 0, 0, 0); text-anchor: middle; font: 17px Arial;" font-size="17px" transform="matrix(1,0,0,1,344.8094,265.7047)">
      <tspan dy="5.5078125" style="-webkit-tap-highlight-color: rgba(0, 0, 0, 0);">3</tspan>
    </text>
    <path fill="none" stroke="#000000" d="M-109.80691252,33.39731042L-100.05246248,27.76501669" stroke-width="1.6" stroke-linecap="round" stroke-linejoin="round" transform="matrix(1,0,0,1,359,260.2984)" style="-webkit-tap-highlight-color: rgba(0, 0, 0, 0); stroke-linecap: round; stroke-linejoin: round;"/>
    <path fill="none" stroke="#000000" d="M-86.60490031,3.284375L-86.60490031,-3.284375" stroke-width="1.6" stroke-linecap="round" stroke-linejoin="round" transform="matrix(1,0,0,1,359,260.2984)" style="-webkit-tap-highlight-color: rgba(0, 0, 0, 0); stroke-linecap: round; stroke-linejoin: round;"/>
    <path fill="none" stroke="#000000" d="M-73.16619055,27.75881923L-64.06818445,33.01134199" stroke-width="1.6" stroke-linecap="round" stroke-linejoin="round" transform="matrix(1,0,0,1,359,260.2984)" style="-webkit-tap-highlight-color: rgba(0, 0, 0, 0); stroke-linecap: round; stroke-linejoin: round;"/>
    <path fill="none" stroke="#000000" d="M-39.85369055,33.01014926L-17.31904064,20.00029189" stroke-width="1.6" stroke-linecap="round" stroke-linejoin="round" transform="matrix(1,0,0,1,359,260.2984)" style="-webkit-tap-highlight-color: rgba(0, 0, 0, 0); stroke-linecap: round; stroke-linejoin: round;"/>
    <path fill="none" stroke="#000000" d="M-17.31904064,20.00029189L17.31904064,40.00058379M-10.65237397,16.15148124L17.31927393,32.30252374" stroke-width="1.6" stroke-linecap="round" stroke-linejoin="round" transform="matrix(1,0,0,1,359,260.2984)" style="-webkit-tap-highlight-color: rgba(0, 0, 0, 0); stroke-linecap: round; stroke-linejoin: round;"/>
    <path fill="none" stroke="#000000" d="M17.31904064,40.00058379L51.96197048,20.00029189" stroke-width="1.6" stroke-linecap="round" stroke-linejoin="round" transform="matrix(1,0,0,1,359,260.2984)" style="-webkit-tap-highlight-color: rgba(0, 0, 0, 0); stroke-linecap: round; stroke-linejoin: round;"/>
    <path fill="none" stroke="#000000" d="M51.96197048,20.00029189L74.49431555,33.00881861" stroke-width="1.6" stroke-linecap="round" stroke-linejoin="round" transform="matrix(1,0,0,1,359,260.2984)" style="-webkit-tap-highlight-color: rgba(0, 0, 0, 0); stroke-linecap: round; stroke-linejoin: round;"/>
    <path fill="none" stroke="#000000" d="M98.70871248,33.01175048L109.80691252,26.60356526" stroke-width="1.6" stroke-linecap="round" stroke-linejoin="round" transform="matrix(1,0,0,1,359,260.2984)" style="-webkit-tap-highlight-color: rgba(0, 0, 0, 0); stroke-linecap: round; stroke-linejoin: round;"/>
    <path fill="none" stroke="#000000" d="M51.96197048,20.00029189L51.96197048,-20.00029189M45.29530381,16.15121187L45.29530381,-16.15121187" stroke-width="1.6" stroke-linecap="round" stroke-linejoin="round" transform="matrix(1,0,0,1,359,260.2984)" style="-webkit-tap-highlight-color: rgba(0, 0, 0, 0); stroke-linecap: round; stroke-linejoin: round;"/>
    <path fill="none" stroke="#000000" d="M51.96197048,-20.00029189L74.49431555,-33.00881861" stroke-width="1.6" stroke-linecap="round" stroke-linejoin="round" transform="matrix(1,0,0,1,359,260.2984)" style="-webkit-tap-highlight-color: rgba(0, 0, 0, 0); stroke-linecap: round; stroke-linejoin: round;"/>
    <path fill="none" stroke="#000000" d="M98.70871248,-33.01175048L109.80691252,-26.60356526" stroke-width="1.6" stroke-linecap="round" stroke-linejoin="round" transform="matrix(1,0,0,1,359,260.2984)" style="-webkit-tap-highlight-color: rgba(0, 0, 0, 0); stroke-linecap: round; stroke-linejoin: round;"/>
    <path fill="none" stroke="#000000" d="M51.96197048,-20.00029189L17.31904064,-40.00058379" stroke-width="1.6" stroke-linecap="round" stroke-linejoin="round" transform="matrix(1,0,0,1,359,260.2984)" style="-webkit-tap-highlight-color: rgba(0, 0, 0, 0); stroke-linecap: round; stroke-linejoin: round;"/>
    <path fill="none" stroke="#000000" d="M17.31904064,-40.00058379L-17.31904064,-20.00029189M17.31927393,-32.30252374L-10.65237397,-16.15148124" stroke-width="1.6" stroke-linecap="round" stroke-linejoin="round" transform="matrix(1,0,0,1,359,260.2984)" style="-webkit-tap-highlight-color: rgba(0, 0, 0, 0); stroke-linecap: round; stroke-linejoin: round;"/>
    <path fill="none" stroke="#000000" d="M-17.31904064,20.00029189L-17.31904064,-20.00029189" stroke-width="1.6" stroke-linecap="round" stroke-linejoin="round" transform="matrix(1,0,0,1,359,260.2984)" style="-webkit-tap-highlight-color: rgba(0, 0, 0, 0); stroke-linecap: round; stroke-linejoin: round;"/>
    <path fill="none" stroke="#000000" d="M-17.31904064,-20.00029189L-37.18181555,-31.46760421" stroke-width="1.6" stroke-linecap="round" stroke-linejoin="round" transform="matrix(1,0,0,1,359,260.2984)" style="-webkit-tap-highlight-color: rgba(0, 0, 0, 0); stroke-linecap: round; stroke-linejoin: round;"/>
    <path fill="none" stroke="#000000" d="M-100.05246248,12.2355671L-109.80691252,6.60327337" stroke-width="1.6" stroke-linecap="round" stroke-linejoin="round" transform="matrix(1,0,0,1,359,260.2984)" style="-webkit-tap-highlight-color: rgba(0, 0, 0, 0); stroke-linecap: round; stroke-linejoin: round;"/>
  </g>
</svg>
