<?xml version="1.0"?>
<svg xmlns="http://www.w3.org/2000/svg" height="269.8746357754379" version="1.1" width="536.3276342600001" style="overflow: hidden; position: relative;" viewBox="0 0 556 289">
  <g transform="translate(-154, -133)">
    <defs style="-webkit-tap-highlight-color: rgba(0, 0, 0, 0);"/>
    <text x="91.32566274757254" y="-8.833900909220493" text-anchor="middle" font="30px &quot;Arial&quot;" stroke="none" fill="#000000" style="-webkit-tap-highlight-color: rgba(0, 0, 0, 0); text-anchor: middle; font: 24px Arial;" font-size="24px" transform="matrix(1,0,0,1,359,270.9703)">
      <tspan dy="8.502036590779507" style="-webkit-tap-highlight-color: rgba(0, 0, 0, 0);">O</tspan>
    </text>
    <text x="91.32566274757254" y="-8.833900909220493" text-anchor="middle" font="30px &quot;Arial&quot;" stroke="none" fill="#000000" style="-webkit-tap-highlight-color: rgba(0, 0, 0, 0); text-anchor: middle; font: 24px Arial;" font-size="24px" transform="matrix(1,0,0,1,377.8078,270.9703)">
      <tspan dy="8.502036590779507" style="-webkit-tap-highlight-color: rgba(0, 0, 0, 0);">H</tspan>
    </text>
    <text x="22.041116099515015" y="71.16575057384105" text-anchor="middle" font="30px &quot;Arial&quot;" stroke="none" fill="#000000" style="-webkit-tap-highlight-color: rgba(0, 0, 0, 0); text-anchor: middle; font: 24px Arial;" font-size="24px" transform="matrix(1,0,0,1,359,270.9703)">
      <tspan dy="8.501688073841052" style="-webkit-tap-highlight-color: rgba(0, 0, 0, 0);">N</tspan>
    </text>
    <text x="-49.13917986550477" y="67.4324335046315" text-anchor="middle" font="30px &quot;Arial&quot;" stroke="none" fill="#000000" style="-webkit-tap-highlight-color: rgba(0, 0, 0, 0); text-anchor: middle; font: 24px Arial;" font-size="24px" transform="matrix(1,0,0,1,359,270.9703)">
      <tspan dy="8.502746004631504" style="-webkit-tap-highlight-color: rgba(0, 0, 0, 0);">N</tspan>
    </text>
    <text x="-57.454295156016926" y="106.55953577543796" text-anchor="middle" font="30px &quot;Arial&quot;" stroke="none" fill="#000000" style="-webkit-tap-highlight-color: rgba(0, 0, 0, 0); text-anchor: middle; font: 24px Arial;" font-size="24px" transform="matrix(1,0,0,1,359,270.9703)">
      <tspan dy="8.504848275437965" style="-webkit-tap-highlight-color: rgba(0, 0, 0, 0);">C</tspan>
    </text>
    <text x="-57.454295156016926" y="106.55953577543796" text-anchor="middle" font="30px &quot;Arial&quot;" stroke="none" fill="#000000" style="-webkit-tap-highlight-color: rgba(0, 0, 0, 0); text-anchor: middle; font: 24px Arial;" font-size="24px" transform="matrix(1,0,0,1,330.5875,270.9703)">
      <tspan dy="8.504848275437965" style="-webkit-tap-highlight-color: rgba(0, 0, 0, 0);">H</tspan>
    </text>
    <text x="-57.454295156016926" y="106.55953577543796" text-anchor="middle" font="30px &quot;Arial&quot;" stroke="none" fill="#000000" style="-webkit-tap-highlight-color: rgba(0, 0, 0, 0); text-anchor: middle; font: 17px Arial;" font-size="17px" transform="matrix(1,0,0,1,344.7937,276.3734)">
      <tspan dy="5.504848275437965" style="-webkit-tap-highlight-color: rgba(0, 0, 0, 0);">3</tspan>
    </text>
    <text x="-16.78053295653794" y="11.38419282922597" text-anchor="middle" font="30px &quot;Arial&quot;" stroke="none" fill="#000000" style="-webkit-tap-highlight-color: rgba(0, 0, 0, 0); text-anchor: middle; font: 24px Arial;" font-size="24px" transform="matrix(1,0,0,1,359,270.9703)">
      <tspan dy="8.50138032922597" style="-webkit-tap-highlight-color: rgba(0, 0, 0, 0);">N</tspan>
    </text>
    <text x="12.945398149077231" y="-15.384175403379047" text-anchor="middle" font="30px &quot;Arial&quot;" stroke="none" fill="#000000" style="-webkit-tap-highlight-color: rgba(0, 0, 0, 0); text-anchor: middle; font: 24px Arial;" font-size="24px" transform="matrix(1,0,0,1,359,270.9703)">
      <tspan dy="8.498637096620953" style="-webkit-tap-highlight-color: rgba(0, 0, 0, 0);">C</tspan>
    </text>
    <text x="12.945398149077231" y="-15.384175403379047" text-anchor="middle" font="30px &quot;Arial&quot;" stroke="none" fill="#000000" style="-webkit-tap-highlight-color: rgba(0, 0, 0, 0); text-anchor: middle; font: 24px Arial;" font-size="24px" transform="matrix(1,0,0,1,377.1281,270.9703)">
      <tspan dy="8.498637096620953" style="-webkit-tap-highlight-color: rgba(0, 0, 0, 0);">H</tspan>
    </text>
    <text x="12.945398149077231" y="-15.384175403379047" text-anchor="middle" font="30px &quot;Arial&quot;" stroke="none" fill="#000000" style="-webkit-tap-highlight-color: rgba(0, 0, 0, 0); text-anchor: middle; font: 17px Arial;" font-size="17px" transform="matrix(1,0,0,1,391.3188,276.3734)">
      <tspan dy="5.4986370966209535" style="-webkit-tap-highlight-color: rgba(0, 0, 0, 0);">3</tspan>
    </text>
    <path fill="none" stroke="#000000" d="M79.21306555,-1.8409739L56.68338942,11.16601196" stroke-width="1.6" stroke-linecap="round" stroke-linejoin="round" style="-webkit-tap-highlight-color: rgba(0, 0, 0, 0); stroke-linecap: round; stroke-linejoin: round;" transform="matrix(1,0,0,1,359,270.9703)"/>
    <path fill="none" stroke="#000000" d="M56.88628797,51.1658377L56.48049087,51.1658377M57.29208508,47.51130809L56.07469377,47.51130809M57.69788218,43.85677848L55.66889667,43.85677848M58.10367928,40.20224886L55.26309957,40.20224886M58.50947638,36.54771925L54.85730247,36.54771925M58.91527348,32.89318964L54.45150537,32.89318964M59.32107058,29.23866003L54.04570826,29.23866003M59.72686768,25.58413041L53.63991116,25.58413041M60.13266479,21.9296008L53.23411406,21.9296008M60.53846189,18.27507119L52.82831696,18.27507119M60.94425899,14.62054157L52.42251986,14.62054157M61.35005609,10.96601196L52.01672276,10.96601196" stroke-width="1.6" stroke-linecap="round" stroke-linejoin="round" style="-webkit-tap-highlight-color: rgba(0, 0, 0, 0); stroke-linecap: round; stroke-linejoin: round;" transform="matrix(1,0,0,1,359,270.9703)"/>
    <path fill="none" stroke="#000000" d="M56.68338942,51.1658377L91.32566275,71.16575057" stroke-width="1.6" stroke-linecap="round" stroke-linejoin="round" style="-webkit-tap-highlight-color: rgba(0, 0, 0, 0); stroke-linecap: round; stroke-linejoin: round;" transform="matrix(1,0,0,1,359,270.9703)"/>
    <path fill="none" stroke="#000000" d="M91.32566275,71.16575057L125.96308761,51.1658377" stroke-width="1.6" stroke-linecap="round" stroke-linejoin="round" style="-webkit-tap-highlight-color: rgba(0, 0, 0, 0); stroke-linecap: round; stroke-linejoin: round;" transform="matrix(1,0,0,1,359,270.9703)"/>
    <path fill="none" stroke="#000000" d="M132.62975427,47.31675768L132.62975427,15.01509198M125.96308761,51.1658377L125.96308761,11.16601196" stroke-width="1.6" stroke-linecap="round" stroke-linejoin="round" style="-webkit-tap-highlight-color: rgba(0, 0, 0, 0); stroke-linecap: round; stroke-linejoin: round;" transform="matrix(1,0,0,1,359,270.9703)"/>
    <path fill="none" stroke="#000000" d="M125.96308761,11.16601196L160.60536093,-8.83390091" stroke-width="1.6" stroke-linecap="round" stroke-linejoin="round" style="-webkit-tap-highlight-color: rgba(0, 0, 0, 0); stroke-linecap: round; stroke-linejoin: round;" transform="matrix(1,0,0,1,359,270.9703)"/>
    <path fill="none" stroke="#000000" d="M160.60536093,-1.13597554L188.58096759,15.01509198M160.60536093,-8.83390091L195.24763426,11.16601196" stroke-width="1.6" stroke-linecap="round" stroke-linejoin="round" style="-webkit-tap-highlight-color: rgba(0, 0, 0, 0); stroke-linecap: round; stroke-linejoin: round;" transform="matrix(1,0,0,1,359,270.9703)"/>
    <path fill="none" stroke="#000000" d="M195.24763426,11.16601196L195.24763426,51.1658377" stroke-width="1.6" stroke-linecap="round" stroke-linejoin="round" style="-webkit-tap-highlight-color: rgba(0, 0, 0, 0); stroke-linecap: round; stroke-linejoin: round;" transform="matrix(1,0,0,1,359,270.9703)"/>
    <path fill="none" stroke="#000000" d="M188.58096759,47.31675768L160.60536093,63.46782521M195.24763426,51.1658377L160.60536093,71.16575057" stroke-width="1.6" stroke-linecap="round" stroke-linejoin="round" style="-webkit-tap-highlight-color: rgba(0, 0, 0, 0); stroke-linecap: round; stroke-linejoin: round;" transform="matrix(1,0,0,1,359,270.9703)"/>
    <path fill="none" stroke="#000000" d="M125.96308761,51.1658377L160.60536093,71.16575057" stroke-width="1.6" stroke-linecap="round" stroke-linejoin="round" style="-webkit-tap-highlight-color: rgba(0, 0, 0, 0); stroke-linecap: round; stroke-linejoin: round;" transform="matrix(1,0,0,1,359,270.9703)"/>
    <path fill="none" stroke="#000000" d="M56.68338942,51.1658377L33.47443445,64.56498945" stroke-width="1.6" stroke-linecap="round" stroke-linejoin="round" style="-webkit-tap-highlight-color: rgba(0, 0, 0, 0); stroke-linecap: round; stroke-linejoin: round;" transform="matrix(1,0,0,1,359,270.9703)"/>
    <path fill="none" stroke="#000000" d="M13.93736916,58.78839064L-6.32148163,47.09077592M10.60378752,64.56174996L-12.59630876,51.1658377" stroke-width="1.6" stroke-linecap="round" stroke-linejoin="round" style="-webkit-tap-highlight-color: rgba(0, 0, 0, 0); stroke-linecap: round; stroke-linejoin: round;" transform="matrix(1,0,0,1,359,270.9703)"/>
    <path fill="none" stroke="#000000" d="M-12.59630876,51.1658377L-37.5453053,62.27156722" stroke-width="1.6" stroke-linecap="round" stroke-linejoin="round" style="-webkit-tap-highlight-color: rgba(0, 0, 0, 0); stroke-linecap: round; stroke-linejoin: round;" transform="matrix(1,0,0,1,359,270.9703)"/>
    <path fill="none" stroke="#000000" d="M-52.67441009,84.06759846L-53.92077158,89.93240154" stroke-width="1.6" stroke-linecap="round" stroke-linejoin="round" style="-webkit-tap-highlight-color: rgba(0, 0, 0, 0); stroke-linecap: round; stroke-linejoin: round;" transform="matrix(1,0,0,1,359,270.9703)"/>
    <path fill="none" stroke="#000000" d="M-59.95363714,55.4209412L-75.90269963,37.7065024" stroke-width="1.6" stroke-linecap="round" stroke-linejoin="round" style="-webkit-tap-highlight-color: rgba(0, 0, 0, 0); stroke-linecap: round; stroke-linejoin: round;" transform="matrix(1,0,0,1,359,270.9703)"/>
    <path fill="none" stroke="#000000" d="M-75.92392338,37.50471693L-75.88147589,37.90828787M-79.60096612,37.48343189L-79.47362363,38.69414468M-83.27800887,37.46214684L-83.06577138,39.4800015M-86.95505161,37.44086179L-86.65791913,40.26585832M-90.63209435,37.41957675L-90.25006688,41.05171514M-94.30913709,37.3982917L-93.84221462,41.83757196M-97.98617983,37.37700666L-97.43436237,42.62342878M-101.66322258,37.35572161L-101.02651012,43.4092856M-105.34026532,37.33443656L-104.61865786,44.19514241M-109.01730806,37.31315152L-108.21080561,44.98099923M-112.6943508,37.29186647L-111.80295336,45.76685605M-116.37139354,37.27058142L-115.39510111,46.55271287" stroke-width="1.6" stroke-linecap="round" stroke-linejoin="round" style="-webkit-tap-highlight-color: rgba(0, 0, 0, 0); stroke-linecap: round; stroke-linejoin: round;" transform="matrix(1,0,0,1,359,270.9703)"/>
    <path fill="none" stroke="#000000" d="M-123.34027749,42.6948185L-136.48032648,72.20119788M-115.68434451,41.89072659L-131.95578877,78.42874924" stroke-width="1.6" stroke-linecap="round" stroke-linejoin="round" style="-webkit-tap-highlight-color: rgba(0, 0, 0, 0); stroke-linecap: round; stroke-linejoin: round;" transform="matrix(1,0,0,1,359,270.9703)"/>
    <path fill="none" stroke="#000000" d="M-131.95578877,78.42874924L-171.73743365,82.61297343" stroke-width="1.6" stroke-linecap="round" stroke-linejoin="round" style="-webkit-tap-highlight-color: rgba(0, 0, 0, 0); stroke-linecap: round; stroke-linejoin: round;" transform="matrix(1,0,0,1,359,270.9703)"/>
    <path fill="none" stroke="#000000" d="M-168.60627767,75.58019799L-187.59183008,49.44520885M-171.73743365,82.61297343L-195.24763426,50.24947806" stroke-width="1.6" stroke-linecap="round" stroke-linejoin="round" style="-webkit-tap-highlight-color: rgba(0, 0, 0, 0); stroke-linecap: round; stroke-linejoin: round;" transform="matrix(1,0,0,1,359,270.9703)"/>
    <path fill="none" stroke="#000000" d="M-195.24763426,50.24947806L-178.97618999,13.70660695" stroke-width="1.6" stroke-linecap="round" stroke-linejoin="round" style="-webkit-tap-highlight-color: rgba(0, 0, 0, 0); stroke-linecap: round; stroke-linejoin: round;" transform="matrix(1,0,0,1,359,270.9703)"/>
    <path fill="none" stroke="#000000" d="M-174.45165228,19.9346248L-142.32601599,16.55957319M-178.97618999,13.70660695L-139.19454512,9.52723122" stroke-width="1.6" stroke-linecap="round" stroke-linejoin="round" style="-webkit-tap-highlight-color: rgba(0, 0, 0, 0); stroke-linecap: round; stroke-linejoin: round;" transform="matrix(1,0,0,1,359,270.9703)"/>
    <path fill="none" stroke="#000000" d="M-115.68434451,41.89072659L-139.19454512,9.52723122" stroke-width="1.6" stroke-linecap="round" stroke-linejoin="round" style="-webkit-tap-highlight-color: rgba(0, 0, 0, 0); stroke-linecap: round; stroke-linejoin: round;" transform="matrix(1,0,0,1,359,270.9703)"/>
    <path fill="none" stroke="#000000" d="M-75.90269963,37.7065024L-55.90278676,3.06422907" stroke-width="1.6" stroke-linecap="round" stroke-linejoin="round" style="-webkit-tap-highlight-color: rgba(0, 0, 0, 0); stroke-linecap: round; stroke-linejoin: round;" transform="matrix(1,0,0,1,359,270.9703)"/>
    <path fill="#000000" stroke="#000000" d="M-55.90278676,3.06422907L-67.91117795,-35.3722551L-76.43728411,-31.57533203Z" stroke-width="1.6" stroke-linecap="round" stroke-linejoin="round" style="-webkit-tap-highlight-color: rgba(0, 0, 0, 0); stroke-linecap: round; stroke-linejoin: round;" transform="matrix(1,0,0,1,359,270.9703)"/>
    <path fill="none" stroke="#000000" d="M-75.30538701,-40.50656901L-107.43084875,-43.88551764M-72.17423103,-33.47379357L-111.9558759,-37.65801776" stroke-width="1.6" stroke-linecap="round" stroke-linejoin="round" style="-webkit-tap-highlight-color: rgba(0, 0, 0, 0); stroke-linecap: round; stroke-linejoin: round;" transform="matrix(1,0,0,1,359,270.9703)"/>
    <path fill="none" stroke="#000000" d="M-111.9558759,-37.65801776L-128.2224717,-74.1960404" stroke-width="1.6" stroke-linecap="round" stroke-linejoin="round" style="-webkit-tap-highlight-color: rgba(0, 0, 0, 0); stroke-linecap: round; stroke-linejoin: round;" transform="matrix(1,0,0,1,359,270.9703)"/>
    <path fill="none" stroke="#000000" d="M-120.56682799,-73.3915503L-101.58111512,-99.52676033M-128.2224717,-74.1960404L-104.7122711,-106.55953578" stroke-width="1.6" stroke-linecap="round" stroke-linejoin="round" style="-webkit-tap-highlight-color: rgba(0, 0, 0, 0); stroke-linecap: round; stroke-linejoin: round;" transform="matrix(1,0,0,1,359,270.9703)"/>
    <path fill="none" stroke="#000000" d="M-104.7122711,-106.55953578L-64.93062622,-102.37531158" stroke-width="1.6" stroke-linecap="round" stroke-linejoin="round" style="-webkit-tap-highlight-color: rgba(0, 0, 0, 0); stroke-linecap: round; stroke-linejoin: round;" transform="matrix(1,0,0,1,359,270.9703)"/>
    <path fill="none" stroke="#000000" d="M-69.45565338,-96.1478117L-56.31967413,-66.64177904M-64.93062622,-102.37531158L-48.66403042,-65.83728894" stroke-width="1.6" stroke-linecap="round" stroke-linejoin="round" style="-webkit-tap-highlight-color: rgba(0, 0, 0, 0); stroke-linecap: round; stroke-linejoin: round;" transform="matrix(1,0,0,1,359,270.9703)"/>
    <path fill="none" stroke="#000000" d="M-72.17423103,-33.47379357L-48.66403042,-65.83728894" stroke-width="1.6" stroke-linecap="round" stroke-linejoin="round" style="-webkit-tap-highlight-color: rgba(0, 0, 0, 0); stroke-linecap: round; stroke-linejoin: round;" transform="matrix(1,0,0,1,359,270.9703)"/>
    <path fill="none" stroke="#000000" d="M-55.90278676,3.06422907L-28.5831278,8.87418505" stroke-width="1.6" stroke-linecap="round" stroke-linejoin="round" style="-webkit-tap-highlight-color: rgba(0, 0, 0, 0); stroke-linecap: round; stroke-linejoin: round;" transform="matrix(1,0,0,1,359,270.9703)"/>
    <path fill="none" stroke="#000000" d="M-12.59630876,51.1658377L-15.02520071,28.07307007" stroke-width="1.6" stroke-linecap="round" stroke-linejoin="round" style="-webkit-tap-highlight-color: rgba(0, 0, 0, 0); stroke-linecap: round; stroke-linejoin: round;" transform="matrix(1,0,0,1,359,270.9703)"/>
    <path fill="none" stroke="#000000" d="M-5.73143168,1.43441495L1.90330668,-5.4407099" stroke-width="1.6" stroke-linecap="round" stroke-linejoin="round" style="-webkit-tap-highlight-color: rgba(0, 0, 0, 0); stroke-linecap: round; stroke-linejoin: round;" transform="matrix(1,0,0,1,359,270.9703)"/>
    <text x="161.08" y="-127.912" text-anchor="middle" font="30px &quot;Arial&quot;" stroke="none" fill="#000000" style="-webkit-tap-highlight-color: rgba(0, 0, 0, 0); text-anchor: middle; font: 24px Arial;" font-size="24px" transform="matrix(1,0,0,1,359,270.9703)">
      <tspan dy="8.502062499999994" style="-webkit-tap-highlight-color: rgba(0, 0, 0, 0);">Chiral</tspan>
    </text>
  </g>
</svg>
