
<svg version="1.1" id="topsvg" xmlns="http://www.w3.org/2000/svg" x="0" y="0" width="200px" height="200px" viewBox="0 0 100 100" xmlns:xlink="http://www.w3.org/1999/xlink">
<title> - Open Babel Depiction</title>
<rect x="0" y="0" width="100" height="100" fill="white"></rect>
<g transform="translate(0,0)">
<svg width="100" height="100" x="0" y="0" viewBox="0 0 391.507 259.915" font-family="sans-serif" stroke="rgb(0,0,0)" stroke-width="2" stroke-linecap="round">
<line x1="282.4" y1="99.9" x2="316.9" y2="79.9" opacity="1.0" stroke="rgb(0,0,0)" stroke-width="2.0"></line>
<line x1="313.9" y1="79.9" x2="313.9" y2="53.0" opacity="1.0" stroke="rgb(0,0,0)" stroke-width="2.0"></line>
<line x1="319.9" y1="79.9" x2="319.9" y2="53.0" opacity="1.0" stroke="rgb(0,0,0)" stroke-width="2.0"></line>
<line x1="316.9" y1="79.9" x2="340.2" y2="93.4" opacity="1.0" stroke="rgb(0,0,0)" stroke-width="2.0"></line>
<line x1="213.0" y1="139.9" x2="189.7" y2="153.4" opacity="1.0" stroke="rgb(0,0,0)" stroke-width="2.0"></line>
<line x1="167.2" y1="153.3" x2="143.9" y2="139.9" opacity="1.0" stroke="rgb(0,0,0)" stroke-width="2.0"></line>
<line x1="143.9" y1="139.9" x2="109.4" y2="159.8" opacity="1.0" stroke="rgb(0,0,0)" stroke-width="2.0"></line>
<line x1="213.0" y1="139.9" x2="247.7" y2="159.9" opacity="1.0" stroke="rgb(0,0,0)" stroke-width="2.0"></line>
<line x1="247.7" y1="159.9" x2="282.4" y2="139.9" opacity="1.0" stroke="rgb(0,0,0)" stroke-width="2.0"></line>
<line x1="249.3" y1="150.7" x2="273.6" y2="136.7" opacity="1.0" stroke="rgb(0,0,0)" stroke-width="2.0"></line>
<line x1="282.4" y1="139.9" x2="282.4" y2="99.9" opacity="1.0" stroke="rgb(0,0,0)" stroke-width="2.0"></line>
<line x1="282.4" y1="99.9" x2="247.7" y2="79.9" opacity="1.0" stroke="rgb(0,0,0)" stroke-width="2.0"></line>
<line x1="273.6" y1="103.1" x2="249.3" y2="89.1" opacity="1.0" stroke="rgb(0,0,0)" stroke-width="2.0"></line>
<line x1="247.7" y1="79.9" x2="213.0" y2="99.9" opacity="1.0" stroke="rgb(0,0,0)" stroke-width="2.0"></line>
<line x1="213.0" y1="99.9" x2="213.0" y2="139.9" opacity="1.0" stroke="rgb(0,0,0)" stroke-width="2.0"></line>
<line x1="220.2" y1="105.9" x2="220.2" y2="133.9" opacity="1.0" stroke="rgb(0,0,0)" stroke-width="2.0"></line>
<line x1="74.7" y1="139.8" x2="40.0" y2="159.8" opacity="1.0" stroke="rgb(0,0,0)" stroke-width="2.0"></line>
<line x1="73.1" y1="149.0" x2="48.8" y2="163.1" opacity="1.0" stroke="rgb(0,0,0)" stroke-width="2.0"></line>
<line x1="40.0" y1="159.8" x2="40.0" y2="199.9" opacity="1.0" stroke="rgb(0,0,0)" stroke-width="2.0"></line>
<line x1="40.0" y1="199.9" x2="74.7" y2="219.9" opacity="1.0" stroke="rgb(0,0,0)" stroke-width="2.0"></line>
<line x1="48.8" y1="196.6" x2="73.1" y2="210.7" opacity="1.0" stroke="rgb(0,0,0)" stroke-width="2.0"></line>
<line x1="74.7" y1="219.9" x2="109.4" y2="199.9" opacity="1.0" stroke="rgb(0,0,0)" stroke-width="2.0"></line>
<line x1="109.4" y1="199.9" x2="109.4" y2="159.8" opacity="1.0" stroke="rgb(0,0,0)" stroke-width="2.0"></line>
<line x1="102.2" y1="193.9" x2="102.2" y2="165.8" opacity="1.0" stroke="rgb(0,0,0)" stroke-width="2.0"></line>
<line x1="109.4" y1="159.8" x2="74.7" y2="139.8" opacity="1.0" stroke="rgb(0,0,0)" stroke-width="2.0"></line>
<text x="345.507134" y="107.867834" fill="rgb(0,0,0)" stroke="rgb(0,0,0)" stroke-width="1" font-size="16">H</text>
<text x="172.459615" y="167.851667" fill="rgb(0,0,0)" stroke="rgb(0,0,0)" stroke-width="1" font-size="16">N</text>
<text x="172.459615" y="183.851667" fill="rgb(0,0,0)" stroke="rgb(0,0,0)" stroke-width="1" font-size="16">H</text>
<text x="310.943230" y="48.000000" fill="rgb(0,0,0)" stroke="rgb(0,0,0)" stroke-width="1" font-size="16">O</text>
</svg>
</g>
</svg>
