<?xml version="1.0"?>
<svg xmlns="http://www.w3.org/2000/svg" height="137.6423832538341" version="1.1" width="354.13806891999997" style="overflow: hidden; position: relative;" viewBox="0 0 374 157">
  <g transform="translate(-240, -197)">
    <defs style="-webkit-tap-highlight-color: rgba(0, 0, 0, 0);"/>
    <text x="95.41806892028761" y="34.6423832538341" text-anchor="middle" font="30px &quot;Arial&quot;" stroke="none" fill="#000000" style="-webkit-tap-highlight-color: rgba(0, 0, 0, 0); text-anchor: middle; font: 24px Arial;" font-size="24px" transform="matrix(1,0,0,1,345.2583,280.1797)">
      <tspan dy="8.493945753834097" style="-webkit-tap-highlight-color: rgba(0, 0, 0, 0);">O</tspan>
    </text>
    <text x="11.907864698588739" y="-32.358749592174775" text-anchor="middle" font="30px &quot;Arial&quot;" stroke="none" fill="#000000" style="-webkit-tap-highlight-color: rgba(0, 0, 0, 0); text-anchor: middle; font: 24px Arial;" font-size="24px" transform="matrix(1,0,0,1,345.2583,280.1797)">
      <tspan dy="8.492812907825225" style="-webkit-tap-highlight-color: rgba(0, 0, 0, 0);">N</tspan>
    </text>
    <text x="11.907864698588739" y="-32.358749592174775" text-anchor="middle" font="30px &quot;Arial&quot;" stroke="none" fill="#000000" style="-webkit-tap-highlight-color: rgba(0, 0, 0, 0); text-anchor: middle; font: 24px Arial;" font-size="24px" transform="matrix(1,0,0,1,363.402,280.1797)">
      <tspan dy="8.492812907825225" style="-webkit-tap-highlight-color: rgba(0, 0, 0, 0);">H</tspan>
    </text>
    <text x="95.41806892028761" y="-34.6423832538341" text-anchor="middle" font="30px &quot;Arial&quot;" stroke="none" fill="#000000" style="-webkit-tap-highlight-color: rgba(0, 0, 0, 0); text-anchor: middle; font: 24px Arial;" font-size="24px" transform="matrix(1,0,0,1,345.2583,280.1797)">
      <tspan dy="8.506054246165903" style="-webkit-tap-highlight-color: rgba(0, 0, 0, 0);">O</tspan>
    </text>
    <text x="95.41806892028761" y="-34.6423832538341" text-anchor="middle" font="30px &quot;Arial&quot;" stroke="none" fill="#000000" style="-webkit-tap-highlight-color: rgba(0, 0, 0, 0); text-anchor: middle; font: 24px Arial;" font-size="24px" transform="matrix(1,0,0,1,364.0661,280.1797)">
      <tspan dy="8.506054246165903" style="-webkit-tap-highlight-color: rgba(0, 0, 0, 0);">H</tspan>
    </text>
    <path fill="none" stroke="#000000" d="M88.90095073,16.68707469L78.30487326,-1.66661586M83.12738937,20.02030641L72.5313119,1.66661586" stroke-width="1.6" stroke-linecap="round" stroke-linejoin="round" style="-webkit-tap-highlight-color: rgba(0, 0, 0, 0); stroke-linecap: round; stroke-linejoin: round;" transform="matrix(1,0,0,1,345.2583,280.1797)"/>
    <path fill="#000000" stroke="#000000" d="M35.41813991,0L75.41809258,4.66666667L75.41809258,-4.66666667Z" stroke-width="1.6" stroke-linecap="round" stroke-linejoin="round" style="-webkit-tap-highlight-color: rgba(0, 0, 0, 0); stroke-linecap: round; stroke-linejoin: round;" transform="matrix(1,0,0,1,345.2583,280.1797)"/>
    <path fill="none" stroke="#000000" d="M35.41813991,0L23.59677284,-16.27053079" stroke-width="1.6" stroke-linecap="round" stroke-linejoin="round" style="-webkit-tap-highlight-color: rgba(0, 0, 0, 0); stroke-linecap: round; stroke-linejoin: round;" transform="matrix(1,0,0,1,345.2583,280.1797)"/>
    <path fill="none" stroke="#000000" d="M0.19092065,-28.55264658L-26.13815089,-19.99997634" stroke-width="1.6" stroke-linecap="round" stroke-linejoin="round" style="-webkit-tap-highlight-color: rgba(0, 0, 0, 0); stroke-linecap: round; stroke-linejoin: round;" transform="matrix(1,0,0,1,345.2583,280.1797)"/>
    <path fill="none" stroke="#000000" d="M-32.80481756,-16.15116569L-32.80481756,16.15116569M-26.13815089,-19.99997634L-26.13815089,19.99997634" stroke-width="1.6" stroke-linecap="round" stroke-linejoin="round" style="-webkit-tap-highlight-color: rgba(0, 0, 0, 0); stroke-linecap: round; stroke-linejoin: round;" transform="matrix(1,0,0,1,345.2583,280.1797)"/>
    <path fill="none" stroke="#000000" d="M-26.13815089,19.99997634L-60.77568567,39.99995267" stroke-width="1.6" stroke-linecap="round" stroke-linejoin="round" style="-webkit-tap-highlight-color: rgba(0, 0, 0, 0); stroke-linecap: round; stroke-linejoin: round;" transform="matrix(1,0,0,1,345.2583,280.1797)"/>
    <path fill="none" stroke="#000000" d="M-60.77591895,32.30189262L-88.75140225,16.15089632M-60.77568567,39.99995267L-95.41806892,19.99997634" stroke-width="1.6" stroke-linecap="round" stroke-linejoin="round" style="-webkit-tap-highlight-color: rgba(0, 0, 0, 0); stroke-linecap: round; stroke-linejoin: round;" transform="matrix(1,0,0,1,345.2583,280.1797)"/>
    <path fill="none" stroke="#000000" d="M-95.41806892,19.99997634L-95.41806892,-19.99997634" stroke-width="1.6" stroke-linecap="round" stroke-linejoin="round" style="-webkit-tap-highlight-color: rgba(0, 0, 0, 0); stroke-linecap: round; stroke-linejoin: round;" transform="matrix(1,0,0,1,345.2583,280.1797)"/>
    <path fill="none" stroke="#000000" d="M-88.75140225,-16.15089632L-60.77591895,-32.30189262M-95.41806892,-19.99997634L-60.77568567,-39.99995267" stroke-width="1.6" stroke-linecap="round" stroke-linejoin="round" style="-webkit-tap-highlight-color: rgba(0, 0, 0, 0); stroke-linecap: round; stroke-linejoin: round;" transform="matrix(1,0,0,1,345.2583,280.1797)"/>
    <path fill="none" stroke="#000000" d="M-26.13815089,-19.99997634L-60.77568567,-39.99995267" stroke-width="1.6" stroke-linecap="round" stroke-linejoin="round" style="-webkit-tap-highlight-color: rgba(0, 0, 0, 0); stroke-linecap: round; stroke-linejoin: round;" transform="matrix(1,0,0,1,345.2583,280.1797)"/>
    <path fill="none" stroke="#000000" d="M-26.13815089,19.99997634L11.9078647,32.35874959" stroke-width="1.6" stroke-linecap="round" stroke-linejoin="round" style="-webkit-tap-highlight-color: rgba(0, 0, 0, 0); stroke-linecap: round; stroke-linejoin: round;" transform="matrix(1,0,0,1,345.2583,280.1797)"/>
    <path fill="none" stroke="#000000" d="M35.41813991,0L11.9078647,32.35874959" stroke-width="1.6" stroke-linecap="round" stroke-linejoin="round" style="-webkit-tap-highlight-color: rgba(0, 0, 0, 0); stroke-linecap: round; stroke-linejoin: round;" transform="matrix(1,0,0,1,345.2583,280.1797)"/>
    <path fill="none" stroke="#000000" d="M75.41809258,0L86.01417005,-18.35369055" stroke-width="1.6" stroke-linecap="round" stroke-linejoin="round" style="-webkit-tap-highlight-color: rgba(0, 0, 0, 0); stroke-linecap: round; stroke-linejoin: round;" transform="matrix(1,0,0,1,345.2583,280.1797)"/>
    <text x="78.72" y="-73" text-anchor="middle" font="30px &quot;Arial&quot;" stroke="none" fill="#000000" style="-webkit-tap-highlight-color: rgba(0, 0, 0, 0); text-anchor: middle; font: 24px Arial;" font-size="24px" transform="matrix(1,0,0,1,345.2583,280.1797)">
      <tspan dy="8.5078125" style="-webkit-tap-highlight-color: rgba(0, 0, 0, 0);">Chiral</tspan>
    </text>
  </g>
</svg>
