<?xml version="1.0"?>
<svg xmlns="http://www.w3.org/2000/svg" height="225.8570081232079" version="1.1" width="349.93215417999994" style="overflow: hidden; position: relative;" viewBox="0 0 369 245">
  <g transform="translate(-248, -150)">
    <defs style="-webkit-tap-highlight-color: rgba(0, 0, 0, 0);"/>
    <text x="92.02815417868088" y="75.09300812320787" text-anchor="middle" font="30px &quot;Arial&quot;" stroke="none" fill="#000000" style="-webkit-tap-highlight-color: rgba(0, 0, 0, 0); text-anchor: middle; font: 24px Arial;" font-size="24px" transform="matrix(1,0,0,1,350.3969,280.4373)">
      <tspan dy="8.507070623207866" style="-webkit-tap-highlight-color: rgba(0, 0, 0, 0);">O</tspan>
    </text>
    <text x="26.343035507606587" y="52.47816185605" text-anchor="middle" font="30px &quot;Arial&quot;" stroke="none" fill="#000000" style="-webkit-tap-highlight-color: rgba(0, 0, 0, 0); text-anchor: middle; font: 24px Arial;" font-size="24px" transform="matrix(1,0,0,1,350.3969,280.4373)">
      <tspan dy="8.50159935605" style="-webkit-tap-highlight-color: rgba(0, 0, 0, 0);">O</tspan>
    </text>
    <text x="59.33443890027191" y="-95.40667801508243" text-anchor="middle" font="30px &quot;Arial&quot;" stroke="none" fill="#000000" style="-webkit-tap-highlight-color: rgba(0, 0, 0, 0); text-anchor: middle; font: 24px Arial;" font-size="24px" transform="matrix(1,0,0,1,350.3969,280.4373)">
      <tspan dy="8.507384484917566" style="-webkit-tap-highlight-color: rgba(0, 0, 0, 0);">C</tspan>
    </text>
    <text x="59.33443890027191" y="-95.40667801508243" text-anchor="middle" font="30px &quot;Arial&quot;" stroke="none" fill="#000000" style="-webkit-tap-highlight-color: rgba(0, 0, 0, 0); text-anchor: middle; font: 24px Arial;" font-size="24px" transform="matrix(1,0,0,1,368.525,280.4373)">
      <tspan dy="8.507384484917566" style="-webkit-tap-highlight-color: rgba(0, 0, 0, 0);">H</tspan>
    </text>
    <text x="59.33443890027191" y="-95.40667801508243" text-anchor="middle" font="30px &quot;Arial&quot;" stroke="none" fill="#000000" style="-webkit-tap-highlight-color: rgba(0, 0, 0, 0); text-anchor: middle; font: 17px Arial;" font-size="17px" transform="matrix(1,0,0,1,382.7156,285.8404)">
      <tspan dy="5.507384484917566" style="-webkit-tap-highlight-color: rgba(0, 0, 0, 0);">3</tspan>
    </text>
    <text x="-7.527256603339424" y="-86.00823897927447" text-anchor="middle" font="30px &quot;Arial&quot;" stroke="none" fill="#000000" style="-webkit-tap-highlight-color: rgba(0, 0, 0, 0); text-anchor: middle; font: 24px Arial;" font-size="24px" transform="matrix(1,0,0,1,350.3969,280.4373)">
      <tspan dy="8.499573520725534" style="-webkit-tap-highlight-color: rgba(0, 0, 0, 0);">C</tspan>
    </text>
    <text x="-7.527256603339424" y="-86.00823897927447" text-anchor="middle" font="30px &quot;Arial&quot;" stroke="none" fill="#000000" style="-webkit-tap-highlight-color: rgba(0, 0, 0, 0); text-anchor: middle; font: 24px Arial;" font-size="24px" transform="matrix(1,0,0,1,321.9844,280.4373)">
      <tspan dy="8.499573520725534" style="-webkit-tap-highlight-color: rgba(0, 0, 0, 0);">H</tspan>
    </text>
    <text x="-7.527256603339424" y="-86.00823897927447" text-anchor="middle" font="30px &quot;Arial&quot;" stroke="none" fill="#000000" style="-webkit-tap-highlight-color: rgba(0, 0, 0, 0); text-anchor: middle; font: 17px Arial;" font-size="17px" transform="matrix(1,0,0,1,336.1906,285.8404)">
      <tspan dy="5.499573520725534" style="-webkit-tap-highlight-color: rgba(0, 0, 0, 0);">3</tspan>
    </text>
    <text x="71.71448428680631" y="8.661306562411276" text-anchor="middle" font="30px &quot;Arial&quot;" stroke="none" fill="#000000" style="-webkit-tap-highlight-color: rgba(0, 0, 0, 0); text-anchor: middle; font: 24px Arial;" font-size="24px" transform="matrix(1,0,0,1,350.3969,280.4373)">
      <tspan dy="8.497244062411276" style="-webkit-tap-highlight-color: rgba(0, 0, 0, 0);">N</tspan>
    </text>
    <text x="71.71448428680631" y="8.661306562411276" text-anchor="middle" font="30px &quot;Arial&quot;" stroke="none" fill="#000000" style="-webkit-tap-highlight-color: rgba(0, 0, 0, 0); text-anchor: middle; font: 24px Arial;" font-size="24px" transform="matrix(1,0,0,1,368.525,280.4373)">
      <tspan dy="8.497244062411276" style="-webkit-tap-highlight-color: rgba(0, 0, 0, 0);">H</tspan>
    </text>
    <path fill="none" stroke="#000000" d="M82.86214984,60.80407052L67.34566382,44.73796895M78.0667946,65.43537839L62.55030858,49.36927682" stroke-width="1.6" stroke-linecap="round" stroke-linejoin="round" style="-webkit-tap-highlight-color: rgba(0, 0, 0, 0); stroke-linecap: round; stroke-linejoin: round;" transform="matrix(1,0,0,1,350.3969,280.4373)"/>
    <path fill="none" stroke="#000000" d="M64.9479862,47.05362289L38.84074451,50.72205783" stroke-width="1.6" stroke-linecap="round" stroke-linejoin="round" style="-webkit-tap-highlight-color: rgba(0, 0, 0, 0); stroke-linecap: round; stroke-linejoin: round;" transform="matrix(1,0,0,1,350.3969,280.4373)"/>
    <path fill="none" stroke="#000000" d="M18.35027912,36.09267979L9.25195758,17.44074333" stroke-width="1.6" stroke-linecap="round" stroke-linejoin="round" style="-webkit-tap-highlight-color: rgba(0, 0, 0, 0); stroke-linecap: round; stroke-linejoin: round;" transform="matrix(1,0,0,1,350.3969,280.4373)"/>
    <path fill="none" stroke="#000000" d="M9.25195758,17.44074333L-15.8058213,-12.42257226" stroke-width="1.6" stroke-linecap="round" stroke-linejoin="round" style="-webkit-tap-highlight-color: rgba(0, 0, 0, 0); stroke-linecap: round; stroke-linejoin: round;" transform="matrix(1,0,0,1,350.3969,280.4373)"/>
    <path fill="none" stroke="#000000" d="M-20.75384629,-18.31937028L-51.56067277,-12.88532519M-15.8058213,-12.42257226L-54.19341242,-5.65134896" stroke-width="1.6" stroke-linecap="round" stroke-linejoin="round" style="-webkit-tap-highlight-color: rgba(0, 0, 0, 0); stroke-linecap: round; stroke-linejoin: round;" transform="matrix(1,0,0,1,350.3969,280.4373)"/>
    <path fill="none" stroke="#000000" d="M-54.19341242,-5.65134896L-79.25119131,-35.51466455" stroke-width="1.6" stroke-linecap="round" stroke-linejoin="round" style="-webkit-tap-highlight-color: rgba(0, 0, 0, 0); stroke-linecap: round; stroke-linejoin: round;" transform="matrix(1,0,0,1,350.3969,280.4373)"/>
    <path fill="none" stroke="#000000" d="M-71.67043339,-36.85170028L-60.97288754,-66.25193884M-79.25119131,-35.51466455L-65.92137908,-72.14920344" stroke-width="1.6" stroke-linecap="round" stroke-linejoin="round" style="-webkit-tap-highlight-color: rgba(0, 0, 0, 0); stroke-linecap: round; stroke-linejoin: round;" transform="matrix(1,0,0,1,350.3969,280.4373)"/>
    <path fill="none" stroke="#000000" d="M-65.92137908,-72.14920344L-27.52906276,-78.91570153" stroke-width="1.6" stroke-linecap="round" stroke-linejoin="round" style="-webkit-tap-highlight-color: rgba(0, 0, 0, 0); stroke-linecap: round; stroke-linejoin: round;" transform="matrix(1,0,0,1,350.3969,280.4373)"/>
    <path fill="none" stroke="#000000" d="M-30.16220356,-71.68220339L-10.05248561,-47.71587915M-27.52906276,-78.91570153L-2.47128387,-49.05238594" stroke-width="1.6" stroke-linecap="round" stroke-linejoin="round" style="-webkit-tap-highlight-color: rgba(0, 0, 0, 0); stroke-linecap: round; stroke-linejoin: round;" transform="matrix(1,0,0,1,350.3969,280.4373)"/>
    <path fill="none" stroke="#000000" d="M-15.8058213,-12.42257226L-2.47128387,-49.05238594" stroke-width="1.6" stroke-linecap="round" stroke-linejoin="round" style="-webkit-tap-highlight-color: rgba(0, 0, 0, 0); stroke-linecap: round; stroke-linejoin: round;" transform="matrix(1,0,0,1,350.3969,280.4373)"/>
    <path fill="none" stroke="#000000" d="M9.25195758,17.44074333L-24.50492953,36.932227" stroke-width="1.6" stroke-linecap="round" stroke-linejoin="round" style="-webkit-tap-highlight-color: rgba(0, 0, 0, 0); stroke-linecap: round; stroke-linejoin: round;" transform="matrix(1,0,0,1,350.3969,280.4373)"/>
    <path fill="none" stroke="#000000" d="M-31.1715962,40.78130702L-31.1715962,72.06611432M-24.50492953,36.932227L-24.50492953,75.91519434" stroke-width="1.6" stroke-linecap="round" stroke-linejoin="round" style="-webkit-tap-highlight-color: rgba(0, 0, 0, 0); stroke-linecap: round; stroke-linejoin: round;" transform="matrix(1,0,0,1,350.3969,280.4373)"/>
    <path fill="none" stroke="#000000" d="M-24.50492953,75.91519434L-58.26654186,95.40667802" stroke-width="1.6" stroke-linecap="round" stroke-linejoin="round" style="-webkit-tap-highlight-color: rgba(0, 0, 0, 0); stroke-linecap: round; stroke-linejoin: round;" transform="matrix(1,0,0,1,350.3969,280.4373)"/>
    <path fill="none" stroke="#000000" d="M-58.26654186,87.70875265L-85.36148751,72.06611432M-58.26654186,95.40667802L-92.02815418,75.91519434" stroke-width="1.6" stroke-linecap="round" stroke-linejoin="round" style="-webkit-tap-highlight-color: rgba(0, 0, 0, 0); stroke-linecap: round; stroke-linejoin: round;" transform="matrix(1,0,0,1,350.3969,280.4373)"/>
    <path fill="none" stroke="#000000" d="M-92.02815418,75.91519434L-92.02815418,36.932227" stroke-width="1.6" stroke-linecap="round" stroke-linejoin="round" style="-webkit-tap-highlight-color: rgba(0, 0, 0, 0); stroke-linecap: round; stroke-linejoin: round;" transform="matrix(1,0,0,1,350.3969,280.4373)"/>
    <path fill="none" stroke="#000000" d="M-85.36148751,40.78130702L-58.26654186,25.1386687M-92.02815418,36.932227L-58.26654186,17.44074333" stroke-width="1.6" stroke-linecap="round" stroke-linejoin="round" style="-webkit-tap-highlight-color: rgba(0, 0, 0, 0); stroke-linecap: round; stroke-linejoin: round;" transform="matrix(1,0,0,1,350.3969,280.4373)"/>
    <path fill="none" stroke="#000000" d="M-24.50492953,36.932227L-58.26654186,17.44074333" stroke-width="1.6" stroke-linecap="round" stroke-linejoin="round" style="-webkit-tap-highlight-color: rgba(0, 0, 0, 0); stroke-linecap: round; stroke-linejoin: round;" transform="matrix(1,0,0,1,350.3969,280.4373)"/>
    <path fill="none" stroke="#000000" d="M9.25195758,17.44074333L37.29606803,-9.63942465" stroke-width="1.6" stroke-linecap="round" stroke-linejoin="round" style="-webkit-tap-highlight-color: rgba(0, 0, 0, 0); stroke-linecap: round; stroke-linejoin: round;" transform="matrix(1,0,0,1,350.3969,280.4373)"/>
    <path fill="none" stroke="#000000" d="M37.4209669,-9.65697661L37.17116916,-9.62187269M37.18698466,-13.1346347L36.43759142,-13.02932294M36.95300242,-16.61229279L35.70401369,-16.43677319M36.71902017,-20.08995088L34.97043596,-19.84422343M36.48503793,-23.56760897L34.23685822,-23.25167368M36.25105569,-27.04526706L33.50328049,-26.65912393M36.01707344,-30.52292515L32.76970276,-30.06657417M35.7830912,-34.00058324L32.03612502,-33.47402442M35.54910896,-37.47824133L31.30254729,-36.88147467M35.31512671,-40.95589942L30.56896956,-40.28892492M35.08114447,-44.43355751L29.83539182,-43.69637516M34.84716223,-47.9112156L29.10181409,-47.10382541M34.61317998,-51.38887369L28.36823635,-50.51127566M34.37919774,-54.86653178L27.63465862,-53.9187259M34.1452155,-58.34418987L26.90108089,-57.32617615M33.91123325,-61.82184796L26.16750315,-60.7336264M33.67725101,-65.29950605L25.43392542,-64.14107665M33.44326877,-68.77716414L24.70034769,-67.54852689M33.20928652,-72.25482222L23.96676995,-70.95597714" stroke-width="1.6" stroke-linecap="round" stroke-linejoin="round" style="-webkit-tap-highlight-color: rgba(0, 0, 0, 0); stroke-linecap: round; stroke-linejoin: round;" transform="matrix(1,0,0,1,350.3969,280.4373)"/>
    <path fill="none" stroke="#000000" d="M28.61586063,-71.40734576L48.15021465,-86.66884153" stroke-width="1.6" stroke-linecap="round" stroke-linejoin="round" style="-webkit-tap-highlight-color: rgba(0, 0, 0, 0); stroke-linecap: round; stroke-linejoin: round;" transform="matrix(1,0,0,1,350.3969,280.4373)"/>
    <path fill="none" stroke="#000000" d="M28.61586063,-71.40734576L4.10766677,-81.30802807" stroke-width="1.6" stroke-linecap="round" stroke-linejoin="round" style="-webkit-tap-highlight-color: rgba(0, 0, 0, 0); stroke-linecap: round; stroke-linejoin: round;" transform="matrix(1,0,0,1,350.3969,280.4373)"/>
    <path fill="none" stroke="#000000" d="M37.29606803,-9.63942465L60.22144729,2.55030542" stroke-width="1.6" stroke-linecap="round" stroke-linejoin="round" style="-webkit-tap-highlight-color: rgba(0, 0, 0, 0); stroke-linecap: round; stroke-linejoin: round;" transform="matrix(1,0,0,1,350.3969,280.4373)"/>
    <path fill="none" stroke="#000000" d="M64.9479862,47.05362289L68.77787144,25.32330336" stroke-width="1.6" stroke-linecap="round" stroke-linejoin="round" style="-webkit-tap-highlight-color: rgba(0, 0, 0, 0); stroke-linecap: round; stroke-linejoin: round;" transform="matrix(1,0,0,1,350.3969,280.4373)"/>
    <text x="77.904" y="-120.764" text-anchor="middle" font="30px &quot;Arial&quot;" stroke="none" fill="#000000" style="-webkit-tap-highlight-color: rgba(0, 0, 0, 0); text-anchor: middle; font: 24px Arial;" font-size="24px" transform="matrix(1,0,0,1,350.3969,280.4373)">
      <tspan dy="8.493812500000004" style="-webkit-tap-highlight-color: rgba(0, 0, 0, 0);">Chiral</tspan>
    </text>
  </g>
</svg>
