
<svg version="1.1" id="topsvg" xmlns="http://www.w3.org/2000/svg" x="0" y="0" width="200px" height="200px" viewBox="0 0 100 100" xmlns:xlink="http://www.w3.org/1999/xlink">
<title> - Open Babel Depiction</title>
<rect x="0" y="0" width="100" height="100" fill="white"></rect>
<g transform="translate(0,0)">
<svg width="100" height="100" x="0" y="0" viewBox="0 0 218.562 260.003" font-family="sans-serif" stroke="#000000" stroke-width="2" stroke-linecap="round">
<line x1="74.6" y1="160.0" x2="51.3" y2="173.5" opacity="1.0" stroke="#000000" stroke-width="2.0"></line>
<line x1="143.9" y1="160.0" x2="167.3" y2="173.5" opacity="1.0" stroke="#000000" stroke-width="2.0"></line>
<line x1="109.3" y1="100.0" x2="109.3" y2="73.0" opacity="1.0" stroke="#000000" stroke-width="2.0"></line>
<line x1="109.3" y1="193.0" x2="109.3" y2="207.0" opacity="1.0" stroke="#000000" stroke-width="2.0"></line>
<line x1="119.0" y1="50.9" x2="131.2" y2="43.9" opacity="1.0" stroke="#000000" stroke-width="2.0"></line>
<line x1="122.0" y1="56.1" x2="134.2" y2="49.1" opacity="1.0" stroke="#000000" stroke-width="2.0"></line>
<line x1="98.0" y1="53.5" x2="85.9" y2="46.5" opacity="1.0" stroke="#000000" stroke-width="2.0"></line>
<line x1="143.9" y1="120.0" x2="143.9" y2="160.0" opacity="1.0" stroke="#000000" stroke-width="2.0"></line>
<line x1="136.7" y1="126.0" x2="136.7" y2="154.0" opacity="1.0" stroke="#000000" stroke-width="2.0"></line>
<line x1="143.9" y1="160.0" x2="120.5" y2="173.5" opacity="1.0" stroke="#000000" stroke-width="2.0"></line>
<line x1="97.8" y1="173.4" x2="74.6" y2="160.0" opacity="1.0" stroke="#000000" stroke-width="2.0"></line>
<line x1="99.7" y1="166.2" x2="83.4" y2="156.8" opacity="1.0" stroke="#000000" stroke-width="2.0"></line>
<line x1="74.6" y1="160.0" x2="74.6" y2="120.0" opacity="1.0" stroke="#000000" stroke-width="2.0"></line>
<line x1="74.6" y1="120.0" x2="109.3" y2="100.0" opacity="1.0" stroke="#000000" stroke-width="2.0"></line>
<line x1="83.4" y1="123.2" x2="107.7" y2="109.2" opacity="1.0" stroke="#000000" stroke-width="2.0"></line>
<line x1="109.3" y1="100.0" x2="143.9" y2="120.0" opacity="1.0" stroke="#000000" stroke-width="2.0"></line>
<text x="114.081016" y="175.970053" fill="#000000" stroke="#000000" stroke-width="1" font-size="16">+</text>
<text x="103.281016" y="188.002053" fill="#000000" stroke="#000000" stroke-width="1" font-size="16">N</text>
<text x="14.000000" y="188.002053" fill="#000000" stroke="#000000" stroke-width="1" font-size="16">H</text>
<text x="26.000000" y="191.682053" fill="#000000" stroke="#000000" stroke-width="1" font-size="13">3</text>
<text x="32.500000" y="188.002053" fill="#000000" stroke="#000000" stroke-width="1" font-size="16">C</text>
<text x="174.562032" y="188.002053" fill="#000000" stroke="#000000" stroke-width="1" font-size="16">CH</text>
<text x="198.562032" y="191.682053" fill="#000000" stroke="#000000" stroke-width="1" font-size="13">3</text>
<text x="113.181016" y="56.724293" fill="#000000" stroke="#000000" stroke-width="1" font-size="13">+</text>
<text x="103.281016" y="68.000293" fill="#000000" stroke="#000000" stroke-width="1" font-size="16">N</text>
<text x="114.081016" y="205.890640" fill="#000000" stroke="#000000" stroke-width="1" font-size="16">_</text>
<text x="103.281016" y="228.002640" fill="#000000" stroke="#000000" stroke-width="1" font-size="16">O</text>
<text x="137.921524" y="48.000000" fill="#000000" stroke="#000000" stroke-width="1" font-size="16">O</text>
<text x="79.440508" y="25.888000" fill="#000000" stroke="#000000" stroke-width="1" font-size="16">_</text>
<text x="68.640508" y="48.000000" fill="#000000" stroke="#000000" stroke-width="1" font-size="16">O</text>
</svg>
</g>
</svg>
