
<svg version="1.1" id="topsvg" xmlns="http://www.w3.org/2000/svg" x="0" y="0" width="200px" height="200px" viewBox="0 0 100 100" xmlns:xlink="http://www.w3.org/1999/xlink">
<title> - Open Babel Depiction</title>
<rect x="0" y="0" width="100" height="100" fill="white"></rect>
<g transform="translate(0,0)">
<svg width="100" height="100" x="0" y="0" viewBox="0 0 183.922 160.001" font-family="sans-serif" stroke-width="2" stroke-linecap="round">
<line x1="109.3" y1="60.0" x2="132.7" y2="46.5" opacity="1.0" stroke-width="2.0"></line>
<line x1="109.3" y1="100.0" x2="132.7" y2="113.5" opacity="1.0" stroke-width="2.0"></line>
<line x1="109.3" y1="60.0" x2="109.3" y2="100.0" opacity="1.0" stroke-width="2.0"></line>
<line x1="102.1" y1="66.0" x2="102.1" y2="94.0" opacity="1.0" stroke-width="2.0"></line>
<line x1="109.3" y1="100.0" x2="74.6" y2="120.0" opacity="1.0" stroke-width="2.0"></line>
<line x1="74.6" y1="120.0" x2="40.0" y2="100.0" opacity="1.0" stroke-width="2.0"></line>
<line x1="73.0" y1="110.8" x2="48.8" y2="96.8" opacity="1.0" stroke-width="2.0"></line>
<line x1="40.0" y1="100.0" x2="40.0" y2="60.0" opacity="1.0" stroke-width="2.0"></line>
<line x1="40.0" y1="60.0" x2="74.6" y2="40.0" opacity="1.0" stroke-width="2.0"></line>
<line x1="48.8" y1="63.2" x2="73.0" y2="49.2" opacity="1.0" stroke-width="2.0"></line>
<line x1="74.6" y1="40.0" x2="109.3" y2="60.0" opacity="1.0" stroke-width="2.0"></line>
<text x="137.921715" y="48.000000" stroke-width="1" font-size="16">I</text>
<text x="139.921715" y="128.001320" stroke-width="1" font-size="16">NH</text>
<text x="163.921715" y="131.681320" stroke-width="1" font-size="13">2</text>
</svg>
</g>
</svg>
