
<svg version="1.1" id="topsvg" xmlns="http://www.w3.org/2000/svg" x="0" y="0" width="200px" height="200px" viewBox="0 0 100 100" xmlns:xlink="http://www.w3.org/1999/xlink">
<title> - Open Babel Depiction</title>
<rect x="0" y="0" width="100" height="100" fill="white"></rect>
<g transform="translate(0,0)">
<svg width="100" height="100" x="0" y="0" viewBox="0 0 314.78 240.778" font-family="sans-serif" stroke="#000000" stroke-width="2" stroke-linecap="round">
<line x1="142.0" y1="96.2" x2="142.0" y2="133.7" opacity="1.0" stroke="#000000" stroke-width="2.0"></line>
<line x1="136.0" y1="96.2" x2="136.0" y2="133.7" opacity="1.0" stroke="#000000" stroke-width="2.0"></line>
<line x1="139.0" y1="133.7" x2="106.6" y2="152.4" opacity="1.0" stroke="#000000" stroke-width="2.0"></line>
<line x1="106.6" y1="152.4" x2="85.4" y2="140.2" opacity="1.0" stroke="#000000" stroke-width="2.0"></line>
<line x1="109.6" y1="152.4" x2="109.6" y2="176.9" opacity="1.0" stroke="#000000" stroke-width="2.0"></line>
<line x1="103.6" y1="152.4" x2="103.6" y2="176.9" opacity="1.0" stroke="#000000" stroke-width="2.0"></line>
<line x1="62.9" y1="140.2" x2="51.3" y2="146.9" opacity="1.0" stroke="#000000" stroke-width="2.0"></line>
<line x1="139.0" y1="133.7" x2="173.2" y2="153.4" opacity="1.0" stroke="#000000" stroke-width="2.0"></line>
<line x1="235.3" y1="163.7" x2="261.5" y2="160.9" opacity="1.0" stroke="#000000" stroke-width="2.0"></line>
<line x1="235.9" y1="169.6" x2="262.2" y2="166.9" opacity="1.0" stroke="#000000" stroke-width="2.0"></line>
<line x1="160.2" y1="84.0" x2="139.0" y2="96.2" opacity="1.0" stroke="#000000" stroke-width="2.0"></line>
<line x1="139.0" y1="96.2" x2="117.8" y2="84.0" opacity="1.0" stroke="#000000" stroke-width="2.0"></line>
<line x1="106.6" y1="64.5" x2="106.6" y2="40.0" opacity="1.0" stroke="#000000" stroke-width="2.0"></line>
<line x1="106.6" y1="40.0" x2="171.5" y2="40.0" opacity="1.0" stroke="#000000" stroke-width="2.0"></line>
<line x1="171.5" y1="40.0" x2="171.5" y2="64.5" opacity="1.0" stroke="#000000" stroke-width="2.0"></line>
<line x1="209.2" y1="137.3" x2="235.6" y2="166.6" opacity="1.0" stroke="#000000" stroke-width="2.0"></line>
<line x1="235.6" y1="166.6" x2="215.9" y2="200.8" opacity="1.0" stroke="#000000" stroke-width="2.0"></line>
<line x1="215.9" y1="200.8" x2="177.3" y2="192.6" opacity="1.0" stroke="#000000" stroke-width="2.0"></line>
<line x1="177.3" y1="192.6" x2="173.2" y2="153.4" opacity="1.0" stroke="#000000" stroke-width="2.0"></line>
<line x1="173.2" y1="153.4" x2="209.2" y2="137.3" opacity="1.0" stroke="#000000" stroke-width="2.0"></line>
<text x="165.482276" y="85.464426" fill="#000000" stroke="#000000" stroke-width="1" font-size="16">S</text>
<text x="100.590720" y="85.464426" fill="#000000" stroke="#000000" stroke-width="1" font-size="16">S</text>
<text x="68.144943" y="141.663036" fill="#000000" stroke="#000000" stroke-width="1" font-size="16">O</text>
<text x="100.590720" y="197.861646" fill="#000000" stroke="#000000" stroke-width="1" font-size="16">O</text>
<text x="14.000000" y="161.374930" fill="#000000" stroke="#000000" stroke-width="1" font-size="16">H</text>
<text x="26.000000" y="165.054930" fill="#000000" stroke="#000000" stroke-width="1" font-size="13">3</text>
<text x="32.500000" y="161.374930" fill="#000000" stroke="#000000" stroke-width="1" font-size="16">C</text>
<text x="268.780485" y="170.517306" fill="#000000" stroke="#000000" stroke-width="1" font-size="16">O</text>
</svg>
</g>
</svg>
