
<svg version="1.1" id="topsvg" xmlns="http://www.w3.org/2000/svg" x="0" y="0" width="200px" height="200px" viewBox="0 0 100 100" xmlns:xlink="http://www.w3.org/1999/xlink">
<title> - Open Babel Depiction</title>
<rect x="0" y="0" width="100" height="100" fill="white"></rect>
<g transform="translate(0,0)">
<svg width="100" height="100" x="0" y="0" viewBox="0 0 465.237 254.467" font-family="sans-serif" stroke-width="2" stroke-linecap="round">
<line x1="280.7" y1="144.7" x2="240.4" y2="144.7" opacity="1.0" stroke-width="2.0"></line>
<line x1="237.8" y1="146.2" x2="217.6" y2="111.3" opacity="1.0" stroke-width="2.0"></line>
<line x1="243.0" y1="143.2" x2="222.8" y2="108.3" opacity="1.0" stroke-width="2.0"></line>
<line x1="220.2" y1="109.8" x2="180.0" y2="109.8" opacity="1.0" stroke-width="2.0"></line>
<line x1="300.8" y1="179.6" x2="287.2" y2="203.2" opacity="1.0" stroke-width="2.0"></line>
<line x1="159.8" y1="74.9" x2="173.5" y2="51.3" opacity="1.0" stroke-width="2.0"></line>
<line x1="361.3" y1="144.7" x2="401.6" y2="144.7" opacity="1.0" stroke-width="2.0"></line>
<line x1="399.1" y1="142.9" x2="415.2" y2="120.8" opacity="1.0" stroke-width="2.0"></line>
<line x1="404.0" y1="146.4" x2="420.0" y2="124.4" opacity="1.0" stroke-width="2.0"></line>
<line x1="401.6" y1="144.7" x2="417.6" y2="166.8" opacity="1.0" stroke-width="2.0"></line>
<line x1="51.4" y1="89.5" x2="67.4" y2="110.9" opacity="1.0" stroke-width="2.0"></line>
<line x1="46.6" y1="93.1" x2="62.6" y2="114.5" opacity="1.0" stroke-width="2.0"></line>
<line x1="65.0" y1="112.7" x2="48.1" y2="133.7" opacity="1.0" stroke-width="2.0"></line>
<line x1="99.4" y1="109.8" x2="65.0" y2="112.7" opacity="1.0" stroke-width="2.0"></line>
<line x1="280.7" y1="144.7" x2="300.8" y2="109.8" opacity="1.0" stroke-width="2.0"></line>
<line x1="289.9" y1="143.1" x2="304.1" y2="118.6" opacity="1.0" stroke-width="2.0"></line>
<line x1="300.8" y1="109.8" x2="341.1" y2="109.8" opacity="1.0" stroke-width="2.0"></line>
<line x1="341.1" y1="109.8" x2="361.3" y2="144.7" opacity="1.0" stroke-width="2.0"></line>
<line x1="337.9" y1="118.6" x2="352.0" y2="143.1" opacity="1.0" stroke-width="2.0"></line>
<line x1="361.3" y1="144.7" x2="341.1" y2="179.6" opacity="1.0" stroke-width="2.0"></line>
<line x1="341.1" y1="179.6" x2="300.8" y2="179.6" opacity="1.0" stroke-width="2.0"></line>
<line x1="335.1" y1="172.4" x2="306.8" y2="172.4" opacity="1.0" stroke-width="2.0"></line>
<line x1="300.8" y1="179.6" x2="280.7" y2="144.7" opacity="1.0" stroke-width="2.0"></line>
<line x1="159.8" y1="144.7" x2="119.5" y2="144.7" opacity="1.0" stroke-width="2.0"></line>
<line x1="153.8" y1="137.5" x2="125.5" y2="137.5" opacity="1.0" stroke-width="2.0"></line>
<line x1="119.5" y1="144.7" x2="99.4" y2="109.8" opacity="1.0" stroke-width="2.0"></line>
<line x1="99.4" y1="109.8" x2="119.5" y2="74.9" opacity="1.0" stroke-width="2.0"></line>
<line x1="108.6" y1="108.2" x2="122.8" y2="83.7" opacity="1.0" stroke-width="2.0"></line>
<line x1="119.5" y1="74.9" x2="159.8" y2="74.9" opacity="1.0" stroke-width="2.0"></line>
<line x1="159.8" y1="74.9" x2="180.0" y2="109.8" opacity="1.0" stroke-width="2.0"></line>
<line x1="156.6" y1="83.7" x2="170.7" y2="108.2" opacity="1.0" stroke-width="2.0"></line>
<line x1="180.0" y1="109.8" x2="159.8" y2="144.7" opacity="1.0" stroke-width="2.0"></line>
<text x="22.000000" y="151.863399" stroke-width="1" font-size="16">HO</text>
<text x="35.169254" y="88.875842" stroke-width="1" font-size="16">O</text>
<text x="419.221171" y="185.275235" stroke-width="1" font-size="16">OH</text>
<text x="419.237188" y="120.081311" stroke-width="1" font-size="16">O</text>
<text x="175.962117" y="48.000000" stroke-width="1" font-size="16">NH</text>
<text x="199.962117" y="51.680000" stroke-width="1" font-size="13">2</text>
<text x="254.682145" y="222.467125" stroke-width="1" font-size="16">H</text>
<text x="266.682145" y="226.147125" stroke-width="1" font-size="13">2</text>
<text x="273.182145" y="222.467125" stroke-width="1" font-size="16">N</text>
</svg>
</g>
</svg>
