<?xml version="1.0"?>
<svg xmlns="http://www.w3.org/2000/svg" height="310.1801662375535" version="1.1" width="468.00658379000004" style="overflow: hidden; position: relative;" viewBox="0 0 488 330">
  <g transform="translate(-171, -111)">
    <defs style="-webkit-tap-highlight-color: rgba(0, 0, 0, 0);"/>
    <text x="-17.70974555424964" y="-71.58267253982538" text-anchor="middle" font="30px &quot;Arial&quot;" stroke="none" fill="#000000" style="-webkit-tap-highlight-color: rgba(0, 0, 0, 0); text-anchor: middle; font: 24px Arial;" font-size="24px" transform="matrix(1,0,0,1,340.456,268.1641)">
      <tspan dy="8.503264960174619" style="-webkit-tap-highlight-color: rgba(0, 0, 0, 0);">O</tspan>
    </text>
    <text x="-53.13419459823444" y="-10.223262971126193" text-anchor="middle" font="30px &quot;Arial&quot;" stroke="none" fill="#000000" style="-webkit-tap-highlight-color: rgba(0, 0, 0, 0); text-anchor: middle; font: 24px Arial;" font-size="24px" transform="matrix(1,0,0,1,340.456,268.1641)">
      <tspan dy="8.503299528873807" style="-webkit-tap-highlight-color: rgba(0, 0, 0, 0);">N</tspan>
    </text>
    <text x="-53.13419459823444" y="-10.223262971126193" text-anchor="middle" font="30px &quot;Arial&quot;" stroke="none" fill="#000000" style="-webkit-tap-highlight-color: rgba(0, 0, 0, 0); text-anchor: middle; font: 24px Arial;" font-size="24px" transform="matrix(1,0,0,1,322.2966,268.1641)">
      <tspan dy="8.503299528873807" style="-webkit-tap-highlight-color: rgba(0, 0, 0, 0);">H</tspan>
    </text>
    <text x="53.13419459823444" y="10.223262971126193" text-anchor="middle" font="30px &quot;Arial&quot;" stroke="none" fill="#000000" style="-webkit-tap-highlight-color: rgba(0, 0, 0, 0); text-anchor: middle; font: 24px Arial;" font-size="24px" transform="matrix(1,0,0,1,340.456,268.1641)">
      <tspan dy="8.496700471126193" style="-webkit-tap-highlight-color: rgba(0, 0, 0, 0);">N</tspan>
    </text>
    <text x="159.40258379470328" y="-51.1311886620875" text-anchor="middle" font="30px &quot;Arial&quot;" stroke="none" fill="#000000" style="-webkit-tap-highlight-color: rgba(0, 0, 0, 0); text-anchor: middle; font: 24px Arial;" font-size="24px" transform="matrix(1,0,0,1,340.456,268.1641)">
      <tspan dy="8.501623837912497" style="-webkit-tap-highlight-color: rgba(0, 0, 0, 0);">C</tspan>
    </text>
    <text x="159.40258379470328" y="-51.1311886620875" text-anchor="middle" font="30px &quot;Arial&quot;" stroke="none" fill="#000000" style="-webkit-tap-highlight-color: rgba(0, 0, 0, 0); text-anchor: middle; font: 24px Arial;" font-size="24px" transform="matrix(1,0,0,1,358.5997,268.1641)">
      <tspan dy="8.501623837912497" style="-webkit-tap-highlight-color: rgba(0, 0, 0, 0);">H</tspan>
    </text>
    <text x="159.40258379470328" y="-51.1311886620875" text-anchor="middle" font="30px &quot;Arial&quot;" stroke="none" fill="#000000" style="-webkit-tap-highlight-color: rgba(0, 0, 0, 0); text-anchor: middle; font: 17px Arial;" font-size="17px" transform="matrix(1,0,0,1,372.806,273.5672)">
      <tspan dy="5.501623837912497" style="-webkit-tap-highlight-color: rgba(0, 0, 0, 0);">2</tspan>
    </text>
    <text x="-17.70974555424964" y="132.93216623755356" text-anchor="middle" font="30px &quot;Arial&quot;" stroke="none" fill="#000000" style="-webkit-tap-highlight-color: rgba(0, 0, 0, 0); text-anchor: middle; font: 24px Arial;" font-size="24px" transform="matrix(1,0,0,1,340.456,268.1641)">
      <tspan dy="8.50247873755356" style="-webkit-tap-highlight-color: rgba(0, 0, 0, 0);">N</tspan>
    </text>
    <text x="-123.9781347507185" y="-51.1311886620875" text-anchor="middle" font="30px &quot;Arial&quot;" stroke="none" fill="#000000" style="-webkit-tap-highlight-color: rgba(0, 0, 0, 0); text-anchor: middle; font: 24px Arial;" font-size="24px" transform="matrix(1,0,0,1,340.456,268.1641)">
      <tspan dy="8.501623837912497" style="-webkit-tap-highlight-color: rgba(0, 0, 0, 0);">N</tspan>
    </text>
    <path fill="none" stroke="#000000" d="M-31.48480031,-67.47892691L-54.80081046,-54.01796934M-28.15156859,-61.70536555L-51.46757874,-48.24440798" stroke-width="1.6" stroke-linecap="round" stroke-linejoin="round" style="-webkit-tap-highlight-color: rgba(0, 0, 0, 0); stroke-linecap: round; stroke-linejoin: round;" transform="matrix(1,0,0,1,340.456,268.1641)"/>
    <path fill="none" stroke="#000000" d="M-53.1341946,-51.13118866L-53.1341946,-26.934375" stroke-width="1.6" stroke-linecap="round" stroke-linejoin="round" style="-webkit-tap-highlight-color: rgba(0, 0, 0, 0); stroke-linecap: round; stroke-linejoin: round;" transform="matrix(1,0,0,1,340.456,268.1641)"/>
    <path fill="#000000" stroke="#000000" d="M-17.70974555,10.22326297L-39.34880968,-7.65474139L-44.01448553,0.42873435Z" stroke-width="1.6" stroke-linecap="round" stroke-linejoin="round" style="-webkit-tap-highlight-color: rgba(0, 0, 0, 0); stroke-linecap: round; stroke-linejoin: round;" transform="matrix(1,0,0,1,340.456,268.1641)"/>
    <path fill="none" stroke="#000000" d="M-17.70974555,10.22326297L17.70974555,-10.22326297" stroke-width="1.6" stroke-linecap="round" stroke-linejoin="round" style="-webkit-tap-highlight-color: rgba(0, 0, 0, 0); stroke-linecap: round; stroke-linejoin: round;" transform="matrix(1,0,0,1,340.456,268.1641)"/>
    <path fill="none" stroke="#000000" d="M17.70974555,-10.22326297L41.6816476,3.61300352" stroke-width="1.6" stroke-linecap="round" stroke-linejoin="round" style="-webkit-tap-highlight-color: rgba(0, 0, 0, 0); stroke-linecap: round; stroke-linejoin: round;" transform="matrix(1,0,0,1,340.456,268.1641)"/>
    <path fill="none" stroke="#000000" d="M63.58132939,-5.52686187L70.09033396,-15.33985239" stroke-width="1.6" stroke-linecap="round" stroke-linejoin="round" style="-webkit-tap-highlight-color: rgba(0, 0, 0, 0); stroke-linecap: round; stroke-linejoin: round;" transform="matrix(1,0,0,1,340.456,268.1641)"/>
    <path fill="none" stroke="#000000" d="M70.09033396,-15.33985239L70.09033396,-46.01459924" stroke-width="1.6" stroke-linecap="round" stroke-linejoin="round" style="-webkit-tap-highlight-color: rgba(0, 0, 0, 0); stroke-linecap: round; stroke-linejoin: round;" transform="matrix(1,0,0,1,340.456,268.1641)"/>
    <path fill="none" stroke="#000000" d="M70.09033396,-46.01459924L53.1341946,-71.58267254" stroke-width="1.6" stroke-linecap="round" stroke-linejoin="round" style="-webkit-tap-highlight-color: rgba(0, 0, 0, 0); stroke-linecap: round; stroke-linejoin: round;" transform="matrix(1,0,0,1,340.456,268.1641)"/>
    <path fill="none" stroke="#000000" d="M53.1341946,-71.58267254L17.70974555,-51.13118866" stroke-width="1.6" stroke-linecap="round" stroke-linejoin="round" style="-webkit-tap-highlight-color: rgba(0, 0, 0, 0); stroke-linecap: round; stroke-linejoin: round;" transform="matrix(1,0,0,1,340.456,268.1641)"/>
    <path fill="none" stroke="#000000" d="M17.70974555,-10.22326297L17.70974555,-51.13118866" stroke-width="1.6" stroke-linecap="round" stroke-linejoin="round" style="-webkit-tap-highlight-color: rgba(0, 0, 0, 0); stroke-linecap: round; stroke-linejoin: round;" transform="matrix(1,0,0,1,340.456,268.1641)"/>
    <path fill="none" stroke="#000000" d="M53.1341946,-71.58267254L88.55864364,-51.13118866" stroke-width="1.6" stroke-linecap="round" stroke-linejoin="round" style="-webkit-tap-highlight-color: rgba(0, 0, 0, 0); stroke-linecap: round; stroke-linejoin: round;" transform="matrix(1,0,0,1,340.456,268.1641)"/>
    <path fill="none" stroke="#000000" d="M88.55864364,-51.13118866L123.97813475,-71.58267254" stroke-width="1.6" stroke-linecap="round" stroke-linejoin="round" style="-webkit-tap-highlight-color: rgba(0, 0, 0, 0); stroke-linecap: round; stroke-linejoin: round;" transform="matrix(1,0,0,1,340.456,268.1641)"/>
    <path fill="none" stroke="#000000" d="M123.97836804,-63.88461249L144.62983383,-51.96196779M123.97813475,-71.58267254L147.96306555,-57.73552915" stroke-width="1.6" stroke-linecap="round" stroke-linejoin="round" style="-webkit-tap-highlight-color: rgba(0, 0, 0, 0); stroke-linecap: round; stroke-linejoin: round;" transform="matrix(1,0,0,1,340.456,268.1641)"/>
    <path fill="none" stroke="#000000" d="M88.55864364,-51.13118866L88.55864364,-10.22326297" stroke-width="1.6" stroke-linecap="round" stroke-linejoin="round" style="-webkit-tap-highlight-color: rgba(0, 0, 0, 0); stroke-linecap: round; stroke-linejoin: round;" transform="matrix(1,0,0,1,340.456,268.1641)"/>
    <path fill="none" stroke="#000000" d="M64.5839774,3.61459897L88.55864364,-10.22326297" stroke-width="1.6" stroke-linecap="round" stroke-linejoin="round" style="-webkit-tap-highlight-color: rgba(0, 0, 0, 0); stroke-linecap: round; stroke-linejoin: round;" transform="matrix(1,0,0,1,340.456,268.1641)"/>
    <path fill="none" stroke="#000000" d="M-17.70974555,10.22326297L-17.70974555,51.13118866" stroke-width="1.6" stroke-linecap="round" stroke-linejoin="round" style="-webkit-tap-highlight-color: rgba(0, 0, 0, 0); stroke-linecap: round; stroke-linejoin: round;" transform="matrix(1,0,0,1,340.456,268.1641)"/>
    <path fill="none" stroke="#000000" d="M-17.70997884,58.82924871L11.04307889,75.43148319M-17.70974555,51.13118866L17.70974555,71.58267254" stroke-width="1.6" stroke-linecap="round" stroke-linejoin="round" style="-webkit-tap-highlight-color: rgba(0, 0, 0, 0); stroke-linecap: round; stroke-linejoin: round;" transform="matrix(1,0,0,1,340.456,268.1641)"/>
    <path fill="none" stroke="#000000" d="M17.70974555,71.58267254L17.70974555,112.48068236" stroke-width="1.6" stroke-linecap="round" stroke-linejoin="round" style="-webkit-tap-highlight-color: rgba(0, 0, 0, 0); stroke-linecap: round; stroke-linejoin: round;" transform="matrix(1,0,0,1,340.456,268.1641)"/>
    <path fill="none" stroke="#000000" d="M11.04307889,108.63187171L-9.59361916,120.54765831M17.70974555,112.48068236L-6.26003752,126.32101763" stroke-width="1.6" stroke-linecap="round" stroke-linejoin="round" style="-webkit-tap-highlight-color: rgba(0, 0, 0, 0); stroke-linecap: round; stroke-linejoin: round;" transform="matrix(1,0,0,1,340.456,268.1641)"/>
    <path fill="none" stroke="#000000" d="M-29.16193445,126.32051065L-53.1341946,112.48068236" stroke-width="1.6" stroke-linecap="round" stroke-linejoin="round" style="-webkit-tap-highlight-color: rgba(0, 0, 0, 0); stroke-linecap: round; stroke-linejoin: round;" transform="matrix(1,0,0,1,340.456,268.1641)"/>
    <path fill="none" stroke="#000000" d="M-59.80086126,108.63160234L-88.55841036,125.23410619M-53.1341946,112.48068236L-88.55864364,132.93216624" stroke-width="1.6" stroke-linecap="round" stroke-linejoin="round" style="-webkit-tap-highlight-color: rgba(0, 0, 0, 0); stroke-linecap: round; stroke-linejoin: round;" transform="matrix(1,0,0,1,340.456,268.1641)"/>
    <path fill="none" stroke="#000000" d="M-88.55864364,132.93216624L-123.97813475,112.48068236" stroke-width="1.6" stroke-linecap="round" stroke-linejoin="round" style="-webkit-tap-highlight-color: rgba(0, 0, 0, 0); stroke-linecap: round; stroke-linejoin: round;" transform="matrix(1,0,0,1,340.456,268.1641)"/>
    <path fill="none" stroke="#000000" d="M-117.31146808,108.63187171L-117.31146808,75.43148319M-123.97813475,112.48068236L-123.97813475,71.58267254" stroke-width="1.6" stroke-linecap="round" stroke-linejoin="round" style="-webkit-tap-highlight-color: rgba(0, 0, 0, 0); stroke-linecap: round; stroke-linejoin: round;" transform="matrix(1,0,0,1,340.456,268.1641)"/>
    <path fill="none" stroke="#000000" d="M-123.97813475,71.58267254L-88.55864364,51.13118866" stroke-width="1.6" stroke-linecap="round" stroke-linejoin="round" style="-webkit-tap-highlight-color: rgba(0, 0, 0, 0); stroke-linecap: round; stroke-linejoin: round;" transform="matrix(1,0,0,1,340.456,268.1641)"/>
    <path fill="none" stroke="#000000" d="M-88.55841036,58.82924871L-59.80086126,75.43175256M-88.55864364,51.13118866L-53.1341946,71.58267254" stroke-width="1.6" stroke-linecap="round" stroke-linejoin="round" style="-webkit-tap-highlight-color: rgba(0, 0, 0, 0); stroke-linecap: round; stroke-linejoin: round;" transform="matrix(1,0,0,1,340.456,268.1641)"/>
    <path fill="none" stroke="#000000" d="M-17.70974555,51.13118866L-53.1341946,71.58267254" stroke-width="1.6" stroke-linecap="round" stroke-linejoin="round" style="-webkit-tap-highlight-color: rgba(0, 0, 0, 0); stroke-linecap: round; stroke-linejoin: round;" transform="matrix(1,0,0,1,340.456,268.1641)"/>
    <path fill="none" stroke="#000000" d="M-53.1341946,112.48068236L-53.1341946,71.58267254" stroke-width="1.6" stroke-linecap="round" stroke-linejoin="round" style="-webkit-tap-highlight-color: rgba(0, 0, 0, 0); stroke-linecap: round; stroke-linejoin: round;" transform="matrix(1,0,0,1,340.456,268.1641)"/>
    <path fill="none" stroke="#000000" d="M-53.1341946,-51.13118866L-88.55864364,-71.58267254" stroke-width="1.6" stroke-linecap="round" stroke-linejoin="round" style="-webkit-tap-highlight-color: rgba(0, 0, 0, 0); stroke-linecap: round; stroke-linejoin: round;" transform="matrix(1,0,0,1,340.456,268.1641)"/>
    <path fill="none" stroke="#000000" d="M-95.22531031,-75.43148319L-115.85924416,-63.51729266M-88.55864364,-71.58267254L-112.52566252,-57.74393333" stroke-width="1.6" stroke-linecap="round" stroke-linejoin="round" style="-webkit-tap-highlight-color: rgba(0, 0, 0, 0); stroke-linecap: round; stroke-linejoin: round;" transform="matrix(1,0,0,1,340.456,268.1641)"/>
    <path fill="none" stroke="#000000" d="M-135.42755945,-57.74124841L-159.40258379,-71.58267254" stroke-width="1.6" stroke-linecap="round" stroke-linejoin="round" style="-webkit-tap-highlight-color: rgba(0, 0, 0, 0); stroke-linecap: round; stroke-linejoin: round;" transform="matrix(1,0,0,1,340.456,268.1641)"/>
    <path fill="none" stroke="#000000" d="M-152.73591713,-75.43175256L-152.73591713,-108.63160234M-159.40258379,-71.58267254L-159.40258379,-112.48068236" stroke-width="1.6" stroke-linecap="round" stroke-linejoin="round" style="-webkit-tap-highlight-color: rgba(0, 0, 0, 0); stroke-linecap: round; stroke-linejoin: round;" transform="matrix(1,0,0,1,340.456,268.1641)"/>
    <path fill="none" stroke="#000000" d="M-159.40258379,-112.48068236L-123.97813475,-132.93216624" stroke-width="1.6" stroke-linecap="round" stroke-linejoin="round" style="-webkit-tap-highlight-color: rgba(0, 0, 0, 0); stroke-linecap: round; stroke-linejoin: round;" transform="matrix(1,0,0,1,340.456,268.1641)"/>
    <path fill="none" stroke="#000000" d="M-123.97836804,-125.23410619L-95.22531031,-108.63187171M-123.97813475,-132.93216624L-88.55864364,-112.48068236" stroke-width="1.6" stroke-linecap="round" stroke-linejoin="round" style="-webkit-tap-highlight-color: rgba(0, 0, 0, 0); stroke-linecap: round; stroke-linejoin: round;" transform="matrix(1,0,0,1,340.456,268.1641)"/>
    <path fill="none" stroke="#000000" d="M-88.55864364,-71.58267254L-88.55864364,-112.48068236" stroke-width="1.6" stroke-linecap="round" stroke-linejoin="round" style="-webkit-tap-highlight-color: rgba(0, 0, 0, 0); stroke-linecap: round; stroke-linejoin: round;" transform="matrix(1,0,0,1,340.456,268.1641)"/>
    <text x="128.604" y="-147.248" text-anchor="middle" font="30px &quot;Arial&quot;" stroke="none" fill="#000000" style="-webkit-tap-highlight-color: rgba(0, 0, 0, 0); text-anchor: middle; font: 24px Arial;" font-size="24px" transform="matrix(1,0,0,1,340.456,268.1641)">
      <tspan dy="8.49418750000001" style="-webkit-tap-highlight-color: rgba(0, 0, 0, 0);">Chiral</tspan>
    </text>
  </g>
</svg>
