
<svg version="1.1" id="topsvg" xmlns="http://www.w3.org/2000/svg" x="0" y="0" width="200px" height="200px" viewBox="0 0 100 100" xmlns:xlink="http://www.w3.org/1999/xlink">
<title> - Open Babel Depiction</title>
<rect x="0" y="0" width="100" height="100" fill="white"></rect>
<g transform="translate(0,0)">
<svg width="100" height="100" x="0" y="0" viewBox="0 0 405.398 160.015" font-family="sans-serif" stroke="rgb(0,0,0)" stroke-width="2" stroke-linecap="round">
<line x1="205.5" y1="80.0" x2="245.4" y2="80.0" opacity="1.0" stroke="rgb(0,0,0)" stroke-width="2.0"></line>
<line x1="325.4" y1="80.0" x2="352.4" y2="80.0" opacity="1.0" stroke="rgb(0,0,0)" stroke-width="2.0"></line>
<line x1="74.7" y1="60.0" x2="51.3" y2="46.5" opacity="1.0" stroke="rgb(0,0,0)" stroke-width="2.0"></line>
<line x1="205.5" y1="80.0" x2="189.6" y2="58.2" opacity="1.0" stroke="rgb(0,0,0)" stroke-width="2.0"></line>
<line x1="169.6" y1="51.7" x2="143.9" y2="60.0" opacity="1.0" stroke="rgb(0,0,0)" stroke-width="2.0"></line>
<line x1="143.9" y1="60.0" x2="143.9" y2="100.0" opacity="1.0" stroke="rgb(0,0,0)" stroke-width="2.0"></line>
<line x1="151.1" y1="66.0" x2="151.1" y2="94.0" opacity="1.0" stroke="rgb(0,0,0)" stroke-width="2.0"></line>
<line x1="143.9" y1="100.0" x2="169.6" y2="108.4" opacity="1.0" stroke="rgb(0,0,0)" stroke-width="2.0"></line>
<line x1="189.8" y1="101.7" x2="205.5" y2="80.0" opacity="1.0" stroke="rgb(0,0,0)" stroke-width="2.0"></line>
<line x1="185.1" y1="95.8" x2="196.2" y2="80.6" opacity="1.0" stroke="rgb(0,0,0)" stroke-width="2.0"></line>
<line x1="74.7" y1="100.0" x2="109.3" y2="120.0" opacity="1.0" stroke="rgb(0,0,0)" stroke-width="2.0"></line>
<line x1="83.4" y1="96.8" x2="107.7" y2="110.8" opacity="1.0" stroke="rgb(0,0,0)" stroke-width="2.0"></line>
<line x1="109.3" y1="120.0" x2="143.9" y2="100.0" opacity="1.0" stroke="rgb(0,0,0)" stroke-width="2.0"></line>
<line x1="143.9" y1="60.0" x2="109.3" y2="40.0" opacity="1.0" stroke="rgb(0,0,0)" stroke-width="2.0"></line>
<line x1="109.3" y1="40.0" x2="74.7" y2="60.0" opacity="1.0" stroke="rgb(0,0,0)" stroke-width="2.0"></line>
<line x1="107.7" y1="49.2" x2="83.4" y2="63.2" opacity="1.0" stroke="rgb(0,0,0)" stroke-width="2.0"></line>
<line x1="74.7" y1="60.0" x2="74.7" y2="100.0" opacity="1.0" stroke="rgb(0,0,0)" stroke-width="2.0"></line>
<line x1="265.4" y1="114.7" x2="305.4" y2="114.7" opacity="1.0" stroke="rgb(0,0,0)" stroke-width="2.0"></line>
<line x1="271.4" y1="107.5" x2="299.4" y2="107.5" opacity="1.0" stroke="rgb(0,0,0)" stroke-width="2.0"></line>
<line x1="305.4" y1="114.7" x2="325.4" y2="80.0" opacity="1.0" stroke="rgb(0,0,0)" stroke-width="2.0"></line>
<line x1="325.4" y1="80.0" x2="305.4" y2="45.4" opacity="1.0" stroke="rgb(0,0,0)" stroke-width="2.0"></line>
<line x1="316.2" y1="78.4" x2="302.2" y2="54.2" opacity="1.0" stroke="rgb(0,0,0)" stroke-width="2.0"></line>
<line x1="305.4" y1="45.4" x2="265.4" y2="45.4" opacity="1.0" stroke="rgb(0,0,0)" stroke-width="2.0"></line>
<line x1="265.4" y1="45.4" x2="245.4" y2="80.0" opacity="1.0" stroke="rgb(0,0,0)" stroke-width="2.0"></line>
<line x1="268.6" y1="54.2" x2="254.6" y2="78.4" opacity="1.0" stroke="rgb(0,0,0)" stroke-width="2.0"></line>
<line x1="245.4" y1="80.0" x2="265.4" y2="114.7" opacity="1.0" stroke="rgb(0,0,0)" stroke-width="2.0"></line>
<text x="176.003102" y="55.639952" fill="rgb(0,0,0)" stroke="rgb(0,0,0)" stroke-width="1" font-size="16">S</text>
<text x="14.000000" y="48.000000" fill="rgb(0,0,0)" stroke="rgb(0,0,0)" stroke-width="1" font-size="16">H</text>
<text x="26.000000" y="51.680000" fill="rgb(0,0,0)" stroke="rgb(0,0,0)" stroke-width="1" font-size="13">3</text>
<text x="32.500000" y="48.000000" fill="rgb(0,0,0)" stroke="rgb(0,0,0)" stroke-width="1" font-size="16">C</text>
<text x="359.397941" y="88.007747" fill="rgb(0,0,0)" stroke="rgb(0,0,0)" stroke-width="1" font-size="16">F</text>
<text x="176.003102" y="120.375542" fill="rgb(0,0,0)" stroke="rgb(0,0,0)" stroke-width="1" font-size="16">N</text>
</svg>
</g>
</svg>
