<?xml version="1.0"?>
<svg xmlns="http://www.w3.org/2000/svg" height="110.00027026782004" version="1.1" width="163.92277532425618" style="overflow: hidden; position: relative;" viewBox="0 0 183 130">
  <g transform="translate(-291, -211)">
    <defs style="-webkit-tap-highlight-color: rgba(0, 0, 0, 0);"/>
    <text x="51.96138766425619" y="40.00013513391001" text-anchor="middle" font="30px &quot;Arial&quot;" stroke="none" fill="#000000" style="-webkit-tap-highlight-color: rgba(0, 0, 0, 0); text-anchor: middle; font: 24px Arial;" font-size="24px" transform="matrix(1,0,0,1,353.3323,261)">
      <tspan dy="8.492322633910007" style="-webkit-tap-highlight-color: rgba(0, 0, 0, 0);">I</tspan>
    </text>
    <text x="-17.318846387675947" y="40.00013513391001" text-anchor="middle" font="30px &quot;Arial&quot;" stroke="none" fill="#000000" style="-webkit-tap-highlight-color: rgba(0, 0, 0, 0); text-anchor: middle; font: 24px Arial;" font-size="24px" transform="matrix(1,0,0,1,353.3323,261)">
      <tspan dy="8.492322633910007" style="-webkit-tap-highlight-color: rgba(0, 0, 0, 0);">N</tspan>
    </text>
    <text x="51.96138766425619" y="-40.00013513391001" text-anchor="middle" font="30px &quot;Arial&quot;" stroke="none" fill="#000000" style="-webkit-tap-highlight-color: rgba(0, 0, 0, 0); text-anchor: middle; font: 24px Arial;" font-size="24px" transform="matrix(1,0,0,1,353.3323,261)">
      <tspan dy="8.507677366089993" style="-webkit-tap-highlight-color: rgba(0, 0, 0, 0);">Cl</tspan>
    </text>
    <path fill="none" stroke="#000000" d="M45.85369055,36.47399789L17.31884639,20.00006757" stroke-width="1.6" stroke-linecap="round" stroke-linejoin="round" transform="matrix(1,0,0,1,353.3323,261)" style="-webkit-tap-highlight-color: rgba(0, 0, 0, 0); stroke-linecap: round; stroke-linejoin: round;"/>
    <path fill="none" stroke="#000000" d="M10.65217972,16.15125692L-9.20299416,27.61578551M17.31884639,20.00006757L-5.86941252,33.38914484" stroke-width="1.6" stroke-linecap="round" stroke-linejoin="round" transform="matrix(1,0,0,1,353.3323,261)" style="-webkit-tap-highlight-color: rgba(0, 0, 0, 0); stroke-linecap: round; stroke-linejoin: round;"/>
    <path fill="none" stroke="#000000" d="M-28.77130945,33.38832126L-51.96138766,20.00006757" stroke-width="1.6" stroke-linecap="round" stroke-linejoin="round" transform="matrix(1,0,0,1,353.3323,261)" style="-webkit-tap-highlight-color: rgba(0, 0, 0, 0); stroke-linecap: round; stroke-linejoin: round;"/>
    <path fill="none" stroke="#000000" d="M-45.294721,16.15098755L-45.294721,-16.15098755M-51.96138766,20.00006757L-51.96138766,-20.00006757" stroke-width="1.6" stroke-linecap="round" stroke-linejoin="round" transform="matrix(1,0,0,1,353.3323,261)" style="-webkit-tap-highlight-color: rgba(0, 0, 0, 0); stroke-linecap: round; stroke-linejoin: round;"/>
    <path fill="none" stroke="#000000" d="M-51.96138766,-20.00006757L-17.31884639,-40.00013513" stroke-width="1.6" stroke-linecap="round" stroke-linejoin="round" transform="matrix(1,0,0,1,353.3323,261)" style="-webkit-tap-highlight-color: rgba(0, 0, 0, 0); stroke-linecap: round; stroke-linejoin: round;"/>
    <path fill="none" stroke="#000000" d="M-17.31907967,-32.30207509L10.65217972,-16.15125692M-17.31884639,-40.00013513L17.31884639,-20.00006757" stroke-width="1.6" stroke-linecap="round" stroke-linejoin="round" transform="matrix(1,0,0,1,353.3323,261)" style="-webkit-tap-highlight-color: rgba(0, 0, 0, 0); stroke-linecap: round; stroke-linejoin: round;"/>
    <path fill="none" stroke="#000000" d="M17.31884639,20.00006757L17.31884639,-20.00006757" stroke-width="1.6" stroke-linecap="round" stroke-linejoin="round" transform="matrix(1,0,0,1,353.3323,261)" style="-webkit-tap-highlight-color: rgba(0, 0, 0, 0); stroke-linecap: round; stroke-linejoin: round;"/>
    <path fill="none" stroke="#000000" d="M17.31884639,-20.00006757L37.85369055,-31.85538347" stroke-width="1.6" stroke-linecap="round" stroke-linejoin="round" transform="matrix(1,0,0,1,353.3323,261)" style="-webkit-tap-highlight-color: rgba(0, 0, 0, 0); stroke-linecap: round; stroke-linejoin: round;"/>
  </g>
</svg>
