<?xml version="1.0"?>
<svg xmlns="http://www.w3.org/2000/svg" height="129.62767600896552" version="1.1" width="404.4334500063434" style="overflow: hidden; position: relative;" viewBox="0 0 424 149">
  <g transform="translate(-215, -198)">
    <defs style="-webkit-tap-highlight-color: rgba(0, 0, 0, 0);"/>
    <text x="110.28495000634334" y="-21.224476008965482" text-anchor="middle" font="30px &quot;Arial&quot;" stroke="none" fill="#000000" style="-webkit-tap-highlight-color: rgba(0, 0, 0, 0); text-anchor: middle; font: 24px Arial;" font-size="24px" transform="matrix(1,0,0,1,363.7984,281.0048)">
      <tspan dy="8.502086491034518" style="-webkit-tap-highlight-color: rgba(0, 0, 0, 0);">O</tspan>
    </text>
    <text x="110.28495000634334" y="-21.224476008965482" text-anchor="middle" font="30px &quot;Arial&quot;" stroke="none" fill="#000000" style="-webkit-tap-highlight-color: rgba(0, 0, 0, 0); text-anchor: middle; font: 24px Arial;" font-size="24px" transform="matrix(1,0,0,1,382.6141,281.0048)">
      <tspan dy="8.502086491034518" style="-webkit-tap-highlight-color: rgba(0, 0, 0, 0);">H</tspan>
    </text>
    <text x="0" y="-42.448952017930964" text-anchor="middle" font="30px &quot;Arial&quot;" stroke="none" fill="#000000" style="-webkit-tap-highlight-color: rgba(0, 0, 0, 0); text-anchor: middle; font: 24px Arial;" font-size="24px" transform="matrix(1,0,0,1,363.7984,281.0048)">
      <tspan dy="8.496360482069036" style="-webkit-tap-highlight-color: rgba(0, 0, 0, 0);">N</tspan>
    </text>
    <text x="-110.28495000634334" y="21.224476008965482" text-anchor="middle" font="30px &quot;Arial&quot;" stroke="none" fill="#000000" style="-webkit-tap-highlight-color: rgba(0, 0, 0, 0); text-anchor: middle; font: 24px Arial;" font-size="24px" transform="matrix(1,0,0,1,363.7984,281.0048)">
      <tspan dy="8.497913508965482" style="-webkit-tap-highlight-color: rgba(0, 0, 0, 0);">C</tspan>
    </text>
    <text x="-110.28495000634334" y="21.224476008965482" text-anchor="middle" font="30px &quot;Arial&quot;" stroke="none" fill="#000000" style="-webkit-tap-highlight-color: rgba(0, 0, 0, 0); text-anchor: middle; font: 24px Arial;" font-size="24px" transform="matrix(1,0,0,1,335.3859,281.0048)">
      <tspan dy="8.497913508965482" style="-webkit-tap-highlight-color: rgba(0, 0, 0, 0);">H</tspan>
    </text>
    <text x="-110.28495000634334" y="21.224476008965482" text-anchor="middle" font="30px &quot;Arial&quot;" stroke="none" fill="#000000" style="-webkit-tap-highlight-color: rgba(0, 0, 0, 0); text-anchor: middle; font: 17px Arial;" font-size="17px" transform="matrix(1,0,0,1,349.5922,286.408)">
      <tspan dy="5.497913508965482" style="-webkit-tap-highlight-color: rgba(0, 0, 0, 0);">2</tspan>
    </text>
    <path fill="none" stroke="#000000" d="M98.16619055,-28.22096065L73.5215849,-42.44895202" stroke-width="1.6" stroke-linecap="round" stroke-linejoin="round" style="-webkit-tap-highlight-color: rgba(0, 0, 0, 0); stroke-linecap: round; stroke-linejoin: round;" transform="matrix(1,0,0,1,363.7984,281.0048)"/>
    <path fill="none" stroke="#000000" d="M36.8567054,-21.06282195L36.67002483,-21.38613007M40.12100435,-22.51655411L39.56096263,-23.48647848M43.3853033,-23.97028628L42.45190044,-25.58682689M46.64960225,-25.42401845L45.34283825,-27.6871753M49.91390121,-26.87775061L48.23377606,-29.78752371M53.17820016,-28.33148278L51.12471387,-31.88787212M56.44249911,-29.78521494L54.01565168,-33.98822053M59.70679806,-31.23894711L56.90658949,-36.08856894M62.97109701,-32.69267928L59.79752729,-38.18891735M66.23539597,-34.14641144L62.6884651,-40.28926576M69.49969492,-35.60014361L65.57940291,-42.38961417M72.76399387,-37.05387577L68.47034072,-44.48996258M76.02829282,-38.50760794L71.36127853,-46.590311" stroke-width="1.6" stroke-linecap="round" stroke-linejoin="round" style="-webkit-tap-highlight-color: rgba(0, 0, 0, 0); stroke-linecap: round; stroke-linejoin: round;" transform="matrix(1,0,0,1,363.7984,281.0048)"/>
    <path fill="none" stroke="#000000" d="M36.76336511,-21.22447601L36.76336511,21.22447601" stroke-width="1.6" stroke-linecap="round" stroke-linejoin="round" style="-webkit-tap-highlight-color: rgba(0, 0, 0, 0); stroke-linecap: round; stroke-linejoin: round;" transform="matrix(1,0,0,1,363.7984,281.0048)"/>
    <path fill="none" stroke="#000000" d="M36.76336511,21.22447601L0,42.44895202" stroke-width="1.6" stroke-linecap="round" stroke-linejoin="round" style="-webkit-tap-highlight-color: rgba(0, 0, 0, 0); stroke-linecap: round; stroke-linejoin: round;" transform="matrix(1,0,0,1,363.7984,281.0048)"/>
    <path fill="none" stroke="#000000" d="M0.20468025,42.58471743L-0.20468025,42.3131866M2.58154876,39.8900286L1.35346723,39.07543612M4.95841726,37.19533978L2.91161471,35.83768564M7.33528577,34.50065095L4.4697622,32.59993516M9.71215427,31.80596212L6.02790968,29.36218468M12.08902277,29.1112733L7.58605717,26.1244342M14.46589128,26.41658447L9.14420465,22.88668372M16.84275978,23.72189564L10.70235213,19.64893324M19.21962829,21.02720681L12.26049962,16.41118276M21.59649679,18.33251799L13.8186471,13.17343228" stroke-width="1.6" stroke-linecap="round" stroke-linejoin="round" style="-webkit-tap-highlight-color: rgba(0, 0, 0, 0); stroke-linecap: round; stroke-linejoin: round;" transform="matrix(1,0,0,1,363.7984,281.0048)"/>
    <path fill="none" stroke="#000000" d="M17.59702011,15.91964334L17.59702011,-15.91964334" stroke-width="1.6" stroke-linecap="round" stroke-linejoin="round" style="-webkit-tap-highlight-color: rgba(0, 0, 0, 0); stroke-linecap: round; stroke-linejoin: round;" transform="matrix(1,0,0,1,363.7984,281.0048)"/>
    <path fill="none" stroke="#000000" d="M10.00860163,-26.42190579L10.87280715,-26.99513753M10.961113,-23.10978741L13.55372956,-24.82948265M11.91362436,-19.79766903L16.23465197,-22.66382776M12.86613573,-16.48555065L18.91557438,-20.49817287M13.8186471,-13.17343228L21.59649679,-18.33251799" stroke-width="1.6" stroke-linecap="round" stroke-linejoin="round" style="-webkit-tap-highlight-color: rgba(0, 0, 0, 0); stroke-linecap: round; stroke-linejoin: round;" transform="matrix(1,0,0,1,363.7984,281.0048)"/>
    <path fill="none" stroke="#000000" d="M36.76336511,-21.22447601L11.44318445,-35.84249493" stroke-width="1.6" stroke-linecap="round" stroke-linejoin="round" style="-webkit-tap-highlight-color: rgba(0, 0, 0, 0); stroke-linecap: round; stroke-linejoin: round;" transform="matrix(1,0,0,1,363.7984,281.0048)"/>
    <path fill="none" stroke="#000000" d="M-11.44318445,-35.84249493L-36.76336511,-21.22447601" stroke-width="1.6" stroke-linecap="round" stroke-linejoin="round" style="-webkit-tap-highlight-color: rgba(0, 0, 0, 0); stroke-linecap: round; stroke-linejoin: round;" transform="matrix(1,0,0,1,363.7984,281.0048)"/>
    <path fill="none" stroke="#000000" d="M-36.76336511,-21.22447601L-36.76336511,21.22447601" stroke-width="1.6" stroke-linecap="round" stroke-linejoin="round" style="-webkit-tap-highlight-color: rgba(0, 0, 0, 0); stroke-linecap: round; stroke-linejoin: round;" transform="matrix(1,0,0,1,363.7984,281.0048)"/>
    <path fill="none" stroke="#000000" d="M0,42.44895202L-36.76336511,21.22447601" stroke-width="1.6" stroke-linecap="round" stroke-linejoin="round" style="-webkit-tap-highlight-color: rgba(0, 0, 0, 0); stroke-linecap: round; stroke-linejoin: round;" transform="matrix(1,0,0,1,363.7984,281.0048)"/>
    <path fill="#000000" stroke="#000000" d="M-36.76336511,21.22447601L-75.85509204,38.40760049L-71.18807775,46.49030355Z" stroke-width="1.6" stroke-linecap="round" stroke-linejoin="round" style="-webkit-tap-highlight-color: rgba(0, 0, 0, 0); stroke-linecap: round; stroke-linejoin: round;" transform="matrix(1,0,0,1,363.7984,281.0048)"/>
    <path fill="none" stroke="#000000" d="M-73.52181818,34.75089197L-95.50483383,22.05950785M-73.5215849,42.44895202L-98.83806555,27.83306921" stroke-width="1.6" stroke-linecap="round" stroke-linejoin="round" style="-webkit-tap-highlight-color: rgba(0, 0, 0, 0); stroke-linecap: round; stroke-linejoin: round;" transform="matrix(1,0,0,1,363.7984,281.0048)"/>
    <text x="85.736" y="-73" text-anchor="middle" font="30px &quot;Arial&quot;" stroke="none" fill="#000000" style="-webkit-tap-highlight-color: rgba(0, 0, 0, 0); text-anchor: middle; font: 24px Arial;" font-size="24px" transform="matrix(1,0,0,1,363.7984,281.0048)">
      <tspan dy="8.5" style="-webkit-tap-highlight-color: rgba(0, 0, 0, 0);">Chiral</tspan>
    </text>
  </g>
</svg>
