<?xml version="1.0"?>
<svg xmlns="http://www.w3.org/2000/svg" height="276.1494962488601" version="1.1" width="524.5169072461885" style="overflow: hidden; position: relative;" viewBox="0 0 544 296">
  <g transform="translate(-147, -130)">
    <defs style="-webkit-tap-highlight-color: rgba(0, 0, 0, 0);"/>
    <text x="-173.2084072461885" y="30.002620760256814" text-anchor="middle" font="30px &quot;Arial&quot;" stroke="none" fill="#000000" style="-webkit-tap-highlight-color: rgba(0, 0, 0, 0); text-anchor: middle; font: 24px Arial;" font-size="24px" transform="matrix(1,0,0,1,359,270.6734)">
      <tspan dy="8.494808260256814" style="-webkit-tap-highlight-color: rgba(0, 0, 0, 0);">C</tspan>
    </text>
    <text x="-173.2084072461885" y="30.002620760256814" text-anchor="middle" font="30px &quot;Arial&quot;" stroke="none" fill="#000000" style="-webkit-tap-highlight-color: rgba(0, 0, 0, 0); text-anchor: middle; font: 24px Arial;" font-size="24px" transform="matrix(1,0,0,1,330.5875,270.6734)">
      <tspan dy="8.494808260256814" style="-webkit-tap-highlight-color: rgba(0, 0, 0, 0);">H</tspan>
    </text>
    <text x="-173.2084072461885" y="30.002620760256814" text-anchor="middle" font="30px &quot;Arial&quot;" stroke="none" fill="#000000" style="-webkit-tap-highlight-color: rgba(0, 0, 0, 0); text-anchor: middle; font: 17px Arial;" font-size="17px" transform="matrix(1,0,0,1,344.7937,276.0766)">
      <tspan dy="5.494808260256814" style="-webkit-tap-highlight-color: rgba(0, 0, 0, 0);">3</tspan>
    </text>
    <text x="-103.92310494107056" y="30.002620760256814" text-anchor="middle" font="30px &quot;Arial&quot;" stroke="none" fill="#000000" style="-webkit-tap-highlight-color: rgba(0, 0, 0, 0); text-anchor: middle; font: 24px Arial;" font-size="24px" transform="matrix(1,0,0,1,359,270.6734)">
      <tspan dy="8.494808260256814" style="-webkit-tap-highlight-color: rgba(0, 0, 0, 0);">O</tspan>
    </text>
    <text x="0" y="9.99764124234802" text-anchor="middle" font="30px &quot;Arial&quot;" stroke="none" fill="#000000" style="-webkit-tap-highlight-color: rgba(0, 0, 0, 0); text-anchor: middle; font: 24px Arial;" font-size="24px" transform="matrix(1,0,0,1,359,270.6734)">
      <tspan dy="8.50545374234802" style="-webkit-tap-highlight-color: rgba(0, 0, 0, 0);">N</tspan>
    </text>
    <text x="34.642651152558976" y="30.002620760256814" text-anchor="middle" font="30px &quot;Arial&quot;" stroke="none" fill="#000000" style="-webkit-tap-highlight-color: rgba(0, 0, 0, 0); text-anchor: middle; font: 24px Arial;" font-size="24px" transform="matrix(1,0,0,1,359,270.6734)">
      <tspan dy="8.494808260256814" style="-webkit-tap-highlight-color: rgba(0, 0, 0, 0);">S</tspan>
    </text>
    <text x="14.642520151256557" y="64.64042339620941" text-anchor="middle" font="30px &quot;Arial&quot;" stroke="none" fill="#000000" style="-webkit-tap-highlight-color: rgba(0, 0, 0, 0); text-anchor: middle; font: 24px Arial;" font-size="24px" transform="matrix(1,0,0,1,359,270.6734)">
      <tspan dy="8.507610896209414" style="-webkit-tap-highlight-color: rgba(0, 0, 0, 0);">O</tspan>
    </text>
    <text x="103.92310494107056" y="-9.99764124234802" text-anchor="middle" font="30px &quot;Arial&quot;" stroke="none" fill="#000000" style="-webkit-tap-highlight-color: rgba(0, 0, 0, 0); text-anchor: middle; font: 24px Arial;" font-size="24px" transform="matrix(1,0,0,1,359,270.6734)">
      <tspan dy="8.49454625765198" style="-webkit-tap-highlight-color: rgba(0, 0, 0, 0);">C</tspan>
    </text>
    <text x="103.92310494107056" y="-9.99764124234802" text-anchor="middle" font="30px &quot;Arial&quot;" stroke="none" fill="#000000" style="-webkit-tap-highlight-color: rgba(0, 0, 0, 0); text-anchor: middle; font: 24px Arial;" font-size="24px" transform="matrix(1,0,0,1,377.1438,270.6734)">
      <tspan dy="8.49454625765198" style="-webkit-tap-highlight-color: rgba(0, 0, 0, 0);">H</tspan>
    </text>
    <text x="103.92310494107056" y="-9.99764124234802" text-anchor="middle" font="30px &quot;Arial&quot;" stroke="none" fill="#000000" style="-webkit-tap-highlight-color: rgba(0, 0, 0, 0); text-anchor: middle; font: 17px Arial;" font-size="17px" transform="matrix(1,0,0,1,391.35,276.0766)">
      <tspan dy="5.4945462576519795" style="-webkit-tap-highlight-color: rgba(0, 0, 0, 0);">3</tspan>
    </text>
    <text x="173.2084072461885" y="109.99829624886011" text-anchor="middle" font="30px &quot;Arial&quot;" stroke="none" fill="#000000" style="-webkit-tap-highlight-color: rgba(0, 0, 0, 0); text-anchor: middle; font: 24px Arial;" font-size="24px" transform="matrix(1,0,0,1,359,270.6734)">
      <tspan dy="8.506108748860115" style="-webkit-tap-highlight-color: rgba(0, 0, 0, 0);">C</tspan>
    </text>
    <text x="173.2084072461885" y="109.99829624886011" text-anchor="middle" font="30px &quot;Arial&quot;" stroke="none" fill="#000000" style="-webkit-tap-highlight-color: rgba(0, 0, 0, 0); text-anchor: middle; font: 24px Arial;" font-size="24px" transform="matrix(1,0,0,1,377.1438,270.6734)">
      <tspan dy="8.506108748860115" style="-webkit-tap-highlight-color: rgba(0, 0, 0, 0);">H</tspan>
    </text>
    <text x="173.2084072461885" y="109.99829624886011" text-anchor="middle" font="30px &quot;Arial&quot;" stroke="none" fill="#000000" style="-webkit-tap-highlight-color: rgba(0, 0, 0, 0); text-anchor: middle; font: 17px Arial;" font-size="17px" transform="matrix(1,0,0,1,391.35,276.0766)">
      <tspan dy="5.506108748860115" style="-webkit-tap-highlight-color: rgba(0, 0, 0, 0);">3</tspan>
    </text>
    <text x="34.642651152558976" y="109.99829624886011" text-anchor="middle" font="30px &quot;Arial&quot;" stroke="none" fill="#000000" style="-webkit-tap-highlight-color: rgba(0, 0, 0, 0); text-anchor: middle; font: 24px Arial;" font-size="24px" transform="matrix(1,0,0,1,359,270.6734)">
      <tspan dy="8.506108748860115" style="-webkit-tap-highlight-color: rgba(0, 0, 0, 0);">C</tspan>
    </text>
    <text x="34.642651152558976" y="109.99829624886011" text-anchor="middle" font="30px &quot;Arial&quot;" stroke="none" fill="#000000" style="-webkit-tap-highlight-color: rgba(0, 0, 0, 0); text-anchor: middle; font: 24px Arial;" font-size="24px" transform="matrix(1,0,0,1,330.5875,270.6734)">
      <tspan dy="8.506108748860115" style="-webkit-tap-highlight-color: rgba(0, 0, 0, 0);">H</tspan>
    </text>
    <text x="34.642651152558976" y="109.99829624886011" text-anchor="middle" font="30px &quot;Arial&quot;" stroke="none" fill="#000000" style="-webkit-tap-highlight-color: rgba(0, 0, 0, 0); text-anchor: middle; font: 17px Arial;" font-size="17px" transform="matrix(1,0,0,1,344.7937,276.0766)">
      <tspan dy="5.506108748860115" style="-webkit-tap-highlight-color: rgba(0, 0, 0, 0);">3</tspan>
    </text>
    <text x="54.64278215386139" y="-4.640030392302161" text-anchor="middle" font="30px &quot;Arial&quot;" stroke="none" fill="#000000" style="-webkit-tap-highlight-color: rgba(0, 0, 0, 0); text-anchor: middle; font: 24px Arial;" font-size="24px" transform="matrix(1,0,0,1,359,270.6734)">
      <tspan dy="8.492782107697838" style="-webkit-tap-highlight-color: rgba(0, 0, 0, 0);">O</tspan>
    </text>
    <text x="-34.642651152558976" y="70.00288276286165" text-anchor="middle" font="30px &quot;Arial&quot;" stroke="none" fill="#000000" style="-webkit-tap-highlight-color: rgba(0, 0, 0, 0); text-anchor: middle; font: 24px Arial;" font-size="24px" transform="matrix(1,0,0,1,359,270.6734)">
      <tspan dy="8.495070262861645" style="-webkit-tap-highlight-color: rgba(0, 0, 0, 0);">C</tspan>
    </text>
    <text x="-34.642651152558976" y="70.00288276286165" text-anchor="middle" font="30px &quot;Arial&quot;" stroke="none" fill="#000000" style="-webkit-tap-highlight-color: rgba(0, 0, 0, 0); text-anchor: middle; font: 24px Arial;" font-size="24px" transform="matrix(1,0,0,1,377.1438,270.6734)">
      <tspan dy="8.495070262861645" style="-webkit-tap-highlight-color: rgba(0, 0, 0, 0);">H</tspan>
    </text>
    <text x="-34.642651152558976" y="70.00288276286165" text-anchor="middle" font="30px &quot;Arial&quot;" stroke="none" fill="#000000" style="-webkit-tap-highlight-color: rgba(0, 0, 0, 0); text-anchor: middle; font: 17px Arial;" font-size="17px" transform="matrix(1,0,0,1,391.35,276.0766)">
      <tspan dy="5.4950702628616455" style="-webkit-tap-highlight-color: rgba(0, 0, 0, 0);">3</tspan>
    </text>
    <text x="-138.56575609362952" y="-30.002620760256814" text-anchor="middle" font="30px &quot;Arial&quot;" stroke="none" fill="#000000" style="-webkit-tap-highlight-color: rgba(0, 0, 0, 0); text-anchor: middle; font: 24px Arial;" font-size="24px" transform="matrix(1,0,0,1,359,270.6734)">
      <tspan dy="8.505191739743186" style="-webkit-tap-highlight-color: rgba(0, 0, 0, 0);">O</tspan>
    </text>
    <path fill="none" stroke="#000000" d="M-161.7601085,23.39160878L-138.56575609,9.99764124" stroke-width="1.6" stroke-linecap="round" stroke-linejoin="round" style="-webkit-tap-highlight-color: rgba(0, 0, 0, 0); stroke-linecap: round; stroke-linejoin: round;" transform="matrix(1,0,0,1,359,270.6734)"/>
    <path fill="none" stroke="#000000" d="M-138.56575609,9.99764124L-116.0367665,23.00738387" stroke-width="1.6" stroke-linecap="round" stroke-linejoin="round" style="-webkit-tap-highlight-color: rgba(0, 0, 0, 0); stroke-linecap: round; stroke-linejoin: round;" transform="matrix(1,0,0,1,359,270.6734)"/>
    <path fill="none" stroke="#000000" d="M-91.8069835,23.00596337L-69.28045379,9.99764124" stroke-width="1.6" stroke-linecap="round" stroke-linejoin="round" style="-webkit-tap-highlight-color: rgba(0, 0, 0, 0); stroke-linecap: round; stroke-linejoin: round;" transform="matrix(1,0,0,1,359,270.6734)"/>
    <path fill="#000000" stroke="#000000" d="M-69.28045379,9.99764124L-64.61378712,-30.00262076L-73.94712046,-30.00262076Z" stroke-width="1.6" stroke-linecap="round" stroke-linejoin="round" style="-webkit-tap-highlight-color: rgba(0, 0, 0, 0); stroke-linecap: round; stroke-linejoin: round;" transform="matrix(1,0,0,1,359,270.6734)"/>
    <path fill="none" stroke="#000000" d="M-69.28068707,-37.70068081L-97.25643827,-53.85183178M-69.28045379,-30.00262076L-103.92310494,-50.00275176" stroke-width="1.6" stroke-linecap="round" stroke-linejoin="round" style="-webkit-tap-highlight-color: rgba(0, 0, 0, 0); stroke-linecap: round; stroke-linejoin: round;" transform="matrix(1,0,0,1,359,270.6734)"/>
    <path fill="none" stroke="#000000" d="M-103.92310494,-50.00275176L-103.92310494,-90.00301376" stroke-width="1.6" stroke-linecap="round" stroke-linejoin="round" style="-webkit-tap-highlight-color: rgba(0, 0, 0, 0); stroke-linecap: round; stroke-linejoin: round;" transform="matrix(1,0,0,1,359,270.6734)"/>
    <path fill="none" stroke="#000000" d="M-97.25643827,-86.15346716L-69.28068703,-102.30070273M-103.92310494,-90.00301376L-69.28045379,-109.99829625" stroke-width="1.6" stroke-linecap="round" stroke-linejoin="round" style="-webkit-tap-highlight-color: rgba(0, 0, 0, 0); stroke-linecap: round; stroke-linejoin: round;" transform="matrix(1,0,0,1,359,270.6734)"/>
    <path fill="none" stroke="#000000" d="M-69.28045379,-109.99829625L-34.64265115,-90.00301376" stroke-width="1.6" stroke-linecap="round" stroke-linejoin="round" style="-webkit-tap-highlight-color: rgba(0, 0, 0, 0); stroke-linecap: round; stroke-linejoin: round;" transform="matrix(1,0,0,1,359,270.6734)"/>
    <path fill="none" stroke="#000000" d="M-41.30931782,-86.15373651L-41.30931782,-53.85156241M-34.64265115,-90.00301376L-34.64265115,-50.00275176" stroke-width="1.6" stroke-linecap="round" stroke-linejoin="round" style="-webkit-tap-highlight-color: rgba(0, 0, 0, 0); stroke-linecap: round; stroke-linejoin: round;" transform="matrix(1,0,0,1,359,270.6734)"/>
    <path fill="none" stroke="#000000" d="M-69.28045379,-30.00262076L-34.64265115,-50.00275176" stroke-width="1.6" stroke-linecap="round" stroke-linejoin="round" style="-webkit-tap-highlight-color: rgba(0, 0, 0, 0); stroke-linecap: round; stroke-linejoin: round;" transform="matrix(1,0,0,1,359,270.6734)"/>
    <path fill="none" stroke="#000000" d="M-69.28045379,9.99764124L-34.64265115,30.00262076" stroke-width="1.6" stroke-linecap="round" stroke-linejoin="round" style="-webkit-tap-highlight-color: rgba(0, 0, 0, 0); stroke-linecap: round; stroke-linejoin: round;" transform="matrix(1,0,0,1,359,270.6734)"/>
    <path fill="none" stroke="#000000" d="M-34.64265115,30.00262076L-11.4430165,16.6056029" stroke-width="1.6" stroke-linecap="round" stroke-linejoin="round" style="-webkit-tap-highlight-color: rgba(0, 0, 0, 0); stroke-linecap: round; stroke-linejoin: round;" transform="matrix(1,0,0,1,359,270.6734)"/>
    <path fill="none" stroke="#000000" d="M0,-6.7L0,-30.00262076" stroke-width="1.6" stroke-linecap="round" stroke-linejoin="round" style="-webkit-tap-highlight-color: rgba(0, 0, 0, 0); stroke-linecap: round; stroke-linejoin: round;" transform="matrix(1,0,0,1,359,270.6734)"/>
    <path fill="none" stroke="#000000" d="M0,-30.00262076L34.64265115,-50.00275176" stroke-width="1.6" stroke-linecap="round" stroke-linejoin="round" style="-webkit-tap-highlight-color: rgba(0, 0, 0, 0); stroke-linecap: round; stroke-linejoin: round;" transform="matrix(1,0,0,1,359,270.6734)"/>
    <path fill="none" stroke="#000000" d="M41.30931782,-53.85156241L41.30931782,-86.15373651M34.64265115,-50.00275176L34.64265115,-90.00301376" stroke-width="1.6" stroke-linecap="round" stroke-linejoin="round" style="-webkit-tap-highlight-color: rgba(0, 0, 0, 0); stroke-linecap: round; stroke-linejoin: round;" transform="matrix(1,0,0,1,359,270.6734)"/>
    <path fill="none" stroke="#000000" d="M34.64265115,-90.00301376L69.28045379,-109.99829625" stroke-width="1.6" stroke-linecap="round" stroke-linejoin="round" style="-webkit-tap-highlight-color: rgba(0, 0, 0, 0); stroke-linecap: round; stroke-linejoin: round;" transform="matrix(1,0,0,1,359,270.6734)"/>
    <path fill="none" stroke="#000000" d="M69.28068703,-102.30070273L97.25643827,-86.15346716M69.28045379,-109.99829625L103.92310494,-90.00301376" stroke-width="1.6" stroke-linecap="round" stroke-linejoin="round" style="-webkit-tap-highlight-color: rgba(0, 0, 0, 0); stroke-linecap: round; stroke-linejoin: round;" transform="matrix(1,0,0,1,359,270.6734)"/>
    <path fill="none" stroke="#000000" d="M103.92310494,-90.00301376L103.92310494,-50.00275176" stroke-width="1.6" stroke-linecap="round" stroke-linejoin="round" style="-webkit-tap-highlight-color: rgba(0, 0, 0, 0); stroke-linecap: round; stroke-linejoin: round;" transform="matrix(1,0,0,1,359,270.6734)"/>
    <path fill="none" stroke="#000000" d="M97.25643827,-53.85183178L69.28068707,-37.70068081M103.92310494,-50.00275176L69.28045379,-30.00262076" stroke-width="1.6" stroke-linecap="round" stroke-linejoin="round" style="-webkit-tap-highlight-color: rgba(0, 0, 0, 0); stroke-linecap: round; stroke-linejoin: round;" transform="matrix(1,0,0,1,359,270.6734)"/>
    <path fill="none" stroke="#000000" d="M34.64265115,-50.00275176L69.28045379,-30.00262076" stroke-width="1.6" stroke-linecap="round" stroke-linejoin="round" style="-webkit-tap-highlight-color: rgba(0, 0, 0, 0); stroke-linecap: round; stroke-linejoin: round;" transform="matrix(1,0,0,1,359,270.6734)"/>
    <path fill="none" stroke="#000000" d="M11.4430165,16.6056029L23.8538585,23.77245162" stroke-width="1.6" stroke-linecap="round" stroke-linejoin="round" style="-webkit-tap-highlight-color: rgba(0, 0, 0, 0); stroke-linecap: round; stroke-linejoin: round;" transform="matrix(1,0,0,1,359,270.6734)"/>
    <path fill="none" stroke="#000000" d="M22.36236275,44.60442166L21.15084607,46.7026217M28.13572208,47.9380033L26.92420539,50.03620334" stroke-width="1.6" stroke-linecap="round" stroke-linejoin="round" style="-webkit-tap-highlight-color: rgba(0, 0, 0, 0); stroke-linecap: round; stroke-linejoin: round;" transform="matrix(1,0,0,1,359,270.6734)"/>
    <path fill="none" stroke="#000000" d="M45.42746248,36.22985294L69.28045379,50.00275176" stroke-width="1.6" stroke-linecap="round" stroke-linejoin="round" style="-webkit-tap-highlight-color: rgba(0, 0, 0, 0); stroke-linecap: round; stroke-linejoin: round;" transform="matrix(1,0,0,1,359,270.6734)"/>
    <path fill="none" stroke="#000000" d="M69.28045379,50.00275176L103.92310494,30.00262076" stroke-width="1.6" stroke-linecap="round" stroke-linejoin="round" style="-webkit-tap-highlight-color: rgba(0, 0, 0, 0); stroke-linecap: round; stroke-linejoin: round;" transform="matrix(1,0,0,1,359,270.6734)"/>
    <path fill="none" stroke="#000000" d="M103.92310494,30.00262076L103.92310494,6.7" stroke-width="1.6" stroke-linecap="round" stroke-linejoin="round" style="-webkit-tap-highlight-color: rgba(0, 0, 0, 0); stroke-linecap: round; stroke-linejoin: round;" transform="matrix(1,0,0,1,359,270.6734)"/>
    <path fill="none" stroke="#000000" d="M103.92310494,37.70054613L131.89908943,53.85183178M103.92310494,30.00262076L138.56575609,50.00275176" stroke-width="1.6" stroke-linecap="round" stroke-linejoin="round" style="-webkit-tap-highlight-color: rgba(0, 0, 0, 0); stroke-linecap: round; stroke-linejoin: round;" transform="matrix(1,0,0,1,359,270.6734)"/>
    <path fill="none" stroke="#000000" d="M138.56575609,50.00275176L138.56575609,90.00301376" stroke-width="1.6" stroke-linecap="round" stroke-linejoin="round" style="-webkit-tap-highlight-color: rgba(0, 0, 0, 0); stroke-linecap: round; stroke-linejoin: round;" transform="matrix(1,0,0,1,359,270.6734)"/>
    <path fill="none" stroke="#000000" d="M138.56575609,90.00301376L161.7597726,103.39029495" stroke-width="1.6" stroke-linecap="round" stroke-linejoin="round" style="-webkit-tap-highlight-color: rgba(0, 0, 0, 0); stroke-linecap: round; stroke-linejoin: round;" transform="matrix(1,0,0,1,359,270.6734)"/>
    <path fill="none" stroke="#000000" d="M131.89908943,86.15346716L103.92310494,102.30083735M138.56575609,90.00301376L103.92310494,109.99829625" stroke-width="1.6" stroke-linecap="round" stroke-linejoin="round" style="-webkit-tap-highlight-color: rgba(0, 0, 0, 0); stroke-linecap: round; stroke-linejoin: round;" transform="matrix(1,0,0,1,359,270.6734)"/>
    <path fill="none" stroke="#000000" d="M69.28045379,50.00275176L69.28045379,90.00301376M75.94712046,53.85183178L75.94712046,86.15346716" stroke-width="1.6" stroke-linecap="round" stroke-linejoin="round" style="-webkit-tap-highlight-color: rgba(0, 0, 0, 0); stroke-linecap: round; stroke-linejoin: round;" transform="matrix(1,0,0,1,359,270.6734)"/>
    <path fill="none" stroke="#000000" d="M103.92310494,109.99829625L69.28045379,90.00301376" stroke-width="1.6" stroke-linecap="round" stroke-linejoin="round" style="-webkit-tap-highlight-color: rgba(0, 0, 0, 0); stroke-linecap: round; stroke-linejoin: round;" transform="matrix(1,0,0,1,359,270.6734)"/>
    <path fill="none" stroke="#000000" d="M69.28045379,90.00301376L46.08388045,103.39364485" stroke-width="1.6" stroke-linecap="round" stroke-linejoin="round" style="-webkit-tap-highlight-color: rgba(0, 0, 0, 0); stroke-linecap: round; stroke-linejoin: round;" transform="matrix(1,0,0,1,359,270.6734)"/>
    <path fill="none" stroke="#000000" d="M46.93382865,15.37968141L48.13604307,13.29730031M41.16026729,12.04644969L42.36248171,9.96406859" stroke-width="1.6" stroke-linecap="round" stroke-linejoin="round" style="-webkit-tap-highlight-color: rgba(0, 0, 0, 0); stroke-linecap: round; stroke-linejoin: round;" transform="matrix(1,0,0,1,359,270.6734)"/>
    <path fill="none" stroke="#000000" d="M-34.95376226,30.00262076L-34.33154004,30.00262076M-35.57598449,33.35715708L-33.70931782,33.35715708M-36.19820671,36.7116934L-33.0870956,36.7116934M-36.82042893,40.06622972L-32.46487337,40.06622972M-37.44265115,43.42076604L-31.84265115,43.42076604M-38.06487337,46.77530236L-31.22042893,46.77530236M-38.6870956,50.12983868L-30.59820671,50.12983868M-39.30931782,53.484375L-29.97598449,53.484375" stroke-width="1.6" stroke-linecap="round" stroke-linejoin="round" style="-webkit-tap-highlight-color: rgba(0, 0, 0, 0); stroke-linecap: round; stroke-linejoin: round;" transform="matrix(1,0,0,1,359,270.6734)"/>
    <path fill="none" stroke="#000000" d="M-135.23242276,9.99764124L-135.23242276,-13.284375M-141.89908943,9.99764124L-141.89908943,-13.284375" stroke-width="1.6" stroke-linecap="round" stroke-linejoin="round" style="-webkit-tap-highlight-color: rgba(0, 0, 0, 0); stroke-linecap: round; stroke-linejoin: round;" transform="matrix(1,0,0,1,359,270.6734)"/>
    <text x="142.89600000000002" y="-130.748" text-anchor="middle" font="30px &quot;Arial&quot;" stroke="none" fill="#000000" style="-webkit-tap-highlight-color: rgba(0, 0, 0, 0); text-anchor: middle; font: 24px Arial;" font-size="24px" transform="matrix(1,0,0,1,359,270.6734)">
      <tspan dy="8.49418750000001" style="-webkit-tap-highlight-color: rgba(0, 0, 0, 0);">Chiral</tspan>
    </text>
  </g>
</svg>
