<?xml version="1.0"?>
<svg xmlns="http://www.w3.org/2000/svg" height="137.54541042915767" version="1.1" width="332.5994996" style="overflow: hidden; position: relative;" viewBox="0 0 352 157">
  <g transform="translate(-247, -199)">
    <defs style="-webkit-tap-highlight-color: rgba(0, 0, 0, 0);"/>
    <text x="83.61549959579281" y="34.050310429157655" text-anchor="middle" font="30px &quot;Arial&quot;" stroke="none" fill="#000000" style="-webkit-tap-highlight-color: rgba(0, 0, 0, 0); text-anchor: middle; font: 24px Arial;" font-size="24px" transform="matrix(1,0,0,1,340.4984,277.3297)">
      <tspan dy="8.495622929157655" style="-webkit-tap-highlight-color: rgba(0, 0, 0, 0);">C</tspan>
    </text>
    <text x="83.61549959579281" y="34.050310429157655" text-anchor="middle" font="30px &quot;Arial&quot;" stroke="none" fill="#000000" style="-webkit-tap-highlight-color: rgba(0, 0, 0, 0); text-anchor: middle; font: 24px Arial;" font-size="24px" transform="matrix(1,0,0,1,358.6266,277.3297)">
      <tspan dy="8.495622929157655" style="-webkit-tap-highlight-color: rgba(0, 0, 0, 0);">H</tspan>
    </text>
    <text x="83.61549959579281" y="34.050310429157655" text-anchor="middle" font="30px &quot;Arial&quot;" stroke="none" fill="#000000" style="-webkit-tap-highlight-color: rgba(0, 0, 0, 0); text-anchor: middle; font: 17px Arial;" font-size="17px" transform="matrix(1,0,0,1,372.8172,282.7328)">
      <tspan dy="5.495622929157655" style="-webkit-tap-highlight-color: rgba(0, 0, 0, 0);">3</tspan>
    </text>
    <text x="48.973684414768826" y="14.050662056628063" text-anchor="middle" font="30px &quot;Arial&quot;" stroke="none" fill="#000000" style="-webkit-tap-highlight-color: rgba(0, 0, 0, 0); text-anchor: middle; font: 24px Arial;" font-size="24px" transform="matrix(1,0,0,1,340.4984,277.3297)">
      <tspan dy="8.495974556628063" style="-webkit-tap-highlight-color: rgba(0, 0, 0, 0);">O</tspan>
    </text>
    <text x="-56.84748537403866" y="30.31704273295213" text-anchor="middle" font="30px &quot;Arial&quot;" stroke="none" fill="#000000" style="-webkit-tap-highlight-color: rgba(0, 0, 0, 0); text-anchor: middle; font: 24px Arial;" font-size="24px" transform="matrix(1,0,0,1,340.4984,277.3297)">
      <tspan dy="8.496730232952132" style="-webkit-tap-highlight-color: rgba(0, 0, 0, 0);">N</tspan>
    </text>
    <text x="-56.84748537403866" y="30.31704273295213" text-anchor="middle" font="30px &quot;Arial&quot;" stroke="none" fill="#000000" style="-webkit-tap-highlight-color: rgba(0, 0, 0, 0); text-anchor: middle; font: 24px Arial;" font-size="24px" transform="matrix(1,0,0,1,322.3547,277.3297)">
      <tspan dy="8.496730232952132" style="-webkit-tap-highlight-color: rgba(0, 0, 0, 0);">H</tspan>
    </text>
    <path fill="none" stroke="#000000" d="M72.18181555,27.44933818L61.08380945,21.04216182" stroke-width="1.6" stroke-linecap="round" stroke-linejoin="round" style="-webkit-tap-highlight-color: rgba(0, 0, 0, 0); stroke-linecap: round; stroke-linejoin: round;" transform="matrix(1,0,0,1,340.4984,277.3297)"/>
    <path fill="none" stroke="#000000" d="M36.86931555,21.03883862L14.33186923,34.05031043" stroke-width="1.6" stroke-linecap="round" stroke-linejoin="round" style="-webkit-tap-highlight-color: rgba(0, 0, 0, 0); stroke-linecap: round; stroke-linejoin: round;" transform="matrix(1,0,0,1,340.4984,277.3297)"/>
    <path fill="none" stroke="#000000" d="M-20.41139213,14.22637914L-20.20849976,13.87494497M-17.44928249,16.4050538L-16.8406054,15.35075129M-14.48717286,18.58372845L-13.47271103,16.8265576M-11.52506322,20.7624031L-10.10481666,18.30236391M-8.56295358,22.94107776L-6.7369223,19.77817023M-5.60084395,25.11975241L-3.36902793,21.25397654M-2.63873431,27.29842706L-0.00113356,22.72978286M0.32337533,29.47710172L3.36676081,24.20558917M3.28548496,31.65577637L6.73465517,25.68139549M6.2475946,33.83445102L10.10254954,27.1572018M9.20970424,36.01312568L13.47044391,28.63300811M12.17181387,38.19180033L16.83833828,30.10881443" stroke-width="1.6" stroke-linecap="round" stroke-linejoin="round" style="-webkit-tap-highlight-color: rgba(0, 0, 0, 0); stroke-linecap: round; stroke-linejoin: round;" transform="matrix(1,0,0,1,340.4984,277.3297)"/>
    <path fill="none" stroke="#000000" d="M-20.30994595,14.05066206L-45.24849446,25.15321384" stroke-width="1.6" stroke-linecap="round" stroke-linejoin="round" style="-webkit-tap-highlight-color: rgba(0, 0, 0, 0); stroke-linecap: round; stroke-linejoin: round;" transform="matrix(1,0,0,1,340.4984,277.3297)"/>
    <path fill="none" stroke="#000000" d="M-71.14975344,14.43455668L-83.6154996,0.59150475" stroke-width="1.6" stroke-linecap="round" stroke-linejoin="round" style="-webkit-tap-highlight-color: rgba(0, 0, 0, 0); stroke-linecap: round; stroke-linejoin: round;" transform="matrix(1,0,0,1,340.4984,277.3297)"/>
    <path fill="none" stroke="#000000" d="M-83.6154996,0.59150475L-63.61585122,-34.05031043" stroke-width="1.6" stroke-linecap="round" stroke-linejoin="round" style="-webkit-tap-highlight-color: rgba(0, 0, 0, 0); stroke-linecap: round; stroke-linejoin: round;" transform="matrix(1,0,0,1,340.4984,277.3297)"/>
    <path fill="none" stroke="#000000" d="M-63.61585122,-34.05031043L-24.48926641,-25.73045671" stroke-width="1.6" stroke-linecap="round" stroke-linejoin="round" style="-webkit-tap-highlight-color: rgba(0, 0, 0, 0); stroke-linecap: round; stroke-linejoin: round;" transform="matrix(1,0,0,1,340.4984,277.3297)"/>
    <path fill="none" stroke="#000000" d="M-20.30994595,14.05066206L-24.48926641,-25.73045671" stroke-width="1.6" stroke-linecap="round" stroke-linejoin="round" style="-webkit-tap-highlight-color: rgba(0, 0, 0, 0); stroke-linecap: round; stroke-linejoin: round;" transform="matrix(1,0,0,1,340.4984,277.3297)"/>
    <text x="68.984" y="-68.09200000000001" text-anchor="middle" font="30px &quot;Arial&quot;" stroke="none" fill="#000000" style="-webkit-tap-highlight-color: rgba(0, 0, 0, 0); text-anchor: middle; font: 24px Arial;" font-size="24px" transform="matrix(1,0,0,1,340.4984,277.3297)">
      <tspan dy="8.493937499999987" style="-webkit-tap-highlight-color: rgba(0, 0, 0, 0);">Chiral</tspan>
    </text>
  </g>
</svg>
