
<svg version="1.1" id="topsvg" xmlns="http://www.w3.org/2000/svg" x="0" y="0" width="200px" height="200px" viewBox="0 0 100 100" xmlns:xlink="http://www.w3.org/1999/xlink">
<title> - Open Babel Depiction</title>
<rect x="0" y="0" width="100" height="100" fill="white"></rect>
<g transform="translate(0,0)">
<svg width="100" height="100" x="0" y="0" viewBox="0 0 357.13 260.001" font-family="sans-serif" stroke="#000000" stroke-width="2" stroke-linecap="round">
<line x1="178.6" y1="80.0" x2="178.6" y2="53.0" opacity="1.0" stroke="#000000" stroke-width="2.0"></line>
<line x1="143.9" y1="140.0" x2="109.3" y2="160.0" opacity="1.0" stroke="#000000" stroke-width="2.0"></line>
<line x1="213.2" y1="140.0" x2="247.8" y2="160.0" opacity="1.0" stroke="#000000" stroke-width="2.0"></line>
<line x1="213.2" y1="100.0" x2="213.2" y2="140.0" opacity="1.0" stroke="#000000" stroke-width="2.0"></line>
<line x1="206.0" y1="106.0" x2="206.0" y2="134.0" opacity="1.0" stroke="#000000" stroke-width="2.0"></line>
<line x1="213.2" y1="140.0" x2="189.8" y2="153.5" opacity="1.0" stroke="#000000" stroke-width="2.0"></line>
<line x1="167.1" y1="153.4" x2="143.9" y2="140.0" opacity="1.0" stroke="#000000" stroke-width="2.0"></line>
<line x1="169.0" y1="146.2" x2="152.7" y2="136.8" opacity="1.0" stroke="#000000" stroke-width="2.0"></line>
<line x1="143.9" y1="140.0" x2="143.9" y2="100.0" opacity="1.0" stroke="#000000" stroke-width="2.0"></line>
<line x1="143.9" y1="100.0" x2="178.6" y2="80.0" opacity="1.0" stroke="#000000" stroke-width="2.0"></line>
<line x1="152.7" y1="103.2" x2="177.0" y2="89.2" opacity="1.0" stroke="#000000" stroke-width="2.0"></line>
<line x1="178.6" y1="80.0" x2="213.2" y2="100.0" opacity="1.0" stroke="#000000" stroke-width="2.0"></line>
<line x1="109.3" y1="200.0" x2="74.6" y2="220.0" opacity="1.0" stroke="#000000" stroke-width="2.0"></line>
<line x1="100.5" y1="196.8" x2="76.2" y2="210.8" opacity="1.0" stroke="#000000" stroke-width="2.0"></line>
<line x1="74.6" y1="220.0" x2="40.0" y2="200.0" opacity="1.0" stroke="#000000" stroke-width="2.0"></line>
<line x1="40.0" y1="200.0" x2="40.0" y2="160.0" opacity="1.0" stroke="#000000" stroke-width="2.0"></line>
<line x1="47.2" y1="194.0" x2="47.2" y2="166.0" opacity="1.0" stroke="#000000" stroke-width="2.0"></line>
<line x1="40.0" y1="160.0" x2="74.6" y2="140.0" opacity="1.0" stroke="#000000" stroke-width="2.0"></line>
<line x1="74.6" y1="140.0" x2="109.3" y2="160.0" opacity="1.0" stroke="#000000" stroke-width="2.0"></line>
<line x1="76.2" y1="149.2" x2="100.5" y2="163.2" opacity="1.0" stroke="#000000" stroke-width="2.0"></line>
<line x1="109.3" y1="160.0" x2="109.3" y2="200.0" opacity="1.0" stroke="#000000" stroke-width="2.0"></line>
<line x1="282.5" y1="140.0" x2="317.1" y2="160.0" opacity="1.0" stroke="#000000" stroke-width="2.0"></line>
<line x1="284.1" y1="149.2" x2="308.3" y2="163.2" opacity="1.0" stroke="#000000" stroke-width="2.0"></line>
<line x1="317.1" y1="160.0" x2="317.1" y2="200.0" opacity="1.0" stroke="#000000" stroke-width="2.0"></line>
<line x1="317.1" y1="200.0" x2="282.5" y2="220.0" opacity="1.0" stroke="#000000" stroke-width="2.0"></line>
<line x1="308.3" y1="196.8" x2="284.1" y2="210.8" opacity="1.0" stroke="#000000" stroke-width="2.0"></line>
<line x1="282.5" y1="220.0" x2="247.8" y2="200.0" opacity="1.0" stroke="#000000" stroke-width="2.0"></line>
<line x1="247.8" y1="200.0" x2="247.8" y2="160.0" opacity="1.0" stroke="#000000" stroke-width="2.0"></line>
<line x1="255.0" y1="194.0" x2="255.0" y2="166.0" opacity="1.0" stroke="#000000" stroke-width="2.0"></line>
<line x1="247.8" y1="160.0" x2="282.5" y2="140.0" opacity="1.0" stroke="#000000" stroke-width="2.0"></line>
<text x="172.565066" y="48.000000" fill="#000000" stroke="#000000" stroke-width="1" font-size="16">Cl</text>
<text x="172.565066" y="168.000923" fill="#000000" stroke="#000000" stroke-width="1" font-size="16">N</text>
</svg>
</g>
</svg>
