<?xml version="1.0"?>
<svg xmlns="http://www.w3.org/2000/svg" height="289.9937733048596" version="1.1" width="381.05010130000005" style="overflow: hidden; position: relative;" viewBox="0 0 401 309">
  <g transform="translate(-158, -114)">
    <defs style="-webkit-tap-highlight-color: rgba(0, 0, 0, 0);"/>
    <text x="-5.357547357661488" y="70.00205316734532" text-anchor="middle" font="30px &quot;Arial&quot;" stroke="none" fill="#000000" style="-webkit-tap-highlight-color: rgba(0, 0, 0, 0); text-anchor: middle; font: 24px Arial;" font-size="24px" transform="matrix(1,0,0,1,359,254.2406)">
      <tspan dy="8.494240667345323" style="-webkit-tap-highlight-color: rgba(0, 0, 0, 0);">H</tspan>
    </text>
    <text x="34.642240606779495" y="70.00205316734532" text-anchor="middle" font="30px &quot;Arial&quot;" stroke="none" fill="#000000" style="-webkit-tap-highlight-color: rgba(0, 0, 0, 0); text-anchor: middle; font: 24px Arial;" font-size="24px" transform="matrix(1,0,0,1,359,254.2406)">
      <tspan dy="8.494240667345323" style="-webkit-tap-highlight-color: rgba(0, 0, 0, 0);">Cl</tspan>
    </text>
    <text x="-5.357547357661488" y="109.99699267263908" text-anchor="middle" font="30px &quot;Arial&quot;" stroke="none" fill="#000000" style="-webkit-tap-highlight-color: rgba(0, 0, 0, 0); text-anchor: middle; font: 24px Arial;" font-size="24px" transform="matrix(1,0,0,1,359,254.2406)">
      <tspan dy="8.504805172639081" style="-webkit-tap-highlight-color: rgba(0, 0, 0, 0);">H</tspan>
    </text>
    <text x="34.642240606779495" y="109.99699267263908" text-anchor="middle" font="30px &quot;Arial&quot;" stroke="none" fill="#000000" style="-webkit-tap-highlight-color: rgba(0, 0, 0, 0); text-anchor: middle; font: 24px Arial;" font-size="24px" transform="matrix(1,0,0,1,359,254.2406)">
      <tspan dy="8.504805172639081" style="-webkit-tap-highlight-color: rgba(0, 0, 0, 0);">Cl</tspan>
    </text>
    <text x="74.64202857122048" y="70.00205316734532" text-anchor="middle" font="30px &quot;Arial&quot;" stroke="none" fill="#000000" style="-webkit-tap-highlight-color: rgba(0, 0, 0, 0); text-anchor: middle; font: 24px Arial;" font-size="24px" transform="matrix(1,0,0,1,359,254.2406)">
      <tspan dy="8.494240667345323" style="-webkit-tap-highlight-color: rgba(0, 0, 0, 0);">H</tspan>
    </text>
    <text x="114.64181653566145" y="70.00205316734532" text-anchor="middle" font="30px &quot;Arial&quot;" stroke="none" fill="#000000" style="-webkit-tap-highlight-color: rgba(0, 0, 0, 0); text-anchor: middle; font: 24px Arial;" font-size="24px" transform="matrix(1,0,0,1,359,254.2406)">
      <tspan dy="8.494240667345323" style="-webkit-tap-highlight-color: rgba(0, 0, 0, 0);">Cl</tspan>
    </text>
    <text x="74.64202857122048" y="109.99699267263908" text-anchor="middle" font="30px &quot;Arial&quot;" stroke="none" fill="#000000" style="-webkit-tap-highlight-color: rgba(0, 0, 0, 0); text-anchor: middle; font: 24px Arial;" font-size="24px" transform="matrix(1,0,0,1,359,254.2406)">
      <tspan dy="8.504805172639081" style="-webkit-tap-highlight-color: rgba(0, 0, 0, 0);">H</tspan>
    </text>
    <text x="114.64181653566145" y="109.99699267263908" text-anchor="middle" font="30px &quot;Arial&quot;" stroke="none" fill="#000000" style="-webkit-tap-highlight-color: rgba(0, 0, 0, 0); text-anchor: middle; font: 24px Arial;" font-size="24px" transform="matrix(1,0,0,1,359,254.2406)">
      <tspan dy="8.504805172639081" style="-webkit-tap-highlight-color: rgba(0, 0, 0, 0);">Cl</tspan>
    </text>
    <text x="-114.64181653566145" y="70.00205316734532" text-anchor="middle" font="30px &quot;Arial&quot;" stroke="none" fill="#000000" style="-webkit-tap-highlight-color: rgba(0, 0, 0, 0); text-anchor: middle; font: 24px Arial;" font-size="24px" transform="matrix(1,0,0,1,359,254.2406)">
      <tspan dy="8.494240667345323" style="-webkit-tap-highlight-color: rgba(0, 0, 0, 0);">H</tspan>
    </text>
    <text x="-79.99957592888195" y="50.00215918512484" text-anchor="middle" font="30px &quot;Arial&quot;" stroke="none" fill="#000000" style="-webkit-tap-highlight-color: rgba(0, 0, 0, 0); text-anchor: middle; font: 24px Arial;" font-size="24px" transform="matrix(1,0,0,1,359,254.2406)">
      <tspan dy="8.494346685124839" style="-webkit-tap-highlight-color: rgba(0, 0, 0, 0);">O</tspan>
    </text>
    <text x="-45.35733532210247" y="70.00205316734532" text-anchor="middle" font="30px &quot;Arial&quot;" stroke="none" fill="#000000" style="-webkit-tap-highlight-color: rgba(0, 0, 0, 0); text-anchor: middle; font: 24px Arial;" font-size="24px" transform="matrix(1,0,0,1,359,254.2406)">
      <tspan dy="8.494240667345323" style="-webkit-tap-highlight-color: rgba(0, 0, 0, 0);">H</tspan>
    </text>
    <text x="-114.64181653566145" y="129.9968866548596" text-anchor="middle" font="30px &quot;Arial&quot;" stroke="none" fill="#000000" style="-webkit-tap-highlight-color: rgba(0, 0, 0, 0); text-anchor: middle; font: 24px Arial;" font-size="24px" transform="matrix(1,0,0,1,359,254.2406)">
      <tspan dy="8.504699154859594" style="-webkit-tap-highlight-color: rgba(0, 0, 0, 0);">H</tspan>
    </text>
    <text x="-79.99957592888195" y="109.99699267263908" text-anchor="middle" font="30px &quot;Arial&quot;" stroke="none" fill="#000000" style="-webkit-tap-highlight-color: rgba(0, 0, 0, 0); text-anchor: middle; font: 24px Arial;" font-size="24px" transform="matrix(1,0,0,1,359,254.2406)">
      <tspan dy="8.504805172639081" style="-webkit-tap-highlight-color: rgba(0, 0, 0, 0);">O</tspan>
    </text>
    <text x="-45.35733532210247" y="129.9968866548596" text-anchor="middle" font="30px &quot;Arial&quot;" stroke="none" fill="#000000" style="-webkit-tap-highlight-color: rgba(0, 0, 0, 0); text-anchor: middle; font: 24px Arial;" font-size="24px" transform="matrix(1,0,0,1,359,254.2406)">
      <tspan dy="8.504699154859594" style="-webkit-tap-highlight-color: rgba(0, 0, 0, 0);">H</tspan>
    </text>
    <text x="-51.960936680595644" y="-50.00215918512484" text-anchor="middle" font="30px &quot;Arial&quot;" stroke="none" fill="#000000" style="-webkit-tap-highlight-color: rgba(0, 0, 0, 0); text-anchor: middle; font: 24px Arial;" font-size="24px" transform="matrix(1,0,0,1,359,254.2406)">
      <tspan dy="8.505653314875161" style="-webkit-tap-highlight-color: rgba(0, 0, 0, 0);">N</tspan>
    </text>
    <text x="-51.960936680595644" y="-50.00215918512484" text-anchor="middle" font="30px &quot;Arial&quot;" stroke="none" fill="#000000" style="-webkit-tap-highlight-color: rgba(0, 0, 0, 0); text-anchor: middle; font: 24px Arial;" font-size="24px" transform="matrix(1,0,0,1,340.8406,254.2406)">
      <tspan dy="8.505653314875161" style="-webkit-tap-highlight-color: rgba(0, 0, 0, 0);">H</tspan>
    </text>
    <text x="51.960936680595644" y="-70.00205316734532" text-anchor="middle" font="30px &quot;Arial&quot;" stroke="none" fill="#000000" style="-webkit-tap-highlight-color: rgba(0, 0, 0, 0); text-anchor: middle; font: 24px Arial;" font-size="24px" transform="matrix(1,0,0,1,359,254.2406)">
      <tspan dy="8.505759332654677" style="-webkit-tap-highlight-color: rgba(0, 0, 0, 0);">N</tspan>
    </text>
    <text x="51.960936680595644" y="-70.00205316734532" text-anchor="middle" font="30px &quot;Arial&quot;" stroke="none" fill="#000000" style="-webkit-tap-highlight-color: rgba(0, 0, 0, 0); text-anchor: middle; font: 24px Arial;" font-size="24px" transform="matrix(1,0,0,1,377.1594,254.2406)">
      <tspan dy="8.505759332654677" style="-webkit-tap-highlight-color: rgba(0, 0, 0, 0);">H</tspan>
    </text>
    <text x="121.24056943500742" y="-109.99699267263908" text-anchor="middle" font="30px &quot;Arial&quot;" stroke="none" fill="#000000" style="-webkit-tap-highlight-color: rgba(0, 0, 0, 0); text-anchor: middle; font: 24px Arial;" font-size="24px" transform="matrix(1,0,0,1,359,254.2406)">
      <tspan dy="8.495194827360919" style="-webkit-tap-highlight-color: rgba(0, 0, 0, 0);">N</tspan>
    </text>
    <text x="-121.24056943500742" y="-9.997522761536642" text-anchor="middle" font="30px &quot;Arial&quot;" stroke="none" fill="#000000" style="-webkit-tap-highlight-color: rgba(0, 0, 0, 0); text-anchor: middle; font: 24px Arial;" font-size="24px" transform="matrix(1,0,0,1,359,254.2406)">
      <tspan dy="8.494664738463358" style="-webkit-tap-highlight-color: rgba(0, 0, 0, 0);">N</tspan>
    </text>
    <path fill="none" stroke="#000000" d="M6.5125,70.00205317L20.096875,70.00205317" stroke-width="1.6" stroke-linecap="round" stroke-linejoin="round" transform="matrix(1,0,0,1,359,254.2406)" style="-webkit-tap-highlight-color: rgba(0, 0, 0, 0); stroke-linecap: round; stroke-linejoin: round;"/>
    <path fill="none" stroke="#000000" d="M6.5125,109.99699267L20.096875,109.99699267" stroke-width="1.6" stroke-linecap="round" stroke-linejoin="round" transform="matrix(1,0,0,1,359,254.2406)" style="-webkit-tap-highlight-color: rgba(0, 0, 0, 0); stroke-linecap: round; stroke-linejoin: round;"/>
    <path fill="none" stroke="#000000" d="M86.5125,70.00205317L100.096875,70.00205317" stroke-width="1.6" stroke-linecap="round" stroke-linejoin="round" transform="matrix(1,0,0,1,359,254.2406)" style="-webkit-tap-highlight-color: rgba(0, 0, 0, 0); stroke-linecap: round; stroke-linejoin: round;"/>
    <path fill="none" stroke="#000000" d="M86.5125,109.99699267L100.096875,109.99699267" stroke-width="1.6" stroke-linecap="round" stroke-linejoin="round" transform="matrix(1,0,0,1,359,254.2406)" style="-webkit-tap-highlight-color: rgba(0, 0, 0, 0); stroke-linecap: round; stroke-linejoin: round;"/>
    <path fill="none" stroke="#000000" d="M-103.19744055,63.39490818L-92.11505945,56.99675254" stroke-width="1.6" stroke-linecap="round" stroke-linejoin="round" transform="matrix(1,0,0,1,359,254.2406)" style="-webkit-tap-highlight-color: rgba(0, 0, 0, 0); stroke-linecap: round; stroke-linejoin: round;"/>
    <path fill="none" stroke="#000000" d="M-67.88494055,56.99626289L-56.80255945,63.39441852" stroke-width="1.6" stroke-linecap="round" stroke-linejoin="round" transform="matrix(1,0,0,1,359,254.2406)" style="-webkit-tap-highlight-color: rgba(0, 0, 0, 0); stroke-linecap: round; stroke-linejoin: round;"/>
    <path fill="none" stroke="#000000" d="M-103.19744055,123.38974167L-92.11505945,116.99158603" stroke-width="1.6" stroke-linecap="round" stroke-linejoin="round" transform="matrix(1,0,0,1,359,254.2406)" style="-webkit-tap-highlight-color: rgba(0, 0, 0, 0); stroke-linecap: round; stroke-linejoin: round;"/>
    <path fill="none" stroke="#000000" d="M-67.88494055,116.99109637L-56.80255945,123.38925201" stroke-width="1.6" stroke-linecap="round" stroke-linejoin="round" transform="matrix(1,0,0,1,359,254.2406)" style="-webkit-tap-highlight-color: rgba(0, 0, 0, 0); stroke-linecap: round; stroke-linejoin: round;"/>
    <path fill="none" stroke="#000000" d="M-121.24056944,-50.00215919L-86.60317729,-70.00205317" stroke-width="1.6" stroke-linecap="round" stroke-linejoin="round" transform="matrix(1,0,0,1,359,254.2406)" style="-webkit-tap-highlight-color: rgba(0, 0, 0, 0); stroke-linecap: round; stroke-linejoin: round;"/>
    <path fill="none" stroke="#000000" d="M-86.60317729,-70.00205317L-78.11214253,-65.09995122" stroke-width="1.6" stroke-linecap="round" stroke-linejoin="round" transform="matrix(1,0,0,1,359,254.2406)" style="-webkit-tap-highlight-color: rgba(0, 0, 0, 0); stroke-linecap: round; stroke-linejoin: round;"/>
    <path fill="none" stroke="#000000" d="M-40.50994055,-56.61312616L-17.31869607,-70.00205317" stroke-width="1.6" stroke-linecap="round" stroke-linejoin="round" transform="matrix(1,0,0,1,359,254.2406)" style="-webkit-tap-highlight-color: rgba(0, 0, 0, 0); stroke-linecap: round; stroke-linejoin: round;"/>
    <path fill="none" stroke="#000000" d="M-17.31869607,-70.00205317L17.31869607,-50.00215919" stroke-width="1.6" stroke-linecap="round" stroke-linejoin="round" transform="matrix(1,0,0,1,359,254.2406)" style="-webkit-tap-highlight-color: rgba(0, 0, 0, 0); stroke-linecap: round; stroke-linejoin: round;"/>
    <path fill="none" stroke="#000000" d="M17.31869607,-50.00215919L40.50994055,-63.39108619" stroke-width="1.6" stroke-linecap="round" stroke-linejoin="round" transform="matrix(1,0,0,1,359,254.2406)" style="-webkit-tap-highlight-color: rgba(0, 0, 0, 0); stroke-linecap: round; stroke-linejoin: round;"/>
    <path fill="none" stroke="#000000" d="M78.14650323,-54.88442378L86.60317729,-50.00215919" stroke-width="1.6" stroke-linecap="round" stroke-linejoin="round" transform="matrix(1,0,0,1,359,254.2406)" style="-webkit-tap-highlight-color: rgba(0, 0, 0, 0); stroke-linecap: round; stroke-linejoin: round;"/>
    <path fill="none" stroke="#000000" d="M86.60317729,-50.00215919L121.24056944,-70.00205317" stroke-width="1.6" stroke-linecap="round" stroke-linejoin="round" transform="matrix(1,0,0,1,359,254.2406)" style="-webkit-tap-highlight-color: rgba(0, 0, 0, 0); stroke-linecap: round; stroke-linejoin: round;"/>
    <path fill="none" stroke="#000000" d="M127.9072361,-73.85113319L127.9072361,-93.3M121.24056944,-70.00205317L121.24056944,-93.3" stroke-width="1.6" stroke-linecap="round" stroke-linejoin="round" transform="matrix(1,0,0,1,359,254.2406)" style="-webkit-tap-highlight-color: rgba(0, 0, 0, 0); stroke-linecap: round; stroke-linejoin: round;"/>
    <path fill="none" stroke="#000000" d="M132.69318445,-116.60889427L155.88281004,-129.99688665" stroke-width="1.6" stroke-linecap="round" stroke-linejoin="round" transform="matrix(1,0,0,1,359,254.2406)" style="-webkit-tap-highlight-color: rgba(0, 0, 0, 0); stroke-linecap: round; stroke-linejoin: round;"/>
    <path fill="none" stroke="#000000" d="M155.88281004,-122.29896129L183.85838398,-106.14791265M155.88281004,-129.99688665L190.52505065,-109.99699267" stroke-width="1.6" stroke-linecap="round" stroke-linejoin="round" transform="matrix(1,0,0,1,359,254.2406)" style="-webkit-tap-highlight-color: rgba(0, 0, 0, 0); stroke-linecap: round; stroke-linejoin: round;"/>
    <path fill="none" stroke="#000000" d="M190.52505065,-109.99699267L190.52505065,-70.00205317" stroke-width="1.6" stroke-linecap="round" stroke-linejoin="round" transform="matrix(1,0,0,1,359,254.2406)" style="-webkit-tap-highlight-color: rgba(0, 0, 0, 0); stroke-linecap: round; stroke-linejoin: round;"/>
    <path fill="none" stroke="#000000" d="M183.85838398,-73.85113319L155.88281004,-57.70008455M190.52505065,-70.00205317L155.88281004,-50.00215919" stroke-width="1.6" stroke-linecap="round" stroke-linejoin="round" transform="matrix(1,0,0,1,359,254.2406)" style="-webkit-tap-highlight-color: rgba(0, 0, 0, 0); stroke-linecap: round; stroke-linejoin: round;"/>
    <path fill="none" stroke="#000000" d="M121.24056944,-70.00205317L155.88281004,-50.00215919" stroke-width="1.6" stroke-linecap="round" stroke-linejoin="round" transform="matrix(1,0,0,1,359,254.2406)" style="-webkit-tap-highlight-color: rgba(0, 0, 0, 0); stroke-linecap: round; stroke-linejoin: round;"/>
    <path fill="none" stroke="#000000" d="M-127.9072361,-46.15307917L-127.9072361,-26.715625M-121.24056944,-50.00215919L-121.24056944,-26.715625" stroke-width="1.6" stroke-linecap="round" stroke-linejoin="round" transform="matrix(1,0,0,1,359,254.2406)" style="-webkit-tap-highlight-color: rgba(0, 0, 0, 0); stroke-linecap: round; stroke-linejoin: round;"/>
    <path fill="none" stroke="#000000" d="M-132.6933524,-3.38712711L-155.88281004,9.99752276" stroke-width="1.6" stroke-linecap="round" stroke-linejoin="round" transform="matrix(1,0,0,1,359,254.2406)" style="-webkit-tap-highlight-color: rgba(0, 0, 0, 0); stroke-linecap: round; stroke-linejoin: round;"/>
    <path fill="none" stroke="#000000" d="M-155.88281004,2.30006387L-183.85838398,-13.84706936M-155.88281004,9.99752276L-190.52505065,-9.99752276" stroke-width="1.6" stroke-linecap="round" stroke-linejoin="round" transform="matrix(1,0,0,1,359,254.2406)" style="-webkit-tap-highlight-color: rgba(0, 0, 0, 0); stroke-linecap: round; stroke-linejoin: round;"/>
    <path fill="none" stroke="#000000" d="M-190.52505065,-9.99752276L-190.52505065,-50.00215919" stroke-width="1.6" stroke-linecap="round" stroke-linejoin="round" transform="matrix(1,0,0,1,359,254.2406)" style="-webkit-tap-highlight-color: rgba(0, 0, 0, 0); stroke-linecap: round; stroke-linejoin: round;"/>
    <path fill="none" stroke="#000000" d="M-183.85838398,-46.15307917L-155.88281004,-62.3041278M-190.52505065,-50.00215919L-155.88281004,-70.00205317" stroke-width="1.6" stroke-linecap="round" stroke-linejoin="round" transform="matrix(1,0,0,1,359,254.2406)" style="-webkit-tap-highlight-color: rgba(0, 0, 0, 0); stroke-linecap: round; stroke-linejoin: round;"/>
    <path fill="none" stroke="#000000" d="M-121.24056944,-50.00215919L-155.88281004,-70.00205317" stroke-width="1.6" stroke-linecap="round" stroke-linejoin="round" transform="matrix(1,0,0,1,359,254.2406)" style="-webkit-tap-highlight-color: rgba(0, 0, 0, 0); stroke-linecap: round; stroke-linejoin: round;"/>
  </g>
</svg>
