<?xml version="1.0"?>
<svg xmlns="http://www.w3.org/2000/svg" height="259.99848599999996" version="1.1" width="763.5435684384358" style="overflow: hidden; position: relative;" viewBox="0 0 783 279">
  <g transform="translate(-30, -121)">
    <defs style="-webkit-tap-highlight-color: rgba(0, 0, 0, 0);"/>
    <text x="-247.84802714850042" y="9.997703978641729" text-anchor="middle" font="30px &quot;Arial&quot;" stroke="none" fill="#000000" style="-webkit-tap-highlight-color: rgba(0, 0, 0, 0); text-anchor: middle; font: 24px Arial;" font-size="24px" transform="matrix(1,0,0,1,392,261)">
      <tspan dy="8.505516478641729" style="-webkit-tap-highlight-color: rgba(0, 0, 0, 0);">P</tspan>
    </text>
    <text x="-143.92427007856503" y="-9.997703978641729" text-anchor="middle" font="30px &quot;Arial&quot;" stroke="none" fill="#000000" style="-webkit-tap-highlight-color: rgba(0, 0, 0, 0); text-anchor: middle; font: 24px Arial;" font-size="24px" transform="matrix(1,0,0,1,392,261)">
      <tspan dy="8.494483521358271" style="-webkit-tap-highlight-color: rgba(0, 0, 0, 0);">P</tspan>
    </text>
    <text x="103.92375706993542" y="9.997703978641729" text-anchor="middle" font="30px &quot;Arial&quot;" stroke="none" fill="#000000" style="-webkit-tap-highlight-color: rgba(0, 0, 0, 0); text-anchor: middle; font: 24px Arial;" font-size="24px" transform="matrix(1,0,0,1,392,261)">
      <tspan dy="8.505516478641729" style="-webkit-tap-highlight-color: rgba(0, 0, 0, 0);">P</tspan>
    </text>
    <text x="207.84751413987084" y="-9.997703978641729" text-anchor="middle" font="30px &quot;Arial&quot;" stroke="none" fill="#000000" style="-webkit-tap-highlight-color: rgba(0, 0, 0, 0); text-anchor: middle; font: 24px Arial;" font-size="24px" transform="matrix(1,0,0,1,392,261)">
      <tspan dy="8.494483521358271" style="-webkit-tap-highlight-color: rgba(0, 0, 0, 0);">P</tspan>
    </text>
    <text x="351.77178421843587" y="0" text-anchor="middle" font="30px &quot;Arial&quot;" stroke="none" fill="#000000" style="-webkit-tap-highlight-color: rgba(0, 0, 0, 0); text-anchor: middle; font: 24px Arial;" font-size="24px" transform="matrix(1,0,0,1,392,261)">
      <tspan dy="8.5" style="-webkit-tap-highlight-color: rgba(0, 0, 0, 0);">Pd</tspan>
    </text>
    <path fill="none" stroke="#000000" d="M-237.07236955,3.77726558L-213.21000716,-9.99770398" stroke-width="1.6" stroke-linecap="round" stroke-linejoin="round" transform="matrix(1,0,0,1,392,261)" style="-webkit-tap-highlight-color: rgba(0, 0, 0, 0); stroke-linecap: round; stroke-linejoin: round;"/>
    <path fill="none" stroke="#000000" d="M-213.21000716,-9.99770398L-178.56713862,9.99770398" stroke-width="1.6" stroke-linecap="round" stroke-linejoin="round" transform="matrix(1,0,0,1,392,261)" style="-webkit-tap-highlight-color: rgba(0, 0, 0, 0); stroke-linecap: round; stroke-linejoin: round;"/>
    <path fill="none" stroke="#000000" d="M-178.56713862,9.99770398L-154.7089774,-3.7729128" stroke-width="1.6" stroke-linecap="round" stroke-linejoin="round" transform="matrix(1,0,0,1,392,261)" style="-webkit-tap-highlight-color: rgba(0, 0, 0, 0); stroke-linecap: round; stroke-linejoin: round;"/>
    <path fill="none" stroke="#000000" d="M-143.92427008,-26.715625L-143.92427008,-50.00306553" stroke-width="1.6" stroke-linecap="round" stroke-linejoin="round" transform="matrix(1,0,0,1,392,261)" style="-webkit-tap-highlight-color: rgba(0, 0, 0, 0); stroke-linecap: round; stroke-linejoin: round;"/>
    <path fill="none" stroke="#000000" d="M-143.92427008,-57.7009909L-171.90047195,-73.85240206M-143.92427008,-50.00306553L-178.56713862,-70.00332204" stroke-width="1.6" stroke-linecap="round" stroke-linejoin="round" transform="matrix(1,0,0,1,392,261)" style="-webkit-tap-highlight-color: rgba(0, 0, 0, 0); stroke-linecap: round; stroke-linejoin: round;"/>
    <path fill="none" stroke="#000000" d="M-178.56713862,-70.00332204L-178.56713862,-109.9989865" stroke-width="1.6" stroke-linecap="round" stroke-linejoin="round" transform="matrix(1,0,0,1,392,261)" style="-webkit-tap-highlight-color: rgba(0, 0, 0, 0); stroke-linecap: round; stroke-linejoin: round;"/>
    <path fill="none" stroke="#000000" d="M-171.90047195,-106.14990648L-143.92427008,-122.30131764M-178.56713862,-109.9989865L-143.92427008,-129.999243" stroke-width="1.6" stroke-linecap="round" stroke-linejoin="round" transform="matrix(1,0,0,1,392,261)" style="-webkit-tap-highlight-color: rgba(0, 0, 0, 0); stroke-linecap: round; stroke-linejoin: round;"/>
    <path fill="none" stroke="#000000" d="M-143.92427008,-129.999243L-109.28140154,-109.9989865" stroke-width="1.6" stroke-linecap="round" stroke-linejoin="round" transform="matrix(1,0,0,1,392,261)" style="-webkit-tap-highlight-color: rgba(0, 0, 0, 0); stroke-linecap: round; stroke-linejoin: round;"/>
    <path fill="none" stroke="#000000" d="M-115.94806821,-106.14990648L-115.94806821,-73.85240206M-109.28140154,-109.9989865L-109.28140154,-70.00332204" stroke-width="1.6" stroke-linecap="round" stroke-linejoin="round" transform="matrix(1,0,0,1,392,261)" style="-webkit-tap-highlight-color: rgba(0, 0, 0, 0); stroke-linecap: round; stroke-linejoin: round;"/>
    <path fill="none" stroke="#000000" d="M-143.92427008,-50.00306553L-109.28140154,-70.00332204" stroke-width="1.6" stroke-linecap="round" stroke-linejoin="round" transform="matrix(1,0,0,1,392,261)" style="-webkit-tap-highlight-color: rgba(0, 0, 0, 0); stroke-linecap: round; stroke-linejoin: round;"/>
    <path fill="none" stroke="#000000" d="M-133.1347726,-3.77014798L-109.28140154,9.99770398" stroke-width="1.6" stroke-linecap="round" stroke-linejoin="round" transform="matrix(1,0,0,1,392,261)" style="-webkit-tap-highlight-color: rgba(0, 0, 0, 0); stroke-linecap: round; stroke-linejoin: round;"/>
    <path fill="none" stroke="#000000" d="M-102.61473487,13.84698123L-74.64314831,-2.30011046M-109.28140154,9.99770398L-74.64338155,-9.99770398" stroke-width="1.6" stroke-linecap="round" stroke-linejoin="round" transform="matrix(1,0,0,1,392,261)" style="-webkit-tap-highlight-color: rgba(0, 0, 0, 0); stroke-linecap: round; stroke-linejoin: round;"/>
    <path fill="none" stroke="#000000" d="M-74.64338155,-9.99770398L-40.00051301,9.99770398" stroke-width="1.6" stroke-linecap="round" stroke-linejoin="round" transform="matrix(1,0,0,1,392,261)" style="-webkit-tap-highlight-color: rgba(0, 0, 0, 0); stroke-linecap: round; stroke-linejoin: round;"/>
    <path fill="none" stroke="#000000" d="M-46.66717968,13.84725058L-46.66717968,46.15398551M-40.00051301,9.99770398L-40.00051301,50.00306553" stroke-width="1.6" stroke-linecap="round" stroke-linejoin="round" transform="matrix(1,0,0,1,392,261)" style="-webkit-tap-highlight-color: rgba(0, 0, 0, 0); stroke-linecap: round; stroke-linejoin: round;"/>
    <path fill="none" stroke="#000000" d="M-40.00051301,50.00306553L-74.64338155,70.00332204" stroke-width="1.6" stroke-linecap="round" stroke-linejoin="round" transform="matrix(1,0,0,1,392,261)" style="-webkit-tap-highlight-color: rgba(0, 0, 0, 0); stroke-linecap: round; stroke-linejoin: round;"/>
    <path fill="none" stroke="#000000" d="M-74.64314826,62.30526199L-102.61473487,46.15425488M-74.64338155,70.00332204L-109.28140154,50.00306553" stroke-width="1.6" stroke-linecap="round" stroke-linejoin="round" transform="matrix(1,0,0,1,392,261)" style="-webkit-tap-highlight-color: rgba(0, 0, 0, 0); stroke-linecap: round; stroke-linejoin: round;"/>
    <path fill="none" stroke="#000000" d="M-109.28140154,9.99770398L-109.28140154,50.00306553" stroke-width="1.6" stroke-linecap="round" stroke-linejoin="round" transform="matrix(1,0,0,1,392,261)" style="-webkit-tap-highlight-color: rgba(0, 0, 0, 0); stroke-linecap: round; stroke-linejoin: round;"/>
    <path fill="none" stroke="#000000" d="M-247.84802715,26.715625L-247.84802715,50.00306553" stroke-width="1.6" stroke-linecap="round" stroke-linejoin="round" transform="matrix(1,0,0,1,392,261)" style="-webkit-tap-highlight-color: rgba(0, 0, 0, 0); stroke-linecap: round; stroke-linejoin: round;"/>
    <path fill="none" stroke="#000000" d="M-247.84826043,57.70112558L-219.87667382,73.85213269M-247.84802715,50.00306553L-213.21000716,70.00332204" stroke-width="1.6" stroke-linecap="round" stroke-linejoin="round" transform="matrix(1,0,0,1,392,261)" style="-webkit-tap-highlight-color: rgba(0, 0, 0, 0); stroke-linecap: round; stroke-linejoin: round;"/>
    <path fill="none" stroke="#000000" d="M-213.21000716,70.00332204L-213.21000716,109.9989865" stroke-width="1.6" stroke-linecap="round" stroke-linejoin="round" transform="matrix(1,0,0,1,392,261)" style="-webkit-tap-highlight-color: rgba(0, 0, 0, 0); stroke-linecap: round; stroke-linejoin: round;"/>
    <path fill="none" stroke="#000000" d="M-219.87667382,106.15017585L-247.84826043,122.30118296M-213.21000716,109.9989865L-247.84802715,129.999243" stroke-width="1.6" stroke-linecap="round" stroke-linejoin="round" transform="matrix(1,0,0,1,392,261)" style="-webkit-tap-highlight-color: rgba(0, 0, 0, 0); stroke-linecap: round; stroke-linejoin: round;"/>
    <path fill="none" stroke="#000000" d="M-247.84802715,129.999243L-282.49089569,109.9989865" stroke-width="1.6" stroke-linecap="round" stroke-linejoin="round" transform="matrix(1,0,0,1,392,261)" style="-webkit-tap-highlight-color: rgba(0, 0, 0, 0); stroke-linecap: round; stroke-linejoin: round;"/>
    <path fill="none" stroke="#000000" d="M-275.82422902,106.14990648L-275.82422902,73.85240206M-282.49089569,109.9989865L-282.49089569,70.00332204" stroke-width="1.6" stroke-linecap="round" stroke-linejoin="round" transform="matrix(1,0,0,1,392,261)" style="-webkit-tap-highlight-color: rgba(0, 0, 0, 0); stroke-linecap: round; stroke-linejoin: round;"/>
    <path fill="none" stroke="#000000" d="M-247.84802715,50.00306553L-282.49089569,70.00332204" stroke-width="1.6" stroke-linecap="round" stroke-linejoin="round" transform="matrix(1,0,0,1,392,261)" style="-webkit-tap-highlight-color: rgba(0, 0, 0, 0); stroke-linecap: round; stroke-linejoin: round;"/>
    <path fill="none" stroke="#000000" d="M-258.6308524,3.77399911L-282.49089569,-9.99770398" stroke-width="1.6" stroke-linecap="round" stroke-linejoin="round" transform="matrix(1,0,0,1,392,261)" style="-webkit-tap-highlight-color: rgba(0, 0, 0, 0); stroke-linecap: round; stroke-linejoin: round;"/>
    <path fill="none" stroke="#000000" d="M-289.15756235,-13.84725058L-317.13353098,2.30011046M-282.49089569,-9.99770398L-317.13376423,9.99770398" stroke-width="1.6" stroke-linecap="round" stroke-linejoin="round" transform="matrix(1,0,0,1,392,261)" style="-webkit-tap-highlight-color: rgba(0, 0, 0, 0); stroke-linecap: round; stroke-linejoin: round;"/>
    <path fill="none" stroke="#000000" d="M-317.13376423,9.99770398L-351.77178422,-9.99770398" stroke-width="1.6" stroke-linecap="round" stroke-linejoin="round" transform="matrix(1,0,0,1,392,261)" style="-webkit-tap-highlight-color: rgba(0, 0, 0, 0); stroke-linecap: round; stroke-linejoin: round;"/>
    <path fill="none" stroke="#000000" d="M-345.10511755,-13.84698123L-345.10511755,-46.15425488M-351.77178422,-9.99770398L-351.77178422,-50.00306553" stroke-width="1.6" stroke-linecap="round" stroke-linejoin="round" transform="matrix(1,0,0,1,392,261)" style="-webkit-tap-highlight-color: rgba(0, 0, 0, 0); stroke-linecap: round; stroke-linejoin: round;"/>
    <path fill="none" stroke="#000000" d="M-351.77178422,-50.00306553L-317.13376423,-70.00332204" stroke-width="1.6" stroke-linecap="round" stroke-linejoin="round" transform="matrix(1,0,0,1,392,261)" style="-webkit-tap-highlight-color: rgba(0, 0, 0, 0); stroke-linecap: round; stroke-linejoin: round;"/>
    <path fill="none" stroke="#000000" d="M-317.13353094,-62.30526199L-289.15756235,-46.15398551M-317.13376423,-70.00332204L-282.49089569,-50.00306553" stroke-width="1.6" stroke-linecap="round" stroke-linejoin="round" transform="matrix(1,0,0,1,392,261)" style="-webkit-tap-highlight-color: rgba(0, 0, 0, 0); stroke-linecap: round; stroke-linejoin: round;"/>
    <path fill="none" stroke="#000000" d="M-282.49089569,-9.99770398L-282.49089569,-50.00306553" stroke-width="1.6" stroke-linecap="round" stroke-linejoin="round" transform="matrix(1,0,0,1,392,261)" style="-webkit-tap-highlight-color: rgba(0, 0, 0, 0); stroke-linecap: round; stroke-linejoin: round;"/>
    <path fill="none" stroke="#000000" d="M114.7089774,3.7726167L138.56662561,-9.99770398" stroke-width="1.6" stroke-linecap="round" stroke-linejoin="round" transform="matrix(1,0,0,1,392,261)" style="-webkit-tap-highlight-color: rgba(0, 0, 0, 0); stroke-linecap: round; stroke-linejoin: round;"/>
    <path fill="none" stroke="#000000" d="M138.56662561,-9.99770398L173.20949415,9.99770398" stroke-width="1.6" stroke-linecap="round" stroke-linejoin="round" transform="matrix(1,0,0,1,392,261)" style="-webkit-tap-highlight-color: rgba(0, 0, 0, 0); stroke-linecap: round; stroke-linejoin: round;"/>
    <path fill="none" stroke="#000000" d="M173.20949415,9.99770398L197.05674455,-3.76854191" stroke-width="1.6" stroke-linecap="round" stroke-linejoin="round" transform="matrix(1,0,0,1,392,261)" style="-webkit-tap-highlight-color: rgba(0, 0, 0, 0); stroke-linecap: round; stroke-linejoin: round;"/>
    <path fill="none" stroke="#000000" d="M207.84751414,-26.715625L207.84751414,-50.00306553" stroke-width="1.6" stroke-linecap="round" stroke-linejoin="round" transform="matrix(1,0,0,1,392,261)" style="-webkit-tap-highlight-color: rgba(0, 0, 0, 0); stroke-linecap: round; stroke-linejoin: round;"/>
    <path fill="none" stroke="#000000" d="M207.84774742,-57.70112558L179.87616081,-73.85213269M207.84751414,-50.00306553L173.20949415,-70.00332204" stroke-width="1.6" stroke-linecap="round" stroke-linejoin="round" transform="matrix(1,0,0,1,392,261)" style="-webkit-tap-highlight-color: rgba(0, 0, 0, 0); stroke-linecap: round; stroke-linejoin: round;"/>
    <path fill="none" stroke="#000000" d="M173.20949415,-70.00332204L173.20949415,-109.9989865" stroke-width="1.6" stroke-linecap="round" stroke-linejoin="round" transform="matrix(1,0,0,1,392,261)" style="-webkit-tap-highlight-color: rgba(0, 0, 0, 0); stroke-linecap: round; stroke-linejoin: round;"/>
    <path fill="none" stroke="#000000" d="M179.87616081,-106.15017585L207.84774742,-122.30118296M173.20949415,-109.9989865L207.84751414,-129.999243" stroke-width="1.6" stroke-linecap="round" stroke-linejoin="round" transform="matrix(1,0,0,1,392,261)" style="-webkit-tap-highlight-color: rgba(0, 0, 0, 0); stroke-linecap: round; stroke-linejoin: round;"/>
    <path fill="none" stroke="#000000" d="M207.84751414,-129.999243L242.49038268,-109.9989865" stroke-width="1.6" stroke-linecap="round" stroke-linejoin="round" transform="matrix(1,0,0,1,392,261)" style="-webkit-tap-highlight-color: rgba(0, 0, 0, 0); stroke-linecap: round; stroke-linejoin: round;"/>
    <path fill="none" stroke="#000000" d="M235.82371601,-106.14990648L235.82371601,-73.85240206M242.49038268,-109.9989865L242.49038268,-70.00332204" stroke-width="1.6" stroke-linecap="round" stroke-linejoin="round" transform="matrix(1,0,0,1,392,261)" style="-webkit-tap-highlight-color: rgba(0, 0, 0, 0); stroke-linecap: round; stroke-linejoin: round;"/>
    <path fill="none" stroke="#000000" d="M207.84751414,-50.00306553L242.49038268,-70.00332204" stroke-width="1.6" stroke-linecap="round" stroke-linejoin="round" transform="matrix(1,0,0,1,392,261)" style="-webkit-tap-highlight-color: rgba(0, 0, 0, 0); stroke-linecap: round; stroke-linejoin: round;"/>
    <path fill="none" stroke="#000000" d="M218.6308524,-3.773703L242.49038268,9.99770398" stroke-width="1.6" stroke-linecap="round" stroke-linejoin="round" transform="matrix(1,0,0,1,392,261)" style="-webkit-tap-highlight-color: rgba(0, 0, 0, 0); stroke-linecap: round; stroke-linejoin: round;"/>
    <path fill="none" stroke="#000000" d="M249.15704935,13.84725058L277.13301798,-2.30011046M242.49038268,9.99770398L277.13325122,-9.99770398" stroke-width="1.6" stroke-linecap="round" stroke-linejoin="round" transform="matrix(1,0,0,1,392,261)" style="-webkit-tap-highlight-color: rgba(0, 0, 0, 0); stroke-linecap: round; stroke-linejoin: round;"/>
    <path fill="none" stroke="#000000" d="M277.13325122,-9.99770398L311.77127121,9.99770398" stroke-width="1.6" stroke-linecap="round" stroke-linejoin="round" transform="matrix(1,0,0,1,392,261)" style="-webkit-tap-highlight-color: rgba(0, 0, 0, 0); stroke-linecap: round; stroke-linejoin: round;"/>
    <path fill="none" stroke="#000000" d="M305.10460454,13.84698123L305.10460454,46.15425488M311.77127121,9.99770398L311.77127121,50.00306553" stroke-width="1.6" stroke-linecap="round" stroke-linejoin="round" transform="matrix(1,0,0,1,392,261)" style="-webkit-tap-highlight-color: rgba(0, 0, 0, 0); stroke-linecap: round; stroke-linejoin: round;"/>
    <path fill="none" stroke="#000000" d="M311.77127121,50.00306553L277.13325122,70.00332204" stroke-width="1.6" stroke-linecap="round" stroke-linejoin="round" transform="matrix(1,0,0,1,392,261)" style="-webkit-tap-highlight-color: rgba(0, 0, 0, 0); stroke-linecap: round; stroke-linejoin: round;"/>
    <path fill="none" stroke="#000000" d="M277.13301793,62.30526199L249.15704935,46.15398551M277.13325122,70.00332204L242.49038268,50.00306553" stroke-width="1.6" stroke-linecap="round" stroke-linejoin="round" transform="matrix(1,0,0,1,392,261)" style="-webkit-tap-highlight-color: rgba(0, 0, 0, 0); stroke-linecap: round; stroke-linejoin: round;"/>
    <path fill="none" stroke="#000000" d="M242.49038268,9.99770398L242.49038268,50.00306553" stroke-width="1.6" stroke-linecap="round" stroke-linejoin="round" transform="matrix(1,0,0,1,392,261)" style="-webkit-tap-highlight-color: rgba(0, 0, 0, 0); stroke-linecap: round; stroke-linejoin: round;"/>
    <path fill="none" stroke="#000000" d="M103.92375707,26.715625L103.92375707,50.00306553" stroke-width="1.6" stroke-linecap="round" stroke-linejoin="round" transform="matrix(1,0,0,1,392,261)" style="-webkit-tap-highlight-color: rgba(0, 0, 0, 0); stroke-linecap: round; stroke-linejoin: round;"/>
    <path fill="none" stroke="#000000" d="M103.92375707,57.7009909L131.89995894,73.85240206M103.92375707,50.00306553L138.56662561,70.00332204" stroke-width="1.6" stroke-linecap="round" stroke-linejoin="round" transform="matrix(1,0,0,1,392,261)" style="-webkit-tap-highlight-color: rgba(0, 0, 0, 0); stroke-linecap: round; stroke-linejoin: round;"/>
    <path fill="none" stroke="#000000" d="M138.56662561,70.00332204L138.56662561,109.9989865" stroke-width="1.6" stroke-linecap="round" stroke-linejoin="round" transform="matrix(1,0,0,1,392,261)" style="-webkit-tap-highlight-color: rgba(0, 0, 0, 0); stroke-linecap: round; stroke-linejoin: round;"/>
    <path fill="none" stroke="#000000" d="M131.89995894,106.14990648L103.92375707,122.30131764M138.56662561,109.9989865L103.92375707,129.999243" stroke-width="1.6" stroke-linecap="round" stroke-linejoin="round" transform="matrix(1,0,0,1,392,261)" style="-webkit-tap-highlight-color: rgba(0, 0, 0, 0); stroke-linecap: round; stroke-linejoin: round;"/>
    <path fill="none" stroke="#000000" d="M103.92375707,129.999243L69.28088853,109.9989865" stroke-width="1.6" stroke-linecap="round" stroke-linejoin="round" transform="matrix(1,0,0,1,392,261)" style="-webkit-tap-highlight-color: rgba(0, 0, 0, 0); stroke-linecap: round; stroke-linejoin: round;"/>
    <path fill="none" stroke="#000000" d="M75.9475552,106.14990648L75.9475552,73.85240206M69.28088853,109.9989865L69.28088853,70.00332204" stroke-width="1.6" stroke-linecap="round" stroke-linejoin="round" transform="matrix(1,0,0,1,392,261)" style="-webkit-tap-highlight-color: rgba(0, 0, 0, 0); stroke-linecap: round; stroke-linejoin: round;"/>
    <path fill="none" stroke="#000000" d="M103.92375707,50.00306553L69.28088853,70.00332204" stroke-width="1.6" stroke-linecap="round" stroke-linejoin="round" transform="matrix(1,0,0,1,392,261)" style="-webkit-tap-highlight-color: rgba(0, 0, 0, 0); stroke-linecap: round; stroke-linejoin: round;"/>
    <path fill="none" stroke="#000000" d="M93.1347726,3.77044409L69.28088853,-9.99770398" stroke-width="1.6" stroke-linecap="round" stroke-linejoin="round" transform="matrix(1,0,0,1,392,261)" style="-webkit-tap-highlight-color: rgba(0, 0, 0, 0); stroke-linecap: round; stroke-linejoin: round;"/>
    <path fill="none" stroke="#000000" d="M62.61422186,-13.84698123L34.6426353,2.30011046M69.28088853,-9.99770398L34.64286854,9.99770398" stroke-width="1.6" stroke-linecap="round" stroke-linejoin="round" transform="matrix(1,0,0,1,392,261)" style="-webkit-tap-highlight-color: rgba(0, 0, 0, 0); stroke-linecap: round; stroke-linejoin: round;"/>
    <path fill="none" stroke="#000000" d="M34.64286854,9.99770398L0,-9.99770398" stroke-width="1.6" stroke-linecap="round" stroke-linejoin="round" transform="matrix(1,0,0,1,392,261)" style="-webkit-tap-highlight-color: rgba(0, 0, 0, 0); stroke-linecap: round; stroke-linejoin: round;"/>
    <path fill="none" stroke="#000000" d="M6.66666667,-13.84725058L6.66666667,-46.15398551M0,-9.99770398L0,-50.00306553" stroke-width="1.6" stroke-linecap="round" stroke-linejoin="round" transform="matrix(1,0,0,1,392,261)" style="-webkit-tap-highlight-color: rgba(0, 0, 0, 0); stroke-linecap: round; stroke-linejoin: round;"/>
    <path fill="none" stroke="#000000" d="M0,-50.00306553L34.64286854,-70.00332204" stroke-width="1.6" stroke-linecap="round" stroke-linejoin="round" transform="matrix(1,0,0,1,392,261)" style="-webkit-tap-highlight-color: rgba(0, 0, 0, 0); stroke-linecap: round; stroke-linejoin: round;"/>
    <path fill="none" stroke="#000000" d="M34.64263525,-62.30526199L62.61422186,-46.15425488M34.64286854,-70.00332204L69.28088853,-50.00306553" stroke-width="1.6" stroke-linecap="round" stroke-linejoin="round" transform="matrix(1,0,0,1,392,261)" style="-webkit-tap-highlight-color: rgba(0, 0, 0, 0); stroke-linecap: round; stroke-linejoin: round;"/>
    <path fill="none" stroke="#000000" d="M69.28088853,-9.99770398L69.28088853,-50.00306553" stroke-width="1.6" stroke-linecap="round" stroke-linejoin="round" transform="matrix(1,0,0,1,392,261)" style="-webkit-tap-highlight-color: rgba(0, 0, 0, 0); stroke-linecap: round; stroke-linejoin: round;"/>
  </g>
</svg>
