<?xml version="1.0"?>
<svg xmlns="http://www.w3.org/2000/svg" height="183.15750696070012" version="1.1" width="777.387664974977" style="overflow: hidden; position: relative;" viewBox="0 0 797 203">
  <g transform="translate(-39, -174)">
    <defs style="-webkit-tap-highlight-color: rgba(0, 0, 0, 0);"/>
    <text x="103.92238832499233" y="50.0024069607001" text-anchor="middle" font="30px &quot;Arial&quot;" stroke="none" fill="#000000" style="-webkit-tap-highlight-color: rgba(0, 0, 0, 0); text-anchor: middle; font: 24px Arial;" font-size="24px" transform="matrix(1,0,0,1,389,281.6238)">
      <tspan dy="8.4945944607001" style="-webkit-tap-highlight-color: rgba(0, 0, 0, 0);">C</tspan>
    </text>
    <text x="103.92238832499233" y="50.0024069607001" text-anchor="middle" font="30px &quot;Arial&quot;" stroke="none" fill="#000000" style="-webkit-tap-highlight-color: rgba(0, 0, 0, 0); text-anchor: middle; font: 24px Arial;" font-size="24px" transform="matrix(1,0,0,1,407.1438,281.6238)">
      <tspan dy="8.4945944607001" style="-webkit-tap-highlight-color: rgba(0, 0, 0, 0);">H</tspan>
    </text>
    <text x="103.92238832499233" y="50.0024069607001" text-anchor="middle" font="30px &quot;Arial&quot;" stroke="none" fill="#000000" style="-webkit-tap-highlight-color: rgba(0, 0, 0, 0); text-anchor: middle; font: 17px Arial;" font-size="17px" transform="matrix(1,0,0,1,421.35,287.0269)">
      <tspan dy="5.4945944607001" style="-webkit-tap-highlight-color: rgba(0, 0, 0, 0);">3</tspan>
    </text>
    <text x="173.20721286376906" y="10.002420785409125" text-anchor="middle" font="30px &quot;Arial&quot;" stroke="none" fill="#000000" style="-webkit-tap-highlight-color: rgba(0, 0, 0, 0); text-anchor: middle; font: 24px Arial;" font-size="24px" transform="matrix(1,0,0,1,389,281.6238)">
      <tspan dy="8.494608285409125" style="-webkit-tap-highlight-color: rgba(0, 0, 0, 0);">N</tspan>
    </text>
    <text x="173.20721286376906" y="10.002420785409125" text-anchor="middle" font="30px &quot;Arial&quot;" stroke="none" fill="#000000" style="-webkit-tap-highlight-color: rgba(0, 0, 0, 0); text-anchor: middle; font: 24px Arial;" font-size="24px" transform="matrix(1,0,0,1,407.1438,281.6238)">
      <tspan dy="8.494608285409125" style="-webkit-tap-highlight-color: rgba(0, 0, 0, 0);">H</tspan>
    </text>
    <text x="173.20721286376906" y="-69.99755156517281" text-anchor="middle" font="30px &quot;Arial&quot;" stroke="none" fill="#000000" style="-webkit-tap-highlight-color: rgba(0, 0, 0, 0); text-anchor: middle; font: 24px Arial;" font-size="24px" transform="matrix(1,0,0,1,389,281.6238)">
      <tspan dy="8.494635934827187" style="-webkit-tap-highlight-color: rgba(0, 0, 0, 0);">C</tspan>
    </text>
    <text x="173.20721286376906" y="-69.99755156517281" text-anchor="middle" font="30px &quot;Arial&quot;" stroke="none" fill="#000000" style="-webkit-tap-highlight-color: rgba(0, 0, 0, 0); text-anchor: middle; font: 24px Arial;" font-size="24px" transform="matrix(1,0,0,1,360.5875,281.6238)">
      <tspan dy="8.494635934827187" style="-webkit-tap-highlight-color: rgba(0, 0, 0, 0);">H</tspan>
    </text>
    <text x="173.20721286376906" y="-69.99755156517281" text-anchor="middle" font="30px &quot;Arial&quot;" stroke="none" fill="#000000" style="-webkit-tap-highlight-color: rgba(0, 0, 0, 0); text-anchor: middle; font: 17px Arial;" font-size="17px" transform="matrix(1,0,0,1,374.7937,287.0269)">
      <tspan dy="5.494635934827187" style="-webkit-tap-highlight-color: rgba(0, 0, 0, 0);">3</tspan>
    </text>
    <text x="311.767164974977" y="-69.99755156517281" text-anchor="middle" font="30px &quot;Arial&quot;" stroke="none" fill="#000000" style="-webkit-tap-highlight-color: rgba(0, 0, 0, 0); text-anchor: middle; font: 24px Arial;" font-size="24px" transform="matrix(1,0,0,1,389,281.6238)">
      <tspan dy="8.494635934827187" style="-webkit-tap-highlight-color: rgba(0, 0, 0, 0);">C</tspan>
    </text>
    <text x="311.767164974977" y="-69.99755156517281" text-anchor="middle" font="30px &quot;Arial&quot;" stroke="none" fill="#000000" style="-webkit-tap-highlight-color: rgba(0, 0, 0, 0); text-anchor: middle; font: 24px Arial;" font-size="24px" transform="matrix(1,0,0,1,407.1438,281.6238)">
      <tspan dy="8.494635934827187" style="-webkit-tap-highlight-color: rgba(0, 0, 0, 0);">H</tspan>
    </text>
    <text x="311.767164974977" y="-69.99755156517281" text-anchor="middle" font="30px &quot;Arial&quot;" stroke="none" fill="#000000" style="-webkit-tap-highlight-color: rgba(0, 0, 0, 0); text-anchor: middle; font: 17px Arial;" font-size="17px" transform="matrix(1,0,0,1,421.35,287.0269)">
      <tspan dy="5.494635934827187" style="-webkit-tap-highlight-color: rgba(0, 0, 0, 0);">3</tspan>
    </text>
    <text x="242.48718891937298" y="50.0024069607001" text-anchor="middle" font="30px &quot;Arial&quot;" stroke="none" fill="#000000" style="-webkit-tap-highlight-color: rgba(0, 0, 0, 0); text-anchor: middle; font: 24px Arial;" font-size="24px" transform="matrix(1,0,0,1,389,281.6238)">
      <tspan dy="8.4945944607001" style="-webkit-tap-highlight-color: rgba(0, 0, 0, 0);">C</tspan>
    </text>
    <text x="242.48718891937298" y="50.0024069607001" text-anchor="middle" font="30px &quot;Arial&quot;" stroke="none" fill="#000000" style="-webkit-tap-highlight-color: rgba(0, 0, 0, 0); text-anchor: middle; font: 24px Arial;" font-size="24px" transform="matrix(1,0,0,1,407.1438,281.6238)">
      <tspan dy="8.4945944607001" style="-webkit-tap-highlight-color: rgba(0, 0, 0, 0);">H</tspan>
    </text>
    <text x="242.48718891937298" y="50.0024069607001" text-anchor="middle" font="30px &quot;Arial&quot;" stroke="none" fill="#000000" style="-webkit-tap-highlight-color: rgba(0, 0, 0, 0); text-anchor: middle; font: 17px Arial;" font-size="17px" transform="matrix(1,0,0,1,421.35,287.0269)">
      <tspan dy="5.4945944607001" style="-webkit-tap-highlight-color: rgba(0, 0, 0, 0);">3</tspan>
    </text>
    <text x="138.56480059438067" y="-49.99755847752732" text-anchor="middle" font="30px &quot;Arial&quot;" stroke="none" fill="#000000" style="-webkit-tap-highlight-color: rgba(0, 0, 0, 0); text-anchor: middle; font: 24px Arial;" font-size="24px" transform="matrix(1,0,0,1,389,281.6238)">
      <tspan dy="8.49462902247268" style="-webkit-tap-highlight-color: rgba(0, 0, 0, 0);">O</tspan>
    </text>
    <text x="69.27997605560395" y="-9.997572302236362" text-anchor="middle" font="30px &quot;Arial&quot;" stroke="none" fill="#000000" style="-webkit-tap-highlight-color: rgba(0, 0, 0, 0); text-anchor: middle; font: 24px Arial;" font-size="24px" transform="matrix(1,0,0,1,389,281.6238)">
      <tspan dy="8.494615197763638" style="-webkit-tap-highlight-color: rgba(0, 0, 0, 0);">O</tspan>
    </text>
    <text x="0" y="-49.99755847752732" text-anchor="middle" font="30px &quot;Arial&quot;" stroke="none" fill="#000000" style="-webkit-tap-highlight-color: rgba(0, 0, 0, 0); text-anchor: middle; font: 24px Arial;" font-size="24px" transform="matrix(1,0,0,1,389,281.6238)">
      <tspan dy="8.49462902247268" style="-webkit-tap-highlight-color: rgba(0, 0, 0, 0);">I</tspan>
    </text>
    <text x="-69.27997605560395" y="-9.997572302236362" text-anchor="middle" font="30px &quot;Arial&quot;" stroke="none" fill="#000000" style="-webkit-tap-highlight-color: rgba(0, 0, 0, 0); text-anchor: middle; font: 24px Arial;" font-size="24px" transform="matrix(1,0,0,1,389,281.6238)">
      <tspan dy="8.494615197763638" style="-webkit-tap-highlight-color: rgba(0, 0, 0, 0);">O</tspan>
    </text>
    <text x="-173.20721286376906" y="10.002420785409125" text-anchor="middle" font="30px &quot;Arial&quot;" stroke="none" fill="#000000" style="-webkit-tap-highlight-color: rgba(0, 0, 0, 0); text-anchor: middle; font: 24px Arial;" font-size="24px" transform="matrix(1,0,0,1,389,281.6238)">
      <tspan dy="8.494608285409125" style="-webkit-tap-highlight-color: rgba(0, 0, 0, 0);">N</tspan>
    </text>
    <text x="-173.20721286376906" y="10.002420785409125" text-anchor="middle" font="30px &quot;Arial&quot;" stroke="none" fill="#000000" style="-webkit-tap-highlight-color: rgba(0, 0, 0, 0); text-anchor: middle; font: 24px Arial;" font-size="24px" transform="matrix(1,0,0,1,370.8562,281.6238)">
      <tspan dy="8.494608285409125" style="-webkit-tap-highlight-color: rgba(0, 0, 0, 0);">H</tspan>
    </text>
    <text x="-242.48718891937298" y="50.0024069607001" text-anchor="middle" font="30px &quot;Arial&quot;" stroke="none" fill="#000000" style="-webkit-tap-highlight-color: rgba(0, 0, 0, 0); text-anchor: middle; font: 24px Arial;" font-size="24px" transform="matrix(1,0,0,1,389,281.6238)">
      <tspan dy="8.4945944607001" style="-webkit-tap-highlight-color: rgba(0, 0, 0, 0);">C</tspan>
    </text>
    <text x="-242.48718891937298" y="50.0024069607001" text-anchor="middle" font="30px &quot;Arial&quot;" stroke="none" fill="#000000" style="-webkit-tap-highlight-color: rgba(0, 0, 0, 0); text-anchor: middle; font: 24px Arial;" font-size="24px" transform="matrix(1,0,0,1,407.1438,281.6238)">
      <tspan dy="8.4945944607001" style="-webkit-tap-highlight-color: rgba(0, 0, 0, 0);">H</tspan>
    </text>
    <text x="-242.48718891937298" y="50.0024069607001" text-anchor="middle" font="30px &quot;Arial&quot;" stroke="none" fill="#000000" style="-webkit-tap-highlight-color: rgba(0, 0, 0, 0); text-anchor: middle; font: 17px Arial;" font-size="17px" transform="matrix(1,0,0,1,421.35,287.0269)">
      <tspan dy="5.4945944607001" style="-webkit-tap-highlight-color: rgba(0, 0, 0, 0);">3</tspan>
    </text>
    <text x="-311.767164974977" y="-70.00240004834558" text-anchor="middle" font="30px &quot;Arial&quot;" stroke="none" fill="#000000" style="-webkit-tap-highlight-color: rgba(0, 0, 0, 0); text-anchor: middle; font: 24px Arial;" font-size="24px" transform="matrix(1,0,0,1,389,281.6238)">
      <tspan dy="8.505412451654422" style="-webkit-tap-highlight-color: rgba(0, 0, 0, 0);">C</tspan>
    </text>
    <text x="-311.767164974977" y="-70.00240004834558" text-anchor="middle" font="30px &quot;Arial&quot;" stroke="none" fill="#000000" style="-webkit-tap-highlight-color: rgba(0, 0, 0, 0); text-anchor: middle; font: 24px Arial;" font-size="24px" transform="matrix(1,0,0,1,360.5875,281.6238)">
      <tspan dy="8.505412451654422" style="-webkit-tap-highlight-color: rgba(0, 0, 0, 0);">H</tspan>
    </text>
    <text x="-311.767164974977" y="-70.00240004834558" text-anchor="middle" font="30px &quot;Arial&quot;" stroke="none" fill="#000000" style="-webkit-tap-highlight-color: rgba(0, 0, 0, 0); text-anchor: middle; font: 17px Arial;" font-size="17px" transform="matrix(1,0,0,1,374.7937,287.0269)">
      <tspan dy="5.505412451654422" style="-webkit-tap-highlight-color: rgba(0, 0, 0, 0);">3</tspan>
    </text>
    <text x="-173.20721286376906" y="-69.99755156517281" text-anchor="middle" font="30px &quot;Arial&quot;" stroke="none" fill="#000000" style="-webkit-tap-highlight-color: rgba(0, 0, 0, 0); text-anchor: middle; font: 24px Arial;" font-size="24px" transform="matrix(1,0,0,1,389,281.6238)">
      <tspan dy="8.494635934827187" style="-webkit-tap-highlight-color: rgba(0, 0, 0, 0);">C</tspan>
    </text>
    <text x="-173.20721286376906" y="-69.99755156517281" text-anchor="middle" font="30px &quot;Arial&quot;" stroke="none" fill="#000000" style="-webkit-tap-highlight-color: rgba(0, 0, 0, 0); text-anchor: middle; font: 24px Arial;" font-size="24px" transform="matrix(1,0,0,1,407.1438,281.6238)">
      <tspan dy="8.494635934827187" style="-webkit-tap-highlight-color: rgba(0, 0, 0, 0);">H</tspan>
    </text>
    <text x="-173.20721286376906" y="-69.99755156517281" text-anchor="middle" font="30px &quot;Arial&quot;" stroke="none" fill="#000000" style="-webkit-tap-highlight-color: rgba(0, 0, 0, 0); text-anchor: middle; font: 17px Arial;" font-size="17px" transform="matrix(1,0,0,1,421.35,287.0269)">
      <tspan dy="5.494635934827187" style="-webkit-tap-highlight-color: rgba(0, 0, 0, 0);">3</tspan>
    </text>
    <text x="-138.56480059438067" y="-49.99755847752732" text-anchor="middle" font="30px &quot;Arial&quot;" stroke="none" fill="#000000" style="-webkit-tap-highlight-color: rgba(0, 0, 0, 0); text-anchor: middle; font: 24px Arial;" font-size="24px" transform="matrix(1,0,0,1,389,281.6238)">
      <tspan dy="8.49462902247268" style="-webkit-tap-highlight-color: rgba(0, 0, 0, 0);">O</tspan>
    </text>
    <text x="-103.92238832499233" y="50.0024069607001" text-anchor="middle" font="30px &quot;Arial&quot;" stroke="none" fill="#000000" style="-webkit-tap-highlight-color: rgba(0, 0, 0, 0); text-anchor: middle; font: 24px Arial;" font-size="24px" transform="matrix(1,0,0,1,389,281.6238)">
      <tspan dy="8.4945944607001" style="-webkit-tap-highlight-color: rgba(0, 0, 0, 0);">C</tspan>
    </text>
    <text x="-103.92238832499233" y="50.0024069607001" text-anchor="middle" font="30px &quot;Arial&quot;" stroke="none" fill="#000000" style="-webkit-tap-highlight-color: rgba(0, 0, 0, 0); text-anchor: middle; font: 24px Arial;" font-size="24px" transform="matrix(1,0,0,1,407.1438,281.6238)">
      <tspan dy="8.4945944607001" style="-webkit-tap-highlight-color: rgba(0, 0, 0, 0);">H</tspan>
    </text>
    <text x="-103.92238832499233" y="50.0024069607001" text-anchor="middle" font="30px &quot;Arial&quot;" stroke="none" fill="#000000" style="-webkit-tap-highlight-color: rgba(0, 0, 0, 0); text-anchor: middle; font: 17px Arial;" font-size="17px" transform="matrix(1,0,0,1,421.35,287.0269)">
      <tspan dy="5.4945944607001" style="-webkit-tap-highlight-color: rgba(0, 0, 0, 0);">3</tspan>
    </text>
    <path fill="#000000" stroke="#000000" d="M103.92238832,10.00242079L99.25572166,33.284375L108.58905499,33.284375Z" stroke-width="1.6" stroke-linecap="round" stroke-linejoin="round" style="-webkit-tap-highlight-color: rgba(0, 0, 0, 0); stroke-linecap: round; stroke-linejoin: round;" transform="matrix(1,0,0,1,389,281.6238)"/>
    <path fill="none" stroke="#000000" d="M103.92238832,10.00242079L138.56480059,-9.9975723" stroke-width="1.6" stroke-linecap="round" stroke-linejoin="round" style="-webkit-tap-highlight-color: rgba(0, 0, 0, 0); stroke-linecap: round; stroke-linejoin: round;" transform="matrix(1,0,0,1,389,281.6238)"/>
    <path fill="none" stroke="#000000" d="M138.56480059,-9.9975723L161.75994055,3.39360367" stroke-width="1.6" stroke-linecap="round" stroke-linejoin="round" style="-webkit-tap-highlight-color: rgba(0, 0, 0, 0); stroke-linecap: round; stroke-linejoin: round;" transform="matrix(1,0,0,1,389,281.6238)"/>
    <path fill="none" stroke="#000000" d="M199.39004209,-5.11574419L207.84477665,-9.9975723" stroke-width="1.6" stroke-linecap="round" stroke-linejoin="round" style="-webkit-tap-highlight-color: rgba(0, 0, 0, 0); stroke-linecap: round; stroke-linejoin: round;" transform="matrix(1,0,0,1,389,281.6238)"/>
    <path fill="none" stroke="#000000" d="M214.51144332,-13.84665232L214.51144332,-46.14847846M207.84477665,-9.9975723L207.84477665,-49.99755848" stroke-width="1.6" stroke-linecap="round" stroke-linejoin="round" style="-webkit-tap-highlight-color: rgba(0, 0, 0, 0); stroke-linecap: round; stroke-linejoin: round;" transform="matrix(1,0,0,1,389,281.6238)"/>
    <path fill="none" stroke="#000000" d="M207.84477665,-49.99755848L184.64621248,-63.39258608" stroke-width="1.6" stroke-linecap="round" stroke-linejoin="round" style="-webkit-tap-highlight-color: rgba(0, 0, 0, 0); stroke-linecap: round; stroke-linejoin: round;" transform="matrix(1,0,0,1,389,281.6238)"/>
    <path fill="none" stroke="#000000" d="M207.84477665,-49.99755848L242.48718892,-69.99755157" stroke-width="1.6" stroke-linecap="round" stroke-linejoin="round" style="-webkit-tap-highlight-color: rgba(0, 0, 0, 0); stroke-linecap: round; stroke-linejoin: round;" transform="matrix(1,0,0,1,389,281.6238)"/>
    <path fill="none" stroke="#000000" d="M242.48718892,-62.2996262L270.46293452,-46.14847846M242.48718892,-69.99755157L277.12960119,-49.99755848" stroke-width="1.6" stroke-linecap="round" stroke-linejoin="round" style="-webkit-tap-highlight-color: rgba(0, 0, 0, 0); stroke-linecap: round; stroke-linejoin: round;" transform="matrix(1,0,0,1,389,281.6238)"/>
    <path fill="none" stroke="#000000" d="M277.12960119,-49.99755848L300.32253752,-63.38933653" stroke-width="1.6" stroke-linecap="round" stroke-linejoin="round" style="-webkit-tap-highlight-color: rgba(0, 0, 0, 0); stroke-linecap: round; stroke-linejoin: round;" transform="matrix(1,0,0,1,389,281.6238)"/>
    <path fill="none" stroke="#000000" d="M277.12960119,-49.99755848L277.12960119,-9.9975723" stroke-width="1.6" stroke-linecap="round" stroke-linejoin="round" style="-webkit-tap-highlight-color: rgba(0, 0, 0, 0); stroke-linecap: round; stroke-linejoin: round;" transform="matrix(1,0,0,1,389,281.6238)"/>
    <path fill="none" stroke="#000000" d="M270.46293452,-13.84665232L242.48718892,2.30449542M277.12960119,-9.9975723L242.48718892,10.00242079" stroke-width="1.6" stroke-linecap="round" stroke-linejoin="round" style="-webkit-tap-highlight-color: rgba(0, 0, 0, 0); stroke-linecap: round; stroke-linejoin: round;" transform="matrix(1,0,0,1,389,281.6238)"/>
    <path fill="none" stroke="#000000" d="M207.84477665,-9.9975723L242.48718892,10.00242079" stroke-width="1.6" stroke-linecap="round" stroke-linejoin="round" style="-webkit-tap-highlight-color: rgba(0, 0, 0, 0); stroke-linecap: round; stroke-linejoin: round;" transform="matrix(1,0,0,1,389,281.6238)"/>
    <path fill="none" stroke="#000000" d="M242.48718892,10.00242079L242.48718892,33.284375" stroke-width="1.6" stroke-linecap="round" stroke-linejoin="round" style="-webkit-tap-highlight-color: rgba(0, 0, 0, 0); stroke-linecap: round; stroke-linejoin: round;" transform="matrix(1,0,0,1,389,281.6238)"/>
    <path fill="none" stroke="#000000" d="M141.89813393,-9.9975723L141.89813393,-33.3M135.23146726,-9.9975723L135.23146726,-33.3" stroke-width="1.6" stroke-linecap="round" stroke-linejoin="round" style="-webkit-tap-highlight-color: rgba(0, 0, 0, 0); stroke-linecap: round; stroke-linejoin: round;" transform="matrix(1,0,0,1,389,281.6238)"/>
    <path fill="none" stroke="#000000" d="M103.92238832,10.00242079L81.39630945,-3.00248829" stroke-width="1.6" stroke-linecap="round" stroke-linejoin="round" style="-webkit-tap-highlight-color: rgba(0, 0, 0, 0); stroke-linecap: round; stroke-linejoin: round;" transform="matrix(1,0,0,1,389,281.6238)"/>
    <path fill="none" stroke="#000000" d="M57.16628752,-3.0030363L34.64241227,10.00242079" stroke-width="1.6" stroke-linecap="round" stroke-linejoin="round" style="-webkit-tap-highlight-color: rgba(0, 0, 0, 0); stroke-linecap: round; stroke-linejoin: round;" transform="matrix(1,0,0,1,389,281.6238)"/>
    <path fill="none" stroke="#000000" d="M34.64241227,10.00242079L0,-9.9975723M27.9757456,13.85150081L0,-2.29964694" stroke-width="1.6" stroke-linecap="round" stroke-linejoin="round" style="-webkit-tap-highlight-color: rgba(0, 0, 0, 0); stroke-linecap: round; stroke-linejoin: round;" transform="matrix(1,0,0,1,389,281.6238)"/>
    <path fill="none" stroke="#000000" d="M0,-9.9975723L0,-33.3" stroke-width="1.6" stroke-linecap="round" stroke-linejoin="round" style="-webkit-tap-highlight-color: rgba(0, 0, 0, 0); stroke-linecap: round; stroke-linejoin: round;" transform="matrix(1,0,0,1,389,281.6238)"/>
    <path fill="none" stroke="#000000" d="M0,-9.9975723L-34.64241227,10.00242079" stroke-width="1.6" stroke-linecap="round" stroke-linejoin="round" style="-webkit-tap-highlight-color: rgba(0, 0, 0, 0); stroke-linecap: round; stroke-linejoin: round;" transform="matrix(1,0,0,1,389,281.6238)"/>
    <path fill="none" stroke="#000000" d="M-34.64241227,10.00242079L-57.16628752,-3.0030363" stroke-width="1.6" stroke-linecap="round" stroke-linejoin="round" style="-webkit-tap-highlight-color: rgba(0, 0, 0, 0); stroke-linecap: round; stroke-linejoin: round;" transform="matrix(1,0,0,1,389,281.6238)"/>
    <path fill="none" stroke="#000000" d="M-81.39630945,-3.00248829L-103.92238832,10.00242079" stroke-width="1.6" stroke-linecap="round" stroke-linejoin="round" style="-webkit-tap-highlight-color: rgba(0, 0, 0, 0); stroke-linecap: round; stroke-linejoin: round;" transform="matrix(1,0,0,1,389,281.6238)"/>
    <path fill="none" stroke="#000000" d="M-103.92238832,10.00242079L-138.56480059,-9.9975723" stroke-width="1.6" stroke-linecap="round" stroke-linejoin="round" style="-webkit-tap-highlight-color: rgba(0, 0, 0, 0); stroke-linecap: round; stroke-linejoin: round;" transform="matrix(1,0,0,1,389,281.6238)"/>
    <path fill="none" stroke="#000000" d="M-138.56480059,-9.9975723L-161.75994055,3.39360367" stroke-width="1.6" stroke-linecap="round" stroke-linejoin="round" style="-webkit-tap-highlight-color: rgba(0, 0, 0, 0); stroke-linecap: round; stroke-linejoin: round;" transform="matrix(1,0,0,1,389,281.6238)"/>
    <path fill="none" stroke="#000000" d="M-199.39004209,-5.11574419L-207.84477665,-9.9975723" stroke-width="1.6" stroke-linecap="round" stroke-linejoin="round" style="-webkit-tap-highlight-color: rgba(0, 0, 0, 0); stroke-linecap: round; stroke-linejoin: round;" transform="matrix(1,0,0,1,389,281.6238)"/>
    <path fill="none" stroke="#000000" d="M-214.51144332,-13.84665232L-242.48718892,2.30449542M-207.84477665,-9.9975723L-242.48718892,10.00242079" stroke-width="1.6" stroke-linecap="round" stroke-linejoin="round" style="-webkit-tap-highlight-color: rgba(0, 0, 0, 0); stroke-linecap: round; stroke-linejoin: round;" transform="matrix(1,0,0,1,389,281.6238)"/>
    <path fill="none" stroke="#000000" d="M-242.48718892,10.00242079L-242.48718892,33.284375" stroke-width="1.6" stroke-linecap="round" stroke-linejoin="round" style="-webkit-tap-highlight-color: rgba(0, 0, 0, 0); stroke-linecap: round; stroke-linejoin: round;" transform="matrix(1,0,0,1,389,281.6238)"/>
    <path fill="none" stroke="#000000" d="M-242.48718892,10.00242079L-277.12960119,-9.9975723" stroke-width="1.6" stroke-linecap="round" stroke-linejoin="round" style="-webkit-tap-highlight-color: rgba(0, 0, 0, 0); stroke-linecap: round; stroke-linejoin: round;" transform="matrix(1,0,0,1,389,281.6238)"/>
    <path fill="none" stroke="#000000" d="M-270.46293452,-13.84665232L-270.46293452,-46.15286036M-277.12960119,-9.9975723L-277.12960119,-50.00240696" stroke-width="1.6" stroke-linecap="round" stroke-linejoin="round" style="-webkit-tap-highlight-color: rgba(0, 0, 0, 0); stroke-linecap: round; stroke-linejoin: round;" transform="matrix(1,0,0,1,389,281.6238)"/>
    <path fill="none" stroke="#000000" d="M-277.12960119,-50.00240696L-300.32253752,-63.39418501" stroke-width="1.6" stroke-linecap="round" stroke-linejoin="round" style="-webkit-tap-highlight-color: rgba(0, 0, 0, 0); stroke-linecap: round; stroke-linejoin: round;" transform="matrix(1,0,0,1,389,281.6238)"/>
    <path fill="none" stroke="#000000" d="M-277.12960119,-50.00240696L-242.48718892,-69.99755157" stroke-width="1.6" stroke-linecap="round" stroke-linejoin="round" style="-webkit-tap-highlight-color: rgba(0, 0, 0, 0); stroke-linecap: round; stroke-linejoin: round;" transform="matrix(1,0,0,1,389,281.6238)"/>
    <path fill="none" stroke="#000000" d="M-242.48759296,-62.29985946L-214.51144332,-46.14847846M-242.48718892,-69.99755157L-207.84477665,-49.99755848" stroke-width="1.6" stroke-linecap="round" stroke-linejoin="round" style="-webkit-tap-highlight-color: rgba(0, 0, 0, 0); stroke-linecap: round; stroke-linejoin: round;" transform="matrix(1,0,0,1,389,281.6238)"/>
    <path fill="none" stroke="#000000" d="M-207.84477665,-9.9975723L-207.84477665,-49.99755848" stroke-width="1.6" stroke-linecap="round" stroke-linejoin="round" style="-webkit-tap-highlight-color: rgba(0, 0, 0, 0); stroke-linecap: round; stroke-linejoin: round;" transform="matrix(1,0,0,1,389,281.6238)"/>
    <path fill="none" stroke="#000000" d="M-207.84477665,-49.99755848L-184.64621248,-63.39258608" stroke-width="1.6" stroke-linecap="round" stroke-linejoin="round" style="-webkit-tap-highlight-color: rgba(0, 0, 0, 0); stroke-linecap: round; stroke-linejoin: round;" transform="matrix(1,0,0,1,389,281.6238)"/>
    <path fill="none" stroke="#000000" d="M-135.23146726,-9.9975723L-135.23146726,-33.3M-141.89813393,-9.9975723L-141.89813393,-33.3" stroke-width="1.6" stroke-linecap="round" stroke-linejoin="round" style="-webkit-tap-highlight-color: rgba(0, 0, 0, 0); stroke-linecap: round; stroke-linejoin: round;" transform="matrix(1,0,0,1,389,281.6238)"/>
    <path fill="none" stroke="#000000" d="M-104.23349944,10.00242079L-103.61127721,10.00242079M-104.85572166,13.35698567L-102.98905499,13.35698567M-105.47794388,16.71155056L-102.36683277,16.71155056M-106.1001661,20.06611545L-101.74461055,20.06611545M-106.72238832,23.42068034L-101.12238832,23.42068034M-107.34461055,26.77524522L-100.5001661,26.77524522M-107.96683277,30.12981011L-99.87794388,30.12981011M-108.58905499,33.484375L-99.25572166,33.484375" stroke-width="1.6" stroke-linecap="round" stroke-linejoin="round" style="-webkit-tap-highlight-color: rgba(0, 0, 0, 0); stroke-linecap: round; stroke-linejoin: round;" transform="matrix(1,0,0,1,389,281.6238)"/>
    <path fill="none" stroke="#000000" d="M-34.64241227,10.00242079L-34.64241227,50.00240696M-27.9757456,13.85150081L-27.9757456,46.15332694" stroke-width="1.6" stroke-linecap="round" stroke-linejoin="round" style="-webkit-tap-highlight-color: rgba(0, 0, 0, 0); stroke-linecap: round; stroke-linejoin: round;" transform="matrix(1,0,0,1,389,281.6238)"/>
    <path fill="none" stroke="#000000" d="M-34.64241227,50.00240696L0,70.00240005" stroke-width="1.6" stroke-linecap="round" stroke-linejoin="round" style="-webkit-tap-highlight-color: rgba(0, 0, 0, 0); stroke-linecap: round; stroke-linejoin: round;" transform="matrix(1,0,0,1,389,281.6238)"/>
    <path fill="none" stroke="#000000" d="M0,70.00240005L34.64241227,50.00240696M0,62.30447468L27.9757456,46.15332694" stroke-width="1.6" stroke-linecap="round" stroke-linejoin="round" style="-webkit-tap-highlight-color: rgba(0, 0, 0, 0); stroke-linecap: round; stroke-linejoin: round;" transform="matrix(1,0,0,1,389,281.6238)"/>
    <path fill="none" stroke="#000000" d="M34.64241227,10.00242079L34.64241227,50.00240696" stroke-width="1.6" stroke-linecap="round" stroke-linejoin="round" style="-webkit-tap-highlight-color: rgba(0, 0, 0, 0); stroke-linecap: round; stroke-linejoin: round;" transform="matrix(1,0,0,1,389,281.6238)"/>
    <text x="257.208" y="-97.752" text-anchor="middle" font="30px &quot;Arial&quot;" stroke="none" fill="#000000" style="-webkit-tap-highlight-color: rgba(0, 0, 0, 0); text-anchor: middle; font: 24px Arial;" font-size="24px" transform="matrix(1,0,0,1,389,281.6238)">
      <tspan dy="8.505812500000005" style="-webkit-tap-highlight-color: rgba(0, 0, 0, 0);">Chiral</tspan>
    </text>
  </g>
</svg>
