
<svg version="1.1" id="topsvg" xmlns="http://www.w3.org/2000/svg" x="0" y="0" width="200px" height="200px" viewBox="0 0 100 100" xmlns:xlink="http://www.w3.org/1999/xlink">
<title> - Open Babel Depiction</title>
<rect x="0" y="0" width="100" height="100" fill="white"></rect>
<g transform="translate(0,0)">
<svg width="100" height="100" x="0" y="0" viewBox="0 0 322.483 279.974" font-family="sans-serif" stroke="#000000" stroke-width="2" stroke-linecap="round">
<line x1="143.9" y1="160.0" x2="109.3" y2="180.0" opacity="1.0" stroke="#000000" stroke-width="2.0"></line>
<line x1="109.3" y1="180.0" x2="85.9" y2="166.5" opacity="1.0" stroke="#000000" stroke-width="2.0"></line>
<line x1="112.3" y1="180.0" x2="112.3" y2="207.0" opacity="1.0" stroke="#000000" stroke-width="2.0"></line>
<line x1="106.3" y1="180.0" x2="106.3" y2="207.0" opacity="1.0" stroke="#000000" stroke-width="2.0"></line>
<line x1="63.4" y1="166.5" x2="51.3" y2="173.5" opacity="1.0" stroke="#000000" stroke-width="2.0"></line>
<line x1="246.3" y1="177.4" x2="269.7" y2="163.9" opacity="1.0" stroke="#000000" stroke-width="2.0"></line>
<line x1="249.3" y1="182.6" x2="272.7" y2="169.1" opacity="1.0" stroke="#000000" stroke-width="2.0"></line>
<line x1="146.9" y1="120.0" x2="146.9" y2="160.0" opacity="1.0" stroke="#000000" stroke-width="2.0"></line>
<line x1="140.9" y1="120.0" x2="140.9" y2="160.0" opacity="1.0" stroke="#000000" stroke-width="2.0"></line>
<line x1="178.6" y1="180.0" x2="143.9" y2="160.0" opacity="1.0" stroke="#000000" stroke-width="2.0"></line>
<line x1="213.2" y1="160.0" x2="247.8" y2="180.0" opacity="1.0" stroke="#000000" stroke-width="2.0"></line>
<line x1="247.8" y1="180.0" x2="247.8" y2="220.0" opacity="1.0" stroke="#000000" stroke-width="2.0"></line>
<line x1="247.8" y1="220.0" x2="213.2" y2="240.0" opacity="1.0" stroke="#000000" stroke-width="2.0"></line>
<line x1="213.2" y1="240.0" x2="178.6" y2="220.0" opacity="1.0" stroke="#000000" stroke-width="2.0"></line>
<line x1="178.6" y1="220.0" x2="178.6" y2="180.0" opacity="1.0" stroke="#000000" stroke-width="2.0"></line>
<line x1="178.6" y1="180.0" x2="213.2" y2="160.0" opacity="1.0" stroke="#000000" stroke-width="2.0"></line>
<line x1="109.3" y1="87.0" x2="109.3" y2="60.0" opacity="1.0" stroke="#000000" stroke-width="2.0"></line>
<line x1="109.3" y1="60.0" x2="143.9" y2="40.0" opacity="1.0" stroke="#000000" stroke-width="2.0"></line>
<line x1="143.9" y1="40.0" x2="178.6" y2="60.0" opacity="1.0" stroke="#000000" stroke-width="2.0"></line>
<line x1="178.6" y1="60.0" x2="178.6" y2="87.0" opacity="1.0" stroke="#000000" stroke-width="2.0"></line>
<line x1="167.3" y1="106.5" x2="143.9" y2="120.0" opacity="1.0" stroke="#000000" stroke-width="2.0"></line>
<line x1="143.9" y1="120.0" x2="120.6" y2="106.5" opacity="1.0" stroke="#000000" stroke-width="2.0"></line>
<text x="172.577552" y="108.000672" fill="#000000" stroke="#000000" stroke-width="1" font-size="16">S</text>
<text x="103.292776" y="108.000672" fill="#000000" stroke="#000000" stroke-width="1" font-size="16">S</text>
<text x="276.482716" y="167.977344" fill="#000000" stroke="#000000" stroke-width="1" font-size="16">O</text>
<text x="14.000000" y="187.977568" fill="#000000" stroke="#000000" stroke-width="1" font-size="16">H</text>
<text x="26.000000" y="191.657568" fill="#000000" stroke="#000000" stroke-width="1" font-size="13">3</text>
<text x="32.500000" y="187.977568" fill="#000000" stroke="#000000" stroke-width="1" font-size="16">C</text>
<text x="103.308776" y="227.994016" fill="#000000" stroke="#000000" stroke-width="1" font-size="16">O</text>
<text x="68.656388" y="167.969344" fill="#000000" stroke="#000000" stroke-width="1" font-size="16">O</text>
</svg>
</g>
</svg>
