
<svg version="1.1" id="topsvg" xmlns="http://www.w3.org/2000/svg" x="0" y="0" width="200px" height="200px" viewBox="0 0 100 100" xmlns:xlink="http://www.w3.org/1999/xlink">
<title> - Open Babel Depiction</title>
<rect x="0" y="0" width="100" height="100" fill="white"></rect>
<g transform="translate(0,0)">
<svg width="100" height="100" x="0" y="0" viewBox="0 0 253.205 360.001" font-family="sans-serif" stroke="#000000" stroke-width="2" stroke-linecap="round">
<line x1="109.3" y1="200.0" x2="109.3" y2="173.0" opacity="1.0" stroke="#000000" stroke-width="2.0"></line>
<line x1="74.6" y1="220.0" x2="51.3" y2="206.5" opacity="1.0" stroke="#000000" stroke-width="2.0"></line>
<line x1="109.3" y1="280.0" x2="109.3" y2="307.0" opacity="1.0" stroke="#000000" stroke-width="2.0"></line>
<line x1="143.9" y1="220.0" x2="178.6" y2="200.0" opacity="1.0" stroke="#000000" stroke-width="2.0"></line>
<line x1="119.0" y1="150.9" x2="131.2" y2="143.9" opacity="1.0" stroke="#000000" stroke-width="2.0"></line>
<line x1="122.0" y1="156.1" x2="134.2" y2="149.1" opacity="1.0" stroke="#000000" stroke-width="2.0"></line>
<line x1="143.9" y1="127.0" x2="143.9" y2="113.0" opacity="1.0" stroke="#000000" stroke-width="2.0"></line>
<line x1="155.2" y1="93.5" x2="178.6" y2="80.0" opacity="1.0" stroke="#000000" stroke-width="2.0"></line>
<line x1="132.7" y1="93.5" x2="109.3" y2="80.0" opacity="1.0" stroke="#000000" stroke-width="2.0"></line>
<line x1="109.3" y1="80.0" x2="109.3" y2="53.0" opacity="1.0" stroke="#000000" stroke-width="2.0"></line>
<line x1="109.3" y1="80.0" x2="85.9" y2="93.5" opacity="1.0" stroke="#000000" stroke-width="2.0"></line>
<line x1="178.6" y1="80.0" x2="201.9" y2="93.5" opacity="1.0" stroke="#000000" stroke-width="2.0"></line>
<line x1="178.6" y1="80.0" x2="178.6" y2="53.0" opacity="1.0" stroke="#000000" stroke-width="2.0"></line>
<line x1="178.6" y1="200.0" x2="201.9" y2="186.5" opacity="1.0" stroke="#000000" stroke-width="2.0"></line>
<line x1="176.5" y1="196.4" x2="199.8" y2="182.9" opacity="1.0" stroke="#000000" stroke-width="2.0"></line>
<line x1="180.7" y1="203.6" x2="204.0" y2="190.1" opacity="1.0" stroke="#000000" stroke-width="2.0"></line>
<line x1="143.9" y1="220.0" x2="143.9" y2="260.0" opacity="1.0" stroke="#000000" stroke-width="2.0"></line>
<line x1="136.7" y1="226.0" x2="136.7" y2="254.0" opacity="1.0" stroke="#000000" stroke-width="2.0"></line>
<line x1="143.9" y1="260.0" x2="109.3" y2="280.0" opacity="1.0" stroke="#000000" stroke-width="2.0"></line>
<line x1="109.3" y1="280.0" x2="74.6" y2="260.0" opacity="1.0" stroke="#000000" stroke-width="2.0"></line>
<line x1="107.7" y1="270.8" x2="83.4" y2="256.8" opacity="1.0" stroke="#000000" stroke-width="2.0"></line>
<line x1="74.6" y1="260.0" x2="74.6" y2="220.0" opacity="1.0" stroke="#000000" stroke-width="2.0"></line>
<line x1="74.6" y1="220.0" x2="109.3" y2="200.0" opacity="1.0" stroke="#000000" stroke-width="2.0"></line>
<line x1="83.4" y1="223.2" x2="107.7" y2="209.2" opacity="1.0" stroke="#000000" stroke-width="2.0"></line>
<line x1="109.3" y1="200.0" x2="143.9" y2="220.0" opacity="1.0" stroke="#000000" stroke-width="2.0"></line>
<text x="207.204828" y="188.000669" fill="#000000" stroke="#000000" stroke-width="1" font-size="16">N</text>
<text x="174.564662" y="48.000000" fill="#000000" stroke="#000000" stroke-width="1" font-size="16">CH</text>
<text x="198.564662" y="51.680000" fill="#000000" stroke="#000000" stroke-width="1" font-size="13">3</text>
<text x="209.204828" y="108.000287" fill="#000000" stroke="#000000" stroke-width="1" font-size="16">CH</text>
<text x="233.204828" y="111.680287" fill="#000000" stroke="#000000" stroke-width="1" font-size="13">3</text>
<text x="48.640166" y="108.000287" fill="#000000" stroke="#000000" stroke-width="1" font-size="16">H</text>
<text x="60.640166" y="111.680287" fill="#000000" stroke="#000000" stroke-width="1" font-size="13">3</text>
<text x="67.140166" y="108.000287" fill="#000000" stroke="#000000" stroke-width="1" font-size="16">C</text>
<text x="105.280331" y="48.000000" fill="#000000" stroke="#000000" stroke-width="1" font-size="16">CH</text>
<text x="129.280331" y="51.680000" fill="#000000" stroke="#000000" stroke-width="1" font-size="13">3</text>
<text x="137.920497" y="108.000287" fill="#000000" stroke="#000000" stroke-width="1" font-size="16">N</text>
<text x="137.920497" y="148.000478" fill="#000000" stroke="#000000" stroke-width="1" font-size="16">N</text>
<text x="103.280331" y="328.001338" fill="#000000" stroke="#000000" stroke-width="1" font-size="16">Br</text>
<text x="22.000000" y="208.000765" fill="#000000" stroke="#000000" stroke-width="1" font-size="16">Br</text>
<text x="103.280331" y="168.000573" fill="#000000" stroke="#000000" stroke-width="1" font-size="16">N</text>
</svg>
</g>
</svg>
