<?xml version="1.0"?>
<svg xmlns="http://www.w3.org/2000/svg" height="206.34541375999999" version="1.1" width="592.5581228632897" style="overflow: hidden; position: relative;" viewBox="0 0 612 226">
  <g transform="translate(-126, -155)">
    <defs style="-webkit-tap-highlight-color: rgba(0, 0, 0, 0);"/>
    <text x="-35.44725751978643" y="-92.09341376344236" text-anchor="middle" font="30px &quot;Arial&quot;" stroke="none" fill="#000000" style="-webkit-tap-highlight-color: rgba(0, 0, 0, 0); text-anchor: middle; font: 24px Arial;" font-size="24px" transform="matrix(1,0,0,1,377.5413,278.8283)">
      <tspan dy="8.492523736557644" style="-webkit-tap-highlight-color: rgba(0, 0, 0, 0);">O</tspan>
    </text>
    <text x="-35.44725751978643" y="-92.09341376344236" text-anchor="middle" font="30px &quot;Arial&quot;" stroke="none" fill="#000000" style="-webkit-tap-highlight-color: rgba(0, 0, 0, 0); text-anchor: middle; font: 24px Arial;" font-size="24px" transform="matrix(1,0,0,1,396.3569,278.8283)">
      <tspan dy="8.492523736557644" style="-webkit-tap-highlight-color: rgba(0, 0, 0, 0);">H</tspan>
    </text>
    <text x="-106.33681143164486" y="-51.164110119182304" text-anchor="middle" font="30px &quot;Arial&quot;" stroke="none" fill="#000000" style="-webkit-tap-highlight-color: rgba(0, 0, 0, 0); text-anchor: middle; font: 24px Arial;" font-size="24px" transform="matrix(1,0,0,1,377.5413,278.8283)">
      <tspan dy="8.499952380817696" style="-webkit-tap-highlight-color: rgba(0, 0, 0, 0);">N</tspan>
    </text>
    <text x="-212.67362286328972" y="10.229845347207785" text-anchor="middle" font="30px &quot;Arial&quot;" stroke="none" fill="#000000" style="-webkit-tap-highlight-color: rgba(0, 0, 0, 0); text-anchor: middle; font: 24px Arial;" font-size="24px" transform="matrix(1,0,0,1,377.5413,278.8283)">
      <tspan dy="8.503282847207785" style="-webkit-tap-highlight-color: rgba(0, 0, 0, 0);">C</tspan>
    </text>
    <text x="-212.67362286328972" y="10.229845347207785" text-anchor="middle" font="30px &quot;Arial&quot;" stroke="none" fill="#000000" style="-webkit-tap-highlight-color: rgba(0, 0, 0, 0); text-anchor: middle; font: 24px Arial;" font-size="24px" transform="matrix(1,0,0,1,349.1288,278.8283)">
      <tspan dy="8.503282847207785" style="-webkit-tap-highlight-color: rgba(0, 0, 0, 0);">H</tspan>
    </text>
    <text x="-212.67362286328972" y="10.229845347207785" text-anchor="middle" font="30px &quot;Arial&quot;" stroke="none" fill="#000000" style="-webkit-tap-highlight-color: rgba(0, 0, 0, 0); text-anchor: middle; font: 17px Arial;" font-size="17px" transform="matrix(1,0,0,1,363.3351,284.2314)">
      <tspan dy="5.503282847207785" style="-webkit-tap-highlight-color: rgba(0, 0, 0, 0);">2</tspan>
    </text>
    <text x="70.88955391185841" y="10.229845347207785" text-anchor="middle" font="30px &quot;Arial&quot;" stroke="none" fill="#000000" style="-webkit-tap-highlight-color: rgba(0, 0, 0, 0); text-anchor: middle; font: 24px Arial;" font-size="24px" transform="matrix(1,0,0,1,377.5413,278.8283)">
      <tspan dy="8.503282847207785" style="-webkit-tap-highlight-color: rgba(0, 0, 0, 0);">N</tspan>
    </text>
    <text x="70.88955391185841" y="10.229845347207785" text-anchor="middle" font="30px &quot;Arial&quot;" stroke="none" fill="#000000" style="-webkit-tap-highlight-color: rgba(0, 0, 0, 0); text-anchor: middle; font: 17px Arial;" font-size="17px" transform="matrix(1,0,0,1,392.021,270.7236)">
      <tspan dy="5.503282847207785" style="-webkit-tap-highlight-color: rgba(0, 0, 0, 0);">+</tspan>
    </text>
    <text x="70.88955391185841" y="51.164110119182304" text-anchor="middle" font="30px &quot;Arial&quot;" stroke="none" fill="#000000" style="-webkit-tap-highlight-color: rgba(0, 0, 0, 0); text-anchor: middle; font: 24px Arial;" font-size="24px" transform="matrix(1,0,0,1,377.5413,278.8283)">
      <tspan dy="8.500047619182304" style="-webkit-tap-highlight-color: rgba(0, 0, 0, 0);">Cl</tspan>
    </text>
    <text x="70.88955391185841" y="51.164110119182304" text-anchor="middle" font="30px &quot;Arial&quot;" stroke="none" fill="#000000" style="-webkit-tap-highlight-color: rgba(0, 0, 0, 0); text-anchor: middle; font: 17px Arial;" font-size="17px" transform="matrix(1,0,0,1,394.6929,270.7236)">
      <tspan dy="5.500047619182304" style="-webkit-tap-highlight-color: rgba(0, 0, 0, 0);">&#x2013;</tspan>
    </text>
    <path fill="none" stroke="#000000" d="M-35.13614641,-51.16411012L-35.75836863,-51.16411012M-34.51392419,-54.65405867L-36.38059085,-54.65405867M-33.89170196,-58.14400723L-37.00281308,-58.14400723M-33.26947974,-61.63395578L-37.6250353,-61.63395578M-32.64725752,-65.12390434L-38.24725752,-65.12390434M-32.0250353,-68.61385289L-38.86947974,-68.61385289M-31.40281308,-72.10380145L-39.49170196,-72.10380145M-30.78059085,-75.59375L-40.11392419,-75.59375" stroke-width="1.6" stroke-linecap="round" stroke-linejoin="round" style="-webkit-tap-highlight-color: rgba(0, 0, 0, 0); stroke-linecap: round; stroke-linejoin: round;" transform="matrix(1,0,0,1,377.5413,278.8283)"/>
    <path fill="none" stroke="#000000" d="M-35.44725752,-51.16411012L-70.88955391,-30.6994583" stroke-width="1.6" stroke-linecap="round" stroke-linejoin="round" style="-webkit-tap-highlight-color: rgba(0, 0, 0, 0); stroke-linecap: round; stroke-linejoin: round;" transform="matrix(1,0,0,1,377.5413,278.8283)"/>
    <path fill="#000000" stroke="#000000" d="M-70.88955391,-30.6994583L-75.55622058,10.22984535L-66.22288725,10.22984535Z" stroke-width="1.6" stroke-linecap="round" stroke-linejoin="round" style="-webkit-tap-highlight-color: rgba(0, 0, 0, 0); stroke-linecap: round; stroke-linejoin: round;" transform="matrix(1,0,0,1,377.5413,278.8283)"/>
    <path fill="none" stroke="#000000" d="M-70.88955391,10.22984535L-106.33681143,30.6994583" stroke-width="1.6" stroke-linecap="round" stroke-linejoin="round" style="-webkit-tap-highlight-color: rgba(0, 0, 0, 0); stroke-linecap: round; stroke-linejoin: round;" transform="matrix(1,0,0,1,377.5413,278.8283)"/>
    <path fill="none" stroke="#000000" d="M-106.33681143,30.6994583L-141.78406895,10.22984535" stroke-width="1.6" stroke-linecap="round" stroke-linejoin="round" style="-webkit-tap-highlight-color: rgba(0, 0, 0, 0); stroke-linecap: round; stroke-linejoin: round;" transform="matrix(1,0,0,1,377.5413,278.8283)"/>
    <path fill="none" stroke="#000000" d="M-141.78406895,10.22984535L-141.78406895,-30.6994583" stroke-width="1.6" stroke-linecap="round" stroke-linejoin="round" style="-webkit-tap-highlight-color: rgba(0, 0, 0, 0); stroke-linecap: round; stroke-linejoin: round;" transform="matrix(1,0,0,1,377.5413,278.8283)"/>
    <path fill="none" stroke="#000000" d="M-141.78406895,-30.6994583L-117.78693445,-44.55364721" stroke-width="1.6" stroke-linecap="round" stroke-linejoin="round" style="-webkit-tap-highlight-color: rgba(0, 0, 0, 0); stroke-linecap: round; stroke-linejoin: round;" transform="matrix(1,0,0,1,377.5413,278.8283)"/>
    <path fill="none" stroke="#000000" d="M-70.88955391,-30.6994583L-94.88494055,-44.55263813" stroke-width="1.6" stroke-linecap="round" stroke-linejoin="round" style="-webkit-tap-highlight-color: rgba(0, 0, 0, 0); stroke-linecap: round; stroke-linejoin: round;" transform="matrix(1,0,0,1,377.5413,278.8283)"/>
    <path fill="none" stroke="#000000" d="M-117.33980978,-35.77897999L-116.22862256,-35.04206701M-120.66105999,-33.18335062L-117.32749834,-30.97261166M-123.9823102,-30.58772124L-118.42637413,-26.90315631M-127.30356042,-27.99209187L-119.52524991,-22.83370096" stroke-width="1.6" stroke-linecap="round" stroke-linejoin="round" style="-webkit-tap-highlight-color: rgba(0, 0, 0, 0); stroke-linecap: round; stroke-linejoin: round;" transform="matrix(1,0,0,1,377.5413,278.8283)"/>
    <path fill="none" stroke="#000000" d="M-123.30386822,-25.5795745L-123.30386822,5.11492267" stroke-width="1.6" stroke-linecap="round" stroke-linejoin="round" style="-webkit-tap-highlight-color: rgba(0, 0, 0, 0); stroke-linecap: round; stroke-linejoin: round;" transform="matrix(1,0,0,1,377.5413,278.8283)"/>
    <path fill="none" stroke="#000000" d="M-106.13211905,30.56371117L-106.54150381,30.83520543M-107.6202447,27.43097094L-108.84839899,28.24545372M-109.10837035,24.29823072L-111.15529417,25.65570201M-110.596496,21.16549049L-113.46218935,23.0659503M-112.08462165,18.03275026L-115.76908453,20.47619859M-113.57274731,14.90001004L-118.0759797,17.88644688M-115.06087296,11.76726981L-120.38287488,15.29669517M-116.54899861,8.63452959L-122.68977006,12.70694346M-118.03712426,5.50178936L-124.99666524,10.11719176M-119.52524991,2.36904914L-127.30356042,7.52744005" stroke-width="1.6" stroke-linecap="round" stroke-linejoin="round" style="-webkit-tap-highlight-color: rgba(0, 0, 0, 0); stroke-linecap: round; stroke-linejoin: round;" transform="matrix(1,0,0,1,377.5413,278.8283)"/>
    <path fill="#000000" stroke="#000000" d="M-141.78406895,10.22984535L-179.56501287,26.65821028L-174.89764007,34.74070632Z" stroke-width="1.6" stroke-linecap="round" stroke-linejoin="round" style="-webkit-tap-highlight-color: rgba(0, 0, 0, 0); stroke-linecap: round; stroke-linejoin: round;" transform="matrix(1,0,0,1,377.5413,278.8283)"/>
    <path fill="none" stroke="#000000" d="M-177.23109314,23.00093164L-197.89476785,11.06667606M-177.23132647,30.6994583L-201.22895551,16.83968543" stroke-width="1.6" stroke-linecap="round" stroke-linejoin="round" style="-webkit-tap-highlight-color: rgba(0, 0, 0, 0); stroke-linecap: round; stroke-linejoin: round;" transform="matrix(1,0,0,1,377.5413,278.8283)"/>
    <path fill="none" stroke="#000000" d="M-35.44725752,-51.16411012L0,-30.6994583" stroke-width="1.6" stroke-linecap="round" stroke-linejoin="round" style="-webkit-tap-highlight-color: rgba(0, 0, 0, 0); stroke-linecap: round; stroke-linejoin: round;" transform="matrix(1,0,0,1,377.5413,278.8283)"/>
    <path fill="none" stroke="#000000" d="M6.66666667,-26.85037828L35.44702423,-43.46605007M0,-30.6994583L35.44725752,-51.16411012" stroke-width="1.6" stroke-linecap="round" stroke-linejoin="round" style="-webkit-tap-highlight-color: rgba(0, 0, 0, 0); stroke-linecap: round; stroke-linejoin: round;" transform="matrix(1,0,0,1,377.5413,278.8283)"/>
    <path fill="none" stroke="#000000" d="M35.44725752,-51.16411012L70.88955391,-30.6994583" stroke-width="1.6" stroke-linecap="round" stroke-linejoin="round" style="-webkit-tap-highlight-color: rgba(0, 0, 0, 0); stroke-linecap: round; stroke-linejoin: round;" transform="matrix(1,0,0,1,377.5413,278.8283)"/>
    <path fill="none" stroke="#000000" d="M64.22288725,-26.85064765L64.22288725,-6.48125M70.88955391,-30.6994583L70.88955391,-6.48125" stroke-width="1.6" stroke-linecap="round" stroke-linejoin="round" style="-webkit-tap-highlight-color: rgba(0, 0, 0, 0); stroke-linecap: round; stroke-linejoin: round;" transform="matrix(1,0,0,1,377.5413,278.8283)"/>
    <path fill="none" stroke="#000000" d="M82.3336415,16.83842553L106.33681143,30.6994583" stroke-width="1.6" stroke-linecap="round" stroke-linejoin="round" style="-webkit-tap-highlight-color: rgba(0, 0, 0, 0); stroke-linecap: round; stroke-linejoin: round;" transform="matrix(1,0,0,1,377.5413,278.8283)"/>
    <path fill="none" stroke="#000000" d="M106.33681143,30.6994583L141.78406895,10.22984535" stroke-width="1.6" stroke-linecap="round" stroke-linejoin="round" style="-webkit-tap-highlight-color: rgba(0, 0, 0, 0); stroke-linecap: round; stroke-linejoin: round;" transform="matrix(1,0,0,1,377.5413,278.8283)"/>
    <path fill="none" stroke="#000000" d="M148.45073562,6.38123183L148.45073562,-26.85037828M141.78406895,10.22984535L141.78406895,-30.6994583" stroke-width="1.6" stroke-linecap="round" stroke-linejoin="round" style="-webkit-tap-highlight-color: rgba(0, 0, 0, 0); stroke-linecap: round; stroke-linejoin: round;" transform="matrix(1,0,0,1,377.5413,278.8283)"/>
    <path fill="none" stroke="#000000" d="M141.78406895,-30.6994583L177.23132647,-51.16411012" stroke-width="1.6" stroke-linecap="round" stroke-linejoin="round" style="-webkit-tap-highlight-color: rgba(0, 0, 0, 0); stroke-linecap: round; stroke-linejoin: round;" transform="matrix(1,0,0,1,377.5413,278.8283)"/>
    <path fill="none" stroke="#000000" d="M177.23109319,-43.46605007L206.0069562,-26.85064765M177.23132647,-51.16411012L212.67362286,-30.6994583" stroke-width="1.6" stroke-linecap="round" stroke-linejoin="round" style="-webkit-tap-highlight-color: rgba(0, 0, 0, 0); stroke-linecap: round; stroke-linejoin: round;" transform="matrix(1,0,0,1,377.5413,278.8283)"/>
    <path fill="none" stroke="#000000" d="M212.67362286,-30.6994583L212.67362286,10.22984535" stroke-width="1.6" stroke-linecap="round" stroke-linejoin="round" style="-webkit-tap-highlight-color: rgba(0, 0, 0, 0); stroke-linecap: round; stroke-linejoin: round;" transform="matrix(1,0,0,1,377.5413,278.8283)"/>
    <path fill="none" stroke="#000000" d="M206.0069562,6.38150121L177.23109314,23.00093164M212.67362286,10.22984535L177.23132647,30.6994583" stroke-width="1.6" stroke-linecap="round" stroke-linejoin="round" style="-webkit-tap-highlight-color: rgba(0, 0, 0, 0); stroke-linecap: round; stroke-linejoin: round;" transform="matrix(1,0,0,1,377.5413,278.8283)"/>
    <path fill="none" stroke="#000000" d="M141.78406895,10.22984535L177.23132647,30.6994583" stroke-width="1.6" stroke-linecap="round" stroke-linejoin="round" style="-webkit-tap-highlight-color: rgba(0, 0, 0, 0); stroke-linecap: round; stroke-linejoin: round;" transform="matrix(1,0,0,1,377.5413,278.8283)"/>
    <path fill="none" stroke="#000000" d="M59.44770551,16.83805735L35.44725752,30.6994583" stroke-width="1.6" stroke-linecap="round" stroke-linejoin="round" style="-webkit-tap-highlight-color: rgba(0, 0, 0, 0); stroke-linecap: round; stroke-linejoin: round;" transform="matrix(1,0,0,1,377.5413,278.8283)"/>
    <path fill="none" stroke="#000000" d="M28.78059085,34.54807182L28.78059085,67.77968192M35.44725752,30.6994583L35.44725752,71.62876194" stroke-width="1.6" stroke-linecap="round" stroke-linejoin="round" style="-webkit-tap-highlight-color: rgba(0, 0, 0, 0); stroke-linecap: round; stroke-linejoin: round;" transform="matrix(1,0,0,1,377.5413,278.8283)"/>
    <path fill="none" stroke="#000000" d="M35.44725752,71.62876194L0,92.09341376" stroke-width="1.6" stroke-linecap="round" stroke-linejoin="round" style="-webkit-tap-highlight-color: rgba(0, 0, 0, 0); stroke-linecap: round; stroke-linejoin: round;" transform="matrix(1,0,0,1,377.5413,278.8283)"/>
    <path fill="none" stroke="#000000" d="M0,84.3954884L-28.78059085,67.77968192M0,92.09341376L-35.44725752,71.62876194" stroke-width="1.6" stroke-linecap="round" stroke-linejoin="round" style="-webkit-tap-highlight-color: rgba(0, 0, 0, 0); stroke-linecap: round; stroke-linejoin: round;" transform="matrix(1,0,0,1,377.5413,278.8283)"/>
    <path fill="none" stroke="#000000" d="M-35.44725752,71.62876194L-35.44725752,30.6994583" stroke-width="1.6" stroke-linecap="round" stroke-linejoin="round" style="-webkit-tap-highlight-color: rgba(0, 0, 0, 0); stroke-linecap: round; stroke-linejoin: round;" transform="matrix(1,0,0,1,377.5413,278.8283)"/>
    <path fill="none" stroke="#000000" d="M-28.78059085,34.54807182L0,17.92823727M-35.44725752,30.6994583L0,10.22984535" stroke-width="1.6" stroke-linecap="round" stroke-linejoin="round" style="-webkit-tap-highlight-color: rgba(0, 0, 0, 0); stroke-linecap: round; stroke-linejoin: round;" transform="matrix(1,0,0,1,377.5413,278.8283)"/>
    <path fill="none" stroke="#000000" d="M0,-30.6994583L0,10.22984535" stroke-width="1.6" stroke-linecap="round" stroke-linejoin="round" style="-webkit-tap-highlight-color: rgba(0, 0, 0, 0); stroke-linecap: round; stroke-linejoin: round;" transform="matrix(1,0,0,1,377.5413,278.8283)"/>
    <path fill="none" stroke="#000000" d="M35.44725752,30.6994583L0,10.22984535" stroke-width="1.6" stroke-linecap="round" stroke-linejoin="round" style="-webkit-tap-highlight-color: rgba(0, 0, 0, 0); stroke-linecap: round; stroke-linejoin: round;" transform="matrix(1,0,0,1,377.5413,278.8283)"/>
    <text x="171.472" y="-114.25200000000001" text-anchor="middle" font="30px &quot;Arial&quot;" stroke="none" fill="#000000" style="-webkit-tap-highlight-color: rgba(0, 0, 0, 0); text-anchor: middle; font: 24px Arial;" font-size="24px" transform="matrix(1,0,0,1,377.5413,278.8283)">
      <tspan dy="8.50581249999999" style="-webkit-tap-highlight-color: rgba(0, 0, 0, 0);">Chiral</tspan>
    </text>
  </g>
</svg>
