<?xml version="1.0"?>
<svg xmlns="http://www.w3.org/2000/svg" height="292.3028997263142" version="1.1" width="465.10723015266" style="overflow: hidden; position: relative;" viewBox="0 0 485 312">
  <g transform="translate(-192, -120)">
    <defs style="-webkit-tap-highlight-color: rgba(0, 0, 0, 0);"/>
    <text x="35.59592802200059" y="-123.30289972631417" text-anchor="middle" font="30px &quot;Arial&quot;" stroke="none" fill="#000000" style="-webkit-tap-highlight-color: rgba(0, 0, 0, 0); text-anchor: middle; font: 24px Arial;" font-size="24px" transform="matrix(1,0,0,1,373.2062,268.8438)">
      <tspan dy="8.501787773685834" style="-webkit-tap-highlight-color: rgba(0, 0, 0, 0);">O</tspan>
    </text>
    <text x="35.59592802200059" y="-123.30289972631417" text-anchor="middle" font="30px &quot;Arial&quot;" stroke="none" fill="#000000" style="-webkit-tap-highlight-color: rgba(0, 0, 0, 0); text-anchor: middle; font: 24px Arial;" font-size="24px" transform="matrix(1,0,0,1,392.0219,268.8438)">
      <tspan dy="8.501787773685834" style="-webkit-tap-highlight-color: rgba(0, 0, 0, 0);">H</tspan>
    </text>
    <text x="-35.59592802200059" y="-82.2019331508761" text-anchor="middle" font="30px &quot;Arial&quot;" stroke="none" fill="#000000" style="-webkit-tap-highlight-color: rgba(0, 0, 0, 0); text-anchor: middle; font: 24px Arial;" font-size="24px" transform="matrix(1,0,0,1,373.2062,268.8438)">
      <tspan dy="8.493379349123899" style="-webkit-tap-highlight-color: rgba(0, 0, 0, 0);">N</tspan>
    </text>
    <text x="-142.37873015265987" y="-20.550483287719025" text-anchor="middle" font="30px &quot;Arial&quot;" stroke="none" fill="#000000" style="-webkit-tap-highlight-color: rgba(0, 0, 0, 0); text-anchor: middle; font: 24px Arial;" font-size="24px" transform="matrix(1,0,0,1,373.2062,268.8438)">
      <tspan dy="8.504204212280975" style="-webkit-tap-highlight-color: rgba(0, 0, 0, 0);">C</tspan>
    </text>
    <text x="-142.37873015265987" y="-20.550483287719025" text-anchor="middle" font="30px &quot;Arial&quot;" stroke="none" fill="#000000" style="-webkit-tap-highlight-color: rgba(0, 0, 0, 0); text-anchor: middle; font: 24px Arial;" font-size="24px" transform="matrix(1,0,0,1,344.7937,268.8438)">
      <tspan dy="8.504204212280975" style="-webkit-tap-highlight-color: rgba(0, 0, 0, 0);">H</tspan>
    </text>
    <text x="-142.37873015265987" y="-20.550483287719025" text-anchor="middle" font="30px &quot;Arial&quot;" stroke="none" fill="#000000" style="-webkit-tap-highlight-color: rgba(0, 0, 0, 0); text-anchor: middle; font: 17px Arial;" font-size="17px" transform="matrix(1,0,0,1,359,274.2469)">
      <tspan dy="5.504204212280975" style="-webkit-tap-highlight-color: rgba(0, 0, 0, 0);">2</tspan>
    </text>
    <text x="142.37873015265987" y="-20.550483287719025" text-anchor="middle" font="30px &quot;Arial&quot;" stroke="none" fill="#000000" style="-webkit-tap-highlight-color: rgba(0, 0, 0, 0); text-anchor: middle; font: 24px Arial;" font-size="24px" transform="matrix(1,0,0,1,373.2062,268.8438)">
      <tspan dy="8.504204212280975" style="-webkit-tap-highlight-color: rgba(0, 0, 0, 0);">N</tspan>
    </text>
    <text x="35.59592802200059" y="113.0251671147834" text-anchor="middle" font="30px &quot;Arial&quot;" stroke="none" fill="#000000" style="-webkit-tap-highlight-color: rgba(0, 0, 0, 0); text-anchor: middle; font: 24px Arial;" font-size="24px" transform="matrix(1,0,0,1,373.2062,268.8438)">
      <tspan dy="8.5017296147834" style="-webkit-tap-highlight-color: rgba(0, 0, 0, 0);">H</tspan>
    </text>
    <text x="76.69689459743866" y="113.0251671147834" text-anchor="middle" font="30px &quot;Arial&quot;" stroke="none" fill="#000000" style="-webkit-tap-highlight-color: rgba(0, 0, 0, 0); text-anchor: middle; font: 24px Arial;" font-size="24px" transform="matrix(1,0,0,1,373.2062,268.8438)">
      <tspan dy="8.5017296147834" style="-webkit-tap-highlight-color: rgba(0, 0, 0, 0);">Cl</tspan>
    </text>
    <text x="-76.69689459743866" y="123.30289972631417" text-anchor="middle" font="30px &quot;Arial&quot;" stroke="none" fill="#000000" style="-webkit-tap-highlight-color: rgba(0, 0, 0, 0); text-anchor: middle; font: 24px Arial;" font-size="24px" transform="matrix(1,0,0,1,373.2062,268.8438)">
      <tspan dy="8.498212226314166" style="-webkit-tap-highlight-color: rgba(0, 0, 0, 0);">H</tspan>
    </text>
    <text x="-41.10096657543805" y="102.75241643859513" text-anchor="middle" font="30px &quot;Arial&quot;" stroke="none" fill="#000000" style="-webkit-tap-highlight-color: rgba(0, 0, 0, 0); text-anchor: middle; font: 24px Arial;" font-size="24px" transform="matrix(1,0,0,1,373.2062,268.8438)">
      <tspan dy="8.494603938595134" style="-webkit-tap-highlight-color: rgba(0, 0, 0, 0);">O</tspan>
    </text>
    <text x="-5.50503855343746" y="123.30289972631417" text-anchor="middle" font="30px &quot;Arial&quot;" stroke="none" fill="#000000" style="-webkit-tap-highlight-color: rgba(0, 0, 0, 0); text-anchor: middle; font: 24px Arial;" font-size="24px" transform="matrix(1,0,0,1,373.2062,268.8438)">
      <tspan dy="8.498212226314166" style="-webkit-tap-highlight-color: rgba(0, 0, 0, 0);">H</tspan>
    </text>
    <path fill="#000000" stroke="#000000" d="M35.59592802,-82.20193315L40.26259469,-106.596875L30.92926136,-106.596875Z" stroke-width="1.6" stroke-linecap="round" stroke-linejoin="round" style="-webkit-tap-highlight-color: rgba(0, 0, 0, 0); stroke-linecap: round; stroke-linejoin: round;" transform="matrix(1,0,0,1,373.2062,268.8438)"/>
    <path fill="none" stroke="#000000" d="M35.59592802,-82.20193315L0,-61.65144986" stroke-width="1.6" stroke-linecap="round" stroke-linejoin="round" style="-webkit-tap-highlight-color: rgba(0, 0, 0, 0); stroke-linecap: round; stroke-linejoin: round;" transform="matrix(1,0,0,1,373.2062,268.8438)"/>
    <path fill="none" stroke="#000000" d="M-0.18666667,-61.65144986L0.18666667,-61.65144986M-0.56,-58.20970265L0.56,-58.20970265M-0.93333333,-54.76795543L0.93333333,-54.76795543M-1.30666667,-51.32620822L1.30666667,-51.32620822M-1.68,-47.884461L1.68,-47.884461M-2.05333333,-44.44271379L2.05333333,-44.44271379M-2.42666667,-41.00096658L2.42666667,-41.00096658M-2.8,-37.55921936L2.8,-37.55921936M-3.17333333,-34.11747215L3.17333333,-34.11747215M-3.54666667,-30.67572493L3.54666667,-30.67572493M-3.92,-27.23397772L3.92,-27.23397772M-4.29333333,-23.7922305L4.29333333,-23.7922305M-4.66666667,-20.35048329L4.66666667,-20.35048329" stroke-width="1.6" stroke-linecap="round" stroke-linejoin="round" style="-webkit-tap-highlight-color: rgba(0, 0, 0, 0); stroke-linecap: round; stroke-linejoin: round;" transform="matrix(1,0,0,1,373.2062,268.8438)"/>
    <path fill="none" stroke="#000000" d="M0,-20.55048329L-35.59592802,0" stroke-width="1.6" stroke-linecap="round" stroke-linejoin="round" style="-webkit-tap-highlight-color: rgba(0, 0, 0, 0); stroke-linecap: round; stroke-linejoin: round;" transform="matrix(1,0,0,1,373.2062,268.8438)"/>
    <path fill="none" stroke="#000000" d="M-35.59592802,0L-71.18687411,-20.55048329" stroke-width="1.6" stroke-linecap="round" stroke-linejoin="round" style="-webkit-tap-highlight-color: rgba(0, 0, 0, 0); stroke-linecap: round; stroke-linejoin: round;" transform="matrix(1,0,0,1,373.2062,268.8438)"/>
    <path fill="none" stroke="#000000" d="M-71.18687411,-20.55048329L-71.18687411,-61.65144986" stroke-width="1.6" stroke-linecap="round" stroke-linejoin="round" style="-webkit-tap-highlight-color: rgba(0, 0, 0, 0); stroke-linecap: round; stroke-linejoin: round;" transform="matrix(1,0,0,1,373.2062,268.8438)"/>
    <path fill="none" stroke="#000000" d="M-71.18687411,-61.65144986L-47.03683748,-75.59586491" stroke-width="1.6" stroke-linecap="round" stroke-linejoin="round" style="-webkit-tap-highlight-color: rgba(0, 0, 0, 0); stroke-linecap: round; stroke-linejoin: round;" transform="matrix(1,0,0,1,373.2062,268.8438)"/>
    <path fill="none" stroke="#000000" d="M0,-61.65144986L-24.15056555,-75.59421864" stroke-width="1.6" stroke-linecap="round" stroke-linejoin="round" style="-webkit-tap-highlight-color: rgba(0, 0, 0, 0); stroke-linecap: round; stroke-linejoin: round;" transform="matrix(1,0,0,1,373.2062,268.8438)"/>
    <path fill="none" stroke="#000000" d="M-46.59001508,-66.83329251L-45.47889369,-66.09628026M-49.93788458,-64.19817806L-46.60452043,-61.98714133M-53.28575407,-61.56306362L-47.73014716,-57.8780024M-56.63362357,-58.92794917L-48.85577389,-53.76886346" stroke-width="1.6" stroke-linecap="round" stroke-linejoin="round" style="-webkit-tap-highlight-color: rgba(0, 0, 0, 0); stroke-linecap: round; stroke-linejoin: round;" transform="matrix(1,0,0,1,373.2062,268.8438)"/>
    <path fill="none" stroke="#000000" d="M-52.63414689,-56.51507453L-52.63414689,-25.68685863" stroke-width="1.6" stroke-linecap="round" stroke-linejoin="round" style="-webkit-tap-highlight-color: rgba(0, 0, 0, 0); stroke-linecap: round; stroke-linejoin: round;" transform="matrix(1,0,0,1,373.2062,268.8438)"/>
    <path fill="none" stroke="#000000" d="M-35.39124777,-0.13576541L-35.80060828,0.13576541M-36.88730622,-3.27991033L-38.11538775,-2.46531785M-38.38336468,-6.42405525L-40.43016723,-5.06640112M-39.87942314,-9.56820017L-42.74494671,-7.66748438M-41.3754816,-12.71234509L-45.05972619,-10.26856765M-42.87154006,-15.85649001L-47.37450566,-12.86965092M-44.36759851,-19.00063493L-49.68928514,-15.47073418M-45.86365697,-22.14477985L-52.00406462,-18.07181745M-47.35971543,-25.28892477L-54.3188441,-20.67290071M-48.85577389,-28.43306969L-56.63362357,-23.27398398" stroke-width="1.6" stroke-linecap="round" stroke-linejoin="round" style="-webkit-tap-highlight-color: rgba(0, 0, 0, 0); stroke-linecap: round; stroke-linejoin: round;" transform="matrix(1,0,0,1,373.2062,268.8438)"/>
    <path fill="#000000" stroke="#000000" d="M-71.18687411,-20.55048329L-109.11606433,-4.04149295L-104.44953993,4.04149295Z" stroke-width="1.6" stroke-linecap="round" stroke-linejoin="round" style="-webkit-tap-highlight-color: rgba(0, 0, 0, 0); stroke-linecap: round; stroke-linejoin: round;" transform="matrix(1,0,0,1,373.2062,268.8438)"/>
    <path fill="none" stroke="#000000" d="M-106.78280213,-7.69792537L-127.59858383,-19.71543405M-106.78280213,0L-130.93181555,-13.94187269" stroke-width="1.6" stroke-linecap="round" stroke-linejoin="round" style="-webkit-tap-highlight-color: rgba(0, 0, 0, 0); stroke-linecap: round; stroke-linejoin: round;" transform="matrix(1,0,0,1,373.2062,268.8438)"/>
    <path fill="none" stroke="#000000" d="M35.59592802,-82.20193315L71.18687411,-61.65144986" stroke-width="1.6" stroke-linecap="round" stroke-linejoin="round" style="-webkit-tap-highlight-color: rgba(0, 0, 0, 0); stroke-linecap: round; stroke-linejoin: round;" transform="matrix(1,0,0,1,373.2062,268.8438)"/>
    <path fill="none" stroke="#000000" d="M77.85354078,-57.80236984L106.78280213,-74.50400778M71.18687411,-61.65144986L106.78280213,-82.20193315" stroke-width="1.6" stroke-linecap="round" stroke-linejoin="round" style="-webkit-tap-highlight-color: rgba(0, 0, 0, 0); stroke-linecap: round; stroke-linejoin: round;" transform="matrix(1,0,0,1,373.2062,268.8438)"/>
    <path fill="none" stroke="#000000" d="M106.78280213,-82.20193315L142.37873015,-61.65144986" stroke-width="1.6" stroke-linecap="round" stroke-linejoin="round" style="-webkit-tap-highlight-color: rgba(0, 0, 0, 0); stroke-linecap: round; stroke-linejoin: round;" transform="matrix(1,0,0,1,373.2062,268.8438)"/>
    <path fill="none" stroke="#000000" d="M135.71206349,-57.80236984L135.71206349,-37.246875M142.37873015,-61.65144986L142.37873015,-37.246875" stroke-width="1.6" stroke-linecap="round" stroke-linejoin="round" style="-webkit-tap-highlight-color: rgba(0, 0, 0, 0); stroke-linecap: round; stroke-linejoin: round;" transform="matrix(1,0,0,1,373.2062,268.8438)"/>
    <path fill="none" stroke="#000000" d="M130.93181555,-13.94187269L106.78280213,0" stroke-width="1.6" stroke-linecap="round" stroke-linejoin="round" style="-webkit-tap-highlight-color: rgba(0, 0, 0, 0); stroke-linecap: round; stroke-linejoin: round;" transform="matrix(1,0,0,1,373.2062,268.8438)"/>
    <path fill="none" stroke="#000000" d="M100.11613546,3.84908002L100.11613546,37.25188656M106.78280213,0L106.78280213,41.10096658" stroke-width="1.6" stroke-linecap="round" stroke-linejoin="round" style="-webkit-tap-highlight-color: rgba(0, 0, 0, 0); stroke-linecap: round; stroke-linejoin: round;" transform="matrix(1,0,0,1,373.2062,268.8438)"/>
    <path fill="none" stroke="#000000" d="M106.78280213,41.10096658L71.18687411,61.65144986" stroke-width="1.6" stroke-linecap="round" stroke-linejoin="round" style="-webkit-tap-highlight-color: rgba(0, 0, 0, 0); stroke-linecap: round; stroke-linejoin: round;" transform="matrix(1,0,0,1,373.2062,268.8438)"/>
    <path fill="none" stroke="#000000" d="M71.18710739,53.95338982L42.26259469,37.25215593M71.18687411,61.65144986L35.59592802,41.10096658" stroke-width="1.6" stroke-linecap="round" stroke-linejoin="round" style="-webkit-tap-highlight-color: rgba(0, 0, 0, 0); stroke-linecap: round; stroke-linejoin: round;" transform="matrix(1,0,0,1,373.2062,268.8438)"/>
    <path fill="none" stroke="#000000" d="M35.59592802,41.10096658L35.59592802,0" stroke-width="1.6" stroke-linecap="round" stroke-linejoin="round" style="-webkit-tap-highlight-color: rgba(0, 0, 0, 0); stroke-linecap: round; stroke-linejoin: round;" transform="matrix(1,0,0,1,373.2062,268.8438)"/>
    <path fill="none" stroke="#000000" d="M42.26259469,3.84881065L71.18710739,-12.85242324M35.59592802,0L71.18687411,-20.55048329" stroke-width="1.6" stroke-linecap="round" stroke-linejoin="round" style="-webkit-tap-highlight-color: rgba(0, 0, 0, 0); stroke-linecap: round; stroke-linejoin: round;" transform="matrix(1,0,0,1,373.2062,268.8438)"/>
    <path fill="none" stroke="#000000" d="M71.18687411,-61.65144986L71.18687411,-20.55048329" stroke-width="1.6" stroke-linecap="round" stroke-linejoin="round" style="-webkit-tap-highlight-color: rgba(0, 0, 0, 0); stroke-linecap: round; stroke-linejoin: round;" transform="matrix(1,0,0,1,373.2062,268.8438)"/>
    <path fill="none" stroke="#000000" d="M106.78280213,0L71.18687411,-20.55048329" stroke-width="1.6" stroke-linecap="round" stroke-linejoin="round" style="-webkit-tap-highlight-color: rgba(0, 0, 0, 0); stroke-linecap: round; stroke-linejoin: round;" transform="matrix(1,0,0,1,373.2062,268.8438)"/>
    <path fill="none" stroke="#000000" d="M47.465625,113.02516711L62.159375,113.02516711" stroke-width="1.6" stroke-linecap="round" stroke-linejoin="round" style="-webkit-tap-highlight-color: rgba(0, 0, 0, 0); stroke-linecap: round; stroke-linejoin: round;" transform="matrix(1,0,0,1,373.2062,268.8438)"/>
    <path fill="none" stroke="#000000" d="M-65.24431555,116.69101889L-53.20880945,109.74259865" stroke-width="1.6" stroke-linecap="round" stroke-linejoin="round" style="-webkit-tap-highlight-color: rgba(0, 0, 0, 0); stroke-linecap: round; stroke-linejoin: round;" transform="matrix(1,0,0,1,373.2062,268.8438)"/>
    <path fill="none" stroke="#000000" d="M-28.99431555,109.74191056L-16.94318445,116.69935153" stroke-width="1.6" stroke-linecap="round" stroke-linejoin="round" style="-webkit-tap-highlight-color: rgba(0, 0, 0, 0); stroke-linecap: round; stroke-linejoin: round;" transform="matrix(1,0,0,1,373.2062,268.8438)"/>
    <text x="114.316" y="-139" text-anchor="middle" font="30px &quot;Arial&quot;" stroke="none" fill="#000000" style="-webkit-tap-highlight-color: rgba(0, 0, 0, 0); text-anchor: middle; font: 24px Arial;" font-size="24px" transform="matrix(1,0,0,1,373.2062,268.8438)">
      <tspan dy="8.5" style="-webkit-tap-highlight-color: rgba(0, 0, 0, 0);">Chiral</tspan>
    </text>
  </g>
</svg>
