
<svg version="1.1" id="topsvg" xmlns="http://www.w3.org/2000/svg" x="0" y="0" width="200px" height="200px" viewBox="0 0 100 100" xmlns:xlink="http://www.w3.org/1999/xlink">
<title> - Open Babel Depiction</title>
<rect x="0" y="0" width="100" height="100" fill="white"></rect>
<g transform="translate(0,0)">
<svg width="100" height="100" x="0" y="0" viewBox="0 0 388.75 366.727" font-family="sans-serif" stroke="#000000" stroke-width="2" stroke-linecap="round">
<line x1="74.8" y1="186.1" x2="74.8" y2="226.2" opacity="1.0" stroke="#000000" stroke-width="2.0"></line>
<line x1="74.8" y1="226.2" x2="51.3" y2="239.8" opacity="1.0" stroke="#000000" stroke-width="2.0"></line>
<line x1="74.8" y1="226.2" x2="98.2" y2="239.8" opacity="1.0" stroke="#000000" stroke-width="2.0"></line>
<line x1="74.8" y1="226.2" x2="98.2" y2="212.6" opacity="1.0" stroke="#000000" stroke-width="2.0"></line>
<line x1="144.4" y1="194.9" x2="149.5" y2="221.5" opacity="1.0" stroke="#000000" stroke-width="2.0"></line>
<line x1="148.8" y1="117.5" x2="159.8" y2="92.7" opacity="1.0" stroke="#000000" stroke-width="2.0"></line>
<line x1="178.0" y1="79.5" x2="205.0" y2="76.7" opacity="1.0" stroke="#000000" stroke-width="2.0"></line>
<line x1="202.3" y1="75.4" x2="213.3" y2="50.7" opacity="1.0" stroke="#000000" stroke-width="2.0"></line>
<line x1="207.7" y1="77.9" x2="218.8" y2="53.1" opacity="1.0" stroke="#000000" stroke-width="2.0"></line>
<line x1="205.0" y1="76.7" x2="228.6" y2="109.1" opacity="1.0" stroke="#000000" stroke-width="2.0"></line>
<line x1="228.6" y1="109.1" x2="268.5" y2="104.9" opacity="1.0" stroke="#000000" stroke-width="2.0"></line>
<line x1="149.5" y1="221.5" x2="187.4" y2="234.7" opacity="1.0" stroke="#000000" stroke-width="2.0"></line>
<line x1="187.4" y1="234.7" x2="194.9" y2="274.1" opacity="1.0" stroke="#000000" stroke-width="2.0"></line>
<line x1="194.9" y1="274.1" x2="232.8" y2="287.3" opacity="1.0" stroke="#000000" stroke-width="2.0"></line>
<line x1="232.8" y1="287.3" x2="237.9" y2="314.0" opacity="1.0" stroke="#000000" stroke-width="2.0"></line>
<line x1="160.1" y1="161.9" x2="150.7" y2="172.4" opacity="1.0" stroke="#000000" stroke-width="2.0"></line>
<line x1="130.3" y1="176.3" x2="109.5" y2="166.0" opacity="1.0" stroke="#000000" stroke-width="2.0"></line>
<line x1="109.5" y1="166.0" x2="109.5" y2="125.9" opacity="1.0" stroke="#000000" stroke-width="2.0"></line>
<line x1="116.7" y1="160.0" x2="116.7" y2="131.9" opacity="1.0" stroke="#000000" stroke-width="2.0"></line>
<line x1="109.5" y1="125.9" x2="148.8" y2="117.5" opacity="1.0" stroke="#000000" stroke-width="2.0"></line>
<line x1="148.8" y1="117.5" x2="162.2" y2="140.8" opacity="1.0" stroke="#000000" stroke-width="2.0"></line>
<line x1="145.5" y1="126.3" x2="155.0" y2="142.7" opacity="1.0" stroke="#000000" stroke-width="2.0"></line>
<line x1="109.5" y1="166.0" x2="74.8" y2="186.1" opacity="1.0" stroke="#000000" stroke-width="2.0"></line>
<line x1="74.8" y1="186.1" x2="40.0" y2="166.0" opacity="1.0" stroke="#000000" stroke-width="2.0"></line>
<line x1="73.2" y1="176.8" x2="48.8" y2="162.8" opacity="1.0" stroke="#000000" stroke-width="2.0"></line>
<line x1="40.0" y1="166.0" x2="40.0" y2="125.9" opacity="1.0" stroke="#000000" stroke-width="2.0"></line>
<line x1="40.0" y1="125.9" x2="74.8" y2="105.8" opacity="1.0" stroke="#000000" stroke-width="2.0"></line>
<line x1="48.8" y1="129.1" x2="73.2" y2="115.0" opacity="1.0" stroke="#000000" stroke-width="2.0"></line>
<line x1="74.8" y1="105.8" x2="109.5" y2="125.9" opacity="1.0" stroke="#000000" stroke-width="2.0"></line>
<line x1="288.6" y1="70.2" x2="328.7" y2="70.2" opacity="1.0" stroke="#000000" stroke-width="2.0"></line>
<line x1="294.6" y1="77.4" x2="322.7" y2="77.4" opacity="1.0" stroke="#000000" stroke-width="2.0"></line>
<line x1="328.7" y1="70.2" x2="348.7" y2="104.9" opacity="1.0" stroke="#000000" stroke-width="2.0"></line>
<line x1="348.7" y1="104.9" x2="328.7" y2="139.7" opacity="1.0" stroke="#000000" stroke-width="2.0"></line>
<line x1="339.5" y1="106.5" x2="325.4" y2="130.9" opacity="1.0" stroke="#000000" stroke-width="2.0"></line>
<line x1="328.7" y1="139.7" x2="288.6" y2="139.7" opacity="1.0" stroke="#000000" stroke-width="2.0"></line>
<line x1="288.6" y1="139.7" x2="268.5" y2="104.9" opacity="1.0" stroke="#000000" stroke-width="2.0"></line>
<line x1="291.8" y1="130.9" x2="277.7" y2="106.5" opacity="1.0" stroke="#000000" stroke-width="2.0"></line>
<line x1="268.5" y1="104.9" x2="288.6" y2="70.2" opacity="1.0" stroke="#000000" stroke-width="2.0"></line>
<text x="159.080206" y="88.856029" fill="#000000" stroke="#000000" stroke-width="1" font-size="16">N</text>
<text x="159.080206" y="72.856029" fill="#000000" stroke="#000000" stroke-width="1" font-size="16">H</text>
<text x="236.347438" y="334.726579" fill="#000000" stroke="#000000" stroke-width="1" font-size="16">CH</text>
<text x="260.347438" y="338.406579" fill="#000000" stroke="#000000" stroke-width="1" font-size="13">3</text>
<text x="215.313930" y="48.000000" fill="#000000" stroke="#000000" stroke-width="1" font-size="16">O</text>
<text x="103.504610" y="214.120832" fill="#000000" stroke="#000000" stroke-width="1" font-size="16">F</text>
<text x="103.504610" y="254.250514" fill="#000000" stroke="#000000" stroke-width="1" font-size="16">F</text>
<text x="34.000000" y="254.250514" fill="#000000" stroke="#000000" stroke-width="1" font-size="16">F</text>
<text x="135.969522" y="190.091179" fill="#000000" stroke="#000000" stroke-width="1" font-size="16">N</text>
<text x="162.824306" y="160.270812" fill="#000000" stroke="#000000" stroke-width="1" font-size="16">N</text>
</svg>
</g>
</svg>
