
<svg version="1.1" id="topsvg" xmlns="http://www.w3.org/2000/svg" x="0" y="0" width="200px" height="200px" viewBox="0 0 100 100" xmlns:xlink="http://www.w3.org/1999/xlink">
<title> - Open Babel Depiction</title>
<rect x="0" y="0" width="100" height="100" fill="white"></rect>
<g transform="translate(0,0)">
<svg width="100" height="100" x="0" y="0" viewBox="0 0 328.017 252.573" font-family="sans-serif" stroke="#000000" stroke-width="2" stroke-linecap="round">
<line x1="73.2" y1="97.5" x2="73.2" y2="135.9" opacity="1.0" stroke="#000000" stroke-width="2.0"></line>
<line x1="236.7" y1="108.7" x2="224.3" y2="108.7" opacity="1.0" stroke="#000000" stroke-width="2.0"></line>
<line x1="249.7" y1="121.7" x2="249.7" y2="134.0" opacity="1.0" stroke="#000000" stroke-width="2.0"></line>
<line x1="262.7" y1="108.7" x2="275.0" y2="108.7" opacity="1.0" stroke="#000000" stroke-width="2.0"></line>
<line x1="249.7" y1="95.7" x2="249.7" y2="83.3" opacity="1.0" stroke="#000000" stroke-width="2.0"></line>
<line x1="73.2" y1="135.9" x2="106.4" y2="155.1" opacity="1.0" stroke="#000000" stroke-width="2.0"></line>
<line x1="139.6" y1="135.9" x2="172.8" y2="155.1" opacity="1.0" stroke="#000000" stroke-width="2.0"></line>
<line x1="141.2" y1="145.1" x2="164.0" y2="158.3" opacity="1.0" stroke="#000000" stroke-width="2.0"></line>
<line x1="172.8" y1="155.1" x2="172.8" y2="193.4" opacity="1.0" stroke="#000000" stroke-width="2.0"></line>
<line x1="172.8" y1="193.4" x2="139.6" y2="212.6" opacity="1.0" stroke="#000000" stroke-width="2.0"></line>
<line x1="164.0" y1="190.2" x2="141.2" y2="203.3" opacity="1.0" stroke="#000000" stroke-width="2.0"></line>
<line x1="139.6" y1="212.6" x2="106.4" y2="193.4" opacity="1.0" stroke="#000000" stroke-width="2.0"></line>
<line x1="106.4" y1="193.4" x2="106.4" y2="155.1" opacity="1.0" stroke="#000000" stroke-width="2.0"></line>
<line x1="113.6" y1="187.4" x2="113.6" y2="161.1" opacity="1.0" stroke="#000000" stroke-width="2.0"></line>
<line x1="106.4" y1="155.1" x2="139.6" y2="135.9" opacity="1.0" stroke="#000000" stroke-width="2.0"></line>
<line x1="95.5" y1="84.7" x2="73.2" y2="97.5" opacity="1.0" stroke="#000000" stroke-width="2.0"></line>
<line x1="90.0" y1="79.5" x2="74.8" y2="88.3" opacity="1.0" stroke="#000000" stroke-width="2.0"></line>
<line x1="73.2" y1="97.5" x2="51.3" y2="84.8" opacity="1.0" stroke="#000000" stroke-width="2.0"></line>
<line x1="40.0" y1="65.3" x2="40.0" y2="40.0" opacity="1.0" stroke="#000000" stroke-width="2.0"></line>
<line x1="40.0" y1="40.0" x2="106.4" y2="40.0" opacity="1.0" stroke="#000000" stroke-width="2.0"></line>
<line x1="106.4" y1="40.0" x2="106.4" y2="65.3" opacity="1.0" stroke="#000000" stroke-width="2.0"></line>
<text x="282.016749" y="116.659614" fill="#000000" stroke="#000000" stroke-width="1" font-size="16">F</text>
<text x="243.667992" y="78.310857" fill="#000000" stroke="#000000" stroke-width="1" font-size="16">F</text>
<text x="243.667992" y="155.008371" fill="#000000" stroke="#000000" stroke-width="1" font-size="16">F</text>
<text x="205.319235" y="116.659614" fill="#000000" stroke="#000000" stroke-width="1" font-size="16">F</text>
<text x="254.467992" y="94.547614" fill="#000000" stroke="#000000" stroke-width="1" font-size="16">_</text>
<text x="243.667992" y="116.659614" fill="#000000" stroke="#000000" stroke-width="1" font-size="16">B</text>
<text x="34.003835" y="86.348757" fill="#000000" stroke="#000000" stroke-width="1" font-size="16">S</text>
<text x="111.223881" y="74.316757" fill="#000000" stroke="#000000" stroke-width="1" font-size="16">+</text>
<text x="100.423881" y="86.348757" fill="#000000" stroke="#000000" stroke-width="1" font-size="16">S</text>
</svg>
</g>
</svg>
