<svg version="1.1" xmlns="http://www.w3.org/2000/svg" xmlns:xlink="http://www.w3.org/1999/xlink" xmlns:cml="http://www.xml-cml.org/schema"
  width="1560" height="440" >
  <rect  width="1560" height="440" stroke-width="1" stroke="white" fill="none"/>
  <svg width="100%"  viewBox="0 0 1488 592.5" >
  <title>Reaction 1</title> <g transform='translate(50, 0)'><g transform='scale(1)'> <g transform='translate(10, 174)'> 
  <g transform="translate(-248, -150)">
    <defs style="-webkit-tap-highlight-color: rgba(0, 0, 0, 0);"></defs>
    <text x="92.02815417868088" y="75.09300812320787" text-anchor="middle"  stroke="none" fill="#000000" style="-webkit-tap-highlight-color: rgba(0, 0, 0, 0); text-anchor: middle; font: 24px Arial;" font-size="24px" transform="matrix(1,0,0,1,350.3969,280.4373)">
      <tspan dy="8.507070623207866" style="-webkit-tap-highlight-color: rgba(0, 0, 0, 0);">O</tspan>
    </text>
    <text x="26.343035507606587" y="52.47816185605" text-anchor="middle"  stroke="none" fill="#000000" style="-webkit-tap-highlight-color: rgba(0, 0, 0, 0); text-anchor: middle; font: 24px Arial;" font-size="24px" transform="matrix(1,0,0,1,350.3969,280.4373)">
      <tspan dy="8.50159935605" style="-webkit-tap-highlight-color: rgba(0, 0, 0, 0);">O</tspan>
    </text>
    <text x="59.33443890027191" y="-95.40667801508243" text-anchor="middle"  stroke="none" fill="#000000" style="-webkit-tap-highlight-color: rgba(0, 0, 0, 0); text-anchor: middle; font: 24px Arial;" font-size="24px" transform="matrix(1,0,0,1,350.3969,280.4373)">
      <tspan dy="8.507384484917566" style="-webkit-tap-highlight-color: rgba(0, 0, 0, 0);">C</tspan>
    </text>
    <text x="59.33443890027191" y="-95.40667801508243" text-anchor="middle"  stroke="none" fill="#000000" style="-webkit-tap-highlight-color: rgba(0, 0, 0, 0); text-anchor: middle; font: 24px Arial;" font-size="24px" transform="matrix(1,0,0,1,368.525,280.4373)">
      <tspan dy="8.507384484917566" style="-webkit-tap-highlight-color: rgba(0, 0, 0, 0);">H</tspan>
    </text>
    <text x="59.33443890027191" y="-95.40667801508243" text-anchor="middle"  stroke="none" fill="#000000" style="-webkit-tap-highlight-color: rgba(0, 0, 0, 0); text-anchor: middle; font: 17px Arial;" font-size="17px" transform="matrix(1,0,0,1,382.7156,285.8404)">
      <tspan dy="5.507384484917566" style="-webkit-tap-highlight-color: rgba(0, 0, 0, 0);">3</tspan>
    </text>
    <text x="-7.527256603339424" y="-86.00823897927447" text-anchor="middle"  stroke="none" fill="#000000" style="-webkit-tap-highlight-color: rgba(0, 0, 0, 0); text-anchor: middle; font: 24px Arial;" font-size="24px" transform="matrix(1,0,0,1,350.3969,280.4373)">
      <tspan dy="8.499573520725534" style="-webkit-tap-highlight-color: rgba(0, 0, 0, 0);">C</tspan>
    </text>
    <text x="-7.527256603339424" y="-86.00823897927447" text-anchor="middle"  stroke="none" fill="#000000" style="-webkit-tap-highlight-color: rgba(0, 0, 0, 0); text-anchor: middle; font: 24px Arial;" font-size="24px" transform="matrix(1,0,0,1,321.9844,280.4373)">
      <tspan dy="8.499573520725534" style="-webkit-tap-highlight-color: rgba(0, 0, 0, 0);">H</tspan>
    </text>
    <text x="-7.527256603339424" y="-86.00823897927447" text-anchor="middle"  stroke="none" fill="#000000" style="-webkit-tap-highlight-color: rgba(0, 0, 0, 0); text-anchor: middle; font: 17px Arial;" font-size="17px" transform="matrix(1,0,0,1,336.1906,285.8404)">
      <tspan dy="5.499573520725534" style="-webkit-tap-highlight-color: rgba(0, 0, 0, 0);">3</tspan>
    </text>
    <text x="71.71448428680631" y="8.661306562411276" text-anchor="middle"  stroke="none" fill="#000000" style="-webkit-tap-highlight-color: rgba(0, 0, 0, 0); text-anchor: middle; font: 24px Arial;" font-size="24px" transform="matrix(1,0,0,1,350.3969,280.4373)">
      <tspan dy="8.497244062411276" style="-webkit-tap-highlight-color: rgba(0, 0, 0, 0);">N</tspan>
    </text>
    <text x="71.71448428680631" y="8.661306562411276" text-anchor="middle"  stroke="none" fill="#000000" style="-webkit-tap-highlight-color: rgba(0, 0, 0, 0); text-anchor: middle; font: 24px Arial;" font-size="24px" transform="matrix(1,0,0,1,368.525,280.4373)">
      <tspan dy="8.497244062411276" style="-webkit-tap-highlight-color: rgba(0, 0, 0, 0);">H</tspan>
    </text>
    <path fill="none" stroke="#000000" d="M82.86214984,60.80407052L67.34566382,44.73796895M78.0667946,65.43537839L62.55030858,49.36927682" stroke-width="1.6" stroke-linecap="round" stroke-linejoin="round" style="-webkit-tap-highlight-color: rgba(0, 0, 0, 0); stroke-linecap: round; stroke-linejoin: round;" transform="matrix(1,0,0,1,350.3969,280.4373)"></path>
    <path fill="none" stroke="#000000" d="M64.9479862,47.05362289L38.84074451,50.72205783" stroke-width="1.6" stroke-linecap="round" stroke-linejoin="round" style="-webkit-tap-highlight-color: rgba(0, 0, 0, 0); stroke-linecap: round; stroke-linejoin: round;" transform="matrix(1,0,0,1,350.3969,280.4373)"></path>
    <path fill="none" stroke="#000000" d="M18.35027912,36.09267979L9.25195758,17.44074333" stroke-width="1.6" stroke-linecap="round" stroke-linejoin="round" style="-webkit-tap-highlight-color: rgba(0, 0, 0, 0); stroke-linecap: round; stroke-linejoin: round;" transform="matrix(1,0,0,1,350.3969,280.4373)"></path>
    <path fill="none" stroke="#000000" d="M9.25195758,17.44074333L-15.8058213,-12.42257226" stroke-width="1.6" stroke-linecap="round" stroke-linejoin="round" style="-webkit-tap-highlight-color: rgba(0, 0, 0, 0); stroke-linecap: round; stroke-linejoin: round;" transform="matrix(1,0,0,1,350.3969,280.4373)"></path>
    <path fill="none" stroke="#000000" d="M-20.75384629,-18.31937028L-51.56067277,-12.88532519M-15.8058213,-12.42257226L-54.19341242,-5.65134896" stroke-width="1.6" stroke-linecap="round" stroke-linejoin="round" style="-webkit-tap-highlight-color: rgba(0, 0, 0, 0); stroke-linecap: round; stroke-linejoin: round;" transform="matrix(1,0,0,1,350.3969,280.4373)"></path>
    <path fill="none" stroke="#000000" d="M-54.19341242,-5.65134896L-79.25119131,-35.51466455" stroke-width="1.6" stroke-linecap="round" stroke-linejoin="round" style="-webkit-tap-highlight-color: rgba(0, 0, 0, 0); stroke-linecap: round; stroke-linejoin: round;" transform="matrix(1,0,0,1,350.3969,280.4373)"></path>
    <path fill="none" stroke="#000000" d="M-71.67043339,-36.85170028L-60.97288754,-66.25193884M-79.25119131,-35.51466455L-65.92137908,-72.14920344" stroke-width="1.6" stroke-linecap="round" stroke-linejoin="round" style="-webkit-tap-highlight-color: rgba(0, 0, 0, 0); stroke-linecap: round; stroke-linejoin: round;" transform="matrix(1,0,0,1,350.3969,280.4373)"></path>
    <path fill="none" stroke="#000000" d="M-65.92137908,-72.14920344L-27.52906276,-78.91570153" stroke-width="1.6" stroke-linecap="round" stroke-linejoin="round" style="-webkit-tap-highlight-color: rgba(0, 0, 0, 0); stroke-linecap: round; stroke-linejoin: round;" transform="matrix(1,0,0,1,350.3969,280.4373)"></path>
    <path fill="none" stroke="#000000" d="M-30.16220356,-71.68220339L-10.05248561,-47.71587915M-27.52906276,-78.91570153L-2.47128387,-49.05238594" stroke-width="1.6" stroke-linecap="round" stroke-linejoin="round" style="-webkit-tap-highlight-color: rgba(0, 0, 0, 0); stroke-linecap: round; stroke-linejoin: round;" transform="matrix(1,0,0,1,350.3969,280.4373)"></path>
    <path fill="none" stroke="#000000" d="M-15.8058213,-12.42257226L-2.47128387,-49.05238594" stroke-width="1.6" stroke-linecap="round" stroke-linejoin="round" style="-webkit-tap-highlight-color: rgba(0, 0, 0, 0); stroke-linecap: round; stroke-linejoin: round;" transform="matrix(1,0,0,1,350.3969,280.4373)"></path>
    <path fill="none" stroke="#000000" d="M9.25195758,17.44074333L-24.50492953,36.932227" stroke-width="1.6" stroke-linecap="round" stroke-linejoin="round" style="-webkit-tap-highlight-color: rgba(0, 0, 0, 0); stroke-linecap: round; stroke-linejoin: round;" transform="matrix(1,0,0,1,350.3969,280.4373)"></path>
    <path fill="none" stroke="#000000" d="M-31.1715962,40.78130702L-31.1715962,72.06611432M-24.50492953,36.932227L-24.50492953,75.91519434" stroke-width="1.6" stroke-linecap="round" stroke-linejoin="round" style="-webkit-tap-highlight-color: rgba(0, 0, 0, 0); stroke-linecap: round; stroke-linejoin: round;" transform="matrix(1,0,0,1,350.3969,280.4373)"></path>
    <path fill="none" stroke="#000000" d="M-24.50492953,75.91519434L-58.26654186,95.40667802" stroke-width="1.6" stroke-linecap="round" stroke-linejoin="round" style="-webkit-tap-highlight-color: rgba(0, 0, 0, 0); stroke-linecap: round; stroke-linejoin: round;" transform="matrix(1,0,0,1,350.3969,280.4373)"></path>
    <path fill="none" stroke="#000000" d="M-58.26654186,87.70875265L-85.36148751,72.06611432M-58.26654186,95.40667802L-92.02815418,75.91519434" stroke-width="1.6" stroke-linecap="round" stroke-linejoin="round" style="-webkit-tap-highlight-color: rgba(0, 0, 0, 0); stroke-linecap: round; stroke-linejoin: round;" transform="matrix(1,0,0,1,350.3969,280.4373)"></path>
    <path fill="none" stroke="#000000" d="M-92.02815418,75.91519434L-92.02815418,36.932227" stroke-width="1.6" stroke-linecap="round" stroke-linejoin="round" style="-webkit-tap-highlight-color: rgba(0, 0, 0, 0); stroke-linecap: round; stroke-linejoin: round;" transform="matrix(1,0,0,1,350.3969,280.4373)"></path>
    <path fill="none" stroke="#000000" d="M-85.36148751,40.78130702L-58.26654186,25.1386687M-92.02815418,36.932227L-58.26654186,17.44074333" stroke-width="1.6" stroke-linecap="round" stroke-linejoin="round" style="-webkit-tap-highlight-color: rgba(0, 0, 0, 0); stroke-linecap: round; stroke-linejoin: round;" transform="matrix(1,0,0,1,350.3969,280.4373)"></path>
    <path fill="none" stroke="#000000" d="M-24.50492953,36.932227L-58.26654186,17.44074333" stroke-width="1.6" stroke-linecap="round" stroke-linejoin="round" style="-webkit-tap-highlight-color: rgba(0, 0, 0, 0); stroke-linecap: round; stroke-linejoin: round;" transform="matrix(1,0,0,1,350.3969,280.4373)"></path>
    <path fill="none" stroke="#000000" d="M9.25195758,17.44074333L37.29606803,-9.63942465" stroke-width="1.6" stroke-linecap="round" stroke-linejoin="round" style="-webkit-tap-highlight-color: rgba(0, 0, 0, 0); stroke-linecap: round; stroke-linejoin: round;" transform="matrix(1,0,0,1,350.3969,280.4373)"></path>
    <path fill="#000000" stroke="#000000" d="M37.29606803,-9.63942465L33.23711892,-72.0567683L23.99460235,-70.75792321Z" stroke-width="1.6" stroke-linecap="round" stroke-linejoin="round" style="-webkit-tap-highlight-color: rgba(0, 0, 0, 0); stroke-linecap: round; stroke-linejoin: round;" transform="matrix(1,0,0,1,350.3969,280.4373)"></path>
    <path fill="none" stroke="#000000" d="M28.61586063,-71.40734576L48.15021465,-86.66884153" stroke-width="1.6" stroke-linecap="round" stroke-linejoin="round" style="-webkit-tap-highlight-color: rgba(0, 0, 0, 0); stroke-linecap: round; stroke-linejoin: round;" transform="matrix(1,0,0,1,350.3969,280.4373)"></path>
    <path fill="none" stroke="#000000" d="M28.61586063,-71.40734576L4.10766677,-81.30802807" stroke-width="1.6" stroke-linecap="round" stroke-linejoin="round" style="-webkit-tap-highlight-color: rgba(0, 0, 0, 0); stroke-linecap: round; stroke-linejoin: round;" transform="matrix(1,0,0,1,350.3969,280.4373)"></path>
    <path fill="none" stroke="#000000" d="M37.29606803,-9.63942465L60.22144729,2.55030542" stroke-width="1.6" stroke-linecap="round" stroke-linejoin="round" style="-webkit-tap-highlight-color: rgba(0, 0, 0, 0); stroke-linecap: round; stroke-linejoin: round;" transform="matrix(1,0,0,1,350.3969,280.4373)"></path>
    <path fill="none" stroke="#000000" d="M64.9479862,47.05362289L68.77787144,25.32330336" stroke-width="1.6" stroke-linecap="round" stroke-linejoin="round" style="-webkit-tap-highlight-color: rgba(0, 0, 0, 0); stroke-linecap: round; stroke-linejoin: round;" transform="matrix(1,0,0,1,350.3969,280.4373)"></path>
    <text x="77.904" y="-120.764" text-anchor="middle"  stroke="none" fill="#000000" style="-webkit-tap-highlight-color: rgba(0, 0, 0, 0); text-anchor: middle; font: 24px Arial;" font-size="24px" transform="matrix(1,0,0,1,350.3969,280.4373)">
      <tspan dy="8.493812500000004" style="-webkit-tap-highlight-color: rgba(0, 0, 0, 0);">Chiral</tspan>
    </text>
  </g>
</g> </g></g><g transform='translate(509, 0)'><g transform='scale(0.75)'> <g transform='translate(10, 115)'> 
  <g transform="translate(-235, -164)">
    <defs style="-webkit-tap-highlight-color: rgba(0, 0, 0, 0);"></defs>
    <text x="49.28072277679946" y="-20.00029333474004" text-anchor="middle"  stroke="none" fill="#000000" style="-webkit-tap-highlight-color: rgba(0, 0, 0, 0); text-anchor: middle; font: 24px Arial;" font-size="24px" transform="matrix(1,0,0,1,362.6031,262.3508)">
      <tspan dy="8.50751916525996" style="-webkit-tap-highlight-color: rgba(0, 0, 0, 0);">C</tspan>
    </text>
    <text x="49.28072277679946" y="-20.00029333474004" text-anchor="middle"  stroke="none" fill="#000000" style="-webkit-tap-highlight-color: rgba(0, 0, 0, 0); text-anchor: middle; font: 24px Arial;" font-size="24px" transform="matrix(1,0,0,1,380.7469,262.3508)">
      <tspan dy="8.50751916525996" style="-webkit-tap-highlight-color: rgba(0, 0, 0, 0);">H</tspan>
    </text>
    <text x="49.28072277679946" y="-20.00029333474004" text-anchor="middle"  stroke="none" fill="#000000" style="-webkit-tap-highlight-color: rgba(0, 0, 0, 0); text-anchor: middle; font: 17px Arial;" font-size="17px" transform="matrix(1,0,0,1,394.9531,267.7539)">
      <tspan dy="5.507519165259961" style="-webkit-tap-highlight-color: rgba(0, 0, 0, 0);">3</tspan>
    </text>
    <text x="-54.64322566848976" y="-80.00117333896016" text-anchor="middle"  stroke="none" fill="#000000" style="-webkit-tap-highlight-color: rgba(0, 0, 0, 0); text-anchor: middle; font: 24px Arial;" font-size="24px" transform="matrix(1,0,0,1,362.6031,262.3508)">
      <tspan dy="8.506639161039843" style="-webkit-tap-highlight-color: rgba(0, 0, 0, 0);">O</tspan>
    </text>
    <text x="-54.64322566848976" y="-80.00117333896016" text-anchor="middle"  stroke="none" fill="#000000" style="-webkit-tap-highlight-color: rgba(0, 0, 0, 0); text-anchor: middle; font: 17px Arial;" font-size="17px" transform="matrix(1,0,0,1,377.7469,254.2461)">
      <tspan dy="5.506639161039843" style="-webkit-tap-highlight-color: rgba(0, 0, 0, 0);">&#x2013;</tspan>
    </text>
    <text x="-89.28130944627954" y="-20.00029333474004" text-anchor="middle"  stroke="none" fill="#000000" style="-webkit-tap-highlight-color: rgba(0, 0, 0, 0); text-anchor: middle; font: 24px Arial;" font-size="24px" transform="matrix(1,0,0,1,362.6031,262.3508)">
      <tspan dy="8.50751916525996" style="-webkit-tap-highlight-color: rgba(0, 0, 0, 0);">C</tspan>
    </text>
    <text x="-89.28130944627954" y="-20.00029333474004" text-anchor="middle"  stroke="none" fill="#000000" style="-webkit-tap-highlight-color: rgba(0, 0, 0, 0); text-anchor: middle; font: 24px Arial;" font-size="24px" transform="matrix(1,0,0,1,334.1906,262.3508)">
      <tspan dy="8.50751916525996" style="-webkit-tap-highlight-color: rgba(0, 0, 0, 0);">H</tspan>
    </text>
    <text x="-89.28130944627954" y="-20.00029333474004" text-anchor="middle"  stroke="none" fill="#000000" style="-webkit-tap-highlight-color: rgba(0, 0, 0, 0); text-anchor: middle; font: 17px Arial;" font-size="17px" transform="matrix(1,0,0,1,348.3969,267.7539)">
      <tspan dy="5.507519165259961" style="-webkit-tap-highlight-color: rgba(0, 0, 0, 0);">3</tspan>
    </text>
    <text x="14.642638999009678" y="-80.00117333896016" text-anchor="middle"  stroke="none" fill="#000000" style="-webkit-tap-highlight-color: rgba(0, 0, 0, 0); text-anchor: middle; font: 24px Arial;" font-size="24px" transform="matrix(1,0,0,1,362.6031,262.3508)">
      <tspan dy="8.506639161039843" style="-webkit-tap-highlight-color: rgba(0, 0, 0, 0);">O</tspan>
    </text>
    <text x="-54.64322566848976" y="20.00029333474004" text-anchor="middle"  stroke="none" fill="#000000" style="-webkit-tap-highlight-color: rgba(0, 0, 0, 0); text-anchor: middle; font: 24px Arial;" font-size="24px" transform="matrix(1,0,0,1,362.6031,262.3508)">
      <tspan dy="8.49248083474004" style="-webkit-tap-highlight-color: rgba(0, 0, 0, 0);">O</tspan>
    </text>
    <text x="-54.64322566848976" y="20.00029333474004" text-anchor="middle"  stroke="none" fill="#000000" style="-webkit-tap-highlight-color: rgba(0, 0, 0, 0); text-anchor: middle; font: 17px Arial;" font-size="17px" transform="matrix(1,0,0,1,377.7469,254.2461)">
      <tspan dy="5.492480834740039" style="-webkit-tap-highlight-color: rgba(0, 0, 0, 0);">&#x2013;</tspan>
    </text>
    <text x="-89.28130944627954" y="80.00117333896016" text-anchor="middle"  stroke="none" fill="#000000" style="-webkit-tap-highlight-color: rgba(0, 0, 0, 0); text-anchor: middle; font: 24px Arial;" font-size="24px" transform="matrix(1,0,0,1,362.6031,262.3508)">
      <tspan dy="8.493360838960157" style="-webkit-tap-highlight-color: rgba(0, 0, 0, 0);">C</tspan>
    </text>
    <text x="-89.28130944627954" y="80.00117333896016" text-anchor="middle"  stroke="none" fill="#000000" style="-webkit-tap-highlight-color: rgba(0, 0, 0, 0); text-anchor: middle; font: 24px Arial;" font-size="24px" transform="matrix(1,0,0,1,334.1906,262.3508)">
      <tspan dy="8.493360838960157" style="-webkit-tap-highlight-color: rgba(0, 0, 0, 0);">H</tspan>
    </text>
    <text x="-89.28130944627954" y="80.00117333896016" text-anchor="middle"  stroke="none" fill="#000000" style="-webkit-tap-highlight-color: rgba(0, 0, 0, 0); text-anchor: middle; font: 17px Arial;" font-size="17px" transform="matrix(1,0,0,1,348.3969,267.7539)">
      <tspan dy="5.493360838960157" style="-webkit-tap-highlight-color: rgba(0, 0, 0, 0);">3</tspan>
    </text>
    <text x="49.28072277679946" y="80.00117333896016" text-anchor="middle"  stroke="none" fill="#000000" style="-webkit-tap-highlight-color: rgba(0, 0, 0, 0); text-anchor: middle; font: 24px Arial;" font-size="24px" transform="matrix(1,0,0,1,362.6031,262.3508)">
      <tspan dy="8.493360838960157" style="-webkit-tap-highlight-color: rgba(0, 0, 0, 0);">C</tspan>
    </text>
    <text x="49.28072277679946" y="80.00117333896016" text-anchor="middle"  stroke="none" fill="#000000" style="-webkit-tap-highlight-color: rgba(0, 0, 0, 0); text-anchor: middle; font: 24px Arial;" font-size="24px" transform="matrix(1,0,0,1,380.7469,262.3508)">
      <tspan dy="8.493360838960157" style="-webkit-tap-highlight-color: rgba(0, 0, 0, 0);">H</tspan>
    </text>
    <text x="49.28072277679946" y="80.00117333896016" text-anchor="middle"  stroke="none" fill="#000000" style="-webkit-tap-highlight-color: rgba(0, 0, 0, 0); text-anchor: middle; font: 17px Arial;" font-size="17px" transform="matrix(1,0,0,1,394.9531,267.7539)">
      <tspan dy="5.493360838960157" style="-webkit-tap-highlight-color: rgba(0, 0, 0, 0);">3</tspan>
    </text>
    <text x="14.642638999009678" y="20.00029333474004" text-anchor="middle"  stroke="none" fill="#000000" style="-webkit-tap-highlight-color: rgba(0, 0, 0, 0); text-anchor: middle; font: 24px Arial;" font-size="24px" transform="matrix(1,0,0,1,362.6031,262.3508)">
      <tspan dy="8.49248083474004" style="-webkit-tap-highlight-color: rgba(0, 0, 0, 0);">O</tspan>
    </text>
    <text x="89.28130944627954" y="-20.00029333474004" text-anchor="middle"  stroke="none" fill="#000000" style="-webkit-tap-highlight-color: rgba(0, 0, 0, 0); text-anchor: middle; font: 24px Arial;" font-size="24px" transform="matrix(1,0,0,1,362.6031,262.3508)">
      <tspan dy="8.50751916525996" style="-webkit-tap-highlight-color: rgba(0, 0, 0, 0);">V</tspan>
    </text>
    <text x="89.28130944627954" y="-20.00029333474004" text-anchor="middle"  stroke="none" fill="#000000" style="-webkit-tap-highlight-color: rgba(0, 0, 0, 0); text-anchor: middle; font: 17px Arial;" font-size="17px" transform="matrix(1,0,0,1,381.1375,254.2461)">
      <tspan dy="5.507519165259961" style="-webkit-tap-highlight-color: rgba(0, 0, 0, 0);">4+</tspan>
    </text>
    <text x="89.28130944627954" y="20.00029333474004" text-anchor="middle"  stroke="none" fill="#000000" style="-webkit-tap-highlight-color: rgba(0, 0, 0, 0); text-anchor: middle; font: 24px Arial;" font-size="24px" transform="matrix(1,0,0,1,362.6031,262.3508)">
      <tspan dy="8.49248083474004" style="-webkit-tap-highlight-color: rgba(0, 0, 0, 0);">O</tspan>
    </text>
    <text x="89.28130944627954" y="20.00029333474004" text-anchor="middle"  stroke="none" fill="#000000" style="-webkit-tap-highlight-color: rgba(0, 0, 0, 0); text-anchor: middle; font: 17px Arial;" font-size="17px" transform="matrix(1,0,0,1,382.4656,254.2461)">
      <tspan dy="5.492480834740039" style="-webkit-tap-highlight-color: rgba(0, 0, 0, 0);">2&#x2013;</tspan>
    </text>
    <path fill="none" stroke="#000000" d="M37.83816252,-26.60731476L14.642639,-40.00058667" stroke-width="1.6" stroke-linecap="round" stroke-linejoin="round" transform="matrix(1,0,0,1,362.6031,262.3508)" style="-webkit-tap-highlight-color: rgba(0, 0, 0, 0); stroke-linecap: round; stroke-linejoin: round;"></path>
    <path fill="none" stroke="#000000" d="M14.642639,-40.00058667L-20.00029333,-20.00029333" stroke-width="1.6" stroke-linecap="round" stroke-linejoin="round" transform="matrix(1,0,0,1,362.6031,262.3508)" style="-webkit-tap-highlight-color: rgba(0, 0, 0, 0); stroke-linecap: round; stroke-linejoin: round;"></path>
    <path fill="none" stroke="#000000" d="M-20.00029333,-27.6982187L-47.976559,-43.84966669M-20.00029333,-20.00029333L-54.64322567,-40.00058667" stroke-width="1.6" stroke-linecap="round" stroke-linejoin="round" transform="matrix(1,0,0,1,362.6031,262.3508)" style="-webkit-tap-highlight-color: rgba(0, 0, 0, 0); stroke-linecap: round; stroke-linejoin: round;"></path>
    <path fill="none" stroke="#000000" d="M-54.64322567,-40.00058667L-54.64322567,-63.284375" stroke-width="1.6" stroke-linecap="round" stroke-linejoin="round" transform="matrix(1,0,0,1,362.6031,262.3508)" style="-webkit-tap-highlight-color: rgba(0, 0, 0, 0); stroke-linecap: round; stroke-linejoin: round;"></path>
    <path fill="none" stroke="#000000" d="M-54.64322567,-40.00058667L-77.83816252,-26.60765351" stroke-width="1.6" stroke-linecap="round" stroke-linejoin="round" transform="matrix(1,0,0,1,362.6031,262.3508)" style="-webkit-tap-highlight-color: rgba(0, 0, 0, 0); stroke-linecap: round; stroke-linejoin: round;"></path>
    <path fill="none" stroke="#000000" d="M17.97597233,-40.00058667L17.97597233,-63.284375M11.30930567,-40.00058667L11.30930567,-63.284375" stroke-width="1.6" stroke-linecap="round" stroke-linejoin="round" transform="matrix(1,0,0,1,362.6031,262.3508)" style="-webkit-tap-highlight-color: rgba(0, 0, 0, 0); stroke-linecap: round; stroke-linejoin: round;"></path>
    <path fill="none" stroke="#000000" d="M-54.64322567,36.7L-54.64322567,60.00088" stroke-width="1.6" stroke-linecap="round" stroke-linejoin="round" transform="matrix(1,0,0,1,362.6031,262.3508)" style="-webkit-tap-highlight-color: rgba(0, 0, 0, 0); stroke-linecap: round; stroke-linejoin: round;"></path>
    <path fill="none" stroke="#000000" d="M-54.64322567,60.00088L-77.83816252,73.39381317" stroke-width="1.6" stroke-linecap="round" stroke-linejoin="round" transform="matrix(1,0,0,1,362.6031,262.3508)" style="-webkit-tap-highlight-color: rgba(0, 0, 0, 0); stroke-linecap: round; stroke-linejoin: round;"></path>
    <path fill="none" stroke="#000000" d="M-54.64322567,60.00088L-20.00029333,80.00117334M-47.976559,56.15179998L-20.00029333,72.30324797" stroke-width="1.6" stroke-linecap="round" stroke-linejoin="round" transform="matrix(1,0,0,1,362.6031,262.3508)" style="-webkit-tap-highlight-color: rgba(0, 0, 0, 0); stroke-linecap: round; stroke-linejoin: round;"></path>
    <path fill="none" stroke="#000000" d="M-20.00029333,80.00117334L14.642639,60.00088" stroke-width="1.6" stroke-linecap="round" stroke-linejoin="round" transform="matrix(1,0,0,1,362.6031,262.3508)" style="-webkit-tap-highlight-color: rgba(0, 0, 0, 0); stroke-linecap: round; stroke-linejoin: round;"></path>
    <path fill="none" stroke="#000000" d="M14.642639,60.00088L37.83816252,73.39415192" stroke-width="1.6" stroke-linecap="round" stroke-linejoin="round" transform="matrix(1,0,0,1,362.6031,262.3508)" style="-webkit-tap-highlight-color: rgba(0, 0, 0, 0); stroke-linecap: round; stroke-linejoin: round;"></path>
    <path fill="none" stroke="#000000" d="M17.97597233,60.00088L17.97597233,36.7M11.30930567,60.00088L11.30930567,36.7" stroke-width="1.6" stroke-linecap="round" stroke-linejoin="round" transform="matrix(1,0,0,1,362.6031,262.3508)" style="-webkit-tap-highlight-color: rgba(0, 0, 0, 0); stroke-linecap: round; stroke-linejoin: round;"></path>
  </g>
</g><svg font-family="sans-serif" font-size="33">
    <text x="366" y="242">+</text>
</svg>
<g transform='translate(456, 125)'> 
  <g transform="translate(-223, -174)">
    <defs style="-webkit-tap-highlight-color: rgba(0, 0, 0, 0);"></defs>
    <text x="-17.318733930855327" y="-50.00226848513745" text-anchor="middle"  stroke="none" fill="#000000" style="-webkit-tap-highlight-color: rgba(0, 0, 0, 0); text-anchor: middle; font: 24px Arial;" font-size="24px" transform="matrix(1,0,0,1,353.9407,281.6239)">
      <tspan dy="8.50554401486255" style="-webkit-tap-highlight-color: rgba(0, 0, 0, 0);">N</tspan>
    </text>
    <text x="-17.318733930855327" y="-50.00226848513745" text-anchor="middle"  stroke="none" fill="#000000" style="-webkit-tap-highlight-color: rgba(0, 0, 0, 0); text-anchor: middle; font: 24px Arial;" font-size="24px" transform="matrix(1,0,0,1,372.0689,281.6239)">
      <tspan dy="8.50554401486255" style="-webkit-tap-highlight-color: rgba(0, 0, 0, 0);">H</tspan>
    </text>
    <text x="-17.318733930855327" y="-50.00226848513745" text-anchor="middle"  stroke="none" fill="#000000" style="-webkit-tap-highlight-color: rgba(0, 0, 0, 0); text-anchor: middle; font: 17px Arial;" font-size="17px" transform="matrix(1,0,0,1,386.2595,287.027)">
      <tspan dy="5.505544014862551" style="-webkit-tap-highlight-color: rgba(0, 0, 0, 0);">2</tspan>
    </text>
    <text x="17.318733930855327" y="50.00226848513745" text-anchor="middle"  stroke="none" fill="#000000" style="-webkit-tap-highlight-color: rgba(0, 0, 0, 0); text-anchor: middle; font: 24px Arial;" font-size="24px" transform="matrix(1,0,0,1,353.9407,281.6239)">
      <tspan dy="8.49445598513745" style="-webkit-tap-highlight-color: rgba(0, 0, 0, 0);">N</tspan>
    </text>
    <text x="17.318733930855327" y="50.00226848513745" text-anchor="middle"  stroke="none" fill="#000000" style="-webkit-tap-highlight-color: rgba(0, 0, 0, 0); text-anchor: middle; font: 24px Arial;" font-size="24px" transform="matrix(1,0,0,1,372.0689,281.6239)">
      <tspan dy="8.49445598513745" style="-webkit-tap-highlight-color: rgba(0, 0, 0, 0);">H</tspan>
    </text>
    <text x="17.318733930855327" y="50.00226848513745" text-anchor="middle"  stroke="none" fill="#000000" style="-webkit-tap-highlight-color: rgba(0, 0, 0, 0); text-anchor: middle; font: 17px Arial;" font-size="17px" transform="matrix(1,0,0,1,386.2595,287.027)">
      <tspan dy="5.494455985137449" style="-webkit-tap-highlight-color: rgba(0, 0, 0, 0);">2</tspan>
    </text>
    <path fill="none" stroke="#000000" d="M-17.00762282,-9.99754462L-17.62984504,-9.99754462M-16.3854006,-13.3528061L-18.25206726,-13.3528061M-15.76317838,-16.70806758L-18.87428949,-16.70806758M-15.14095615,-20.06332907L-19.49651171,-20.06332907M-14.51873393,-23.41859055L-20.11873393,-23.41859055M-13.89651171,-26.77385203L-20.74095615,-26.77385203M-13.27428949,-30.12911352L-21.36317838,-30.12911352M-12.65206726,-33.484375L-21.9854006,-33.484375" stroke-width="1.6" stroke-linecap="round" stroke-linejoin="round" style="-webkit-tap-highlight-color: rgba(0, 0, 0, 0); stroke-linecap: round; stroke-linejoin: round;" transform="matrix(1,0,0,1,353.9407,281.6239)"></path>
    <path fill="none" stroke="#000000" d="M-17.31873393,-9.99754462L-51.96105026,9.99754462" stroke-width="1.6" stroke-linecap="round" stroke-linejoin="round" style="-webkit-tap-highlight-color: rgba(0, 0, 0, 0); stroke-linecap: round; stroke-linejoin: round;" transform="matrix(1,0,0,1,353.9407,281.6239)"></path>
    <path fill="none" stroke="#000000" d="M-58.62771693,13.84709122L-58.62771693,46.15318847M-51.96105026,9.99754462L-51.96105026,50.00226849" stroke-width="1.6" stroke-linecap="round" stroke-linejoin="round" style="-webkit-tap-highlight-color: rgba(0, 0, 0, 0); stroke-linecap: round; stroke-linejoin: round;" transform="matrix(1,0,0,1,353.9407,281.6239)"></path>
    <path fill="none" stroke="#000000" d="M-51.96105026,50.00226849L-86.60336659,70.00220619" stroke-width="1.6" stroke-linecap="round" stroke-linejoin="round" style="-webkit-tap-highlight-color: rgba(0, 0, 0, 0); stroke-linecap: round; stroke-linejoin: round;" transform="matrix(1,0,0,1,353.9407,281.6239)"></path>
    <path fill="none" stroke="#000000" d="M-86.60272925,62.30391286L-114.57416779,46.14907588M-86.60336659,70.00220619L-121.24083446,49.99742002" stroke-width="1.6" stroke-linecap="round" stroke-linejoin="round" style="-webkit-tap-highlight-color: rgba(0, 0, 0, 0); stroke-linecap: round; stroke-linejoin: round;" transform="matrix(1,0,0,1,353.9407,281.6239)"></path>
    <path fill="none" stroke="#000000" d="M-121.24083446,49.99742002L-121.24083446,9.99754462" stroke-width="1.6" stroke-linecap="round" stroke-linejoin="round" style="-webkit-tap-highlight-color: rgba(0, 0, 0, 0); stroke-linecap: round; stroke-linejoin: round;" transform="matrix(1,0,0,1,353.9407,281.6239)"></path>
    <path fill="none" stroke="#000000" d="M-114.57416779,13.84682186L-86.60313335,-2.29995109M-121.24083446,9.99754462L-86.60336659,-9.99754462" stroke-width="1.6" stroke-linecap="round" stroke-linejoin="round" style="-webkit-tap-highlight-color: rgba(0, 0, 0, 0); stroke-linecap: round; stroke-linejoin: round;" transform="matrix(1,0,0,1,353.9407,281.6239)"></path>
    <path fill="none" stroke="#000000" d="M-51.96105026,9.99754462L-86.60336659,-9.99754462" stroke-width="1.6" stroke-linecap="round" stroke-linejoin="round" style="-webkit-tap-highlight-color: rgba(0, 0, 0, 0); stroke-linecap: round; stroke-linejoin: round;" transform="matrix(1,0,0,1,353.9407,281.6239)"></path>
    <path fill="none" stroke="#000000" d="M-17.31873393,-9.99754462L17.31873393,9.99754462" stroke-width="1.6" stroke-linecap="round" stroke-linejoin="round" style="-webkit-tap-highlight-color: rgba(0, 0, 0, 0); stroke-linecap: round; stroke-linejoin: round;" transform="matrix(1,0,0,1,353.9407,281.6239)"></path>
    <path fill="none" stroke="#000000" d="M17.31873393,9.99754462L51.96105026,-9.99754462" stroke-width="1.6" stroke-linecap="round" stroke-linejoin="round" style="-webkit-tap-highlight-color: rgba(0, 0, 0, 0); stroke-linecap: round; stroke-linejoin: round;" transform="matrix(1,0,0,1,353.9407,281.6239)"></path>
    <path fill="none" stroke="#000000" d="M58.62771693,-13.84709122L58.62771693,-46.15318847M51.96105026,-9.99754462L51.96105026,-50.00226849" stroke-width="1.6" stroke-linecap="round" stroke-linejoin="round" style="-webkit-tap-highlight-color: rgba(0, 0, 0, 0); stroke-linecap: round; stroke-linejoin: round;" transform="matrix(1,0,0,1,353.9407,281.6239)"></path>
    <path fill="none" stroke="#000000" d="M51.96105026,-50.00226849L86.60336659,-70.00220619" stroke-width="1.6" stroke-linecap="round" stroke-linejoin="round" style="-webkit-tap-highlight-color: rgba(0, 0, 0, 0); stroke-linecap: round; stroke-linejoin: round;" transform="matrix(1,0,0,1,353.9407,281.6239)"></path>
    <path fill="none" stroke="#000000" d="M86.60313331,-62.30414614L114.57416779,-46.15345784M86.60336659,-70.00220619L121.24083446,-50.00226849" stroke-width="1.6" stroke-linecap="round" stroke-linejoin="round" style="-webkit-tap-highlight-color: rgba(0, 0, 0, 0); stroke-linecap: round; stroke-linejoin: round;" transform="matrix(1,0,0,1,353.9407,281.6239)"></path>
    <path fill="none" stroke="#000000" d="M121.24083446,-50.00226849L121.24083446,-9.99754462" stroke-width="1.6" stroke-linecap="round" stroke-linejoin="round" style="-webkit-tap-highlight-color: rgba(0, 0, 0, 0); stroke-linecap: round; stroke-linejoin: round;" transform="matrix(1,0,0,1,353.9407,281.6239)"></path>
    <path fill="none" stroke="#000000" d="M114.57416779,-13.84682186L86.60313335,2.29995109M121.24083446,-9.99754462L86.60336659,9.99754462" stroke-width="1.6" stroke-linecap="round" stroke-linejoin="round" style="-webkit-tap-highlight-color: rgba(0, 0, 0, 0); stroke-linecap: round; stroke-linejoin: round;" transform="matrix(1,0,0,1,353.9407,281.6239)"></path>
    <path fill="none" stroke="#000000" d="M51.96105026,-9.99754462L86.60336659,9.99754462" stroke-width="1.6" stroke-linecap="round" stroke-linejoin="round" style="-webkit-tap-highlight-color: rgba(0, 0, 0, 0); stroke-linecap: round; stroke-linejoin: round;" transform="matrix(1,0,0,1,353.9407,281.6239)"></path>
    <path fill="none" stroke="#000000" d="M17.00762282,9.99754462L17.62984504,9.99754462M16.3854006,13.3528061L18.25206726,13.3528061M15.76317838,16.70806758L18.87428949,16.70806758M15.14095615,20.06332907L19.49651171,20.06332907M14.51873393,23.41859055L20.11873393,23.41859055M13.89651171,26.77385203L20.74095615,26.77385203M13.27428949,30.12911352L21.36317838,30.12911352M12.65206726,33.484375L21.9854006,33.484375" stroke-width="1.6" stroke-linecap="round" stroke-linejoin="round" style="-webkit-tap-highlight-color: rgba(0, 0, 0, 0); stroke-linecap: round; stroke-linejoin: round;" transform="matrix(1,0,0,1,353.9407,281.6239)"></path>
    <text x="100.024" y="-97.752" text-anchor="middle"  stroke="none" fill="#000000" style="-webkit-tap-highlight-color: rgba(0, 0, 0, 0); text-anchor: middle; font: 24px Arial;" font-size="24px" transform="matrix(1,0,0,1,353.9407,281.6239)">
      <tspan dy="8.505812500000005" style="-webkit-tap-highlight-color: rgba(0, 0, 0, 0);">Chiral</tspan>
    </text>
  </g>
</g> </g></g><g transform='translate(479, 296)'> <svg stroke="black" stroke-width="1">
  <line x1="0" y1="4" x2="738" y2="4" stroke="black"/>
  <polygon points="730,4 728,7 738,4 728,1"/>
</svg>
 </g> <g transform='translate(479, 296)'> <svg font-family="sans-serif">
  <text text-anchor="middle" x="369" y="30" font-size="22.8">rt °C</text>
</svg>
 </g><g transform='translate(1257, 0)'><g transform='scale(1)'> <g transform='translate(10, 221)'> 
  <g transform="translate(-253, -194)">
    <defs style="-webkit-tap-highlight-color: rgba(0, 0, 0, 0);"></defs>
    <text x="-86.60063388795629" y="30.001384083455022" text-anchor="middle"  stroke="none" fill="#000000" style="-webkit-tap-highlight-color: rgba(0, 0, 0, 0); text-anchor: middle; font: 24px Arial;" font-size="24px" transform="matrix(1,0,0,1,377.5544,254.2503)">
      <tspan dy="8.493571583455022" style="-webkit-tap-highlight-color: rgba(0, 0, 0, 0);">C</tspan>
    </text>
    <text x="-86.60063388795629" y="30.001384083455022" text-anchor="middle"  stroke="none" fill="#000000" style="-webkit-tap-highlight-color: rgba(0, 0, 0, 0); text-anchor: middle; font: 24px Arial;" font-size="24px" transform="matrix(1,0,0,1,349.1262,254.2503)">
      <tspan dy="8.493571583455022" style="-webkit-tap-highlight-color: rgba(0, 0, 0, 0);">H</tspan>
    </text>
    <text x="-86.60063388795629" y="30.001384083455022" text-anchor="middle"  stroke="none" fill="#000000" style="-webkit-tap-highlight-color: rgba(0, 0, 0, 0); text-anchor: middle; font: 17px Arial;" font-size="17px" transform="matrix(1,0,0,1,363.3403,259.6535)">
      <tspan dy="5.493571583455022" style="-webkit-tap-highlight-color: rgba(0, 0, 0, 0);">3</tspan>
    </text>
    <text x="-51.959410669422674" y="9.997229149981294" text-anchor="middle"  stroke="none" fill="#000000" style="-webkit-tap-highlight-color: rgba(0, 0, 0, 0); text-anchor: middle; font: 24px Arial;" font-size="24px" transform="matrix(1,0,0,1,377.5544,254.2503)">
      <tspan dy="8.505041649981294" style="-webkit-tap-highlight-color: rgba(0, 0, 0, 0);">N</tspan>
    </text>
    <text x="-51.959410669422674" y="9.997229149981294" text-anchor="middle"  stroke="none" fill="#000000" style="-webkit-tap-highlight-color: rgba(0, 0, 0, 0); text-anchor: middle; font: 17px Arial;" font-size="17px" transform="matrix(1,0,0,1,392.0419,246.1457)">
      <tspan dy="5.505041649981294" style="-webkit-tap-highlight-color: rgba(0, 0, 0, 0);">+</tspan>
    </text>
    <text x="-51.959410669422674" y="-30.001384083455022" text-anchor="middle"  stroke="none" fill="#000000" style="-webkit-tap-highlight-color: rgba(0, 0, 0, 0); text-anchor: middle; font: 24px Arial;" font-size="24px" transform="matrix(1,0,0,1,377.5544,254.2503)">
      <tspan dy="8.506428416544978" style="-webkit-tap-highlight-color: rgba(0, 0, 0, 0);">C</tspan>
    </text>
    <text x="-51.959410669422674" y="-30.001384083455022" text-anchor="middle"  stroke="none" fill="#000000" style="-webkit-tap-highlight-color: rgba(0, 0, 0, 0); text-anchor: middle; font: 24px Arial;" font-size="24px" transform="matrix(1,0,0,1,395.7137,254.2503)">
      <tspan dy="8.506428416544978" style="-webkit-tap-highlight-color: rgba(0, 0, 0, 0);">H</tspan>
    </text>
    <text x="-51.959410669422674" y="-30.001384083455022" text-anchor="middle"  stroke="none" fill="#000000" style="-webkit-tap-highlight-color: rgba(0, 0, 0, 0); text-anchor: middle; font: 17px Arial;" font-size="17px" transform="matrix(1,0,0,1,409.9278,259.6535)">
      <tspan dy="5.506428416544978" style="-webkit-tap-highlight-color: rgba(0, 0, 0, 0);">3</tspan>
    </text>
    <text x="-86.60063388795629" y="-9.997229149981294" text-anchor="middle"  stroke="none" fill="#000000" style="-webkit-tap-highlight-color: rgba(0, 0, 0, 0); text-anchor: middle; font: 24px Arial;" font-size="24px" transform="matrix(1,0,0,1,377.5544,254.2503)">
      <tspan dy="8.494958350018706" style="-webkit-tap-highlight-color: rgba(0, 0, 0, 0);">C</tspan>
    </text>
    <text x="-86.60063388795629" y="-9.997229149981294" text-anchor="middle"  stroke="none" fill="#000000" style="-webkit-tap-highlight-color: rgba(0, 0, 0, 0); text-anchor: middle; font: 24px Arial;" font-size="24px" transform="matrix(1,0,0,1,349.1262,254.2503)">
      <tspan dy="8.494958350018706" style="-webkit-tap-highlight-color: rgba(0, 0, 0, 0);">H</tspan>
    </text>
    <text x="-86.60063388795629" y="-9.997229149981294" text-anchor="middle"  stroke="none" fill="#000000" style="-webkit-tap-highlight-color: rgba(0, 0, 0, 0); text-anchor: middle; font: 17px Arial;" font-size="17px" transform="matrix(1,0,0,1,363.3403,259.6535)">
      <tspan dy="5.494958350018706" style="-webkit-tap-highlight-color: rgba(0, 0, 0, 0);">3</tspan>
    </text>
    <text x="-51.959410669422674" y="50.00069070017318" text-anchor="middle"  stroke="none" fill="#000000" style="-webkit-tap-highlight-color: rgba(0, 0, 0, 0); text-anchor: middle; font: 24px Arial;" font-size="24px" transform="matrix(1,0,0,1,377.5544,254.2503)">
      <tspan dy="8.49287820017318" style="-webkit-tap-highlight-color: rgba(0, 0, 0, 0);">Br</tspan>
    </text>
    <text x="-51.959410669422674" y="50.00069070017318" text-anchor="middle"  stroke="none" fill="#000000" style="-webkit-tap-highlight-color: rgba(0, 0, 0, 0); text-anchor: middle; font: 17px Arial;" font-size="17px" transform="matrix(1,0,0,1,395.3778,246.1457)">
      <tspan dy="5.49287820017318" style="-webkit-tap-highlight-color: rgba(0, 0, 0, 0);">&#x2013;</tspan>
    </text>
    <path fill="none" stroke="#000000" d="M-75.1507335,23.3894472L-63.4117665,16.61058397" stroke-width="1.6" stroke-linecap="round" stroke-linejoin="round" transform="matrix(1,0,0,1,377.5544,254.2503)" style="-webkit-tap-highlight-color: rgba(0, 0, 0, 0); stroke-linecap: round; stroke-linejoin: round;"></path>
    <path fill="none" stroke="#000000" d="M-51.95941067,-6.7L-51.95941067,-13.284375" stroke-width="1.6" stroke-linecap="round" stroke-linejoin="round" transform="matrix(1,0,0,1,377.5544,254.2503)" style="-webkit-tap-highlight-color: rgba(0, 0, 0, 0); stroke-linecap: round; stroke-linejoin: round;"></path>
    <path fill="none" stroke="#000000" d="M-40.5101085,16.60882058L-17.31818745,30.00138408" stroke-width="1.6" stroke-linecap="round" stroke-linejoin="round" transform="matrix(1,0,0,1,377.5544,254.2503)" style="-webkit-tap-highlight-color: rgba(0, 0, 0, 0); stroke-linecap: round; stroke-linejoin: round;"></path>
    <path fill="none" stroke="#000000" d="M-17.31818745,30.00138408L17.31818745,9.99722915" stroke-width="1.6" stroke-linecap="round" stroke-linejoin="round" transform="matrix(1,0,0,1,377.5544,254.2503)" style="-webkit-tap-highlight-color: rgba(0, 0, 0, 0); stroke-linecap: round; stroke-linejoin: round;"></path>
    <path fill="none" stroke="#000000" d="M23.98485412,6.14861563L23.98485412,-26.15230406M17.31818745,9.99722915L17.31818745,-30.00138408" stroke-width="1.6" stroke-linecap="round" stroke-linejoin="round" transform="matrix(1,0,0,1,377.5544,254.2503)" style="-webkit-tap-highlight-color: rgba(0, 0, 0, 0); stroke-linecap: round; stroke-linejoin: round;"></path>
    <path fill="none" stroke="#000000" d="M17.31818745,-30.00138408L51.95941067,-50.0006907" stroke-width="1.6" stroke-linecap="round" stroke-linejoin="round" transform="matrix(1,0,0,1,377.5544,254.2503)" style="-webkit-tap-highlight-color: rgba(0, 0, 0, 0); stroke-linecap: round; stroke-linejoin: round;"></path>
    <path fill="none" stroke="#000000" d="M51.95941067,-42.30276533L79.93396722,-26.15230406M51.95941067,-50.0006907L86.60063389,-30.00138408" stroke-width="1.6" stroke-linecap="round" stroke-linejoin="round" transform="matrix(1,0,0,1,377.5544,254.2503)" style="-webkit-tap-highlight-color: rgba(0, 0, 0, 0); stroke-linecap: round; stroke-linejoin: round;"></path>
    <path fill="none" stroke="#000000" d="M86.60063389,-30.00138408L86.60063389,9.99722915" stroke-width="1.6" stroke-linecap="round" stroke-linejoin="round" transform="matrix(1,0,0,1,377.5544,254.2503)" style="-webkit-tap-highlight-color: rgba(0, 0, 0, 0); stroke-linecap: round; stroke-linejoin: round;"></path>
    <path fill="none" stroke="#000000" d="M79.93396722,6.14861563L51.95941067,22.30299216M86.60063389,9.99722915L51.95941067,30.00138408" stroke-width="1.6" stroke-linecap="round" stroke-linejoin="round" transform="matrix(1,0,0,1,377.5544,254.2503)" style="-webkit-tap-highlight-color: rgba(0, 0, 0, 0); stroke-linecap: round; stroke-linejoin: round;"></path>
    <path fill="none" stroke="#000000" d="M17.31818745,9.99722915L51.95941067,30.00138408" stroke-width="1.6" stroke-linecap="round" stroke-linejoin="round" transform="matrix(1,0,0,1,377.5544,254.2503)" style="-webkit-tap-highlight-color: rgba(0, 0, 0, 0); stroke-linecap: round; stroke-linejoin: round;"></path>
    <path fill="none" stroke="#000000" d="M-63.4121024,3.38688616L-75.1503976,-3.38830341" stroke-width="1.6" stroke-linecap="round" stroke-linejoin="round" transform="matrix(1,0,0,1,377.5544,254.2503)" style="-webkit-tap-highlight-color: rgba(0, 0, 0, 0); stroke-linecap: round; stroke-linejoin: round;"></path>
  </g>
</g> </g></g> </svg></svg>