<svg version="1.1" xmlns="http://www.w3.org/2000/svg" xmlns:xlink="http://www.w3.org/1999/xlink" xmlns:cml="http://www.xml-cml.org/schema"
  width="1560" height="440" >
  <rect  width="1560" height="440" stroke-width="1" stroke="white" fill="none"/>
  <svg width="100%"  viewBox="0 0 1128 372.5" >
  <title>Reaction 1</title> <g transform='translate(50, 0)'><g transform='scale(1)'> <g transform='translate(10, 85)'> 
  <g transform="translate(-269, -174)">
    <defs style="-webkit-tap-highlight-color: rgba(0, 0, 0, 0);"></defs>
    <text x="-51.96092441926456" y="9.997520402400253" text-anchor="middle"  stroke="none" fill="#000000" style="-webkit-tap-highlight-color: rgba(0, 0, 0, 0); text-anchor: middle; font: 24px Arial;" font-size="24px" transform="matrix(1,0,0,1,359,262.3508)">
      <tspan dy="8.505332902400253" style="-webkit-tap-highlight-color: rgba(0, 0, 0, 0);">C</tspan>
    </text>
    <text x="-51.96092441926456" y="9.997520402400253" text-anchor="middle"  stroke="none" fill="#000000" style="-webkit-tap-highlight-color: rgba(0, 0, 0, 0); text-anchor: middle; font: 24px Arial;" font-size="24px" transform="matrix(1,0,0,1,330.6187,262.3508)">
      <tspan dy="8.505332902400253" style="-webkit-tap-highlight-color: rgba(0, 0, 0, 0);">H</tspan>
    </text>
    <text x="-51.96092441926456" y="9.997520402400253" text-anchor="middle"  stroke="none" fill="#000000" style="-webkit-tap-highlight-color: rgba(0, 0, 0, 0); text-anchor: middle; font: 17px Arial;" font-size="17px" transform="matrix(1,0,0,1,344.8094,267.7539)">
      <tspan dy="5.505332902400253" style="-webkit-tap-highlight-color: rgba(0, 0, 0, 0);">3</tspan>
    </text>
    <text x="-17.318691987087153" y="-50.002147386010584" text-anchor="middle"  stroke="none" fill="#000000" style="-webkit-tap-highlight-color: rgba(0, 0, 0, 0); text-anchor: middle; font: 24px Arial;" font-size="24px" transform="matrix(1,0,0,1,359,262.3508)">
      <tspan dy="8.505665113989416" style="-webkit-tap-highlight-color: rgba(0, 0, 0, 0);">O</tspan>
    </text>
    <text x="-17.318691987087153" y="-50.002147386010584" text-anchor="middle"  stroke="none" fill="#000000" style="-webkit-tap-highlight-color: rgba(0, 0, 0, 0); text-anchor: middle; font: 17px Arial;" font-size="17px" transform="matrix(1,0,0,1,374.1438,254.2461)">
      <tspan dy="5.505665113989416" style="-webkit-tap-highlight-color: rgba(0, 0, 0, 0);">&#x2013;</tspan>
    </text>
    <text x="51.96092441926456" y="70.00203664881418" text-anchor="middle"  stroke="none" fill="#000000" style="-webkit-tap-highlight-color: rgba(0, 0, 0, 0); text-anchor: middle; font: 24px Arial;" font-size="24px" transform="matrix(1,0,0,1,359,262.3508)">
      <tspan dy="8.494224148814183" style="-webkit-tap-highlight-color: rgba(0, 0, 0, 0);">C</tspan>
    </text>
    <text x="51.96092441926456" y="70.00203664881418" text-anchor="middle"  stroke="none" fill="#000000" style="-webkit-tap-highlight-color: rgba(0, 0, 0, 0); text-anchor: middle; font: 24px Arial;" font-size="24px" transform="matrix(1,0,0,1,377.1281,262.3508)">
      <tspan dy="8.494224148814183" style="-webkit-tap-highlight-color: rgba(0, 0, 0, 0);">H</tspan>
    </text>
    <text x="51.96092441926456" y="70.00203664881418" text-anchor="middle"  stroke="none" fill="#000000" style="-webkit-tap-highlight-color: rgba(0, 0, 0, 0); text-anchor: middle; font: 17px Arial;" font-size="17px" transform="matrix(1,0,0,1,391.3188,267.7539)">
      <tspan dy="5.494224148814183" style="-webkit-tap-highlight-color: rgba(0, 0, 0, 0);">3</tspan>
    </text>
    <text x="-17.318691987087153" y="70.00203664881418" text-anchor="middle"  stroke="none" fill="#000000" style="-webkit-tap-highlight-color: rgba(0, 0, 0, 0); text-anchor: middle; font: 24px Arial;" font-size="24px" transform="matrix(1,0,0,1,359,262.3508)">
      <tspan dy="8.494224148814183" style="-webkit-tap-highlight-color: rgba(0, 0, 0, 0);">O</tspan>
    </text>
    <text x="-51.96092441926456" y="-70.00203664881418" text-anchor="middle"  stroke="none" fill="#000000" style="-webkit-tap-highlight-color: rgba(0, 0, 0, 0); text-anchor: middle; font: 24px Arial;" font-size="24px" transform="matrix(1,0,0,1,359,262.3508)">
      <tspan dy="8.505775851185817" style="-webkit-tap-highlight-color: rgba(0, 0, 0, 0);">Li</tspan>
    </text>
    <text x="-51.96092441926456" y="-70.00203664881418" text-anchor="middle"  stroke="none" fill="#000000" style="-webkit-tap-highlight-color: rgba(0, 0, 0, 0); text-anchor: middle; font: 17px Arial;" font-size="17px" transform="matrix(1,0,0,1,374.1438,254.2461)">
      <tspan dy="5.505775851185817" style="-webkit-tap-highlight-color: rgba(0, 0, 0, 0);">+</tspan>
    </text>
    <path fill="none" stroke="#000000" d="M-40.5253976,3.39708477L-17.31869199,-9.9975204" stroke-width="1.6" stroke-linecap="round" stroke-linejoin="round" transform="matrix(1,0,0,1,359,262.3508)" style="-webkit-tap-highlight-color: rgba(0, 0, 0, 0); stroke-linecap: round; stroke-linejoin: round;"></path>
    <path fill="none" stroke="#000000" d="M-17.31869199,-9.9975204L-17.31869199,-33.284375" stroke-width="1.6" stroke-linecap="round" stroke-linejoin="round" transform="matrix(1,0,0,1,359,262.3508)" style="-webkit-tap-highlight-color: rgba(0, 0, 0, 0); stroke-linecap: round; stroke-linejoin: round;"></path>
    <path fill="none" stroke="#000000" d="M-17.31892523,-2.29992688L10.65202532,13.84679765M-17.31869199,-9.9975204L17.31869199,9.9975204" stroke-width="1.6" stroke-linecap="round" stroke-linejoin="round" transform="matrix(1,0,0,1,359,262.3508)" style="-webkit-tap-highlight-color: rgba(0, 0, 0, 0); stroke-linecap: round; stroke-linejoin: round;"></path>
    <path fill="none" stroke="#000000" d="M17.31869199,9.9975204L17.31869199,50.00214739" stroke-width="1.6" stroke-linecap="round" stroke-linejoin="round" transform="matrix(1,0,0,1,359,262.3508)" style="-webkit-tap-highlight-color: rgba(0, 0, 0, 0); stroke-linecap: round; stroke-linejoin: round;"></path>
    <path fill="none" stroke="#000000" d="M17.31869199,50.00214739L40.52556555,63.40009748" stroke-width="1.6" stroke-linecap="round" stroke-linejoin="round" transform="matrix(1,0,0,1,359,262.3508)" style="-webkit-tap-highlight-color: rgba(0, 0, 0, 0); stroke-linecap: round; stroke-linejoin: round;"></path>
    <path fill="none" stroke="#000000" d="M15.65190117,47.11546772L-6.87995334,60.12553209M18.98548281,52.88882705L-3.5463717,65.89889142" stroke-width="1.6" stroke-linecap="round" stroke-linejoin="round" transform="matrix(1,0,0,1,359,262.3508)" style="-webkit-tap-highlight-color: rgba(0, 0, 0, 0); stroke-linecap: round; stroke-linejoin: round;"></path>
  </g>
</g> </g></g><g transform='translate(354, 0)'><g transform='scale(0.75)'> <g transform='translate(10, 119)'> 
  <g transform="translate(-192, -204)">
    <defs style="-webkit-tap-highlight-color: rgba(0, 0, 0, 0);"></defs>
    <text x="-141.24491927444038" y="40.00104987862184" text-anchor="middle"  stroke="none" fill="#000000" style="-webkit-tap-highlight-color: rgba(0, 0, 0, 0); text-anchor: middle; font: 24px Arial;" font-size="24px" transform="matrix(1,0,0,1,371.8781,253.549)">
      <tspan dy="8.493237378621842" style="-webkit-tap-highlight-color: rgba(0, 0, 0, 0);">C</tspan>
    </text>
    <text x="-141.24491927444038" y="40.00104987862184" text-anchor="middle"  stroke="none" fill="#000000" style="-webkit-tap-highlight-color: rgba(0, 0, 0, 0); text-anchor: middle; font: 24px Arial;" font-size="24px" transform="matrix(1,0,0,1,343.4656,253.549)">
      <tspan dy="8.493237378621842" style="-webkit-tap-highlight-color: rgba(0, 0, 0, 0);">H</tspan>
    </text>
    <text x="-141.24491927444038" y="40.00104987862184" text-anchor="middle"  stroke="none" fill="#000000" style="-webkit-tap-highlight-color: rgba(0, 0, 0, 0); text-anchor: middle; font: 17px Arial;" font-size="17px" transform="matrix(1,0,0,1,357.6719,258.9521)">
      <tspan dy="5.493237378621842" style="-webkit-tap-highlight-color: rgba(0, 0, 0, 0);">3</tspan>
    </text>
    <text x="-106.60643438560712" y="20.00052493931092" text-anchor="middle"  stroke="none" fill="#000000" style="-webkit-tap-highlight-color: rgba(0, 0, 0, 0); text-anchor: middle; font: 24px Arial;" font-size="24px" transform="matrix(1,0,0,1,371.8781,253.549)">
      <tspan dy="8.492712439310921" style="-webkit-tap-highlight-color: rgba(0, 0, 0, 0);">N</tspan>
    </text>
    <text x="-106.60643438560712" y="20.00052493931092" text-anchor="middle"  stroke="none" fill="#000000" style="-webkit-tap-highlight-color: rgba(0, 0, 0, 0); text-anchor: middle; font: 17px Arial;" font-size="17px" transform="matrix(1,0,0,1,386.3578,245.4443)">
      <tspan dy="5.492712439310921" style="-webkit-tap-highlight-color: rgba(0, 0, 0, 0);">+</tspan>
    </text>
    <text x="-106.60643438560712" y="-20.00052493931092" text-anchor="middle"  stroke="none" fill="#000000" style="-webkit-tap-highlight-color: rgba(0, 0, 0, 0); text-anchor: middle; font: 24px Arial;" font-size="24px" transform="matrix(1,0,0,1,371.8781,253.549)">
      <tspan dy="8.507287560689079" style="-webkit-tap-highlight-color: rgba(0, 0, 0, 0);">C</tspan>
    </text>
    <text x="-106.60643438560712" y="-20.00052493931092" text-anchor="middle"  stroke="none" fill="#000000" style="-webkit-tap-highlight-color: rgba(0, 0, 0, 0); text-anchor: middle; font: 24px Arial;" font-size="24px" transform="matrix(1,0,0,1,390.0219,253.549)">
      <tspan dy="8.507287560689079" style="-webkit-tap-highlight-color: rgba(0, 0, 0, 0);">H</tspan>
    </text>
    <text x="-106.60643438560712" y="-20.00052493931092" text-anchor="middle"  stroke="none" fill="#000000" style="-webkit-tap-highlight-color: rgba(0, 0, 0, 0); text-anchor: middle; font: 17px Arial;" font-size="17px" transform="matrix(1,0,0,1,404.2281,258.9521)">
      <tspan dy="5.507287560689079" style="-webkit-tap-highlight-color: rgba(0, 0, 0, 0);">3</tspan>
    </text>
    <text x="-141.24491927444038" y="0" text-anchor="middle"  stroke="none" fill="#000000" style="-webkit-tap-highlight-color: rgba(0, 0, 0, 0); text-anchor: middle; font: 24px Arial;" font-size="24px" transform="matrix(1,0,0,1,371.8781,253.549)">
      <tspan dy="8.5" style="-webkit-tap-highlight-color: rgba(0, 0, 0, 0);">C</tspan>
    </text>
    <text x="-141.24491927444038" y="0" text-anchor="middle"  stroke="none" fill="#000000" style="-webkit-tap-highlight-color: rgba(0, 0, 0, 0); text-anchor: middle; font: 24px Arial;" font-size="24px" transform="matrix(1,0,0,1,343.4656,253.549)">
      <tspan dy="8.5" style="-webkit-tap-highlight-color: rgba(0, 0, 0, 0);">H</tspan>
    </text>
    <text x="-141.24491927444038" y="0" text-anchor="middle"  stroke="none" fill="#000000" style="-webkit-tap-highlight-color: rgba(0, 0, 0, 0); text-anchor: middle; font: 17px Arial;" font-size="17px" transform="matrix(1,0,0,1,357.6719,258.949)">
      <tspan dy="5.5" style="-webkit-tap-highlight-color: rgba(0, 0, 0, 0);">3</tspan>
    </text>
    <text x="71.96310088466733" y="9.997838163602212" text-anchor="middle"  stroke="none" fill="#000000" style="-webkit-tap-highlight-color: rgba(0, 0, 0, 0); text-anchor: middle; font: 24px Arial;" font-size="24px" transform="matrix(1,0,0,1,371.8781,253.549)">
      <tspan dy="8.505650663602212" style="-webkit-tap-highlight-color: rgba(0, 0, 0, 0);">Cl</tspan>
    </text>
    <text x="106.60643438560712" y="-9.997838163602212" text-anchor="middle"  stroke="none" fill="#000000" style="-webkit-tap-highlight-color: rgba(0, 0, 0, 0); text-anchor: middle; font: 24px Arial;" font-size="24px" transform="matrix(1,0,0,1,371.8781,253.549)">
      <tspan dy="8.494349336397788" style="-webkit-tap-highlight-color: rgba(0, 0, 0, 0);">I</tspan>
    </text>
    <text x="106.60643438560712" y="-9.997838163602212" text-anchor="middle"  stroke="none" fill="#000000" style="-webkit-tap-highlight-color: rgba(0, 0, 0, 0); text-anchor: middle; font: 17px Arial;" font-size="17px" transform="matrix(1,0,0,1,381.0297,245.4443)">
      <tspan dy="5.4943493363977876" style="-webkit-tap-highlight-color: rgba(0, 0, 0, 0);">&#x2013;</tspan>
    </text>
    <text x="141.24491927444038" y="9.997838163602212" text-anchor="middle"  stroke="none" fill="#000000" style="-webkit-tap-highlight-color: rgba(0, 0, 0, 0); text-anchor: middle; font: 24px Arial;" font-size="24px" transform="matrix(1,0,0,1,371.8781,253.549)">
      <tspan dy="8.505650663602212" style="-webkit-tap-highlight-color: rgba(0, 0, 0, 0);">Cl</tspan>
    </text>
    <path fill="none" stroke="#000000" d="M-129.80691252,33.39665768L-118.05246248,26.60954872" stroke-width="1.6" stroke-linecap="round" stroke-linejoin="round" transform="matrix(1,0,0,1,371.8781,253.549)" style="-webkit-tap-highlight-color: rgba(0, 0, 0, 0); stroke-linecap: round; stroke-linejoin: round;"></path>
    <path fill="none" stroke="#000000" d="M-106.60643439,3.284375L-106.60643439,-3.284375" stroke-width="1.6" stroke-linecap="round" stroke-linejoin="round" transform="matrix(1,0,0,1,371.8781,253.549)" style="-webkit-tap-highlight-color: rgba(0, 0, 0, 0); stroke-linecap: round; stroke-linejoin: round;"></path>
    <path fill="none" stroke="#000000" d="M-95.16619055,26.60528433L-71.96310088,40.00104988" stroke-width="1.6" stroke-linecap="round" stroke-linejoin="round" transform="matrix(1,0,0,1,371.8781,253.549)" style="-webkit-tap-highlight-color: rgba(0, 0, 0, 0); stroke-linecap: round; stroke-linejoin: round;"></path>
    <path fill="none" stroke="#000000" d="M-71.96310088,40.00104988L-37.31976738,20.00052494" stroke-width="1.6" stroke-linecap="round" stroke-linejoin="round" transform="matrix(1,0,0,1,371.8781,253.549)" style="-webkit-tap-highlight-color: rgba(0, 0, 0, 0); stroke-linecap: round; stroke-linejoin: round;"></path>
    <path fill="none" stroke="#000000" d="M-30.65310072,16.15171429L-30.65310072,-16.15171429M-37.31976738,20.00052494L-37.31976738,-20.00052494" stroke-width="1.6" stroke-linecap="round" stroke-linejoin="round" transform="matrix(1,0,0,1,371.8781,253.549)" style="-webkit-tap-highlight-color: rgba(0, 0, 0, 0); stroke-linecap: round; stroke-linejoin: round;"></path>
    <path fill="none" stroke="#000000" d="M-37.31976738,-20.00052494L-2.68128249,-40.00104988" stroke-width="1.6" stroke-linecap="round" stroke-linejoin="round" transform="matrix(1,0,0,1,371.8781,253.549)" style="-webkit-tap-highlight-color: rgba(0, 0, 0, 0); stroke-linecap: round; stroke-linejoin: round;"></path>
    <path fill="none" stroke="#000000" d="M-2.68104921,-32.30298983L25.29538434,-16.15144492M-2.68128249,-40.00104988L31.96205101,-20.00052494" stroke-width="1.6" stroke-linecap="round" stroke-linejoin="round" transform="matrix(1,0,0,1,371.8781,253.549)" style="-webkit-tap-highlight-color: rgba(0, 0, 0, 0); stroke-linecap: round; stroke-linejoin: round;"></path>
    <path fill="none" stroke="#000000" d="M31.96205101,-20.00052494L31.96205101,20.00052494" stroke-width="1.6" stroke-linecap="round" stroke-linejoin="round" transform="matrix(1,0,0,1,371.8781,253.549)" style="-webkit-tap-highlight-color: rgba(0, 0, 0, 0); stroke-linecap: round; stroke-linejoin: round;"></path>
    <path fill="none" stroke="#000000" d="M25.29538434,16.15144492L-2.68104921,32.30298983M31.96205101,20.00052494L-2.68128249,40.00104988" stroke-width="1.6" stroke-linecap="round" stroke-linejoin="round" transform="matrix(1,0,0,1,371.8781,253.549)" style="-webkit-tap-highlight-color: rgba(0, 0, 0, 0); stroke-linecap: round; stroke-linejoin: round;"></path>
    <path fill="none" stroke="#000000" d="M-37.31976738,20.00052494L-2.68128249,40.00104988" stroke-width="1.6" stroke-linecap="round" stroke-linejoin="round" transform="matrix(1,0,0,1,371.8781,253.549)" style="-webkit-tap-highlight-color: rgba(0, 0, 0, 0); stroke-linecap: round; stroke-linejoin: round;"></path>
    <path fill="none" stroke="#000000" d="M-118.05246248,13.39150116L-129.80691252,6.6043922" stroke-width="1.6" stroke-linecap="round" stroke-linejoin="round" transform="matrix(1,0,0,1,371.8781,253.549)" style="-webkit-tap-highlight-color: rgba(0, 0, 0, 0); stroke-linecap: round; stroke-linejoin: round;"></path>
    <path fill="none" stroke="#000000" d="M86.0683524,1.85647256L100.4941476,-6.46990665" stroke-width="1.6" stroke-linecap="round" stroke-linejoin="round" transform="matrix(1,0,0,1,371.8781,253.549)" style="-webkit-tap-highlight-color: rgba(0, 0, 0, 0); stroke-linecap: round; stroke-linejoin: round;"></path>
    <path fill="none" stroke="#000000" d="M112.72450545,-6.46607374L127.13486955,1.8525631" stroke-width="1.6" stroke-linecap="round" stroke-linejoin="round" transform="matrix(1,0,0,1,371.8781,253.549)" style="-webkit-tap-highlight-color: rgba(0, 0, 0, 0); stroke-linecap: round; stroke-linejoin: round;"></path>
  </g>
</g> </g></g><g transform='translate(324, 186)'> <svg stroke="black" stroke-width="1">
  <line x1="0" y1="4" x2="380" y2="4" stroke="black"/>
  <polygon points="372,4 370,7 380,4 370,1"/>
</svg>
 </g> <g transform='translate(324, 186)'> <svg font-family="sans-serif">
  <text text-anchor="middle" x="190" y="55" font-size="19.1">CU1-Trish</text>
</svg>
 </g><g transform='translate(744, 0)'><g transform='scale(1)'> <g transform='translate(10, 87)'> 
  <g transform="translate(-240, -176)">
    <defs style="-webkit-tap-highlight-color: rgba(0, 0, 0, 0);"></defs>
    <text x="95.41768265919228" y="34.64224301828907" text-anchor="middle"  stroke="none" fill="#000000" style="-webkit-tap-highlight-color: rgba(0, 0, 0, 0); text-anchor: middle; font: 24px Arial;" font-size="24px" transform="matrix(1,0,0,1,345.2698,275.7734)">
      <tspan dy="8.493805518289072" style="-webkit-tap-highlight-color: rgba(0, 0, 0, 0);">O</tspan>
    </text>
    <text x="11.907816494460175" y="-32.35861860098828" text-anchor="middle"  stroke="none" fill="#000000" style="-webkit-tap-highlight-color: rgba(0, 0, 0, 0); text-anchor: middle; font: 24px Arial;" font-size="24px" transform="matrix(1,0,0,1,345.2698,275.7734)">
      <tspan dy="8.49294389901172" style="-webkit-tap-highlight-color: rgba(0, 0, 0, 0);">N</tspan>
    </text>
    <text x="11.907816494460175" y="-32.35861860098828" text-anchor="middle"  stroke="none" fill="#000000" style="-webkit-tap-highlight-color: rgba(0, 0, 0, 0); text-anchor: middle; font: 24px Arial;" font-size="24px" transform="matrix(1,0,0,1,363.4135,275.7734)">
      <tspan dy="8.49294389901172" style="-webkit-tap-highlight-color: rgba(0, 0, 0, 0);">H</tspan>
    </text>
    <text x="-21.953824546789768" y="-59.78150544653663" text-anchor="middle"  stroke="none" fill="#000000" style="-webkit-tap-highlight-color: rgba(0, 0, 0, 0); text-anchor: middle; font: 24px Arial;" font-size="24px" transform="matrix(1,0,0,1,345.2698,275.7734)">
      <tspan dy="8.507557053463373" style="-webkit-tap-highlight-color: rgba(0, 0, 0, 0);">H</tspan>
    </text>
    <text x="-21.953824546789768" y="59.78150544653663" text-anchor="middle"  stroke="none" fill="#000000" style="-webkit-tap-highlight-color: rgba(0, 0, 0, 0); text-anchor: middle; font: 24px Arial;" font-size="24px" transform="matrix(1,0,0,1,345.2698,275.7734)">
      <tspan dy="8.492442946536627" style="-webkit-tap-highlight-color: rgba(0, 0, 0, 0);">H</tspan>
    </text>
    <text x="95.41768265919228" y="-34.64224301828907" text-anchor="middle"  stroke="none" fill="#000000" style="-webkit-tap-highlight-color: rgba(0, 0, 0, 0); text-anchor: middle; font: 24px Arial;" font-size="24px" transform="matrix(1,0,0,1,345.2698,275.7734)">
      <tspan dy="8.506194481710928" style="-webkit-tap-highlight-color: rgba(0, 0, 0, 0);">O</tspan>
    </text>
    <text x="95.41768265919228" y="-34.64224301828907" text-anchor="middle"  stroke="none" fill="#000000" style="-webkit-tap-highlight-color: rgba(0, 0, 0, 0); text-anchor: middle; font: 24px Arial;" font-size="24px" transform="matrix(1,0,0,1,364.0698,275.7734)">
      <tspan dy="8.506194481710928" style="-webkit-tap-highlight-color: rgba(0, 0, 0, 0);">H</tspan>
    </text>
    <path fill="none" stroke="#000000" d="M88.90064543,16.68707469L78.30456796,-1.66661586M83.12708407,20.02030641L72.5310066,1.66661586" stroke-width="1.6" stroke-linecap="round" stroke-linejoin="round" style="-webkit-tap-highlight-color: rgba(0, 0, 0, 0); stroke-linecap: round; stroke-linejoin: round;" transform="matrix(1,0,0,1,345.2698,275.7734)"></path>
    <path fill="none" stroke="#000000" d="M35.41799654,0.20289855L35.41799654,-0.20289855M39.07252297,0.60869565L39.07252297,-0.60869565M42.7270494,1.01449275L42.7270494,-1.01449275M46.38157583,1.42028986L46.38157583,-1.42028986M50.03610226,1.82608696L50.03610226,-1.82608696M53.69062869,2.23188406L53.69062869,-2.23188406M57.34515513,2.63768116L57.34515513,-2.63768116M60.99968156,3.04347826L60.99968156,-3.04347826M64.65420799,3.44927536L64.65420799,-3.44927536M68.30873442,3.85507246L68.30873442,-3.85507246M71.96326085,4.26086957L71.96326085,-4.26086957M75.61778728,4.66666667L75.61778728,-4.66666667" stroke-width="1.6" stroke-linecap="round" stroke-linejoin="round" style="-webkit-tap-highlight-color: rgba(0, 0, 0, 0); stroke-linecap: round; stroke-linejoin: round;" transform="matrix(1,0,0,1,345.2698,275.7734)"></path>
    <path fill="none" stroke="#000000" d="M35.41799654,0L23.59662947,-16.27053079" stroke-width="1.6" stroke-linecap="round" stroke-linejoin="round" style="-webkit-tap-highlight-color: rgba(0, 0, 0, 0); stroke-linecap: round; stroke-linejoin: round;" transform="matrix(1,0,0,1,345.2698,275.7734)"></path>
    <path fill="none" stroke="#000000" d="M0.19092065,-28.55253124L-26.13804508,-19.99989537" stroke-width="1.6" stroke-linecap="round" stroke-linejoin="round" style="-webkit-tap-highlight-color: rgba(0, 0, 0, 0); stroke-linecap: round; stroke-linejoin: round;" transform="matrix(1,0,0,1,345.2698,275.7734)"></path>
    <path fill="#000000" stroke="#000000" d="M-26.13804508,-19.99989537L-19.06908483,-42.59503371L-28.35121628,-43.57132615Z" stroke-width="1.6" stroke-linecap="round" stroke-linejoin="round" style="-webkit-tap-highlight-color: rgba(0, 0, 0, 0); stroke-linecap: round; stroke-linejoin: round;" transform="matrix(1,0,0,1,345.2698,275.7734)"></path>
    <path fill="none" stroke="#000000" d="M-26.13804508,-19.99989537L-60.77543964,-39.99979075" stroke-width="1.6" stroke-linecap="round" stroke-linejoin="round" style="-webkit-tap-highlight-color: rgba(0, 0, 0, 0); stroke-linecap: round; stroke-linejoin: round;" transform="matrix(1,0,0,1,345.2698,275.7734)"></path>
    <path fill="none" stroke="#000000" d="M-60.77543964,-39.99979075L-95.41768266,-19.99989537" stroke-width="1.6" stroke-linecap="round" stroke-linejoin="round" style="-webkit-tap-highlight-color: rgba(0, 0, 0, 0); stroke-linecap: round; stroke-linejoin: round;" transform="matrix(1,0,0,1,345.2698,275.7734)"></path>
    <path fill="none" stroke="#000000" d="M-95.41768266,-19.99989537L-95.41768266,19.99989537" stroke-width="1.6" stroke-linecap="round" stroke-linejoin="round" style="-webkit-tap-highlight-color: rgba(0, 0, 0, 0); stroke-linecap: round; stroke-linejoin: round;" transform="matrix(1,0,0,1,345.2698,275.7734)"></path>
    <path fill="none" stroke="#000000" d="M-95.41768266,19.99989537L-60.77543964,39.99979075" stroke-width="1.6" stroke-linecap="round" stroke-linejoin="round" style="-webkit-tap-highlight-color: rgba(0, 0, 0, 0); stroke-linecap: round; stroke-linejoin: round;" transform="matrix(1,0,0,1,345.2698,275.7734)"></path>
    <path fill="none" stroke="#000000" d="M-60.77543964,39.99979075L-26.13804508,19.99989537" stroke-width="1.6" stroke-linecap="round" stroke-linejoin="round" style="-webkit-tap-highlight-color: rgba(0, 0, 0, 0); stroke-linecap: round; stroke-linejoin: round;" transform="matrix(1,0,0,1,345.2698,275.7734)"></path>
    <path fill="none" stroke="#000000" d="M-26.13804508,-19.99989537L-26.13804508,19.99989537" stroke-width="1.6" stroke-linecap="round" stroke-linejoin="round" style="-webkit-tap-highlight-color: rgba(0, 0, 0, 0); stroke-linecap: round; stroke-linejoin: round;" transform="matrix(1,0,0,1,345.2698,275.7734)"></path>
    <path fill="#000000" stroke="#000000" d="M-26.13804508,19.99989537L-28.35121628,43.57132615L-19.06908483,42.59503371Z" stroke-width="1.6" stroke-linecap="round" stroke-linejoin="round" style="-webkit-tap-highlight-color: rgba(0, 0, 0, 0); stroke-linecap: round; stroke-linejoin: round;" transform="matrix(1,0,0,1,345.2698,275.7734)"></path>
    <path fill="none" stroke="#000000" d="M-26.13804508,19.99989537L11.90781649,32.3586186" stroke-width="1.6" stroke-linecap="round" stroke-linejoin="round" style="-webkit-tap-highlight-color: rgba(0, 0, 0, 0); stroke-linecap: round; stroke-linejoin: round;" transform="matrix(1,0,0,1,345.2698,275.7734)"></path>
    <path fill="none" stroke="#000000" d="M35.41799654,0L11.90781649,32.3586186" stroke-width="1.6" stroke-linecap="round" stroke-linejoin="round" style="-webkit-tap-highlight-color: rgba(0, 0, 0, 0); stroke-linecap: round; stroke-linejoin: round;" transform="matrix(1,0,0,1,345.2698,275.7734)"></path>
    <path fill="none" stroke="#000000" d="M75.41778728,0L86.01386475,-18.35369055" stroke-width="1.6" stroke-linecap="round" stroke-linejoin="round" style="-webkit-tap-highlight-color: rgba(0, 0, 0, 0); stroke-linecap: round; stroke-linejoin: round;" transform="matrix(1,0,0,1,345.2698,275.7734)"></path>
    <text x="78.72" y="-89.32000000000001" text-anchor="middle"  stroke="none" fill="#000000" style="-webkit-tap-highlight-color: rgba(0, 0, 0, 0); text-anchor: middle; font: 24px Arial;" font-size="24px" transform="matrix(1,0,0,1,345.2698,275.7734)">
      <tspan dy="8.500312499999993" style="-webkit-tap-highlight-color: rgba(0, 0, 0, 0);">Chiral</tspan>
    </text>
  </g>
<svg font-family="sans-serif">
  <text text-anchor="middle" font-size="20.1" y="209.0" x="187">0%</text>
</svg>
</g> </g></g> </svg></svg>