<svg version="1.1" xmlns="http://www.w3.org/2000/svg" xmlns:xlink="http://www.w3.org/1999/xlink" xmlns:cml="http://www.xml-cml.org/schema"
  width="1560" height="440" >
  <rect  width="1560" height="440" stroke-width="1" stroke="white" fill="none"/>
  <svg width="100%"  viewBox="0 0 1383 577.5" >
  <title>Reaction 1</title> <g transform='translate(50, 0)'><g transform='scale(1)'> <g transform='translate(10, 197)'> 
  <g transform="translate(-237, -185)">
    <defs style="-webkit-tap-highlight-color: rgba(0, 0, 0, 0);"></defs>
    <text x="39.92318159127857" y="-50.2559445849911" text-anchor="middle"  stroke="none" fill="#000000" style="-webkit-tap-highlight-color: rgba(0, 0, 0, 0); text-anchor: middle; font: 24px Arial;" font-size="24px" transform="matrix(1,0,0,1,354.355,275.1578)">
      <tspan dy="8.501867915008901" style="-webkit-tap-highlight-color: rgba(0, 0, 0, 0);">N</tspan>
    </text>
    <text x="39.92318159127857" y="-50.2559445849911" text-anchor="middle"  stroke="none" fill="#000000" style="-webkit-tap-highlight-color: rgba(0, 0, 0, 0); text-anchor: middle; font: 24px Arial;" font-size="24px" transform="matrix(1,0,0,1,372.4987,275.1578)">
      <tspan dy="8.501867915008901" style="-webkit-tap-highlight-color: rgba(0, 0, 0, 0);">H</tspan>
    </text>
    <text x="39.92318159127857" y="-50.2559445849911" text-anchor="middle"  stroke="none" fill="#000000" style="-webkit-tap-highlight-color: rgba(0, 0, 0, 0); text-anchor: middle; font: 17px Arial;" font-size="17px" transform="matrix(1,0,0,1,386.705,280.5609)">
      <tspan dy="5.501867915008901" style="-webkit-tap-highlight-color: rgba(0, 0, 0, 0);">2</tspan>
    </text>
    <text x="39.92318159127857" y="50.2559445849911" text-anchor="middle"  stroke="none" fill="#000000" style="-webkit-tap-highlight-color: rgba(0, 0, 0, 0); text-anchor: middle; font: 24px Arial;" font-size="24px" transform="matrix(1,0,0,1,354.355,275.1578)">
      <tspan dy="8.498132084991099" style="-webkit-tap-highlight-color: rgba(0, 0, 0, 0);">N</tspan>
    </text>
    <text x="39.92318159127857" y="50.2559445849911" text-anchor="middle"  stroke="none" fill="#000000" style="-webkit-tap-highlight-color: rgba(0, 0, 0, 0); text-anchor: middle; font: 24px Arial;" font-size="24px" transform="matrix(1,0,0,1,372.4987,275.1578)">
      <tspan dy="8.498132084991099" style="-webkit-tap-highlight-color: rgba(0, 0, 0, 0);">H</tspan>
    </text>
    <text x="39.92318159127857" y="50.2559445849911" text-anchor="middle"  stroke="none" fill="#000000" style="-webkit-tap-highlight-color: rgba(0, 0, 0, 0); text-anchor: middle; font: 17px Arial;" font-size="17px" transform="matrix(1,0,0,1,386.705,280.5609)">
      <tspan dy="5.498132084991099" style="-webkit-tap-highlight-color: rgba(0, 0, 0, 0);">2</tspan>
    </text>
    <path fill="none" stroke="#000000" d="M17.49642603,-15.36028131L16.89583619,-15.75365417M20.16537126,-18.12481122L18.36360174,-19.30492979M22.83431649,-20.88934113L19.83136728,-22.85620541M25.50326171,-23.65387104L21.29913282,-26.40748104M28.17220694,-26.41840095L22.76689837,-29.95875666M30.84115216,-29.18293087L24.23466391,-33.51003229M33.51009739,-31.94746078L25.70242945,-37.06130791" stroke-width="1.6" stroke-linecap="round" stroke-linejoin="round" style="-webkit-tap-highlight-color: rgba(0, 0, 0, 0); stroke-linecap: round; stroke-linejoin: round;" transform="matrix(1,0,0,1,354.355,275.1578)"></path>
    <path fill="none" stroke="#000000" d="M17.19613111,-15.55696774L17.19613111,15.55696774" stroke-width="1.6" stroke-linecap="round" stroke-linejoin="round" style="-webkit-tap-highlight-color: rgba(0, 0, 0, 0); stroke-linecap: round; stroke-linejoin: round;" transform="matrix(1,0,0,1,354.355,275.1578)"></path>
    <path fill="#000000" stroke="#000000" d="M17.19613111,15.55696774L25.59284701,36.89400074L33.40051495,31.78015361Z" stroke-width="1.6" stroke-linecap="round" stroke-linejoin="round" style="-webkit-tap-highlight-color: rgba(0, 0, 0, 0); stroke-linecap: round; stroke-linejoin: round;" transform="matrix(1,0,0,1,354.355,275.1578)"></path>
    <path fill="none" stroke="#000000" d="M17.19613111,15.55696774L0,41.48189523" stroke-width="1.6" stroke-linecap="round" stroke-linejoin="round" style="-webkit-tap-highlight-color: rgba(0, 0, 0, 0); stroke-linecap: round; stroke-linejoin: round;" transform="matrix(1,0,0,1,354.355,275.1578)"></path>
    <path fill="none" stroke="#000000" d="M0,41.48189523L35.92583532,20.74094762" stroke-width="1.6" stroke-linecap="round" stroke-linejoin="round" style="-webkit-tap-highlight-color: rgba(0, 0, 0, 0); stroke-linecap: round; stroke-linejoin: round;" transform="matrix(1,0,0,1,354.355,275.1578)"></path>
    <path fill="none" stroke="#000000" d="M42.59250199,16.89213697L42.59250199,-16.89213697M35.92583532,20.74094762L35.92583532,-20.74094762" stroke-width="1.6" stroke-linecap="round" stroke-linejoin="round" style="-webkit-tap-highlight-color: rgba(0, 0, 0, 0); stroke-linecap: round; stroke-linejoin: round;" transform="matrix(1,0,0,1,354.355,275.1578)"></path>
    <path fill="none" stroke="#000000" d="M35.92583532,-20.74094762L71.84664254,-41.48189523" stroke-width="1.6" stroke-linecap="round" stroke-linejoin="round" style="-webkit-tap-highlight-color: rgba(0, 0, 0, 0); stroke-linecap: round; stroke-linejoin: round;" transform="matrix(1,0,0,1,354.355,275.1578)"></path>
    <path fill="none" stroke="#000000" d="M71.84687582,-33.78383518L101.1058112,-16.8918676M71.84664254,-41.48189523L107.77247786,-20.74094762" stroke-width="1.6" stroke-linecap="round" stroke-linejoin="round" style="-webkit-tap-highlight-color: rgba(0, 0, 0, 0); stroke-linecap: round; stroke-linejoin: round;" transform="matrix(1,0,0,1,354.355,275.1578)"></path>
    <path fill="none" stroke="#000000" d="M107.77247786,-20.74094762L107.77247786,20.74094762" stroke-width="1.6" stroke-linecap="round" stroke-linejoin="round" style="-webkit-tap-highlight-color: rgba(0, 0, 0, 0); stroke-linecap: round; stroke-linejoin: round;" transform="matrix(1,0,0,1,354.355,275.1578)"></path>
    <path fill="none" stroke="#000000" d="M101.1058112,16.8918676L71.84687582,33.78383518M107.77247786,20.74094762L71.84664254,41.48189523" stroke-width="1.6" stroke-linecap="round" stroke-linejoin="round" style="-webkit-tap-highlight-color: rgba(0, 0, 0, 0); stroke-linecap: round; stroke-linejoin: round;" transform="matrix(1,0,0,1,354.355,275.1578)"></path>
    <path fill="none" stroke="#000000" d="M35.92583532,20.74094762L71.84664254,41.48189523" stroke-width="1.6" stroke-linecap="round" stroke-linejoin="round" style="-webkit-tap-highlight-color: rgba(0, 0, 0, 0); stroke-linecap: round; stroke-linejoin: round;" transform="matrix(1,0,0,1,354.355,275.1578)"></path>
    <path fill="none" stroke="#000000" d="M35.92583532,-20.74094762L0,-41.48189523" stroke-width="1.6" stroke-linecap="round" stroke-linejoin="round" style="-webkit-tap-highlight-color: rgba(0, 0, 0, 0); stroke-linecap: round; stroke-linejoin: round;" transform="matrix(1,0,0,1,354.355,275.1578)"></path>
    <path fill="none" stroke="#000000" d="M17.19613111,-15.55696774L0,-41.48189523" stroke-width="1.6" stroke-linecap="round" stroke-linejoin="round" style="-webkit-tap-highlight-color: rgba(0, 0, 0, 0); stroke-linecap: round; stroke-linejoin: round;" transform="matrix(1,0,0,1,354.355,275.1578)"></path>
    <path fill="none" stroke="#000000" d="M0,-41.48189523L-35.92583532,-20.74094762" stroke-width="1.6" stroke-linecap="round" stroke-linejoin="round" style="-webkit-tap-highlight-color: rgba(0, 0, 0, 0); stroke-linecap: round; stroke-linejoin: round;" transform="matrix(1,0,0,1,354.355,275.1578)"></path>
    <path fill="none" stroke="#000000" d="M-35.92583532,-20.74094762L-71.84664254,-41.48189523M-42.59250199,-16.89213697L-71.84687582,-33.78383518" stroke-width="1.6" stroke-linecap="round" stroke-linejoin="round" style="-webkit-tap-highlight-color: rgba(0, 0, 0, 0); stroke-linecap: round; stroke-linejoin: round;" transform="matrix(1,0,0,1,354.355,275.1578)"></path>
    <path fill="none" stroke="#000000" d="M-71.84664254,-41.48189523L-107.77247786,-20.74094762" stroke-width="1.6" stroke-linecap="round" stroke-linejoin="round" style="-webkit-tap-highlight-color: rgba(0, 0, 0, 0); stroke-linecap: round; stroke-linejoin: round;" transform="matrix(1,0,0,1,354.355,275.1578)"></path>
    <path fill="none" stroke="#000000" d="M-107.77247786,-20.74094762L-107.77247786,20.74094762M-101.1058112,-16.8918676L-101.1058112,16.8918676" stroke-width="1.6" stroke-linecap="round" stroke-linejoin="round" style="-webkit-tap-highlight-color: rgba(0, 0, 0, 0); stroke-linecap: round; stroke-linejoin: round;" transform="matrix(1,0,0,1,354.355,275.1578)"></path>
    <path fill="none" stroke="#000000" d="M-107.77247786,20.74094762L-71.84664254,41.48189523" stroke-width="1.6" stroke-linecap="round" stroke-linejoin="round" style="-webkit-tap-highlight-color: rgba(0, 0, 0, 0); stroke-linecap: round; stroke-linejoin: round;" transform="matrix(1,0,0,1,354.355,275.1578)"></path>
    <path fill="none" stroke="#000000" d="M-71.84664254,41.48189523L-35.92583532,20.74094762M-71.84687582,33.78383518L-42.59250199,16.89213697" stroke-width="1.6" stroke-linecap="round" stroke-linejoin="round" style="-webkit-tap-highlight-color: rgba(0, 0, 0, 0); stroke-linecap: round; stroke-linejoin: round;" transform="matrix(1,0,0,1,354.355,275.1578)"></path>
    <path fill="none" stroke="#000000" d="M0,41.48189523L-35.92583532,20.74094762" stroke-width="1.6" stroke-linecap="round" stroke-linejoin="round" style="-webkit-tap-highlight-color: rgba(0, 0, 0, 0); stroke-linecap: round; stroke-linejoin: round;" transform="matrix(1,0,0,1,354.355,275.1578)"></path>
    <path fill="none" stroke="#000000" d="M-35.92583532,-20.74094762L-35.92583532,20.74094762" stroke-width="1.6" stroke-linecap="round" stroke-linejoin="round" style="-webkit-tap-highlight-color: rgba(0, 0, 0, 0); stroke-linecap: round; stroke-linejoin: round;" transform="matrix(1,0,0,1,354.355,275.1578)"></path>
    <text x="85.736" y="-79.98" text-anchor="middle"  stroke="none" fill="#000000" style="-webkit-tap-highlight-color: rgba(0, 0, 0, 0); text-anchor: middle; font: 24px Arial;" font-size="24px" transform="matrix(1,0,0,1,354.355,275.1578)">
      <tspan dy="8.496562499999996" style="-webkit-tap-highlight-color: rgba(0, 0, 0, 0);">Chiral</tspan>
    </text>
  </g>
</g> </g></g><g transform='translate(533, 0)'><g transform='scale(0.75)'> <g transform='translate(10, 111)'> 
  <g transform="translate(-223, -167)">
    <defs style="-webkit-tap-highlight-color: rgba(0, 0, 0, 0);"></defs>
    <text x="-17.31862879938702" y="50.00196495186963" text-anchor="middle"  stroke="none" fill="#000000" style="-webkit-tap-highlight-color: rgba(0, 0, 0, 0); text-anchor: middle; font: 24px Arial;" font-size="24px" transform="matrix(1,0,0,1,353.9404,274.875)">
      <tspan dy="8.494152451869631" style="-webkit-tap-highlight-color: rgba(0, 0, 0, 0);">N</tspan>
    </text>
    <text x="-17.31862879938702" y="50.00196495186963" text-anchor="middle"  stroke="none" fill="#000000" style="-webkit-tap-highlight-color: rgba(0, 0, 0, 0); text-anchor: middle; font: 24px Arial;" font-size="24px" transform="matrix(1,0,0,1,372.0685,274.875)">
      <tspan dy="8.494152451869631" style="-webkit-tap-highlight-color: rgba(0, 0, 0, 0);">H</tspan>
    </text>
    <text x="-17.31862879938702" y="50.00196495186963" text-anchor="middle"  stroke="none" fill="#000000" style="-webkit-tap-highlight-color: rgba(0, 0, 0, 0); text-anchor: middle; font: 17px Arial;" font-size="17px" transform="matrix(1,0,0,1,386.2591,280.2781)">
      <tspan dy="5.494152451869631" style="-webkit-tap-highlight-color: rgba(0, 0, 0, 0);">2</tspan>
    </text>
    <text x="-17.31862879938702" y="-70.0017812445548" text-anchor="middle"  stroke="none" fill="#000000" style="-webkit-tap-highlight-color: rgba(0, 0, 0, 0); text-anchor: middle; font: 24px Arial;" font-size="24px" transform="matrix(1,0,0,1,353.9404,274.875)">
      <tspan dy="8.506031255445194" style="-webkit-tap-highlight-color: rgba(0, 0, 0, 0);">O</tspan>
    </text>
    <text x="-17.31862879938702" y="-70.0017812445548" text-anchor="middle"  stroke="none" fill="#000000" style="-webkit-tap-highlight-color: rgba(0, 0, 0, 0); text-anchor: middle; font: 24px Arial;" font-size="24px" transform="matrix(1,0,0,1,372.7404,274.875)">
      <tspan dy="8.506031255445194" style="-webkit-tap-highlight-color: rgba(0, 0, 0, 0);">H</tspan>
    </text>
    <text x="17.31862879938702" y="70.0017812445548" text-anchor="middle"  stroke="none" fill="#000000" style="-webkit-tap-highlight-color: rgba(0, 0, 0, 0); text-anchor: middle; font: 24px Arial;" font-size="24px" transform="matrix(1,0,0,1,353.9404,274.875)">
      <tspan dy="8.493968744554806" style="-webkit-tap-highlight-color: rgba(0, 0, 0, 0);">O</tspan>
    </text>
    <text x="17.31862879938702" y="70.0017812445548" text-anchor="middle"  stroke="none" fill="#000000" style="-webkit-tap-highlight-color: rgba(0, 0, 0, 0); text-anchor: middle; font: 24px Arial;" font-size="24px" transform="matrix(1,0,0,1,335.1404,274.875)">
      <tspan dy="8.493968744554806" style="-webkit-tap-highlight-color: rgba(0, 0, 0, 0);">H</tspan>
    </text>
    <text x="17.31862879938702" y="-50.00196495186963" text-anchor="middle"  stroke="none" fill="#000000" style="-webkit-tap-highlight-color: rgba(0, 0, 0, 0); text-anchor: middle; font: 24px Arial;" font-size="24px" transform="matrix(1,0,0,1,353.9404,274.875)">
      <tspan dy="8.505847548130369" style="-webkit-tap-highlight-color: rgba(0, 0, 0, 0);">N</tspan>
    </text>
    <text x="17.31862879938702" y="-50.00196495186963" text-anchor="middle"  stroke="none" fill="#000000" style="-webkit-tap-highlight-color: rgba(0, 0, 0, 0); text-anchor: middle; font: 24px Arial;" font-size="24px" transform="matrix(1,0,0,1,372.0685,274.875)">
      <tspan dy="8.505847548130369" style="-webkit-tap-highlight-color: rgba(0, 0, 0, 0);">H</tspan>
    </text>
    <text x="17.31862879938702" y="-50.00196495186963" text-anchor="middle"  stroke="none" fill="#000000" style="-webkit-tap-highlight-color: rgba(0, 0, 0, 0); text-anchor: middle; font: 17px Arial;" font-size="17px" transform="matrix(1,0,0,1,386.2591,280.2781)">
      <tspan dy="5.505847548130369" style="-webkit-tap-highlight-color: rgba(0, 0, 0, 0);">2</tspan>
    </text>
    <path fill="none" stroke="#000000" d="M-17.62973991,9.99748393L-17.00751769,9.99748393M-18.25196213,13.35275408L-16.38529547,13.35275408M-18.87418435,16.70802423L-15.76307324,16.70802423M-19.49640658,20.06329439L-15.14085102,20.06329439M-20.1186288,23.41856454L-14.5186288,23.41856454M-20.74085102,26.77383469L-13.89640658,26.77383469M-21.36307324,30.12910485L-13.27418435,30.12910485M-21.98529547,33.484375L-12.65196213,33.484375" stroke-width="1.6" stroke-linecap="round" stroke-linejoin="round" style="-webkit-tap-highlight-color: rgba(0, 0, 0, 0); stroke-linecap: round; stroke-linejoin: round;" transform="matrix(1,0,0,1,353.9404,274.875)"></path>
    <path fill="none" stroke="#000000" d="M-17.3186288,9.99748393L-51.96073484,-9.99748393" stroke-width="1.6" stroke-linecap="round" stroke-linejoin="round" style="-webkit-tap-highlight-color: rgba(0, 0, 0, 0); stroke-linecap: round; stroke-linejoin: round;" transform="matrix(1,0,0,1,353.9404,274.875)"></path>
    <path fill="none" stroke="#000000" d="M-58.62740151,-13.84703053L-86.60260764,2.29989041M-51.96073484,-9.99748393L-86.60284088,9.99748393" stroke-width="1.6" stroke-linecap="round" stroke-linejoin="round" style="-webkit-tap-highlight-color: rgba(0, 0, 0, 0); stroke-linecap: round; stroke-linejoin: round;" transform="matrix(1,0,0,1,353.9404,274.875)"></path>
    <path fill="none" stroke="#000000" d="M-86.60284088,9.99748393L-121.24009848,-9.99748393" stroke-width="1.6" stroke-linecap="round" stroke-linejoin="round" style="-webkit-tap-highlight-color: rgba(0, 0, 0, 0); stroke-linecap: round; stroke-linejoin: round;" transform="matrix(1,0,0,1,353.9404,274.875)"></path>
    <path fill="none" stroke="#000000" d="M-114.57343181,-13.84676118L-114.57343181,-46.1531543M-121.24009848,-9.99748393L-121.24009848,-50.00196495" stroke-width="1.6" stroke-linecap="round" stroke-linejoin="round" style="-webkit-tap-highlight-color: rgba(0, 0, 0, 0); stroke-linecap: round; stroke-linejoin: round;" transform="matrix(1,0,0,1,353.9404,274.875)"></path>
    <path fill="none" stroke="#000000" d="M-121.24009848,-50.00196495L-86.60284088,-70.00178124" stroke-width="1.6" stroke-linecap="round" stroke-linejoin="round" style="-webkit-tap-highlight-color: rgba(0, 0, 0, 0); stroke-linecap: round; stroke-linejoin: round;" transform="matrix(1,0,0,1,353.9404,274.875)"></path>
    <path fill="none" stroke="#000000" d="M-86.60260759,-62.3037212L-58.62740151,-46.15288493M-86.60284088,-70.00178124L-51.96073484,-50.00196495" stroke-width="1.6" stroke-linecap="round" stroke-linejoin="round" style="-webkit-tap-highlight-color: rgba(0, 0, 0, 0); stroke-linecap: round; stroke-linejoin: round;" transform="matrix(1,0,0,1,353.9404,274.875)"></path>
    <path fill="none" stroke="#000000" d="M-51.96073484,-9.99748393L-51.96073484,-50.00196495" stroke-width="1.6" stroke-linecap="round" stroke-linejoin="round" style="-webkit-tap-highlight-color: rgba(0, 0, 0, 0); stroke-linecap: round; stroke-linejoin: round;" transform="matrix(1,0,0,1,353.9404,274.875)"></path>
    <path fill="none" stroke="#000000" d="M-51.96073484,-50.00196495L-29.42755945,-63.01097104" stroke-width="1.6" stroke-linecap="round" stroke-linejoin="round" style="-webkit-tap-highlight-color: rgba(0, 0, 0, 0); stroke-linecap: round; stroke-linejoin: round;" transform="matrix(1,0,0,1,353.9404,274.875)"></path>
    <path fill="none" stroke="#000000" d="M-17.3186288,9.99748393L17.3186288,-9.99748393" stroke-width="1.6" stroke-linecap="round" stroke-linejoin="round" style="-webkit-tap-highlight-color: rgba(0, 0, 0, 0); stroke-linecap: round; stroke-linejoin: round;" transform="matrix(1,0,0,1,353.9404,274.875)"></path>
    <path fill="none" stroke="#000000" d="M17.3186288,-9.99748393L51.96073484,9.99748393" stroke-width="1.6" stroke-linecap="round" stroke-linejoin="round" style="-webkit-tap-highlight-color: rgba(0, 0, 0, 0); stroke-linecap: round; stroke-linejoin: round;" transform="matrix(1,0,0,1,353.9404,274.875)"></path>
    <path fill="none" stroke="#000000" d="M58.62740151,13.84703053L86.60260764,-2.29989041M51.96073484,9.99748393L86.60284088,-9.99748393" stroke-width="1.6" stroke-linecap="round" stroke-linejoin="round" style="-webkit-tap-highlight-color: rgba(0, 0, 0, 0); stroke-linecap: round; stroke-linejoin: round;" transform="matrix(1,0,0,1,353.9404,274.875)"></path>
    <path fill="none" stroke="#000000" d="M86.60284088,-9.99748393L121.24009848,9.99748393" stroke-width="1.6" stroke-linecap="round" stroke-linejoin="round" style="-webkit-tap-highlight-color: rgba(0, 0, 0, 0); stroke-linecap: round; stroke-linejoin: round;" transform="matrix(1,0,0,1,353.9404,274.875)"></path>
    <path fill="none" stroke="#000000" d="M114.57343181,13.84676118L114.57343181,46.1531543M121.24009848,9.99748393L121.24009848,50.00196495" stroke-width="1.6" stroke-linecap="round" stroke-linejoin="round" style="-webkit-tap-highlight-color: rgba(0, 0, 0, 0); stroke-linecap: round; stroke-linejoin: round;" transform="matrix(1,0,0,1,353.9404,274.875)"></path>
    <path fill="none" stroke="#000000" d="M121.24009848,50.00196495L86.60284088,70.00178124" stroke-width="1.6" stroke-linecap="round" stroke-linejoin="round" style="-webkit-tap-highlight-color: rgba(0, 0, 0, 0); stroke-linecap: round; stroke-linejoin: round;" transform="matrix(1,0,0,1,353.9404,274.875)"></path>
    <path fill="none" stroke="#000000" d="M86.60260759,62.3037212L58.62740151,46.15288493M86.60284088,70.00178124L51.96073484,50.00196495" stroke-width="1.6" stroke-linecap="round" stroke-linejoin="round" style="-webkit-tap-highlight-color: rgba(0, 0, 0, 0); stroke-linecap: round; stroke-linejoin: round;" transform="matrix(1,0,0,1,353.9404,274.875)"></path>
    <path fill="none" stroke="#000000" d="M51.96073484,9.99748393L51.96073484,50.00196495" stroke-width="1.6" stroke-linecap="round" stroke-linejoin="round" style="-webkit-tap-highlight-color: rgba(0, 0, 0, 0); stroke-linecap: round; stroke-linejoin: round;" transform="matrix(1,0,0,1,353.9404,274.875)"></path>
    <path fill="none" stroke="#000000" d="M51.96073484,50.00196495L29.42755945,63.01097104" stroke-width="1.6" stroke-linecap="round" stroke-linejoin="round" style="-webkit-tap-highlight-color: rgba(0, 0, 0, 0); stroke-linecap: round; stroke-linejoin: round;" transform="matrix(1,0,0,1,353.9404,274.875)"></path>
    <path fill="none" stroke="#000000" d="M17.62973991,-9.99748393L17.00751769,-9.99748393M18.25196213,-13.35275408L16.38529547,-13.35275408M18.87418435,-16.70802423L15.76307324,-16.70802423M19.49640658,-20.06329439L15.14085102,-20.06329439M20.1186288,-23.41856454L14.5186288,-23.41856454M20.74085102,-26.77383469L13.89640658,-26.77383469M21.36307324,-30.12910485L13.27418435,-30.12910485M21.98529547,-33.484375L12.65196213,-33.484375" stroke-width="1.6" stroke-linecap="round" stroke-linejoin="round" style="-webkit-tap-highlight-color: rgba(0, 0, 0, 0); stroke-linecap: round; stroke-linejoin: round;" transform="matrix(1,0,0,1,353.9404,274.875)"></path>
    <text x="100.024" y="-97.752" text-anchor="middle"  stroke="none" fill="#000000" style="-webkit-tap-highlight-color: rgba(0, 0, 0, 0); text-anchor: middle; font: 24px Arial;" font-size="24px" transform="matrix(1,0,0,1,353.9404,274.875)">
      <tspan dy="8.505812500000005" style="-webkit-tap-highlight-color: rgba(0, 0, 0, 0);">Chiral</tspan>
    </text>
  </g>
</g> </g></g><g transform='translate(503, 289)'> <svg stroke="black" stroke-width="1">
  <line x1="0" y1="4" x2="403" y2="4" stroke="black"/>
  <polygon points="395,4 393,7 403,4 393,1"/>
</svg>
 </g> <g transform='translate(503, 289)'> <svg font-family="sans-serif">
  <text text-anchor="middle" x="201" y="55" font-size="19.1">CU1-Donnie</text>
</svg>
 </g> <g transform='translate(503, 289)'> <svg font-family="sans-serif">
  <text text-anchor="middle" x="201" y="30" font-size="21.1">21 °C</text>
</svg>
 </g><g transform='translate(946, 0)'><g transform='scale(1)'> <g transform='translate(10, 178)'> 
  <g transform="translate(-162, -164)">
    <defs style="-webkit-tap-highlight-color: rgba(0, 0, 0, 0);"></defs>
    <text x="-123.92207353130084" y="-79.99977359311646" text-anchor="middle"  stroke="none" fill="#000000" style="-webkit-tap-highlight-color: rgba(0, 0, 0, 0); text-anchor: middle; font: 24px Arial;" font-size="24px" transform="matrix(1,0,0,1,359,262.3508)">
      <tspan dy="8.492413906883542" style="-webkit-tap-highlight-color: rgba(0, 0, 0, 0);">O</tspan>
    </text>
    <text x="-123.92207353130084" y="-79.99977359311646" text-anchor="middle"  stroke="none" fill="#000000" style="-webkit-tap-highlight-color: rgba(0, 0, 0, 0); text-anchor: middle; font: 17px Arial;" font-size="17px" transform="matrix(1,0,0,1,374.1359,254.2461)">
      <tspan dy="5.492413906883542" style="-webkit-tap-highlight-color: rgba(0, 0, 0, 0);">&#x2013;</tspan>
    </text>
    <text x="-158.5643997326837" y="-19.999943398279115" text-anchor="middle"  stroke="none" fill="#000000" style="-webkit-tap-highlight-color: rgba(0, 0, 0, 0); text-anchor: middle; font: 24px Arial;" font-size="24px" transform="matrix(1,0,0,1,359,262.3508)">
      <tspan dy="8.492244101720885" style="-webkit-tap-highlight-color: rgba(0, 0, 0, 0);">C</tspan>
    </text>
    <text x="-158.5643997326837" y="-19.999943398279115" text-anchor="middle"  stroke="none" fill="#000000" style="-webkit-tap-highlight-color: rgba(0, 0, 0, 0); text-anchor: middle; font: 24px Arial;" font-size="24px" transform="matrix(1,0,0,1,330.5875,262.3508)">
      <tspan dy="8.492244101720885" style="-webkit-tap-highlight-color: rgba(0, 0, 0, 0);">H</tspan>
    </text>
    <text x="-158.5643997326837" y="-19.999943398279115" text-anchor="middle"  stroke="none" fill="#000000" style="-webkit-tap-highlight-color: rgba(0, 0, 0, 0); text-anchor: middle; font: 17px Arial;" font-size="17px" transform="matrix(1,0,0,1,344.7937,267.7539)">
      <tspan dy="5.492244101720885" style="-webkit-tap-highlight-color: rgba(0, 0, 0, 0);">3</tspan>
    </text>
    <text x="-19.999943398279115" y="-19.999943398279115" text-anchor="middle"  stroke="none" fill="#000000" style="-webkit-tap-highlight-color: rgba(0, 0, 0, 0); text-anchor: middle; font: 24px Arial;" font-size="24px" transform="matrix(1,0,0,1,359,262.3508)">
      <tspan dy="8.492244101720885" style="-webkit-tap-highlight-color: rgba(0, 0, 0, 0);">C</tspan>
    </text>
    <text x="-19.999943398279115" y="-19.999943398279115" text-anchor="middle"  stroke="none" fill="#000000" style="-webkit-tap-highlight-color: rgba(0, 0, 0, 0); text-anchor: middle; font: 24px Arial;" font-size="24px" transform="matrix(1,0,0,1,377.1437,262.3508)">
      <tspan dy="8.492244101720885" style="-webkit-tap-highlight-color: rgba(0, 0, 0, 0);">H</tspan>
    </text>
    <text x="-19.999943398279115" y="-19.999943398279115" text-anchor="middle"  stroke="none" fill="#000000" style="-webkit-tap-highlight-color: rgba(0, 0, 0, 0); text-anchor: middle; font: 17px Arial;" font-size="17px" transform="matrix(1,0,0,1,391.35,267.7539)">
      <tspan dy="5.492244101720885" style="-webkit-tap-highlight-color: rgba(0, 0, 0, 0);">3</tspan>
    </text>
    <text x="-54.64226959966198" y="-79.99977359311646" text-anchor="middle"  stroke="none" fill="#000000" style="-webkit-tap-highlight-color: rgba(0, 0, 0, 0); text-anchor: middle; font: 24px Arial;" font-size="24px" transform="matrix(1,0,0,1,359,262.3508)">
      <tspan dy="8.492413906883542" style="-webkit-tap-highlight-color: rgba(0, 0, 0, 0);">O</tspan>
    </text>
    <text x="-123.92207353130084" y="19.999943398279115" text-anchor="middle"  stroke="none" fill="#000000" style="-webkit-tap-highlight-color: rgba(0, 0, 0, 0); text-anchor: middle; font: 24px Arial;" font-size="24px" transform="matrix(1,0,0,1,359,262.3508)">
      <tspan dy="8.507755898279115" style="-webkit-tap-highlight-color: rgba(0, 0, 0, 0);">O</tspan>
    </text>
    <text x="-123.92207353130084" y="19.999943398279115" text-anchor="middle"  stroke="none" fill="#000000" style="-webkit-tap-highlight-color: rgba(0, 0, 0, 0); text-anchor: middle; font: 17px Arial;" font-size="17px" transform="matrix(1,0,0,1,374.1359,254.2461)">
      <tspan dy="5.507755898279115" style="-webkit-tap-highlight-color: rgba(0, 0, 0, 0);">&#x2013;</tspan>
    </text>
    <text x="-158.5643997326837" y="79.99977359311646" text-anchor="middle"  stroke="none" fill="#000000" style="-webkit-tap-highlight-color: rgba(0, 0, 0, 0); text-anchor: middle; font: 24px Arial;" font-size="24px" transform="matrix(1,0,0,1,359,262.3508)">
      <tspan dy="8.507586093116458" style="-webkit-tap-highlight-color: rgba(0, 0, 0, 0);">C</tspan>
    </text>
    <text x="-158.5643997326837" y="79.99977359311646" text-anchor="middle"  stroke="none" fill="#000000" style="-webkit-tap-highlight-color: rgba(0, 0, 0, 0); text-anchor: middle; font: 24px Arial;" font-size="24px" transform="matrix(1,0,0,1,330.5875,262.3508)">
      <tspan dy="8.507586093116458" style="-webkit-tap-highlight-color: rgba(0, 0, 0, 0);">H</tspan>
    </text>
    <text x="-158.5643997326837" y="79.99977359311646" text-anchor="middle"  stroke="none" fill="#000000" style="-webkit-tap-highlight-color: rgba(0, 0, 0, 0); text-anchor: middle; font: 17px Arial;" font-size="17px" transform="matrix(1,0,0,1,344.7937,267.7539)">
      <tspan dy="5.507586093116458" style="-webkit-tap-highlight-color: rgba(0, 0, 0, 0);">3</tspan>
    </text>
    <text x="-19.999943398279115" y="79.99977359311646" text-anchor="middle"  stroke="none" fill="#000000" style="-webkit-tap-highlight-color: rgba(0, 0, 0, 0); text-anchor: middle; font: 24px Arial;" font-size="24px" transform="matrix(1,0,0,1,359,262.3508)">
      <tspan dy="8.507586093116458" style="-webkit-tap-highlight-color: rgba(0, 0, 0, 0);">C</tspan>
    </text>
    <text x="-19.999943398279115" y="79.99977359311646" text-anchor="middle"  stroke="none" fill="#000000" style="-webkit-tap-highlight-color: rgba(0, 0, 0, 0); text-anchor: middle; font: 24px Arial;" font-size="24px" transform="matrix(1,0,0,1,377.1437,262.3508)">
      <tspan dy="8.507586093116458" style="-webkit-tap-highlight-color: rgba(0, 0, 0, 0);">H</tspan>
    </text>
    <text x="-19.999943398279115" y="79.99977359311646" text-anchor="middle"  stroke="none" fill="#000000" style="-webkit-tap-highlight-color: rgba(0, 0, 0, 0); text-anchor: middle; font: 17px Arial;" font-size="17px" transform="matrix(1,0,0,1,391.35,267.7539)">
      <tspan dy="5.507586093116458" style="-webkit-tap-highlight-color: rgba(0, 0, 0, 0);">3</tspan>
    </text>
    <text x="-54.64226959966198" y="19.999943398279115" text-anchor="middle"  stroke="none" fill="#000000" style="-webkit-tap-highlight-color: rgba(0, 0, 0, 0); text-anchor: middle; font: 24px Arial;" font-size="24px" transform="matrix(1,0,0,1,359,262.3508)">
      <tspan dy="8.507755898279115" style="-webkit-tap-highlight-color: rgba(0, 0, 0, 0);">O</tspan>
    </text>
    <text x="54.64226959966198" y="-50.002282731261225" text-anchor="middle"  stroke="none" fill="#000000" style="-webkit-tap-highlight-color: rgba(0, 0, 0, 0); text-anchor: middle; font: 24px Arial;" font-size="24px" transform="matrix(1,0,0,1,359,262.3508)">
      <tspan dy="8.505529768738775" style="-webkit-tap-highlight-color: rgba(0, 0, 0, 0);">O</tspan>
    </text>
    <text x="54.64226959966198" y="-50.002282731261225" text-anchor="middle"  stroke="none" fill="#000000" style="-webkit-tap-highlight-color: rgba(0, 0, 0, 0); text-anchor: middle; font: 17px Arial;" font-size="17px" transform="matrix(1,0,0,1,374.1437,254.2461)">
      <tspan dy="5.505529768738775" style="-webkit-tap-highlight-color: rgba(0, 0, 0, 0);">&#x2013;</tspan>
    </text>
    <text x="19.999943398279115" y="9.997547463576131" text-anchor="middle"  stroke="none" fill="#000000" style="-webkit-tap-highlight-color: rgba(0, 0, 0, 0); text-anchor: middle; font: 24px Arial;" font-size="24px" transform="matrix(1,0,0,1,359,262.3508)">
      <tspan dy="8.505359963576131" style="-webkit-tap-highlight-color: rgba(0, 0, 0, 0);">C</tspan>
    </text>
    <text x="19.999943398279115" y="9.997547463576131" text-anchor="middle"  stroke="none" fill="#000000" style="-webkit-tap-highlight-color: rgba(0, 0, 0, 0); text-anchor: middle; font: 24px Arial;" font-size="24px" transform="matrix(1,0,0,1,330.5875,262.3508)">
      <tspan dy="8.505359963576131" style="-webkit-tap-highlight-color: rgba(0, 0, 0, 0);">H</tspan>
    </text>
    <text x="19.999943398279115" y="9.997547463576131" text-anchor="middle"  stroke="none" fill="#000000" style="-webkit-tap-highlight-color: rgba(0, 0, 0, 0); text-anchor: middle; font: 17px Arial;" font-size="17px" transform="matrix(1,0,0,1,344.7937,267.7539)">
      <tspan dy="5.505359963576131" style="-webkit-tap-highlight-color: rgba(0, 0, 0, 0);">3</tspan>
    </text>
    <text x="158.5643997326837" y="9.997547463576131" text-anchor="middle"  stroke="none" fill="#000000" style="-webkit-tap-highlight-color: rgba(0, 0, 0, 0); text-anchor: middle; font: 24px Arial;" font-size="24px" transform="matrix(1,0,0,1,359,262.3508)">
      <tspan dy="8.505359963576131" style="-webkit-tap-highlight-color: rgba(0, 0, 0, 0);">C</tspan>
    </text>
    <text x="158.5643997326837" y="9.997547463576131" text-anchor="middle"  stroke="none" fill="#000000" style="-webkit-tap-highlight-color: rgba(0, 0, 0, 0); text-anchor: middle; font: 24px Arial;" font-size="24px" transform="matrix(1,0,0,1,377.1437,262.3508)">
      <tspan dy="8.505359963576131" style="-webkit-tap-highlight-color: rgba(0, 0, 0, 0);">H</tspan>
    </text>
    <text x="158.5643997326837" y="9.997547463576131" text-anchor="middle"  stroke="none" fill="#000000" style="-webkit-tap-highlight-color: rgba(0, 0, 0, 0); text-anchor: middle; font: 17px Arial;" font-size="17px" transform="matrix(1,0,0,1,391.35,267.7539)">
      <tspan dy="5.505359963576131" style="-webkit-tap-highlight-color: rgba(0, 0, 0, 0);">3</tspan>
    </text>
    <text x="123.92207353130084" y="-50.002282731261225" text-anchor="middle"  stroke="none" fill="#000000" style="-webkit-tap-highlight-color: rgba(0, 0, 0, 0); text-anchor: middle; font: 24px Arial;" font-size="24px" transform="matrix(1,0,0,1,359,262.3508)">
      <tspan dy="8.505529768738775" style="-webkit-tap-highlight-color: rgba(0, 0, 0, 0);">O</tspan>
    </text>
    <text x="89.27974732991798" y="50.002282731261225" text-anchor="middle"  stroke="none" fill="#000000" style="-webkit-tap-highlight-color: rgba(0, 0, 0, 0); text-anchor: middle; font: 24px Arial;" font-size="24px" transform="matrix(1,0,0,1,359,262.3508)">
      <tspan dy="8.494470231261225" style="-webkit-tap-highlight-color: rgba(0, 0, 0, 0);">Fe</tspan>
    </text>
    <text x="89.27974732991798" y="50.002282731261225" text-anchor="middle"  stroke="none" fill="#000000" style="-webkit-tap-highlight-color: rgba(0, 0, 0, 0); text-anchor: middle; font: 17px Arial;" font-size="17px" transform="matrix(1,0,0,1,383.5266,254.2461)">
      <tspan dy="5.494470231261225" style="-webkit-tap-highlight-color: rgba(0, 0, 0, 0);">3+</tspan>
    </text>
    <path fill="none" stroke="#000000" d="M-123.92207353,-63.3L-123.92207353,-39.9998868" stroke-width="1.6" stroke-linecap="round" stroke-linejoin="round" transform="matrix(1,0,0,1,359,262.3508)" style="-webkit-tap-highlight-color: rgba(0, 0, 0, 0); stroke-linecap: round; stroke-linejoin: round;"></path>
    <path fill="none" stroke="#000000" d="M-123.92207353,-39.9998868L-147.11931555,-26.60749725" stroke-width="1.6" stroke-linecap="round" stroke-linejoin="round" transform="matrix(1,0,0,1,359,262.3508)" style="-webkit-tap-highlight-color: rgba(0, 0, 0, 0); stroke-linecap: round; stroke-linejoin: round;"></path>
    <path fill="none" stroke="#000000" d="M-123.92207353,-39.9998868L-89.27974733,-19.9999434M-117.25540686,-43.84896682L-89.27998061,-27.69800345" stroke-width="1.6" stroke-linecap="round" stroke-linejoin="round" transform="matrix(1,0,0,1,359,262.3508)" style="-webkit-tap-highlight-color: rgba(0, 0, 0, 0); stroke-linecap: round; stroke-linejoin: round;"></path>
    <path fill="none" stroke="#000000" d="M-89.27974733,-19.9999434L-54.6422696,-39.9998868" stroke-width="1.6" stroke-linecap="round" stroke-linejoin="round" transform="matrix(1,0,0,1,359,262.3508)" style="-webkit-tap-highlight-color: rgba(0, 0, 0, 0); stroke-linecap: round; stroke-linejoin: round;"></path>
    <path fill="none" stroke="#000000" d="M-54.6422696,-39.9998868L-31.44318445,-26.60643316" stroke-width="1.6" stroke-linecap="round" stroke-linejoin="round" transform="matrix(1,0,0,1,359,262.3508)" style="-webkit-tap-highlight-color: rgba(0, 0, 0, 0); stroke-linecap: round; stroke-linejoin: round;"></path>
    <path fill="none" stroke="#000000" d="M-51.30893627,-39.9998868L-51.30893627,-63.3M-57.97560293,-39.9998868L-57.97560293,-63.3" stroke-width="1.6" stroke-linecap="round" stroke-linejoin="round" transform="matrix(1,0,0,1,359,262.3508)" style="-webkit-tap-highlight-color: rgba(0, 0, 0, 0); stroke-linecap: round; stroke-linejoin: round;"></path>
    <path fill="none" stroke="#000000" d="M-123.92207353,36.715625L-123.92207353,59.99983019" stroke-width="1.6" stroke-linecap="round" stroke-linejoin="round" transform="matrix(1,0,0,1,359,262.3508)" style="-webkit-tap-highlight-color: rgba(0, 0, 0, 0); stroke-linecap: round; stroke-linejoin: round;"></path>
    <path fill="none" stroke="#000000" d="M-123.92207353,59.99983019L-147.11931555,73.39221974" stroke-width="1.6" stroke-linecap="round" stroke-linejoin="round" transform="matrix(1,0,0,1,359,262.3508)" style="-webkit-tap-highlight-color: rgba(0, 0, 0, 0); stroke-linecap: round; stroke-linejoin: round;"></path>
    <path fill="none" stroke="#000000" d="M-123.92207353,59.99983019L-89.27974733,79.99977359M-117.25540686,56.15075017L-89.27998061,72.30171355" stroke-width="1.6" stroke-linecap="round" stroke-linejoin="round" transform="matrix(1,0,0,1,359,262.3508)" style="-webkit-tap-highlight-color: rgba(0, 0, 0, 0); stroke-linecap: round; stroke-linejoin: round;"></path>
    <path fill="none" stroke="#000000" d="M-89.27974733,79.99977359L-54.6422696,59.99983019" stroke-width="1.6" stroke-linecap="round" stroke-linejoin="round" transform="matrix(1,0,0,1,359,262.3508)" style="-webkit-tap-highlight-color: rgba(0, 0, 0, 0); stroke-linecap: round; stroke-linejoin: round;"></path>
    <path fill="none" stroke="#000000" d="M-54.6422696,59.99983019L-31.44318445,73.39328383" stroke-width="1.6" stroke-linecap="round" stroke-linejoin="round" transform="matrix(1,0,0,1,359,262.3508)" style="-webkit-tap-highlight-color: rgba(0, 0, 0, 0); stroke-linecap: round; stroke-linejoin: round;"></path>
    <path fill="none" stroke="#000000" d="M-51.30893627,59.99983019L-51.30893627,36.715625M-57.97560293,59.99983019L-57.97560293,36.715625" stroke-width="1.6" stroke-linecap="round" stroke-linejoin="round" transform="matrix(1,0,0,1,359,262.3508)" style="-webkit-tap-highlight-color: rgba(0, 0, 0, 0); stroke-linecap: round; stroke-linejoin: round;"></path>
    <path fill="none" stroke="#000000" d="M54.6422696,-33.284375L54.6422696,-9.99754746" stroke-width="1.6" stroke-linecap="round" stroke-linejoin="round" transform="matrix(1,0,0,1,359,262.3508)" style="-webkit-tap-highlight-color: rgba(0, 0, 0, 0); stroke-linecap: round; stroke-linejoin: round;"></path>
    <path fill="none" stroke="#000000" d="M54.6422696,-9.99754746L31.4433524,3.39256234" stroke-width="1.6" stroke-linecap="round" stroke-linejoin="round" transform="matrix(1,0,0,1,359,262.3508)" style="-webkit-tap-highlight-color: rgba(0, 0, 0, 0); stroke-linecap: round; stroke-linejoin: round;"></path>
    <path fill="none" stroke="#000000" d="M54.6422696,-9.99754746L89.27974733,9.99754746M61.30893627,-13.84682471L89.27998057,2.29995394" stroke-width="1.6" stroke-linecap="round" stroke-linejoin="round" transform="matrix(1,0,0,1,359,262.3508)" style="-webkit-tap-highlight-color: rgba(0, 0, 0, 0); stroke-linecap: round; stroke-linejoin: round;"></path>
    <path fill="none" stroke="#000000" d="M89.27974733,9.99754746L123.92207353,-9.99754746" stroke-width="1.6" stroke-linecap="round" stroke-linejoin="round" transform="matrix(1,0,0,1,359,262.3508)" style="-webkit-tap-highlight-color: rgba(0, 0, 0, 0); stroke-linecap: round; stroke-linejoin: round;"></path>
    <path fill="none" stroke="#000000" d="M123.92207353,-9.99754746L147.1191476,3.39149851" stroke-width="1.6" stroke-linecap="round" stroke-linejoin="round" transform="matrix(1,0,0,1,359,262.3508)" style="-webkit-tap-highlight-color: rgba(0, 0, 0, 0); stroke-linecap: round; stroke-linejoin: round;"></path>
    <path fill="none" stroke="#000000" d="M127.25540686,-9.99754746L127.25540686,-33.284375M120.5887402,-9.99754746L120.5887402,-33.284375" stroke-width="1.6" stroke-linecap="round" stroke-linejoin="round" transform="matrix(1,0,0,1,359,262.3508)" style="-webkit-tap-highlight-color: rgba(0, 0, 0, 0); stroke-linecap: round; stroke-linejoin: round;"></path>
  </g>
<svg font-family="sans-serif">
  <text text-anchor="middle" font-size="20.1" y="233.0" x="213">24%</text>
</svg>
</g> </g></g> </svg></svg>