<svg version="1.1" xmlns="http://www.w3.org/2000/svg" xmlns:xlink="http://www.w3.org/1999/xlink" xmlns:cml="http://www.xml-cml.org/schema"
  width="1560" height="440" >
  <rect  width="1560" height="440" stroke-width="1" stroke="white" fill="none"/>
  <svg width="100%"  viewBox="0 0 1402 632.5" >
  <title>Reaction 1</title> <g transform='translate(50, 0)'><g transform='scale(1)'> <g transform='translate(10, 147)'> 
  <g transform="translate(-173, -99)">
    <defs style="-webkit-tap-highlight-color: rgba(0, 0, 0, 0);"></defs>
    <text x="36.67379097604061" y="-120.44557316589115" text-anchor="middle"  stroke="none" fill="#000000" style="-webkit-tap-highlight-color: rgba(0, 0, 0, 0); text-anchor: middle; font: 24px Arial;" font-size="24px" transform="matrix(1,0,0,1,358.7025,274.4042)">
      <tspan dy="8.499739334108853" style="-webkit-tap-highlight-color: rgba(0, 0, 0, 0);">C</tspan>
    </text>
    <text x="36.67379097604061" y="-120.44557316589115" text-anchor="middle"  stroke="none" fill="#000000" style="-webkit-tap-highlight-color: rgba(0, 0, 0, 0); text-anchor: middle; font: 24px Arial;" font-size="24px" transform="matrix(1,0,0,1,330.29,274.4042)">
      <tspan dy="8.499739334108853" style="-webkit-tap-highlight-color: rgba(0, 0, 0, 0);">H</tspan>
    </text>
    <text x="36.67379097604061" y="-120.44557316589115" text-anchor="middle"  stroke="none" fill="#000000" style="-webkit-tap-highlight-color: rgba(0, 0, 0, 0); text-anchor: middle; font: 17px Arial;" font-size="17px" transform="matrix(1,0,0,1,344.4963,279.8073)">
      <tspan dy="5.4997393341088525" style="-webkit-tap-highlight-color: rgba(0, 0, 0, 0);">3</tspan>
    </text>
    <text x="60.857935527665475" y="-46.02163193344492" text-anchor="middle"  stroke="none" fill="#000000" style="-webkit-tap-highlight-color: rgba(0, 0, 0, 0); text-anchor: middle; font: 24px Arial;" font-size="24px" transform="matrix(1,0,0,1,358.7025,274.4042)">
      <tspan dy="8.501805566555078" style="-webkit-tap-highlight-color: rgba(0, 0, 0, 0);">O</tspan>
    </text>
    <text x="1.7309020859923976" y="-72.3487981153461" text-anchor="middle"  stroke="none" fill="#000000" style="-webkit-tap-highlight-color: rgba(0, 0, 0, 0); text-anchor: middle; font: 24px Arial;" font-size="24px" transform="matrix(1,0,0,1,358.7025,274.4042)">
      <tspan dy="8.5027643846539" style="-webkit-tap-highlight-color: rgba(0, 0, 0, 0);">O</tspan>
    </text>
    <text x="-71.73304303153368" y="-32.56714092888217" text-anchor="middle"  stroke="none" fill="#000000" style="-webkit-tap-highlight-color: rgba(0, 0, 0, 0); text-anchor: middle; font: 24px Arial;" font-size="24px" transform="matrix(1,0,0,1,358.7025,274.4042)">
      <tspan dy="8.503171571117832" style="-webkit-tap-highlight-color: rgba(0, 0, 0, 0);">P</tspan>
    </text>
    <text x="80.45058350944498" y="35.19016061661855" text-anchor="middle"  stroke="none" fill="#000000" style="-webkit-tap-highlight-color: rgba(0, 0, 0, 0); text-anchor: middle; font: 24px Arial;" font-size="24px" transform="matrix(1,0,0,1,358.7025,274.4042)">
      <tspan dy="8.494848116618549" style="-webkit-tap-highlight-color: rgba(0, 0, 0, 0);">P</tspan>
    </text>
    <text x="73.21667339095572" y="-104.17412386451724" text-anchor="middle"  stroke="none" fill="#000000" style="-webkit-tap-highlight-color: rgba(0, 0, 0, 0); text-anchor: middle; font: 24px Arial;" font-size="24px" transform="matrix(1,0,0,1,358.7025,274.4042)">
      <tspan dy="8.505563635482758" style="-webkit-tap-highlight-color: rgba(0, 0, 0, 0);">C</tspan>
    </text>
    <text x="73.21667339095572" y="-104.17412386451724" text-anchor="middle"  stroke="none" fill="#000000" style="-webkit-tap-highlight-color: rgba(0, 0, 0, 0); text-anchor: middle; font: 24px Arial;" font-size="24px" transform="matrix(1,0,0,1,376.8463,274.4042)">
      <tspan dy="8.505563635482758" style="-webkit-tap-highlight-color: rgba(0, 0, 0, 0);">H</tspan>
    </text>
    <text x="73.21667339095572" y="-104.17412386451724" text-anchor="middle"  stroke="none" fill="#000000" style="-webkit-tap-highlight-color: rgba(0, 0, 0, 0); text-anchor: middle; font: 17px Arial;" font-size="17px" transform="matrix(1,0,0,1,391.0525,279.8073)">
      <tspan dy="5.505563635482758" style="-webkit-tap-highlight-color: rgba(0, 0, 0, 0);">3</tspan>
    </text>
    <path fill="none" stroke="#000000" d="M38.42929582,-103.75505493L40.85801647,-80.66391598" stroke-width="1.6" stroke-linecap="round" stroke-linejoin="round" style="-webkit-tap-highlight-color: rgba(0, 0, 0, 0); stroke-linecap: round; stroke-linejoin: round;" transform="matrix(1,0,0,1,358.7025,274.4042)"></path>
    <path fill="none" stroke="#000000" d="M40.85801647,-80.66391598L51.45851971,-62.30255945" stroke-width="1.6" stroke-linecap="round" stroke-linejoin="round" style="-webkit-tap-highlight-color: rgba(0, 0, 0, 0); stroke-linecap: round; stroke-linejoin: round;" transform="matrix(1,0,0,1,358.7025,274.4042)"></path>
    <path fill="none" stroke="#000000" d="M49.37427366,-33.26917207L34.08955901,-16.29569163" stroke-width="1.6" stroke-linecap="round" stroke-linejoin="round" style="-webkit-tap-highlight-color: rgba(0, 0, 0, 0); stroke-linecap: round; stroke-linejoin: round;" transform="matrix(1,0,0,1,358.7025,274.4042)"></path>
    <path fill="none" stroke="#000000" d="M34.08955901,-16.29569163L-2.44847494,-32.56714093" stroke-width="1.6" stroke-linecap="round" stroke-linejoin="round" style="-webkit-tap-highlight-color: rgba(0, 0, 0, 0); stroke-linecap: round; stroke-linejoin: round;" transform="matrix(1,0,0,1,358.7025,274.4042)"></path>
    <path fill="none" stroke="#000000" d="M-2.44847494,-32.56714093L-0.022255,-55.66126461" stroke-width="1.6" stroke-linecap="round" stroke-linejoin="round" style="-webkit-tap-highlight-color: rgba(0, 0, 0, 0); stroke-linecap: round; stroke-linejoin: round;" transform="matrix(1,0,0,1,358.7025,274.4042)"></path>
    <path fill="none" stroke="#000000" d="M40.85801647,-80.66391598L14.19259846,-74.99710162" stroke-width="1.6" stroke-linecap="round" stroke-linejoin="round" style="-webkit-tap-highlight-color: rgba(0, 0, 0, 0); stroke-linecap: round; stroke-linejoin: round;" transform="matrix(1,0,0,1,358.7025,274.4042)"></path>
    <path fill="none" stroke="#000000" d="M-2.54992112,-32.74285801L-2.34702876,-32.39142384M-5.91785811,-31.26702709L-5.30918102,-30.21272458M-9.2857951,-29.79119617L-8.27133328,-28.03402532M-12.6537321,-28.31536525L-11.23348554,-25.85532606M-16.02166909,-26.83953432L-14.1956378,-23.6766268M-19.38960608,-25.3637034L-17.15779006,-21.49792754M-22.75754307,-23.88787248L-20.11994232,-19.31922827M-26.12548006,-22.41204156L-23.08209458,-17.14052901M-29.49341705,-20.93621064L-26.04424684,-14.96182975M-32.86135404,-19.46037971L-29.0063991,-12.78313049M-36.22929104,-17.98454879L-31.96855136,-10.60443123M-39.59722803,-16.50871787L-34.93070363,-8.42573196" stroke-width="1.6" stroke-linecap="round" stroke-linejoin="round" style="-webkit-tap-highlight-color: rgba(0, 0, 0, 0); stroke-linecap: round; stroke-linejoin: round;" transform="matrix(1,0,0,1,358.7025,274.4042)"></path>
    <path fill="none" stroke="#000000" d="M-37.09075899,-12.56722187L-60.94744055,-26.34032354" stroke-width="1.6" stroke-linecap="round" stroke-linejoin="round" style="-webkit-tap-highlight-color: rgba(0, 0, 0, 0); stroke-linecap: round; stroke-linejoin: round;" transform="matrix(1,0,0,1,358.7025,274.4042)"></path>
    <path fill="none" stroke="#000000" d="M-71.73304303,-49.278125L-71.73304303,-72.56697905" stroke-width="1.6" stroke-linecap="round" stroke-linejoin="round" style="-webkit-tap-highlight-color: rgba(0, 0, 0, 0); stroke-linecap: round; stroke-linejoin: round;" transform="matrix(1,0,0,1,358.7025,274.4042)"></path>
    <path fill="none" stroke="#000000" d="M-71.73304303,-80.26490442L-99.70866041,-96.41597813M-71.73304303,-72.56697905L-106.37532708,-92.56689811" stroke-width="1.6" stroke-linecap="round" stroke-linejoin="round" style="-webkit-tap-highlight-color: rgba(0, 0, 0, 0); stroke-linecap: round; stroke-linejoin: round;" transform="matrix(1,0,0,1,358.7025,274.4042)"></path>
    <path fill="none" stroke="#000000" d="M-106.37532708,-92.56689811L-106.37532708,-132.56673623" stroke-width="1.6" stroke-linecap="round" stroke-linejoin="round" style="-webkit-tap-highlight-color: rgba(0, 0, 0, 0); stroke-linecap: round; stroke-linejoin: round;" transform="matrix(1,0,0,1,358.7025,274.4042)"></path>
    <path fill="none" stroke="#000000" d="M-99.70866041,-128.71765621L-71.73304303,-144.86872993M-106.37532708,-132.56673623L-71.73304303,-152.56665529" stroke-width="1.6" stroke-linecap="round" stroke-linejoin="round" style="-webkit-tap-highlight-color: rgba(0, 0, 0, 0); stroke-linecap: round; stroke-linejoin: round;" transform="matrix(1,0,0,1,358.7025,274.4042)"></path>
    <path fill="none" stroke="#000000" d="M-71.73304303,-152.56665529L-37.09075899,-132.56673623" stroke-width="1.6" stroke-linecap="round" stroke-linejoin="round" style="-webkit-tap-highlight-color: rgba(0, 0, 0, 0); stroke-linecap: round; stroke-linejoin: round;" transform="matrix(1,0,0,1,358.7025,274.4042)"></path>
    <path fill="none" stroke="#000000" d="M-43.75742565,-128.71765621L-43.75742565,-96.41597813M-37.09075899,-132.56673623L-37.09075899,-92.56689811" stroke-width="1.6" stroke-linecap="round" stroke-linejoin="round" style="-webkit-tap-highlight-color: rgba(0, 0, 0, 0); stroke-linecap: round; stroke-linejoin: round;" transform="matrix(1,0,0,1,358.7025,274.4042)"></path>
    <path fill="none" stroke="#000000" d="M-71.73304303,-72.56697905L-37.09075899,-92.56689811" stroke-width="1.6" stroke-linecap="round" stroke-linejoin="round" style="-webkit-tap-highlight-color: rgba(0, 0, 0, 0); stroke-linecap: round; stroke-linejoin: round;" transform="matrix(1,0,0,1,358.7025,274.4042)"></path>
    <path fill="none" stroke="#000000" d="M-82.50568445,-26.34780631L-106.37532708,-12.56722187" stroke-width="1.6" stroke-linecap="round" stroke-linejoin="round" style="-webkit-tap-highlight-color: rgba(0, 0, 0, 0); stroke-linecap: round; stroke-linejoin: round;" transform="matrix(1,0,0,1,358.7025,274.4042)"></path>
    <path fill="none" stroke="#000000" d="M-113.04199374,-8.71841122L-113.04199374,23.5838056M-106.37532708,-12.56722187L-106.37532708,27.43261625" stroke-width="1.6" stroke-linecap="round" stroke-linejoin="round" style="-webkit-tap-highlight-color: rgba(0, 0, 0, 0); stroke-linecap: round; stroke-linejoin: round;" transform="matrix(1,0,0,1,358.7025,274.4042)"></path>
    <path fill="none" stroke="#000000" d="M-106.37532708,27.43261625L-141.01276266,47.43253531" stroke-width="1.6" stroke-linecap="round" stroke-linejoin="round" style="-webkit-tap-highlight-color: rgba(0, 0, 0, 0); stroke-linecap: round; stroke-linejoin: round;" transform="matrix(1,0,0,1,358.7025,274.4042)"></path>
    <path fill="none" stroke="#000000" d="M-141.01299594,39.73447527L-168.98838004,23.58353623M-141.01276266,47.43253531L-175.6550467,27.43261625" stroke-width="1.6" stroke-linecap="round" stroke-linejoin="round" style="-webkit-tap-highlight-color: rgba(0, 0, 0, 0); stroke-linecap: round; stroke-linejoin: round;" transform="matrix(1,0,0,1,358.7025,274.4042)"></path>
    <path fill="none" stroke="#000000" d="M-175.6550467,27.43261625L-175.6550467,-12.56722187" stroke-width="1.6" stroke-linecap="round" stroke-linejoin="round" style="-webkit-tap-highlight-color: rgba(0, 0, 0, 0); stroke-linecap: round; stroke-linejoin: round;" transform="matrix(1,0,0,1,358.7025,274.4042)"></path>
    <path fill="none" stroke="#000000" d="M-168.98838004,-8.71814185L-141.01299594,-24.86908088M-175.6550467,-12.56722187L-141.01276266,-32.56714093" stroke-width="1.6" stroke-linecap="round" stroke-linejoin="round" style="-webkit-tap-highlight-color: rgba(0, 0, 0, 0); stroke-linecap: round; stroke-linejoin: round;" transform="matrix(1,0,0,1,358.7025,274.4042)"></path>
    <path fill="none" stroke="#000000" d="M-106.37532708,-12.56722187L-141.01276266,-32.56714093" stroke-width="1.6" stroke-linecap="round" stroke-linejoin="round" style="-webkit-tap-highlight-color: rgba(0, 0, 0, 0); stroke-linecap: round; stroke-linejoin: round;" transform="matrix(1,0,0,1,358.7025,274.4042)"></path>
    <path fill="#000000" stroke="#000000" d="M34.08955901,-16.29569163L37.84493793,23.79730573L46.97411275,21.85584285Z" stroke-width="1.6" stroke-linecap="round" stroke-linejoin="round" style="-webkit-tap-highlight-color: rgba(0, 0, 0, 0); stroke-linecap: round; stroke-linejoin: round;" transform="matrix(1,0,0,1,358.7025,274.4042)"></path>
    <path fill="none" stroke="#000000" d="M42.40952534,22.82657429L69.39419668,31.59676444" stroke-width="1.6" stroke-linecap="round" stroke-linejoin="round" style="-webkit-tap-highlight-color: rgba(0, 0, 0, 0); stroke-linecap: round; stroke-linejoin: round;" transform="matrix(1,0,0,1,358.7025,274.4042)"></path>
    <path fill="none" stroke="#000000" d="M90.71567275,24.92331155L108.73168118,6.90421448" stroke-width="1.6" stroke-linecap="round" stroke-linejoin="round" style="-webkit-tap-highlight-color: rgba(0, 0, 0, 0); stroke-linecap: round; stroke-linejoin: round;" transform="matrix(1,0,0,1,358.7025,274.4042)"></path>
    <path fill="none" stroke="#000000" d="M114.17509737,1.46079829L105.81590134,-29.74034136M108.73168118,6.90421448L98.38020792,-31.73320491" stroke-width="1.6" stroke-linecap="round" stroke-linejoin="round" style="-webkit-tap-highlight-color: rgba(0, 0, 0, 0); stroke-linecap: round; stroke-linejoin: round;" transform="matrix(1,0,0,1,358.7025,274.4042)"></path>
    <path fill="none" stroke="#000000" d="M98.38020792,-31.73320491L126.66615405,-60.01430258" stroke-width="1.6" stroke-linecap="round" stroke-linejoin="round" style="-webkit-tap-highlight-color: rgba(0, 0, 0, 0); stroke-linecap: round; stroke-linejoin: round;" transform="matrix(1,0,0,1,358.7025,274.4042)"></path>
    <path fill="none" stroke="#000000" d="M128.65828168,-52.57880632L159.86015726,-44.21941313M126.66615405,-60.01430258L165.30357344,-49.66282932" stroke-width="1.6" stroke-linecap="round" stroke-linejoin="round" style="-webkit-tap-highlight-color: rgba(0, 0, 0, 0); stroke-linecap: round; stroke-linejoin: round;" transform="matrix(1,0,0,1,358.7025,274.4042)"></path>
    <path fill="none" stroke="#000000" d="M165.30357344,-49.66282932L175.6550467,-11.02540993" stroke-width="1.6" stroke-linecap="round" stroke-linejoin="round" style="-webkit-tap-highlight-color: rgba(0, 0, 0, 0); stroke-linecap: round; stroke-linejoin: round;" transform="matrix(1,0,0,1,358.7025,274.4042)"></path>
    <path fill="none" stroke="#000000" d="M168.21935329,-13.01827347L145.37697294,9.82019149M175.6550467,-11.02540993L147.36910057,17.25568774" stroke-width="1.6" stroke-linecap="round" stroke-linejoin="round" style="-webkit-tap-highlight-color: rgba(0, 0, 0, 0); stroke-linecap: round; stroke-linejoin: round;" transform="matrix(1,0,0,1,358.7025,274.4042)"></path>
    <path fill="none" stroke="#000000" d="M108.73168118,6.90421448L147.36910057,17.25568774" stroke-width="1.6" stroke-linecap="round" stroke-linejoin="round" style="-webkit-tap-highlight-color: rgba(0, 0, 0, 0); stroke-linecap: round; stroke-linejoin: round;" transform="matrix(1,0,0,1,358.7025,274.4042)"></path>
    <path fill="none" stroke="#000000" d="M83.98460596,51.8175817L88.76570137,74.31242653" stroke-width="1.6" stroke-linecap="round" stroke-linejoin="round" style="-webkit-tap-highlight-color: rgba(0, 0, 0, 0); stroke-linecap: round; stroke-linejoin: round;" transform="matrix(1,0,0,1,358.7025,274.4042)"></path>
    <path fill="none" stroke="#000000" d="M90.3661845,81.84252049L121.08629057,91.82675074M88.76570137,74.31242653L126.80675954,86.67601286" stroke-width="1.6" stroke-linecap="round" stroke-linejoin="round" style="-webkit-tap-highlight-color: rgba(0, 0, 0, 0); stroke-linecap: round; stroke-linejoin: round;" transform="matrix(1,0,0,1,358.7025,274.4042)"></path>
    <path fill="none" stroke="#000000" d="M126.80675954,86.67601286L135.12672587,125.80312724" stroke-width="1.6" stroke-linecap="round" stroke-linejoin="round" style="-webkit-tap-highlight-color: rgba(0, 0, 0, 0); stroke-linecap: round; stroke-linejoin: round;" transform="matrix(1,0,0,1,358.7025,274.4042)"></path>
    <path fill="none" stroke="#000000" d="M127.80519619,123.42440131L103.80017873,145.03713926M135.12672587,125.80312724L105.40078557,152.56665529" stroke-width="1.6" stroke-linecap="round" stroke-linejoin="round" style="-webkit-tap-highlight-color: rgba(0, 0, 0, 0); stroke-linecap: round; stroke-linejoin: round;" transform="matrix(1,0,0,1,358.7025,274.4042)"></path>
    <path fill="none" stroke="#000000" d="M105.40078557,152.56665529L67.35487893,140.20791743" stroke-width="1.6" stroke-linecap="round" stroke-linejoin="round" style="-webkit-tap-highlight-color: rgba(0, 0, 0, 0); stroke-linecap: round; stroke-linejoin: round;" transform="matrix(1,0,0,1,358.7025,274.4042)"></path>
    <path fill="none" stroke="#000000" d="M73.07570789,135.05667843L66.36081593,103.45948998M67.35487893,140.20791743L59.03976107,101.08080305" stroke-width="1.6" stroke-linecap="round" stroke-linejoin="round" style="-webkit-tap-highlight-color: rgba(0, 0, 0, 0); stroke-linecap: round; stroke-linejoin: round;" transform="matrix(1,0,0,1,358.7025,274.4042)"></path>
    <path fill="none" stroke="#000000" d="M88.76570137,74.31242653L59.03976107,101.08080305" stroke-width="1.6" stroke-linecap="round" stroke-linejoin="round" style="-webkit-tap-highlight-color: rgba(0, 0, 0, 0); stroke-linecap: round; stroke-linejoin: round;" transform="matrix(1,0,0,1,358.7025,274.4042)"></path>
    <path fill="none" stroke="#000000" d="M40.85801647,-80.66391598L61.95803079,-95.99414815" stroke-width="1.6" stroke-linecap="round" stroke-linejoin="round" style="-webkit-tap-highlight-color: rgba(0, 0, 0, 0); stroke-linecap: round; stroke-linejoin: round;" transform="matrix(1,0,0,1,358.7025,274.4042)"></path>
    <text x="144.916" y="-165.868" text-anchor="middle"  stroke="none" fill="#000000" style="-webkit-tap-highlight-color: rgba(0, 0, 0, 0); text-anchor: middle; font: 24px Arial;" font-size="24px" transform="matrix(1,0,0,1,358.7025,274.4042)">
      <tspan dy="8.499187500000005" style="-webkit-tap-highlight-color: rgba(0, 0, 0, 0);">Chiral</tspan>
    </text>
  </g>
</g> </g></g><g transform='translate(660, 0)'><g transform='scale(0.75)'> <g transform='translate(10, 127)'> 
  <g transform="translate(-221, -150)">
    <defs style="-webkit-tap-highlight-color: rgba(0, 0, 0, 0);"></defs>
    <text x="103.92237930210547" y="-34.64240926161908" text-anchor="middle"  stroke="none" fill="#000000" style="-webkit-tap-highlight-color: rgba(0, 0, 0, 0); text-anchor: middle; font: 24px Arial;" font-size="24px" transform="matrix(1,0,0,1,363.8023,254.2509)">
      <tspan dy="8.506028238380921" style="-webkit-tap-highlight-color: rgba(0, 0, 0, 0);">O</tspan>
    </text>
    <text x="103.92237930210547" y="-34.64240926161908" text-anchor="middle"  stroke="none" fill="#000000" style="-webkit-tap-highlight-color: rgba(0, 0, 0, 0); text-anchor: middle; font: 24px Arial;" font-size="24px" transform="matrix(1,0,0,1,382.6102,254.2509)">
      <tspan dy="8.506028238380921" style="-webkit-tap-highlight-color: rgba(0, 0, 0, 0);">H</tspan>
    </text>
    <text x="-34.64240926161908" y="-34.64240926161908" text-anchor="middle"  stroke="none" fill="#000000" style="-webkit-tap-highlight-color: rgba(0, 0, 0, 0); text-anchor: middle; font: 24px Arial;" font-size="24px" transform="matrix(1,0,0,1,363.8023,254.2509)">
      <tspan dy="8.506028238380921" style="-webkit-tap-highlight-color: rgba(0, 0, 0, 0);">N</tspan>
    </text>
    <text x="-34.64240926161908" y="-34.64240926161908" text-anchor="middle"  stroke="none" fill="#000000" style="-webkit-tap-highlight-color: rgba(0, 0, 0, 0); text-anchor: middle; font: 17px Arial;" font-size="17px" transform="matrix(1,0,0,1,378.282,246.1462)">
      <tspan dy="5.506028238380921" style="-webkit-tap-highlight-color: rgba(0, 0, 0, 0);">+</tspan>
    </text>
    <text x="-103.92237930210547" y="-34.64240926161908" text-anchor="middle"  stroke="none" fill="#000000" style="-webkit-tap-highlight-color: rgba(0, 0, 0, 0); text-anchor: middle; font: 24px Arial;" font-size="24px" transform="matrix(1,0,0,1,363.8023,254.2509)">
      <tspan dy="8.506028238380921" style="-webkit-tap-highlight-color: rgba(0, 0, 0, 0);">C</tspan>
    </text>
    <text x="-103.92237930210547" y="-34.64240926161908" text-anchor="middle"  stroke="none" fill="#000000" style="-webkit-tap-highlight-color: rgba(0, 0, 0, 0); text-anchor: middle; font: 24px Arial;" font-size="24px" transform="matrix(1,0,0,1,335.3898,254.2509)">
      <tspan dy="8.506028238380921" style="-webkit-tap-highlight-color: rgba(0, 0, 0, 0);">H</tspan>
    </text>
    <text x="-103.92237930210547" y="-34.64240926161908" text-anchor="middle"  stroke="none" fill="#000000" style="-webkit-tap-highlight-color: rgba(0, 0, 0, 0); text-anchor: middle; font: 17px Arial;" font-size="17px" transform="matrix(1,0,0,1,349.5961,259.654)">
      <tspan dy="5.506028238380921" style="-webkit-tap-highlight-color: rgba(0, 0, 0, 0);">3</tspan>
    </text>
    <text x="54.642400612798745" y="94.64238331515809" text-anchor="middle"  stroke="none" fill="#000000" style="-webkit-tap-highlight-color: rgba(0, 0, 0, 0); text-anchor: middle; font: 24px Arial;" font-size="24px" transform="matrix(1,0,0,1,363.8023,254.2509)">
      <tspan dy="8.493945815158085" style="-webkit-tap-highlight-color: rgba(0, 0, 0, 0);">O</tspan>
    </text>
    <text x="34.64240926161908" y="59.999974053539006" text-anchor="middle"  stroke="none" fill="#000000" style="-webkit-tap-highlight-color: rgba(0, 0, 0, 0); text-anchor: middle; font: 24px Arial;" font-size="24px" transform="matrix(1,0,0,1,363.8023,254.2509)">
      <tspan dy="8.507786553539006" style="-webkit-tap-highlight-color: rgba(0, 0, 0, 0);">S</tspan>
    </text>
    <text x="0" y="79.99996540471867" text-anchor="middle"  stroke="none" fill="#000000" style="-webkit-tap-highlight-color: rgba(0, 0, 0, 0); text-anchor: middle; font: 24px Arial;" font-size="24px" transform="matrix(1,0,0,1,363.8023,254.2509)">
      <tspan dy="8.507777904718665" style="-webkit-tap-highlight-color: rgba(0, 0, 0, 0);">O</tspan>
    </text>
    <text x="-69.27997004048636" y="79.99996540471867" text-anchor="middle"  stroke="none" fill="#000000" style="-webkit-tap-highlight-color: rgba(0, 0, 0, 0); text-anchor: middle; font: 24px Arial;" font-size="24px" transform="matrix(1,0,0,1,363.8023,254.2509)">
      <tspan dy="8.507777904718665" style="-webkit-tap-highlight-color: rgba(0, 0, 0, 0);">C</tspan>
    </text>
    <text x="-69.27997004048636" y="79.99996540471867" text-anchor="middle"  stroke="none" fill="#000000" style="-webkit-tap-highlight-color: rgba(0, 0, 0, 0); text-anchor: middle; font: 24px Arial;" font-size="24px" transform="matrix(1,0,0,1,335.3898,254.2509)">
      <tspan dy="8.507777904718665" style="-webkit-tap-highlight-color: rgba(0, 0, 0, 0);">H</tspan>
    </text>
    <text x="-69.27997004048636" y="79.99996540471867" text-anchor="middle"  stroke="none" fill="#000000" style="-webkit-tap-highlight-color: rgba(0, 0, 0, 0); text-anchor: middle; font: 17px Arial;" font-size="17px" transform="matrix(1,0,0,1,349.5961,259.654)">
      <tspan dy="5.507777904718665" style="-webkit-tap-highlight-color: rgba(0, 0, 0, 0);">3</tspan>
    </text>
    <text x="69.27997004048636" y="39.99998270235933" text-anchor="middle"  stroke="none" fill="#000000" style="-webkit-tap-highlight-color: rgba(0, 0, 0, 0); text-anchor: middle; font: 24px Arial;" font-size="24px" transform="matrix(1,0,0,1,363.8023,254.2509)">
      <tspan dy="8.507795202359333" style="-webkit-tap-highlight-color: rgba(0, 0, 0, 0);">O</tspan>
    </text>
    <text x="69.27997004048636" y="39.99998270235933" text-anchor="middle"  stroke="none" fill="#000000" style="-webkit-tap-highlight-color: rgba(0, 0, 0, 0); text-anchor: middle; font: 17px Arial;" font-size="17px" transform="matrix(1,0,0,1,378.9461,246.1462)">
      <tspan dy="5.507795202359333" style="-webkit-tap-highlight-color: rgba(0, 0, 0, 0);">&#x2013;</tspan>
    </text>
    <text x="14.642417910439416" y="25.35756479191992" text-anchor="middle"  stroke="none" fill="#000000" style="-webkit-tap-highlight-color: rgba(0, 0, 0, 0); text-anchor: middle; font: 24px Arial;" font-size="24px" transform="matrix(1,0,0,1,363.8023,254.2509)">
      <tspan dy="8.50600229191992" style="-webkit-tap-highlight-color: rgba(0, 0, 0, 0);">O</tspan>
    </text>
    <path fill="none" stroke="#000000" d="M91.82244055,-27.65679032L69.27997004,-14.64241791" stroke-width="1.6" stroke-linecap="round" stroke-linejoin="round" transform="matrix(1,0,0,1,363.8023,254.2509)" style="-webkit-tap-highlight-color: rgba(0, 0, 0, 0); stroke-linecap: round; stroke-linejoin: round;"></path>
    <path fill="none" stroke="#000000" d="M69.27997004,-14.64241791L34.64240926,-34.64240926" stroke-width="1.6" stroke-linecap="round" stroke-linejoin="round" transform="matrix(1,0,0,1,363.8023,254.2509)" style="-webkit-tap-highlight-color: rgba(0, 0, 0, 0); stroke-linecap: round; stroke-linejoin: round;"></path>
    <path fill="none" stroke="#000000" d="M27.97574259,-38.49148928L0,-22.34034328M34.64240926,-34.64240926L0,-14.64241791" stroke-width="1.6" stroke-linecap="round" stroke-linejoin="round" transform="matrix(1,0,0,1,363.8023,254.2509)" style="-webkit-tap-highlight-color: rgba(0, 0, 0, 0); stroke-linecap: round; stroke-linejoin: round;"></path>
    <path fill="none" stroke="#000000" d="M0,-14.64241791L-23.19744055,-28.03492208" stroke-width="1.6" stroke-linecap="round" stroke-linejoin="round" transform="matrix(1,0,0,1,363.8023,254.2509)" style="-webkit-tap-highlight-color: rgba(0, 0, 0, 0); stroke-linecap: round; stroke-linejoin: round;"></path>
    <path fill="none" stroke="#000000" d="M-46.08371248,-28.03611366L-69.27997004,-14.64241791" stroke-width="1.6" stroke-linecap="round" stroke-linejoin="round" transform="matrix(1,0,0,1,363.8023,254.2509)" style="-webkit-tap-highlight-color: rgba(0, 0, 0, 0); stroke-linecap: round; stroke-linejoin: round;"></path>
    <path fill="none" stroke="#000000" d="M-69.27997004,-14.64241791L-92.47869055,-28.03566103" stroke-width="1.6" stroke-linecap="round" stroke-linejoin="round" transform="matrix(1,0,0,1,363.8023,254.2509)" style="-webkit-tap-highlight-color: rgba(0, 0, 0, 0); stroke-linecap: round; stroke-linejoin: round;"></path>
    <path fill="none" stroke="#000000" d="M-27.97574259,-51.340625L-27.97574259,-70.79331194M-34.64240926,-51.340625L-34.64240926,-74.64239196" stroke-width="1.6" stroke-linecap="round" stroke-linejoin="round" transform="matrix(1,0,0,1,363.8023,254.2509)" style="-webkit-tap-highlight-color: rgba(0, 0, 0, 0); stroke-linecap: round; stroke-linejoin: round;"></path>
    <path fill="none" stroke="#000000" d="M-34.64240926,-74.64239196L0,-94.64238332" stroke-width="1.6" stroke-linecap="round" stroke-linejoin="round" transform="matrix(1,0,0,1,363.8023,254.2509)" style="-webkit-tap-highlight-color: rgba(0, 0, 0, 0); stroke-linecap: round; stroke-linejoin: round;"></path>
    <path fill="none" stroke="#000000" d="M0,-86.94445795L27.97574259,-70.79331194M0,-94.64238332L34.64240926,-74.64239196" stroke-width="1.6" stroke-linecap="round" stroke-linejoin="round" transform="matrix(1,0,0,1,363.8023,254.2509)" style="-webkit-tap-highlight-color: rgba(0, 0, 0, 0); stroke-linecap: round; stroke-linejoin: round;"></path>
    <path fill="none" stroke="#000000" d="M34.64240926,-34.64240926L34.64240926,-74.64239196" stroke-width="1.6" stroke-linecap="round" stroke-linejoin="round" transform="matrix(1,0,0,1,363.8023,254.2509)" style="-webkit-tap-highlight-color: rgba(0, 0, 0, 0); stroke-linecap: round; stroke-linejoin: round;"></path>
    <path fill="none" stroke="#000000" d="M48.12528239,76.68707469L46.9320887,74.62031859M42.35172103,80.02030641L41.15852734,77.95355031" stroke-width="1.6" stroke-linecap="round" stroke-linejoin="round" transform="matrix(1,0,0,1,363.8023,254.2509)" style="-webkit-tap-highlight-color: rgba(0, 0, 0, 0); stroke-linecap: round; stroke-linejoin: round;"></path>
    <path fill="none" stroke="#000000" d="M23.86931555,66.21956979L12.09943445,73.01463761" stroke-width="1.6" stroke-linecap="round" stroke-linejoin="round" transform="matrix(1,0,0,1,363.8023,254.2509)" style="-webkit-tap-highlight-color: rgba(0, 0, 0, 0); stroke-linecap: round; stroke-linejoin: round;"></path>
    <path fill="none" stroke="#000000" d="M-12.09943445,73.01463761L-34.64240926,59.99997405" stroke-width="1.6" stroke-linecap="round" stroke-linejoin="round" transform="matrix(1,0,0,1,363.8023,254.2509)" style="-webkit-tap-highlight-color: rgba(0, 0, 0, 0); stroke-linecap: round; stroke-linejoin: round;"></path>
    <path fill="none" stroke="#000000" d="M-34.64240926,59.99997405L-57.83816252,73.39337862" stroke-width="1.6" stroke-linecap="round" stroke-linejoin="round" transform="matrix(1,0,0,1,363.8023,254.2509)" style="-webkit-tap-highlight-color: rgba(0, 0, 0, 0); stroke-linecap: round; stroke-linejoin: round;"></path>
    <path fill="none" stroke="#000000" d="M45.42746248,53.7726022L57.16628752,46.99451523" stroke-width="1.6" stroke-linecap="round" stroke-linejoin="round" transform="matrix(1,0,0,1,363.8023,254.2509)" style="-webkit-tap-highlight-color: rgba(0, 0, 0, 0); stroke-linecap: round; stroke-linejoin: round;"></path>
    <path fill="none" stroke="#000000" d="M28.13534187,42.06207469L26.93312745,39.97969359M22.36178051,45.39530641L21.15956609,43.31292531" stroke-width="1.6" stroke-linecap="round" stroke-linejoin="round" transform="matrix(1,0,0,1,363.8023,254.2509)" style="-webkit-tap-highlight-color: rgba(0, 0, 0, 0); stroke-linecap: round; stroke-linejoin: round;"></path>
  </g>
</g> </g></g><g transform='translate(630, 316)'> <svg stroke="black" stroke-width="1">
  <line x1="0" y1="4" x2="316" y2="4" stroke="black"/>
  <polygon points="308,4 306,7 316,4 306,1"/>
</svg>
 </g> <g transform='translate(630, 316)'> <svg font-family="sans-serif">
  <text text-anchor="middle" x="158" y="55" font-size="19.1">CU1-Raymonde</text>
</svg>
 </g><g transform='translate(986, 0)'><g transform='scale(1)'> <g transform='translate(10, 127)'> 
  <g transform="translate(-230, -79)">
    <defs style="-webkit-tap-highlight-color: rgba(0, 0, 0, 0);"></defs>
    <text x="-4.624778972501395" y="-66.64269051771494" text-anchor="middle"  stroke="none" fill="#000000" style="-webkit-tap-highlight-color: rgba(0, 0, 0, 0); text-anchor: middle; font: 24px Arial;" font-size="24px" transform="matrix(1,0,0,1,351.4269,275.2654)">
      <tspan dy="8.50574698228506" style="-webkit-tap-highlight-color: rgba(0, 0, 0, 0);">P</tspan>
    </text>
    <text x="-4.624778972501395" y="66.64269051771494" text-anchor="middle"  stroke="none" fill="#000000" style="-webkit-tap-highlight-color: rgba(0, 0, 0, 0); text-anchor: middle; font: 24px Arial;" font-size="24px" transform="matrix(1,0,0,1,351.4269,275.2654)">
      <tspan dy="8.49425301771494" style="-webkit-tap-highlight-color: rgba(0, 0, 0, 0);">P</tspan>
    </text>
    <path fill="none" stroke="#000000" d="M-77.78335242,-38.61784061L-93.53943138,0" stroke-width="1.6" stroke-linecap="round" stroke-linejoin="round" style="-webkit-tap-highlight-color: rgba(0, 0, 0, 0); stroke-linecap: round; stroke-linejoin: round;" transform="matrix(1,0,0,1,351.4269,275.2654)"></path>
    <path fill="none" stroke="#000000" d="M-77.78335242,-38.61784061L-44.34264292,-19.30892031" stroke-width="1.6" stroke-linecap="round" stroke-linejoin="round" style="-webkit-tap-highlight-color: rgba(0, 0, 0, 0); stroke-linecap: round; stroke-linejoin: round;" transform="matrix(1,0,0,1,351.4269,275.2654)"></path>
    <path fill="#000000" stroke="#000000" d="M-44.34264292,-19.30892031L-11.10705404,-51.65740604L-18.25679364,-57.65676724Z" stroke-width="1.6" stroke-linecap="round" stroke-linejoin="round" style="-webkit-tap-highlight-color: rgba(0, 0, 0, 0); stroke-linecap: round; stroke-linejoin: round;" transform="matrix(1,0,0,1,351.4269,275.2654)"></path>
    <path fill="none" stroke="#000000" d="M6.575,-66.64269052L33.99306164,-66.64269052" stroke-width="1.6" stroke-linecap="round" stroke-linejoin="round" style="-webkit-tap-highlight-color: rgba(0, 0, 0, 0); stroke-linecap: round; stroke-linejoin: round;" transform="matrix(1,0,0,1,351.4269,275.2654)"></path>
    <path fill="none" stroke="#000000" d="M41.69112169,-66.64245723L57.15079259,-93.41673334M33.99306164,-66.64269052L53.30198194,-100.08340001" stroke-width="1.6" stroke-linecap="round" stroke-linejoin="round" style="-webkit-tap-highlight-color: rgba(0, 0, 0, 0); stroke-linecap: round; stroke-linejoin: round;" transform="matrix(1,0,0,1,351.4269,275.2654)"></path>
    <path fill="none" stroke="#000000" d="M53.30198194,-100.08340001L91.91982255,-100.08340001" stroke-width="1.6" stroke-linecap="round" stroke-linejoin="round" style="-webkit-tap-highlight-color: rgba(0, 0, 0, 0); stroke-linecap: round; stroke-linejoin: round;" transform="matrix(1,0,0,1,351.4269,275.2654)"></path>
    <path fill="none" stroke="#000000" d="M88.0710119,-93.41673334L103.53068281,-66.64245723M91.91982255,-100.08340001L111.22874286,-66.64269052" stroke-width="1.6" stroke-linecap="round" stroke-linejoin="round" style="-webkit-tap-highlight-color: rgba(0, 0, 0, 0); stroke-linecap: round; stroke-linejoin: round;" transform="matrix(1,0,0,1,351.4269,275.2654)"></path>
    <path fill="none" stroke="#000000" d="M111.22874286,-66.64269052L91.91982255,-33.19730007" stroke-width="1.6" stroke-linecap="round" stroke-linejoin="round" style="-webkit-tap-highlight-color: rgba(0, 0, 0, 0); stroke-linecap: round; stroke-linejoin: round;" transform="matrix(1,0,0,1,351.4269,275.2654)"></path>
    <path fill="none" stroke="#000000" d="M88.07074253,-39.86396674L57.15106196,-39.86396674M91.91982255,-33.19730007L53.30198194,-33.19730007" stroke-width="1.6" stroke-linecap="round" stroke-linejoin="round" style="-webkit-tap-highlight-color: rgba(0, 0, 0, 0); stroke-linecap: round; stroke-linejoin: round;" transform="matrix(1,0,0,1,351.4269,275.2654)"></path>
    <path fill="none" stroke="#000000" d="M33.99306164,-66.64269052L53.30198194,-33.19730007" stroke-width="1.6" stroke-linecap="round" stroke-linejoin="round" style="-webkit-tap-highlight-color: rgba(0, 0, 0, 0); stroke-linecap: round; stroke-linejoin: round;" transform="matrix(1,0,0,1,351.4269,275.2654)"></path>
    <path fill="none" stroke="#000000" d="M-12.27011077,-83.04089643L-20.94257199,-101.64215649" stroke-width="1.6" stroke-linecap="round" stroke-linejoin="round" style="-webkit-tap-highlight-color: rgba(0, 0, 0, 0); stroke-linecap: round; stroke-linejoin: round;" transform="matrix(1,0,0,1,351.4269,275.2654)"></path>
    <path fill="none" stroke="#000000" d="M-24.19591134,-108.61888671L-55.00012852,-111.31364667M-20.94257199,-101.64215649L-59.41530314,-105.00775981" stroke-width="1.6" stroke-linecap="round" stroke-linejoin="round" style="-webkit-tap-highlight-color: rgba(0, 0, 0, 0); stroke-linecap: round; stroke-linejoin: round;" transform="matrix(1,0,0,1,351.4269,275.2654)"></path>
    <path fill="none" stroke="#000000" d="M-59.41530314,-105.00775981L-75.7377771,-140.00722578" stroke-width="1.6" stroke-linecap="round" stroke-linejoin="round" style="-webkit-tap-highlight-color: rgba(0, 0, 0, 0); stroke-linecap: round; stroke-linejoin: round;" transform="matrix(1,0,0,1,351.4269,275.2654)"></path>
    <path fill="none" stroke="#000000" d="M-68.06895025,-139.33646861L-50.33418056,-164.6643582M-75.7377771,-140.00722578L-53.58751992,-171.64108842" stroke-width="1.6" stroke-linecap="round" stroke-linejoin="round" style="-webkit-tap-highlight-color: rgba(0, 0, 0, 0); stroke-linecap: round; stroke-linejoin: round;" transform="matrix(1,0,0,1,351.4269,275.2654)"></path>
    <path fill="none" stroke="#000000" d="M-53.58751992,-171.64108842L-15.11478877,-168.2754851" stroke-width="1.6" stroke-linecap="round" stroke-linejoin="round" style="-webkit-tap-highlight-color: rgba(0, 0, 0, 0); stroke-linecap: round; stroke-linejoin: round;" transform="matrix(1,0,0,1,351.4269,275.2654)"></path>
    <path fill="none" stroke="#000000" d="M-19.52996338,-161.96959824L-6.46114165,-133.9467763M-15.11478877,-168.2754851L1.2076852,-133.27601913" stroke-width="1.6" stroke-linecap="round" stroke-linejoin="round" style="-webkit-tap-highlight-color: rgba(0, 0, 0, 0); stroke-linecap: round; stroke-linejoin: round;" transform="matrix(1,0,0,1,351.4269,275.2654)"></path>
    <path fill="none" stroke="#000000" d="M-20.94257199,-101.64215649L1.2076852,-133.27601913" stroke-width="1.6" stroke-linecap="round" stroke-linejoin="round" style="-webkit-tap-highlight-color: rgba(0, 0, 0, 0); stroke-linecap: round; stroke-linejoin: round;" transform="matrix(1,0,0,1,351.4269,275.2654)"></path>
    <path fill="none" stroke="#000000" d="M-44.34264292,-19.30892031L-44.34264292,19.30892031" stroke-width="1.6" stroke-linecap="round" stroke-linejoin="round" style="-webkit-tap-highlight-color: rgba(0, 0, 0, 0); stroke-linecap: round; stroke-linejoin: round;" transform="matrix(1,0,0,1,351.4269,275.2654)"></path>
    <path fill="none" stroke="#000000" d="M-44.47504551,19.42001959L-44.21024034,19.19782102M-42.44836784,22.37309315L-41.65395233,21.70649746M-40.42169018,25.32616672L-39.09766433,24.2151739M-38.39501252,28.27924029L-36.54137633,26.72385034M-36.36833486,31.23231385L-33.98508833,29.23252678M-34.3416572,34.18538742L-31.42880032,31.74120322M-32.31497953,37.13846098L-28.87251232,34.24987966M-30.28830187,40.09153455L-26.31622432,36.7585561M-28.26162421,43.04460812L-23.75993632,39.26723254M-26.23494655,45.99768168L-21.20364831,41.77590898M-24.20826888,48.95075525L-18.64736031,44.28458542M-22.18159122,51.90382881L-16.09107231,46.79326186M-20.15491356,54.85690238L-13.53478431,49.3019383M-18.1282359,57.80997595L-10.9784963,51.81061474" stroke-width="1.6" stroke-linecap="round" stroke-linejoin="round" style="-webkit-tap-highlight-color: rgba(0, 0, 0, 0); stroke-linecap: round; stroke-linejoin: round;" transform="matrix(1,0,0,1,351.4269,275.2654)"></path>
    <path fill="none" stroke="#000000" d="M-12.27011077,83.04089643L-20.94257199,101.64215649" stroke-width="1.6" stroke-linecap="round" stroke-linejoin="round" style="-webkit-tap-highlight-color: rgba(0, 0, 0, 0); stroke-linecap: round; stroke-linejoin: round;" transform="matrix(1,0,0,1,351.4269,275.2654)"></path>
    <path fill="none" stroke="#000000" d="M-24.19591134,108.61888671L-6.46114165,133.9467763M-20.94257199,101.64215649L1.2076852,133.27601913" stroke-width="1.6" stroke-linecap="round" stroke-linejoin="round" style="-webkit-tap-highlight-color: rgba(0, 0, 0, 0); stroke-linecap: round; stroke-linejoin: round;" transform="matrix(1,0,0,1,351.4269,275.2654)"></path>
    <path fill="none" stroke="#000000" d="M1.2076852,133.27601913L-15.11478877,168.2754851" stroke-width="1.6" stroke-linecap="round" stroke-linejoin="round" style="-webkit-tap-highlight-color: rgba(0, 0, 0, 0); stroke-linecap: round; stroke-linejoin: round;" transform="matrix(1,0,0,1,351.4269,275.2654)"></path>
    <path fill="none" stroke="#000000" d="M-19.52996338,161.96959824L-50.33418056,164.6643582M-15.11478877,168.2754851L-53.58751992,171.64108842" stroke-width="1.6" stroke-linecap="round" stroke-linejoin="round" style="-webkit-tap-highlight-color: rgba(0, 0, 0, 0); stroke-linecap: round; stroke-linejoin: round;" transform="matrix(1,0,0,1,351.4269,275.2654)"></path>
    <path fill="none" stroke="#000000" d="M-53.58751992,171.64108842L-75.7377771,140.00722578" stroke-width="1.6" stroke-linecap="round" stroke-linejoin="round" style="-webkit-tap-highlight-color: rgba(0, 0, 0, 0); stroke-linecap: round; stroke-linejoin: round;" transform="matrix(1,0,0,1,351.4269,275.2654)"></path>
    <path fill="none" stroke="#000000" d="M-68.06895025,139.33646861L-55.00012852,111.31364667M-75.7377771,140.00722578L-59.41530314,105.00775981" stroke-width="1.6" stroke-linecap="round" stroke-linejoin="round" style="-webkit-tap-highlight-color: rgba(0, 0, 0, 0); stroke-linecap: round; stroke-linejoin: round;" transform="matrix(1,0,0,1,351.4269,275.2654)"></path>
    <path fill="none" stroke="#000000" d="M-20.94257199,101.64215649L-59.41530314,105.00775981" stroke-width="1.6" stroke-linecap="round" stroke-linejoin="round" style="-webkit-tap-highlight-color: rgba(0, 0, 0, 0); stroke-linecap: round; stroke-linejoin: round;" transform="matrix(1,0,0,1,351.4269,275.2654)"></path>
    <path fill="none" stroke="#000000" d="M6.575,66.64269052L33.99306164,66.64269052" stroke-width="1.6" stroke-linecap="round" stroke-linejoin="round" style="-webkit-tap-highlight-color: rgba(0, 0, 0, 0); stroke-linecap: round; stroke-linejoin: round;" transform="matrix(1,0,0,1,351.4269,275.2654)"></path>
    <path fill="none" stroke="#000000" d="M41.69112169,66.64245723L57.15106196,39.86396674M33.99306164,66.64269052L53.30198194,33.19730007" stroke-width="1.6" stroke-linecap="round" stroke-linejoin="round" style="-webkit-tap-highlight-color: rgba(0, 0, 0, 0); stroke-linecap: round; stroke-linejoin: round;" transform="matrix(1,0,0,1,351.4269,275.2654)"></path>
    <path fill="none" stroke="#000000" d="M53.30198194,33.19730007L91.91982255,33.19730007" stroke-width="1.6" stroke-linecap="round" stroke-linejoin="round" style="-webkit-tap-highlight-color: rgba(0, 0, 0, 0); stroke-linecap: round; stroke-linejoin: round;" transform="matrix(1,0,0,1,351.4269,275.2654)"></path>
    <path fill="none" stroke="#000000" d="M88.07074253,39.86396674L103.53068281,66.64245723M91.91982255,33.19730007L111.22874286,66.64269052" stroke-width="1.6" stroke-linecap="round" stroke-linejoin="round" style="-webkit-tap-highlight-color: rgba(0, 0, 0, 0); stroke-linecap: round; stroke-linejoin: round;" transform="matrix(1,0,0,1,351.4269,275.2654)"></path>
    <path fill="none" stroke="#000000" d="M111.22874286,66.64269052L91.91982255,100.08340001" stroke-width="1.6" stroke-linecap="round" stroke-linejoin="round" style="-webkit-tap-highlight-color: rgba(0, 0, 0, 0); stroke-linecap: round; stroke-linejoin: round;" transform="matrix(1,0,0,1,351.4269,275.2654)"></path>
    <path fill="none" stroke="#000000" d="M88.0710119,93.41673334L57.15079259,93.41673334M91.91982255,100.08340001L53.30198194,100.08340001" stroke-width="1.6" stroke-linecap="round" stroke-linejoin="round" style="-webkit-tap-highlight-color: rgba(0, 0, 0, 0); stroke-linecap: round; stroke-linejoin: round;" transform="matrix(1,0,0,1,351.4269,275.2654)"></path>
    <path fill="none" stroke="#000000" d="M33.99306164,66.64269052L53.30198194,100.08340001" stroke-width="1.6" stroke-linecap="round" stroke-linejoin="round" style="-webkit-tap-highlight-color: rgba(0, 0, 0, 0); stroke-linecap: round; stroke-linejoin: round;" transform="matrix(1,0,0,1,351.4269,275.2654)"></path>
    <path fill="none" stroke="#000000" d="M-44.34264292,19.30892031L-77.78335242,38.61784061" stroke-width="1.6" stroke-linecap="round" stroke-linejoin="round" style="-webkit-tap-highlight-color: rgba(0, 0, 0, 0); stroke-linecap: round; stroke-linejoin: round;" transform="matrix(1,0,0,1,351.4269,275.2654)"></path>
    <path fill="none" stroke="#000000" d="M-93.53943138,0L-77.78335242,38.61784061" stroke-width="1.6" stroke-linecap="round" stroke-linejoin="round" style="-webkit-tap-highlight-color: rgba(0, 0, 0, 0); stroke-linecap: round; stroke-linejoin: round;" transform="matrix(1,0,0,1,351.4269,275.2654)"></path>
    <path fill="none" stroke="#000000" d="M-77.78335242,38.61784061L-111.22874286,19.30892031" stroke-width="1.6" stroke-linecap="round" stroke-linejoin="round" style="-webkit-tap-highlight-color: rgba(0, 0, 0, 0); stroke-linecap: round; stroke-linejoin: round;" transform="matrix(1,0,0,1,351.4269,275.2654)"></path>
    <path fill="none" stroke="#000000" d="M-104.56207619,15.45984029L-104.56207619,-15.45984029M-111.22874286,19.30892031L-111.22874286,-19.30892031" stroke-width="1.6" stroke-linecap="round" stroke-linejoin="round" style="-webkit-tap-highlight-color: rgba(0, 0, 0, 0); stroke-linecap: round; stroke-linejoin: round;" transform="matrix(1,0,0,1,351.4269,275.2654)"></path>
    <path fill="none" stroke="#000000" d="M-77.78335242,-38.61784061L-111.22874286,-19.30892031" stroke-width="1.6" stroke-linecap="round" stroke-linejoin="round" style="-webkit-tap-highlight-color: rgba(0, 0, 0, 0); stroke-linecap: round; stroke-linejoin: round;" transform="matrix(1,0,0,1,351.4269,275.2654)"></path>
    <text x="95.048" y="-186.67200000000003" text-anchor="middle"  stroke="none" fill="#000000" style="-webkit-tap-highlight-color: rgba(0, 0, 0, 0); text-anchor: middle; font: 24px Arial;" font-size="24px" transform="matrix(1,0,0,1,351.4269,275.2654)">
      <tspan dy="8.507687499999975" style="-webkit-tap-highlight-color: rgba(0, 0, 0, 0);">Chiral</tspan>
    </text>
  </g>
<svg font-family="sans-serif">
  <text text-anchor="middle" font-size="20.1" y="388.0" x="203">0%</text>
</svg>
</g> </g></g> </svg></svg>