<svg version="1.1" xmlns="http://www.w3.org/2000/svg" xmlns:xlink="http://www.w3.org/1999/xlink" xmlns:cml="http://www.xml-cml.org/schema"
  width="1560" height="440" >
  <rect  width="1560" height="440" stroke-width="1" stroke="white" fill="none"/>
  <svg width="100%"  viewBox="0 0 1151 372.5" >
  <title>Reaction 1</title> <g transform='translate(50, 0)'><g transform='scale(1)'> <g transform='translate(10, 117)'> 
  <g transform="translate(-182, -205)">
    <defs style="-webkit-tap-highlight-color: rgba(0, 0, 0, 0);"></defs>
    <text x="-62.68058751293087" y="-39.999601406379924" text-anchor="middle"  stroke="none" fill="#000000" style="-webkit-tap-highlight-color: rgba(0, 0, 0, 0); text-anchor: middle; font: 24px Arial;" font-size="24px" transform="matrix(1,0,0,1,359,263.0523)">
      <tspan dy="8.492586093620076" style="-webkit-tap-highlight-color: rgba(0, 0, 0, 0);">I</tspan>
    </text>
    <text x="-62.68058751293087" y="-39.999601406379924" text-anchor="middle"  stroke="none" fill="#000000" style="-webkit-tap-highlight-color: rgba(0, 0, 0, 0); text-anchor: middle; font: 24px Arial;" font-size="24px" transform="matrix(1,0,0,1,371.8156,263.0523)">
      <tspan dy="8.492586093620076" style="-webkit-tap-highlight-color: rgba(0, 0, 0, 0);">H</tspan>
    </text>
    <text x="-62.68058751293087" y="-39.999601406379924" text-anchor="middle"  stroke="none" fill="#000000" style="-webkit-tap-highlight-color: rgba(0, 0, 0, 0); text-anchor: middle; font: 17px Arial;" font-size="17px" transform="matrix(1,0,0,1,386.3031,254.9477)">
      <tspan dy="5.492586093620076" style="-webkit-tap-highlight-color: rgba(0, 0, 0, 0);">+</tspan>
    </text>
    <text x="-97.31781811258884" y="19.999800703189962" text-anchor="middle"  stroke="none" fill="#000000" style="-webkit-tap-highlight-color: rgba(0, 0, 0, 0); text-anchor: middle; font: 24px Arial;" font-size="24px" transform="matrix(1,0,0,1,359,263.0523)">
      <tspan dy="8.507613203189962" style="-webkit-tap-highlight-color: rgba(0, 0, 0, 0);">N</tspan>
    </text>
    <text x="-22.680986106550947" y="0" text-anchor="middle"  stroke="none" fill="#000000" style="-webkit-tap-highlight-color: rgba(0, 0, 0, 0); text-anchor: middle; font: 24px Arial;" font-size="24px" transform="matrix(1,0,0,1,359,263.0523)">
      <tspan dy="8.5" style="-webkit-tap-highlight-color: rgba(0, 0, 0, 0);">F</tspan>
    </text>
    <text x="17.318615299828984" y="0" text-anchor="middle"  stroke="none" fill="#000000" style="-webkit-tap-highlight-color: rgba(0, 0, 0, 0); text-anchor: middle; font: 24px Arial;" font-size="24px" transform="matrix(1,0,0,1,359,263.0523)">
      <tspan dy="8.5" style="-webkit-tap-highlight-color: rgba(0, 0, 0, 0);">B</tspan>
    </text>
    <text x="17.318615299828984" y="0" text-anchor="middle"  stroke="none" fill="#000000" style="-webkit-tap-highlight-color: rgba(0, 0, 0, 0); text-anchor: middle; font: 17px Arial;" font-size="17px" transform="matrix(1,0,0,1,372.8156,254.9523)">
      <tspan dy="5.5" style="-webkit-tap-highlight-color: rgba(0, 0, 0, 0);">&#x2013;</tspan>
    </text>
    <text x="17.318615299828984" y="39.999601406379924" text-anchor="middle"  stroke="none" fill="#000000" style="-webkit-tap-highlight-color: rgba(0, 0, 0, 0); text-anchor: middle; font: 24px Arial;" font-size="24px" transform="matrix(1,0,0,1,359,263.0523)">
      <tspan dy="8.507413906379924" style="-webkit-tap-highlight-color: rgba(0, 0, 0, 0);">F</tspan>
    </text>
    <text x="57.3182167062089" y="0" text-anchor="middle"  stroke="none" fill="#000000" style="-webkit-tap-highlight-color: rgba(0, 0, 0, 0); text-anchor: middle; font: 24px Arial;" font-size="24px" transform="matrix(1,0,0,1,359,263.0523)">
      <tspan dy="8.5" style="-webkit-tap-highlight-color: rgba(0, 0, 0, 0);">F</tspan>
    </text>
    <text x="17.318615299828984" y="-39.999601406379924" text-anchor="middle"  stroke="none" fill="#000000" style="-webkit-tap-highlight-color: rgba(0, 0, 0, 0); text-anchor: middle; font: 24px Arial;" font-size="24px" transform="matrix(1,0,0,1,359,263.0523)">
      <tspan dy="8.492586093620076" style="-webkit-tap-highlight-color: rgba(0, 0, 0, 0);">F</tspan>
    </text>
    <text x="131.9598971487809" y="39.999601406379924" text-anchor="middle"  stroke="none" fill="#000000" style="-webkit-tap-highlight-color: rgba(0, 0, 0, 0); text-anchor: middle; font: 24px Arial;" font-size="24px" transform="matrix(1,0,0,1,359,263.0523)">
      <tspan dy="8.507413906379924" style="-webkit-tap-highlight-color: rgba(0, 0, 0, 0);">N</tspan>
    </text>
    <path fill="none" stroke="#000000" d="M-68.78683748,-36.47380618L-97.31781811,-19.9998007" stroke-width="1.6" stroke-linecap="round" stroke-linejoin="round" transform="matrix(1,0,0,1,359,263.0523)" style="-webkit-tap-highlight-color: rgba(0, 0, 0, 0); stroke-linecap: round; stroke-linejoin: round;"></path>
    <path fill="none" stroke="#000000" d="M-103.98448478,-16.15072068L-103.98448478,3.3M-97.31781811,-19.9998007L-97.31781811,3.3" stroke-width="1.6" stroke-linecap="round" stroke-linejoin="round" transform="matrix(1,0,0,1,359,263.0523)" style="-webkit-tap-highlight-color: rgba(0, 0, 0, 0); stroke-linecap: round; stroke-linejoin: round;"></path>
    <path fill="none" stroke="#000000" d="M-108.75568445,26.6031875L-131.95989715,39.99960141" stroke-width="1.6" stroke-linecap="round" stroke-linejoin="round" transform="matrix(1,0,0,1,359,263.0523)" style="-webkit-tap-highlight-color: rgba(0, 0, 0, 0); stroke-linecap: round; stroke-linejoin: round;"></path>
    <path fill="none" stroke="#000000" d="M-131.95989715,32.30167604L-159.93530952,16.15072068M-131.95989715,39.99960141L-166.60197618,19.9998007" stroke-width="1.6" stroke-linecap="round" stroke-linejoin="round" transform="matrix(1,0,0,1,359,263.0523)" style="-webkit-tap-highlight-color: rgba(0, 0, 0, 0); stroke-linecap: round; stroke-linejoin: round;"></path>
    <path fill="none" stroke="#000000" d="M-166.60197618,19.9998007L-166.60197618,-19.9998007" stroke-width="1.6" stroke-linecap="round" stroke-linejoin="round" transform="matrix(1,0,0,1,359,263.0523)" style="-webkit-tap-highlight-color: rgba(0, 0, 0, 0); stroke-linecap: round; stroke-linejoin: round;"></path>
    <path fill="none" stroke="#000000" d="M-159.93530952,-16.15072068L-131.95989715,-32.30167604M-166.60197618,-19.9998007L-131.95989715,-39.99960141" stroke-width="1.6" stroke-linecap="round" stroke-linejoin="round" transform="matrix(1,0,0,1,359,263.0523)" style="-webkit-tap-highlight-color: rgba(0, 0, 0, 0); stroke-linecap: round; stroke-linejoin: round;"></path>
    <path fill="none" stroke="#000000" d="M-97.31781811,-19.9998007L-131.95989715,-39.99960141" stroke-width="1.6" stroke-linecap="round" stroke-linejoin="round" transform="matrix(1,0,0,1,359,263.0523)" style="-webkit-tap-highlight-color: rgba(0, 0, 0, 0); stroke-linecap: round; stroke-linejoin: round;"></path>
    <path fill="none" stroke="#000000" d="M-12.14375,0L6.1125,0" stroke-width="1.6" stroke-linecap="round" stroke-linejoin="round" transform="matrix(1,0,0,1,359,263.0523)" style="-webkit-tap-highlight-color: rgba(0, 0, 0, 0); stroke-linecap: round; stroke-linejoin: round;"></path>
    <path fill="none" stroke="#000000" d="M17.3186153,16.7L17.3186153,23.3" stroke-width="1.6" stroke-linecap="round" stroke-linejoin="round" transform="matrix(1,0,0,1,359,263.0523)" style="-webkit-tap-highlight-color: rgba(0, 0, 0, 0); stroke-linecap: round; stroke-linejoin: round;"></path>
    <path fill="none" stroke="#000000" d="M39.609375,0L46.784375,0" stroke-width="1.6" stroke-linecap="round" stroke-linejoin="round" transform="matrix(1,0,0,1,359,263.0523)" style="-webkit-tap-highlight-color: rgba(0, 0, 0, 0); stroke-linecap: round; stroke-linejoin: round;"></path>
    <path fill="none" stroke="#000000" d="M17.3186153,-16.7L17.3186153,-23.3" stroke-width="1.6" stroke-linecap="round" stroke-linejoin="round" transform="matrix(1,0,0,1,359,263.0523)" style="-webkit-tap-highlight-color: rgba(0, 0, 0, 0); stroke-linecap: round; stroke-linejoin: round;"></path>
    <path fill="none" stroke="#000000" d="M159.93530952,16.15072068L140.07870274,27.61447197M166.60197618,19.9998007L143.41193445,33.38803333" stroke-width="1.6" stroke-linecap="round" stroke-linejoin="round" transform="matrix(1,0,0,1,359,263.0523)" style="-webkit-tap-highlight-color: rgba(0, 0, 0, 0); stroke-linecap: round; stroke-linejoin: round;"></path>
    <path fill="none" stroke="#000000" d="M120.50994055,33.38923458L97.31781811,19.9998007" stroke-width="1.6" stroke-linecap="round" stroke-linejoin="round" transform="matrix(1,0,0,1,359,263.0523)" style="-webkit-tap-highlight-color: rgba(0, 0, 0, 0); stroke-linecap: round; stroke-linejoin: round;"></path>
    <path fill="none" stroke="#000000" d="M103.98448478,16.15072068L103.98448478,-16.15072068M97.31781811,19.9998007L97.31781811,-19.9998007" stroke-width="1.6" stroke-linecap="round" stroke-linejoin="round" transform="matrix(1,0,0,1,359,263.0523)" style="-webkit-tap-highlight-color: rgba(0, 0, 0, 0); stroke-linecap: round; stroke-linejoin: round;"></path>
    <path fill="none" stroke="#000000" d="M97.31781811,-19.9998007L131.95989715,-39.99960141" stroke-width="1.6" stroke-linecap="round" stroke-linejoin="round" transform="matrix(1,0,0,1,359,263.0523)" style="-webkit-tap-highlight-color: rgba(0, 0, 0, 0); stroke-linecap: round; stroke-linejoin: round;"></path>
    <path fill="none" stroke="#000000" d="M131.95989715,-32.30167604L159.93530952,-16.15072068M131.95989715,-39.99960141L166.60197618,-19.9998007" stroke-width="1.6" stroke-linecap="round" stroke-linejoin="round" transform="matrix(1,0,0,1,359,263.0523)" style="-webkit-tap-highlight-color: rgba(0, 0, 0, 0); stroke-linecap: round; stroke-linejoin: round;"></path>
    <path fill="none" stroke="#000000" d="M166.60197618,19.9998007L166.60197618,-19.9998007" stroke-width="1.6" stroke-linecap="round" stroke-linejoin="round" transform="matrix(1,0,0,1,359,263.0523)" style="-webkit-tap-highlight-color: rgba(0, 0, 0, 0); stroke-linecap: round; stroke-linejoin: round;"></path>
  </g>
</g> </g></g><g transform='translate(493, 0)'><g transform='scale(0.75)'> <g transform='translate(10, 119)'> 
  <g transform="translate(-187, -210)">
    <defs style="-webkit-tap-highlight-color: rgba(0, 0, 0, 0);"></defs>
    <text x="-146.6022786529952" y="39.99962955608064" text-anchor="middle"  stroke="none" fill="#000000" style="-webkit-tap-highlight-color: rgba(0, 0, 0, 0); text-anchor: middle; font: 24px Arial;" font-size="24px" transform="matrix(1,0,0,1,371.8937,260.2984)">
      <tspan dy="8.507442056080642" style="-webkit-tap-highlight-color: rgba(0, 0, 0, 0);">C</tspan>
    </text>
    <text x="-146.6022786529952" y="39.99962955608064" text-anchor="middle"  stroke="none" fill="#000000" style="-webkit-tap-highlight-color: rgba(0, 0, 0, 0); text-anchor: middle; font: 24px Arial;" font-size="24px" transform="matrix(1,0,0,1,343.45,260.2984)">
      <tspan dy="8.507442056080642" style="-webkit-tap-highlight-color: rgba(0, 0, 0, 0);">H</tspan>
    </text>
    <text x="-146.6022786529952" y="39.99962955608064" text-anchor="middle"  stroke="none" fill="#000000" style="-webkit-tap-highlight-color: rgba(0, 0, 0, 0); text-anchor: middle; font: 17px Arial;" font-size="17px" transform="matrix(1,0,0,1,357.6719,265.7016)">
      <tspan dy="5.507442056080642" style="-webkit-tap-highlight-color: rgba(0, 0, 0, 0);">3</tspan>
    </text>
    <text x="-111.96017523745627" y="19.99981477804032" text-anchor="middle"  stroke="none" fill="#000000" style="-webkit-tap-highlight-color: rgba(0, 0, 0, 0); text-anchor: middle; font: 24px Arial;" font-size="24px" transform="matrix(1,0,0,1,371.8937,260.2984)">
      <tspan dy="8.50762727804032" style="-webkit-tap-highlight-color: rgba(0, 0, 0, 0);">N</tspan>
    </text>
    <text x="-111.96017523745627" y="19.99981477804032" text-anchor="middle"  stroke="none" fill="#000000" style="-webkit-tap-highlight-color: rgba(0, 0, 0, 0); text-anchor: middle; font: 17px Arial;" font-size="17px" transform="matrix(1,0,0,1,386.3813,252.1938)">
      <tspan dy="5.507627278040321" style="-webkit-tap-highlight-color: rgba(0, 0, 0, 0);">+</tspan>
    </text>
    <text x="-111.96017523745627" y="-19.99981477804032" text-anchor="middle"  stroke="none" fill="#000000" style="-webkit-tap-highlight-color: rgba(0, 0, 0, 0); text-anchor: middle; font: 24px Arial;" font-size="24px" transform="matrix(1,0,0,1,371.8937,260.2984)">
      <tspan dy="8.49237272195968" style="-webkit-tap-highlight-color: rgba(0, 0, 0, 0);">C</tspan>
    </text>
    <text x="-111.96017523745627" y="-19.99981477804032" text-anchor="middle"  stroke="none" fill="#000000" style="-webkit-tap-highlight-color: rgba(0, 0, 0, 0); text-anchor: middle; font: 24px Arial;" font-size="24px" transform="matrix(1,0,0,1,390.0531,260.2984)">
      <tspan dy="8.49237272195968" style="-webkit-tap-highlight-color: rgba(0, 0, 0, 0);">H</tspan>
    </text>
    <text x="-111.96017523745627" y="-19.99981477804032" text-anchor="middle"  stroke="none" fill="#000000" style="-webkit-tap-highlight-color: rgba(0, 0, 0, 0); text-anchor: middle; font: 17px Arial;" font-size="17px" transform="matrix(1,0,0,1,404.2672,265.7016)">
      <tspan dy="5.492372721959679" style="-webkit-tap-highlight-color: rgba(0, 0, 0, 0);">3</tspan>
    </text>
    <text x="-146.6022786529952" y="0" text-anchor="middle"  stroke="none" fill="#000000" style="-webkit-tap-highlight-color: rgba(0, 0, 0, 0); text-anchor: middle; font: 24px Arial;" font-size="24px" transform="matrix(1,0,0,1,371.8937,260.2984)">
      <tspan dy="8.5" style="-webkit-tap-highlight-color: rgba(0, 0, 0, 0);">C</tspan>
    </text>
    <text x="-146.6022786529952" y="0" text-anchor="middle"  stroke="none" fill="#000000" style="-webkit-tap-highlight-color: rgba(0, 0, 0, 0); text-anchor: middle; font: 24px Arial;" font-size="24px" transform="matrix(1,0,0,1,343.45,260.2984)">
      <tspan dy="8.5" style="-webkit-tap-highlight-color: rgba(0, 0, 0, 0);">H</tspan>
    </text>
    <text x="-146.6022786529952" y="0" text-anchor="middle"  stroke="none" fill="#000000" style="-webkit-tap-highlight-color: rgba(0, 0, 0, 0); text-anchor: middle; font: 17px Arial;" font-size="17px" transform="matrix(1,0,0,1,357.6719,265.6984)">
      <tspan dy="5.5" style="-webkit-tap-highlight-color: rgba(0, 0, 0, 0);">3</tspan>
    </text>
    <text x="66.60301954083391" y="0" text-anchor="middle"  stroke="none" fill="#000000" style="-webkit-tap-highlight-color: rgba(0, 0, 0, 0); text-anchor: middle; font: 24px Arial;" font-size="24px" transform="matrix(1,0,0,1,371.8937,260.2984)">
      <tspan dy="8.5" style="-webkit-tap-highlight-color: rgba(0, 0, 0, 0);">Cl</tspan>
    </text>
    <text x="106.60264909691458" y="0" text-anchor="middle"  stroke="none" fill="#000000" style="-webkit-tap-highlight-color: rgba(0, 0, 0, 0); text-anchor: middle; font: 24px Arial;" font-size="24px" transform="matrix(1,0,0,1,371.8937,260.2984)">
      <tspan dy="8.5" style="-webkit-tap-highlight-color: rgba(0, 0, 0, 0);">I</tspan>
    </text>
    <text x="106.60264909691458" y="0" text-anchor="middle"  stroke="none" fill="#000000" style="-webkit-tap-highlight-color: rgba(0, 0, 0, 0); text-anchor: middle; font: 17px Arial;" font-size="17px" transform="matrix(1,0,0,1,381.0375,252.1984)">
      <tspan dy="5.5" style="-webkit-tap-highlight-color: rgba(0, 0, 0, 0);">&#x2013;</tspan>
    </text>
    <text x="106.60264909691458" y="39.99962955608064" text-anchor="middle"  stroke="none" fill="#000000" style="-webkit-tap-highlight-color: rgba(0, 0, 0, 0); text-anchor: middle; font: 24px Arial;" font-size="24px" transform="matrix(1,0,0,1,371.8937,260.2984)">
      <tspan dy="8.507442056080642" style="-webkit-tap-highlight-color: rgba(0, 0, 0, 0);">Cl</tspan>
    </text>
    <text x="146.6022786529952" y="0" text-anchor="middle"  stroke="none" fill="#000000" style="-webkit-tap-highlight-color: rgba(0, 0, 0, 0); text-anchor: middle; font: 24px Arial;" font-size="24px" transform="matrix(1,0,0,1,371.8937,260.2984)">
      <tspan dy="8.5" style="-webkit-tap-highlight-color: rgba(0, 0, 0, 0);">Cl</tspan>
    </text>
    <text x="106.60264909691458" y="-39.99962955608064" text-anchor="middle"  stroke="none" fill="#000000" style="-webkit-tap-highlight-color: rgba(0, 0, 0, 0); text-anchor: middle; font: 24px Arial;" font-size="24px" transform="matrix(1,0,0,1,371.8937,260.2984)">
      <tspan dy="8.492557943919358" style="-webkit-tap-highlight-color: rgba(0, 0, 0, 0);">Cl</tspan>
    </text>
    <path fill="none" stroke="#000000" d="M-135.15056555,33.38824865L-123.41193445,26.6112223" stroke-width="1.6" stroke-linecap="round" stroke-linejoin="round" transform="matrix(1,0,0,1,371.8937,260.2984)" style="-webkit-tap-highlight-color: rgba(0, 0, 0, 0); stroke-linecap: round; stroke-linejoin: round;"></path>
    <path fill="none" stroke="#000000" d="M-111.96017524,3.3L-111.96017524,-3.3" stroke-width="1.6" stroke-linecap="round" stroke-linejoin="round" transform="matrix(1,0,0,1,371.8937,260.2984)" style="-webkit-tap-highlight-color: rgba(0, 0, 0, 0); stroke-linecap: round; stroke-linejoin: round;"></path>
    <path fill="none" stroke="#000000" d="M-100.50994055,26.61034215L-77.31807182,39.99962956" stroke-width="1.6" stroke-linecap="round" stroke-linejoin="round" transform="matrix(1,0,0,1,371.8937,260.2984)" style="-webkit-tap-highlight-color: rgba(0, 0, 0, 0); stroke-linecap: round; stroke-linejoin: round;"></path>
    <path fill="none" stroke="#000000" d="M-77.31807182,39.99962956L-42.68081685,19.99981478" stroke-width="1.6" stroke-linecap="round" stroke-linejoin="round" transform="matrix(1,0,0,1,371.8937,260.2984)" style="-webkit-tap-highlight-color: rgba(0, 0, 0, 0); stroke-linecap: round; stroke-linejoin: round;"></path>
    <path fill="none" stroke="#000000" d="M-36.01415018,16.15073476L-36.01415018,-16.15073476M-42.68081685,19.99981478L-42.68081685,-19.99981478" stroke-width="1.6" stroke-linecap="round" stroke-linejoin="round" transform="matrix(1,0,0,1,371.8937,260.2984)" style="-webkit-tap-highlight-color: rgba(0, 0, 0, 0); stroke-linecap: round; stroke-linejoin: round;"></path>
    <path fill="none" stroke="#000000" d="M-42.68081685,-19.99981478L-8.03871343,-39.99962956" stroke-width="1.6" stroke-linecap="round" stroke-linejoin="round" transform="matrix(1,0,0,1,371.8937,260.2984)" style="-webkit-tap-highlight-color: rgba(0, 0, 0, 0); stroke-linecap: round; stroke-linejoin: round;"></path>
    <path fill="none" stroke="#000000" d="M-8.03871343,-32.30170419L19.93672332,-16.15073476M-8.03871343,-39.99962956L26.60338998,-19.99981478" stroke-width="1.6" stroke-linecap="round" stroke-linejoin="round" transform="matrix(1,0,0,1,371.8937,260.2984)" style="-webkit-tap-highlight-color: rgba(0, 0, 0, 0); stroke-linecap: round; stroke-linejoin: round;"></path>
    <path fill="none" stroke="#000000" d="M26.60338998,-19.99981478L26.60338998,19.99981478" stroke-width="1.6" stroke-linecap="round" stroke-linejoin="round" transform="matrix(1,0,0,1,371.8937,260.2984)" style="-webkit-tap-highlight-color: rgba(0, 0, 0, 0); stroke-linecap: round; stroke-linejoin: round;"></path>
    <path fill="none" stroke="#000000" d="M19.93672332,16.15073476L-8.03871343,32.30170419M26.60338998,19.99981478L-8.03871343,39.99962956" stroke-width="1.6" stroke-linecap="round" stroke-linejoin="round" transform="matrix(1,0,0,1,371.8937,260.2984)" style="-webkit-tap-highlight-color: rgba(0, 0, 0, 0); stroke-linecap: round; stroke-linejoin: round;"></path>
    <path fill="none" stroke="#000000" d="M-42.68081685,19.99981478L-8.03871343,39.99962956" stroke-width="1.6" stroke-linecap="round" stroke-linejoin="round" transform="matrix(1,0,0,1,371.8937,260.2984)" style="-webkit-tap-highlight-color: rgba(0, 0, 0, 0); stroke-linecap: round; stroke-linejoin: round;"></path>
    <path fill="none" stroke="#000000" d="M-123.41193445,13.38840725L-135.15056555,6.6113809" stroke-width="1.6" stroke-linecap="round" stroke-linejoin="round" transform="matrix(1,0,0,1,371.8937,260.2984)" style="-webkit-tap-highlight-color: rgba(0, 0, 0, 0); stroke-linecap: round; stroke-linejoin: round;"></path>
    <path fill="none" stroke="#000000" d="M81.1375,0L100.065625,0" stroke-width="1.6" stroke-linecap="round" stroke-linejoin="round" transform="matrix(1,0,0,1,371.8937,260.2984)" style="-webkit-tap-highlight-color: rgba(0, 0, 0, 0); stroke-linecap: round; stroke-linejoin: round;"></path>
    <path fill="none" stroke="#000000" d="M106.6026491,16.7L106.6026491,23.3" stroke-width="1.6" stroke-linecap="round" stroke-linejoin="round" transform="matrix(1,0,0,1,371.8937,260.2984)" style="-webkit-tap-highlight-color: rgba(0, 0, 0, 0); stroke-linecap: round; stroke-linejoin: round;"></path>
    <path fill="none" stroke="#000000" d="M124.234375,0L132.065625,0" stroke-width="1.6" stroke-linecap="round" stroke-linejoin="round" transform="matrix(1,0,0,1,371.8937,260.2984)" style="-webkit-tap-highlight-color: rgba(0, 0, 0, 0); stroke-linecap: round; stroke-linejoin: round;"></path>
    <path fill="none" stroke="#000000" d="M106.6026491,-16.7L106.6026491,-23.3" stroke-width="1.6" stroke-linecap="round" stroke-linejoin="round" transform="matrix(1,0,0,1,371.8937,260.2984)" style="-webkit-tap-highlight-color: rgba(0, 0, 0, 0); stroke-linecap: round; stroke-linejoin: round;"></path>
  </g>
</g> </g></g><g transform='translate(463, 186)'> <svg stroke="black" stroke-width="1">
  <line x1="0" y1="4" x2="388" y2="4" stroke="black"/>
  <polygon points="380,4 378,7 388,4 378,1"/>
</svg>
 </g> <g transform='translate(463, 186)'> <svg font-family="sans-serif">
  <text text-anchor="middle" x="194" y="55" font-size="19.1">CU2-Ira</text>
</svg>
 </g> <g transform='translate(463, 186)'> <svg font-family="sans-serif">
  <text text-anchor="middle" x="194" y="30" font-size="21.1">rt °C</text>
</svg>
 </g><g transform='translate(891, 0)'><g transform='scale(1)'> <g transform='translate(10, 112)'> 
  <g transform="translate(-249, -200)">
    <defs style="-webkit-tap-highlight-color: rgba(0, 0, 0, 0);"></defs>
    <text x="-51.65840098497127" y="46.598652389286876" text-anchor="middle"  stroke="none" fill="#000000" style="-webkit-tap-highlight-color: rgba(0, 0, 0, 0); text-anchor: middle; font: 24px Arial;" font-size="24px" transform="matrix(1,0,0,1,372.8547,256.5172)">
      <tspan dy="8.497089889286876" style="-webkit-tap-highlight-color: rgba(0, 0, 0, 0);">C</tspan>
    </text>
    <text x="-51.65840098497127" y="46.598652389286876" text-anchor="middle"  stroke="none" fill="#000000" style="-webkit-tap-highlight-color: rgba(0, 0, 0, 0); text-anchor: middle; font: 24px Arial;" font-size="24px" transform="matrix(1,0,0,1,390.9984,256.5172)">
      <tspan dy="8.497089889286876" style="-webkit-tap-highlight-color: rgba(0, 0, 0, 0);">H</tspan>
    </text>
    <text x="-51.65840098497127" y="46.598652389286876" text-anchor="middle"  stroke="none" fill="#000000" style="-webkit-tap-highlight-color: rgba(0, 0, 0, 0); text-anchor: middle; font: 17px Arial;" font-size="17px" transform="matrix(1,0,0,1,405.2047,261.9203)">
      <tspan dy="5.497089889286876" style="-webkit-tap-highlight-color: rgba(0, 0, 0, 0);">3</tspan>
    </text>
    <text x="-85.95811988076346" y="26.796505371072357" text-anchor="middle"  stroke="none" fill="#000000" style="-webkit-tap-highlight-color: rgba(0, 0, 0, 0); text-anchor: middle; font: 24px Arial;" font-size="24px" transform="matrix(1,0,0,1,372.8547,256.5172)">
      <tspan dy="8.507442871072357" style="-webkit-tap-highlight-color: rgba(0, 0, 0, 0);">C</tspan>
    </text>
    <text x="-85.95811988076346" y="26.796505371072357" text-anchor="middle"  stroke="none" fill="#000000" style="-webkit-tap-highlight-color: rgba(0, 0, 0, 0); text-anchor: middle; font: 24px Arial;" font-size="24px" transform="matrix(1,0,0,1,344.4734,256.5172)">
      <tspan dy="8.507442871072357" style="-webkit-tap-highlight-color: rgba(0, 0, 0, 0);">H</tspan>
    </text>
    <text x="-85.95811988076346" y="26.796505371072357" text-anchor="middle"  stroke="none" fill="#000000" style="-webkit-tap-highlight-color: rgba(0, 0, 0, 0); text-anchor: middle; font: 17px Arial;" font-size="17px" transform="matrix(1,0,0,1,358.6641,261.9203)">
      <tspan dy="5.507442871072357" style="-webkit-tap-highlight-color: rgba(0, 0, 0, 0);">3</tspan>
    </text>
    <text x="28.380677132529513" y="-39.03783261869588" text-anchor="middle"  stroke="none" fill="#000000" style="-webkit-tap-highlight-color: rgba(0, 0, 0, 0); text-anchor: middle; font: 24px Arial;" font-size="24px" transform="matrix(1,0,0,1,372.8547,256.5172)">
      <tspan dy="8.50122988130412" style="-webkit-tap-highlight-color: rgba(0, 0, 0, 0);">N</tspan>
    </text>
    <text x="28.380677132529513" y="-39.03783261869588" text-anchor="middle"  stroke="none" fill="#000000" style="-webkit-tap-highlight-color: rgba(0, 0, 0, 0); text-anchor: middle; font: 24px Arial;" font-size="24px" transform="matrix(1,0,0,1,390.9828,256.5172)">
      <tspan dy="8.50122988130412" style="-webkit-tap-highlight-color: rgba(0, 0, 0, 0);">H</tspan>
    </text>
    <text x="51.65840098497127" y="-6.994358352857832" text-anchor="middle"  stroke="none" fill="#000000" style="-webkit-tap-highlight-color: rgba(0, 0, 0, 0); text-anchor: middle; font: 24px Arial;" font-size="24px" transform="matrix(1,0,0,1,372.8547,256.5172)">
      <tspan dy="8.497829147142168" style="-webkit-tap-highlight-color: rgba(0, 0, 0, 0);">S</tspan>
    </text>
    <text x="85.95811988076346" y="12.80778866535669" text-anchor="middle"  stroke="none" fill="#000000" style="-webkit-tap-highlight-color: rgba(0, 0, 0, 0); text-anchor: middle; font: 24px Arial;" font-size="24px" transform="matrix(1,0,0,1,372.8547,256.5172)">
      <tspan dy="8.50310116535669" style="-webkit-tap-highlight-color: rgba(0, 0, 0, 0);">O</tspan>
    </text>
    <text x="85.95811988076346" y="-26.796505371072357" text-anchor="middle"  stroke="none" fill="#000000" style="-webkit-tap-highlight-color: rgba(0, 0, 0, 0); text-anchor: middle; font: 24px Arial;" font-size="24px" transform="matrix(1,0,0,1,372.8547,256.5172)">
      <tspan dy="8.492557128927643" style="-webkit-tap-highlight-color: rgba(0, 0, 0, 0);">O</tspan>
    </text>
    <path fill="none" stroke="#000000" d="M-51.65840098,29.89375L-51.65840098,6.99435835" stroke-width="1.6" stroke-linecap="round" stroke-linejoin="round" transform="matrix(1,0,0,1,372.8547,256.5172)" style="-webkit-tap-highlight-color: rgba(0, 0, 0, 0); stroke-linecap: round; stroke-linejoin: round;"></path>
    <path fill="none" stroke="#000000" d="M-51.65840098,6.99435835L-74.52556555,20.19618534" stroke-width="1.6" stroke-linecap="round" stroke-linejoin="round" transform="matrix(1,0,0,1,372.8547,256.5172)" style="-webkit-tap-highlight-color: rgba(0, 0, 0, 0); stroke-linecap: round; stroke-linejoin: round;"></path>
    <path fill="none" stroke="#000000" d="M-51.65840098,6.99435835L-9.28420663,12.80778867" stroke-width="1.6" stroke-linecap="round" stroke-linejoin="round" transform="matrix(1,0,0,1,372.8547,256.5172)" style="-webkit-tap-highlight-color: rgba(0, 0, 0, 0); stroke-linecap: round; stroke-linejoin: round;"></path>
    <path fill="none" stroke="#000000" d="M-9.28420663,12.80778867L28.38067713,25.04431539" stroke-width="1.6" stroke-linecap="round" stroke-linejoin="round" transform="matrix(1,0,0,1,372.8547,256.5172)" style="-webkit-tap-highlight-color: rgba(0, 0, 0, 0); stroke-linecap: round; stroke-linejoin: round;"></path>
    <path fill="none" stroke="#000000" d="M-9.28420663,12.80778867L-43.58392552,32.60993568" stroke-width="1.6" stroke-linecap="round" stroke-linejoin="round" transform="matrix(1,0,0,1,372.8547,256.5172)" style="-webkit-tap-highlight-color: rgba(0, 0, 0, 0); stroke-linecap: round; stroke-linejoin: round;"></path>
    <path fill="none" stroke="#000000" d="M-43.58392552,32.60993568L-77.8788439,12.80778867" stroke-width="1.6" stroke-linecap="round" stroke-linejoin="round" transform="matrix(1,0,0,1,372.8547,256.5172)" style="-webkit-tap-highlight-color: rgba(0, 0, 0, 0); stroke-linecap: round; stroke-linejoin: round;"></path>
    <path fill="none" stroke="#000000" d="M-77.8788439,12.80778867L-77.8788439,-26.79650537" stroke-width="1.6" stroke-linecap="round" stroke-linejoin="round" transform="matrix(1,0,0,1,372.8547,256.5172)" style="-webkit-tap-highlight-color: rgba(0, 0, 0, 0); stroke-linecap: round; stroke-linejoin: round;"></path>
    <path fill="none" stroke="#000000" d="M-51.65840098,6.99435835L-77.8788439,-26.79650537" stroke-width="1.6" stroke-linecap="round" stroke-linejoin="round" transform="matrix(1,0,0,1,372.8547,256.5172)" style="-webkit-tap-highlight-color: rgba(0, 0, 0, 0); stroke-linecap: round; stroke-linejoin: round;"></path>
    <path fill="none" stroke="#000000" d="M-77.8788439,-26.79650537L-43.58392552,-46.59865239" stroke-width="1.6" stroke-linecap="round" stroke-linejoin="round" transform="matrix(1,0,0,1,372.8547,256.5172)" style="-webkit-tap-highlight-color: rgba(0, 0, 0, 0); stroke-linecap: round; stroke-linejoin: round;"></path>
    <path fill="none" stroke="#000000" d="M-43.58392552,-46.59865239L-9.28420663,-26.79650537" stroke-width="1.6" stroke-linecap="round" stroke-linejoin="round" transform="matrix(1,0,0,1,372.8547,256.5172)" style="-webkit-tap-highlight-color: rgba(0, 0, 0, 0); stroke-linecap: round; stroke-linejoin: round;"></path>
    <path fill="none" stroke="#000000" d="M-9.28420663,12.80778867L-9.28420663,-26.79650537" stroke-width="1.6" stroke-linecap="round" stroke-linejoin="round" transform="matrix(1,0,0,1,372.8547,256.5172)" style="-webkit-tap-highlight-color: rgba(0, 0, 0, 0); stroke-linecap: round; stroke-linejoin: round;"></path>
    <path fill="none" stroke="#000000" d="M-9.28420663,-26.79650537L16.67544668,-35.23355813" stroke-width="1.6" stroke-linecap="round" stroke-linejoin="round" transform="matrix(1,0,0,1,372.8547,256.5172)" style="-webkit-tap-highlight-color: rgba(0, 0, 0, 0); stroke-linecap: round; stroke-linejoin: round;"></path>
    <path fill="none" stroke="#000000" d="M40.07316768,-22.9422718L41.77550763,-20.59887746" stroke-width="1.6" stroke-linecap="round" stroke-linejoin="round" transform="matrix(1,0,0,1,372.8547,256.5172)" style="-webkit-tap-highlight-color: rgba(0, 0, 0, 0); stroke-linecap: round; stroke-linejoin: round;"></path>
    <path fill="none" stroke="#000000" d="M28.38067713,25.04431539L41.77532319,6.60837648" stroke-width="1.6" stroke-linecap="round" stroke-linejoin="round" transform="matrix(1,0,0,1,372.8547,256.5172)" style="-webkit-tap-highlight-color: rgba(0, 0, 0, 0); stroke-linecap: round; stroke-linejoin: round;"></path>
    <path fill="none" stroke="#000000" d="M60.77656859,2.11876688L72.18707469,8.70635787M64.10980031,-3.65479448L75.52030641,2.93279651" stroke-width="1.6" stroke-linecap="round" stroke-linejoin="round" transform="matrix(1,0,0,1,372.8547,256.5172)" style="-webkit-tap-highlight-color: rgba(0, 0, 0, 0); stroke-linecap: round; stroke-linejoin: round;"></path>
    <path fill="none" stroke="#000000" d="M64.10980031,-10.33392222L75.52030641,-16.92151321M60.77656859,-16.10748358L72.18707469,-22.69507457" stroke-width="1.6" stroke-linecap="round" stroke-linejoin="round" transform="matrix(1,0,0,1,372.8547,256.5172)" style="-webkit-tap-highlight-color: rgba(0, 0, 0, 0); stroke-linecap: round; stroke-linejoin: round;"></path>
  </g>
<svg font-family="sans-serif">
  <text text-anchor="middle" font-size="20.1" y="158.0" x="125">0%</text>
</svg>
</g> </g></g> </svg></svg>